<svg class="marks" width="722" height="890" viewBox="0 0 722 890" version="1.1" xmlns="http://www.w3.org/2000/svg" xmlns:xlink="http://www.w3.org/1999/xlink"><rect width="722" height="890" style="fill: white;"></rect><g transform="translate(57,39)"><g class="mark-group role-frame root" role="graphics-object" aria-roledescription="group mark container"><g transform="translate(0,0)"><path class="background" aria-hidden="true" d="M0.5,0.5h650v800h-650Z" style="fill: none; stroke: #ddd;"></path><g><g class="mark-group role-axis" role="graphics-symbol" aria-roledescription="axis" aria-label="X-axis for a linear scale with values from 0 to 40"><g transform="translate(0.5,800.5)"><path class="background" aria-hidden="true" d="M0,0h0v0h0Z" style="pointer-events: none; fill: none;"></path><g><g class="mark-rule role-axis-grid" style="pointer-events: none;"><line transform="translate(0,-800)" x2="0" y2="800" style="fill: none; stroke: #ddd; stroke-width: 1; opacity: 1;"></line><line transform="translate(33,-800)" x2="0" y2="800" style="fill: none; stroke: #ddd; stroke-width: 1; opacity: 1;"></line><line transform="translate(65,-800)" x2="0" y2="800" style="fill: none; stroke: #ddd; stroke-width: 1; opacity: 1;"></line><line transform="translate(98,-800)" x2="0" y2="800" style="fill: none; stroke: #ddd; stroke-width: 1; opacity: 1;"></line><line transform="translate(130,-800)" x2="0" y2="800" style="fill: none; stroke: #ddd; stroke-width: 1; opacity: 1;"></line><line transform="translate(163,-800)" x2="0" y2="800" style="fill: none; stroke: #ddd; stroke-width: 1; opacity: 1;"></line><line transform="translate(195,-800)" x2="0" y2="800" style="fill: none; stroke: #ddd; stroke-width: 1; opacity: 1;"></line><line transform="translate(227,-800)" x2="0" y2="800" style="fill: none; stroke: #ddd; stroke-width: 1; opacity: 1;"></line><line transform="translate(260,-800)" x2="0" y2="800" style="fill: none; stroke: #ddd; stroke-width: 1; opacity: 1;"></line><line transform="translate(293,-800)" x2="0" y2="800" style="fill: none; stroke: #ddd; stroke-width: 1; opacity: 1;"></line><line transform="translate(325,-800)" x2="0" y2="800" style="fill: none; stroke: #ddd; stroke-width: 1; opacity: 1;"></line><line transform="translate(358,-800)" x2="0" y2="800" style="fill: none; stroke: #ddd; stroke-width: 1; opacity: 1;"></line><line transform="translate(390,-800)" x2="0" y2="800" style="fill: none; stroke: #ddd; stroke-width: 1; opacity: 1;"></line><line transform="translate(423,-800)" x2="0" y2="800" style="fill: none; stroke: #ddd; stroke-width: 1; opacity: 1;"></line><line transform="translate(455,-800)" x2="0" y2="800" style="fill: none; stroke: #ddd; stroke-width: 1; opacity: 1;"></line><line transform="translate(488,-800)" x2="0" y2="800" style="fill: none; stroke: #ddd; stroke-width: 1; opacity: 1;"></line><line transform="translate(520,-800)" x2="0" y2="800" style="fill: none; stroke: #ddd; stroke-width: 1; opacity: 1;"></line><line transform="translate(553,-800)" x2="0" y2="800" style="fill: none; stroke: #ddd; stroke-width: 1; opacity: 1;"></line><line transform="translate(585,-800)" x2="0" y2="800" style="fill: none; stroke: #ddd; stroke-width: 1; opacity: 1;"></line><line transform="translate(618,-800)" x2="0" y2="800" style="fill: none; stroke: #ddd; stroke-width: 1; opacity: 1;"></line><line transform="translate(650,-800)" x2="0" y2="800" style="fill: none; stroke: #ddd; stroke-width: 1; opacity: 1;"></line></g></g><path class="foreground" aria-hidden="true" d="" style="pointer-events: none; display: none; fill: none;"></path></g></g><g class="mark-group role-axis" role="graphics-symbol" aria-roledescription="axis" aria-label="Y-axis for a linear scale with values from 0 to 7"><g transform="translate(0.5,0.5)"><path class="background" aria-hidden="true" d="M0,0h0v0h0Z" style="pointer-events: none; fill: none;"></path><g><g class="mark-rule role-axis-grid" style="pointer-events: none;"><line transform="translate(0,800)" x2="650" y2="0" style="fill: none; stroke: #ddd; stroke-width: 1; opacity: 1;"></line><line transform="translate(0,743)" x2="650" y2="0" style="fill: none; stroke: #ddd; stroke-width: 1; opacity: 1;"></line><line transform="translate(0,686)" x2="650" y2="0" style="fill: none; stroke: #ddd; stroke-width: 1; opacity: 1;"></line><line transform="translate(0,629)" x2="650" y2="0" style="fill: none; stroke: #ddd; stroke-width: 1; opacity: 1;"></line><line transform="translate(0,571)" x2="650" y2="0" style="fill: none; stroke: #ddd; stroke-width: 1; opacity: 1;"></line><line transform="translate(0,514)" x2="650" y2="0" style="fill: none; stroke: #ddd; stroke-width: 1; opacity: 1;"></line><line transform="translate(0,457)" x2="650" y2="0" style="fill: none; stroke: #ddd; stroke-width: 1; opacity: 1;"></line><line transform="translate(0,400)" x2="650" y2="0" style="fill: none; stroke: #ddd; stroke-width: 1; opacity: 1;"></line><line transform="translate(0,343)" x2="650" y2="0" style="fill: none; stroke: #ddd; stroke-width: 1; opacity: 1;"></line><line transform="translate(0,286)" x2="650" y2="0" style="fill: none; stroke: #ddd; stroke-width: 1; opacity: 1;"></line><line transform="translate(0,229)" x2="650" y2="0" style="fill: none; stroke: #ddd; stroke-width: 1; opacity: 1;"></line><line transform="translate(0,171)" x2="650" y2="0" style="fill: none; stroke: #ddd; stroke-width: 1; opacity: 1;"></line><line transform="translate(0,114)" x2="650" y2="0" style="fill: none; stroke: #ddd; stroke-width: 1; opacity: 1;"></line><line transform="translate(0,57)" x2="650" y2="0" style="fill: none; stroke: #ddd; stroke-width: 1; opacity: 1;"></line><line transform="translate(0,0)" x2="650" y2="0" style="fill: none; stroke: #ddd; stroke-width: 1; opacity: 1;"></line></g></g><path class="foreground" aria-hidden="true" d="" style="pointer-events: none; display: none; fill: none;"></path></g></g><g class="mark-group role-axis" role="graphics-symbol" aria-roledescription="axis" aria-label="X-axis titled 'Dias a partir da 5a morte no estado' for a linear scale with values from 0 to 40"><g transform="translate(0.5,800.5)"><path class="background" aria-hidden="true" d="M0,0h0v0h0Z" style="pointer-events: none; fill: none;"></path><g><g class="mark-rule role-axis-tick" style="pointer-events: none;"><line transform="translate(0,0)" x2="0" y2="5" style="fill: none; stroke: #888; stroke-width: 1; opacity: 1;"></line><line transform="translate(33,0)" x2="0" y2="5" style="fill: none; stroke: #888; stroke-width: 1; opacity: 1;"></line><line transform="translate(65,0)" x2="0" y2="5" style="fill: none; stroke: #888; stroke-width: 1; opacity: 1;"></line><line transform="translate(98,0)" x2="0" y2="5" style="fill: none; stroke: #888; stroke-width: 1; opacity: 1;"></line><line transform="translate(130,0)" x2="0" y2="5" style="fill: none; stroke: #888; stroke-width: 1; opacity: 1;"></line><line transform="translate(163,0)" x2="0" y2="5" style="fill: none; stroke: #888; stroke-width: 1; opacity: 1;"></line><line transform="translate(195,0)" x2="0" y2="5" style="fill: none; stroke: #888; stroke-width: 1; opacity: 1;"></line><line transform="translate(227,0)" x2="0" y2="5" style="fill: none; stroke: #888; stroke-width: 1; opacity: 1;"></line><line transform="translate(260,0)" x2="0" y2="5" style="fill: none; stroke: #888; stroke-width: 1; opacity: 1;"></line><line transform="translate(293,0)" x2="0" y2="5" style="fill: none; stroke: #888; stroke-width: 1; opacity: 1;"></line><line transform="translate(325,0)" x2="0" y2="5" style="fill: none; stroke: #888; stroke-width: 1; opacity: 1;"></line><line transform="translate(358,0)" x2="0" y2="5" style="fill: none; stroke: #888; stroke-width: 1; opacity: 1;"></line><line transform="translate(390,0)" x2="0" y2="5" style="fill: none; stroke: #888; stroke-width: 1; opacity: 1;"></line><line transform="translate(423,0)" x2="0" y2="5" style="fill: none; stroke: #888; stroke-width: 1; opacity: 1;"></line><line transform="translate(455,0)" x2="0" y2="5" style="fill: none; stroke: #888; stroke-width: 1; opacity: 1;"></line><line transform="translate(488,0)" x2="0" y2="5" style="fill: none; stroke: #888; stroke-width: 1; opacity: 1;"></line><line transform="translate(520,0)" x2="0" y2="5" style="fill: none; stroke: #888; stroke-width: 1; opacity: 1;"></line><line transform="translate(553,0)" x2="0" y2="5" style="fill: none; stroke: #888; stroke-width: 1; opacity: 1;"></line><line transform="translate(585,0)" x2="0" y2="5" style="fill: none; stroke: #888; stroke-width: 1; opacity: 1;"></line><line transform="translate(618,0)" x2="0" y2="5" style="fill: none; stroke: #888; stroke-width: 1; opacity: 1;"></line><line transform="translate(650,0)" x2="0" y2="5" style="fill: none; stroke: #888; stroke-width: 1; opacity: 1;"></line></g><g class="mark-text role-axis-label" style="pointer-events: none;"><text text-anchor="start" transform="translate(0,19)" style="font-family: sans-serif; font-size: 15px; fill: #000; opacity: 1;">0</text><text text-anchor="middle" transform="translate(32.5,19)" style="font-family: sans-serif; font-size: 15px; fill: #000; opacity: 1;">2</text><text text-anchor="middle" transform="translate(65,19)" style="font-family: sans-serif; font-size: 15px; fill: #000; opacity: 1;">4</text><text text-anchor="middle" transform="translate(97.5,19)" style="font-family: sans-serif; font-size: 15px; fill: #000; opacity: 1;">6</text><text text-anchor="middle" transform="translate(130,19)" style="font-family: sans-serif; font-size: 15px; fill: #000; opacity: 1;">8</text><text text-anchor="middle" transform="translate(162.5,19)" style="font-family: sans-serif; font-size: 15px; fill: #000; opacity: 1;">10</text><text text-anchor="middle" transform="translate(195,19)" style="font-family: sans-serif; font-size: 15px; fill: #000; opacity: 1;">12</text><text text-anchor="middle" transform="translate(227.49999999999997,19)" style="font-family: sans-serif; font-size: 15px; fill: #000; opacity: 1;">14</text><text text-anchor="middle" transform="translate(260,19)" style="font-family: sans-serif; font-size: 15px; fill: #000; opacity: 1;">16</text><text text-anchor="middle" transform="translate(292.5,19)" style="font-family: sans-serif; font-size: 15px; fill: #000; opacity: 1;">18</text><text text-anchor="middle" transform="translate(325,19)" style="font-family: sans-serif; font-size: 15px; fill: #000; opacity: 1;">20</text><text text-anchor="middle" transform="translate(357.50000000000006,19)" style="font-family: sans-serif; font-size: 15px; fill: #000; opacity: 1;">22</text><text text-anchor="middle" transform="translate(390,19)" style="font-family: sans-serif; font-size: 15px; fill: #000; opacity: 1;">24</text><text text-anchor="middle" transform="translate(422.5,19)" style="font-family: sans-serif; font-size: 15px; fill: #000; opacity: 1;">26</text><text text-anchor="middle" transform="translate(454.99999999999994,19)" style="font-family: sans-serif; font-size: 15px; fill: #000; opacity: 1;">28</text><text text-anchor="middle" transform="translate(487.5,19)" style="font-family: sans-serif; font-size: 15px; fill: #000; opacity: 1;">30</text><text text-anchor="middle" transform="translate(520,19)" style="font-family: sans-serif; font-size: 15px; fill: #000; opacity: 1;">32</text><text text-anchor="middle" transform="translate(552.5,19)" style="font-family: sans-serif; font-size: 15px; fill: #000; opacity: 1;">34</text><text text-anchor="middle" transform="translate(585,19)" style="font-family: sans-serif; font-size: 15px; fill: #000; opacity: 1;">36</text><text text-anchor="middle" transform="translate(617.5,19)" style="font-family: sans-serif; font-size: 15px; fill: #000; opacity: 1;">38</text><text text-anchor="end" transform="translate(650,19)" style="font-family: sans-serif; font-size: 15px; fill: #000; opacity: 1;">40</text></g><g class="mark-rule role-axis-domain" style="pointer-events: none;"><line transform="translate(0,0)" x2="650" y2="0" style="fill: none; stroke: #888; stroke-width: 1; opacity: 1;"></line></g><g class="mark-text role-axis-title" style="pointer-events: none;"><text text-anchor="middle" transform="translate(325,42)" style="font-family: sans-serif; font-size: 20px; font-weight: bold; fill: #000; opacity: 1;">Dias a partir da 5a morte no estado</text></g></g><path class="foreground" aria-hidden="true" d="" style="pointer-events: none; display: none; fill: none;"></path></g></g><g class="mark-group role-axis" role="graphics-symbol" aria-roledescription="axis" aria-label="Y-axis titled 'Mortes confirmadas a cada 100 mil habitantes' for a linear scale with values from 0 to 7"><g transform="translate(0.5,0.5)"><path class="background" aria-hidden="true" d="M0,0h0v0h0Z" style="pointer-events: none; fill: none;"></path><g><g class="mark-rule role-axis-tick" style="pointer-events: none;"><line transform="translate(0,800)" x2="-5" y2="0" style="fill: none; stroke: #888; stroke-width: 1; opacity: 1;"></line><line transform="translate(0,743)" x2="-5" y2="0" style="fill: none; stroke: #888; stroke-width: 1; opacity: 1;"></line><line transform="translate(0,686)" x2="-5" y2="0" style="fill: none; stroke: #888; stroke-width: 1; opacity: 1;"></line><line transform="translate(0,629)" x2="-5" y2="0" style="fill: none; stroke: #888; stroke-width: 1; opacity: 1;"></line><line transform="translate(0,571)" x2="-5" y2="0" style="fill: none; stroke: #888; stroke-width: 1; opacity: 1;"></line><line transform="translate(0,514)" x2="-5" y2="0" style="fill: none; stroke: #888; stroke-width: 1; opacity: 1;"></line><line transform="translate(0,457)" x2="-5" y2="0" style="fill: none; stroke: #888; stroke-width: 1; opacity: 1;"></line><line transform="translate(0,400)" x2="-5" y2="0" style="fill: none; stroke: #888; stroke-width: 1; opacity: 1;"></line><line transform="translate(0,343)" x2="-5" y2="0" style="fill: none; stroke: #888; stroke-width: 1; opacity: 1;"></line><line transform="translate(0,286)" x2="-5" y2="0" style="fill: none; stroke: #888; stroke-width: 1; opacity: 1;"></line><line transform="translate(0,229)" x2="-5" y2="0" style="fill: none; stroke: #888; stroke-width: 1; opacity: 1;"></line><line transform="translate(0,171)" x2="-5" y2="0" style="fill: none; stroke: #888; stroke-width: 1; opacity: 1;"></line><line transform="translate(0,114)" x2="-5" y2="0" style="fill: none; stroke: #888; stroke-width: 1; opacity: 1;"></line><line transform="translate(0,57)" x2="-5" y2="0" style="fill: none; stroke: #888; stroke-width: 1; opacity: 1;"></line><line transform="translate(0,0)" x2="-5" y2="0" style="fill: none; stroke: #888; stroke-width: 1; opacity: 1;"></line></g><g class="mark-text role-axis-label" style="pointer-events: none;"><text text-anchor="end" transform="translate(-7,805)" style="font-family: sans-serif; font-size: 15px; fill: #000; opacity: 1;">0.0</text><text text-anchor="end" transform="translate(-7,747.8571428571429)" style="font-family: sans-serif; font-size: 15px; fill: #000; opacity: 1;">0.5</text><text text-anchor="end" transform="translate(-7,690.7142857142858)" style="font-family: sans-serif; font-size: 15px; fill: #000; opacity: 1;">1.0</text><text text-anchor="end" transform="translate(-7,633.5714285714286)" style="font-family: sans-serif; font-size: 15px; fill: #000; opacity: 1;">1.5</text><text text-anchor="end" transform="translate(-7,576.4285714285714)" style="font-family: sans-serif; font-size: 15px; fill: #000; opacity: 1;">2.0</text><text text-anchor="end" transform="translate(-7,519.2857142857142)" style="font-family: sans-serif; font-size: 15px; fill: #000; opacity: 1;">2.5</text><text text-anchor="end" transform="translate(-7,462.1428571428571)" style="font-family: sans-serif; font-size: 15px; fill: #000; opacity: 1;">3.0</text><text text-anchor="end" transform="translate(-7,405)" style="font-family: sans-serif; font-size: 15px; fill: #000; opacity: 1;">3.5</text><text text-anchor="end" transform="translate(-7,347.8571428571429)" style="font-family: sans-serif; font-size: 15px; fill: #000; opacity: 1;">4.0</text><text text-anchor="end" transform="translate(-7,290.71428571428567)" style="font-family: sans-serif; font-size: 15px; fill: #000; opacity: 1;">4.5</text><text text-anchor="end" transform="translate(-7,233.57142857142856)" style="font-family: sans-serif; font-size: 15px; fill: #000; opacity: 1;">5.0</text><text text-anchor="end" transform="translate(-7,176.42857142857144)" style="font-family: sans-serif; font-size: 15px; fill: #000; opacity: 1;">5.5</text><text text-anchor="end" transform="translate(-7,119.28571428571432)" style="font-family: sans-serif; font-size: 15px; fill: #000; opacity: 1;">6.0</text><text text-anchor="end" transform="translate(-7,62.14285714285712)" style="font-family: sans-serif; font-size: 15px; fill: #000; opacity: 1;">6.5</text><text text-anchor="end" transform="translate(-7,5)" style="font-family: sans-serif; font-size: 15px; fill: #000; opacity: 1;">7.0</text></g><g class="mark-rule role-axis-domain" style="pointer-events: none;"><line transform="translate(0,800)" x2="0" y2="-800" style="fill: none; stroke: #888; stroke-width: 1; opacity: 1;"></line></g><g class="mark-text role-axis-title" style="pointer-events: none;"><text text-anchor="middle" transform="translate(-31.85205078125,400) rotate(-90) translate(0,-4)" style="font-family: sans-serif; font-size: 20px; font-weight: bold; fill: #000; opacity: 1;">Mortes confirmadas a cada 100 mil habitantes</text></g></g><path class="foreground" aria-hidden="true" d="" style="pointer-events: none; display: none; fill: none;"></path></g></g><g class="mark-group role-scope layer_0_layer_0_pathgroup" role="graphics-object" aria-roledescription="group mark container"><g transform="translate(0,0)"><path class="background" aria-hidden="true" d="M0,0h650v800h-650Z" style="fill: none;"></path><g><g class="mark-line role-mark layer_0_layer_0_marks" role="graphics-symbol" aria-roledescription="line mark container"><path d="M0,735.2074051456659L16.25,735.2074051456659L32.5,722.248886174799L48.75,722.248886174799L65,696.3318482330654L81.25,696.3318482330654L97.5,696.3318482330654L113.74999999999999,670.4148102913318L130,657.456291320465L146.25,657.456291320465" style="fill: none; stroke: #4c78a8; stroke-width: 4; opacity: 0.7;"></path></g></g><path class="foreground" aria-hidden="true" d="" style="display: none; fill: none;"></path></g><g transform="translate(0,0)"><path class="background" aria-hidden="true" d="M0,0h650v800h-650Z" style="fill: none;"></path><g><g class="mark-line role-mark layer_0_layer_0_marks" role="graphics-symbol" aria-roledescription="line mark container"><path d="M0,782.8778110514227L16.25,782.8778110514227L32.5,776.0289354719918L48.75,765.7556221028453L65,748.6334331542681L81.25,738.3601197851217L97.5,734.9356819954062L113.74999999999999,731.5112442056908L130,724.6623686262599L146.25,707.5401796776825L162.5,700.6913040982516" style="fill: none; stroke: #f58518; stroke-width: 4; opacity: 0.7;"></path></g></g><path class="foreground" aria-hidden="true" d="" style="display: none; fill: none;"></path></g><g transform="translate(0,0)"><path class="background" aria-hidden="true" d="M0,0h650v800h-650Z" style="fill: none;"></path><g><g class="mark-line role-mark layer_0_layer_0_marks" role="graphics-symbol" aria-roledescription="line mark container"><path d="M0,780.6977614470117L16.25,766.9104481948771L32.5,758.6380602435963L48.75,747.6082096418887L65,736.578359040181L81.25,717.2761204871927L97.5,689.7014939829236L113.74999999999999,662.1268674786544L130,653.8544795273737L146.25,629.0373156735315L162.5,604.2201518196892L178.75000000000003,551.8283614615779L195,507.7089590547473L211.25,458.07463134706285L227.49999999999997,400.16791568809776L243.75,356.0485132812671L260,298.141797622302L276.25,289.8694096710213L292.5,267.8097084676059L308.75,231.96269401205615L325,154.7537398001026L341.25,96.84702414113744L357.50000000000006,8.608219327476263" style="fill: none; stroke: #e45756; stroke-width: 4; opacity: 0.7;"></path></g></g><path class="foreground" aria-hidden="true" d="" style="display: none; fill: none;"></path></g><g transform="translate(0,0)"><path class="background" aria-hidden="true" d="M0,0h650v800h-650Z" style="fill: none;"></path><g><g class="mark-line role-mark layer_0_layer_0_marks" role="graphics-symbol" aria-roledescription="line mark container"><path d="M0,732.433767778576L16.25,732.433767778576L32.5,718.9205213342912L48.75,705.4072748900064L65,705.4072748900064L81.25,664.867535557152L97.5,664.867535557152L113.74999999999999,664.867535557152L130,651.3542891128673L146.25,624.3277962242976L162.5,624.3277962242976L178.75000000000003,610.8145497800128L195,583.7880568914433L211.25,556.7615640028736L227.49999999999997,529.735071114304" style="fill: none; stroke: #72b7b2; stroke-width: 4; opacity: 0.7;"></path></g></g><path class="foreground" aria-hidden="true" d="" style="display: none; fill: none;"></path></g><g transform="translate(0,0)"><path class="background" aria-hidden="true" d="M0,0h650v800h-650Z" style="fill: none;"></path><g><g class="mark-line role-mark layer_0_layer_0_marks" role="graphics-symbol" aria-roledescription="line mark container"><path d="M0,795.3895560073279L16.25,794.6211486752159L32.5,793.0843340109917L48.75,792.3159266788797L65,789.2422973504316L81.25,786.1686680219835L97.5,785.4002606898715L113.74999999999999,785.4002606898715L130,783.8634460256475L146.25,783.8634460256475L162.5,783.0950386935355L178.75000000000003,780.0214093650874L195,778.4845947008632L211.25,773.8741507081911L227.49999999999997,772.3373360439671L243.75,769.263706715519L260,765.4216700549588L276.25,763.8848553907347L292.5,763.1164480586227L308.75,759.2744113980625L325,752.3587454090543L341.25,748.5167087484942L357.50000000000006,744.6746720879341" style="fill: none; stroke: #54a24b; stroke-width: 4; opacity: 0.7;"></path></g></g><path class="foreground" aria-hidden="true" d="" style="display: none; fill: none;"></path></g><g transform="translate(0,0)"><path class="background" aria-hidden="true" d="M0,0h650v800h-650Z" style="fill: none;"></path><g><g class="mark-line role-mark layer_0_layer_0_marks" role="graphics-symbol" aria-roledescription="line mark container"><path d="M0,793.7426227477627L16.25,793.7426227477627L32.5,791.2396718468676L48.75,788.7367209459728L65,773.7190155406031L81.25,772.4675400901557L97.5,771.2160646397083L113.74999999999999,756.1983592343386L130,756.1983592343386L146.25,749.9409819821012L162.5,728.6658993244943L178.75000000000003,728.6658993244943L195,716.1511448200196L211.25,707.3908166668873L227.49999999999997,704.8878657659923L243.75,673.6009795048055L260,661.0862250003308L276.25,644.8170441445137L292.5,631.0508141895916L308.75,606.0213051806421L325,574.7344189194555L341.25,563.4711398654282L357.50000000000006,542.1960572078212L373.74999999999994,523.4239254511092L390,500.8973673430548L406.25,460.85015292873567L422.5,433.31769301889136L438.75000000000006,392.01900315412485" style="fill: none; stroke: #eeca3b; stroke-width: 4; opacity: 0.7;"></path></g></g><path class="foreground" aria-hidden="true" d="" style="display: none; fill: none;"></path></g><g transform="translate(0,0)"><path class="background" aria-hidden="true" d="M0,0h650v800h-650Z" style="fill: none;"></path><g><g class="mark-line role-mark layer_0_layer_0_marks" role="graphics-symbol" aria-roledescription="line mark container"><path d="M0,781.0488297747142L16.25,777.258595729657L32.5,773.4683616845998L48.75,773.4683616845998L65,762.0976595494284L81.25,754.5171914593141L97.5,754.5171914593141L113.74999999999999,750.726957414257L130,746.9367233691996L146.25,746.9367233691996L162.5,746.9367233691996L178.75000000000003,743.1464893241425L195,735.5660212340282L211.25,735.5660212340282L227.49999999999997,724.1953190988567L243.75,709.034382918628L260,709.034382918628L276.25,709.034382918628L292.5,709.034382918628L308.75,709.034382918628L325,705.2441488735709L341.25,701.4539148285137L357.50000000000006,701.4539148285137L373.74999999999994,697.6636807834566" style="fill: none; stroke: #b279a2; stroke-width: 4; opacity: 0.7;"></path></g></g><path class="foreground" aria-hidden="true" d="" style="display: none; fill: none;"></path></g><g transform="translate(0,0)"><path class="background" aria-hidden="true" d="M0,0h650v800h-650Z" style="fill: none;"></path><g><g class="mark-line role-mark layer_0_layer_0_marks" role="graphics-symbol" aria-roledescription="line mark container"><path d="M0,785.7805837425859L16.25,782.9367004911031L32.5,782.9367004911031L48.75,782.9367004911031L65,782.9367004911031L81.25,782.9367004911031L97.5,780.0928172396203L113.74999999999999,777.2489339881374L130,774.4050507366546L146.25,760.1856344792405L162.5,751.653984724792L178.75000000000003,748.8101014733093L195,740.2784517188608L211.25,720.3712689584811L227.49999999999997,720.3712689584811L243.75,714.6835024555155L260,703.3079694495842L276.25,703.3079694495842L292.5,703.3079694495842L308.75,694.7763196951357L325,677.7130201862387L341.25,666.3374871803076L357.50000000000006,652.1180709228935" style="fill: none; stroke: #ff9da6; stroke-width: 4; opacity: 0.7;"></path></g></g><path class="foreground" aria-hidden="true" d="" style="display: none; fill: none;"></path></g><g transform="translate(0,0)"><path class="background" aria-hidden="true" d="M0,0h650v800h-650Z" style="fill: none;"></path><g><g class="mark-line role-mark layer_0_layer_0_marks" role="graphics-symbol" aria-roledescription="line mark container"><path d="M0,791.8580828007739L16.25,791.8580828007739L32.5,788.6013159210835L48.75,788.6013159210835L65,786.9729324812383L81.25,783.7161656015478L97.5,777.202631842167L113.74999999999999,775.5742484023218L130,775.5742484023218L146.25,775.5742484023218L162.5,773.9458649624765L178.75000000000003,773.9458649624765L195,770.6890980827861L211.25,770.6890980827861L227.49999999999997,769.0607146429409L243.75,769.0607146429409L260,765.8039477632504L276.25,762.54718088356L292.5,760.9187974437148L308.75,759.2904140038696" style="fill: none; stroke: #9d755d; stroke-width: 4; opacity: 0.7;"></path></g></g><path class="foreground" aria-hidden="true" d="" style="display: none; fill: none;"></path></g><g transform="translate(0,0)"><path class="background" aria-hidden="true" d="M0,0h650v800h-650Z" style="fill: none;"></path><g><g class="mark-line role-mark layer_0_layer_0_marks" role="graphics-symbol" aria-roledescription="line mark container"><path d="M0,782.2316509338368L16.25,780.6163464732765L32.5,774.1551286310354L48.75,766.0786063282338L65,761.232692946553L81.25,756.3867795648721L97.5,748.3102572620706L113.74999999999999,745.07964834095L130,740.2337349592692L146.25,735.3878215775883L162.5,728.926603735347L178.75000000000003,722.4653858931059L195,712.7735591297443L211.25,703.0817323663824L227.49999999999997,693.3899056030208L243.75,677.2368609974178L260,657.8532074706943L276.25,638.4695539439708L292.5,619.0859004172472" style="fill: none; stroke: #bab0ac; stroke-width: 4; opacity: 0.7;"></path></g></g><path class="foreground" aria-hidden="true" d="" style="display: none; fill: none;"></path></g><g transform="translate(0,0)"><path class="background" aria-hidden="true" d="M0,0h650v800h-650Z" style="fill: none;"></path><g><g class="mark-line role-mark layer_0_layer_0_marks" role="graphics-symbol" aria-roledescription="line mark container"><path d="M0,796.7607300496552L16.25,796.7607300496552L32.5,796.7607300496552L48.75,795.1410950744829L65,794.0613384243679L81.25,792.4417034491956L97.5,791.9018251241381L113.74999999999999,790.8220684740231L130,790.8220684740231L146.25,789.2024334988508L162.5,787.5827985236784L178.75000000000003,785.4232852234486L195,783.8036502482762L211.25,782.1840152731038L227.49999999999997,781.1042586229889L243.75,778.9447453227591L260,778.9447453227591L276.25,777.8649886726441L292.5,776.2453536974717L308.75,774.6257187222993L325,772.4662054220696L341.25,770.8465704468972L357.50000000000006,768.6870571466673" style="fill: none; stroke: #4c78a8; stroke-width: 4; opacity: 0.7;"></path></g></g><path class="foreground" aria-hidden="true" d="" style="display: none; fill: none;"></path></g><g transform="translate(0,0)"><path class="background" aria-hidden="true" d="M0,0h650v800h-650Z" style="fill: none;"></path><g><g class="mark-line role-mark layer_0_layer_0_marks" role="graphics-symbol" aria-roledescription="line mark container"><path d="M0,779.4375152869222L16.25,779.4375152869222L32.5,779.4375152869222L48.75,779.4375152869222L65,779.4375152869222L81.25,775.3250183443066L97.5,775.3250183443066L113.74999999999999,771.2125214016911L130,771.2125214016911L146.25,771.2125214016911" style="fill: none; stroke: #f58518; stroke-width: 4; opacity: 0.7;"></path></g></g><path class="foreground" aria-hidden="true" d="" style="display: none; fill: none;"></path></g><g transform="translate(0,0)"><path class="background" aria-hidden="true" d="M0,0h650v800h-650Z" style="fill: none;"></path><g><g class="mark-line role-mark layer_0_layer_0_marks" role="graphics-symbol" aria-roledescription="line mark container"><path d="M0,783.600684540226L16.25,783.600684540226L32.5,783.600684540226L48.75,783.600684540226L65,780.3208214482711L81.25,780.3208214482711L97.5,780.3208214482711L113.74999999999999,777.0409583563163L130,773.7610952643615L146.25,770.4812321724066" style="fill: none; stroke: #e45756; stroke-width: 4; opacity: 0.7;"></path></g></g><path class="foreground" aria-hidden="true" d="" style="display: none; fill: none;"></path></g><g transform="translate(0,0)"><path class="background" aria-hidden="true" d="M0,0h650v800h-650Z" style="fill: none;"></path><g><g class="mark-line role-mark layer_0_layer_0_marks" role="graphics-symbol" aria-roledescription="line mark container"><path d="M0,793.3576945421255L16.25,793.3576945421255L32.5,792.0292334505507L48.75,790.7007723589758L65,788.0438501758259L81.25,785.3869279926762L97.5,781.4015447179515L113.74999999999999,781.4015447179515L130,772.1023170769273L146.25,772.1023170769273L162.5,765.4600116190528L178.75000000000003,757.4892450696035L195,756.1607839780286L211.25,754.8323228864537L227.49999999999997,753.5038617948788L243.75,749.5184785201541L260,742.8761730622797L276.25,729.5915621465308L292.5,685.7523461245594L308.75,673.7961963003853" style="fill: none; stroke: #72b7b2; stroke-width: 4; opacity: 0.7;"></path></g></g><path class="foreground" aria-hidden="true" d="" style="display: none; fill: none;"></path></g><g transform="translate(0,0)"><path class="background" aria-hidden="true" d="M0,0h650v800h-650Z" style="fill: none;"></path><g><g class="mark-line role-mark layer_0_layer_0_marks" role="graphics-symbol" aria-roledescription="line mark container"><path d="M0,780.0902261177906L16.25,768.713212470814L32.5,768.713212470814L48.75,763.0247056473256L65,763.0247056473256L81.25,754.4919454120931L97.5,740.2706783533721L113.74999999999999,731.7379181181396L130,726.0494112946512L146.25,720.3609044711628L162.5,717.5166510594187L178.75000000000003,708.9838908241861L195,706.1396374124419L211.25,689.0741169419767L227.49999999999997,686.2298635302326L243.75,674.8528498832558L260,669.1643430597675L276.25,660.6315828245349" style="fill: none; stroke: #54a24b; stroke-width: 4; opacity: 0.7;"></path></g></g><path class="foreground" aria-hidden="true" d="" style="display: none; fill: none;"></path></g><g transform="translate(0,0)"><path class="background" aria-hidden="true" d="M0,0h650v800h-650Z" style="fill: none;"></path><g><g class="mark-line role-mark layer_0_layer_0_marks" role="graphics-symbol" aria-roledescription="line mark container"><path d="M0,794.0208818012488L16.25,794.0208818012488L32.5,792.8250581614985L48.75,792.8250581614985L65,790.433410881998L81.25,789.2375872422479L97.5,788.0417636024977L113.74999999999999,783.2584690434967L130,774.887703565245L146.25,764.1252908074929L162.5,759.341996248492L178.75000000000003,744.9921125714892L195,733.0338761739868L211.25,722.2714634162346L227.49999999999997,713.900697937983L243.75,698.35499062123L260,678.025988745476L276.25,662.4802814287228L292.5,628.9972195157162L308.75,608.6682176399622L325,577.5768030064561L341.25,554.8561538512016L357.50000000000006,541.7020938139491L373.74999999999994,520.1772682984448L390,489.0858536649386L406.25,462.7777335904334L422.5,426.90302439792623L438.75000000000006,379.0700788079169L454.99999999999994,344.39119325516003" style="fill: none; stroke: #eeca3b; stroke-width: 4; opacity: 0.7;"></path></g></g><path class="foreground" aria-hidden="true" d="" style="display: none; fill: none;"></path></g><g transform="translate(0,0)"><path class="background" aria-hidden="true" d="M0,0h650v800h-650Z" style="fill: none;"></path><g><g class="mark-line role-mark layer_0_layer_0_marks" role="graphics-symbol" aria-roledescription="line mark container"><path d="M0,782.5423482261215L16.25,779.0508178713458L32.5,775.55928751657L48.75,775.55928751657L65,775.55928751657L81.25,775.55928751657L97.5,772.0677571617944L113.74999999999999,772.0677571617944L130,772.0677571617944L146.25,772.0677571617944L162.5,768.5762268070187L178.75000000000003,765.084696452243L195,758.1016357426914L211.25,751.1185750331401L227.49999999999997,747.6270446783643L243.75,747.6270446783643L260,744.1355143235887L276.25,740.6439839688129L292.5,737.1524536140372" style="fill: none; stroke: #b279a2; stroke-width: 4; opacity: 0.7;"></path></g></g><path class="foreground" aria-hidden="true" d="" style="display: none; fill: none;"></path></g><g transform="translate(0,0)"><path class="background" aria-hidden="true" d="M0,0h650v800h-650Z" style="fill: none;"></path><g><g class="mark-line role-mark layer_0_layer_0_marks" role="graphics-symbol" aria-roledescription="line mark container"><path d="M0,795.0023550776991L16.25,793.0032971087787L32.5,790.0047101553981L48.75,786.0065942175573L65,785.0070652330973L81.25,783.0080072641769L97.5,776.0113043729556L113.74999999999999,774.0122464040352L130,773.012717419575L146.25,769.0146014817342L162.5,767.0155435128139L178.75000000000003,761.0183696060527L195,759.0193116371324L211.25,757.020253668212L227.49999999999997,756.0207246837518L243.75,751.023079761451L260,748.0244928080704L276.25,747.0249638236102L292.5,745.0259058546898L308.75,740.0282609323889L325,738.0292029634685L341.25,733.0315580411676L357.50000000000006,729.0334421033268" style="fill: none; stroke: #ff9da6; stroke-width: 4; opacity: 0.7;"></path></g></g><path class="foreground" aria-hidden="true" d="" style="display: none; fill: none;"></path></g><g transform="translate(0,0)"><path class="background" aria-hidden="true" d="M0,0h650v800h-650Z" style="fill: none;"></path><g><g class="mark-line role-mark layer_0_layer_0_marks" role="graphics-symbol" aria-roledescription="line mark container"><path d="M0,796.0282852615599L16.25,794.7043803487464L32.5,794.0424278923398L48.75,793.3804754359331L65,791.3946180667131L81.25,788.7468082410863L97.5,788.0848557846797L113.74999999999999,784.7750935026462L130,781.4653312206127L146.25,772.8599492873259L162.5,768.8882345488857L178.75000000000003,761.6067575284122L195,757.6350427899721L211.25,753.0013755951252L227.49999999999997,741.0862313798049L243.75,729.8330396208912L260,719.2418003183842L276.25,702.6929889082171L292.5,697.3973692569637L308.75,687.4680824108633L325,679.524652933983L341.25,651.7226497649021L357.50000000000006,624.5825990522281L373.74999999999994,600.7523106215873L390,574.2742123653198L406.25,543.8243993706122L422.5,533.895112524512L438.75000000000006,520.6560633963783L454.99999999999994,494.8399175965175L471.25,475.6432963607235L487.5,449.1651981044561L503.75,422.68709984818867L520,392.8992393098878" style="fill: none; stroke: #9d755d; stroke-width: 4; opacity: 0.7;"></path></g></g><path class="foreground" aria-hidden="true" d="" style="display: none; fill: none;"></path></g><g transform="translate(0,0)"><path class="background" aria-hidden="true" d="M0,0h650v800h-650Z" style="fill: none;"></path><g><g class="mark-line role-mark layer_0_layer_0_marks" role="graphics-symbol" aria-roledescription="line mark container"><path d="M0,780.4464491179332L16.25,777.1875239709221L32.5,777.1875239709221L48.75,773.928598823911L65,764.1518233828775L81.25,764.1518233828775L97.5,764.1518233828775L113.74999999999999,757.6339730888553L130,744.5982725008107L146.25,741.3393473537997L162.5,738.0804222067885L178.75000000000003,734.8214970597774L195,725.044721618744L211.25,721.7857964717329L227.49999999999997,715.2679461777105L243.75,712.0090210306994L260,708.7500958836883L276.25,705.4911707366772L292.5,689.1965450016215L308.75,676.160844413577L325,669.6429941195547L341.25,656.6072935315102" style="fill: none; stroke: #bab0ac; stroke-width: 4; opacity: 0.7;"></path></g></g><path class="foreground" aria-hidden="true" d="" style="display: none; fill: none;"></path></g><g transform="translate(0,0)"><path class="background" aria-hidden="true" d="M0,0h650v800h-650Z" style="fill: none;"></path><g><g class="mark-line role-mark layer_0_layer_0_marks" role="graphics-symbol" aria-roledescription="line mark container"><path d="M0,767.8471453288935L16.25,767.8471453288935L32.5,767.8471453288935L48.75,761.4165743946722L65,754.986003460451" style="fill: none; stroke: #4c78a8; stroke-width: 4; opacity: 0.7;"></path></g></g><path class="foreground" aria-hidden="true" d="" style="display: none; fill: none;"></path></g><g transform="translate(0,0)"><path class="background" aria-hidden="true" d="M0,0h650v800h-650Z" style="fill: none;"></path><g><g class="mark-line role-mark layer_0_layer_0_marks" role="graphics-symbol" aria-roledescription="line mark container"><path d="M0,794.97744073559L16.25,794.97744073559L32.5,793.972928882708L48.75,792.968417029826L65,792.968417029826L81.25,791.963905176944L97.5,791.963905176944L113.74999999999999,789.95488147118L130,785.9368340596519L146.25,784.93232220677L162.5,783.9278103538879L178.75000000000003,783.9278103538879L195,782.9232985010059L211.25,781.918786648124L227.49999999999997,780.9142747952419L243.75,778.9052510894779L260,775.8917155308319L276.25,775.8917155308319L292.5,773.8826918250678L308.75,772.8781799721858L325,772.8781799721858L341.25,771.8736681193038L357.50000000000006,770.8691562664218L373.74999999999994,765.8465970020118L390,764.8420851491297" style="fill: none; stroke: #f58518; stroke-width: 4; opacity: 0.7;"></path></g></g><path class="foreground" aria-hidden="true" d="" style="display: none; fill: none;"></path></g><g transform="translate(0,0)"><path class="background" aria-hidden="true" d="M0,0h650v800h-650Z" style="fill: none;"></path><g><g class="mark-line role-mark layer_0_layer_0_marks" role="graphics-symbol" aria-roledescription="line mark container"><path d="M0,792.02448737592L16.25,792.02448737592L32.5,784.0489747518399L48.75,784.0489747518399L65,782.4538722270239L81.25,776.07346212776L97.5,772.8832570781278L113.74999999999999,771.2881545533119L130,771.2881545533119L146.25,766.5028469788639L162.5,761.7175394044159L178.75000000000003,758.5273343547838L195,755.3371293051518L211.25,753.7420267803358L227.49999999999997,752.1469242555198L243.75,750.5518217307038L260,748.9567192058878L276.25,744.1714116314397L292.5,744.1714116314397L308.75,740.9812065818078L325,737.7910015321758L341.25,733.0056939577278L357.50000000000006,733.0056939577278L373.74999999999994,733.0056939577278" style="fill: none; stroke: #e45756; stroke-width: 4; opacity: 0.7;"></path></g></g><path class="foreground" aria-hidden="true" d="" style="display: none; fill: none;"></path></g><g transform="translate(0,0)"><path class="background" aria-hidden="true" d="M0,0h650v800h-650Z" style="fill: none;"></path><g><g class="mark-line role-mark layer_0_layer_0_marks" role="graphics-symbol" aria-roledescription="line mark container"><path d="M0,775.1411856361793L16.25,775.1411856361793L32.5,775.1411856361793L48.75,765.197659890651L65,765.197659890651L81.25,760.2258970178868L97.5,760.2258970178868L113.74999999999999,755.2541341451227" style="fill: none; stroke: #72b7b2; stroke-width: 4; opacity: 0.7;"></path></g></g><path class="foreground" aria-hidden="true" d="" style="display: none; fill: none;"></path></g><g transform="translate(0,0)"><path class="background" aria-hidden="true" d="M0,0h650v800h-650Z" style="fill: none;"></path><g><g class="mark-line role-mark layer_0_layer_0_marks" role="graphics-symbol" aria-roledescription="line mark container"><path d="M0,798.7555740289208L16.25,797.7600332520575L32.5,796.2667220867625L48.75,794.5245257272516L65,792.5334441735249L81.25,790.0445922313666L97.5,788.0535106776399L113.74999999999999,785.5646587354815L130,783.0758067933233L146.25,779.0936436858699L162.5,775.6092509668482L178.75000000000003,771.8759730536107L195,766.1516135866465L211.25,759.1828281486031L227.49999999999997,753.2095834874231L243.75,745.4941424667322L260,735.289849503883L276.25,731.5565715906455L292.5,724.3389009583863L308.75,707.6635929459253L325,693.4771368756228L341.25,676.552943668946L357.50000000000006,665.6019951234492L373.74999999999994,660.6242912391326L390,653.6555058010892L406.25,648.6778019167725L422.5,627.024790019995L438.75000000000006,606.3673189000806L454.99999999999994,587.700929333893L471.25,569.0345397677055L487.5,553.3547725321079L503.75,547.3815278709278L520,541.9060535981795L536.25,527.9684827220927L552.5,517.7641897592435L568.75,465.2494137797024L585,423.68558634565795L601.25,385.1083812422036" style="fill: none; stroke: #54a24b; stroke-width: 4; opacity: 0.7;"></path></g></g><path class="foreground" aria-hidden="true" d="" style="display: none; fill: none;"></path></g></g><g class="mark-group role-scope layer_0_layer_1_pathgroup" role="graphics-object" aria-roledescription="group mark container"><g transform="translate(0,0)"><path class="background" aria-hidden="true" d="M0,0h650v800h-650Z" style="fill: none;"></path><g><g class="mark-line role-mark layer_0_layer_1_marks" role="graphics-symbol" aria-roledescription="line mark container" style="pointer-events: none;"><path d="M0,735.2074051456659L16.25,735.2074051456659L32.5,722.248886174799L48.75,722.248886174799L65,696.3318482330654L81.25,696.3318482330654L97.5,696.3318482330654L113.74999999999999,670.4148102913318L130,657.456291320465L146.25,657.456291320465" style="fill: none; stroke: #4c78a8; stroke-width: 4; opacity: 0.5;"></path></g></g><path class="foreground" aria-hidden="true" d="" style="display: none; fill: none;"></path></g><g transform="translate(0,0)"><path class="background" aria-hidden="true" d="M0,0h650v800h-650Z" style="fill: none;"></path><g><g class="mark-line role-mark layer_0_layer_1_marks" role="graphics-symbol" aria-roledescription="line mark container" style="pointer-events: none;"><path d="M0,782.8778110514227L16.25,782.8778110514227L32.5,776.0289354719918L48.75,765.7556221028453L65,748.6334331542681L81.25,738.3601197851217L97.5,734.9356819954062L113.74999999999999,731.5112442056908L130,724.6623686262599L146.25,707.5401796776825L162.5,700.6913040982516" style="fill: none; stroke: #f58518; stroke-width: 4; opacity: 0.5;"></path></g></g><path class="foreground" aria-hidden="true" d="" style="display: none; fill: none;"></path></g><g transform="translate(0,0)"><path class="background" aria-hidden="true" d="M0,0h650v800h-650Z" style="fill: none;"></path><g><g class="mark-line role-mark layer_0_layer_1_marks" role="graphics-symbol" aria-roledescription="line mark container" style="pointer-events: none;"><path d="M0,780.6977614470117L16.25,766.9104481948771L32.5,758.6380602435963L48.75,747.6082096418887L65,736.578359040181L81.25,717.2761204871927L97.5,689.7014939829236L113.74999999999999,662.1268674786544L130,653.8544795273737L146.25,629.0373156735315L162.5,604.2201518196892L178.75000000000003,551.8283614615779L195,507.7089590547473L211.25,458.07463134706285L227.49999999999997,400.16791568809776L243.75,356.0485132812671L260,298.141797622302L276.25,289.8694096710213L292.5,267.8097084676059L308.75,231.96269401205615L325,154.7537398001026L341.25,96.84702414113744L357.50000000000006,8.608219327476263" style="fill: none; stroke: #e45756; stroke-width: 4; opacity: 0.5;"></path></g></g><path class="foreground" aria-hidden="true" d="" style="display: none; fill: none;"></path></g><g transform="translate(0,0)"><path class="background" aria-hidden="true" d="M0,0h650v800h-650Z" style="fill: none;"></path><g><g class="mark-line role-mark layer_0_layer_1_marks" role="graphics-symbol" aria-roledescription="line mark container" style="pointer-events: none;"><path d="M0,732.433767778576L16.25,732.433767778576L32.5,718.9205213342912L48.75,705.4072748900064L65,705.4072748900064L81.25,664.867535557152L97.5,664.867535557152L113.74999999999999,664.867535557152L130,651.3542891128673L146.25,624.3277962242976L162.5,624.3277962242976L178.75000000000003,610.8145497800128L195,583.7880568914433L211.25,556.7615640028736L227.49999999999997,529.735071114304" style="fill: none; stroke: #72b7b2; stroke-width: 4; opacity: 0.5;"></path></g></g><path class="foreground" aria-hidden="true" d="" style="display: none; fill: none;"></path></g><g transform="translate(0,0)"><path class="background" aria-hidden="true" d="M0,0h650v800h-650Z" style="fill: none;"></path><g><g class="mark-line role-mark layer_0_layer_1_marks" role="graphics-symbol" aria-roledescription="line mark container" style="pointer-events: none;"><path d="M0,795.3895560073279L16.25,794.6211486752159L32.5,793.0843340109917L48.75,792.3159266788797L65,789.2422973504316L81.25,786.1686680219835L97.5,785.4002606898715L113.74999999999999,785.4002606898715L130,783.8634460256475L146.25,783.8634460256475L162.5,783.0950386935355L178.75000000000003,780.0214093650874L195,778.4845947008632L211.25,773.8741507081911L227.49999999999997,772.3373360439671L243.75,769.263706715519L260,765.4216700549588L276.25,763.8848553907347L292.5,763.1164480586227L308.75,759.2744113980625L325,752.3587454090543L341.25,748.5167087484942L357.50000000000006,744.6746720879341" style="fill: none; stroke: #54a24b; stroke-width: 4; opacity: 0.5;"></path></g></g><path class="foreground" aria-hidden="true" d="" style="display: none; fill: none;"></path></g><g transform="translate(0,0)"><path class="background" aria-hidden="true" d="M0,0h650v800h-650Z" style="fill: none;"></path><g><g class="mark-line role-mark layer_0_layer_1_marks" role="graphics-symbol" aria-roledescription="line mark container" style="pointer-events: none;"><path d="M0,793.7426227477627L16.25,793.7426227477627L32.5,791.2396718468676L48.75,788.7367209459728L65,773.7190155406031L81.25,772.4675400901557L97.5,771.2160646397083L113.74999999999999,756.1983592343386L130,756.1983592343386L146.25,749.9409819821012L162.5,728.6658993244943L178.75000000000003,728.6658993244943L195,716.1511448200196L211.25,707.3908166668873L227.49999999999997,704.8878657659923L243.75,673.6009795048055L260,661.0862250003308L276.25,644.8170441445137L292.5,631.0508141895916L308.75,606.0213051806421L325,574.7344189194555L341.25,563.4711398654282L357.50000000000006,542.1960572078212L373.74999999999994,523.4239254511092L390,500.8973673430548L406.25,460.85015292873567L422.5,433.31769301889136L438.75000000000006,392.01900315412485" style="fill: none; stroke: #eeca3b; stroke-width: 4; opacity: 0.5;"></path></g></g><path class="foreground" aria-hidden="true" d="" style="display: none; fill: none;"></path></g><g transform="translate(0,0)"><path class="background" aria-hidden="true" d="M0,0h650v800h-650Z" style="fill: none;"></path><g><g class="mark-line role-mark layer_0_layer_1_marks" role="graphics-symbol" aria-roledescription="line mark container" style="pointer-events: none;"><path d="M0,781.0488297747142L16.25,777.258595729657L32.5,773.4683616845998L48.75,773.4683616845998L65,762.0976595494284L81.25,754.5171914593141L97.5,754.5171914593141L113.74999999999999,750.726957414257L130,746.9367233691996L146.25,746.9367233691996L162.5,746.9367233691996L178.75000000000003,743.1464893241425L195,735.5660212340282L211.25,735.5660212340282L227.49999999999997,724.1953190988567L243.75,709.034382918628L260,709.034382918628L276.25,709.034382918628L292.5,709.034382918628L308.75,709.034382918628L325,705.2441488735709L341.25,701.4539148285137L357.50000000000006,701.4539148285137L373.74999999999994,697.6636807834566" style="fill: none; stroke: #b279a2; stroke-width: 4; opacity: 0.5;"></path></g></g><path class="foreground" aria-hidden="true" d="" style="display: none; fill: none;"></path></g><g transform="translate(0,0)"><path class="background" aria-hidden="true" d="M0,0h650v800h-650Z" style="fill: none;"></path><g><g class="mark-line role-mark layer_0_layer_1_marks" role="graphics-symbol" aria-roledescription="line mark container" style="pointer-events: none;"><path d="M0,785.7805837425859L16.25,782.9367004911031L32.5,782.9367004911031L48.75,782.9367004911031L65,782.9367004911031L81.25,782.9367004911031L97.5,780.0928172396203L113.74999999999999,777.2489339881374L130,774.4050507366546L146.25,760.1856344792405L162.5,751.653984724792L178.75000000000003,748.8101014733093L195,740.2784517188608L211.25,720.3712689584811L227.49999999999997,720.3712689584811L243.75,714.6835024555155L260,703.3079694495842L276.25,703.3079694495842L292.5,703.3079694495842L308.75,694.7763196951357L325,677.7130201862387L341.25,666.3374871803076L357.50000000000006,652.1180709228935" style="fill: none; stroke: #ff9da6; stroke-width: 4; opacity: 0.5;"></path></g></g><path class="foreground" aria-hidden="true" d="" style="display: none; fill: none;"></path></g><g transform="translate(0,0)"><path class="background" aria-hidden="true" d="M0,0h650v800h-650Z" style="fill: none;"></path><g><g class="mark-line role-mark layer_0_layer_1_marks" role="graphics-symbol" aria-roledescription="line mark container" style="pointer-events: none;"><path d="M0,791.8580828007739L16.25,791.8580828007739L32.5,788.6013159210835L48.75,788.6013159210835L65,786.9729324812383L81.25,783.7161656015478L97.5,777.202631842167L113.74999999999999,775.5742484023218L130,775.5742484023218L146.25,775.5742484023218L162.5,773.9458649624765L178.75000000000003,773.9458649624765L195,770.6890980827861L211.25,770.6890980827861L227.49999999999997,769.0607146429409L243.75,769.0607146429409L260,765.8039477632504L276.25,762.54718088356L292.5,760.9187974437148L308.75,759.2904140038696" style="fill: none; stroke: #9d755d; stroke-width: 4; opacity: 0.5;"></path></g></g><path class="foreground" aria-hidden="true" d="" style="display: none; fill: none;"></path></g><g transform="translate(0,0)"><path class="background" aria-hidden="true" d="M0,0h650v800h-650Z" style="fill: none;"></path><g><g class="mark-line role-mark layer_0_layer_1_marks" role="graphics-symbol" aria-roledescription="line mark container" style="pointer-events: none;"><path d="M0,782.2316509338368L16.25,780.6163464732765L32.5,774.1551286310354L48.75,766.0786063282338L65,761.232692946553L81.25,756.3867795648721L97.5,748.3102572620706L113.74999999999999,745.07964834095L130,740.2337349592692L146.25,735.3878215775883L162.5,728.926603735347L178.75000000000003,722.4653858931059L195,712.7735591297443L211.25,703.0817323663824L227.49999999999997,693.3899056030208L243.75,677.2368609974178L260,657.8532074706943L276.25,638.4695539439708L292.5,619.0859004172472" style="fill: none; stroke: #bab0ac; stroke-width: 4; opacity: 0.5;"></path></g></g><path class="foreground" aria-hidden="true" d="" style="display: none; fill: none;"></path></g><g transform="translate(0,0)"><path class="background" aria-hidden="true" d="M0,0h650v800h-650Z" style="fill: none;"></path><g><g class="mark-line role-mark layer_0_layer_1_marks" role="graphics-symbol" aria-roledescription="line mark container" style="pointer-events: none;"><path d="M0,796.7607300496552L16.25,796.7607300496552L32.5,796.7607300496552L48.75,795.1410950744829L65,794.0613384243679L81.25,792.4417034491956L97.5,791.9018251241381L113.74999999999999,790.8220684740231L130,790.8220684740231L146.25,789.2024334988508L162.5,787.5827985236784L178.75000000000003,785.4232852234486L195,783.8036502482762L211.25,782.1840152731038L227.49999999999997,781.1042586229889L243.75,778.9447453227591L260,778.9447453227591L276.25,777.8649886726441L292.5,776.2453536974717L308.75,774.6257187222993L325,772.4662054220696L341.25,770.8465704468972L357.50000000000006,768.6870571466673" style="fill: none; stroke: #4c78a8; stroke-width: 4; opacity: 0.5;"></path></g></g><path class="foreground" aria-hidden="true" d="" style="display: none; fill: none;"></path></g><g transform="translate(0,0)"><path class="background" aria-hidden="true" d="M0,0h650v800h-650Z" style="fill: none;"></path><g><g class="mark-line role-mark layer_0_layer_1_marks" role="graphics-symbol" aria-roledescription="line mark container" style="pointer-events: none;"><path d="M0,779.4375152869222L16.25,779.4375152869222L32.5,779.4375152869222L48.75,779.4375152869222L65,779.4375152869222L81.25,775.3250183443066L97.5,775.3250183443066L113.74999999999999,771.2125214016911L130,771.2125214016911L146.25,771.2125214016911" style="fill: none; stroke: #f58518; stroke-width: 4; opacity: 0.5;"></path></g></g><path class="foreground" aria-hidden="true" d="" style="display: none; fill: none;"></path></g><g transform="translate(0,0)"><path class="background" aria-hidden="true" d="M0,0h650v800h-650Z" style="fill: none;"></path><g><g class="mark-line role-mark layer_0_layer_1_marks" role="graphics-symbol" aria-roledescription="line mark container" style="pointer-events: none;"><path d="M0,783.600684540226L16.25,783.600684540226L32.5,783.600684540226L48.75,783.600684540226L65,780.3208214482711L81.25,780.3208214482711L97.5,780.3208214482711L113.74999999999999,777.0409583563163L130,773.7610952643615L146.25,770.4812321724066" style="fill: none; stroke: #e45756; stroke-width: 4; opacity: 0.5;"></path></g></g><path class="foreground" aria-hidden="true" d="" style="display: none; fill: none;"></path></g><g transform="translate(0,0)"><path class="background" aria-hidden="true" d="M0,0h650v800h-650Z" style="fill: none;"></path><g><g class="mark-line role-mark layer_0_layer_1_marks" role="graphics-symbol" aria-roledescription="line mark container" style="pointer-events: none;"><path d="M0,793.3576945421255L16.25,793.3576945421255L32.5,792.0292334505507L48.75,790.7007723589758L65,788.0438501758259L81.25,785.3869279926762L97.5,781.4015447179515L113.74999999999999,781.4015447179515L130,772.1023170769273L146.25,772.1023170769273L162.5,765.4600116190528L178.75000000000003,757.4892450696035L195,756.1607839780286L211.25,754.8323228864537L227.49999999999997,753.5038617948788L243.75,749.5184785201541L260,742.8761730622797L276.25,729.5915621465308L292.5,685.7523461245594L308.75,673.7961963003853" style="fill: none; stroke: #72b7b2; stroke-width: 4; opacity: 0.5;"></path></g></g><path class="foreground" aria-hidden="true" d="" style="display: none; fill: none;"></path></g><g transform="translate(0,0)"><path class="background" aria-hidden="true" d="M0,0h650v800h-650Z" style="fill: none;"></path><g><g class="mark-line role-mark layer_0_layer_1_marks" role="graphics-symbol" aria-roledescription="line mark container" style="pointer-events: none;"><path d="M0,780.0902261177906L16.25,768.713212470814L32.5,768.713212470814L48.75,763.0247056473256L65,763.0247056473256L81.25,754.4919454120931L97.5,740.2706783533721L113.74999999999999,731.7379181181396L130,726.0494112946512L146.25,720.3609044711628L162.5,717.5166510594187L178.75000000000003,708.9838908241861L195,706.1396374124419L211.25,689.0741169419767L227.49999999999997,686.2298635302326L243.75,674.8528498832558L260,669.1643430597675L276.25,660.6315828245349" style="fill: none; stroke: #54a24b; stroke-width: 4; opacity: 0.5;"></path></g></g><path class="foreground" aria-hidden="true" d="" style="display: none; fill: none;"></path></g><g transform="translate(0,0)"><path class="background" aria-hidden="true" d="M0,0h650v800h-650Z" style="fill: none;"></path><g><g class="mark-line role-mark layer_0_layer_1_marks" role="graphics-symbol" aria-roledescription="line mark container" style="pointer-events: none;"><path d="M0,794.0208818012488L16.25,794.0208818012488L32.5,792.8250581614985L48.75,792.8250581614985L65,790.433410881998L81.25,789.2375872422479L97.5,788.0417636024977L113.74999999999999,783.2584690434967L130,774.887703565245L146.25,764.1252908074929L162.5,759.341996248492L178.75000000000003,744.9921125714892L195,733.0338761739868L211.25,722.2714634162346L227.49999999999997,713.900697937983L243.75,698.35499062123L260,678.025988745476L276.25,662.4802814287228L292.5,628.9972195157162L308.75,608.6682176399622L325,577.5768030064561L341.25,554.8561538512016L357.50000000000006,541.7020938139491L373.74999999999994,520.1772682984448L390,489.0858536649386L406.25,462.7777335904334L422.5,426.90302439792623L438.75000000000006,379.0700788079169L454.99999999999994,344.39119325516003" style="fill: none; stroke: #eeca3b; stroke-width: 4; opacity: 0.5;"></path></g></g><path class="foreground" aria-hidden="true" d="" style="display: none; fill: none;"></path></g><g transform="translate(0,0)"><path class="background" aria-hidden="true" d="M0,0h650v800h-650Z" style="fill: none;"></path><g><g class="mark-line role-mark layer_0_layer_1_marks" role="graphics-symbol" aria-roledescription="line mark container" style="pointer-events: none;"><path d="M0,782.5423482261215L16.25,779.0508178713458L32.5,775.55928751657L48.75,775.55928751657L65,775.55928751657L81.25,775.55928751657L97.5,772.0677571617944L113.74999999999999,772.0677571617944L130,772.0677571617944L146.25,772.0677571617944L162.5,768.5762268070187L178.75000000000003,765.084696452243L195,758.1016357426914L211.25,751.1185750331401L227.49999999999997,747.6270446783643L243.75,747.6270446783643L260,744.1355143235887L276.25,740.6439839688129L292.5,737.1524536140372" style="fill: none; stroke: #b279a2; stroke-width: 4; opacity: 0.5;"></path></g></g><path class="foreground" aria-hidden="true" d="" style="display: none; fill: none;"></path></g><g transform="translate(0,0)"><path class="background" aria-hidden="true" d="M0,0h650v800h-650Z" style="fill: none;"></path><g><g class="mark-line role-mark layer_0_layer_1_marks" role="graphics-symbol" aria-roledescription="line mark container" style="pointer-events: none;"><path d="M0,795.0023550776991L16.25,793.0032971087787L32.5,790.0047101553981L48.75,786.0065942175573L65,785.0070652330973L81.25,783.0080072641769L97.5,776.0113043729556L113.74999999999999,774.0122464040352L130,773.012717419575L146.25,769.0146014817342L162.5,767.0155435128139L178.75000000000003,761.0183696060527L195,759.0193116371324L211.25,757.020253668212L227.49999999999997,756.0207246837518L243.75,751.023079761451L260,748.0244928080704L276.25,747.0249638236102L292.5,745.0259058546898L308.75,740.0282609323889L325,738.0292029634685L341.25,733.0315580411676L357.50000000000006,729.0334421033268" style="fill: none; stroke: #ff9da6; stroke-width: 4; opacity: 0.5;"></path></g></g><path class="foreground" aria-hidden="true" d="" style="display: none; fill: none;"></path></g><g transform="translate(0,0)"><path class="background" aria-hidden="true" d="M0,0h650v800h-650Z" style="fill: none;"></path><g><g class="mark-line role-mark layer_0_layer_1_marks" role="graphics-symbol" aria-roledescription="line mark container" style="pointer-events: none;"><path d="M0,796.0282852615599L16.25,794.7043803487464L32.5,794.0424278923398L48.75,793.3804754359331L65,791.3946180667131L81.25,788.7468082410863L97.5,788.0848557846797L113.74999999999999,784.7750935026462L130,781.4653312206127L146.25,772.8599492873259L162.5,768.8882345488857L178.75000000000003,761.6067575284122L195,757.6350427899721L211.25,753.0013755951252L227.49999999999997,741.0862313798049L243.75,729.8330396208912L260,719.2418003183842L276.25,702.6929889082171L292.5,697.3973692569637L308.75,687.4680824108633L325,679.524652933983L341.25,651.7226497649021L357.50000000000006,624.5825990522281L373.74999999999994,600.7523106215873L390,574.2742123653198L406.25,543.8243993706122L422.5,533.895112524512L438.75000000000006,520.6560633963783L454.99999999999994,494.8399175965175L471.25,475.6432963607235L487.5,449.1651981044561L503.75,422.68709984818867L520,392.8992393098878" style="fill: none; stroke: #9d755d; stroke-width: 4; opacity: 0.5;"></path></g></g><path class="foreground" aria-hidden="true" d="" style="display: none; fill: none;"></path></g><g transform="translate(0,0)"><path class="background" aria-hidden="true" d="M0,0h650v800h-650Z" style="fill: none;"></path><g><g class="mark-line role-mark layer_0_layer_1_marks" role="graphics-symbol" aria-roledescription="line mark container" style="pointer-events: none;"><path d="M0,780.4464491179332L16.25,777.1875239709221L32.5,777.1875239709221L48.75,773.928598823911L65,764.1518233828775L81.25,764.1518233828775L97.5,764.1518233828775L113.74999999999999,757.6339730888553L130,744.5982725008107L146.25,741.3393473537997L162.5,738.0804222067885L178.75000000000003,734.8214970597774L195,725.044721618744L211.25,721.7857964717329L227.49999999999997,715.2679461777105L243.75,712.0090210306994L260,708.7500958836883L276.25,705.4911707366772L292.5,689.1965450016215L308.75,676.160844413577L325,669.6429941195547L341.25,656.6072935315102" style="fill: none; stroke: #bab0ac; stroke-width: 4; opacity: 0.5;"></path></g></g><path class="foreground" aria-hidden="true" d="" style="display: none; fill: none;"></path></g><g transform="translate(0,0)"><path class="background" aria-hidden="true" d="M0,0h650v800h-650Z" style="fill: none;"></path><g><g class="mark-line role-mark layer_0_layer_1_marks" role="graphics-symbol" aria-roledescription="line mark container" style="pointer-events: none;"><path d="M0,767.8471453288935L16.25,767.8471453288935L32.5,767.8471453288935L48.75,761.4165743946722L65,754.986003460451" style="fill: none; stroke: #4c78a8; stroke-width: 4; opacity: 0.5;"></path></g></g><path class="foreground" aria-hidden="true" d="" style="display: none; fill: none;"></path></g><g transform="translate(0,0)"><path class="background" aria-hidden="true" d="M0,0h650v800h-650Z" style="fill: none;"></path><g><g class="mark-line role-mark layer_0_layer_1_marks" role="graphics-symbol" aria-roledescription="line mark container" style="pointer-events: none;"><path d="M0,794.97744073559L16.25,794.97744073559L32.5,793.972928882708L48.75,792.968417029826L65,792.968417029826L81.25,791.963905176944L97.5,791.963905176944L113.74999999999999,789.95488147118L130,785.9368340596519L146.25,784.93232220677L162.5,783.9278103538879L178.75000000000003,783.9278103538879L195,782.9232985010059L211.25,781.918786648124L227.49999999999997,780.9142747952419L243.75,778.9052510894779L260,775.8917155308319L276.25,775.8917155308319L292.5,773.8826918250678L308.75,772.8781799721858L325,772.8781799721858L341.25,771.8736681193038L357.50000000000006,770.8691562664218L373.74999999999994,765.8465970020118L390,764.8420851491297" style="fill: none; stroke: #f58518; stroke-width: 4; opacity: 0.5;"></path></g></g><path class="foreground" aria-hidden="true" d="" style="display: none; fill: none;"></path></g><g transform="translate(0,0)"><path class="background" aria-hidden="true" d="M0,0h650v800h-650Z" style="fill: none;"></path><g><g class="mark-line role-mark layer_0_layer_1_marks" role="graphics-symbol" aria-roledescription="line mark container" style="pointer-events: none;"><path d="M0,792.02448737592L16.25,792.02448737592L32.5,784.0489747518399L48.75,784.0489747518399L65,782.4538722270239L81.25,776.07346212776L97.5,772.8832570781278L113.74999999999999,771.2881545533119L130,771.2881545533119L146.25,766.5028469788639L162.5,761.7175394044159L178.75000000000003,758.5273343547838L195,755.3371293051518L211.25,753.7420267803358L227.49999999999997,752.1469242555198L243.75,750.5518217307038L260,748.9567192058878L276.25,744.1714116314397L292.5,744.1714116314397L308.75,740.9812065818078L325,737.7910015321758L341.25,733.0056939577278L357.50000000000006,733.0056939577278L373.74999999999994,733.0056939577278" style="fill: none; stroke: #e45756; stroke-width: 4; opacity: 0.5;"></path></g></g><path class="foreground" aria-hidden="true" d="" style="display: none; fill: none;"></path></g><g transform="translate(0,0)"><path class="background" aria-hidden="true" d="M0,0h650v800h-650Z" style="fill: none;"></path><g><g class="mark-line role-mark layer_0_layer_1_marks" role="graphics-symbol" aria-roledescription="line mark container" style="pointer-events: none;"><path d="M0,775.1411856361793L16.25,775.1411856361793L32.5,775.1411856361793L48.75,765.197659890651L65,765.197659890651L81.25,760.2258970178868L97.5,760.2258970178868L113.74999999999999,755.2541341451227" style="fill: none; stroke: #72b7b2; stroke-width: 4; opacity: 0.5;"></path></g></g><path class="foreground" aria-hidden="true" d="" style="display: none; fill: none;"></path></g><g transform="translate(0,0)"><path class="background" aria-hidden="true" d="M0,0h650v800h-650Z" style="fill: none;"></path><g><g class="mark-line role-mark layer_0_layer_1_marks" role="graphics-symbol" aria-roledescription="line mark container" style="pointer-events: none;"><path d="M0,798.7555740289208L16.25,797.7600332520575L32.5,796.2667220867625L48.75,794.5245257272516L65,792.5334441735249L81.25,790.0445922313666L97.5,788.0535106776399L113.74999999999999,785.5646587354815L130,783.0758067933233L146.25,779.0936436858699L162.5,775.6092509668482L178.75000000000003,771.8759730536107L195,766.1516135866465L211.25,759.1828281486031L227.49999999999997,753.2095834874231L243.75,745.4941424667322L260,735.289849503883L276.25,731.5565715906455L292.5,724.3389009583863L308.75,707.6635929459253L325,693.4771368756228L341.25,676.552943668946L357.50000000000006,665.6019951234492L373.74999999999994,660.6242912391326L390,653.6555058010892L406.25,648.6778019167725L422.5,627.024790019995L438.75000000000006,606.3673189000806L454.99999999999994,587.700929333893L471.25,569.0345397677055L487.5,553.3547725321079L503.75,547.3815278709278L520,541.9060535981795L536.25,527.9684827220927L552.5,517.7641897592435L568.75,465.2494137797024L585,423.68558634565795L601.25,385.1083812422036" style="fill: none; stroke: #54a24b; stroke-width: 4; opacity: 0.5;"></path></g></g><path class="foreground" aria-hidden="true" d="" style="display: none; fill: none;"></path></g></g><g class="mark-text role-mark layer_0_layer_2_marks" role="graphics-object" aria-roledescription="text mark container" style="pointer-events: none;"><text text-anchor="start" transform="translate(151.25,662.456291320465)" style="font-family: sans-serif; font-size: 15px; fill: #4c78a8;">AC</text><text text-anchor="start" transform="translate(167.5,705.6913040982516)" style="font-family: sans-serif; font-size: 15px; fill: #f58518;">AL</text><text text-anchor="start" transform="translate(362.50000000000006,13.608219327476263)" style="font-family: sans-serif; font-size: 15px; fill: #e45756;">AM</text><text text-anchor="start" transform="translate(232.49999999999997,534.735071114304)" style="font-family: sans-serif; font-size: 15px; fill: #72b7b2;">AP</text><text text-anchor="start" transform="translate(362.50000000000006,749.6746720879341)" style="font-family: sans-serif; font-size: 15px; fill: #54a24b;">BA</text><text text-anchor="start" transform="translate(443.75000000000006,397.01900315412485)" style="font-family: sans-serif; font-size: 15px; fill: #eeca3b;">CE</text><text text-anchor="start" transform="translate(378.74999999999994,702.6636807834566)" style="font-family: sans-serif; font-size: 15px; fill: #b279a2;">DF</text><text text-anchor="start" transform="translate(362.50000000000006,657.1180709228935)" style="font-family: sans-serif; font-size: 15px; fill: #ff9da6;">ES</text><text text-anchor="start" transform="translate(313.75,764.2904140038696)" style="font-family: sans-serif; font-size: 15px; fill: #9d755d;">GO</text><text text-anchor="start" transform="translate(297.5,624.0859004172472)" style="font-family: sans-serif; font-size: 15px; fill: #bab0ac;">MA</text><text text-anchor="start" transform="translate(362.50000000000006,773.6870571466673)" style="font-family: sans-serif; font-size: 15px; fill: #4c78a8;">MG</text><text text-anchor="start" transform="translate(151.25,776.2125214016911)" style="font-family: sans-serif; font-size: 15px; fill: #f58518;">MS</text><text text-anchor="start" transform="translate(151.25,775.4812321724066)" style="font-family: sans-serif; font-size: 15px; fill: #e45756;">MT</text><text text-anchor="start" transform="translate(313.75,678.7961963003853)" style="font-family: sans-serif; font-size: 15px; fill: #72b7b2;">PA</text><text text-anchor="start" transform="translate(281.25,665.6315828245349)" style="font-family: sans-serif; font-size: 15px; fill: #54a24b;">PB</text><text text-anchor="start" transform="translate(459.99999999999994,349.39119325516003)" style="font-family: sans-serif; font-size: 15px; fill: #eeca3b;">PE</text><text text-anchor="start" transform="translate(297.5,742.1524536140372)" style="font-family: sans-serif; font-size: 15px; fill: #b279a2;">PI</text><text text-anchor="start" transform="translate(362.50000000000006,734.0334421033268)" style="font-family: sans-serif; font-size: 15px; fill: #ff9da6;">PR</text><text text-anchor="start" transform="translate(525,397.8992393098878)" style="font-family: sans-serif; font-size: 15px; fill: #9d755d;">RJ</text><text text-anchor="start" transform="translate(346.25,661.6072935315102)" style="font-family: sans-serif; font-size: 15px; fill: #bab0ac;">RN</text><text text-anchor="start" transform="translate(70,759.986003460451)" style="font-family: sans-serif; font-size: 15px; fill: #4c78a8;">RO</text><text text-anchor="start" transform="translate(395,769.8420851491297)" style="font-family: sans-serif; font-size: 15px; fill: #f58518;">RS</text><text text-anchor="start" transform="translate(378.74999999999994,738.0056939577278)" style="font-family: sans-serif; font-size: 15px; fill: #e45756;">SC</text><text text-anchor="start" transform="translate(118.74999999999999,760.2541341451227)" style="font-family: sans-serif; font-size: 15px; fill: #72b7b2;">SE</text><text text-anchor="start" transform="translate(606.25,390.1083812422036)" style="font-family: sans-serif; font-size: 15px; fill: #54a24b;">SP</text></g><g class="mark-group role-title"><g transform="translate(325,-34)"><path class="background" aria-hidden="true" d="M0,0h0v0h0Z" style="pointer-events: none; fill: none;"></path><g><g class="mark-text role-title-text" role="graphics-symbol" aria-roledescription="title" aria-label="Title text 'Mortes confirmadas pelo COVID-19 a cada 100 mil habitantes'" style="pointer-events: none;"><text text-anchor="middle" transform="translate(0,18)" style="font-family: sans-serif; font-size: 23px; font-weight: bold; fill: #000; opacity: 1;">Mortes confirmadas pelo COVID-19 a cada 100 mil habitantes</text></g></g><path class="foreground" aria-hidden="true" d="" style="pointer-events: none; display: none; fill: none;"></path></g></g></g><path class="foreground" aria-hidden="true" d="" style="display: none; fill: none;"></path></g></g></g></svg>