<svg class="marks" width="769" height="890" viewBox="0 0 769 890" version="1.1" xmlns="http://www.w3.org/2000/svg" xmlns:xlink="http://www.w3.org/1999/xlink"><rect width="769" height="890" style="fill: white;"></rect><g transform="translate(82,39)"><g class="mark-group role-frame root"><g transform="translate(0,0)"><path class="background" d="M0.5,0.5h650v800h-650Z" style="fill: none; stroke: #ddd;"></path><g><g class="mark-group role-axis"><g transform="translate(0.5,800.5)"><path class="background" d="M0,0h0v0h0Z" style="pointer-events: none; fill: none;"></path><g><g class="mark-rule role-axis-grid" style="pointer-events: none;"><line transform="translate(0,-800)" x2="0" y2="800" style="fill: none; stroke: #ddd; stroke-width: 1; opacity: 1;"></line><line transform="translate(37,-800)" x2="0" y2="800" style="fill: none; stroke: #ddd; stroke-width: 1; opacity: 1;"></line><line transform="translate(74,-800)" x2="0" y2="800" style="fill: none; stroke: #ddd; stroke-width: 1; opacity: 1;"></line><line transform="translate(111,-800)" x2="0" y2="800" style="fill: none; stroke: #ddd; stroke-width: 1; opacity: 1;"></line><line transform="translate(149,-800)" x2="0" y2="800" style="fill: none; stroke: #ddd; stroke-width: 1; opacity: 1;"></line><line transform="translate(186,-800)" x2="0" y2="800" style="fill: none; stroke: #ddd; stroke-width: 1; opacity: 1;"></line><line transform="translate(223,-800)" x2="0" y2="800" style="fill: none; stroke: #ddd; stroke-width: 1; opacity: 1;"></line><line transform="translate(260,-800)" x2="0" y2="800" style="fill: none; stroke: #ddd; stroke-width: 1; opacity: 1;"></line><line transform="translate(297,-800)" x2="0" y2="800" style="fill: none; stroke: #ddd; stroke-width: 1; opacity: 1;"></line><line transform="translate(334,-800)" x2="0" y2="800" style="fill: none; stroke: #ddd; stroke-width: 1; opacity: 1;"></line><line transform="translate(371,-800)" x2="0" y2="800" style="fill: none; stroke: #ddd; stroke-width: 1; opacity: 1;"></line><line transform="translate(409,-800)" x2="0" y2="800" style="fill: none; stroke: #ddd; stroke-width: 1; opacity: 1;"></line><line transform="translate(446,-800)" x2="0" y2="800" style="fill: none; stroke: #ddd; stroke-width: 1; opacity: 1;"></line><line transform="translate(483,-800)" x2="0" y2="800" style="fill: none; stroke: #ddd; stroke-width: 1; opacity: 1;"></line><line transform="translate(520,-800)" x2="0" y2="800" style="fill: none; stroke: #ddd; stroke-width: 1; opacity: 1;"></line><line transform="translate(557,-800)" x2="0" y2="800" style="fill: none; stroke: #ddd; stroke-width: 1; opacity: 1;"></line><line transform="translate(594,-800)" x2="0" y2="800" style="fill: none; stroke: #ddd; stroke-width: 1; opacity: 1;"></line><line transform="translate(631,-800)" x2="0" y2="800" style="fill: none; stroke: #ddd; stroke-width: 1; opacity: 1;"></line></g></g><path class="foreground" d="" style="pointer-events: none; display: none; fill: none;"></path></g></g><g class="mark-group role-axis"><g transform="translate(0.5,0.5)"><path class="background" d="M0,0h0v0h0Z" style="pointer-events: none; fill: none;"></path><g><g class="mark-rule role-axis-grid" style="pointer-events: none;"><line transform="translate(0,800)" x2="650" y2="0" style="fill: none; stroke: #ddd; stroke-width: 1; opacity: 1;"></line><line transform="translate(0,740)" x2="650" y2="0" style="fill: none; stroke: #ddd; stroke-width: 1; opacity: 1;"></line><line transform="translate(0,705)" x2="650" y2="0" style="fill: none; stroke: #ddd; stroke-width: 1; opacity: 1;"></line><line transform="translate(0,680)" x2="650" y2="0" style="fill: none; stroke: #ddd; stroke-width: 1; opacity: 1;"></line><line transform="translate(0,660)" x2="650" y2="0" style="fill: none; stroke: #ddd; stroke-width: 1; opacity: 1;"></line><line transform="translate(0,644)" x2="650" y2="0" style="fill: none; stroke: #ddd; stroke-width: 1; opacity: 1;"></line><line transform="translate(0,631)" x2="650" y2="0" style="fill: none; stroke: #ddd; stroke-width: 1; opacity: 1;"></line><line transform="translate(0,619)" x2="650" y2="0" style="fill: none; stroke: #ddd; stroke-width: 1; opacity: 1;"></line><line transform="translate(0,609)" x2="650" y2="0" style="fill: none; stroke: #ddd; stroke-width: 1; opacity: 1;"></line><line transform="translate(0,600)" x2="650" y2="0" style="fill: none; stroke: #ddd; stroke-width: 1; opacity: 1;"></line><line transform="translate(0,540)" x2="650" y2="0" style="fill: none; stroke: #ddd; stroke-width: 1; opacity: 1;"></line><line transform="translate(0,505)" x2="650" y2="0" style="fill: none; stroke: #ddd; stroke-width: 1; opacity: 1;"></line><line transform="translate(0,480)" x2="650" y2="0" style="fill: none; stroke: #ddd; stroke-width: 1; opacity: 1;"></line><line transform="translate(0,460)" x2="650" y2="0" style="fill: none; stroke: #ddd; stroke-width: 1; opacity: 1;"></line><line transform="translate(0,444)" x2="650" y2="0" style="fill: none; stroke: #ddd; stroke-width: 1; opacity: 1;"></line><line transform="translate(0,431)" x2="650" y2="0" style="fill: none; stroke: #ddd; stroke-width: 1; opacity: 1;"></line><line transform="translate(0,419)" x2="650" y2="0" style="fill: none; stroke: #ddd; stroke-width: 1; opacity: 1;"></line><line transform="translate(0,409)" x2="650" y2="0" style="fill: none; stroke: #ddd; stroke-width: 1; opacity: 1;"></line><line transform="translate(0,400)" x2="650" y2="0" style="fill: none; stroke: #ddd; stroke-width: 1; opacity: 1;"></line><line transform="translate(0,340)" x2="650" y2="0" style="fill: none; stroke: #ddd; stroke-width: 1; opacity: 1;"></line><line transform="translate(0,305)" x2="650" y2="0" style="fill: none; stroke: #ddd; stroke-width: 1; opacity: 1;"></line><line transform="translate(0,280)" x2="650" y2="0" style="fill: none; stroke: #ddd; stroke-width: 1; opacity: 1;"></line><line transform="translate(0,260)" x2="650" y2="0" style="fill: none; stroke: #ddd; stroke-width: 1; opacity: 1;"></line><line transform="translate(0,244)" x2="650" y2="0" style="fill: none; stroke: #ddd; stroke-width: 1; opacity: 1;"></line><line transform="translate(0,231)" x2="650" y2="0" style="fill: none; stroke: #ddd; stroke-width: 1; opacity: 1;"></line><line transform="translate(0,219)" x2="650" y2="0" style="fill: none; stroke: #ddd; stroke-width: 1; opacity: 1;"></line><line transform="translate(0,209)" x2="650" y2="0" style="fill: none; stroke: #ddd; stroke-width: 1; opacity: 1;"></line><line transform="translate(0,200)" x2="650" y2="0" style="fill: none; stroke: #ddd; stroke-width: 1; opacity: 1;"></line><line transform="translate(0,140)" x2="650" y2="0" style="fill: none; stroke: #ddd; stroke-width: 1; opacity: 1;"></line><line transform="translate(0,105)" x2="650" y2="0" style="fill: none; stroke: #ddd; stroke-width: 1; opacity: 1;"></line><line transform="translate(0,80)" x2="650" y2="0" style="fill: none; stroke: #ddd; stroke-width: 1; opacity: 1;"></line><line transform="translate(0,60)" x2="650" y2="0" style="fill: none; stroke: #ddd; stroke-width: 1; opacity: 1;"></line><line transform="translate(0,44)" x2="650" y2="0" style="fill: none; stroke: #ddd; stroke-width: 1; opacity: 1;"></line><line transform="translate(0,31)" x2="650" y2="0" style="fill: none; stroke: #ddd; stroke-width: 1; opacity: 1;"></line><line transform="translate(0,19)" x2="650" y2="0" style="fill: none; stroke: #ddd; stroke-width: 1; opacity: 1;"></line><line transform="translate(0,9)" x2="650" y2="0" style="fill: none; stroke: #ddd; stroke-width: 1; opacity: 1;"></line><line transform="translate(0,0)" x2="650" y2="0" style="fill: none; stroke: #ddd; stroke-width: 1; opacity: 1;"></line></g></g><path class="foreground" d="" style="pointer-events: none; display: none; fill: none;"></path></g></g><g class="mark-group role-axis"><g transform="translate(0.5,800.5)"><path class="background" d="M0,0h0v0h0Z" style="pointer-events: none; fill: none;"></path><g><g class="mark-rule role-axis-tick" style="pointer-events: none;"><line transform="translate(0,0)" x2="0" y2="5" style="fill: none; stroke: #888; stroke-width: 1; opacity: 1;"></line><line transform="translate(37,0)" x2="0" y2="5" style="fill: none; stroke: #888; stroke-width: 1; opacity: 1;"></line><line transform="translate(74,0)" x2="0" y2="5" style="fill: none; stroke: #888; stroke-width: 1; opacity: 1;"></line><line transform="translate(111,0)" x2="0" y2="5" style="fill: none; stroke: #888; stroke-width: 1; opacity: 1;"></line><line transform="translate(149,0)" x2="0" y2="5" style="fill: none; stroke: #888; stroke-width: 1; opacity: 1;"></line><line transform="translate(186,0)" x2="0" y2="5" style="fill: none; stroke: #888; stroke-width: 1; opacity: 1;"></line><line transform="translate(223,0)" x2="0" y2="5" style="fill: none; stroke: #888; stroke-width: 1; opacity: 1;"></line><line transform="translate(260,0)" x2="0" y2="5" style="fill: none; stroke: #888; stroke-width: 1; opacity: 1;"></line><line transform="translate(297,0)" x2="0" y2="5" style="fill: none; stroke: #888; stroke-width: 1; opacity: 1;"></line><line transform="translate(334,0)" x2="0" y2="5" style="fill: none; stroke: #888; stroke-width: 1; opacity: 1;"></line><line transform="translate(371,0)" x2="0" y2="5" style="fill: none; stroke: #888; stroke-width: 1; opacity: 1;"></line><line transform="translate(409,0)" x2="0" y2="5" style="fill: none; stroke: #888; stroke-width: 1; opacity: 1;"></line><line transform="translate(446,0)" x2="0" y2="5" style="fill: none; stroke: #888; stroke-width: 1; opacity: 1;"></line><line transform="translate(483,0)" x2="0" y2="5" style="fill: none; stroke: #888; stroke-width: 1; opacity: 1;"></line><line transform="translate(520,0)" x2="0" y2="5" style="fill: none; stroke: #888; stroke-width: 1; opacity: 1;"></line><line transform="translate(557,0)" x2="0" y2="5" style="fill: none; stroke: #888; stroke-width: 1; opacity: 1;"></line><line transform="translate(594,0)" x2="0" y2="5" style="fill: none; stroke: #888; stroke-width: 1; opacity: 1;"></line><line transform="translate(631,0)" x2="0" y2="5" style="fill: none; stroke: #888; stroke-width: 1; opacity: 1;"></line></g><g class="mark-text role-axis-label" style="pointer-events: none;"><text text-anchor="start" transform="translate(0,19)" style="font-family: sans-serif; font-size: 15px; fill: #000; opacity: 1;">0</text><text text-anchor="middle" transform="translate(37.14285714285714,19)" style="font-family: sans-serif; font-size: 15px; fill: #000; opacity: 1;">2</text><text text-anchor="middle" transform="translate(74.28571428571428,19)" style="font-family: sans-serif; font-size: 15px; fill: #000; opacity: 1;">4</text><text text-anchor="middle" transform="translate(111.42857142857143,19)" style="font-family: sans-serif; font-size: 15px; fill: #000; opacity: 1;">6</text><text text-anchor="middle" transform="translate(148.57142857142856,19)" style="font-family: sans-serif; font-size: 15px; fill: #000; opacity: 1;">8</text><text text-anchor="middle" transform="translate(185.7142857142857,19)" style="font-family: sans-serif; font-size: 15px; fill: #000; opacity: 1;">10</text><text text-anchor="middle" transform="translate(222.85714285714286,19)" style="font-family: sans-serif; font-size: 15px; fill: #000; opacity: 1;">12</text><text text-anchor="middle" transform="translate(260,19)" style="font-family: sans-serif; font-size: 15px; fill: #000; opacity: 1;">14</text><text text-anchor="middle" transform="translate(297.1428571428571,19)" style="font-family: sans-serif; font-size: 15px; fill: #000; opacity: 1;">16</text><text text-anchor="middle" transform="translate(334.2857142857143,19)" style="font-family: sans-serif; font-size: 15px; fill: #000; opacity: 1;">18</text><text text-anchor="middle" transform="translate(371.4285714285714,19)" style="font-family: sans-serif; font-size: 15px; fill: #000; opacity: 1;">20</text><text text-anchor="middle" transform="translate(408.57142857142856,19)" style="font-family: sans-serif; font-size: 15px; fill: #000; opacity: 1;">22</text><text text-anchor="middle" transform="translate(445.7142857142857,19)" style="font-family: sans-serif; font-size: 15px; fill: #000; opacity: 1;">24</text><text text-anchor="middle" transform="translate(482.8571428571429,19)" style="font-family: sans-serif; font-size: 15px; fill: #000; opacity: 1;">26</text><text text-anchor="middle" transform="translate(520,19)" style="font-family: sans-serif; font-size: 15px; fill: #000; opacity: 1;">28</text><text text-anchor="middle" transform="translate(557.1428571428571,19)" style="font-family: sans-serif; font-size: 15px; fill: #000; opacity: 1;">30</text><text text-anchor="middle" transform="translate(594.2857142857142,19)" style="font-family: sans-serif; font-size: 15px; fill: #000; opacity: 1;">32</text><text text-anchor="middle" transform="translate(631.4285714285714,19)" style="font-family: sans-serif; font-size: 15px; fill: #000; opacity: 1;">34</text></g><g class="mark-rule role-axis-domain" style="pointer-events: none;"><line transform="translate(0,0)" x2="650" y2="0" style="fill: none; stroke: #888; stroke-width: 1; opacity: 1;"></line></g><g class="mark-text role-axis-title" style="pointer-events: none;"><text text-anchor="middle" transform="translate(325,42)" style="font-family: sans-serif; font-size: 20px; font-weight: bold; fill: #000; opacity: 1;">Dias a partir da 5a morte no estado</text></g></g><path class="foreground" d="" style="pointer-events: none; display: none; fill: none;"></path></g></g><g class="mark-group role-axis"><g transform="translate(0.5,0.5)"><path class="background" d="M0,0h0v0h0Z" style="pointer-events: none; fill: none;"></path><g><g class="mark-rule role-axis-tick" style="pointer-events: none;"><line transform="translate(0,800)" x2="-5" y2="0" style="fill: none; stroke: #888; stroke-width: 1; opacity: 1;"></line><line transform="translate(0,740)" x2="-5" y2="0" style="fill: none; stroke: #888; stroke-width: 1; opacity: 1;"></line><line transform="translate(0,705)" x2="-5" y2="0" style="fill: none; stroke: #888; stroke-width: 1; opacity: 1;"></line><line transform="translate(0,680)" x2="-5" y2="0" style="fill: none; stroke: #888; stroke-width: 1; opacity: 1;"></line><line transform="translate(0,660)" x2="-5" y2="0" style="fill: none; stroke: #888; stroke-width: 1; opacity: 1;"></line><line transform="translate(0,644)" x2="-5" y2="0" style="fill: none; stroke: #888; stroke-width: 1; opacity: 1;"></line><line transform="translate(0,631)" x2="-5" y2="0" style="fill: none; stroke: #888; stroke-width: 1; opacity: 1;"></line><line transform="translate(0,619)" x2="-5" y2="0" style="fill: none; stroke: #888; stroke-width: 1; opacity: 1;"></line><line transform="translate(0,609)" x2="-5" y2="0" style="fill: none; stroke: #888; stroke-width: 1; opacity: 1;"></line><line transform="translate(0,600)" x2="-5" y2="0" style="fill: none; stroke: #888; stroke-width: 1; opacity: 1;"></line><line transform="translate(0,540)" x2="-5" y2="0" style="fill: none; stroke: #888; stroke-width: 1; opacity: 1;"></line><line transform="translate(0,505)" x2="-5" y2="0" style="fill: none; stroke: #888; stroke-width: 1; opacity: 1;"></line><line transform="translate(0,480)" x2="-5" y2="0" style="fill: none; stroke: #888; stroke-width: 1; opacity: 1;"></line><line transform="translate(0,460)" x2="-5" y2="0" style="fill: none; stroke: #888; stroke-width: 1; opacity: 1;"></line><line transform="translate(0,444)" x2="-5" y2="0" style="fill: none; stroke: #888; stroke-width: 1; opacity: 1;"></line><line transform="translate(0,431)" x2="-5" y2="0" style="fill: none; stroke: #888; stroke-width: 1; opacity: 1;"></line><line transform="translate(0,419)" x2="-5" y2="0" style="fill: none; stroke: #888; stroke-width: 1; opacity: 1;"></line><line transform="translate(0,409)" x2="-5" y2="0" style="fill: none; stroke: #888; stroke-width: 1; opacity: 1;"></line><line transform="translate(0,400)" x2="-5" y2="0" style="fill: none; stroke: #888; stroke-width: 1; opacity: 1;"></line><line transform="translate(0,340)" x2="-5" y2="0" style="fill: none; stroke: #888; stroke-width: 1; opacity: 1;"></line><line transform="translate(0,305)" x2="-5" y2="0" style="fill: none; stroke: #888; stroke-width: 1; opacity: 1;"></line><line transform="translate(0,280)" x2="-5" y2="0" style="fill: none; stroke: #888; stroke-width: 1; opacity: 1;"></line><line transform="translate(0,260)" x2="-5" y2="0" style="fill: none; stroke: #888; stroke-width: 1; opacity: 1;"></line><line transform="translate(0,244)" x2="-5" y2="0" style="fill: none; stroke: #888; stroke-width: 1; opacity: 1;"></line><line transform="translate(0,231)" x2="-5" y2="0" style="fill: none; stroke: #888; stroke-width: 1; opacity: 1;"></line><line transform="translate(0,219)" x2="-5" y2="0" style="fill: none; stroke: #888; stroke-width: 1; opacity: 1;"></line><line transform="translate(0,209)" x2="-5" y2="0" style="fill: none; stroke: #888; stroke-width: 1; opacity: 1;"></line><line transform="translate(0,200)" x2="-5" y2="0" style="fill: none; stroke: #888; stroke-width: 1; opacity: 1;"></line><line transform="translate(0,140)" x2="-5" y2="0" style="fill: none; stroke: #888; stroke-width: 1; opacity: 1;"></line><line transform="translate(0,105)" x2="-5" y2="0" style="fill: none; stroke: #888; stroke-width: 1; opacity: 1;"></line><line transform="translate(0,80)" x2="-5" y2="0" style="fill: none; stroke: #888; stroke-width: 1; opacity: 1;"></line><line transform="translate(0,60)" x2="-5" y2="0" style="fill: none; stroke: #888; stroke-width: 1; opacity: 1;"></line><line transform="translate(0,44)" x2="-5" y2="0" style="fill: none; stroke: #888; stroke-width: 1; opacity: 1;"></line><line transform="translate(0,31)" x2="-5" y2="0" style="fill: none; stroke: #888; stroke-width: 1; opacity: 1;"></line><line transform="translate(0,19)" x2="-5" y2="0" style="fill: none; stroke: #888; stroke-width: 1; opacity: 1;"></line><line transform="translate(0,9)" x2="-5" y2="0" style="fill: none; stroke: #888; stroke-width: 1; opacity: 1;"></line><line transform="translate(0,0)" x2="-5" y2="0" style="fill: none; stroke: #888; stroke-width: 1; opacity: 1;"></line></g><g class="mark-text role-axis-label" style="pointer-events: none;"><text text-anchor="end" transform="translate(-7,805)" style="font-family: sans-serif; font-size: 15px; fill: #000; opacity: 1;">1</text><text text-anchor="end" transform="translate(-7,744.7940008672037)" style="font-family: sans-serif; font-size: 15px; fill: #000; opacity: 1;">2</text><text text-anchor="end" transform="translate(-7,709.5757490560676)" style="font-family: sans-serif; font-size: 15px; fill: #000; opacity: 1;"></text><text text-anchor="end" transform="translate(-7,684.5880017344075)" style="font-family: sans-serif; font-size: 15px; fill: #000; opacity: 1;"></text><text text-anchor="end" transform="translate(-7,665.2059991327963)" style="font-family: sans-serif; font-size: 15px; fill: #000; opacity: 1;"></text><text text-anchor="end" transform="translate(-7,649.3697499232713)" style="font-family: sans-serif; font-size: 15px; fill: #000; opacity: 1;"></text><text text-anchor="end" transform="translate(-7,635.9803919971487)" style="font-family: sans-serif; font-size: 15px; fill: #000; opacity: 1;"></text><text text-anchor="end" transform="translate(-7,624.3820026016114)" style="font-family: sans-serif; font-size: 15px; fill: #000; opacity: 1;"></text><text text-anchor="end" transform="translate(-7,614.1514981121351)" style="font-family: sans-serif; font-size: 15px; fill: #000; opacity: 1;"></text><text text-anchor="end" transform="translate(-7,605)" style="font-family: sans-serif; font-size: 15px; fill: #000; opacity: 1;">10</text><text text-anchor="end" transform="translate(-7,544.7940008672037)" style="font-family: sans-serif; font-size: 15px; fill: #000; opacity: 1;">20</text><text text-anchor="end" transform="translate(-7,509.5757490560675)" style="font-family: sans-serif; font-size: 15px; fill: #000; opacity: 1;"></text><text text-anchor="end" transform="translate(-7,484.5880017344075)" style="font-family: sans-serif; font-size: 15px; fill: #000; opacity: 1;"></text><text text-anchor="end" transform="translate(-7,465.20599913279625)" style="font-family: sans-serif; font-size: 15px; fill: #000; opacity: 1;"></text><text text-anchor="end" transform="translate(-7,449.36974992327134)" style="font-family: sans-serif; font-size: 15px; fill: #000; opacity: 1;"></text><text text-anchor="end" transform="translate(-7,435.9803919971486)" style="font-family: sans-serif; font-size: 15px; fill: #000; opacity: 1;"></text><text text-anchor="end" transform="translate(-7,424.38200260161136)" style="font-family: sans-serif; font-size: 15px; fill: #000; opacity: 1;"></text><text text-anchor="end" transform="translate(-7,414.1514981121351)" style="font-family: sans-serif; font-size: 15px; fill: #000; opacity: 1;"></text><text text-anchor="end" transform="translate(-7,405)" style="font-family: sans-serif; font-size: 15px; fill: #000; opacity: 1;">100</text><text text-anchor="end" transform="translate(-7,344.79400086720386)" style="font-family: sans-serif; font-size: 15px; fill: #000; opacity: 1;">200</text><text text-anchor="end" transform="translate(-7,309.5757490560676)" style="font-family: sans-serif; font-size: 15px; fill: #000; opacity: 1;"></text><text text-anchor="end" transform="translate(-7,284.5880017344076)" style="font-family: sans-serif; font-size: 15px; fill: #000; opacity: 1;"></text><text text-anchor="end" transform="translate(-7,265.20599913279636)" style="font-family: sans-serif; font-size: 15px; fill: #000; opacity: 1;"></text><text text-anchor="end" transform="translate(-7,249.3697499232713)" style="font-family: sans-serif; font-size: 15px; fill: #000; opacity: 1;"></text><text text-anchor="end" transform="translate(-7,235.9803919971487)" style="font-family: sans-serif; font-size: 15px; fill: #000; opacity: 1;"></text><text text-anchor="end" transform="translate(-7,224.38200260161133)" style="font-family: sans-serif; font-size: 15px; fill: #000; opacity: 1;"></text><text text-anchor="end" transform="translate(-7,214.15149811213504)" style="font-family: sans-serif; font-size: 15px; fill: #000; opacity: 1;"></text><text text-anchor="end" transform="translate(-7,205.00000000000009)" style="font-family: sans-serif; font-size: 15px; fill: #000; opacity: 1;">1,000</text><text text-anchor="end" transform="translate(-7,144.79400086720383)" style="font-family: sans-serif; font-size: 15px; fill: #000; opacity: 1;">2,000</text><text text-anchor="end" transform="translate(-7,109.57574905606765)" style="font-family: sans-serif; font-size: 15px; fill: #000; opacity: 1;"></text><text text-anchor="end" transform="translate(-7,84.58800173440758)" style="font-family: sans-serif; font-size: 15px; fill: #000; opacity: 1;"></text><text text-anchor="end" transform="translate(-7,65.20599913279625)" style="font-family: sans-serif; font-size: 15px; fill: #000; opacity: 1;"></text><text text-anchor="end" transform="translate(-7,49.36974992327141)" style="font-family: sans-serif; font-size: 15px; fill: #000; opacity: 1;"></text><text text-anchor="end" transform="translate(-7,35.9803919971487)" style="font-family: sans-serif; font-size: 15px; fill: #000; opacity: 1;"></text><text text-anchor="end" transform="translate(-7,24.382002601611337)" style="font-family: sans-serif; font-size: 15px; fill: #000; opacity: 1;"></text><text text-anchor="end" transform="translate(-7,14.151498112135048)" style="font-family: sans-serif; font-size: 15px; fill: #000; opacity: 1;"></text><text text-anchor="end" transform="translate(-7,5)" style="font-family: sans-serif; font-size: 15px; fill: #000; opacity: 1;">10,000</text></g><g class="mark-rule role-axis-domain" style="pointer-events: none;"><line transform="translate(0,800)" x2="0" y2="-800" style="fill: none; stroke: #888; stroke-width: 1; opacity: 1;"></line></g><g class="mark-text role-axis-title" style="pointer-events: none;"><text text-anchor="middle" transform="translate(-56.87890625,400) rotate(-90) translate(0,-4)" style="font-family: sans-serif; font-size: 20px; font-weight: bold; fill: #000; opacity: 1;">Mortes confirmadas (escala logarítmica)</text></g></g><path class="foreground" d="" style="pointer-events: none; display: none; fill: none;"></path></g></g><g class="mark-group role-scope layer_0_pathgroup"><g transform="translate(0,0)"><path class="background" d="M0,0h650v800h-650Z" style="fill: none;"></path><g><g class="mark-line role-mark layer_0_marks"><path d="M0,660.2059991327963L18.57142857142857,660.2059991327963L37.14285714285714,644.3697499232713L55.714285714285715,644.3697499232713L74.28571428571428,619.3820026016114L92.85714285714285,619.3820026016114L111.42857142857143,619.3820026016114L130,600" style="fill: none; stroke: #4c78a8; stroke-width: 4; opacity: 0.7;"></path></g></g><path class="foreground" d="" style="display: none; fill: none;"></path></g><g transform="translate(0,0)"><path class="background" d="M0,0h650v800h-650Z" style="fill: none;"></path><g><g class="mark-line role-mark layer_0_marks"><path d="M0,660.2059991327963L18.57142857142857,660.2059991327963L37.14285714285714,630.9803919971487L55.714285714285715,600L74.28571428571428,564.7817481888637L92.85714285714285,548.9454989793389L111.42857142857143,544.2492798094343L130,539.7940008672037L148.57142857142856,531.5154638355588" style="fill: none; stroke: #f58518; stroke-width: 4; opacity: 0.7;"></path></g></g><path class="foreground" d="" style="display: none; fill: none;"></path></g><g transform="translate(0,0)"><path class="background" d="M0,0h650v800h-650Z" style="fill: none;"></path><g><g class="mark-line role-mark layer_0_marks"><path d="M0,630.9803919971487L18.57142857142857,584.1637507904751L37.14285714285714,564.7817481888637L55.714285714285715,544.2492798094343L74.28571428571428,527.6544327964814L92.85714285714285,504.5757490560675L111.42857142857143,479.5880017344075L130,460.20599913279625L148.57142857142856,455.1448260798422L167.14285714285714,441.5216621003493L185.7142857142857,429.748330256185L204.28571428571428,409.1514981121351L222.85714285714286,394.938826947046L241.42857142857144,381.31566296755295L260,367.72639955300514L278.57142857142856,358.6348247936301L297.1428571428571,347.98572240298506L315.7142857142857,346.56565431939725L334.2857142857143,342.8885381984453L352.85714285714283,337.22655592616934L371.4285714285714,326.1568285179715" style="fill: none; stroke: #e45756; stroke-width: 4; opacity: 0.7;"></path></g></g><path class="foreground" d="" style="display: none; fill: none;"></path></g><g transform="translate(0,0)"><path class="background" d="M0,0h650v800h-650Z" style="fill: none;"></path><g><g class="mark-line role-mark layer_0_marks"><path d="M0,660.2059991327963L18.57142857142857,660.2059991327963L37.14285714285714,644.3697499232713L55.714285714285715,630.9803919971487L74.28571428571428,630.9803919971487L92.85714285714285,600L111.42857142857143,600L130,600L148.57142857142856,591.721462968355L167.14285714285714,577.2113295386326L185.7142857142857,577.2113295386326L204.28571428571428,570.7743928643524L222.85714285714286,559.1760034688151" style="fill: none; stroke: #72b7b2; stroke-width: 4; opacity: 0.7;"></path></g></g><path class="foreground" d="" style="display: none; fill: none;"></path></g><g transform="translate(0,0)"><path class="background" d="M0,0h650v800h-650Z" style="fill: none;"></path><g><g class="mark-line role-mark layer_0_marks"><path d="M0,644.3697499232713L18.57142857142857,630.9803919971487L37.14285714285714,609.1514981121351L55.714285714285715,600L74.28571428571428,570.7743928643524L92.85714285714285,548.9454989793389L111.42857142857143,544.2492798094343L130,544.2492798094343L148.57142857142856,535.5561410532162L167.14285714285714,535.5561410532162L185.7142857142857,531.5154638355588L204.28571428571428,517.0053304058364L222.85714285714286,510.5683937315562L241.42857142857144,493.7042165915489L260,488.7394998465426L278.57142857142856,479.5880017344075L297.1428571428571,469.3574972449313L315.7142857142857,465.5804284128566L334.2857142857143,463.75175252488265L352.85714285714283,455.1448260798422L371.4285714285714,441.5216621003493" style="fill: none; stroke: #54a24b; stroke-width: 4; opacity: 0.7;"></path></g></g><path class="foreground" d="" style="display: none; fill: none;"></path></g><g transform="translate(0,0)"><path class="background" d="M0,0h650v800h-650Z" style="fill: none;"></path><g><g class="mark-line role-mark layer_0_marks"><path d="M0,660.2059991327963L18.57142857142857,660.2059991327963L37.14285714285714,630.9803919971487L55.714285714285715,609.1514981121351L74.28571428571428,535.5561410532162L92.85714285714285,531.5154638355588L111.42857142857143,527.6544327964814L130,491.18639112994487L148.57142857142856,491.18639112994487L167.14285714285714,479.5880017344075L185.7142857142857,448.82502886550174L204.28571428571428,448.82502886550174L222.85714285714286,434.7850394598348L241.42857142857144,426.15365605380487L260,423.83728154384175L278.57142857142856,399.1357252434715L297.1428571428571,390.9354042426686L315.7142857142857,381.31566296755295L334.2857142857143,373.9332463009988L352.85714285714283,361.9336603659417L371.4285714285714,348.9454989793388L390,344.7076391653512L408.57142857142856,337.22655592616934L427.14285714285717,331.121545262978L445.7142857142857,324.32041981037247L464.2857142857143,313.40614182511894" style="fill: none; stroke: #eeca3b; stroke-width: 4; opacity: 0.7;"></path></g></g><path class="foreground" d="" style="display: none; fill: none;"></path></g><g transform="translate(0,0)"><path class="background" d="M0,0h650v800h-650Z" style="fill: none;"></path><g><g class="mark-line role-mark layer_0_marks"><path d="M0,660.2059991327963L18.57142857142857,644.3697499232713L37.14285714285714,630.9803919971487L55.714285714285715,630.9803919971487L74.28571428571428,600L92.85714285714285,584.1637507904751L111.42857142857143,584.1637507904751L130,577.2113295386326L148.57142857142856,570.7743928643524L167.14285714285714,570.7743928643524L185.7142857142857,570.7743928643524L204.28571428571428,564.7817481888637L222.85714285714286,553.9102157243452L241.42857142857144,553.9102157243452L260,539.7940008672037L278.57142857142856,523.9577516576788L297.1428571428571,523.9577516576788L315.7142857142857,523.9577516576788L334.2857142857143,523.9577516576788L352.85714285714283,523.9577516576788L371.4285714285714,520.4119982655925L390,517.0053304058364" style="fill: none; stroke: #b279a2; stroke-width: 4; opacity: 0.7;"></path></g></g><path class="foreground" d="" style="display: none; fill: none;"></path></g><g transform="translate(0,0)"><path class="background" d="M0,0h650v800h-650Z" style="fill: none;"></path><g><g class="mark-line role-mark layer_0_marks"><path d="M0,660.2059991327963L18.57142857142857,644.3697499232713L37.14285714285714,644.3697499232713L55.714285714285715,644.3697499232713L74.28571428571428,644.3697499232713L92.85714285714285,644.3697499232713L111.42857142857143,630.9803919971487L130,619.3820026016114L148.57142857142856,609.1514981121351L167.14285714285714,570.7743928643524L185.7142857142857,553.9102157243452L204.28571428571428,548.9454989793389L222.85714285714286,535.5561410532162L241.42857142857144,510.5683937315562L260,510.5683937315562L278.57142857142856,504.5757490560675L297.1428571428571,493.7042165915489L315.7142857142857,493.7042165915489L334.2857142857143,493.7042165915489L352.85714285714283,486.359655186601L371.4285714285714,473.30630888408274" style="fill: none; stroke: #ff9da6; stroke-width: 4; opacity: 0.7;"></path></g></g><path class="foreground" d="" style="display: none; fill: none;"></path></g><g transform="translate(0,0)"><path class="background" d="M0,0h650v800h-650Z" style="fill: none;"></path><g><g class="mark-line role-mark layer_0_marks"><path d="M0,660.2059991327963L18.57142857142857,660.2059991327963L37.14285714285714,630.9803919971487L55.714285714285715,630.9803919971487L74.28571428571428,619.3820026016114L92.85714285714285,600L111.42857142857143,570.7743928643524L130,564.7817481888637L148.57142857142856,564.7817481888637L167.14285714285714,564.7817481888637L185.7142857142857,559.1760034688151L204.28571428571428,559.1760034688151L222.85714285714286,548.9454989793389L241.42857142857144,548.9454989793389L260,544.2492798094343L278.57142857142856,544.2492798094343L297.1428571428571,535.5561410532162L315.7142857142857,527.6544327964814" style="fill: none; stroke: #9d755d; stroke-width: 4; opacity: 0.7;"></path></g></g><path class="foreground" d="" style="display: none; fill: none;"></path></g><g transform="translate(0,0)"><path class="background" d="M0,0h650v800h-650Z" style="fill: none;"></path><g><g class="mark-line role-mark layer_0_marks"><path d="M0,591.721462968355L18.57142857142857,584.1637507904751L37.14285714285714,559.1760034688151L55.714285714285715,535.5561410532162L74.28571428571428,523.9577516576788L92.85714285714285,513.7272471682027L111.42857142857143,498.97000433601886L130,493.7042165915489L148.57142857142856,486.359655186601L167.14285714285714,479.5880017344075L185.7142857142857,471.3094647027626L204.28571428571428,463.75175252488265L222.85714285714286,453.52124803540636L241.42857142857144,444.36974992327134L260,436.09121289162636L278.57142857142856,423.83728154384175L297.1428571428571,411.10346556996626" style="fill: none; stroke: #bab0ac; stroke-width: 4; opacity: 0.7;"></path></g></g><path class="foreground" d="" style="display: none; fill: none;"></path></g><g transform="translate(0,0)"><path class="background" d="M0,0h650v800h-650Z" style="fill: none;"></path><g><g class="mark-line role-mark layer_0_marks"><path d="M0,644.3697499232713L18.57142857142857,644.3697499232713L37.14285714285714,644.3697499232713L55.714285714285715,609.1514981121351L74.28571428571428,591.721462968355L92.85714285714285,570.7743928643524L111.42857142857143,564.7817481888637L130,553.9102157243452L148.57142857142856,553.9102157243452L167.14285714285714,539.7940008672037L185.7142857142857,527.6544327964814L204.28571428571428,513.7272471682027L222.85714285714286,504.5757490560675L241.42857142857144,496.2972120244226L260,491.18639112994487L278.57142857142856,481.7870785947002L297.1428571428571,481.7870785947002L315.7142857142857,477.4432286560529L334.2857142857143,471.3094647027626L352.85714285714283,465.5804284128566L371.4285714285714,458.48596478041276" style="fill: none; stroke: #4c78a8; stroke-width: 4; opacity: 0.7;"></path></g></g><path class="foreground" d="" style="display: none; fill: none;"></path></g><g transform="translate(0,0)"><path class="background" d="M0,0h650v800h-650Z" style="fill: none;"></path><g><g class="mark-line role-mark layer_0_marks"><path d="M0,660.2059991327963L18.57142857142857,660.2059991327963L37.14285714285714,660.2059991327963L55.714285714285715,660.2059991327963L74.28571428571428,660.2059991327963L92.85714285714285,644.3697499232713L111.42857142857143,644.3697499232713L130,630.9803919971487" style="fill: none; stroke: #f58518; stroke-width: 4; opacity: 0.7;"></path></g></g><path class="foreground" d="" style="display: none; fill: none;"></path></g><g transform="translate(0,0)"><path class="background" d="M0,0h650v800h-650Z" style="fill: none;"></path><g><g class="mark-line role-mark layer_0_marks"><path d="M0,660.2059991327963L18.57142857142857,660.2059991327963L37.14285714285714,660.2059991327963L55.714285714285715,660.2059991327963L74.28571428571428,644.3697499232713L92.85714285714285,644.3697499232713L111.42857142857143,644.3697499232713L130,630.9803919971487" style="fill: none; stroke: #e45756; stroke-width: 4; opacity: 0.7;"></path></g></g><path class="foreground" d="" style="display: none; fill: none;"></path></g><g transform="translate(0,0)"><path class="background" d="M0,0h650v800h-650Z" style="fill: none;"></path><g><g class="mark-line role-mark layer_0_marks"><path d="M0,660.2059991327963L18.57142857142857,660.2059991327963L37.14285714285714,644.3697499232713L55.714285714285715,630.9803919971487L74.28571428571428,609.1514981121351L92.85714285714285,591.721462968355L111.42857142857143,570.7743928643524L130,570.7743928643524L148.57142857142856,535.5561410532162L167.14285714285714,535.5561410532162L185.7142857142857,517.0053304058364L204.28571428571428,498.97000433601886L222.85714285714286,496.2972120244226L241.42857142857144,493.7042165915489L260,491.18639112994487L278.57142857142856,484.043280676638L297.1428571428571,473.30630888408274L315.7142857142857,455.1448260798422" style="fill: none; stroke: #72b7b2; stroke-width: 4; opacity: 0.7;"></path></g></g><path class="foreground" d="" style="display: none; fill: none;"></path></g><g transform="translate(0,0)"><path class="background" d="M0,0h650v800h-650Z" style="fill: none;"></path><g><g class="mark-line role-mark layer_0_marks"><path d="M0,630.9803919971487L18.57142857142857,591.721462968355L37.14285714285714,591.721462968355L55.714285714285715,577.2113295386326L74.28571428571428,577.2113295386326L92.85714285714285,559.1760034688151L111.42857142857143,535.5561410532162L130,523.9577516576788L148.57142857142856,517.0053304058364L167.14285714285714,510.5683937315562L185.7142857142857,507.5204004202088L204.28571428571428,498.97000433601886L222.85714285714286,496.2972120244226L241.42857142857144,481.7870785947002L260,479.5880017344075L278.57142857142856,471.3094647027626" style="fill: none; stroke: #54a24b; stroke-width: 4; opacity: 0.7;"></path></g></g><path class="foreground" d="" style="display: none; fill: none;"></path></g><g transform="translate(0,0)"><path class="background" d="M0,0h650v800h-650Z" style="fill: none;"></path><g><g class="mark-line role-mark layer_0_marks"><path d="M0,660.2059991327963L18.57142857142857,660.2059991327963L37.14285714285714,644.3697499232713L55.714285714285715,644.3697499232713L74.28571428571428,619.3820026016114L92.85714285714285,609.1514981121351L111.42857142857143,600L130,570.7743928643524L148.57142857142856,535.5561410532162L167.14285714285714,504.5757490560675L185.7142857142857,493.7042165915489L204.28571428571428,467.44843366368525L222.85714285714286,450.36239459875986L241.42857142857144,437.41732867142895L260,428.5335007137464L278.57142857142856,414.1162148571414L297.1428571428571,398.27996564761656L315.7142857142857,387.86043192927775L334.2857142857143,368.9327925069877L352.85714285714283,359.1760034688151L371.4285714285714,346.0974111564167L390,337.64922778884915L408.57142857142856,333.10924976981386L427.14285714285717,326.1568285179715L445.7142857142857,317.00533040583645L464.2857142857143,309.9501783361278L482.8571428571429,301.16908119631154" style="fill: none; stroke: #eeca3b; stroke-width: 4; opacity: 0.7;"></path></g></g><path class="foreground" d="" style="display: none; fill: none;"></path></g><g transform="translate(0,0)"><path class="background" d="M0,0h650v800h-650Z" style="fill: none;"></path><g><g class="mark-line role-mark layer_0_marks"><path d="M0,660.2059991327963L18.57142857142857,644.3697499232713L37.14285714285714,630.9803919971487L55.714285714285715,630.9803919971487L74.28571428571428,630.9803919971487L92.85714285714285,630.9803919971487L111.42857142857143,619.3820026016114L130,619.3820026016114L148.57142857142856,619.3820026016114L167.14285714285714,619.3820026016114L185.7142857142857,609.1514981121351L204.28571428571428,600L222.85714285714286,584.1637507904751L241.42857142857144,570.7743928643524L260,564.7817481888637L278.57142857142856,564.7817481888637L297.1428571428571,559.1760034688151" style="fill: none; stroke: #b279a2; stroke-width: 4; opacity: 0.7;"></path></g></g><path class="foreground" d="" style="display: none; fill: none;"></path></g><g transform="translate(0,0)"><path class="background" d="M0,0h650v800h-650Z" style="fill: none;"></path><g><g class="mark-line role-mark layer_0_marks"><path d="M0,660.2059991327963L18.57142857142857,630.9803919971487L37.14285714285714,600L55.714285714285715,570.7743928643524L74.28571428571428,564.7817481888637L92.85714285714285,553.9102157243452L111.42857142857143,523.9577516576788L130,517.0053304058364L148.57142857142856,513.7272471682027L167.14285714285714,501.72766123314545L185.7142857142857,496.2972120244226L204.28571428571428,481.7870785947002L222.85714285714286,477.4432286560529L241.42857142857144,473.30630888408274L260,471.3094647027626L278.57142857142856,461.96078399429734L297.1428571428571,456.7993312730402L315.7142857142857,455.1448260798422L334.2857142857143,451.92746210115115L352.85714285714283,444.36974992327134L371.4285714285714,441.5216621003493" style="fill: none; stroke: #ff9da6; stroke-width: 4; opacity: 0.7;"></path></g></g><path class="foreground" d="" style="display: none; fill: none;"></path></g><g transform="translate(0,0)"><path class="background" d="M0,0h650v800h-650Z" style="fill: none;"></path><g><g class="mark-line role-mark layer_0_marks"><path d="M0,644.3697499232713L18.57142857142857,619.3820026016114L37.14285714285714,609.1514981121351L55.714285714285715,600L74.28571428571428,577.2113295386326L92.85714285714285,553.9102157243452L111.42857142857143,548.9454989793389L130,527.6544327964814L148.57142857142856,510.5683937315562L167.14285714285714,477.4432286560529L185.7142857142857,465.5804284128566L204.28571428571428,447.31440128741264L222.85714285714286,438.76400520322267L241.42857142857144,429.748330256185L260,410.12199867101754L278.57142857142856,394.938826947046L297.1428571428571,382.7280338650504L315.7142857142857,366.5365330503649L334.2857142857143,361.9336603659417L352.85714285714283,353.9102157243453L371.4285714285714,347.98572240298506L390,329.95039633316753L408.57142857142856,315.3508252126385L427.14285714285717,304.28670088123135L445.7142857142857,293.44912420150047L464.2857142857143,282.4578069962177L482.8571428571429,279.15478938310605L501.42857142857144,274.9375098076652L520,267.2598149220704L538.5714285714286,261.96078399429734L557.1428571428571,255.14482607984226" style="fill: none; stroke: #9d755d; stroke-width: 4; opacity: 0.7;"></path></g></g><path class="foreground" d="" style="display: none; fill: none;"></path></g><g transform="translate(0,0)"><path class="background" d="M0,0h650v800h-650Z" style="fill: none;"></path><g><g class="mark-line role-mark layer_0_marks"><path d="M0,644.3697499232713L18.57142857142857,630.9803919971487L37.14285714285714,630.9803919971487L55.714285714285715,619.3820026016114L74.28571428571428,591.721462968355L92.85714285714285,591.721462968355L111.42857142857143,591.721462968355L130,577.2113295386326L148.57142857142856,553.9102157243452L167.14285714285714,548.9454989793389L185.7142857142857,544.2492798094343L204.28571428571428,539.7940008672037L222.85714285714286,527.6544327964814L241.42857142857144,523.9577516576788L260,517.0053304058364L278.57142857142856,513.7272471682027L297.1428571428571,510.5683937315562L315.7142857142857,507.5204004202088L334.2857142857143,493.7042165915489L352.85714285714283,484.043280676638" style="fill: none; stroke: #bab0ac; stroke-width: 4; opacity: 0.7;"></path></g></g><path class="foreground" d="" style="display: none; fill: none;"></path></g><g transform="translate(0,0)"><path class="background" d="M0,0h650v800h-650Z" style="fill: none;"></path><g><g class="mark-line role-mark layer_0_marks"><path d="M0,660.2059991327963L18.57142857142857,660.2059991327963L37.14285714285714,660.2059991327963" style="fill: none; stroke: #4c78a8; stroke-width: 4; opacity: 0.7;"></path></g></g><path class="foreground" d="" style="display: none; fill: none;"></path></g><g transform="translate(0,0)"><path class="background" d="M0,0h650v800h-650Z" style="fill: none;"></path><g><g class="mark-line role-mark layer_0_marks"><path d="M0,660.2059991327963L18.57142857142857,660.2059991327963L37.14285714285714,644.3697499232713L55.714285714285715,630.9803919971487L74.28571428571428,630.9803919971487L92.85714285714285,619.3820026016114L111.42857142857143,619.3820026016114L130,600L148.57142857142856,570.7743928643524L167.14285714285714,564.7817481888637L185.7142857142857,559.1760034688151L204.28571428571428,559.1760034688151L222.85714285714286,553.9102157243452L241.42857142857144,548.9454989793389L260,544.2492798094343L278.57142857142856,535.5561410532162L297.1428571428571,523.9577516576788L315.7142857142857,523.9577516576788L334.2857142857143,517.0053304058364L352.85714285714283,513.7272471682027L371.4285714285714,513.7272471682027L390,510.5683937315562L408.57142857142856,507.5204004202088" style="fill: none; stroke: #f58518; stroke-width: 4; opacity: 0.7;"></path></g></g><path class="foreground" d="" style="display: none; fill: none;"></path></g><g transform="translate(0,0)"><path class="background" d="M0,0h650v800h-650Z" style="fill: none;"></path><g><g class="mark-line role-mark layer_0_marks"><path d="M0,660.2059991327963L18.57142857142857,660.2059991327963L37.14285714285714,600L55.714285714285715,600L74.28571428571428,591.721462968355L92.85714285714285,564.7817481888637L111.42857142857143,553.9102157243452L130,548.9454989793389L148.57142857142856,548.9454989793389L167.14285714285714,535.5561410532162L185.7142857142857,523.9577516576788L204.28571428571428,517.0053304058364L222.85714285714286,510.5683937315562L241.42857142857144,507.5204004202088L260,504.5757490560675L278.57142857142856,501.72766123314545L297.1428571428571,498.97000433601886L315.7142857142857,491.18639112994487L334.2857142857143,491.18639112994487L352.85714285714283,486.359655186601L371.4285714285714,481.7870785947002L390,475.35014192041996" style="fill: none; stroke: #e45756; stroke-width: 4; opacity: 0.7;"></path></g></g><path class="foreground" d="" style="display: none; fill: none;"></path></g><g transform="translate(0,0)"><path class="background" d="M0,0h650v800h-650Z" style="fill: none;"></path><g><g class="mark-line role-mark layer_0_marks"><path d="M0,660.2059991327963L18.57142857142857,660.2059991327963L37.14285714285714,660.2059991327963L55.714285714285715,630.9803919971487L74.28571428571428,630.9803919971487L92.85714285714285,619.3820026016114" style="fill: none; stroke: #72b7b2; stroke-width: 4; opacity: 0.7;"></path></g></g><path class="foreground" d="" style="display: none; fill: none;"></path></g><g transform="translate(0,0)"><path class="background" d="M0,0h650v800h-650Z" style="fill: none;"></path><g><g class="mark-line role-mark layer_0_marks"><path d="M0,660.2059991327963L18.57142857142857,609.1514981121351L37.14285714285714,564.7817481888637L55.714285714285715,531.5154638355588L74.28571428571428,504.5757490560675L92.85714285714285,479.5880017344075L111.42857142857143,463.75175252488265L130,447.31440128741264L148.57142857142856,433.4982174587528L167.14285714285714,415.14414278762376L185.7142857142857,401.754784861501L204.28571428571428,389.3843113033161L222.85714285714286,373.2922183259565L241.42857142857144,357.0312303904604L260,345.1684301472641L278.57142857142856,331.91117703197637L297.1428571428571,317.00533040583645L315.7142857142857,312.1334612339475L334.2857142857143,303.4252832782493L352.85714285714283,286.12521807699085L371.4285714285714,273.71124619736565L390,260.90366470196057L408.57142857142856,253.52124803540627L427.14285714285717,250.36239459875995L445.7142857142857,246.12453478477238L464.2857142857143,243.21928414545306L482.8571428571429,231.60303908197727L501.42857142857144,221.8040806020623L520,213.81019376649544L538.5714285714286,206.49040475622763L557.1428571428571,200.78526910294494L575.7142857142857,198.70679155015375L594.2857142857142,196.84424872219185L612.8571428571429,192.27596761005944L631.4285714285714,189.07738908862254L650,174.25554313231473" style="fill: none; stroke: #54a24b; stroke-width: 4; opacity: 0.7;"></path></g></g><path class="foreground" d="" style="display: none; fill: none;"></path></g></g><g class="mark-group role-scope layer_1_pathgroup"><g transform="translate(0,0)"><path class="background" d="M0,0h650v800h-650Z" style="fill: none;"></path><g><g class="mark-line role-mark layer_1_marks" style="pointer-events: none;"><path d="M0,660.2059991327963L18.57142857142857,660.2059991327963L37.14285714285714,644.3697499232713L55.714285714285715,644.3697499232713L74.28571428571428,619.3820026016114L92.85714285714285,619.3820026016114L111.42857142857143,619.3820026016114L130,600" style="fill: none; stroke: #4c78a8; stroke-width: 4; opacity: 0.5;"></path></g></g><path class="foreground" d="" style="display: none; fill: none;"></path></g><g transform="translate(0,0)"><path class="background" d="M0,0h650v800h-650Z" style="fill: none;"></path><g><g class="mark-line role-mark layer_1_marks" style="pointer-events: none;"><path d="M0,660.2059991327963L18.57142857142857,660.2059991327963L37.14285714285714,630.9803919971487L55.714285714285715,600L74.28571428571428,564.7817481888637L92.85714285714285,548.9454989793389L111.42857142857143,544.2492798094343L130,539.7940008672037L148.57142857142856,531.5154638355588" style="fill: none; stroke: #f58518; stroke-width: 4; opacity: 0.5;"></path></g></g><path class="foreground" d="" style="display: none; fill: none;"></path></g><g transform="translate(0,0)"><path class="background" d="M0,0h650v800h-650Z" style="fill: none;"></path><g><g class="mark-line role-mark layer_1_marks" style="pointer-events: none;"><path d="M0,630.9803919971487L18.57142857142857,584.1637507904751L37.14285714285714,564.7817481888637L55.714285714285715,544.2492798094343L74.28571428571428,527.6544327964814L92.85714285714285,504.5757490560675L111.42857142857143,479.5880017344075L130,460.20599913279625L148.57142857142856,455.1448260798422L167.14285714285714,441.5216621003493L185.7142857142857,429.748330256185L204.28571428571428,409.1514981121351L222.85714285714286,394.938826947046L241.42857142857144,381.31566296755295L260,367.72639955300514L278.57142857142856,358.6348247936301L297.1428571428571,347.98572240298506L315.7142857142857,346.56565431939725L334.2857142857143,342.8885381984453L352.85714285714283,337.22655592616934L371.4285714285714,326.1568285179715" style="fill: none; stroke: #e45756; stroke-width: 4; opacity: 0.5;"></path></g></g><path class="foreground" d="" style="display: none; fill: none;"></path></g><g transform="translate(0,0)"><path class="background" d="M0,0h650v800h-650Z" style="fill: none;"></path><g><g class="mark-line role-mark layer_1_marks" style="pointer-events: none;"><path d="M0,660.2059991327963L18.57142857142857,660.2059991327963L37.14285714285714,644.3697499232713L55.714285714285715,630.9803919971487L74.28571428571428,630.9803919971487L92.85714285714285,600L111.42857142857143,600L130,600L148.57142857142856,591.721462968355L167.14285714285714,577.2113295386326L185.7142857142857,577.2113295386326L204.28571428571428,570.7743928643524L222.85714285714286,559.1760034688151" style="fill: none; stroke: #72b7b2; stroke-width: 4; opacity: 0.5;"></path></g></g><path class="foreground" d="" style="display: none; fill: none;"></path></g><g transform="translate(0,0)"><path class="background" d="M0,0h650v800h-650Z" style="fill: none;"></path><g><g class="mark-line role-mark layer_1_marks" style="pointer-events: none;"><path d="M0,644.3697499232713L18.57142857142857,630.9803919971487L37.14285714285714,609.1514981121351L55.714285714285715,600L74.28571428571428,570.7743928643524L92.85714285714285,548.9454989793389L111.42857142857143,544.2492798094343L130,544.2492798094343L148.57142857142856,535.5561410532162L167.14285714285714,535.5561410532162L185.7142857142857,531.5154638355588L204.28571428571428,517.0053304058364L222.85714285714286,510.5683937315562L241.42857142857144,493.7042165915489L260,488.7394998465426L278.57142857142856,479.5880017344075L297.1428571428571,469.3574972449313L315.7142857142857,465.5804284128566L334.2857142857143,463.75175252488265L352.85714285714283,455.1448260798422L371.4285714285714,441.5216621003493" style="fill: none; stroke: #54a24b; stroke-width: 4; opacity: 0.5;"></path></g></g><path class="foreground" d="" style="display: none; fill: none;"></path></g><g transform="translate(0,0)"><path class="background" d="M0,0h650v800h-650Z" style="fill: none;"></path><g><g class="mark-line role-mark layer_1_marks" style="pointer-events: none;"><path d="M0,660.2059991327963L18.57142857142857,660.2059991327963L37.14285714285714,630.9803919971487L55.714285714285715,609.1514981121351L74.28571428571428,535.5561410532162L92.85714285714285,531.5154638355588L111.42857142857143,527.6544327964814L130,491.18639112994487L148.57142857142856,491.18639112994487L167.14285714285714,479.5880017344075L185.7142857142857,448.82502886550174L204.28571428571428,448.82502886550174L222.85714285714286,434.7850394598348L241.42857142857144,426.15365605380487L260,423.83728154384175L278.57142857142856,399.1357252434715L297.1428571428571,390.9354042426686L315.7142857142857,381.31566296755295L334.2857142857143,373.9332463009988L352.85714285714283,361.9336603659417L371.4285714285714,348.9454989793388L390,344.7076391653512L408.57142857142856,337.22655592616934L427.14285714285717,331.121545262978L445.7142857142857,324.32041981037247L464.2857142857143,313.40614182511894" style="fill: none; stroke: #eeca3b; stroke-width: 4; opacity: 0.5;"></path></g></g><path class="foreground" d="" style="display: none; fill: none;"></path></g><g transform="translate(0,0)"><path class="background" d="M0,0h650v800h-650Z" style="fill: none;"></path><g><g class="mark-line role-mark layer_1_marks" style="pointer-events: none;"><path d="M0,660.2059991327963L18.57142857142857,644.3697499232713L37.14285714285714,630.9803919971487L55.714285714285715,630.9803919971487L74.28571428571428,600L92.85714285714285,584.1637507904751L111.42857142857143,584.1637507904751L130,577.2113295386326L148.57142857142856,570.7743928643524L167.14285714285714,570.7743928643524L185.7142857142857,570.7743928643524L204.28571428571428,564.7817481888637L222.85714285714286,553.9102157243452L241.42857142857144,553.9102157243452L260,539.7940008672037L278.57142857142856,523.9577516576788L297.1428571428571,523.9577516576788L315.7142857142857,523.9577516576788L334.2857142857143,523.9577516576788L352.85714285714283,523.9577516576788L371.4285714285714,520.4119982655925L390,517.0053304058364" style="fill: none; stroke: #b279a2; stroke-width: 4; opacity: 0.5;"></path></g></g><path class="foreground" d="" style="display: none; fill: none;"></path></g><g transform="translate(0,0)"><path class="background" d="M0,0h650v800h-650Z" style="fill: none;"></path><g><g class="mark-line role-mark layer_1_marks" style="pointer-events: none;"><path d="M0,660.2059991327963L18.57142857142857,644.3697499232713L37.14285714285714,644.3697499232713L55.714285714285715,644.3697499232713L74.28571428571428,644.3697499232713L92.85714285714285,644.3697499232713L111.42857142857143,630.9803919971487L130,619.3820026016114L148.57142857142856,609.1514981121351L167.14285714285714,570.7743928643524L185.7142857142857,553.9102157243452L204.28571428571428,548.9454989793389L222.85714285714286,535.5561410532162L241.42857142857144,510.5683937315562L260,510.5683937315562L278.57142857142856,504.5757490560675L297.1428571428571,493.7042165915489L315.7142857142857,493.7042165915489L334.2857142857143,493.7042165915489L352.85714285714283,486.359655186601L371.4285714285714,473.30630888408274" style="fill: none; stroke: #ff9da6; stroke-width: 4; opacity: 0.5;"></path></g></g><path class="foreground" d="" style="display: none; fill: none;"></path></g><g transform="translate(0,0)"><path class="background" d="M0,0h650v800h-650Z" style="fill: none;"></path><g><g class="mark-line role-mark layer_1_marks" style="pointer-events: none;"><path d="M0,660.2059991327963L18.57142857142857,660.2059991327963L37.14285714285714,630.9803919971487L55.714285714285715,630.9803919971487L74.28571428571428,619.3820026016114L92.85714285714285,600L111.42857142857143,570.7743928643524L130,564.7817481888637L148.57142857142856,564.7817481888637L167.14285714285714,564.7817481888637L185.7142857142857,559.1760034688151L204.28571428571428,559.1760034688151L222.85714285714286,548.9454989793389L241.42857142857144,548.9454989793389L260,544.2492798094343L278.57142857142856,544.2492798094343L297.1428571428571,535.5561410532162L315.7142857142857,527.6544327964814" style="fill: none; stroke: #9d755d; stroke-width: 4; opacity: 0.5;"></path></g></g><path class="foreground" d="" style="display: none; fill: none;"></path></g><g transform="translate(0,0)"><path class="background" d="M0,0h650v800h-650Z" style="fill: none;"></path><g><g class="mark-line role-mark layer_1_marks" style="pointer-events: none;"><path d="M0,591.721462968355L18.57142857142857,584.1637507904751L37.14285714285714,559.1760034688151L55.714285714285715,535.5561410532162L74.28571428571428,523.9577516576788L92.85714285714285,513.7272471682027L111.42857142857143,498.97000433601886L130,493.7042165915489L148.57142857142856,486.359655186601L167.14285714285714,479.5880017344075L185.7142857142857,471.3094647027626L204.28571428571428,463.75175252488265L222.85714285714286,453.52124803540636L241.42857142857144,444.36974992327134L260,436.09121289162636L278.57142857142856,423.83728154384175L297.1428571428571,411.10346556996626" style="fill: none; stroke: #bab0ac; stroke-width: 4; opacity: 0.5;"></path></g></g><path class="foreground" d="" style="display: none; fill: none;"></path></g><g transform="translate(0,0)"><path class="background" d="M0,0h650v800h-650Z" style="fill: none;"></path><g><g class="mark-line role-mark layer_1_marks" style="pointer-events: none;"><path d="M0,644.3697499232713L18.57142857142857,644.3697499232713L37.14285714285714,644.3697499232713L55.714285714285715,609.1514981121351L74.28571428571428,591.721462968355L92.85714285714285,570.7743928643524L111.42857142857143,564.7817481888637L130,553.9102157243452L148.57142857142856,553.9102157243452L167.14285714285714,539.7940008672037L185.7142857142857,527.6544327964814L204.28571428571428,513.7272471682027L222.85714285714286,504.5757490560675L241.42857142857144,496.2972120244226L260,491.18639112994487L278.57142857142856,481.7870785947002L297.1428571428571,481.7870785947002L315.7142857142857,477.4432286560529L334.2857142857143,471.3094647027626L352.85714285714283,465.5804284128566L371.4285714285714,458.48596478041276" style="fill: none; stroke: #4c78a8; stroke-width: 4; opacity: 0.5;"></path></g></g><path class="foreground" d="" style="display: none; fill: none;"></path></g><g transform="translate(0,0)"><path class="background" d="M0,0h650v800h-650Z" style="fill: none;"></path><g><g class="mark-line role-mark layer_1_marks" style="pointer-events: none;"><path d="M0,660.2059991327963L18.57142857142857,660.2059991327963L37.14285714285714,660.2059991327963L55.714285714285715,660.2059991327963L74.28571428571428,660.2059991327963L92.85714285714285,644.3697499232713L111.42857142857143,644.3697499232713L130,630.9803919971487" style="fill: none; stroke: #f58518; stroke-width: 4; opacity: 0.5;"></path></g></g><path class="foreground" d="" style="display: none; fill: none;"></path></g><g transform="translate(0,0)"><path class="background" d="M0,0h650v800h-650Z" style="fill: none;"></path><g><g class="mark-line role-mark layer_1_marks" style="pointer-events: none;"><path d="M0,660.2059991327963L18.57142857142857,660.2059991327963L37.14285714285714,660.2059991327963L55.714285714285715,660.2059991327963L74.28571428571428,644.3697499232713L92.85714285714285,644.3697499232713L111.42857142857143,644.3697499232713L130,630.9803919971487" style="fill: none; stroke: #e45756; stroke-width: 4; opacity: 0.5;"></path></g></g><path class="foreground" d="" style="display: none; fill: none;"></path></g><g transform="translate(0,0)"><path class="background" d="M0,0h650v800h-650Z" style="fill: none;"></path><g><g class="mark-line role-mark layer_1_marks" style="pointer-events: none;"><path d="M0,660.2059991327963L18.57142857142857,660.2059991327963L37.14285714285714,644.3697499232713L55.714285714285715,630.9803919971487L74.28571428571428,609.1514981121351L92.85714285714285,591.721462968355L111.42857142857143,570.7743928643524L130,570.7743928643524L148.57142857142856,535.5561410532162L167.14285714285714,535.5561410532162L185.7142857142857,517.0053304058364L204.28571428571428,498.97000433601886L222.85714285714286,496.2972120244226L241.42857142857144,493.7042165915489L260,491.18639112994487L278.57142857142856,484.043280676638L297.1428571428571,473.30630888408274L315.7142857142857,455.1448260798422" style="fill: none; stroke: #72b7b2; stroke-width: 4; opacity: 0.5;"></path></g></g><path class="foreground" d="" style="display: none; fill: none;"></path></g><g transform="translate(0,0)"><path class="background" d="M0,0h650v800h-650Z" style="fill: none;"></path><g><g class="mark-line role-mark layer_1_marks" style="pointer-events: none;"><path d="M0,630.9803919971487L18.57142857142857,591.721462968355L37.14285714285714,591.721462968355L55.714285714285715,577.2113295386326L74.28571428571428,577.2113295386326L92.85714285714285,559.1760034688151L111.42857142857143,535.5561410532162L130,523.9577516576788L148.57142857142856,517.0053304058364L167.14285714285714,510.5683937315562L185.7142857142857,507.5204004202088L204.28571428571428,498.97000433601886L222.85714285714286,496.2972120244226L241.42857142857144,481.7870785947002L260,479.5880017344075L278.57142857142856,471.3094647027626" style="fill: none; stroke: #54a24b; stroke-width: 4; opacity: 0.5;"></path></g></g><path class="foreground" d="" style="display: none; fill: none;"></path></g><g transform="translate(0,0)"><path class="background" d="M0,0h650v800h-650Z" style="fill: none;"></path><g><g class="mark-line role-mark layer_1_marks" style="pointer-events: none;"><path d="M0,660.2059991327963L18.57142857142857,660.2059991327963L37.14285714285714,644.3697499232713L55.714285714285715,644.3697499232713L74.28571428571428,619.3820026016114L92.85714285714285,609.1514981121351L111.42857142857143,600L130,570.7743928643524L148.57142857142856,535.5561410532162L167.14285714285714,504.5757490560675L185.7142857142857,493.7042165915489L204.28571428571428,467.44843366368525L222.85714285714286,450.36239459875986L241.42857142857144,437.41732867142895L260,428.5335007137464L278.57142857142856,414.1162148571414L297.1428571428571,398.27996564761656L315.7142857142857,387.86043192927775L334.2857142857143,368.9327925069877L352.85714285714283,359.1760034688151L371.4285714285714,346.0974111564167L390,337.64922778884915L408.57142857142856,333.10924976981386L427.14285714285717,326.1568285179715L445.7142857142857,317.00533040583645L464.2857142857143,309.9501783361278L482.8571428571429,301.16908119631154" style="fill: none; stroke: #eeca3b; stroke-width: 4; opacity: 0.5;"></path></g></g><path class="foreground" d="" style="display: none; fill: none;"></path></g><g transform="translate(0,0)"><path class="background" d="M0,0h650v800h-650Z" style="fill: none;"></path><g><g class="mark-line role-mark layer_1_marks" style="pointer-events: none;"><path d="M0,660.2059991327963L18.57142857142857,644.3697499232713L37.14285714285714,630.9803919971487L55.714285714285715,630.9803919971487L74.28571428571428,630.9803919971487L92.85714285714285,630.9803919971487L111.42857142857143,619.3820026016114L130,619.3820026016114L148.57142857142856,619.3820026016114L167.14285714285714,619.3820026016114L185.7142857142857,609.1514981121351L204.28571428571428,600L222.85714285714286,584.1637507904751L241.42857142857144,570.7743928643524L260,564.7817481888637L278.57142857142856,564.7817481888637L297.1428571428571,559.1760034688151" style="fill: none; stroke: #b279a2; stroke-width: 4; opacity: 0.5;"></path></g></g><path class="foreground" d="" style="display: none; fill: none;"></path></g><g transform="translate(0,0)"><path class="background" d="M0,0h650v800h-650Z" style="fill: none;"></path><g><g class="mark-line role-mark layer_1_marks" style="pointer-events: none;"><path d="M0,660.2059991327963L18.57142857142857,630.9803919971487L37.14285714285714,600L55.714285714285715,570.7743928643524L74.28571428571428,564.7817481888637L92.85714285714285,553.9102157243452L111.42857142857143,523.9577516576788L130,517.0053304058364L148.57142857142856,513.7272471682027L167.14285714285714,501.72766123314545L185.7142857142857,496.2972120244226L204.28571428571428,481.7870785947002L222.85714285714286,477.4432286560529L241.42857142857144,473.30630888408274L260,471.3094647027626L278.57142857142856,461.96078399429734L297.1428571428571,456.7993312730402L315.7142857142857,455.1448260798422L334.2857142857143,451.92746210115115L352.85714285714283,444.36974992327134L371.4285714285714,441.5216621003493" style="fill: none; stroke: #ff9da6; stroke-width: 4; opacity: 0.5;"></path></g></g><path class="foreground" d="" style="display: none; fill: none;"></path></g><g transform="translate(0,0)"><path class="background" d="M0,0h650v800h-650Z" style="fill: none;"></path><g><g class="mark-line role-mark layer_1_marks" style="pointer-events: none;"><path d="M0,644.3697499232713L18.57142857142857,619.3820026016114L37.14285714285714,609.1514981121351L55.714285714285715,600L74.28571428571428,577.2113295386326L92.85714285714285,553.9102157243452L111.42857142857143,548.9454989793389L130,527.6544327964814L148.57142857142856,510.5683937315562L167.14285714285714,477.4432286560529L185.7142857142857,465.5804284128566L204.28571428571428,447.31440128741264L222.85714285714286,438.76400520322267L241.42857142857144,429.748330256185L260,410.12199867101754L278.57142857142856,394.938826947046L297.1428571428571,382.7280338650504L315.7142857142857,366.5365330503649L334.2857142857143,361.9336603659417L352.85714285714283,353.9102157243453L371.4285714285714,347.98572240298506L390,329.95039633316753L408.57142857142856,315.3508252126385L427.14285714285717,304.28670088123135L445.7142857142857,293.44912420150047L464.2857142857143,282.4578069962177L482.8571428571429,279.15478938310605L501.42857142857144,274.9375098076652L520,267.2598149220704L538.5714285714286,261.96078399429734L557.1428571428571,255.14482607984226" style="fill: none; stroke: #9d755d; stroke-width: 4; opacity: 0.5;"></path></g></g><path class="foreground" d="" style="display: none; fill: none;"></path></g><g transform="translate(0,0)"><path class="background" d="M0,0h650v800h-650Z" style="fill: none;"></path><g><g class="mark-line role-mark layer_1_marks" style="pointer-events: none;"><path d="M0,644.3697499232713L18.57142857142857,630.9803919971487L37.14285714285714,630.9803919971487L55.714285714285715,619.3820026016114L74.28571428571428,591.721462968355L92.85714285714285,591.721462968355L111.42857142857143,591.721462968355L130,577.2113295386326L148.57142857142856,553.9102157243452L167.14285714285714,548.9454989793389L185.7142857142857,544.2492798094343L204.28571428571428,539.7940008672037L222.85714285714286,527.6544327964814L241.42857142857144,523.9577516576788L260,517.0053304058364L278.57142857142856,513.7272471682027L297.1428571428571,510.5683937315562L315.7142857142857,507.5204004202088L334.2857142857143,493.7042165915489L352.85714285714283,484.043280676638" style="fill: none; stroke: #bab0ac; stroke-width: 4; opacity: 0.5;"></path></g></g><path class="foreground" d="" style="display: none; fill: none;"></path></g><g transform="translate(0,0)"><path class="background" d="M0,0h650v800h-650Z" style="fill: none;"></path><g><g class="mark-line role-mark layer_1_marks" style="pointer-events: none;"><path d="M0,660.2059991327963L18.57142857142857,660.2059991327963L37.14285714285714,660.2059991327963" style="fill: none; stroke: #4c78a8; stroke-width: 4; opacity: 0.5;"></path></g></g><path class="foreground" d="" style="display: none; fill: none;"></path></g><g transform="translate(0,0)"><path class="background" d="M0,0h650v800h-650Z" style="fill: none;"></path><g><g class="mark-line role-mark layer_1_marks" style="pointer-events: none;"><path d="M0,660.2059991327963L18.57142857142857,660.2059991327963L37.14285714285714,644.3697499232713L55.714285714285715,630.9803919971487L74.28571428571428,630.9803919971487L92.85714285714285,619.3820026016114L111.42857142857143,619.3820026016114L130,600L148.57142857142856,570.7743928643524L167.14285714285714,564.7817481888637L185.7142857142857,559.1760034688151L204.28571428571428,559.1760034688151L222.85714285714286,553.9102157243452L241.42857142857144,548.9454989793389L260,544.2492798094343L278.57142857142856,535.5561410532162L297.1428571428571,523.9577516576788L315.7142857142857,523.9577516576788L334.2857142857143,517.0053304058364L352.85714285714283,513.7272471682027L371.4285714285714,513.7272471682027L390,510.5683937315562L408.57142857142856,507.5204004202088" style="fill: none; stroke: #f58518; stroke-width: 4; opacity: 0.5;"></path></g></g><path class="foreground" d="" style="display: none; fill: none;"></path></g><g transform="translate(0,0)"><path class="background" d="M0,0h650v800h-650Z" style="fill: none;"></path><g><g class="mark-line role-mark layer_1_marks" style="pointer-events: none;"><path d="M0,660.2059991327963L18.57142857142857,660.2059991327963L37.14285714285714,600L55.714285714285715,600L74.28571428571428,591.721462968355L92.85714285714285,564.7817481888637L111.42857142857143,553.9102157243452L130,548.9454989793389L148.57142857142856,548.9454989793389L167.14285714285714,535.5561410532162L185.7142857142857,523.9577516576788L204.28571428571428,517.0053304058364L222.85714285714286,510.5683937315562L241.42857142857144,507.5204004202088L260,504.5757490560675L278.57142857142856,501.72766123314545L297.1428571428571,498.97000433601886L315.7142857142857,491.18639112994487L334.2857142857143,491.18639112994487L352.85714285714283,486.359655186601L371.4285714285714,481.7870785947002L390,475.35014192041996" style="fill: none; stroke: #e45756; stroke-width: 4; opacity: 0.5;"></path></g></g><path class="foreground" d="" style="display: none; fill: none;"></path></g><g transform="translate(0,0)"><path class="background" d="M0,0h650v800h-650Z" style="fill: none;"></path><g><g class="mark-line role-mark layer_1_marks" style="pointer-events: none;"><path d="M0,660.2059991327963L18.57142857142857,660.2059991327963L37.14285714285714,660.2059991327963L55.714285714285715,630.9803919971487L74.28571428571428,630.9803919971487L92.85714285714285,619.3820026016114" style="fill: none; stroke: #72b7b2; stroke-width: 4; opacity: 0.5;"></path></g></g><path class="foreground" d="" style="display: none; fill: none;"></path></g><g transform="translate(0,0)"><path class="background" d="M0,0h650v800h-650Z" style="fill: none;"></path><g><g class="mark-line role-mark layer_1_marks" style="pointer-events: none;"><path d="M0,660.2059991327963L18.57142857142857,609.1514981121351L37.14285714285714,564.7817481888637L55.714285714285715,531.5154638355588L74.28571428571428,504.5757490560675L92.85714285714285,479.5880017344075L111.42857142857143,463.75175252488265L130,447.31440128741264L148.57142857142856,433.4982174587528L167.14285714285714,415.14414278762376L185.7142857142857,401.754784861501L204.28571428571428,389.3843113033161L222.85714285714286,373.2922183259565L241.42857142857144,357.0312303904604L260,345.1684301472641L278.57142857142856,331.91117703197637L297.1428571428571,317.00533040583645L315.7142857142857,312.1334612339475L334.2857142857143,303.4252832782493L352.85714285714283,286.12521807699085L371.4285714285714,273.71124619736565L390,260.90366470196057L408.57142857142856,253.52124803540627L427.14285714285717,250.36239459875995L445.7142857142857,246.12453478477238L464.2857142857143,243.21928414545306L482.8571428571429,231.60303908197727L501.42857142857144,221.8040806020623L520,213.81019376649544L538.5714285714286,206.49040475622763L557.1428571428571,200.78526910294494L575.7142857142857,198.70679155015375L594.2857142857142,196.84424872219185L612.8571428571429,192.27596761005944L631.4285714285714,189.07738908862254L650,174.25554313231473" style="fill: none; stroke: #54a24b; stroke-width: 4; opacity: 0.5;"></path></g></g><path class="foreground" d="" style="display: none; fill: none;"></path></g></g><g class="mark-text role-mark layer_2_marks" style="pointer-events: none;"><text text-anchor="start" transform="translate(135,605)" style="font-family: sans-serif; font-size: 15px; fill: #4c78a8;">AC</text><text text-anchor="start" transform="translate(153.57142857142856,536.5154638355588)" style="font-family: sans-serif; font-size: 15px; fill: #f58518;">AL</text><text text-anchor="start" transform="translate(376.4285714285714,331.1568285179715)" style="font-family: sans-serif; font-size: 15px; fill: #e45756;">AM</text><text text-anchor="start" transform="translate(227.85714285714286,564.1760034688151)" style="font-family: sans-serif; font-size: 15px; fill: #72b7b2;">AP</text><text text-anchor="start" transform="translate(376.4285714285714,446.5216621003493)" style="font-family: sans-serif; font-size: 15px; fill: #54a24b;">BA</text><text text-anchor="start" transform="translate(469.2857142857143,318.40614182511894)" style="font-family: sans-serif; font-size: 15px; fill: #eeca3b;">CE</text><text text-anchor="start" transform="translate(395,522.0053304058364)" style="font-family: sans-serif; font-size: 15px; fill: #b279a2;">DF</text><text text-anchor="start" transform="translate(376.4285714285714,478.30630888408274)" style="font-family: sans-serif; font-size: 15px; fill: #ff9da6;">ES</text><text text-anchor="start" transform="translate(320.7142857142857,532.6544327964814)" style="font-family: sans-serif; font-size: 15px; fill: #9d755d;">GO</text><text text-anchor="start" transform="translate(302.1428571428571,416.10346556996626)" style="font-family: sans-serif; font-size: 15px; fill: #bab0ac;">MA</text><text text-anchor="start" transform="translate(376.4285714285714,463.48596478041276)" style="font-family: sans-serif; font-size: 15px; fill: #4c78a8;">MG</text><text text-anchor="start" transform="translate(135,635.9803919971487)" style="font-family: sans-serif; font-size: 15px; fill: #f58518;">MS</text><text text-anchor="start" transform="translate(135,635.9803919971487)" style="font-family: sans-serif; font-size: 15px; fill: #e45756;">MT</text><text text-anchor="start" transform="translate(320.7142857142857,460.1448260798422)" style="font-family: sans-serif; font-size: 15px; fill: #72b7b2;">PA</text><text text-anchor="start" transform="translate(283.57142857142856,476.3094647027626)" style="font-family: sans-serif; font-size: 15px; fill: #54a24b;">PB</text><text text-anchor="start" transform="translate(487.8571428571429,306.16908119631154)" style="font-family: sans-serif; font-size: 15px; fill: #eeca3b;">PE</text><text text-anchor="start" transform="translate(302.1428571428571,564.1760034688151)" style="font-family: sans-serif; font-size: 15px; fill: #b279a2;">PI</text><text text-anchor="start" transform="translate(376.4285714285714,446.5216621003493)" style="font-family: sans-serif; font-size: 15px; fill: #ff9da6;">PR</text><text text-anchor="start" transform="translate(562.1428571428571,260.14482607984223)" style="font-family: sans-serif; font-size: 15px; fill: #9d755d;">RJ</text><text text-anchor="start" transform="translate(357.85714285714283,489.043280676638)" style="font-family: sans-serif; font-size: 15px; fill: #bab0ac;">RN</text><text text-anchor="start" transform="translate(42.14285714285714,665.2059991327963)" style="font-family: sans-serif; font-size: 15px; fill: #4c78a8;">RO</text><text text-anchor="start" transform="translate(413.57142857142856,512.5204004202087)" style="font-family: sans-serif; font-size: 15px; fill: #f58518;">RS</text><text text-anchor="start" transform="translate(395,480.35014192041996)" style="font-family: sans-serif; font-size: 15px; fill: #e45756;">SC</text><text text-anchor="start" transform="translate(97.85714285714285,624.3820026016114)" style="font-family: sans-serif; font-size: 15px; fill: #72b7b2;">SE</text><text text-anchor="start" transform="translate(655,179.25554313231473)" style="font-family: sans-serif; font-size: 15px; fill: #54a24b;">SP</text></g><g class="mark-line role-mark layer_3_marks" style="pointer-events: none;"><path d="M0,660.2059991327963L18.57142857142857,630.1029995663981L37.14285714285714,600L55.714285714285715,569.8970004336019L74.28571428571428,539.7940008672037L92.85714285714285,509.6910013008056L111.42857142857143,479.5880017344075L130,449.4850021680095L148.57142857142856,419.38200260161136L167.14285714285714,389.27900303521324L185.7142857142857,359.1760034688151L204.28571428571428,329.073003902417L222.85714285714286,298.97000433601886L241.42857142857144,268.86700476962073L260,238.76400520322267L278.57142857142856,208.66100563682454L297.1428571428571,178.55800607042642L315.7142857142857,148.4550065040283" style="fill: none; stroke: lightgray; stroke-width: 2; stroke-dasharray: 2,2;"></path></g><g class="mark-line role-mark layer_4_marks" style="pointer-events: none;"><path d="M0,660.2059991327963L18.57142857142857,648.164799306237L37.14285714285714,636.1235994796778L55.714285714285715,624.0823996531185L74.28571428571428,612.0411998265593L92.85714285714285,600L111.42857142857143,587.9588001734409L130,575.9176003468815L148.57142857142856,563.8764005203222L167.14285714285714,551.8352006937631L185.7142857142857,539.7940008672037L204.28571428571428,527.7528010406446L222.85714285714286,515.7116012140852L241.42857142857144,503.67040138752606L260,491.62920156096686L278.57142857142856,479.5880017344075L297.1428571428571,467.5468019078483L315.7142857142857,455.50560208128906L334.2857142857143,443.4644022547298L352.85714285714283,431.4232024281706L371.4285714285714,419.38200260161136L390,407.34080277505205L408.57142857142856,395.2996029484928L427.14285714285717,383.2584031219336L445.7142857142857,371.21720329537436L464.2857142857143,359.1760034688151L482.8571428571429,347.1348036422559L501.42857142857144,335.09360381569655L520,323.05240398913736L538.5714285714286,311.0112041625781L557.1428571428571,298.97000433601886L575.7142857142857,286.92880450945967L594.2857142857142,274.8876046829003L612.8571428571429,262.8464048563411L631.4285714285714,250.80520502978186L650,238.76400520322267" style="fill: none; stroke: lightgray; stroke-width: 2; stroke-dasharray: 2,2;"></path></g><g class="mark-line role-mark layer_5_marks" style="pointer-events: none;"><path d="M0,660.2059991327963L18.57142857142857,654.1853992195166L37.14285714285714,648.164799306237L55.714285714285715,642.1441993929574L74.28571428571428,636.1235994796778L92.85714285714285,630.1029995663981L111.42857142857143,624.0823996531185L130,618.061799739839L148.57142857142856,612.0411998265593L167.14285714285714,606.0205999132796L185.7142857142857,600L204.28571428571428,593.9794000867204L222.85714285714286,587.9588001734409L241.42857142857144,581.9382002601612L260,575.9176003468815L278.57142857142856,569.8970004336019L297.1428571428571,563.8764005203222L315.7142857142857,557.8558006070427L334.2857142857143,551.8352006937631L352.85714285714283,545.8146007804834L371.4285714285714,539.7940008672037L390,533.7734009539241L408.57142857142856,527.7528010406446L427.14285714285717,521.732201127365L445.7142857142857,515.7116012140852L464.2857142857143,509.6910013008056L482.8571428571429,503.67040138752606L501.42857142857144,497.64980147424643L520,491.62920156096686L538.5714285714286,485.6086016476872L557.1428571428571,479.5880017344075L575.7142857142857,473.56740182112793L594.2857142857142,467.5468019078483L612.8571428571429,461.52620199456874L631.4285714285714,455.50560208128906L650,449.4850021680095" style="fill: none; stroke: lightgray; stroke-width: 2; stroke-dasharray: 2,2;"></path></g><g class="mark-text role-mark layer_6_marks" style="pointer-events: none;"><text text-anchor="middle" transform="translate(241.42857142857144,260.20599913279636) rotate(302) translate(0,4)" style="font-family: sans-serif; font-size: 13px; fill: gray;">mortes duplicam a cada 2 dias</text></g><g class="mark-text role-mark layer_7_marks" style="pointer-events: none;"><text text-anchor="middle" transform="translate(445.7142857142857,364.78174818886384) rotate(329) translate(0,4)" style="font-family: sans-serif; font-size: 13px; fill: gray;">a cada 5 dias</text></g><g class="mark-text role-mark layer_8_marks" style="pointer-events: none;"><text text-anchor="middle" transform="translate(445.7142857142857,510.5683937315562) rotate(343) translate(0,4)" style="font-family: sans-serif; font-size: 13px; fill: gray;">a cada 10 dias</text></g><g class="mark-group role-title"><g transform="translate(325,-34)"><path class="background" d="M0,0h0v0h0Z" style="pointer-events: none; fill: none;"></path><g><g class="mark-text role-title-text" style="pointer-events: none;"><text text-anchor="middle" transform="translate(0,18)" style="font-family: sans-serif; font-size: 23px; font-weight: bold; fill: #000; opacity: 1;">Total de mortes confirmadas pelo COVID-19 por estado brasileiro</text></g></g><path class="foreground" d="" style="pointer-events: none; display: none; fill: none;"></path></g></g></g><path class="foreground" d="" style="display: none; fill: none;"></path></g></g></g></svg>