<svg class="marks" width="722" height="890" viewBox="0 0 722 890" version="1.1" xmlns="http://www.w3.org/2000/svg" xmlns:xlink="http://www.w3.org/1999/xlink"><rect width="722" height="890" style="fill: white;"></rect><g transform="translate(57,39)"><g class="mark-group role-frame root"><g transform="translate(0,0)"><path class="background" d="M0.5,0.5h650v800h-650Z" style="fill: none; stroke: #ddd;"></path><g><g class="mark-group role-axis"><g transform="translate(0.5,800.5)"><path class="background" d="M0,0h0v0h0Z" style="pointer-events: none; fill: none;"></path><g><g class="mark-rule role-axis-grid" style="pointer-events: none;"><line transform="translate(0,-800)" x2="0" y2="800" style="fill: none; stroke: #ddd; stroke-width: 1; opacity: 1;"></line><line transform="translate(43,-800)" x2="0" y2="800" style="fill: none; stroke: #ddd; stroke-width: 1; opacity: 1;"></line><line transform="translate(87,-800)" x2="0" y2="800" style="fill: none; stroke: #ddd; stroke-width: 1; opacity: 1;"></line><line transform="translate(130,-800)" x2="0" y2="800" style="fill: none; stroke: #ddd; stroke-width: 1; opacity: 1;"></line><line transform="translate(173,-800)" x2="0" y2="800" style="fill: none; stroke: #ddd; stroke-width: 1; opacity: 1;"></line><line transform="translate(217,-800)" x2="0" y2="800" style="fill: none; stroke: #ddd; stroke-width: 1; opacity: 1;"></line><line transform="translate(260,-800)" x2="0" y2="800" style="fill: none; stroke: #ddd; stroke-width: 1; opacity: 1;"></line><line transform="translate(303,-800)" x2="0" y2="800" style="fill: none; stroke: #ddd; stroke-width: 1; opacity: 1;"></line><line transform="translate(347,-800)" x2="0" y2="800" style="fill: none; stroke: #ddd; stroke-width: 1; opacity: 1;"></line><line transform="translate(390,-800)" x2="0" y2="800" style="fill: none; stroke: #ddd; stroke-width: 1; opacity: 1;"></line><line transform="translate(433,-800)" x2="0" y2="800" style="fill: none; stroke: #ddd; stroke-width: 1; opacity: 1;"></line><line transform="translate(477,-800)" x2="0" y2="800" style="fill: none; stroke: #ddd; stroke-width: 1; opacity: 1;"></line><line transform="translate(520,-800)" x2="0" y2="800" style="fill: none; stroke: #ddd; stroke-width: 1; opacity: 1;"></line><line transform="translate(563,-800)" x2="0" y2="800" style="fill: none; stroke: #ddd; stroke-width: 1; opacity: 1;"></line><line transform="translate(607,-800)" x2="0" y2="800" style="fill: none; stroke: #ddd; stroke-width: 1; opacity: 1;"></line><line transform="translate(650,-800)" x2="0" y2="800" style="fill: none; stroke: #ddd; stroke-width: 1; opacity: 1;"></line></g></g><path class="foreground" d="" style="pointer-events: none; display: none; fill: none;"></path></g></g><g class="mark-group role-axis"><g transform="translate(0.5,0.5)"><path class="background" d="M0,0h0v0h0Z" style="pointer-events: none; fill: none;"></path><g><g class="mark-rule role-axis-grid" style="pointer-events: none;"><line transform="translate(0,800)" x2="650" y2="0" style="fill: none; stroke: #ddd; stroke-width: 1; opacity: 1;"></line><line transform="translate(0,754)" x2="650" y2="0" style="fill: none; stroke: #ddd; stroke-width: 1; opacity: 1;"></line><line transform="translate(0,709)" x2="650" y2="0" style="fill: none; stroke: #ddd; stroke-width: 1; opacity: 1;"></line><line transform="translate(0,663)" x2="650" y2="0" style="fill: none; stroke: #ddd; stroke-width: 1; opacity: 1;"></line><line transform="translate(0,617)" x2="650" y2="0" style="fill: none; stroke: #ddd; stroke-width: 1; opacity: 1;"></line><line transform="translate(0,571)" x2="650" y2="0" style="fill: none; stroke: #ddd; stroke-width: 1; opacity: 1;"></line><line transform="translate(0,526)" x2="650" y2="0" style="fill: none; stroke: #ddd; stroke-width: 1; opacity: 1;"></line><line transform="translate(0,480)" x2="650" y2="0" style="fill: none; stroke: #ddd; stroke-width: 1; opacity: 1;"></line><line transform="translate(0,434)" x2="650" y2="0" style="fill: none; stroke: #ddd; stroke-width: 1; opacity: 1;"></line><line transform="translate(0,389)" x2="650" y2="0" style="fill: none; stroke: #ddd; stroke-width: 1; opacity: 1;"></line><line transform="translate(0,343)" x2="650" y2="0" style="fill: none; stroke: #ddd; stroke-width: 1; opacity: 1;"></line><line transform="translate(0,297)" x2="650" y2="0" style="fill: none; stroke: #ddd; stroke-width: 1; opacity: 1;"></line><line transform="translate(0,251)" x2="650" y2="0" style="fill: none; stroke: #ddd; stroke-width: 1; opacity: 1;"></line><line transform="translate(0,206)" x2="650" y2="0" style="fill: none; stroke: #ddd; stroke-width: 1; opacity: 1;"></line><line transform="translate(0,160)" x2="650" y2="0" style="fill: none; stroke: #ddd; stroke-width: 1; opacity: 1;"></line><line transform="translate(0,114)" x2="650" y2="0" style="fill: none; stroke: #ddd; stroke-width: 1; opacity: 1;"></line><line transform="translate(0,69)" x2="650" y2="0" style="fill: none; stroke: #ddd; stroke-width: 1; opacity: 1;"></line><line transform="translate(0,23)" x2="650" y2="0" style="fill: none; stroke: #ddd; stroke-width: 1; opacity: 1;"></line></g></g><path class="foreground" d="" style="pointer-events: none; display: none; fill: none;"></path></g></g><g class="mark-group role-axis"><g transform="translate(0.5,800.5)"><path class="background" d="M0,0h0v0h0Z" style="pointer-events: none; fill: none;"></path><g><g class="mark-rule role-axis-tick" style="pointer-events: none;"><line transform="translate(0,0)" x2="0" y2="5" style="fill: none; stroke: #888; stroke-width: 1; opacity: 1;"></line><line transform="translate(43,0)" x2="0" y2="5" style="fill: none; stroke: #888; stroke-width: 1; opacity: 1;"></line><line transform="translate(87,0)" x2="0" y2="5" style="fill: none; stroke: #888; stroke-width: 1; opacity: 1;"></line><line transform="translate(130,0)" x2="0" y2="5" style="fill: none; stroke: #888; stroke-width: 1; opacity: 1;"></line><line transform="translate(173,0)" x2="0" y2="5" style="fill: none; stroke: #888; stroke-width: 1; opacity: 1;"></line><line transform="translate(217,0)" x2="0" y2="5" style="fill: none; stroke: #888; stroke-width: 1; opacity: 1;"></line><line transform="translate(260,0)" x2="0" y2="5" style="fill: none; stroke: #888; stroke-width: 1; opacity: 1;"></line><line transform="translate(303,0)" x2="0" y2="5" style="fill: none; stroke: #888; stroke-width: 1; opacity: 1;"></line><line transform="translate(347,0)" x2="0" y2="5" style="fill: none; stroke: #888; stroke-width: 1; opacity: 1;"></line><line transform="translate(390,0)" x2="0" y2="5" style="fill: none; stroke: #888; stroke-width: 1; opacity: 1;"></line><line transform="translate(433,0)" x2="0" y2="5" style="fill: none; stroke: #888; stroke-width: 1; opacity: 1;"></line><line transform="translate(477,0)" x2="0" y2="5" style="fill: none; stroke: #888; stroke-width: 1; opacity: 1;"></line><line transform="translate(520,0)" x2="0" y2="5" style="fill: none; stroke: #888; stroke-width: 1; opacity: 1;"></line><line transform="translate(563,0)" x2="0" y2="5" style="fill: none; stroke: #888; stroke-width: 1; opacity: 1;"></line><line transform="translate(607,0)" x2="0" y2="5" style="fill: none; stroke: #888; stroke-width: 1; opacity: 1;"></line><line transform="translate(650,0)" x2="0" y2="5" style="fill: none; stroke: #888; stroke-width: 1; opacity: 1;"></line></g><g class="mark-text role-axis-label" style="pointer-events: none;"><text text-anchor="start" transform="translate(0,19)" style="font-family: sans-serif; font-size: 15px; fill: #000; opacity: 1;">0</text><text text-anchor="middle" transform="translate(43.333333333333336,19)" style="font-family: sans-serif; font-size: 15px; fill: #000; opacity: 1;">2</text><text text-anchor="middle" transform="translate(86.66666666666667,19)" style="font-family: sans-serif; font-size: 15px; fill: #000; opacity: 1;">4</text><text text-anchor="middle" transform="translate(130,19)" style="font-family: sans-serif; font-size: 15px; fill: #000; opacity: 1;">6</text><text text-anchor="middle" transform="translate(173.33333333333334,19)" style="font-family: sans-serif; font-size: 15px; fill: #000; opacity: 1;">8</text><text text-anchor="middle" transform="translate(216.66666666666666,19)" style="font-family: sans-serif; font-size: 15px; fill: #000; opacity: 1;">10</text><text text-anchor="middle" transform="translate(260,19)" style="font-family: sans-serif; font-size: 15px; fill: #000; opacity: 1;">12</text><text text-anchor="middle" transform="translate(303.3333333333333,19)" style="font-family: sans-serif; font-size: 15px; fill: #000; opacity: 1;">14</text><text text-anchor="middle" transform="translate(346.6666666666667,19)" style="font-family: sans-serif; font-size: 15px; fill: #000; opacity: 1;">16</text><text text-anchor="middle" transform="translate(390,19)" style="font-family: sans-serif; font-size: 15px; fill: #000; opacity: 1;">18</text><text text-anchor="middle" transform="translate(433.3333333333333,19)" style="font-family: sans-serif; font-size: 15px; fill: #000; opacity: 1;">20</text><text text-anchor="middle" transform="translate(476.66666666666663,19)" style="font-family: sans-serif; font-size: 15px; fill: #000; opacity: 1;">22</text><text text-anchor="middle" transform="translate(520,19)" style="font-family: sans-serif; font-size: 15px; fill: #000; opacity: 1;">24</text><text text-anchor="middle" transform="translate(563.3333333333334,19)" style="font-family: sans-serif; font-size: 15px; fill: #000; opacity: 1;">26</text><text text-anchor="middle" transform="translate(606.6666666666666,19)" style="font-family: sans-serif; font-size: 15px; fill: #000; opacity: 1;">28</text><text text-anchor="end" transform="translate(650,19)" style="font-family: sans-serif; font-size: 15px; fill: #000; opacity: 1;">30</text></g><g class="mark-rule role-axis-domain" style="pointer-events: none;"><line transform="translate(0,0)" x2="650" y2="0" style="fill: none; stroke: #888; stroke-width: 1; opacity: 1;"></line></g><g class="mark-text role-axis-title" style="pointer-events: none;"><text text-anchor="middle" transform="translate(325,42)" style="font-family: sans-serif; font-size: 20px; font-weight: bold; fill: #000; opacity: 1;">Dias a partir da 5a morte no estado</text></g></g><path class="foreground" d="" style="pointer-events: none; display: none; fill: none;"></path></g></g><g class="mark-group role-axis"><g transform="translate(0.5,0.5)"><path class="background" d="M0,0h0v0h0Z" style="pointer-events: none; fill: none;"></path><g><g class="mark-rule role-axis-tick" style="pointer-events: none;"><line transform="translate(0,800)" x2="-5" y2="0" style="fill: none; stroke: #888; stroke-width: 1; opacity: 1;"></line><line transform="translate(0,754)" x2="-5" y2="0" style="fill: none; stroke: #888; stroke-width: 1; opacity: 1;"></line><line transform="translate(0,709)" x2="-5" y2="0" style="fill: none; stroke: #888; stroke-width: 1; opacity: 1;"></line><line transform="translate(0,663)" x2="-5" y2="0" style="fill: none; stroke: #888; stroke-width: 1; opacity: 1;"></line><line transform="translate(0,617)" x2="-5" y2="0" style="fill: none; stroke: #888; stroke-width: 1; opacity: 1;"></line><line transform="translate(0,571)" x2="-5" y2="0" style="fill: none; stroke: #888; stroke-width: 1; opacity: 1;"></line><line transform="translate(0,526)" x2="-5" y2="0" style="fill: none; stroke: #888; stroke-width: 1; opacity: 1;"></line><line transform="translate(0,480)" x2="-5" y2="0" style="fill: none; stroke: #888; stroke-width: 1; opacity: 1;"></line><line transform="translate(0,434)" x2="-5" y2="0" style="fill: none; stroke: #888; stroke-width: 1; opacity: 1;"></line><line transform="translate(0,389)" x2="-5" y2="0" style="fill: none; stroke: #888; stroke-width: 1; opacity: 1;"></line><line transform="translate(0,343)" x2="-5" y2="0" style="fill: none; stroke: #888; stroke-width: 1; opacity: 1;"></line><line transform="translate(0,297)" x2="-5" y2="0" style="fill: none; stroke: #888; stroke-width: 1; opacity: 1;"></line><line transform="translate(0,251)" x2="-5" y2="0" style="fill: none; stroke: #888; stroke-width: 1; opacity: 1;"></line><line transform="translate(0,206)" x2="-5" y2="0" style="fill: none; stroke: #888; stroke-width: 1; opacity: 1;"></line><line transform="translate(0,160)" x2="-5" y2="0" style="fill: none; stroke: #888; stroke-width: 1; opacity: 1;"></line><line transform="translate(0,114)" x2="-5" y2="0" style="fill: none; stroke: #888; stroke-width: 1; opacity: 1;"></line><line transform="translate(0,69)" x2="-5" y2="0" style="fill: none; stroke: #888; stroke-width: 1; opacity: 1;"></line><line transform="translate(0,23)" x2="-5" y2="0" style="fill: none; stroke: #888; stroke-width: 1; opacity: 1;"></line></g><g class="mark-text role-axis-label" style="pointer-events: none;"><text text-anchor="end" transform="translate(-7,805)" style="font-family: sans-serif; font-size: 15px; fill: #000; opacity: 1;">0.0</text><text text-anchor="end" transform="translate(-7,759.2857142857142)" style="font-family: sans-serif; font-size: 15px; fill: #000; opacity: 1;">0.2</text><text text-anchor="end" transform="translate(-7,713.5714285714286)" style="font-family: sans-serif; font-size: 15px; fill: #000; opacity: 1;">0.4</text><text text-anchor="end" transform="translate(-7,667.8571428571428)" style="font-family: sans-serif; font-size: 15px; fill: #000; opacity: 1;">0.6</text><text text-anchor="end" transform="translate(-7,622.1428571428571)" style="font-family: sans-serif; font-size: 15px; fill: #000; opacity: 1;">0.8</text><text text-anchor="end" transform="translate(-7,576.4285714285714)" style="font-family: sans-serif; font-size: 15px; fill: #000; opacity: 1;">1.0</text><text text-anchor="end" transform="translate(-7,530.7142857142857)" style="font-family: sans-serif; font-size: 15px; fill: #000; opacity: 1;">1.2</text><text text-anchor="end" transform="translate(-7,485.00000000000006)" style="font-family: sans-serif; font-size: 15px; fill: #000; opacity: 1;">1.4</text><text text-anchor="end" transform="translate(-7,439.2857142857143)" style="font-family: sans-serif; font-size: 15px; fill: #000; opacity: 1;">1.6</text><text text-anchor="end" transform="translate(-7,393.5714285714285)" style="font-family: sans-serif; font-size: 15px; fill: #000; opacity: 1;">1.8</text><text text-anchor="end" transform="translate(-7,347.8571428571429)" style="font-family: sans-serif; font-size: 15px; fill: #000; opacity: 1;">2.0</text><text text-anchor="end" transform="translate(-7,302.14285714285705)" style="font-family: sans-serif; font-size: 15px; fill: #000; opacity: 1;">2.2</text><text text-anchor="end" transform="translate(-7,256.42857142857144)" style="font-family: sans-serif; font-size: 15px; fill: #000; opacity: 1;">2.4</text><text text-anchor="end" transform="translate(-7,210.7142857142857)" style="font-family: sans-serif; font-size: 15px; fill: #000; opacity: 1;">2.6</text><text text-anchor="end" transform="translate(-7,165.00000000000006)" style="font-family: sans-serif; font-size: 15px; fill: #000; opacity: 1;">2.8</text><text text-anchor="end" transform="translate(-7,119.28571428571432)" style="font-family: sans-serif; font-size: 15px; fill: #000; opacity: 1;">3.0</text><text text-anchor="end" transform="translate(-7,73.5714285714285)" style="font-family: sans-serif; font-size: 15px; fill: #000; opacity: 1;">3.2</text><text text-anchor="end" transform="translate(-7,27.857142857142865)" style="font-family: sans-serif; font-size: 15px; fill: #000; opacity: 1;">3.4</text></g><g class="mark-rule role-axis-domain" style="pointer-events: none;"><line transform="translate(0,800)" x2="0" y2="-800" style="fill: none; stroke: #888; stroke-width: 1; opacity: 1;"></line></g><g class="mark-text role-axis-title" style="pointer-events: none;"><text text-anchor="middle" transform="translate(-31.85205078125,400) rotate(-90) translate(0,-4)" style="font-family: sans-serif; font-size: 20px; font-weight: bold; fill: #000; opacity: 1;">Mortes confirmadas a cada 100 mil habitantes</text></g></g><path class="foreground" d="" style="pointer-events: none; display: none; fill: none;"></path></g></g><g class="mark-group role-scope layer_0_layer_0_pathgroup"><g transform="translate(0,0)"><path class="background" d="M0,0h650v800h-650Z" style="fill: none;"></path><g><g class="mark-line role-mark layer_0_layer_0_marks"><path d="M0,670.4148102913318L21.666666666666668,670.4148102913318" style="fill: none; stroke: #4c78a8; stroke-width: 4; opacity: 0.7;"></path></g></g><path class="foreground" d="" style="display: none; fill: none;"></path></g><g transform="translate(0,0)"><path class="background" d="M0,0h650v800h-650Z" style="fill: none;"></path><g><g class="mark-line role-mark layer_0_layer_0_marks"><path d="M0,765.7556221028453L21.666666666666668,765.7556221028453L43.333333333333336,752.0578709439835" style="fill: none; stroke: #f58518; stroke-width: 4; opacity: 0.7;"></path></g></g><path class="foreground" d="" style="display: none; fill: none;"></path></g><g transform="translate(0,0)"><path class="background" d="M0,0h650v800h-650Z" style="fill: none;"></path><g><g class="mark-line role-mark layer_0_layer_0_marks"><path d="M0,761.3955228940232L21.666666666666668,733.8208963897541L43.333333333333336,717.2761204871927L65,695.2164192837774L86.66666666666667,673.1567180803621L108.33333333333333,634.5522409743853L130,579.402987965847L151.66666666666666,524.2537349573088L173.33333333333334,507.7089590547473L195,458.07463134706285L216.66666666666666,408.4403036393784L238.33333333333331,303.6567229231558L260,215.41791810949462L281.6666666666667,116.1492626941258L303.3333333333333,0.33583137619555004" style="fill: none; stroke: #e45756; stroke-width: 4; opacity: 0.7;"></path></g></g><path class="foreground" d="" style="display: none; fill: none;"></path></g><g transform="translate(0,0)"><path class="background" d="M0,0h650v800h-650Z" style="fill: none;"></path><g><g class="mark-line role-mark layer_0_layer_0_marks"><path d="M0,664.867535557152L21.666666666666668,664.867535557152L43.333333333333336,637.8410426685824L65,610.8145497800128L86.66666666666667,610.8145497800128L108.33333333333333,529.735071114304L130,529.735071114304" style="fill: none; stroke: #72b7b2; stroke-width: 4; opacity: 0.7;"></path></g></g><path class="foreground" d="" style="display: none; fill: none;"></path></g><g transform="translate(0,0)"><path class="background" d="M0,0h650v800h-650Z" style="fill: none;"></path><g><g class="mark-line role-mark layer_0_layer_0_marks"><path d="M0,790.7791120146558L21.666666666666668,789.2422973504316L43.333333333333336,786.1686680219835L65,784.6318533577595L86.66666666666667,778.4845947008632L108.33333333333333,772.3373360439671L130,770.8005213797429L151.66666666666666,770.8005213797429L173.33333333333334,767.726892051295L195,767.726892051295L216.66666666666666,766.1900773870708L238.33333333333331,760.0428187301746L260,756.9691894017266L281.6666666666667,747.7483014163821L303.3333333333333,744.6746720879341" style="fill: none; stroke: #54a24b; stroke-width: 4; opacity: 0.7;"></path></g></g><path class="foreground" d="" style="display: none; fill: none;"></path></g><g transform="translate(0,0)"><path class="background" d="M0,0h650v800h-650Z" style="fill: none;"></path><g><g class="mark-line role-mark layer_0_layer_0_marks"><path d="M0,787.4852454955253L21.666666666666668,787.4852454955253L43.333333333333336,782.4793436937355L65,777.4734418919455L86.66666666666667,747.4380310812062L108.33333333333333,744.9350801803114L130,742.4321292794164L151.66666666666666,712.3967184686771L173.33333333333334,712.3967184686771L195,699.8819639642024L216.66666666666666,657.3317986489885L238.33333333333331,657.3317986489885L260,632.302289640039L281.6666666666667,614.7816333337745L303.3333333333333,609.7757315319847L325,547.2019590096111L346.6666666666667,522.1724500006618L368.3333333333333,489.6340882890275L390,462.1016283791832L411.66666666666663,412.0426103612844" style="fill: none; stroke: #eeca3b; stroke-width: 4; opacity: 0.7;"></path></g></g><path class="foreground" d="" style="display: none; fill: none;"></path></g><g transform="translate(0,0)"><path class="background" d="M0,0h650v800h-650Z" style="fill: none;"></path><g><g class="mark-line role-mark layer_0_layer_0_marks"><path d="M0,762.0976595494284L21.666666666666668,754.5171914593141L43.333333333333336,746.9367233691996L65,746.9367233691996L86.66666666666667,724.1953190988567L108.33333333333333,709.034382918628L130,709.034382918628L151.66666666666666,701.4539148285137L173.33333333333334,693.8734467383994L195,693.8734467383994L216.66666666666666,693.8734467383994L238.33333333333331,686.292978648285L260,671.1320424680563L281.6666666666667,671.1320424680563L303.3333333333333,648.3906381977133L325,618.068765837256" style="fill: none; stroke: #b279a2; stroke-width: 4; opacity: 0.7;"></path></g></g><path class="foreground" d="" style="display: none; fill: none;"></path></g><g transform="translate(0,0)"><path class="background" d="M0,0h650v800h-650Z" style="fill: none;"></path><g><g class="mark-line role-mark layer_0_layer_0_marks"><path d="M0,771.5611674851718L21.666666666666668,765.8734009822062L43.333333333333336,765.8734009822062L65,765.8734009822062L86.66666666666667,765.8734009822062L108.33333333333333,765.8734009822062L130,760.1856344792405L151.66666666666666,754.4978679762748L173.33333333333334,748.8101014733093L195,720.3712689584811L216.66666666666666,703.3079694495842L238.33333333333331,697.6202029466185L260,680.5569034377216L281.6666666666667,640.7425379169622L303.3333333333333,640.7425379169622" style="fill: none; stroke: #ff9da6; stroke-width: 4; opacity: 0.7;"></path></g></g><path class="foreground" d="" style="display: none; fill: none;"></path></g><g transform="translate(0,0)"><path class="background" d="M0,0h650v800h-650Z" style="fill: none;"></path><g><g class="mark-line role-mark layer_0_layer_0_marks"><path d="M0,783.7161656015478L21.666666666666668,783.7161656015478L43.333333333333336,777.202631842167L65,777.202631842167L86.66666666666667,773.9458649624765L108.33333333333333,767.4323312030957L130,754.4052636843339L151.66666666666666,751.1484968046435L173.33333333333334,751.1484968046435L195,751.1484968046435L216.66666666666666,747.8917299249531L238.33333333333331,747.8917299249531" style="fill: none; stroke: #9d755d; stroke-width: 4; opacity: 0.7;"></path></g></g><path class="foreground" d="" style="display: none; fill: none;"></path></g><g transform="translate(0,0)"><path class="background" d="M0,0h650v800h-650Z" style="fill: none;"></path><g><g class="mark-line role-mark layer_0_layer_0_marks"><path d="M0,764.4633018676735L21.666666666666668,761.232692946553L43.333333333333336,748.3102572620706L65,732.1572126564678L86.66666666666667,722.4653858931059L108.33333333333333,712.7735591297443L130,696.6205145241413L151.66666666666666,690.1592966819001L173.33333333333334,680.4674699185384L195,670.7756431551767L216.66666666666666,657.8532074706943" style="fill: none; stroke: #bab0ac; stroke-width: 4; opacity: 0.7;"></path></g></g><path class="foreground" d="" style="display: none; fill: none;"></path></g><g transform="translate(0,0)"><path class="background" d="M0,0h650v800h-650Z" style="fill: none;"></path><g><g class="mark-line role-mark layer_0_layer_0_marks"><path d="M0,793.5214600993104L21.666666666666668,793.5214600993104L43.333333333333336,793.5214600993104L65,790.2821901489657L86.66666666666667,788.1226768487359L108.33333333333333,784.8834068983911L130,783.8036502482762L151.66666666666666,781.6441369480464L173.33333333333334,781.6441369480464L195,778.4048669977017L216.66666666666666,775.1655970473569L238.33333333333331,770.8465704468972L260,767.6073004965524L281.6666666666667,764.3680305462077L303.3333333333333,762.2085172459779" style="fill: none; stroke: #4c78a8; stroke-width: 4; opacity: 0.7;"></path></g></g><path class="foreground" d="" style="display: none; fill: none;"></path></g><g transform="translate(0,0)"><path class="background" d="M0,0h650v800h-650Z" style="fill: none;"></path><g><g class="mark-line role-mark layer_0_layer_0_marks"><path d="M0,758.8750305738445L21.666666666666668,758.8750305738445" style="fill: none; stroke: #f58518; stroke-width: 4; opacity: 0.7;"></path></g></g><path class="foreground" d="" style="display: none; fill: none;"></path></g><g transform="translate(0,0)"><path class="background" d="M0,0h650v800h-650Z" style="fill: none;"></path><g><g class="mark-line role-mark layer_0_layer_0_marks"><path d="M0,767.2013690804519L21.666666666666668,767.2013690804519" style="fill: none; stroke: #e45756; stroke-width: 4; opacity: 0.7;"></path></g></g><path class="foreground" d="" style="display: none; fill: none;"></path></g><g transform="translate(0,0)"><path class="background" d="M0,0h650v800h-650Z" style="fill: none;"></path><g><g class="mark-line role-mark layer_0_layer_0_marks"><path d="M0,786.7153890842511L21.666666666666668,786.7153890842511L43.333333333333336,784.0584669011014L65,781.4015447179515L86.66666666666667,776.087700351652L108.33333333333333,770.7738559853524L130,762.8030894359031L151.66666666666666,762.8030894359031L173.33333333333334,744.2046341538545L195,744.2046341538545L216.66666666666666,730.9200232381056L238.33333333333331,714.978490139207" style="fill: none; stroke: #72b7b2; stroke-width: 4; opacity: 0.7;"></path></g></g><path class="foreground" d="" style="display: none; fill: none;"></path></g><g transform="translate(0,0)"><path class="background" d="M0,0h650v800h-650Z" style="fill: none;"></path><g><g class="mark-line role-mark layer_0_layer_0_marks"><path d="M0,760.1804522355815L21.666666666666668,737.4264249416279L43.333333333333336,737.4264249416279L65,726.0494112946512L86.66666666666667,726.0494112946512L108.33333333333333,708.9838908241861L130,680.5413567067442L151.66666666666666,663.4758362362791L173.33333333333334,652.0988225893024L195,640.7218089423257" style="fill: none; stroke: #54a24b; stroke-width: 4; opacity: 0.7;"></path></g></g><path class="foreground" d="" style="display: none; fill: none;"></path></g><g transform="translate(0,0)"><path class="background" d="M0,0h650v800h-650Z" style="fill: none;"></path><g><g class="mark-line role-mark layer_0_layer_0_marks"><path d="M0,788.0417636024977L21.666666666666668,788.0417636024977L43.333333333333336,785.6501163229972L65,785.6501163229972L86.66666666666667,780.8668217639962L108.33333333333333,778.4751744844957L130,776.0835272049952L151.66666666666666,766.5169380869934L173.33333333333334,749.7754071304901L195,728.2505816149859L216.66666666666666,718.6839924969839L238.33333333333331,689.9842251429783L260,666.0677523479736L281.6666666666667,644.5429268324693L303.3333333333333,627.801395875966L325,596.7099812424599L346.6666666666667,556.0519774909519L368.3333333333333,524.9605628574457L390,457.9944390314324L411.66666666666663,417.33643527992433L433.3333333333333,355.1536060129122" style="fill: none; stroke: #eeca3b; stroke-width: 4; opacity: 0.7;"></path></g></g><path class="foreground" d="" style="display: none; fill: none;"></path></g><g transform="translate(0,0)"><path class="background" d="M0,0h650v800h-650Z" style="fill: none;"></path><g><g class="mark-line role-mark layer_0_layer_0_marks"><path d="M0,765.084696452243L21.666666666666668,758.1016357426914L43.333333333333336,751.1185750331401L65,751.1185750331401L86.66666666666667,751.1185750331401L108.33333333333333,751.1185750331401L130,744.1355143235887L151.66666666666666,744.1355143235887L173.33333333333334,744.1355143235887L195,744.1355143235887L216.66666666666666,737.1524536140372" style="fill: none; stroke: #b279a2; stroke-width: 4; opacity: 0.7;"></path></g></g><path class="foreground" d="" style="display: none; fill: none;"></path></g><g transform="translate(0,0)"><path class="background" d="M0,0h650v800h-650Z" style="fill: none;"></path><g><g class="mark-line role-mark layer_0_layer_0_marks"><path d="M0,790.0047101553981L21.666666666666668,786.0065942175573L43.333333333333336,780.0094203107963L65,772.0131884351148L86.66666666666667,770.0141304661944L108.33333333333333,766.0160145283537L130,752.0226087459112L151.66666666666666,748.0244928080704L173.33333333333334,746.02543483915L195,738.0292029634685L216.66666666666666,734.0310870256277L238.33333333333331,722.0367392121055L260,718.0386232742648L281.6666666666667,714.0405073364241L303.3333333333333,712.0414493675037" style="fill: none; stroke: #ff9da6; stroke-width: 4; opacity: 0.7;"></path></g></g><path class="foreground" d="" style="display: none; fill: none;"></path></g><g transform="translate(0,0)"><path class="background" d="M0,0h650v800h-650Z" style="fill: none;"></path><g><g class="mark-line role-mark layer_0_layer_0_marks"><path d="M0,792.0565705231197L21.666666666666668,789.408760697493L43.333333333333336,788.0848557846797L65,786.7609508718663L86.66666666666667,782.7892361334261L108.33333333333333,777.4936164821727L130,776.1697115693594L151.66666666666666,769.5501870052924L173.33333333333334,762.9306624412255L195,745.7198985746518L216.66666666666666,737.7764690977714L238.33333333333331,723.2135150568243L260,715.2700855799442L281.6666666666667,706.0027511902505L303.3333333333333,682.1724627596097L325,659.6660792417824L346.6666666666667,638.4836006367685L368.3333333333333,605.3859778164341L390,594.7947385139272L411.66666666666663,574.9361648217265L433.3333333333333,559.049305867966L454.99999999999994,503.4452995298044L476.66666666666663,449.1651981044561L498.33333333333337,401.50462124317465L520,348.54842473063974" style="fill: none; stroke: #9d755d; stroke-width: 4; opacity: 0.7;"></path></g></g><path class="foreground" d="" style="display: none; fill: none;"></path></g><g transform="translate(0,0)"><path class="background" d="M0,0h650v800h-650Z" style="fill: none;"></path><g><g class="mark-line role-mark layer_0_layer_0_marks"><path d="M0,760.8928982358665L21.666666666666668,754.3750479418442L43.333333333333336,754.3750479418442L65,747.8571976478219L86.66666666666667,728.303646765755L108.33333333333333,728.303646765755L130,728.303646765755L151.66666666666666,715.2679461777105L173.33333333333334,689.1965450016215L195,682.6786947075993L216.66666666666666,676.160844413577L238.33333333333331,669.6429941195547L260,650.089443237488L281.6666666666667,643.5715929434657" style="fill: none; stroke: #bab0ac; stroke-width: 4; opacity: 0.7;"></path></g></g><path class="foreground" d="" style="display: none; fill: none;"></path></g><g transform="translate(0,0)"><path class="background" d="M0,0h650v800h-650Z" style="fill: none;"></path><g><g class="mark-line role-mark layer_0_layer_0_marks"><path d="M0,789.95488147118L21.666666666666668,789.95488147118L43.333333333333336,787.9458577654159L65,785.9368340596519L86.66666666666667,785.9368340596519L108.33333333333333,783.9278103538879L130,783.9278103538879L151.66666666666666,779.9097629423599L173.33333333333334,771.8736681193038L195,769.8646444135397L216.66666666666666,767.8556207077758L238.33333333333331,767.8556207077758L260,765.8465970020118L281.6666666666667,763.8375732962477L303.3333333333333,761.8285495904837L325,757.8105021789557L346.6666666666667,751.7834310616637" style="fill: none; stroke: #4c78a8; stroke-width: 4; opacity: 0.7;"></path></g></g><path class="foreground" d="" style="display: none; fill: none;"></path></g><g transform="translate(0,0)"><path class="background" d="M0,0h650v800h-650Z" style="fill: none;"></path><g><g class="mark-line role-mark layer_0_layer_0_marks"><path d="M0,784.0489747518399L21.666666666666668,784.0489747518399L43.333333333333336,768.0979495036798L65,768.0979495036798L86.66666666666667,764.9077444540478L108.33333333333333,752.1469242555198L130,745.7665141562558L151.66666666666666,742.5763091066237L173.33333333333334,742.5763091066237L195,733.0056939577278L216.66666666666666,723.4350788088317L238.33333333333331,717.0546687095676L260,710.6742586103036L281.6666666666667,707.4840535606717L303.3333333333333,704.2938485110395L325,701.1036434614076" style="fill: none; stroke: #f58518; stroke-width: 4; opacity: 0.7;"></path></g></g><path class="foreground" d="" style="display: none; fill: none;"></path></g><g transform="translate(0,0)"><path class="background" d="M0,0h650v800h-650Z" style="fill: none;"></path><g><g class="mark-line role-mark layer_0_layer_0_marks"><path d="M0,797.5111480578416L21.666666666666668,795.520066504115L43.333333333333336,792.5334441735249L65,789.0490514545033L86.66666666666667,785.0668883470499L108.33333333333333,780.0891844627332L130,776.1070213552798L151.66666666666666,771.1293174709632L173.33333333333334,766.1516135866465L195,758.1872873717398L216.66666666666666,751.2185019336964L238.33333333333331,743.7519461072213L260,732.303227173293L281.6666666666667,718.3656562972062L303.3333333333333,706.4191669748461L325,690.9882849334645L346.6666666666667,670.5796990077661L368.3333333333333,663.1131431812909L390,648.6778019167725L411.66666666666663,615.3271858918506L433.3333333333333,586.9542737512455L454.99999999999994,553.1058873378921L476.66666666666663,531.2039902468986L498.33333333333337,521.2485824782652L520,507.3110116021784L541.6666666666667,497.35560383354505L563.3333333333334,454.04958003998985L585,412.73463780016124L606.6666666666666,375.40185866778603L628.3333333333334,338.0690795354108" style="fill: none; stroke: #e45756; stroke-width: 4; opacity: 0.7;"></path></g></g><path class="foreground" d="" style="display: none; fill: none;"></path></g></g><g class="mark-group role-scope layer_0_layer_1_pathgroup"><g transform="translate(0,0)"><path class="background" d="M0,0h650v800h-650Z" style="fill: none;"></path><g><g class="mark-line role-mark layer_0_layer_1_marks" style="pointer-events: none;"><path d="M0,670.4148102913318L21.666666666666668,670.4148102913318" style="fill: none; stroke: #4c78a8; stroke-width: 4; opacity: 0.5;"></path></g></g><path class="foreground" d="" style="display: none; fill: none;"></path></g><g transform="translate(0,0)"><path class="background" d="M0,0h650v800h-650Z" style="fill: none;"></path><g><g class="mark-line role-mark layer_0_layer_1_marks" style="pointer-events: none;"><path d="M0,765.7556221028453L21.666666666666668,765.7556221028453L43.333333333333336,752.0578709439835" style="fill: none; stroke: #f58518; stroke-width: 4; opacity: 0.5;"></path></g></g><path class="foreground" d="" style="display: none; fill: none;"></path></g><g transform="translate(0,0)"><path class="background" d="M0,0h650v800h-650Z" style="fill: none;"></path><g><g class="mark-line role-mark layer_0_layer_1_marks" style="pointer-events: none;"><path d="M0,761.3955228940232L21.666666666666668,733.8208963897541L43.333333333333336,717.2761204871927L65,695.2164192837774L86.66666666666667,673.1567180803621L108.33333333333333,634.5522409743853L130,579.402987965847L151.66666666666666,524.2537349573088L173.33333333333334,507.7089590547473L195,458.07463134706285L216.66666666666666,408.4403036393784L238.33333333333331,303.6567229231558L260,215.41791810949462L281.6666666666667,116.1492626941258L303.3333333333333,0.33583137619555004" style="fill: none; stroke: #e45756; stroke-width: 4; opacity: 0.5;"></path></g></g><path class="foreground" d="" style="display: none; fill: none;"></path></g><g transform="translate(0,0)"><path class="background" d="M0,0h650v800h-650Z" style="fill: none;"></path><g><g class="mark-line role-mark layer_0_layer_1_marks" style="pointer-events: none;"><path d="M0,664.867535557152L21.666666666666668,664.867535557152L43.333333333333336,637.8410426685824L65,610.8145497800128L86.66666666666667,610.8145497800128L108.33333333333333,529.735071114304L130,529.735071114304" style="fill: none; stroke: #72b7b2; stroke-width: 4; opacity: 0.5;"></path></g></g><path class="foreground" d="" style="display: none; fill: none;"></path></g><g transform="translate(0,0)"><path class="background" d="M0,0h650v800h-650Z" style="fill: none;"></path><g><g class="mark-line role-mark layer_0_layer_1_marks" style="pointer-events: none;"><path d="M0,790.7791120146558L21.666666666666668,789.2422973504316L43.333333333333336,786.1686680219835L65,784.6318533577595L86.66666666666667,778.4845947008632L108.33333333333333,772.3373360439671L130,770.8005213797429L151.66666666666666,770.8005213797429L173.33333333333334,767.726892051295L195,767.726892051295L216.66666666666666,766.1900773870708L238.33333333333331,760.0428187301746L260,756.9691894017266L281.6666666666667,747.7483014163821L303.3333333333333,744.6746720879341" style="fill: none; stroke: #54a24b; stroke-width: 4; opacity: 0.5;"></path></g></g><path class="foreground" d="" style="display: none; fill: none;"></path></g><g transform="translate(0,0)"><path class="background" d="M0,0h650v800h-650Z" style="fill: none;"></path><g><g class="mark-line role-mark layer_0_layer_1_marks" style="pointer-events: none;"><path d="M0,787.4852454955253L21.666666666666668,787.4852454955253L43.333333333333336,782.4793436937355L65,777.4734418919455L86.66666666666667,747.4380310812062L108.33333333333333,744.9350801803114L130,742.4321292794164L151.66666666666666,712.3967184686771L173.33333333333334,712.3967184686771L195,699.8819639642024L216.66666666666666,657.3317986489885L238.33333333333331,657.3317986489885L260,632.302289640039L281.6666666666667,614.7816333337745L303.3333333333333,609.7757315319847L325,547.2019590096111L346.6666666666667,522.1724500006618L368.3333333333333,489.6340882890275L390,462.1016283791832L411.66666666666663,412.0426103612844" style="fill: none; stroke: #eeca3b; stroke-width: 4; opacity: 0.5;"></path></g></g><path class="foreground" d="" style="display: none; fill: none;"></path></g><g transform="translate(0,0)"><path class="background" d="M0,0h650v800h-650Z" style="fill: none;"></path><g><g class="mark-line role-mark layer_0_layer_1_marks" style="pointer-events: none;"><path d="M0,762.0976595494284L21.666666666666668,754.5171914593141L43.333333333333336,746.9367233691996L65,746.9367233691996L86.66666666666667,724.1953190988567L108.33333333333333,709.034382918628L130,709.034382918628L151.66666666666666,701.4539148285137L173.33333333333334,693.8734467383994L195,693.8734467383994L216.66666666666666,693.8734467383994L238.33333333333331,686.292978648285L260,671.1320424680563L281.6666666666667,671.1320424680563L303.3333333333333,648.3906381977133L325,618.068765837256" style="fill: none; stroke: #b279a2; stroke-width: 4; opacity: 0.5;"></path></g></g><path class="foreground" d="" style="display: none; fill: none;"></path></g><g transform="translate(0,0)"><path class="background" d="M0,0h650v800h-650Z" style="fill: none;"></path><g><g class="mark-line role-mark layer_0_layer_1_marks" style="pointer-events: none;"><path d="M0,771.5611674851718L21.666666666666668,765.8734009822062L43.333333333333336,765.8734009822062L65,765.8734009822062L86.66666666666667,765.8734009822062L108.33333333333333,765.8734009822062L130,760.1856344792405L151.66666666666666,754.4978679762748L173.33333333333334,748.8101014733093L195,720.3712689584811L216.66666666666666,703.3079694495842L238.33333333333331,697.6202029466185L260,680.5569034377216L281.6666666666667,640.7425379169622L303.3333333333333,640.7425379169622" style="fill: none; stroke: #ff9da6; stroke-width: 4; opacity: 0.5;"></path></g></g><path class="foreground" d="" style="display: none; fill: none;"></path></g><g transform="translate(0,0)"><path class="background" d="M0,0h650v800h-650Z" style="fill: none;"></path><g><g class="mark-line role-mark layer_0_layer_1_marks" style="pointer-events: none;"><path d="M0,783.7161656015478L21.666666666666668,783.7161656015478L43.333333333333336,777.202631842167L65,777.202631842167L86.66666666666667,773.9458649624765L108.33333333333333,767.4323312030957L130,754.4052636843339L151.66666666666666,751.1484968046435L173.33333333333334,751.1484968046435L195,751.1484968046435L216.66666666666666,747.8917299249531L238.33333333333331,747.8917299249531" style="fill: none; stroke: #9d755d; stroke-width: 4; opacity: 0.5;"></path></g></g><path class="foreground" d="" style="display: none; fill: none;"></path></g><g transform="translate(0,0)"><path class="background" d="M0,0h650v800h-650Z" style="fill: none;"></path><g><g class="mark-line role-mark layer_0_layer_1_marks" style="pointer-events: none;"><path d="M0,764.4633018676735L21.666666666666668,761.232692946553L43.333333333333336,748.3102572620706L65,732.1572126564678L86.66666666666667,722.4653858931059L108.33333333333333,712.7735591297443L130,696.6205145241413L151.66666666666666,690.1592966819001L173.33333333333334,680.4674699185384L195,670.7756431551767L216.66666666666666,657.8532074706943" style="fill: none; stroke: #bab0ac; stroke-width: 4; opacity: 0.5;"></path></g></g><path class="foreground" d="" style="display: none; fill: none;"></path></g><g transform="translate(0,0)"><path class="background" d="M0,0h650v800h-650Z" style="fill: none;"></path><g><g class="mark-line role-mark layer_0_layer_1_marks" style="pointer-events: none;"><path d="M0,793.5214600993104L21.666666666666668,793.5214600993104L43.333333333333336,793.5214600993104L65,790.2821901489657L86.66666666666667,788.1226768487359L108.33333333333333,784.8834068983911L130,783.8036502482762L151.66666666666666,781.6441369480464L173.33333333333334,781.6441369480464L195,778.4048669977017L216.66666666666666,775.1655970473569L238.33333333333331,770.8465704468972L260,767.6073004965524L281.6666666666667,764.3680305462077L303.3333333333333,762.2085172459779" style="fill: none; stroke: #4c78a8; stroke-width: 4; opacity: 0.5;"></path></g></g><path class="foreground" d="" style="display: none; fill: none;"></path></g><g transform="translate(0,0)"><path class="background" d="M0,0h650v800h-650Z" style="fill: none;"></path><g><g class="mark-line role-mark layer_0_layer_1_marks" style="pointer-events: none;"><path d="M0,758.8750305738445L21.666666666666668,758.8750305738445" style="fill: none; stroke: #f58518; stroke-width: 4; opacity: 0.5;"></path></g></g><path class="foreground" d="" style="display: none; fill: none;"></path></g><g transform="translate(0,0)"><path class="background" d="M0,0h650v800h-650Z" style="fill: none;"></path><g><g class="mark-line role-mark layer_0_layer_1_marks" style="pointer-events: none;"><path d="M0,767.2013690804519L21.666666666666668,767.2013690804519" style="fill: none; stroke: #e45756; stroke-width: 4; opacity: 0.5;"></path></g></g><path class="foreground" d="" style="display: none; fill: none;"></path></g><g transform="translate(0,0)"><path class="background" d="M0,0h650v800h-650Z" style="fill: none;"></path><g><g class="mark-line role-mark layer_0_layer_1_marks" style="pointer-events: none;"><path d="M0,786.7153890842511L21.666666666666668,786.7153890842511L43.333333333333336,784.0584669011014L65,781.4015447179515L86.66666666666667,776.087700351652L108.33333333333333,770.7738559853524L130,762.8030894359031L151.66666666666666,762.8030894359031L173.33333333333334,744.2046341538545L195,744.2046341538545L216.66666666666666,730.9200232381056L238.33333333333331,714.978490139207" style="fill: none; stroke: #72b7b2; stroke-width: 4; opacity: 0.5;"></path></g></g><path class="foreground" d="" style="display: none; fill: none;"></path></g><g transform="translate(0,0)"><path class="background" d="M0,0h650v800h-650Z" style="fill: none;"></path><g><g class="mark-line role-mark layer_0_layer_1_marks" style="pointer-events: none;"><path d="M0,760.1804522355815L21.666666666666668,737.4264249416279L43.333333333333336,737.4264249416279L65,726.0494112946512L86.66666666666667,726.0494112946512L108.33333333333333,708.9838908241861L130,680.5413567067442L151.66666666666666,663.4758362362791L173.33333333333334,652.0988225893024L195,640.7218089423257" style="fill: none; stroke: #54a24b; stroke-width: 4; opacity: 0.5;"></path></g></g><path class="foreground" d="" style="display: none; fill: none;"></path></g><g transform="translate(0,0)"><path class="background" d="M0,0h650v800h-650Z" style="fill: none;"></path><g><g class="mark-line role-mark layer_0_layer_1_marks" style="pointer-events: none;"><path d="M0,788.0417636024977L21.666666666666668,788.0417636024977L43.333333333333336,785.6501163229972L65,785.6501163229972L86.66666666666667,780.8668217639962L108.33333333333333,778.4751744844957L130,776.0835272049952L151.66666666666666,766.5169380869934L173.33333333333334,749.7754071304901L195,728.2505816149859L216.66666666666666,718.6839924969839L238.33333333333331,689.9842251429783L260,666.0677523479736L281.6666666666667,644.5429268324693L303.3333333333333,627.801395875966L325,596.7099812424599L346.6666666666667,556.0519774909519L368.3333333333333,524.9605628574457L390,457.9944390314324L411.66666666666663,417.33643527992433L433.3333333333333,355.1536060129122" style="fill: none; stroke: #eeca3b; stroke-width: 4; opacity: 0.5;"></path></g></g><path class="foreground" d="" style="display: none; fill: none;"></path></g><g transform="translate(0,0)"><path class="background" d="M0,0h650v800h-650Z" style="fill: none;"></path><g><g class="mark-line role-mark layer_0_layer_1_marks" style="pointer-events: none;"><path d="M0,765.084696452243L21.666666666666668,758.1016357426914L43.333333333333336,751.1185750331401L65,751.1185750331401L86.66666666666667,751.1185750331401L108.33333333333333,751.1185750331401L130,744.1355143235887L151.66666666666666,744.1355143235887L173.33333333333334,744.1355143235887L195,744.1355143235887L216.66666666666666,737.1524536140372" style="fill: none; stroke: #b279a2; stroke-width: 4; opacity: 0.5;"></path></g></g><path class="foreground" d="" style="display: none; fill: none;"></path></g><g transform="translate(0,0)"><path class="background" d="M0,0h650v800h-650Z" style="fill: none;"></path><g><g class="mark-line role-mark layer_0_layer_1_marks" style="pointer-events: none;"><path d="M0,790.0047101553981L21.666666666666668,786.0065942175573L43.333333333333336,780.0094203107963L65,772.0131884351148L86.66666666666667,770.0141304661944L108.33333333333333,766.0160145283537L130,752.0226087459112L151.66666666666666,748.0244928080704L173.33333333333334,746.02543483915L195,738.0292029634685L216.66666666666666,734.0310870256277L238.33333333333331,722.0367392121055L260,718.0386232742648L281.6666666666667,714.0405073364241L303.3333333333333,712.0414493675037" style="fill: none; stroke: #ff9da6; stroke-width: 4; opacity: 0.5;"></path></g></g><path class="foreground" d="" style="display: none; fill: none;"></path></g><g transform="translate(0,0)"><path class="background" d="M0,0h650v800h-650Z" style="fill: none;"></path><g><g class="mark-line role-mark layer_0_layer_1_marks" style="pointer-events: none;"><path d="M0,792.0565705231197L21.666666666666668,789.408760697493L43.333333333333336,788.0848557846797L65,786.7609508718663L86.66666666666667,782.7892361334261L108.33333333333333,777.4936164821727L130,776.1697115693594L151.66666666666666,769.5501870052924L173.33333333333334,762.9306624412255L195,745.7198985746518L216.66666666666666,737.7764690977714L238.33333333333331,723.2135150568243L260,715.2700855799442L281.6666666666667,706.0027511902505L303.3333333333333,682.1724627596097L325,659.6660792417824L346.6666666666667,638.4836006367685L368.3333333333333,605.3859778164341L390,594.7947385139272L411.66666666666663,574.9361648217265L433.3333333333333,559.049305867966L454.99999999999994,503.4452995298044L476.66666666666663,449.1651981044561L498.33333333333337,401.50462124317465L520,348.54842473063974" style="fill: none; stroke: #9d755d; stroke-width: 4; opacity: 0.5;"></path></g></g><path class="foreground" d="" style="display: none; fill: none;"></path></g><g transform="translate(0,0)"><path class="background" d="M0,0h650v800h-650Z" style="fill: none;"></path><g><g class="mark-line role-mark layer_0_layer_1_marks" style="pointer-events: none;"><path d="M0,760.8928982358665L21.666666666666668,754.3750479418442L43.333333333333336,754.3750479418442L65,747.8571976478219L86.66666666666667,728.303646765755L108.33333333333333,728.303646765755L130,728.303646765755L151.66666666666666,715.2679461777105L173.33333333333334,689.1965450016215L195,682.6786947075993L216.66666666666666,676.160844413577L238.33333333333331,669.6429941195547L260,650.089443237488L281.6666666666667,643.5715929434657" style="fill: none; stroke: #bab0ac; stroke-width: 4; opacity: 0.5;"></path></g></g><path class="foreground" d="" style="display: none; fill: none;"></path></g><g transform="translate(0,0)"><path class="background" d="M0,0h650v800h-650Z" style="fill: none;"></path><g><g class="mark-line role-mark layer_0_layer_1_marks" style="pointer-events: none;"><path d="M0,789.95488147118L21.666666666666668,789.95488147118L43.333333333333336,787.9458577654159L65,785.9368340596519L86.66666666666667,785.9368340596519L108.33333333333333,783.9278103538879L130,783.9278103538879L151.66666666666666,779.9097629423599L173.33333333333334,771.8736681193038L195,769.8646444135397L216.66666666666666,767.8556207077758L238.33333333333331,767.8556207077758L260,765.8465970020118L281.6666666666667,763.8375732962477L303.3333333333333,761.8285495904837L325,757.8105021789557L346.6666666666667,751.7834310616637" style="fill: none; stroke: #4c78a8; stroke-width: 4; opacity: 0.5;"></path></g></g><path class="foreground" d="" style="display: none; fill: none;"></path></g><g transform="translate(0,0)"><path class="background" d="M0,0h650v800h-650Z" style="fill: none;"></path><g><g class="mark-line role-mark layer_0_layer_1_marks" style="pointer-events: none;"><path d="M0,784.0489747518399L21.666666666666668,784.0489747518399L43.333333333333336,768.0979495036798L65,768.0979495036798L86.66666666666667,764.9077444540478L108.33333333333333,752.1469242555198L130,745.7665141562558L151.66666666666666,742.5763091066237L173.33333333333334,742.5763091066237L195,733.0056939577278L216.66666666666666,723.4350788088317L238.33333333333331,717.0546687095676L260,710.6742586103036L281.6666666666667,707.4840535606717L303.3333333333333,704.2938485110395L325,701.1036434614076" style="fill: none; stroke: #f58518; stroke-width: 4; opacity: 0.5;"></path></g></g><path class="foreground" d="" style="display: none; fill: none;"></path></g><g transform="translate(0,0)"><path class="background" d="M0,0h650v800h-650Z" style="fill: none;"></path><g><g class="mark-line role-mark layer_0_layer_1_marks" style="pointer-events: none;"><path d="M0,797.5111480578416L21.666666666666668,795.520066504115L43.333333333333336,792.5334441735249L65,789.0490514545033L86.66666666666667,785.0668883470499L108.33333333333333,780.0891844627332L130,776.1070213552798L151.66666666666666,771.1293174709632L173.33333333333334,766.1516135866465L195,758.1872873717398L216.66666666666666,751.2185019336964L238.33333333333331,743.7519461072213L260,732.303227173293L281.6666666666667,718.3656562972062L303.3333333333333,706.4191669748461L325,690.9882849334645L346.6666666666667,670.5796990077661L368.3333333333333,663.1131431812909L390,648.6778019167725L411.66666666666663,615.3271858918506L433.3333333333333,586.9542737512455L454.99999999999994,553.1058873378921L476.66666666666663,531.2039902468986L498.33333333333337,521.2485824782652L520,507.3110116021784L541.6666666666667,497.35560383354505L563.3333333333334,454.04958003998985L585,412.73463780016124L606.6666666666666,375.40185866778603L628.3333333333334,338.0690795354108" style="fill: none; stroke: #e45756; stroke-width: 4; opacity: 0.5;"></path></g></g><path class="foreground" d="" style="display: none; fill: none;"></path></g></g><g class="mark-text role-mark layer_0_layer_2_marks" style="pointer-events: none;"><text text-anchor="start" transform="translate(26.666666666666668,675.4148102913318)" style="font-family: sans-serif; font-size: 15px; fill: #4c78a8;">AC</text><text text-anchor="start" transform="translate(48.333333333333336,757.0578709439835)" style="font-family: sans-serif; font-size: 15px; fill: #f58518;">AL</text><text text-anchor="start" transform="translate(308.3333333333333,5.33583137619555)" style="font-family: sans-serif; font-size: 15px; fill: #e45756;">AM</text><text text-anchor="start" transform="translate(135,534.735071114304)" style="font-family: sans-serif; font-size: 15px; fill: #72b7b2;">AP</text><text text-anchor="start" transform="translate(308.3333333333333,749.6746720879341)" style="font-family: sans-serif; font-size: 15px; fill: #54a24b;">BA</text><text text-anchor="start" transform="translate(416.66666666666663,417.0426103612844)" style="font-family: sans-serif; font-size: 15px; fill: #eeca3b;">CE</text><text text-anchor="start" transform="translate(330,623.068765837256)" style="font-family: sans-serif; font-size: 15px; fill: #b279a2;">DF</text><text text-anchor="start" transform="translate(308.3333333333333,645.7425379169622)" style="font-family: sans-serif; font-size: 15px; fill: #ff9da6;">ES</text><text text-anchor="start" transform="translate(243.33333333333331,752.8917299249531)" style="font-family: sans-serif; font-size: 15px; fill: #9d755d;">GO</text><text text-anchor="start" transform="translate(221.66666666666666,662.8532074706943)" style="font-family: sans-serif; font-size: 15px; fill: #bab0ac;">MA</text><text text-anchor="start" transform="translate(308.3333333333333,767.2085172459779)" style="font-family: sans-serif; font-size: 15px; fill: #4c78a8;">MG</text><text text-anchor="start" transform="translate(26.666666666666668,763.8750305738445)" style="font-family: sans-serif; font-size: 15px; fill: #f58518;">MS</text><text text-anchor="start" transform="translate(26.666666666666668,772.2013690804519)" style="font-family: sans-serif; font-size: 15px; fill: #e45756;">MT</text><text text-anchor="start" transform="translate(243.33333333333331,719.978490139207)" style="font-family: sans-serif; font-size: 15px; fill: #72b7b2;">PA</text><text text-anchor="start" transform="translate(200,645.7218089423257)" style="font-family: sans-serif; font-size: 15px; fill: #54a24b;">PB</text><text text-anchor="start" transform="translate(438.3333333333333,360.1536060129122)" style="font-family: sans-serif; font-size: 15px; fill: #eeca3b;">PE</text><text text-anchor="start" transform="translate(221.66666666666666,742.1524536140372)" style="font-family: sans-serif; font-size: 15px; fill: #b279a2;">PI</text><text text-anchor="start" transform="translate(308.3333333333333,717.0414493675037)" style="font-family: sans-serif; font-size: 15px; fill: #ff9da6;">PR</text><text text-anchor="start" transform="translate(525,353.54842473063974)" style="font-family: sans-serif; font-size: 15px; fill: #9d755d;">RJ</text><text text-anchor="start" transform="translate(286.6666666666667,648.5715929434657)" style="font-family: sans-serif; font-size: 15px; fill: #bab0ac;">RN</text><text text-anchor="start" transform="translate(351.6666666666667,756.7834310616637)" style="font-family: sans-serif; font-size: 15px; fill: #4c78a8;">RS</text><text text-anchor="start" transform="translate(330,706.1036434614076)" style="font-family: sans-serif; font-size: 15px; fill: #f58518;">SC</text><text text-anchor="start" transform="translate(633.3333333333334,343.0690795354108)" style="font-family: sans-serif; font-size: 15px; fill: #e45756;">SP</text></g><g class="mark-group role-title"><g transform="translate(325,-33.66416862380445)"><path class="background" d="M0,0h0v0h0Z" style="pointer-events: none; fill: none;"></path><g><g class="mark-text role-title-text" style="pointer-events: none;"><text text-anchor="middle" transform="translate(0,18)" style="font-family: sans-serif; font-size: 23px; font-weight: bold; fill: #000; opacity: 1;">Mortes confirmadas pelo COVID-19 a cada 100 mil habitantes</text></g></g><path class="foreground" d="" style="pointer-events: none; display: none; fill: none;"></path></g></g></g><path class="foreground" d="" style="display: none; fill: none;"></path></g></g></g></svg>