<svg class="marks" width="769" height="890" viewBox="0 0 769 890" version="1.1" xmlns="http://www.w3.org/2000/svg" xmlns:xlink="http://www.w3.org/1999/xlink"><rect width="769" height="890" style="fill: white;"></rect><g transform="translate(82,39)"><g class="mark-group role-frame root" role="graphics-object" aria-roledescription="group mark container"><g transform="translate(0,0)"><path class="background" aria-hidden="true" d="M0.5,0.5h650v800h-650Z" style="fill: none; stroke: #ddd;"></path><g><g class="mark-group role-axis" role="graphics-symbol" aria-roledescription="axis" aria-label="X-axis for a linear scale with values from 0 to 40"><g transform="translate(0.5,800.5)"><path class="background" aria-hidden="true" d="M0,0h0v0h0Z" style="pointer-events: none; fill: none;"></path><g><g class="mark-rule role-axis-grid" style="pointer-events: none;"><line transform="translate(0,-800)" x2="0" y2="800" style="fill: none; stroke: #ddd; stroke-width: 1; opacity: 1;"></line><line transform="translate(33,-800)" x2="0" y2="800" style="fill: none; stroke: #ddd; stroke-width: 1; opacity: 1;"></line><line transform="translate(65,-800)" x2="0" y2="800" style="fill: none; stroke: #ddd; stroke-width: 1; opacity: 1;"></line><line transform="translate(98,-800)" x2="0" y2="800" style="fill: none; stroke: #ddd; stroke-width: 1; opacity: 1;"></line><line transform="translate(130,-800)" x2="0" y2="800" style="fill: none; stroke: #ddd; stroke-width: 1; opacity: 1;"></line><line transform="translate(163,-800)" x2="0" y2="800" style="fill: none; stroke: #ddd; stroke-width: 1; opacity: 1;"></line><line transform="translate(195,-800)" x2="0" y2="800" style="fill: none; stroke: #ddd; stroke-width: 1; opacity: 1;"></line><line transform="translate(227,-800)" x2="0" y2="800" style="fill: none; stroke: #ddd; stroke-width: 1; opacity: 1;"></line><line transform="translate(260,-800)" x2="0" y2="800" style="fill: none; stroke: #ddd; stroke-width: 1; opacity: 1;"></line><line transform="translate(293,-800)" x2="0" y2="800" style="fill: none; stroke: #ddd; stroke-width: 1; opacity: 1;"></line><line transform="translate(325,-800)" x2="0" y2="800" style="fill: none; stroke: #ddd; stroke-width: 1; opacity: 1;"></line><line transform="translate(358,-800)" x2="0" y2="800" style="fill: none; stroke: #ddd; stroke-width: 1; opacity: 1;"></line><line transform="translate(390,-800)" x2="0" y2="800" style="fill: none; stroke: #ddd; stroke-width: 1; opacity: 1;"></line><line transform="translate(423,-800)" x2="0" y2="800" style="fill: none; stroke: #ddd; stroke-width: 1; opacity: 1;"></line><line transform="translate(455,-800)" x2="0" y2="800" style="fill: none; stroke: #ddd; stroke-width: 1; opacity: 1;"></line><line transform="translate(488,-800)" x2="0" y2="800" style="fill: none; stroke: #ddd; stroke-width: 1; opacity: 1;"></line><line transform="translate(520,-800)" x2="0" y2="800" style="fill: none; stroke: #ddd; stroke-width: 1; opacity: 1;"></line><line transform="translate(553,-800)" x2="0" y2="800" style="fill: none; stroke: #ddd; stroke-width: 1; opacity: 1;"></line><line transform="translate(585,-800)" x2="0" y2="800" style="fill: none; stroke: #ddd; stroke-width: 1; opacity: 1;"></line><line transform="translate(618,-800)" x2="0" y2="800" style="fill: none; stroke: #ddd; stroke-width: 1; opacity: 1;"></line><line transform="translate(650,-800)" x2="0" y2="800" style="fill: none; stroke: #ddd; stroke-width: 1; opacity: 1;"></line></g></g><path class="foreground" aria-hidden="true" d="" style="pointer-events: none; display: none; fill: none;"></path></g></g><g class="mark-group role-axis" role="graphics-symbol" aria-roledescription="axis" aria-label="Y-axis for a log scale with values from 1 to 10,000"><g transform="translate(0.5,0.5)"><path class="background" aria-hidden="true" d="M0,0h0v0h0Z" style="pointer-events: none; fill: none;"></path><g><g class="mark-rule role-axis-grid" style="pointer-events: none;"><line transform="translate(0,800)" x2="650" y2="0" style="fill: none; stroke: #ddd; stroke-width: 1; opacity: 1;"></line><line transform="translate(0,740)" x2="650" y2="0" style="fill: none; stroke: #ddd; stroke-width: 1; opacity: 1;"></line><line transform="translate(0,705)" x2="650" y2="0" style="fill: none; stroke: #ddd; stroke-width: 1; opacity: 1;"></line><line transform="translate(0,680)" x2="650" y2="0" style="fill: none; stroke: #ddd; stroke-width: 1; opacity: 1;"></line><line transform="translate(0,660)" x2="650" y2="0" style="fill: none; stroke: #ddd; stroke-width: 1; opacity: 1;"></line><line transform="translate(0,644)" x2="650" y2="0" style="fill: none; stroke: #ddd; stroke-width: 1; opacity: 1;"></line><line transform="translate(0,631)" x2="650" y2="0" style="fill: none; stroke: #ddd; stroke-width: 1; opacity: 1;"></line><line transform="translate(0,619)" x2="650" y2="0" style="fill: none; stroke: #ddd; stroke-width: 1; opacity: 1;"></line><line transform="translate(0,609)" x2="650" y2="0" style="fill: none; stroke: #ddd; stroke-width: 1; opacity: 1;"></line><line transform="translate(0,600)" x2="650" y2="0" style="fill: none; stroke: #ddd; stroke-width: 1; opacity: 1;"></line><line transform="translate(0,540)" x2="650" y2="0" style="fill: none; stroke: #ddd; stroke-width: 1; opacity: 1;"></line><line transform="translate(0,505)" x2="650" y2="0" style="fill: none; stroke: #ddd; stroke-width: 1; opacity: 1;"></line><line transform="translate(0,480)" x2="650" y2="0" style="fill: none; stroke: #ddd; stroke-width: 1; opacity: 1;"></line><line transform="translate(0,460)" x2="650" y2="0" style="fill: none; stroke: #ddd; stroke-width: 1; opacity: 1;"></line><line transform="translate(0,444)" x2="650" y2="0" style="fill: none; stroke: #ddd; stroke-width: 1; opacity: 1;"></line><line transform="translate(0,431)" x2="650" y2="0" style="fill: none; stroke: #ddd; stroke-width: 1; opacity: 1;"></line><line transform="translate(0,419)" x2="650" y2="0" style="fill: none; stroke: #ddd; stroke-width: 1; opacity: 1;"></line><line transform="translate(0,409)" x2="650" y2="0" style="fill: none; stroke: #ddd; stroke-width: 1; opacity: 1;"></line><line transform="translate(0,400)" x2="650" y2="0" style="fill: none; stroke: #ddd; stroke-width: 1; opacity: 1;"></line><line transform="translate(0,340)" x2="650" y2="0" style="fill: none; stroke: #ddd; stroke-width: 1; opacity: 1;"></line><line transform="translate(0,305)" x2="650" y2="0" style="fill: none; stroke: #ddd; stroke-width: 1; opacity: 1;"></line><line transform="translate(0,280)" x2="650" y2="0" style="fill: none; stroke: #ddd; stroke-width: 1; opacity: 1;"></line><line transform="translate(0,260)" x2="650" y2="0" style="fill: none; stroke: #ddd; stroke-width: 1; opacity: 1;"></line><line transform="translate(0,244)" x2="650" y2="0" style="fill: none; stroke: #ddd; stroke-width: 1; opacity: 1;"></line><line transform="translate(0,231)" x2="650" y2="0" style="fill: none; stroke: #ddd; stroke-width: 1; opacity: 1;"></line><line transform="translate(0,219)" x2="650" y2="0" style="fill: none; stroke: #ddd; stroke-width: 1; opacity: 1;"></line><line transform="translate(0,209)" x2="650" y2="0" style="fill: none; stroke: #ddd; stroke-width: 1; opacity: 1;"></line><line transform="translate(0,200)" x2="650" y2="0" style="fill: none; stroke: #ddd; stroke-width: 1; opacity: 1;"></line><line transform="translate(0,140)" x2="650" y2="0" style="fill: none; stroke: #ddd; stroke-width: 1; opacity: 1;"></line><line transform="translate(0,105)" x2="650" y2="0" style="fill: none; stroke: #ddd; stroke-width: 1; opacity: 1;"></line><line transform="translate(0,80)" x2="650" y2="0" style="fill: none; stroke: #ddd; stroke-width: 1; opacity: 1;"></line><line transform="translate(0,60)" x2="650" y2="0" style="fill: none; stroke: #ddd; stroke-width: 1; opacity: 1;"></line><line transform="translate(0,44)" x2="650" y2="0" style="fill: none; stroke: #ddd; stroke-width: 1; opacity: 1;"></line><line transform="translate(0,31)" x2="650" y2="0" style="fill: none; stroke: #ddd; stroke-width: 1; opacity: 1;"></line><line transform="translate(0,19)" x2="650" y2="0" style="fill: none; stroke: #ddd; stroke-width: 1; opacity: 1;"></line><line transform="translate(0,9)" x2="650" y2="0" style="fill: none; stroke: #ddd; stroke-width: 1; opacity: 1;"></line><line transform="translate(0,0)" x2="650" y2="0" style="fill: none; stroke: #ddd; stroke-width: 1; opacity: 1;"></line></g></g><path class="foreground" aria-hidden="true" d="" style="pointer-events: none; display: none; fill: none;"></path></g></g><g class="mark-group role-axis" role="graphics-symbol" aria-roledescription="axis" aria-label="X-axis titled 'Dias a partir da 5a morte no estado' for a linear scale with values from 0 to 40"><g transform="translate(0.5,800.5)"><path class="background" aria-hidden="true" d="M0,0h0v0h0Z" style="pointer-events: none; fill: none;"></path><g><g class="mark-rule role-axis-tick" style="pointer-events: none;"><line transform="translate(0,0)" x2="0" y2="5" style="fill: none; stroke: #888; stroke-width: 1; opacity: 1;"></line><line transform="translate(33,0)" x2="0" y2="5" style="fill: none; stroke: #888; stroke-width: 1; opacity: 1;"></line><line transform="translate(65,0)" x2="0" y2="5" style="fill: none; stroke: #888; stroke-width: 1; opacity: 1;"></line><line transform="translate(98,0)" x2="0" y2="5" style="fill: none; stroke: #888; stroke-width: 1; opacity: 1;"></line><line transform="translate(130,0)" x2="0" y2="5" style="fill: none; stroke: #888; stroke-width: 1; opacity: 1;"></line><line transform="translate(163,0)" x2="0" y2="5" style="fill: none; stroke: #888; stroke-width: 1; opacity: 1;"></line><line transform="translate(195,0)" x2="0" y2="5" style="fill: none; stroke: #888; stroke-width: 1; opacity: 1;"></line><line transform="translate(227,0)" x2="0" y2="5" style="fill: none; stroke: #888; stroke-width: 1; opacity: 1;"></line><line transform="translate(260,0)" x2="0" y2="5" style="fill: none; stroke: #888; stroke-width: 1; opacity: 1;"></line><line transform="translate(293,0)" x2="0" y2="5" style="fill: none; stroke: #888; stroke-width: 1; opacity: 1;"></line><line transform="translate(325,0)" x2="0" y2="5" style="fill: none; stroke: #888; stroke-width: 1; opacity: 1;"></line><line transform="translate(358,0)" x2="0" y2="5" style="fill: none; stroke: #888; stroke-width: 1; opacity: 1;"></line><line transform="translate(390,0)" x2="0" y2="5" style="fill: none; stroke: #888; stroke-width: 1; opacity: 1;"></line><line transform="translate(423,0)" x2="0" y2="5" style="fill: none; stroke: #888; stroke-width: 1; opacity: 1;"></line><line transform="translate(455,0)" x2="0" y2="5" style="fill: none; stroke: #888; stroke-width: 1; opacity: 1;"></line><line transform="translate(488,0)" x2="0" y2="5" style="fill: none; stroke: #888; stroke-width: 1; opacity: 1;"></line><line transform="translate(520,0)" x2="0" y2="5" style="fill: none; stroke: #888; stroke-width: 1; opacity: 1;"></line><line transform="translate(553,0)" x2="0" y2="5" style="fill: none; stroke: #888; stroke-width: 1; opacity: 1;"></line><line transform="translate(585,0)" x2="0" y2="5" style="fill: none; stroke: #888; stroke-width: 1; opacity: 1;"></line><line transform="translate(618,0)" x2="0" y2="5" style="fill: none; stroke: #888; stroke-width: 1; opacity: 1;"></line><line transform="translate(650,0)" x2="0" y2="5" style="fill: none; stroke: #888; stroke-width: 1; opacity: 1;"></line></g><g class="mark-text role-axis-label" style="pointer-events: none;"><text text-anchor="start" transform="translate(0,19)" style="font-family: sans-serif; font-size: 15px; fill: #000; opacity: 1;">0</text><text text-anchor="middle" transform="translate(32.5,19)" style="font-family: sans-serif; font-size: 15px; fill: #000; opacity: 1;">2</text><text text-anchor="middle" transform="translate(65,19)" style="font-family: sans-serif; font-size: 15px; fill: #000; opacity: 1;">4</text><text text-anchor="middle" transform="translate(97.5,19)" style="font-family: sans-serif; font-size: 15px; fill: #000; opacity: 1;">6</text><text text-anchor="middle" transform="translate(130,19)" style="font-family: sans-serif; font-size: 15px; fill: #000; opacity: 1;">8</text><text text-anchor="middle" transform="translate(162.5,19)" style="font-family: sans-serif; font-size: 15px; fill: #000; opacity: 1;">10</text><text text-anchor="middle" transform="translate(195,19)" style="font-family: sans-serif; font-size: 15px; fill: #000; opacity: 1;">12</text><text text-anchor="middle" transform="translate(227.49999999999997,19)" style="font-family: sans-serif; font-size: 15px; fill: #000; opacity: 1;">14</text><text text-anchor="middle" transform="translate(260,19)" style="font-family: sans-serif; font-size: 15px; fill: #000; opacity: 1;">16</text><text text-anchor="middle" transform="translate(292.5,19)" style="font-family: sans-serif; font-size: 15px; fill: #000; opacity: 1;">18</text><text text-anchor="middle" transform="translate(325,19)" style="font-family: sans-serif; font-size: 15px; fill: #000; opacity: 1;">20</text><text text-anchor="middle" transform="translate(357.50000000000006,19)" style="font-family: sans-serif; font-size: 15px; fill: #000; opacity: 1;">22</text><text text-anchor="middle" transform="translate(390,19)" style="font-family: sans-serif; font-size: 15px; fill: #000; opacity: 1;">24</text><text text-anchor="middle" transform="translate(422.5,19)" style="font-family: sans-serif; font-size: 15px; fill: #000; opacity: 1;">26</text><text text-anchor="middle" transform="translate(454.99999999999994,19)" style="font-family: sans-serif; font-size: 15px; fill: #000; opacity: 1;">28</text><text text-anchor="middle" transform="translate(487.5,19)" style="font-family: sans-serif; font-size: 15px; fill: #000; opacity: 1;">30</text><text text-anchor="middle" transform="translate(520,19)" style="font-family: sans-serif; font-size: 15px; fill: #000; opacity: 1;">32</text><text text-anchor="middle" transform="translate(552.5,19)" style="font-family: sans-serif; font-size: 15px; fill: #000; opacity: 1;">34</text><text text-anchor="middle" transform="translate(585,19)" style="font-family: sans-serif; font-size: 15px; fill: #000; opacity: 1;">36</text><text text-anchor="middle" transform="translate(617.5,19)" style="font-family: sans-serif; font-size: 15px; fill: #000; opacity: 1;">38</text><text text-anchor="end" transform="translate(650,19)" style="font-family: sans-serif; font-size: 15px; fill: #000; opacity: 1;">40</text></g><g class="mark-rule role-axis-domain" style="pointer-events: none;"><line transform="translate(0,0)" x2="650" y2="0" style="fill: none; stroke: #888; stroke-width: 1; opacity: 1;"></line></g><g class="mark-text role-axis-title" style="pointer-events: none;"><text text-anchor="middle" transform="translate(325,42)" style="font-family: sans-serif; font-size: 20px; font-weight: bold; fill: #000; opacity: 1;">Dias a partir da 5a morte no estado</text></g></g><path class="foreground" aria-hidden="true" d="" style="pointer-events: none; display: none; fill: none;"></path></g></g><g class="mark-group role-axis" role="graphics-symbol" aria-roledescription="axis" aria-label="Y-axis titled 'Mortes confirmadas (escala logarítmica)' for a log scale with values from 1 to 10,000"><g transform="translate(0.5,0.5)"><path class="background" aria-hidden="true" d="M0,0h0v0h0Z" style="pointer-events: none; fill: none;"></path><g><g class="mark-rule role-axis-tick" style="pointer-events: none;"><line transform="translate(0,800)" x2="-5" y2="0" style="fill: none; stroke: #888; stroke-width: 1; opacity: 1;"></line><line transform="translate(0,740)" x2="-5" y2="0" style="fill: none; stroke: #888; stroke-width: 1; opacity: 1;"></line><line transform="translate(0,705)" x2="-5" y2="0" style="fill: none; stroke: #888; stroke-width: 1; opacity: 1;"></line><line transform="translate(0,680)" x2="-5" y2="0" style="fill: none; stroke: #888; stroke-width: 1; opacity: 1;"></line><line transform="translate(0,660)" x2="-5" y2="0" style="fill: none; stroke: #888; stroke-width: 1; opacity: 1;"></line><line transform="translate(0,644)" x2="-5" y2="0" style="fill: none; stroke: #888; stroke-width: 1; opacity: 1;"></line><line transform="translate(0,631)" x2="-5" y2="0" style="fill: none; stroke: #888; stroke-width: 1; opacity: 1;"></line><line transform="translate(0,619)" x2="-5" y2="0" style="fill: none; stroke: #888; stroke-width: 1; opacity: 1;"></line><line transform="translate(0,609)" x2="-5" y2="0" style="fill: none; stroke: #888; stroke-width: 1; opacity: 1;"></line><line transform="translate(0,600)" x2="-5" y2="0" style="fill: none; stroke: #888; stroke-width: 1; opacity: 1;"></line><line transform="translate(0,540)" x2="-5" y2="0" style="fill: none; stroke: #888; stroke-width: 1; opacity: 1;"></line><line transform="translate(0,505)" x2="-5" y2="0" style="fill: none; stroke: #888; stroke-width: 1; opacity: 1;"></line><line transform="translate(0,480)" x2="-5" y2="0" style="fill: none; stroke: #888; stroke-width: 1; opacity: 1;"></line><line transform="translate(0,460)" x2="-5" y2="0" style="fill: none; stroke: #888; stroke-width: 1; opacity: 1;"></line><line transform="translate(0,444)" x2="-5" y2="0" style="fill: none; stroke: #888; stroke-width: 1; opacity: 1;"></line><line transform="translate(0,431)" x2="-5" y2="0" style="fill: none; stroke: #888; stroke-width: 1; opacity: 1;"></line><line transform="translate(0,419)" x2="-5" y2="0" style="fill: none; stroke: #888; stroke-width: 1; opacity: 1;"></line><line transform="translate(0,409)" x2="-5" y2="0" style="fill: none; stroke: #888; stroke-width: 1; opacity: 1;"></line><line transform="translate(0,400)" x2="-5" y2="0" style="fill: none; stroke: #888; stroke-width: 1; opacity: 1;"></line><line transform="translate(0,340)" x2="-5" y2="0" style="fill: none; stroke: #888; stroke-width: 1; opacity: 1;"></line><line transform="translate(0,305)" x2="-5" y2="0" style="fill: none; stroke: #888; stroke-width: 1; opacity: 1;"></line><line transform="translate(0,280)" x2="-5" y2="0" style="fill: none; stroke: #888; stroke-width: 1; opacity: 1;"></line><line transform="translate(0,260)" x2="-5" y2="0" style="fill: none; stroke: #888; stroke-width: 1; opacity: 1;"></line><line transform="translate(0,244)" x2="-5" y2="0" style="fill: none; stroke: #888; stroke-width: 1; opacity: 1;"></line><line transform="translate(0,231)" x2="-5" y2="0" style="fill: none; stroke: #888; stroke-width: 1; opacity: 1;"></line><line transform="translate(0,219)" x2="-5" y2="0" style="fill: none; stroke: #888; stroke-width: 1; opacity: 1;"></line><line transform="translate(0,209)" x2="-5" y2="0" style="fill: none; stroke: #888; stroke-width: 1; opacity: 1;"></line><line transform="translate(0,200)" x2="-5" y2="0" style="fill: none; stroke: #888; stroke-width: 1; opacity: 1;"></line><line transform="translate(0,140)" x2="-5" y2="0" style="fill: none; stroke: #888; stroke-width: 1; opacity: 1;"></line><line transform="translate(0,105)" x2="-5" y2="0" style="fill: none; stroke: #888; stroke-width: 1; opacity: 1;"></line><line transform="translate(0,80)" x2="-5" y2="0" style="fill: none; stroke: #888; stroke-width: 1; opacity: 1;"></line><line transform="translate(0,60)" x2="-5" y2="0" style="fill: none; stroke: #888; stroke-width: 1; opacity: 1;"></line><line transform="translate(0,44)" x2="-5" y2="0" style="fill: none; stroke: #888; stroke-width: 1; opacity: 1;"></line><line transform="translate(0,31)" x2="-5" y2="0" style="fill: none; stroke: #888; stroke-width: 1; opacity: 1;"></line><line transform="translate(0,19)" x2="-5" y2="0" style="fill: none; stroke: #888; stroke-width: 1; opacity: 1;"></line><line transform="translate(0,9)" x2="-5" y2="0" style="fill: none; stroke: #888; stroke-width: 1; opacity: 1;"></line><line transform="translate(0,0)" x2="-5" y2="0" style="fill: none; stroke: #888; stroke-width: 1; opacity: 1;"></line></g><g class="mark-text role-axis-label" style="pointer-events: none;"><text text-anchor="end" transform="translate(-7,805)" style="font-family: sans-serif; font-size: 15px; fill: #000; opacity: 1;">1</text><text text-anchor="end" transform="translate(-7,744.7940008672037)" style="font-family: sans-serif; font-size: 15px; fill: #000; opacity: 1;">2</text><text text-anchor="end" transform="translate(-7,709.5757490560676)" style="font-family: sans-serif; font-size: 15px; fill: #000; opacity: 1;"></text><text text-anchor="end" transform="translate(-7,684.5880017344075)" style="font-family: sans-serif; font-size: 15px; fill: #000; opacity: 1;"></text><text text-anchor="end" transform="translate(-7,665.2059991327963)" style="font-family: sans-serif; font-size: 15px; fill: #000; opacity: 1;"></text><text text-anchor="end" transform="translate(-7,649.3697499232713)" style="font-family: sans-serif; font-size: 15px; fill: #000; opacity: 1;"></text><text text-anchor="end" transform="translate(-7,635.9803919971487)" style="font-family: sans-serif; font-size: 15px; fill: #000; opacity: 1;"></text><text text-anchor="end" transform="translate(-7,624.3820026016114)" style="font-family: sans-serif; font-size: 15px; fill: #000; opacity: 1;"></text><text text-anchor="end" transform="translate(-7,614.1514981121351)" style="font-family: sans-serif; font-size: 15px; fill: #000; opacity: 1;"></text><text text-anchor="end" transform="translate(-7,605)" style="font-family: sans-serif; font-size: 15px; fill: #000; opacity: 1;">10</text><text text-anchor="end" transform="translate(-7,544.7940008672037)" style="font-family: sans-serif; font-size: 15px; fill: #000; opacity: 1;">20</text><text text-anchor="end" transform="translate(-7,509.5757490560675)" style="font-family: sans-serif; font-size: 15px; fill: #000; opacity: 1;"></text><text text-anchor="end" transform="translate(-7,484.5880017344075)" style="font-family: sans-serif; font-size: 15px; fill: #000; opacity: 1;"></text><text text-anchor="end" transform="translate(-7,465.20599913279625)" style="font-family: sans-serif; font-size: 15px; fill: #000; opacity: 1;"></text><text text-anchor="end" transform="translate(-7,449.36974992327134)" style="font-family: sans-serif; font-size: 15px; fill: #000; opacity: 1;"></text><text text-anchor="end" transform="translate(-7,435.9803919971486)" style="font-family: sans-serif; font-size: 15px; fill: #000; opacity: 1;"></text><text text-anchor="end" transform="translate(-7,424.38200260161136)" style="font-family: sans-serif; font-size: 15px; fill: #000; opacity: 1;"></text><text text-anchor="end" transform="translate(-7,414.1514981121351)" style="font-family: sans-serif; font-size: 15px; fill: #000; opacity: 1;"></text><text text-anchor="end" transform="translate(-7,405)" style="font-family: sans-serif; font-size: 15px; fill: #000; opacity: 1;">100</text><text text-anchor="end" transform="translate(-7,344.79400086720386)" style="font-family: sans-serif; font-size: 15px; fill: #000; opacity: 1;">200</text><text text-anchor="end" transform="translate(-7,309.5757490560676)" style="font-family: sans-serif; font-size: 15px; fill: #000; opacity: 1;"></text><text text-anchor="end" transform="translate(-7,284.5880017344076)" style="font-family: sans-serif; font-size: 15px; fill: #000; opacity: 1;"></text><text text-anchor="end" transform="translate(-7,265.20599913279636)" style="font-family: sans-serif; font-size: 15px; fill: #000; opacity: 1;"></text><text text-anchor="end" transform="translate(-7,249.3697499232713)" style="font-family: sans-serif; font-size: 15px; fill: #000; opacity: 1;"></text><text text-anchor="end" transform="translate(-7,235.9803919971487)" style="font-family: sans-serif; font-size: 15px; fill: #000; opacity: 1;"></text><text text-anchor="end" transform="translate(-7,224.38200260161133)" style="font-family: sans-serif; font-size: 15px; fill: #000; opacity: 1;"></text><text text-anchor="end" transform="translate(-7,214.15149811213504)" style="font-family: sans-serif; font-size: 15px; fill: #000; opacity: 1;"></text><text text-anchor="end" transform="translate(-7,205.00000000000009)" style="font-family: sans-serif; font-size: 15px; fill: #000; opacity: 1;">1,000</text><text text-anchor="end" transform="translate(-7,144.79400086720383)" style="font-family: sans-serif; font-size: 15px; fill: #000; opacity: 1;">2,000</text><text text-anchor="end" transform="translate(-7,109.57574905606765)" style="font-family: sans-serif; font-size: 15px; fill: #000; opacity: 1;"></text><text text-anchor="end" transform="translate(-7,84.58800173440758)" style="font-family: sans-serif; font-size: 15px; fill: #000; opacity: 1;"></text><text text-anchor="end" transform="translate(-7,65.20599913279625)" style="font-family: sans-serif; font-size: 15px; fill: #000; opacity: 1;"></text><text text-anchor="end" transform="translate(-7,49.36974992327141)" style="font-family: sans-serif; font-size: 15px; fill: #000; opacity: 1;"></text><text text-anchor="end" transform="translate(-7,35.9803919971487)" style="font-family: sans-serif; font-size: 15px; fill: #000; opacity: 1;"></text><text text-anchor="end" transform="translate(-7,24.382002601611337)" style="font-family: sans-serif; font-size: 15px; fill: #000; opacity: 1;"></text><text text-anchor="end" transform="translate(-7,14.151498112135048)" style="font-family: sans-serif; font-size: 15px; fill: #000; opacity: 1;"></text><text text-anchor="end" transform="translate(-7,5)" style="font-family: sans-serif; font-size: 15px; fill: #000; opacity: 1;">10,000</text></g><g class="mark-rule role-axis-domain" style="pointer-events: none;"><line transform="translate(0,800)" x2="0" y2="-800" style="fill: none; stroke: #888; stroke-width: 1; opacity: 1;"></line></g><g class="mark-text role-axis-title" style="pointer-events: none;"><text text-anchor="middle" transform="translate(-56.87890625,400) rotate(-90) translate(0,-4)" style="font-family: sans-serif; font-size: 20px; font-weight: bold; fill: #000; opacity: 1;">Mortes confirmadas (escala logarítmica)</text></g></g><path class="foreground" aria-hidden="true" d="" style="pointer-events: none; display: none; fill: none;"></path></g></g><g class="mark-group role-scope layer_0_pathgroup" role="graphics-object" aria-roledescription="group mark container"><g transform="translate(0,0)"><path class="background" aria-hidden="true" d="M0,0h650v800h-650Z" style="fill: none;"></path><g><g class="mark-line role-mark layer_0_marks" role="graphics-symbol" aria-roledescription="line mark container"><path d="M0,660.2059991327963L16.25,660.2059991327963L32.5,644.3697499232713L48.75,644.3697499232713L65,619.3820026016114L81.25,619.3820026016114L97.5,619.3820026016114L113.74999999999999,600L130,591.721462968355L146.25,591.721462968355L162.5,591.721462968355L178.75000000000003,570.7743928643524L195,559.1760034688151" style="fill: none; stroke: #4c78a8; stroke-width: 4; opacity: 0.7;"></path></g></g><path class="foreground" aria-hidden="true" d="" style="display: none; fill: none;"></path></g><g transform="translate(0,0)"><path class="background" aria-hidden="true" d="M0,0h650v800h-650Z" style="fill: none;"></path><g><g class="mark-line role-mark layer_0_marks" role="graphics-symbol" aria-roledescription="line mark container"><path d="M0,660.2059991327963L16.25,660.2059991327963L32.5,630.9803919971487L48.75,600L65,564.7817481888637L81.25,548.9454989793389L97.5,544.2492798094343L113.74999999999999,539.7940008672037L130,531.5154638355588L146.25,513.7272471682027L162.5,507.5204004202088L178.75000000000003,498.97000433601886L195,493.7042165915489L211.25,488.7394998465426" style="fill: none; stroke: #f58518; stroke-width: 4; opacity: 0.7;"></path></g></g><path class="foreground" aria-hidden="true" d="" style="display: none; fill: none;"></path></g><g transform="translate(0,0)"><path class="background" aria-hidden="true" d="M0,0h650v800h-650Z" style="fill: none;"></path><g><g class="mark-line role-mark layer_0_marks" role="graphics-symbol" aria-roledescription="line mark container"><path d="M0,630.9803919971487L16.25,584.1637507904751L32.5,564.7817481888637L48.75,544.2492798094343L65,527.6544327964814L81.25,504.5757490560675L97.5,479.5880017344075L113.74999999999999,460.20599913279625L130,455.1448260798422L146.25,441.5216621003493L162.5,429.748330256185L178.75000000000003,409.1514981121351L195,394.938826947046L211.25,381.31566296755295L227.49999999999997,367.72639955300514L243.75,358.6348247936301L260,347.98572240298506L276.25,346.56565431939725L292.5,342.8885381984453L308.75,337.22655592616934L325,326.1568285179715L341.25,318.69196391320907L357.50000000000006,308.4236206532015L373.74999999999994,303.4252832782493L390,298.97000433601886L406.25,290.93857670683525" style="fill: none; stroke: #e45756; stroke-width: 4; opacity: 0.7;"></path></g></g><path class="foreground" aria-hidden="true" d="" style="display: none; fill: none;"></path></g><g transform="translate(0,0)"><path class="background" aria-hidden="true" d="M0,0h650v800h-650Z" style="fill: none;"></path><g><g class="mark-line role-mark layer_0_marks" role="graphics-symbol" aria-roledescription="line mark container"><path d="M0,660.2059991327963L16.25,660.2059991327963L32.5,644.3697499232713L48.75,630.9803919971487L65,630.9803919971487L81.25,600L97.5,600L113.74999999999999,600L130,591.721462968355L146.25,577.2113295386326L162.5,577.2113295386326L178.75000000000003,570.7743928643524L195,559.1760034688151L211.25,548.9454989793389L227.49999999999997,539.7940008672037L243.75,527.6544327964814L260,517.0053304058364L276.25,510.5683937315562" style="fill: none; stroke: #72b7b2; stroke-width: 4; opacity: 0.7;"></path></g></g><path class="foreground" aria-hidden="true" d="" style="display: none; fill: none;"></path></g><g transform="translate(0,0)"><path class="background" aria-hidden="true" d="M0,0h650v800h-650Z" style="fill: none;"></path><g><g class="mark-line role-mark layer_0_marks" role="graphics-symbol" aria-roledescription="line mark container"><path d="M0,644.3697499232713L16.25,630.9803919971487L32.5,609.1514981121351L48.75,600L65,570.7743928643524L81.25,548.9454989793389L97.5,544.2492798094343L113.74999999999999,544.2492798094343L130,535.5561410532162L146.25,535.5561410532162L162.5,531.5154638355588L178.75000000000003,517.0053304058364L195,510.5683937315562L211.25,493.7042165915489L227.49999999999997,488.7394998465426L243.75,479.5880017344075L260,469.3574972449313L276.25,465.5804284128566L292.5,463.75175252488265L308.75,455.1448260798422L325,441.5216621003493L341.25,434.7850394598348L357.50000000000006,428.5335007137464L373.74999999999994,426.15365605380487L390,416.18438152478524L406.25,406.30341028921305" style="fill: none; stroke: #54a24b; stroke-width: 4; opacity: 0.7;"></path></g></g><path class="foreground" aria-hidden="true" d="" style="display: none; fill: none;"></path></g><g transform="translate(0,0)"><path class="background" aria-hidden="true" d="M0,0h650v800h-650Z" style="fill: none;"></path><g><g class="mark-line role-mark layer_0_marks" role="graphics-symbol" aria-roledescription="line mark container"><path d="M0,660.2059991327963L16.25,660.2059991327963L32.5,630.9803919971487L48.75,609.1514981121351L65,535.5561410532162L81.25,531.5154638355588L97.5,527.6544327964814L113.74999999999999,491.18639112994487L130,491.18639112994487L146.25,479.5880017344075L162.5,448.82502886550174L178.75000000000003,448.82502886550174L195,434.7850394598348L211.25,426.15365605380487L227.49999999999997,423.83728154384175L243.75,399.1357252434715L260,390.9354042426686L276.25,381.31566296755295L292.5,373.9332463009988L308.75,361.9336603659417L325,348.9454989793388L341.25,344.7076391653512L357.50000000000006,337.22655592616934L373.74999999999994,331.121545262978L390,324.32041981037247L406.25,313.40614182511894L422.5,306.62647592917807L438.75000000000006,297.35647998641224L454.99999999999994,284.9624310144678L471.25,280.24189864737696L487.5,275.97278900524856" style="fill: none; stroke: #eeca3b; stroke-width: 4; opacity: 0.7;"></path></g></g><path class="foreground" aria-hidden="true" d="" style="display: none; fill: none;"></path></g><g transform="translate(0,0)"><path class="background" aria-hidden="true" d="M0,0h650v800h-650Z" style="fill: none;"></path><g><g class="mark-line role-mark layer_0_marks" role="graphics-symbol" aria-roledescription="line mark container"><path d="M0,660.2059991327963L16.25,644.3697499232713L32.5,630.9803919971487L48.75,630.9803919971487L65,600L81.25,584.1637507904751L97.5,584.1637507904751L113.74999999999999,577.2113295386326L130,570.7743928643524L146.25,570.7743928643524L162.5,570.7743928643524L178.75000000000003,564.7817481888637L195,553.9102157243452L211.25,553.9102157243452L227.49999999999997,539.7940008672037L243.75,523.9577516576788L260,523.9577516576788L276.25,523.9577516576788L292.5,523.9577516576788L308.75,523.9577516576788L325,520.4119982655925L341.25,517.0053304058364L357.50000000000006,517.0053304058364L373.74999999999994,513.7272471682027L390,513.7272471682027L406.25,510.5683937315562L422.5,510.5683937315562" style="fill: none; stroke: #b279a2; stroke-width: 4; opacity: 0.7;"></path></g></g><path class="foreground" aria-hidden="true" d="" style="display: none; fill: none;"></path></g><g transform="translate(0,0)"><path class="background" aria-hidden="true" d="M0,0h650v800h-650Z" style="fill: none;"></path><g><g class="mark-line role-mark layer_0_marks" role="graphics-symbol" aria-roledescription="line mark container"><path d="M0,660.2059991327963L16.25,644.3697499232713L32.5,644.3697499232713L48.75,644.3697499232713L65,644.3697499232713L81.25,644.3697499232713L97.5,630.9803919971487L113.74999999999999,619.3820026016114L130,609.1514981121351L146.25,570.7743928643524L162.5,553.9102157243452L178.75000000000003,548.9454989793389L195,535.5561410532162L211.25,510.5683937315562L227.49999999999997,510.5683937315562L243.75,504.5757490560675L260,493.7042165915489L276.25,493.7042165915489L292.5,493.7042165915489L308.75,486.359655186601L325,473.30630888408274L341.25,465.5804284128566L357.50000000000006,456.7993312730402L373.74999999999994,448.82502886550174L390,440.13189010928375L406.25,422.7018549655036" style="fill: none; stroke: #ff9da6; stroke-width: 4; opacity: 0.7;"></path></g></g><path class="foreground" aria-hidden="true" d="" style="display: none; fill: none;"></path></g><g transform="translate(0,0)"><path class="background" aria-hidden="true" d="M0,0h650v800h-650Z" style="fill: none;"></path><g><g class="mark-line role-mark layer_0_marks" role="graphics-symbol" aria-roledescription="line mark container"><path d="M0,660.2059991327963L16.25,660.2059991327963L32.5,630.9803919971487L48.75,630.9803919971487L65,619.3820026016114L81.25,600L97.5,570.7743928643524L113.74999999999999,564.7817481888637L130,564.7817481888637L146.25,564.7817481888637L162.5,559.1760034688151L178.75000000000003,559.1760034688151L195,548.9454989793389L211.25,548.9454989793389L227.49999999999997,544.2492798094343L243.75,544.2492798094343L260,535.5561410532162L276.25,527.6544327964814L292.5,523.9577516576788L308.75,520.4119982655925L325,520.4119982655925L341.25,517.0053304058364L357.50000000000006,513.7272471682027" style="fill: none; stroke: #9d755d; stroke-width: 4; opacity: 0.7;"></path></g></g><path class="foreground" aria-hidden="true" d="" style="display: none; fill: none;"></path></g><g transform="translate(0,0)"><path class="background" aria-hidden="true" d="M0,0h650v800h-650Z" style="fill: none;"></path><g><g class="mark-line role-mark layer_0_marks" role="graphics-symbol" aria-roledescription="line mark container"><path d="M0,591.721462968355L16.25,584.1637507904751L32.5,559.1760034688151L48.75,535.5561410532162L65,523.9577516576788L81.25,513.7272471682027L97.5,498.97000433601886L113.74999999999999,493.7042165915489L130,486.359655186601L146.25,479.5880017344075L162.5,471.3094647027626L178.75000000000003,463.75175252488265L195,453.52124803540636L211.25,444.36974992327134L227.49999999999997,436.09121289162636L243.75,423.83728154384175L260,411.10346556996626L276.25,400L292.5,390.1563954659638L308.75,380.61799739838875L325,367.72639955300514L341.25,355.978382391989" style="fill: none; stroke: #bab0ac; stroke-width: 4; opacity: 0.7;"></path></g></g><path class="foreground" aria-hidden="true" d="" style="display: none; fill: none;"></path></g><g transform="translate(0,0)"><path class="background" aria-hidden="true" d="M0,0h650v800h-650Z" style="fill: none;"></path><g><g class="mark-line role-mark layer_0_marks" role="graphics-symbol" aria-roledescription="line mark container"><path d="M0,644.3697499232713L16.25,644.3697499232713L32.5,644.3697499232713L48.75,609.1514981121351L65,591.721462968355L81.25,570.7743928643524L97.5,564.7817481888637L113.74999999999999,553.9102157243452L130,553.9102157243452L146.25,539.7940008672037L162.5,527.6544327964814L178.75000000000003,513.7272471682027L195,504.5757490560675L211.25,496.2972120244226L227.49999999999997,491.18639112994487L243.75,481.7870785947002L260,481.7870785947002L276.25,477.4432286560529L292.5,471.3094647027626L308.75,465.5804284128566L325,458.48596478041276L341.25,453.52124803540636L357.50000000000006,447.31440128741264L373.74999999999994,442.93403299784654L390,441.5216621003493L406.25,429.748330256185" style="fill: none; stroke: #4c78a8; stroke-width: 4; opacity: 0.7;"></path></g></g><path class="foreground" aria-hidden="true" d="" style="display: none; fill: none;"></path></g><g transform="translate(0,0)"><path class="background" aria-hidden="true" d="M0,0h650v800h-650Z" style="fill: none;"></path><g><g class="mark-line role-mark layer_0_marks" role="graphics-symbol" aria-roledescription="line mark container"><path d="M0,660.2059991327963L16.25,660.2059991327963L32.5,660.2059991327963L48.75,660.2059991327963L65,660.2059991327963L81.25,644.3697499232713L97.5,644.3697499232713L113.74999999999999,630.9803919971487L130,630.9803919971487L146.25,630.9803919971487L162.5,630.9803919971487L178.75000000000003,609.1514981121351L195,609.1514981121351" style="fill: none; stroke: #f58518; stroke-width: 4; opacity: 0.7;"></path></g></g><path class="foreground" aria-hidden="true" d="" style="display: none; fill: none;"></path></g><g transform="translate(0,0)"><path class="background" aria-hidden="true" d="M0,0h650v800h-650Z" style="fill: none;"></path><g><g class="mark-line role-mark layer_0_marks" role="graphics-symbol" aria-roledescription="line mark container"><path d="M0,660.2059991327963L16.25,660.2059991327963L32.5,660.2059991327963L48.75,660.2059991327963L65,644.3697499232713L81.25,644.3697499232713L97.5,644.3697499232713L113.74999999999999,630.9803919971487L130,619.3820026016114L146.25,609.1514981121351L162.5,609.1514981121351L178.75000000000003,600L195,591.721462968355" style="fill: none; stroke: #e45756; stroke-width: 4; opacity: 0.7;"></path></g></g><path class="foreground" aria-hidden="true" d="" style="display: none; fill: none;"></path></g><g transform="translate(0,0)"><path class="background" aria-hidden="true" d="M0,0h650v800h-650Z" style="fill: none;"></path><g><g class="mark-line role-mark layer_0_marks" role="graphics-symbol" aria-roledescription="line mark container"><path d="M0,660.2059991327963L16.25,660.2059991327963L32.5,644.3697499232713L48.75,630.9803919971487L65,609.1514981121351L81.25,591.721462968355L97.5,570.7743928643524L113.74999999999999,570.7743928643524L130,535.5561410532162L146.25,535.5561410532162L162.5,517.0053304058364L178.75000000000003,498.97000433601886L195,496.2972120244226L211.25,493.7042165915489L227.49999999999997,491.18639112994487L243.75,484.043280676638L260,473.30630888408274L276.25,455.1448260798422L292.5,413.1003097512865L308.75,404.4552789422305L325,388.61902973270554L341.25,382.7280338650504L357.50000000000006,375.8852137588301" style="fill: none; stroke: #72b7b2; stroke-width: 4; opacity: 0.7;"></path></g></g><path class="foreground" aria-hidden="true" d="" style="display: none; fill: none;"></path></g><g transform="translate(0,0)"><path class="background" aria-hidden="true" d="M0,0h650v800h-650Z" style="fill: none;"></path><g><g class="mark-line role-mark layer_0_marks" role="graphics-symbol" aria-roledescription="line mark container"><path d="M0,630.9803919971487L16.25,591.721462968355L32.5,591.721462968355L48.75,577.2113295386326L65,577.2113295386326L81.25,559.1760034688151L97.5,535.5561410532162L113.74999999999999,523.9577516576788L130,517.0053304058364L146.25,510.5683937315562L162.5,507.5204004202088L178.75000000000003,498.97000433601886L195,496.2972120244226L211.25,481.7870785947002L227.49999999999997,479.5880017344075L243.75,471.3094647027626L260,467.44843366368525L276.25,461.96078399429734L292.5,460.20599913279625L308.75,455.1448260798422L325,448.82502886550174" style="fill: none; stroke: #54a24b; stroke-width: 4; opacity: 0.7;"></path></g></g><path class="foreground" aria-hidden="true" d="" style="display: none; fill: none;"></path></g><g transform="translate(0,0)"><path class="background" aria-hidden="true" d="M0,0h650v800h-650Z" style="fill: none;"></path><g><g class="mark-line role-mark layer_0_marks" role="graphics-symbol" aria-roledescription="line mark container"><path d="M0,660.2059991327963L16.25,660.2059991327963L32.5,644.3697499232713L48.75,644.3697499232713L65,619.3820026016114L81.25,609.1514981121351L97.5,600L113.74999999999999,570.7743928643524L130,535.5561410532162L146.25,504.5757490560675L162.5,493.7042165915489L178.75000000000003,467.44843366368525L195,450.36239459875986L211.25,437.41732867142895L227.49999999999997,428.5335007137464L243.75,414.1162148571414L260,398.27996564761656L276.25,387.86043192927775L292.5,368.9327925069877L308.75,359.1760034688151L325,346.0974111564167L341.25,337.64922778884915L357.50000000000006,333.10924976981386L373.74999999999994,326.1568285179715L390,317.00533040583645L406.25,309.9501783361278L422.5,301.16908119631154L438.75000000000006,290.6914673043739L454.99999999999994,283.8150048648762L471.25,276.3903806575815L487.5,269.3574972449313L503.75,258.8272575432162" style="fill: none; stroke: #eeca3b; stroke-width: 4; opacity: 0.7;"></path></g></g><path class="foreground" aria-hidden="true" d="" style="display: none; fill: none;"></path></g><g transform="translate(0,0)"><path class="background" aria-hidden="true" d="M0,0h650v800h-650Z" style="fill: none;"></path><g><g class="mark-line role-mark layer_0_marks" role="graphics-symbol" aria-roledescription="line mark container"><path d="M0,660.2059991327963L16.25,644.3697499232713L32.5,630.9803919971487L48.75,630.9803919971487L65,630.9803919971487L81.25,630.9803919971487L97.5,619.3820026016114L113.74999999999999,619.3820026016114L130,619.3820026016114L146.25,619.3820026016114L162.5,609.1514981121351L178.75000000000003,600L195,584.1637507904751L211.25,570.7743928643524L227.49999999999997,564.7817481888637L243.75,564.7817481888637L260,559.1760034688151L276.25,553.9102157243452L292.5,548.9454989793389L308.75,539.7940008672037L325,535.5561410532162L341.25,523.9577516576788" style="fill: none; stroke: #b279a2; stroke-width: 4; opacity: 0.7;"></path></g></g><path class="foreground" aria-hidden="true" d="" style="display: none; fill: none;"></path></g><g transform="translate(0,0)"><path class="background" aria-hidden="true" d="M0,0h650v800h-650Z" style="fill: none;"></path><g><g class="mark-line role-mark layer_0_marks" role="graphics-symbol" aria-roledescription="line mark container"><path d="M0,660.2059991327963L16.25,630.9803919971487L32.5,600L48.75,570.7743928643524L65,564.7817481888637L81.25,553.9102157243452L97.5,523.9577516576788L113.74999999999999,517.0053304058364L130,513.7272471682027L146.25,501.72766123314545L162.5,496.2972120244226L178.75000000000003,481.7870785947002L195,477.4432286560529L211.25,473.30630888408274L227.49999999999997,471.3094647027626L243.75,461.96078399429734L260,456.7993312730402L276.25,455.1448260798422L292.5,451.92746210115115L308.75,444.36974992327134L325,441.5216621003493L341.25,434.7850394598348L357.50000000000006,429.748330256185L373.74999999999994,424.9877473216601L390,422.7018549655036L406.25,420.47458174191183" style="fill: none; stroke: #ff9da6; stroke-width: 4; opacity: 0.7;"></path></g></g><path class="foreground" aria-hidden="true" d="" style="display: none; fill: none;"></path></g><g transform="translate(0,0)"><path class="background" aria-hidden="true" d="M0,0h650v800h-650Z" style="fill: none;"></path><g><g class="mark-line role-mark layer_0_marks" role="graphics-symbol" aria-roledescription="line mark container"><path d="M0,644.3697499232713L16.25,619.3820026016114L32.5,609.1514981121351L48.75,600L65,577.2113295386326L81.25,553.9102157243452L97.5,548.9454989793389L113.74999999999999,527.6544327964814L130,510.5683937315562L146.25,477.4432286560529L162.5,465.5804284128566L178.75000000000003,447.31440128741264L195,438.76400520322267L211.25,429.748330256185L227.49999999999997,410.12199867101754L243.75,394.938826947046L260,382.7280338650504L276.25,366.5365330503649L292.5,361.9336603659417L308.75,353.9102157243453L325,347.98572240298506L341.25,329.95039633316753L357.50000000000006,315.3508252126385L373.74999999999994,304.28670088123135L390,293.44912420150047L406.25,282.4578069962177L422.5,279.15478938310605L438.75000000000006,274.9375098076652L454.99999999999994,267.2598149220704L471.25,261.96078399429734L487.5,255.14482607984226L503.75,248.8250288655017L520,242.22497684491674L536.25,238.0880570729465L552.5,233.88226626297114L568.75,226.38872763539172" style="fill: none; stroke: #9d755d; stroke-width: 4; opacity: 0.7;"></path></g></g><path class="foreground" aria-hidden="true" d="" style="display: none; fill: none;"></path></g><g transform="translate(0,0)"><path class="background" aria-hidden="true" d="M0,0h650v800h-650Z" style="fill: none;"></path><g><g class="mark-line role-mark layer_0_marks" role="graphics-symbol" aria-roledescription="line mark container"><path d="M0,644.3697499232713L16.25,630.9803919971487L32.5,630.9803919971487L48.75,619.3820026016114L65,591.721462968355L81.25,591.721462968355L97.5,591.721462968355L113.74999999999999,577.2113295386326L130,553.9102157243452L146.25,548.9454989793389L162.5,544.2492798094343L178.75000000000003,539.7940008672037L195,527.6544327964814L211.25,523.9577516576788L227.49999999999997,517.0053304058364L243.75,513.7272471682027L260,510.5683937315562L276.25,507.5204004202088L292.5,493.7042165915489L308.75,484.043280676638L325,479.5880017344075L341.25,471.3094647027626L357.50000000000006,469.3574972449313L373.74999999999994,463.75175252488265L390,453.52124803540636" style="fill: none; stroke: #bab0ac; stroke-width: 4; opacity: 0.7;"></path></g></g><path class="foreground" aria-hidden="true" d="" style="display: none; fill: none;"></path></g><g transform="translate(0,0)"><path class="background" aria-hidden="true" d="M0,0h650v800h-650Z" style="fill: none;"></path><g><g class="mark-line role-mark layer_0_marks" role="graphics-symbol" aria-roledescription="line mark container"><path d="M0,660.2059991327963L16.25,660.2059991327963L32.5,660.2059991327963L48.75,644.3697499232713L65,630.9803919971487L81.25,600L97.5,600L113.74999999999999,591.721462968355" style="fill: none; stroke: #4c78a8; stroke-width: 4; opacity: 0.7;"></path></g></g><path class="foreground" aria-hidden="true" d="" style="display: none; fill: none;"></path></g><g transform="translate(0,0)"><path class="background" aria-hidden="true" d="M0,0h650v800h-650Z" style="fill: none;"></path><g><g class="mark-line role-mark layer_0_marks" role="graphics-symbol" aria-roledescription="line mark container"><path d="M0,660.2059991327963L16.25,660.2059991327963L32.5,644.3697499232713L48.75,630.9803919971487L65,630.9803919971487L81.25,619.3820026016114L97.5,619.3820026016114L113.74999999999999,600L130,570.7743928643524L146.25,564.7817481888637L162.5,559.1760034688151L178.75000000000003,559.1760034688151L195,553.9102157243452L211.25,548.9454989793389L227.49999999999997,544.2492798094343L243.75,535.5561410532162L260,523.9577516576788L276.25,523.9577516576788L292.5,517.0053304058364L308.75,513.7272471682027L325,513.7272471682027L341.25,510.5683937315562L357.50000000000006,507.5204004202088L373.74999999999994,493.7042165915489L390,491.18639112994487L406.25,484.043280676638L422.5,469.3574972449313L438.75000000000006,461.96078399429734" style="fill: none; stroke: #f58518; stroke-width: 4; opacity: 0.7;"></path></g></g><path class="foreground" aria-hidden="true" d="" style="display: none; fill: none;"></path></g><g transform="translate(0,0)"><path class="background" aria-hidden="true" d="M0,0h650v800h-650Z" style="fill: none;"></path><g><g class="mark-line role-mark layer_0_marks" role="graphics-symbol" aria-roledescription="line mark container"><path d="M0,660.2059991327963L16.25,660.2059991327963L32.5,600L48.75,600L65,591.721462968355L81.25,564.7817481888637L97.5,553.9102157243452L113.74999999999999,548.9454989793389L130,548.9454989793389L146.25,535.5561410532162L162.5,523.9577516576788L178.75000000000003,517.0053304058364L195,510.5683937315562L211.25,507.5204004202088L227.49999999999997,504.5757490560675L243.75,501.72766123314545L260,498.97000433601886L276.25,491.18639112994487L292.5,491.18639112994487L308.75,486.359655186601L325,481.7870785947002L341.25,475.35014192041996L357.50000000000006,475.35014192041996L373.74999999999994,475.35014192041996L390,473.30630888408274L406.25,471.3094647027626L422.5,471.3094647027626" style="fill: none; stroke: #e45756; stroke-width: 4; opacity: 0.7;"></path></g></g><path class="foreground" aria-hidden="true" d="" style="display: none; fill: none;"></path></g><g transform="translate(0,0)"><path class="background" aria-hidden="true" d="M0,0h650v800h-650Z" style="fill: none;"></path><g><g class="mark-line role-mark layer_0_marks" role="graphics-symbol" aria-roledescription="line mark container"><path d="M0,660.2059991327963L16.25,660.2059991327963L32.5,660.2059991327963L48.75,630.9803919971487L65,630.9803919971487L81.25,619.3820026016114L97.5,619.3820026016114L113.74999999999999,609.1514981121351L130,609.1514981121351L146.25,591.721462968355L162.5,591.721462968355" style="fill: none; stroke: #72b7b2; stroke-width: 4; opacity: 0.7;"></path></g></g><path class="foreground" aria-hidden="true" d="" style="display: none; fill: none;"></path></g><g transform="translate(0,0)"><path class="background" aria-hidden="true" d="M0,0h650v800h-650Z" style="fill: none;"></path><g><g class="mark-line role-mark layer_0_marks" role="graphics-symbol" aria-roledescription="line mark container"><path d="M0,660.2059991327963L16.25,609.1514981121351L32.5,564.7817481888637L48.75,531.5154638355588L65,504.5757490560675L81.25,479.5880017344075L97.5,463.75175252488265L113.74999999999999,447.31440128741264L130,433.4982174587528L146.25,415.14414278762376L162.5,401.754784861501L178.75000000000003,389.3843113033161L195,373.2922183259565L211.25,357.0312303904604L227.49999999999997,345.1684301472641L243.75,331.91117703197637L260,317.00533040583645L276.25,312.1334612339475L292.5,303.4252832782493L308.75,286.12521807699085L325,273.71124619736565L341.25,260.90366470196057L357.50000000000006,253.52124803540627L373.74999999999994,250.36239459875995L390,246.12453478477238L406.25,243.21928414545306L422.5,231.60303908197727L438.75000000000006,221.8040806020623L454.99999999999994,213.81019376649544L471.25,206.49040475622763L487.5,200.78526910294494L503.75,198.70679155015375L520,196.84424872219185L536.25,192.27596761005944L552.5,189.07738908862254L568.75,174.25554313231473L585,164.08964176696247L601.25,155.61288003439896L617.5,153.91021572434528L633.75,147.74742624150133L650,137.69160831976103" style="fill: none; stroke: #54a24b; stroke-width: 4; opacity: 0.7;"></path></g></g><path class="foreground" aria-hidden="true" d="" style="display: none; fill: none;"></path></g></g><g class="mark-group role-scope layer_1_pathgroup" role="graphics-object" aria-roledescription="group mark container"><g transform="translate(0,0)"><path class="background" aria-hidden="true" d="M0,0h650v800h-650Z" style="fill: none;"></path><g><g class="mark-line role-mark layer_1_marks" role="graphics-symbol" aria-roledescription="line mark container" style="pointer-events: none;"><path d="M0,660.2059991327963L16.25,660.2059991327963L32.5,644.3697499232713L48.75,644.3697499232713L65,619.3820026016114L81.25,619.3820026016114L97.5,619.3820026016114L113.74999999999999,600L130,591.721462968355L146.25,591.721462968355L162.5,591.721462968355L178.75000000000003,570.7743928643524L195,559.1760034688151" style="fill: none; stroke: #4c78a8; stroke-width: 4; opacity: 0.5;"></path></g></g><path class="foreground" aria-hidden="true" d="" style="display: none; fill: none;"></path></g><g transform="translate(0,0)"><path class="background" aria-hidden="true" d="M0,0h650v800h-650Z" style="fill: none;"></path><g><g class="mark-line role-mark layer_1_marks" role="graphics-symbol" aria-roledescription="line mark container" style="pointer-events: none;"><path d="M0,660.2059991327963L16.25,660.2059991327963L32.5,630.9803919971487L48.75,600L65,564.7817481888637L81.25,548.9454989793389L97.5,544.2492798094343L113.74999999999999,539.7940008672037L130,531.5154638355588L146.25,513.7272471682027L162.5,507.5204004202088L178.75000000000003,498.97000433601886L195,493.7042165915489L211.25,488.7394998465426" style="fill: none; stroke: #f58518; stroke-width: 4; opacity: 0.5;"></path></g></g><path class="foreground" aria-hidden="true" d="" style="display: none; fill: none;"></path></g><g transform="translate(0,0)"><path class="background" aria-hidden="true" d="M0,0h650v800h-650Z" style="fill: none;"></path><g><g class="mark-line role-mark layer_1_marks" role="graphics-symbol" aria-roledescription="line mark container" style="pointer-events: none;"><path d="M0,630.9803919971487L16.25,584.1637507904751L32.5,564.7817481888637L48.75,544.2492798094343L65,527.6544327964814L81.25,504.5757490560675L97.5,479.5880017344075L113.74999999999999,460.20599913279625L130,455.1448260798422L146.25,441.5216621003493L162.5,429.748330256185L178.75000000000003,409.1514981121351L195,394.938826947046L211.25,381.31566296755295L227.49999999999997,367.72639955300514L243.75,358.6348247936301L260,347.98572240298506L276.25,346.56565431939725L292.5,342.8885381984453L308.75,337.22655592616934L325,326.1568285179715L341.25,318.69196391320907L357.50000000000006,308.4236206532015L373.74999999999994,303.4252832782493L390,298.97000433601886L406.25,290.93857670683525" style="fill: none; stroke: #e45756; stroke-width: 4; opacity: 0.5;"></path></g></g><path class="foreground" aria-hidden="true" d="" style="display: none; fill: none;"></path></g><g transform="translate(0,0)"><path class="background" aria-hidden="true" d="M0,0h650v800h-650Z" style="fill: none;"></path><g><g class="mark-line role-mark layer_1_marks" role="graphics-symbol" aria-roledescription="line mark container" style="pointer-events: none;"><path d="M0,660.2059991327963L16.25,660.2059991327963L32.5,644.3697499232713L48.75,630.9803919971487L65,630.9803919971487L81.25,600L97.5,600L113.74999999999999,600L130,591.721462968355L146.25,577.2113295386326L162.5,577.2113295386326L178.75000000000003,570.7743928643524L195,559.1760034688151L211.25,548.9454989793389L227.49999999999997,539.7940008672037L243.75,527.6544327964814L260,517.0053304058364L276.25,510.5683937315562" style="fill: none; stroke: #72b7b2; stroke-width: 4; opacity: 0.5;"></path></g></g><path class="foreground" aria-hidden="true" d="" style="display: none; fill: none;"></path></g><g transform="translate(0,0)"><path class="background" aria-hidden="true" d="M0,0h650v800h-650Z" style="fill: none;"></path><g><g class="mark-line role-mark layer_1_marks" role="graphics-symbol" aria-roledescription="line mark container" style="pointer-events: none;"><path d="M0,644.3697499232713L16.25,630.9803919971487L32.5,609.1514981121351L48.75,600L65,570.7743928643524L81.25,548.9454989793389L97.5,544.2492798094343L113.74999999999999,544.2492798094343L130,535.5561410532162L146.25,535.5561410532162L162.5,531.5154638355588L178.75000000000003,517.0053304058364L195,510.5683937315562L211.25,493.7042165915489L227.49999999999997,488.7394998465426L243.75,479.5880017344075L260,469.3574972449313L276.25,465.5804284128566L292.5,463.75175252488265L308.75,455.1448260798422L325,441.5216621003493L341.25,434.7850394598348L357.50000000000006,428.5335007137464L373.74999999999994,426.15365605380487L390,416.18438152478524L406.25,406.30341028921305" style="fill: none; stroke: #54a24b; stroke-width: 4; opacity: 0.5;"></path></g></g><path class="foreground" aria-hidden="true" d="" style="display: none; fill: none;"></path></g><g transform="translate(0,0)"><path class="background" aria-hidden="true" d="M0,0h650v800h-650Z" style="fill: none;"></path><g><g class="mark-line role-mark layer_1_marks" role="graphics-symbol" aria-roledescription="line mark container" style="pointer-events: none;"><path d="M0,660.2059991327963L16.25,660.2059991327963L32.5,630.9803919971487L48.75,609.1514981121351L65,535.5561410532162L81.25,531.5154638355588L97.5,527.6544327964814L113.74999999999999,491.18639112994487L130,491.18639112994487L146.25,479.5880017344075L162.5,448.82502886550174L178.75000000000003,448.82502886550174L195,434.7850394598348L211.25,426.15365605380487L227.49999999999997,423.83728154384175L243.75,399.1357252434715L260,390.9354042426686L276.25,381.31566296755295L292.5,373.9332463009988L308.75,361.9336603659417L325,348.9454989793388L341.25,344.7076391653512L357.50000000000006,337.22655592616934L373.74999999999994,331.121545262978L390,324.32041981037247L406.25,313.40614182511894L422.5,306.62647592917807L438.75000000000006,297.35647998641224L454.99999999999994,284.9624310144678L471.25,280.24189864737696L487.5,275.97278900524856" style="fill: none; stroke: #eeca3b; stroke-width: 4; opacity: 0.5;"></path></g></g><path class="foreground" aria-hidden="true" d="" style="display: none; fill: none;"></path></g><g transform="translate(0,0)"><path class="background" aria-hidden="true" d="M0,0h650v800h-650Z" style="fill: none;"></path><g><g class="mark-line role-mark layer_1_marks" role="graphics-symbol" aria-roledescription="line mark container" style="pointer-events: none;"><path d="M0,660.2059991327963L16.25,644.3697499232713L32.5,630.9803919971487L48.75,630.9803919971487L65,600L81.25,584.1637507904751L97.5,584.1637507904751L113.74999999999999,577.2113295386326L130,570.7743928643524L146.25,570.7743928643524L162.5,570.7743928643524L178.75000000000003,564.7817481888637L195,553.9102157243452L211.25,553.9102157243452L227.49999999999997,539.7940008672037L243.75,523.9577516576788L260,523.9577516576788L276.25,523.9577516576788L292.5,523.9577516576788L308.75,523.9577516576788L325,520.4119982655925L341.25,517.0053304058364L357.50000000000006,517.0053304058364L373.74999999999994,513.7272471682027L390,513.7272471682027L406.25,510.5683937315562L422.5,510.5683937315562" style="fill: none; stroke: #b279a2; stroke-width: 4; opacity: 0.5;"></path></g></g><path class="foreground" aria-hidden="true" d="" style="display: none; fill: none;"></path></g><g transform="translate(0,0)"><path class="background" aria-hidden="true" d="M0,0h650v800h-650Z" style="fill: none;"></path><g><g class="mark-line role-mark layer_1_marks" role="graphics-symbol" aria-roledescription="line mark container" style="pointer-events: none;"><path d="M0,660.2059991327963L16.25,644.3697499232713L32.5,644.3697499232713L48.75,644.3697499232713L65,644.3697499232713L81.25,644.3697499232713L97.5,630.9803919971487L113.74999999999999,619.3820026016114L130,609.1514981121351L146.25,570.7743928643524L162.5,553.9102157243452L178.75000000000003,548.9454989793389L195,535.5561410532162L211.25,510.5683937315562L227.49999999999997,510.5683937315562L243.75,504.5757490560675L260,493.7042165915489L276.25,493.7042165915489L292.5,493.7042165915489L308.75,486.359655186601L325,473.30630888408274L341.25,465.5804284128566L357.50000000000006,456.7993312730402L373.74999999999994,448.82502886550174L390,440.13189010928375L406.25,422.7018549655036" style="fill: none; stroke: #ff9da6; stroke-width: 4; opacity: 0.5;"></path></g></g><path class="foreground" aria-hidden="true" d="" style="display: none; fill: none;"></path></g><g transform="translate(0,0)"><path class="background" aria-hidden="true" d="M0,0h650v800h-650Z" style="fill: none;"></path><g><g class="mark-line role-mark layer_1_marks" role="graphics-symbol" aria-roledescription="line mark container" style="pointer-events: none;"><path d="M0,660.2059991327963L16.25,660.2059991327963L32.5,630.9803919971487L48.75,630.9803919971487L65,619.3820026016114L81.25,600L97.5,570.7743928643524L113.74999999999999,564.7817481888637L130,564.7817481888637L146.25,564.7817481888637L162.5,559.1760034688151L178.75000000000003,559.1760034688151L195,548.9454989793389L211.25,548.9454989793389L227.49999999999997,544.2492798094343L243.75,544.2492798094343L260,535.5561410532162L276.25,527.6544327964814L292.5,523.9577516576788L308.75,520.4119982655925L325,520.4119982655925L341.25,517.0053304058364L357.50000000000006,513.7272471682027" style="fill: none; stroke: #9d755d; stroke-width: 4; opacity: 0.5;"></path></g></g><path class="foreground" aria-hidden="true" d="" style="display: none; fill: none;"></path></g><g transform="translate(0,0)"><path class="background" aria-hidden="true" d="M0,0h650v800h-650Z" style="fill: none;"></path><g><g class="mark-line role-mark layer_1_marks" role="graphics-symbol" aria-roledescription="line mark container" style="pointer-events: none;"><path d="M0,591.721462968355L16.25,584.1637507904751L32.5,559.1760034688151L48.75,535.5561410532162L65,523.9577516576788L81.25,513.7272471682027L97.5,498.97000433601886L113.74999999999999,493.7042165915489L130,486.359655186601L146.25,479.5880017344075L162.5,471.3094647027626L178.75000000000003,463.75175252488265L195,453.52124803540636L211.25,444.36974992327134L227.49999999999997,436.09121289162636L243.75,423.83728154384175L260,411.10346556996626L276.25,400L292.5,390.1563954659638L308.75,380.61799739838875L325,367.72639955300514L341.25,355.978382391989" style="fill: none; stroke: #bab0ac; stroke-width: 4; opacity: 0.5;"></path></g></g><path class="foreground" aria-hidden="true" d="" style="display: none; fill: none;"></path></g><g transform="translate(0,0)"><path class="background" aria-hidden="true" d="M0,0h650v800h-650Z" style="fill: none;"></path><g><g class="mark-line role-mark layer_1_marks" role="graphics-symbol" aria-roledescription="line mark container" style="pointer-events: none;"><path d="M0,644.3697499232713L16.25,644.3697499232713L32.5,644.3697499232713L48.75,609.1514981121351L65,591.721462968355L81.25,570.7743928643524L97.5,564.7817481888637L113.74999999999999,553.9102157243452L130,553.9102157243452L146.25,539.7940008672037L162.5,527.6544327964814L178.75000000000003,513.7272471682027L195,504.5757490560675L211.25,496.2972120244226L227.49999999999997,491.18639112994487L243.75,481.7870785947002L260,481.7870785947002L276.25,477.4432286560529L292.5,471.3094647027626L308.75,465.5804284128566L325,458.48596478041276L341.25,453.52124803540636L357.50000000000006,447.31440128741264L373.74999999999994,442.93403299784654L390,441.5216621003493L406.25,429.748330256185" style="fill: none; stroke: #4c78a8; stroke-width: 4; opacity: 0.5;"></path></g></g><path class="foreground" aria-hidden="true" d="" style="display: none; fill: none;"></path></g><g transform="translate(0,0)"><path class="background" aria-hidden="true" d="M0,0h650v800h-650Z" style="fill: none;"></path><g><g class="mark-line role-mark layer_1_marks" role="graphics-symbol" aria-roledescription="line mark container" style="pointer-events: none;"><path d="M0,660.2059991327963L16.25,660.2059991327963L32.5,660.2059991327963L48.75,660.2059991327963L65,660.2059991327963L81.25,644.3697499232713L97.5,644.3697499232713L113.74999999999999,630.9803919971487L130,630.9803919971487L146.25,630.9803919971487L162.5,630.9803919971487L178.75000000000003,609.1514981121351L195,609.1514981121351" style="fill: none; stroke: #f58518; stroke-width: 4; opacity: 0.5;"></path></g></g><path class="foreground" aria-hidden="true" d="" style="display: none; fill: none;"></path></g><g transform="translate(0,0)"><path class="background" aria-hidden="true" d="M0,0h650v800h-650Z" style="fill: none;"></path><g><g class="mark-line role-mark layer_1_marks" role="graphics-symbol" aria-roledescription="line mark container" style="pointer-events: none;"><path d="M0,660.2059991327963L16.25,660.2059991327963L32.5,660.2059991327963L48.75,660.2059991327963L65,644.3697499232713L81.25,644.3697499232713L97.5,644.3697499232713L113.74999999999999,630.9803919971487L130,619.3820026016114L146.25,609.1514981121351L162.5,609.1514981121351L178.75000000000003,600L195,591.721462968355" style="fill: none; stroke: #e45756; stroke-width: 4; opacity: 0.5;"></path></g></g><path class="foreground" aria-hidden="true" d="" style="display: none; fill: none;"></path></g><g transform="translate(0,0)"><path class="background" aria-hidden="true" d="M0,0h650v800h-650Z" style="fill: none;"></path><g><g class="mark-line role-mark layer_1_marks" role="graphics-symbol" aria-roledescription="line mark container" style="pointer-events: none;"><path d="M0,660.2059991327963L16.25,660.2059991327963L32.5,644.3697499232713L48.75,630.9803919971487L65,609.1514981121351L81.25,591.721462968355L97.5,570.7743928643524L113.74999999999999,570.7743928643524L130,535.5561410532162L146.25,535.5561410532162L162.5,517.0053304058364L178.75000000000003,498.97000433601886L195,496.2972120244226L211.25,493.7042165915489L227.49999999999997,491.18639112994487L243.75,484.043280676638L260,473.30630888408274L276.25,455.1448260798422L292.5,413.1003097512865L308.75,404.4552789422305L325,388.61902973270554L341.25,382.7280338650504L357.50000000000006,375.8852137588301" style="fill: none; stroke: #72b7b2; stroke-width: 4; opacity: 0.5;"></path></g></g><path class="foreground" aria-hidden="true" d="" style="display: none; fill: none;"></path></g><g transform="translate(0,0)"><path class="background" aria-hidden="true" d="M0,0h650v800h-650Z" style="fill: none;"></path><g><g class="mark-line role-mark layer_1_marks" role="graphics-symbol" aria-roledescription="line mark container" style="pointer-events: none;"><path d="M0,630.9803919971487L16.25,591.721462968355L32.5,591.721462968355L48.75,577.2113295386326L65,577.2113295386326L81.25,559.1760034688151L97.5,535.5561410532162L113.74999999999999,523.9577516576788L130,517.0053304058364L146.25,510.5683937315562L162.5,507.5204004202088L178.75000000000003,498.97000433601886L195,496.2972120244226L211.25,481.7870785947002L227.49999999999997,479.5880017344075L243.75,471.3094647027626L260,467.44843366368525L276.25,461.96078399429734L292.5,460.20599913279625L308.75,455.1448260798422L325,448.82502886550174" style="fill: none; stroke: #54a24b; stroke-width: 4; opacity: 0.5;"></path></g></g><path class="foreground" aria-hidden="true" d="" style="display: none; fill: none;"></path></g><g transform="translate(0,0)"><path class="background" aria-hidden="true" d="M0,0h650v800h-650Z" style="fill: none;"></path><g><g class="mark-line role-mark layer_1_marks" role="graphics-symbol" aria-roledescription="line mark container" style="pointer-events: none;"><path d="M0,660.2059991327963L16.25,660.2059991327963L32.5,644.3697499232713L48.75,644.3697499232713L65,619.3820026016114L81.25,609.1514981121351L97.5,600L113.74999999999999,570.7743928643524L130,535.5561410532162L146.25,504.5757490560675L162.5,493.7042165915489L178.75000000000003,467.44843366368525L195,450.36239459875986L211.25,437.41732867142895L227.49999999999997,428.5335007137464L243.75,414.1162148571414L260,398.27996564761656L276.25,387.86043192927775L292.5,368.9327925069877L308.75,359.1760034688151L325,346.0974111564167L341.25,337.64922778884915L357.50000000000006,333.10924976981386L373.74999999999994,326.1568285179715L390,317.00533040583645L406.25,309.9501783361278L422.5,301.16908119631154L438.75000000000006,290.6914673043739L454.99999999999994,283.8150048648762L471.25,276.3903806575815L487.5,269.3574972449313L503.75,258.8272575432162" style="fill: none; stroke: #eeca3b; stroke-width: 4; opacity: 0.5;"></path></g></g><path class="foreground" aria-hidden="true" d="" style="display: none; fill: none;"></path></g><g transform="translate(0,0)"><path class="background" aria-hidden="true" d="M0,0h650v800h-650Z" style="fill: none;"></path><g><g class="mark-line role-mark layer_1_marks" role="graphics-symbol" aria-roledescription="line mark container" style="pointer-events: none;"><path d="M0,660.2059991327963L16.25,644.3697499232713L32.5,630.9803919971487L48.75,630.9803919971487L65,630.9803919971487L81.25,630.9803919971487L97.5,619.3820026016114L113.74999999999999,619.3820026016114L130,619.3820026016114L146.25,619.3820026016114L162.5,609.1514981121351L178.75000000000003,600L195,584.1637507904751L211.25,570.7743928643524L227.49999999999997,564.7817481888637L243.75,564.7817481888637L260,559.1760034688151L276.25,553.9102157243452L292.5,548.9454989793389L308.75,539.7940008672037L325,535.5561410532162L341.25,523.9577516576788" style="fill: none; stroke: #b279a2; stroke-width: 4; opacity: 0.5;"></path></g></g><path class="foreground" aria-hidden="true" d="" style="display: none; fill: none;"></path></g><g transform="translate(0,0)"><path class="background" aria-hidden="true" d="M0,0h650v800h-650Z" style="fill: none;"></path><g><g class="mark-line role-mark layer_1_marks" role="graphics-symbol" aria-roledescription="line mark container" style="pointer-events: none;"><path d="M0,660.2059991327963L16.25,630.9803919971487L32.5,600L48.75,570.7743928643524L65,564.7817481888637L81.25,553.9102157243452L97.5,523.9577516576788L113.74999999999999,517.0053304058364L130,513.7272471682027L146.25,501.72766123314545L162.5,496.2972120244226L178.75000000000003,481.7870785947002L195,477.4432286560529L211.25,473.30630888408274L227.49999999999997,471.3094647027626L243.75,461.96078399429734L260,456.7993312730402L276.25,455.1448260798422L292.5,451.92746210115115L308.75,444.36974992327134L325,441.5216621003493L341.25,434.7850394598348L357.50000000000006,429.748330256185L373.74999999999994,424.9877473216601L390,422.7018549655036L406.25,420.47458174191183" style="fill: none; stroke: #ff9da6; stroke-width: 4; opacity: 0.5;"></path></g></g><path class="foreground" aria-hidden="true" d="" style="display: none; fill: none;"></path></g><g transform="translate(0,0)"><path class="background" aria-hidden="true" d="M0,0h650v800h-650Z" style="fill: none;"></path><g><g class="mark-line role-mark layer_1_marks" role="graphics-symbol" aria-roledescription="line mark container" style="pointer-events: none;"><path d="M0,644.3697499232713L16.25,619.3820026016114L32.5,609.1514981121351L48.75,600L65,577.2113295386326L81.25,553.9102157243452L97.5,548.9454989793389L113.74999999999999,527.6544327964814L130,510.5683937315562L146.25,477.4432286560529L162.5,465.5804284128566L178.75000000000003,447.31440128741264L195,438.76400520322267L211.25,429.748330256185L227.49999999999997,410.12199867101754L243.75,394.938826947046L260,382.7280338650504L276.25,366.5365330503649L292.5,361.9336603659417L308.75,353.9102157243453L325,347.98572240298506L341.25,329.95039633316753L357.50000000000006,315.3508252126385L373.74999999999994,304.28670088123135L390,293.44912420150047L406.25,282.4578069962177L422.5,279.15478938310605L438.75000000000006,274.9375098076652L454.99999999999994,267.2598149220704L471.25,261.96078399429734L487.5,255.14482607984226L503.75,248.8250288655017L520,242.22497684491674L536.25,238.0880570729465L552.5,233.88226626297114L568.75,226.38872763539172" style="fill: none; stroke: #9d755d; stroke-width: 4; opacity: 0.5;"></path></g></g><path class="foreground" aria-hidden="true" d="" style="display: none; fill: none;"></path></g><g transform="translate(0,0)"><path class="background" aria-hidden="true" d="M0,0h650v800h-650Z" style="fill: none;"></path><g><g class="mark-line role-mark layer_1_marks" role="graphics-symbol" aria-roledescription="line mark container" style="pointer-events: none;"><path d="M0,644.3697499232713L16.25,630.9803919971487L32.5,630.9803919971487L48.75,619.3820026016114L65,591.721462968355L81.25,591.721462968355L97.5,591.721462968355L113.74999999999999,577.2113295386326L130,553.9102157243452L146.25,548.9454989793389L162.5,544.2492798094343L178.75000000000003,539.7940008672037L195,527.6544327964814L211.25,523.9577516576788L227.49999999999997,517.0053304058364L243.75,513.7272471682027L260,510.5683937315562L276.25,507.5204004202088L292.5,493.7042165915489L308.75,484.043280676638L325,479.5880017344075L341.25,471.3094647027626L357.50000000000006,469.3574972449313L373.74999999999994,463.75175252488265L390,453.52124803540636" style="fill: none; stroke: #bab0ac; stroke-width: 4; opacity: 0.5;"></path></g></g><path class="foreground" aria-hidden="true" d="" style="display: none; fill: none;"></path></g><g transform="translate(0,0)"><path class="background" aria-hidden="true" d="M0,0h650v800h-650Z" style="fill: none;"></path><g><g class="mark-line role-mark layer_1_marks" role="graphics-symbol" aria-roledescription="line mark container" style="pointer-events: none;"><path d="M0,660.2059991327963L16.25,660.2059991327963L32.5,660.2059991327963L48.75,644.3697499232713L65,630.9803919971487L81.25,600L97.5,600L113.74999999999999,591.721462968355" style="fill: none; stroke: #4c78a8; stroke-width: 4; opacity: 0.5;"></path></g></g><path class="foreground" aria-hidden="true" d="" style="display: none; fill: none;"></path></g><g transform="translate(0,0)"><path class="background" aria-hidden="true" d="M0,0h650v800h-650Z" style="fill: none;"></path><g><g class="mark-line role-mark layer_1_marks" role="graphics-symbol" aria-roledescription="line mark container" style="pointer-events: none;"><path d="M0,660.2059991327963L16.25,660.2059991327963L32.5,644.3697499232713L48.75,630.9803919971487L65,630.9803919971487L81.25,619.3820026016114L97.5,619.3820026016114L113.74999999999999,600L130,570.7743928643524L146.25,564.7817481888637L162.5,559.1760034688151L178.75000000000003,559.1760034688151L195,553.9102157243452L211.25,548.9454989793389L227.49999999999997,544.2492798094343L243.75,535.5561410532162L260,523.9577516576788L276.25,523.9577516576788L292.5,517.0053304058364L308.75,513.7272471682027L325,513.7272471682027L341.25,510.5683937315562L357.50000000000006,507.5204004202088L373.74999999999994,493.7042165915489L390,491.18639112994487L406.25,484.043280676638L422.5,469.3574972449313L438.75000000000006,461.96078399429734" style="fill: none; stroke: #f58518; stroke-width: 4; opacity: 0.5;"></path></g></g><path class="foreground" aria-hidden="true" d="" style="display: none; fill: none;"></path></g><g transform="translate(0,0)"><path class="background" aria-hidden="true" d="M0,0h650v800h-650Z" style="fill: none;"></path><g><g class="mark-line role-mark layer_1_marks" role="graphics-symbol" aria-roledescription="line mark container" style="pointer-events: none;"><path d="M0,660.2059991327963L16.25,660.2059991327963L32.5,600L48.75,600L65,591.721462968355L81.25,564.7817481888637L97.5,553.9102157243452L113.74999999999999,548.9454989793389L130,548.9454989793389L146.25,535.5561410532162L162.5,523.9577516576788L178.75000000000003,517.0053304058364L195,510.5683937315562L211.25,507.5204004202088L227.49999999999997,504.5757490560675L243.75,501.72766123314545L260,498.97000433601886L276.25,491.18639112994487L292.5,491.18639112994487L308.75,486.359655186601L325,481.7870785947002L341.25,475.35014192041996L357.50000000000006,475.35014192041996L373.74999999999994,475.35014192041996L390,473.30630888408274L406.25,471.3094647027626L422.5,471.3094647027626" style="fill: none; stroke: #e45756; stroke-width: 4; opacity: 0.5;"></path></g></g><path class="foreground" aria-hidden="true" d="" style="display: none; fill: none;"></path></g><g transform="translate(0,0)"><path class="background" aria-hidden="true" d="M0,0h650v800h-650Z" style="fill: none;"></path><g><g class="mark-line role-mark layer_1_marks" role="graphics-symbol" aria-roledescription="line mark container" style="pointer-events: none;"><path d="M0,660.2059991327963L16.25,660.2059991327963L32.5,660.2059991327963L48.75,630.9803919971487L65,630.9803919971487L81.25,619.3820026016114L97.5,619.3820026016114L113.74999999999999,609.1514981121351L130,609.1514981121351L146.25,591.721462968355L162.5,591.721462968355" style="fill: none; stroke: #72b7b2; stroke-width: 4; opacity: 0.5;"></path></g></g><path class="foreground" aria-hidden="true" d="" style="display: none; fill: none;"></path></g><g transform="translate(0,0)"><path class="background" aria-hidden="true" d="M0,0h650v800h-650Z" style="fill: none;"></path><g><g class="mark-line role-mark layer_1_marks" role="graphics-symbol" aria-roledescription="line mark container" style="pointer-events: none;"><path d="M0,660.2059991327963L16.25,609.1514981121351L32.5,564.7817481888637L48.75,531.5154638355588L65,504.5757490560675L81.25,479.5880017344075L97.5,463.75175252488265L113.74999999999999,447.31440128741264L130,433.4982174587528L146.25,415.14414278762376L162.5,401.754784861501L178.75000000000003,389.3843113033161L195,373.2922183259565L211.25,357.0312303904604L227.49999999999997,345.1684301472641L243.75,331.91117703197637L260,317.00533040583645L276.25,312.1334612339475L292.5,303.4252832782493L308.75,286.12521807699085L325,273.71124619736565L341.25,260.90366470196057L357.50000000000006,253.52124803540627L373.74999999999994,250.36239459875995L390,246.12453478477238L406.25,243.21928414545306L422.5,231.60303908197727L438.75000000000006,221.8040806020623L454.99999999999994,213.81019376649544L471.25,206.49040475622763L487.5,200.78526910294494L503.75,198.70679155015375L520,196.84424872219185L536.25,192.27596761005944L552.5,189.07738908862254L568.75,174.25554313231473L585,164.08964176696247L601.25,155.61288003439896L617.5,153.91021572434528L633.75,147.74742624150133L650,137.69160831976103" style="fill: none; stroke: #54a24b; stroke-width: 4; opacity: 0.5;"></path></g></g><path class="foreground" aria-hidden="true" d="" style="display: none; fill: none;"></path></g></g><g class="mark-text role-mark layer_2_marks" role="graphics-object" aria-roledescription="text mark container" style="pointer-events: none;"><text text-anchor="start" transform="translate(200,564.1760034688151)" style="font-family: sans-serif; font-size: 15px; fill: #4c78a8;">AC</text><text text-anchor="start" transform="translate(216.25,493.7394998465426)" style="font-family: sans-serif; font-size: 15px; fill: #f58518;">AL</text><text text-anchor="start" transform="translate(411.25,295.93857670683525)" style="font-family: sans-serif; font-size: 15px; fill: #e45756;">AM</text><text text-anchor="start" transform="translate(281.25,515.5683937315562)" style="font-family: sans-serif; font-size: 15px; fill: #72b7b2;">AP</text><text text-anchor="start" transform="translate(411.25,411.30341028921305)" style="font-family: sans-serif; font-size: 15px; fill: #54a24b;">BA</text><text text-anchor="start" transform="translate(492.5,280.97278900524856)" style="font-family: sans-serif; font-size: 15px; fill: #eeca3b;">CE</text><text text-anchor="start" transform="translate(427.5,515.5683937315562)" style="font-family: sans-serif; font-size: 15px; fill: #b279a2;">DF</text><text text-anchor="start" transform="translate(411.25,427.7018549655036)" style="font-family: sans-serif; font-size: 15px; fill: #ff9da6;">ES</text><text text-anchor="start" transform="translate(362.50000000000006,518.7272471682027)" style="font-family: sans-serif; font-size: 15px; fill: #9d755d;">GO</text><text text-anchor="start" transform="translate(346.25,360.978382391989)" style="font-family: sans-serif; font-size: 15px; fill: #bab0ac;">MA</text><text text-anchor="start" transform="translate(411.25,434.748330256185)" style="font-family: sans-serif; font-size: 15px; fill: #4c78a8;">MG</text><text text-anchor="start" transform="translate(200,614.1514981121351)" style="font-family: sans-serif; font-size: 15px; fill: #f58518;">MS</text><text text-anchor="start" transform="translate(200,596.721462968355)" style="font-family: sans-serif; font-size: 15px; fill: #e45756;">MT</text><text text-anchor="start" transform="translate(362.50000000000006,380.8852137588301)" style="font-family: sans-serif; font-size: 15px; fill: #72b7b2;">PA</text><text text-anchor="start" transform="translate(330,453.82502886550174)" style="font-family: sans-serif; font-size: 15px; fill: #54a24b;">PB</text><text text-anchor="start" transform="translate(508.75,263.8272575432162)" style="font-family: sans-serif; font-size: 15px; fill: #eeca3b;">PE</text><text text-anchor="start" transform="translate(346.25,528.9577516576788)" style="font-family: sans-serif; font-size: 15px; fill: #b279a2;">PI</text><text text-anchor="start" transform="translate(411.25,425.47458174191183)" style="font-family: sans-serif; font-size: 15px; fill: #ff9da6;">PR</text><text text-anchor="start" transform="translate(573.75,231.38872763539172)" style="font-family: sans-serif; font-size: 15px; fill: #9d755d;">RJ</text><text text-anchor="start" transform="translate(395,458.52124803540636)" style="font-family: sans-serif; font-size: 15px; fill: #bab0ac;">RN</text><text text-anchor="start" transform="translate(118.74999999999999,596.721462968355)" style="font-family: sans-serif; font-size: 15px; fill: #4c78a8;">RO</text><text text-anchor="start" transform="translate(443.75000000000006,466.96078399429734)" style="font-family: sans-serif; font-size: 15px; fill: #f58518;">RS</text><text text-anchor="start" transform="translate(427.5,476.3094647027626)" style="font-family: sans-serif; font-size: 15px; fill: #e45756;">SC</text><text text-anchor="start" transform="translate(167.5,596.721462968355)" style="font-family: sans-serif; font-size: 15px; fill: #72b7b2;">SE</text><text text-anchor="start" transform="translate(655,142.69160831976103)" style="font-family: sans-serif; font-size: 15px; fill: #54a24b;">SP</text></g><g class="mark-line role-mark layer_3_marks" role="graphics-symbol" aria-roledescription="line mark container" style="pointer-events: none;"><path d="M0,660.2059991327963L16.25,630.1029995663981L32.5,600L48.75,569.8970004336019L65,539.7940008672037L81.25,509.6910013008056L97.5,479.5880017344075L113.74999999999999,449.4850021680095L130,419.38200260161136L146.25,389.27900303521324L162.5,359.1760034688151L178.75000000000003,329.073003902417L195,298.97000433601886L211.25,268.86700476962073L227.49999999999997,238.76400520322267L243.75,208.66100563682454L260,178.55800607042642L276.25,148.4550065040283L292.5,118.35200693763016" style="fill: none; stroke: lightgray; stroke-width: 2; stroke-dasharray: 2,2;"></path></g><g class="mark-line role-mark layer_4_marks" role="graphics-symbol" aria-roledescription="line mark container" style="pointer-events: none;"><path d="M0,660.2059991327963L16.25,648.164799306237L32.5,636.1235994796778L48.75,624.0823996531185L65,612.0411998265593L81.25,600L97.5,587.9588001734409L113.74999999999999,575.9176003468815L130,563.8764005203222L146.25,551.8352006937631L162.5,539.7940008672037L178.75000000000003,527.7528010406446L195,515.7116012140852L211.25,503.67040138752606L227.49999999999997,491.62920156096686L243.75,479.5880017344075L260,467.5468019078483L276.25,455.50560208128906L292.5,443.4644022547298L308.75,431.4232024281706L325,419.38200260161136L341.25,407.34080277505205L357.50000000000006,395.2996029484928L373.74999999999994,383.2584031219336L390,371.21720329537436L406.25,359.1760034688151L422.5,347.1348036422559L438.75000000000006,335.09360381569655L454.99999999999994,323.05240398913736L471.25,311.0112041625781L487.5,298.97000433601886L503.75,286.92880450945967L520,274.8876046829003L536.25,262.8464048563411L552.5,250.80520502978186L568.75,238.76400520322267L585,226.72280537666342L601.25,214.68160555010405L617.5,202.64040572354486L633.75,190.5992058969856L650,178.55800607042642" style="fill: none; stroke: lightgray; stroke-width: 2; stroke-dasharray: 2,2;"></path></g><g class="mark-line role-mark layer_5_marks" role="graphics-symbol" aria-roledescription="line mark container" style="pointer-events: none;"><path d="M0,660.2059991327963L16.25,654.1853992195166L32.5,648.164799306237L48.75,642.1441993929574L65,636.1235994796778L81.25,630.1029995663981L97.5,624.0823996531185L113.74999999999999,618.061799739839L130,612.0411998265593L146.25,606.0205999132796L162.5,600L178.75000000000003,593.9794000867204L195,587.9588001734409L211.25,581.9382002601612L227.49999999999997,575.9176003468815L243.75,569.8970004336019L260,563.8764005203222L276.25,557.8558006070427L292.5,551.8352006937631L308.75,545.8146007804834L325,539.7940008672037L341.25,533.7734009539241L357.50000000000006,527.7528010406446L373.74999999999994,521.732201127365L390,515.7116012140852L406.25,509.6910013008056L422.5,503.67040138752606L438.75000000000006,497.64980147424643L454.99999999999994,491.62920156096686L471.25,485.6086016476872L487.5,479.5880017344075L503.75,473.56740182112793L520,467.5468019078483L536.25,461.52620199456874L552.5,455.50560208128906L568.75,449.4850021680095L585,443.4644022547298L601.25,437.4438023414502L617.5,431.4232024281706L633.75,425.402602514891L650,419.38200260161136" style="fill: none; stroke: lightgray; stroke-width: 2; stroke-dasharray: 2,2;"></path></g><g class="mark-text role-mark layer_6_marks" role="graphics-object" aria-roledescription="text mark container" style="pointer-events: none;"><text text-anchor="middle" transform="translate(211.25,260.20599913279636) rotate(300) translate(0,4)" style="font-family: sans-serif; font-size: 13px; fill: gray;">mortes duplicam a cada 2 dias</text></g><g class="mark-text role-mark layer_7_marks" role="graphics-object" aria-roledescription="text mark container" style="pointer-events: none;"><text text-anchor="middle" transform="translate(454.99999999999994,320.4119982655926) rotate(325) translate(0,4)" style="font-family: sans-serif; font-size: 13px; fill: gray;">a cada 5 dias</text></g><g class="mark-text role-mark layer_8_marks" role="graphics-object" aria-roledescription="text mark container" style="pointer-events: none;"><text text-anchor="middle" transform="translate(585,437.41732867142895) rotate(339) translate(0,4)" style="font-family: sans-serif; font-size: 13px; fill: gray;">a cada 10 dias</text></g><g class="mark-group role-title"><g transform="translate(325,-34)"><path class="background" aria-hidden="true" d="M0,0h0v0h0Z" style="pointer-events: none; fill: none;"></path><g><g class="mark-text role-title-text" role="graphics-symbol" aria-roledescription="title" aria-label="Title text 'Total de mortes confirmadas pelo COVID-19 por estado brasileiro'" style="pointer-events: none;"><text text-anchor="middle" transform="translate(0,18)" style="font-family: sans-serif; font-size: 23px; font-weight: bold; fill: #000; opacity: 1;">Total de mortes confirmadas pelo COVID-19 por estado brasileiro</text></g></g><path class="foreground" aria-hidden="true" d="" style="pointer-events: none; display: none; fill: none;"></path></g></g></g><path class="foreground" aria-hidden="true" d="" style="display: none; fill: none;"></path></g></g></g></svg>