<svg class="marks" width="769" height="890" viewBox="0 0 769 890" version="1.1" xmlns="http://www.w3.org/2000/svg" xmlns:xlink="http://www.w3.org/1999/xlink"><rect width="769" height="890" style="fill: white;"></rect><g transform="translate(82,39)"><g class="mark-group role-frame root"><g transform="translate(0,0)"><path class="background" d="M0.5,0.5h650v800h-650Z" style="fill: none; stroke: #ddd;"></path><g><g class="mark-group role-axis"><g transform="translate(0.5,800.5)"><path class="background" d="M0,0h0v0h0Z" style="pointer-events: none; fill: none;"></path><g><g class="mark-rule role-axis-grid" style="pointer-events: none;"><line transform="translate(0,-800)" x2="0" y2="800" style="fill: none; stroke: #ddd; stroke-width: 1; opacity: 1;"></line><line transform="translate(43,-800)" x2="0" y2="800" style="fill: none; stroke: #ddd; stroke-width: 1; opacity: 1;"></line><line transform="translate(87,-800)" x2="0" y2="800" style="fill: none; stroke: #ddd; stroke-width: 1; opacity: 1;"></line><line transform="translate(130,-800)" x2="0" y2="800" style="fill: none; stroke: #ddd; stroke-width: 1; opacity: 1;"></line><line transform="translate(173,-800)" x2="0" y2="800" style="fill: none; stroke: #ddd; stroke-width: 1; opacity: 1;"></line><line transform="translate(217,-800)" x2="0" y2="800" style="fill: none; stroke: #ddd; stroke-width: 1; opacity: 1;"></line><line transform="translate(260,-800)" x2="0" y2="800" style="fill: none; stroke: #ddd; stroke-width: 1; opacity: 1;"></line><line transform="translate(303,-800)" x2="0" y2="800" style="fill: none; stroke: #ddd; stroke-width: 1; opacity: 1;"></line><line transform="translate(347,-800)" x2="0" y2="800" style="fill: none; stroke: #ddd; stroke-width: 1; opacity: 1;"></line><line transform="translate(390,-800)" x2="0" y2="800" style="fill: none; stroke: #ddd; stroke-width: 1; opacity: 1;"></line><line transform="translate(433,-800)" x2="0" y2="800" style="fill: none; stroke: #ddd; stroke-width: 1; opacity: 1;"></line><line transform="translate(477,-800)" x2="0" y2="800" style="fill: none; stroke: #ddd; stroke-width: 1; opacity: 1;"></line><line transform="translate(520,-800)" x2="0" y2="800" style="fill: none; stroke: #ddd; stroke-width: 1; opacity: 1;"></line><line transform="translate(563,-800)" x2="0" y2="800" style="fill: none; stroke: #ddd; stroke-width: 1; opacity: 1;"></line><line transform="translate(607,-800)" x2="0" y2="800" style="fill: none; stroke: #ddd; stroke-width: 1; opacity: 1;"></line><line transform="translate(650,-800)" x2="0" y2="800" style="fill: none; stroke: #ddd; stroke-width: 1; opacity: 1;"></line></g></g><path class="foreground" d="" style="pointer-events: none; display: none; fill: none;"></path></g></g><g class="mark-group role-axis"><g transform="translate(0.5,0.5)"><path class="background" d="M0,0h0v0h0Z" style="pointer-events: none; fill: none;"></path><g><g class="mark-rule role-axis-grid" style="pointer-events: none;"><line transform="translate(0,800)" x2="650" y2="0" style="fill: none; stroke: #ddd; stroke-width: 1; opacity: 1;"></line><line transform="translate(0,740)" x2="650" y2="0" style="fill: none; stroke: #ddd; stroke-width: 1; opacity: 1;"></line><line transform="translate(0,705)" x2="650" y2="0" style="fill: none; stroke: #ddd; stroke-width: 1; opacity: 1;"></line><line transform="translate(0,680)" x2="650" y2="0" style="fill: none; stroke: #ddd; stroke-width: 1; opacity: 1;"></line><line transform="translate(0,660)" x2="650" y2="0" style="fill: none; stroke: #ddd; stroke-width: 1; opacity: 1;"></line><line transform="translate(0,644)" x2="650" y2="0" style="fill: none; stroke: #ddd; stroke-width: 1; opacity: 1;"></line><line transform="translate(0,631)" x2="650" y2="0" style="fill: none; stroke: #ddd; stroke-width: 1; opacity: 1;"></line><line transform="translate(0,619)" x2="650" y2="0" style="fill: none; stroke: #ddd; stroke-width: 1; opacity: 1;"></line><line transform="translate(0,609)" x2="650" y2="0" style="fill: none; stroke: #ddd; stroke-width: 1; opacity: 1;"></line><line transform="translate(0,600)" x2="650" y2="0" style="fill: none; stroke: #ddd; stroke-width: 1; opacity: 1;"></line><line transform="translate(0,540)" x2="650" y2="0" style="fill: none; stroke: #ddd; stroke-width: 1; opacity: 1;"></line><line transform="translate(0,505)" x2="650" y2="0" style="fill: none; stroke: #ddd; stroke-width: 1; opacity: 1;"></line><line transform="translate(0,480)" x2="650" y2="0" style="fill: none; stroke: #ddd; stroke-width: 1; opacity: 1;"></line><line transform="translate(0,460)" x2="650" y2="0" style="fill: none; stroke: #ddd; stroke-width: 1; opacity: 1;"></line><line transform="translate(0,444)" x2="650" y2="0" style="fill: none; stroke: #ddd; stroke-width: 1; opacity: 1;"></line><line transform="translate(0,431)" x2="650" y2="0" style="fill: none; stroke: #ddd; stroke-width: 1; opacity: 1;"></line><line transform="translate(0,419)" x2="650" y2="0" style="fill: none; stroke: #ddd; stroke-width: 1; opacity: 1;"></line><line transform="translate(0,409)" x2="650" y2="0" style="fill: none; stroke: #ddd; stroke-width: 1; opacity: 1;"></line><line transform="translate(0,400)" x2="650" y2="0" style="fill: none; stroke: #ddd; stroke-width: 1; opacity: 1;"></line><line transform="translate(0,340)" x2="650" y2="0" style="fill: none; stroke: #ddd; stroke-width: 1; opacity: 1;"></line><line transform="translate(0,305)" x2="650" y2="0" style="fill: none; stroke: #ddd; stroke-width: 1; opacity: 1;"></line><line transform="translate(0,280)" x2="650" y2="0" style="fill: none; stroke: #ddd; stroke-width: 1; opacity: 1;"></line><line transform="translate(0,260)" x2="650" y2="0" style="fill: none; stroke: #ddd; stroke-width: 1; opacity: 1;"></line><line transform="translate(0,244)" x2="650" y2="0" style="fill: none; stroke: #ddd; stroke-width: 1; opacity: 1;"></line><line transform="translate(0,231)" x2="650" y2="0" style="fill: none; stroke: #ddd; stroke-width: 1; opacity: 1;"></line><line transform="translate(0,219)" x2="650" y2="0" style="fill: none; stroke: #ddd; stroke-width: 1; opacity: 1;"></line><line transform="translate(0,209)" x2="650" y2="0" style="fill: none; stroke: #ddd; stroke-width: 1; opacity: 1;"></line><line transform="translate(0,200)" x2="650" y2="0" style="fill: none; stroke: #ddd; stroke-width: 1; opacity: 1;"></line><line transform="translate(0,140)" x2="650" y2="0" style="fill: none; stroke: #ddd; stroke-width: 1; opacity: 1;"></line><line transform="translate(0,105)" x2="650" y2="0" style="fill: none; stroke: #ddd; stroke-width: 1; opacity: 1;"></line><line transform="translate(0,80)" x2="650" y2="0" style="fill: none; stroke: #ddd; stroke-width: 1; opacity: 1;"></line><line transform="translate(0,60)" x2="650" y2="0" style="fill: none; stroke: #ddd; stroke-width: 1; opacity: 1;"></line><line transform="translate(0,44)" x2="650" y2="0" style="fill: none; stroke: #ddd; stroke-width: 1; opacity: 1;"></line><line transform="translate(0,31)" x2="650" y2="0" style="fill: none; stroke: #ddd; stroke-width: 1; opacity: 1;"></line><line transform="translate(0,19)" x2="650" y2="0" style="fill: none; stroke: #ddd; stroke-width: 1; opacity: 1;"></line><line transform="translate(0,9)" x2="650" y2="0" style="fill: none; stroke: #ddd; stroke-width: 1; opacity: 1;"></line><line transform="translate(0,0)" x2="650" y2="0" style="fill: none; stroke: #ddd; stroke-width: 1; opacity: 1;"></line></g></g><path class="foreground" d="" style="pointer-events: none; display: none; fill: none;"></path></g></g><g class="mark-group role-axis"><g transform="translate(0.5,800.5)"><path class="background" d="M0,0h0v0h0Z" style="pointer-events: none; fill: none;"></path><g><g class="mark-rule role-axis-tick" style="pointer-events: none;"><line transform="translate(0,0)" x2="0" y2="5" style="fill: none; stroke: #888; stroke-width: 1; opacity: 1;"></line><line transform="translate(43,0)" x2="0" y2="5" style="fill: none; stroke: #888; stroke-width: 1; opacity: 1;"></line><line transform="translate(87,0)" x2="0" y2="5" style="fill: none; stroke: #888; stroke-width: 1; opacity: 1;"></line><line transform="translate(130,0)" x2="0" y2="5" style="fill: none; stroke: #888; stroke-width: 1; opacity: 1;"></line><line transform="translate(173,0)" x2="0" y2="5" style="fill: none; stroke: #888; stroke-width: 1; opacity: 1;"></line><line transform="translate(217,0)" x2="0" y2="5" style="fill: none; stroke: #888; stroke-width: 1; opacity: 1;"></line><line transform="translate(260,0)" x2="0" y2="5" style="fill: none; stroke: #888; stroke-width: 1; opacity: 1;"></line><line transform="translate(303,0)" x2="0" y2="5" style="fill: none; stroke: #888; stroke-width: 1; opacity: 1;"></line><line transform="translate(347,0)" x2="0" y2="5" style="fill: none; stroke: #888; stroke-width: 1; opacity: 1;"></line><line transform="translate(390,0)" x2="0" y2="5" style="fill: none; stroke: #888; stroke-width: 1; opacity: 1;"></line><line transform="translate(433,0)" x2="0" y2="5" style="fill: none; stroke: #888; stroke-width: 1; opacity: 1;"></line><line transform="translate(477,0)" x2="0" y2="5" style="fill: none; stroke: #888; stroke-width: 1; opacity: 1;"></line><line transform="translate(520,0)" x2="0" y2="5" style="fill: none; stroke: #888; stroke-width: 1; opacity: 1;"></line><line transform="translate(563,0)" x2="0" y2="5" style="fill: none; stroke: #888; stroke-width: 1; opacity: 1;"></line><line transform="translate(607,0)" x2="0" y2="5" style="fill: none; stroke: #888; stroke-width: 1; opacity: 1;"></line><line transform="translate(650,0)" x2="0" y2="5" style="fill: none; stroke: #888; stroke-width: 1; opacity: 1;"></line></g><g class="mark-text role-axis-label" style="pointer-events: none;"><text text-anchor="start" transform="translate(0,19)" style="font-family: sans-serif; font-size: 15px; fill: #000; opacity: 1;">0</text><text text-anchor="middle" transform="translate(43.333333333333336,19)" style="font-family: sans-serif; font-size: 15px; fill: #000; opacity: 1;">2</text><text text-anchor="middle" transform="translate(86.66666666666667,19)" style="font-family: sans-serif; font-size: 15px; fill: #000; opacity: 1;">4</text><text text-anchor="middle" transform="translate(130,19)" style="font-family: sans-serif; font-size: 15px; fill: #000; opacity: 1;">6</text><text text-anchor="middle" transform="translate(173.33333333333334,19)" style="font-family: sans-serif; font-size: 15px; fill: #000; opacity: 1;">8</text><text text-anchor="middle" transform="translate(216.66666666666666,19)" style="font-family: sans-serif; font-size: 15px; fill: #000; opacity: 1;">10</text><text text-anchor="middle" transform="translate(260,19)" style="font-family: sans-serif; font-size: 15px; fill: #000; opacity: 1;">12</text><text text-anchor="middle" transform="translate(303.3333333333333,19)" style="font-family: sans-serif; font-size: 15px; fill: #000; opacity: 1;">14</text><text text-anchor="middle" transform="translate(346.6666666666667,19)" style="font-family: sans-serif; font-size: 15px; fill: #000; opacity: 1;">16</text><text text-anchor="middle" transform="translate(390,19)" style="font-family: sans-serif; font-size: 15px; fill: #000; opacity: 1;">18</text><text text-anchor="middle" transform="translate(433.3333333333333,19)" style="font-family: sans-serif; font-size: 15px; fill: #000; opacity: 1;">20</text><text text-anchor="middle" transform="translate(476.66666666666663,19)" style="font-family: sans-serif; font-size: 15px; fill: #000; opacity: 1;">22</text><text text-anchor="middle" transform="translate(520,19)" style="font-family: sans-serif; font-size: 15px; fill: #000; opacity: 1;">24</text><text text-anchor="middle" transform="translate(563.3333333333334,19)" style="font-family: sans-serif; font-size: 15px; fill: #000; opacity: 1;">26</text><text text-anchor="middle" transform="translate(606.6666666666666,19)" style="font-family: sans-serif; font-size: 15px; fill: #000; opacity: 1;">28</text><text text-anchor="end" transform="translate(650,19)" style="font-family: sans-serif; font-size: 15px; fill: #000; opacity: 1;">30</text></g><g class="mark-rule role-axis-domain" style="pointer-events: none;"><line transform="translate(0,0)" x2="650" y2="0" style="fill: none; stroke: #888; stroke-width: 1; opacity: 1;"></line></g><g class="mark-text role-axis-title" style="pointer-events: none;"><text text-anchor="middle" transform="translate(325,42)" style="font-family: sans-serif; font-size: 20px; font-weight: bold; fill: #000; opacity: 1;">Dias a partir da 5a morte no estado</text></g></g><path class="foreground" d="" style="pointer-events: none; display: none; fill: none;"></path></g></g><g class="mark-group role-axis"><g transform="translate(0.5,0.5)"><path class="background" d="M0,0h0v0h0Z" style="pointer-events: none; fill: none;"></path><g><g class="mark-rule role-axis-tick" style="pointer-events: none;"><line transform="translate(0,800)" x2="-5" y2="0" style="fill: none; stroke: #888; stroke-width: 1; opacity: 1;"></line><line transform="translate(0,740)" x2="-5" y2="0" style="fill: none; stroke: #888; stroke-width: 1; opacity: 1;"></line><line transform="translate(0,705)" x2="-5" y2="0" style="fill: none; stroke: #888; stroke-width: 1; opacity: 1;"></line><line transform="translate(0,680)" x2="-5" y2="0" style="fill: none; stroke: #888; stroke-width: 1; opacity: 1;"></line><line transform="translate(0,660)" x2="-5" y2="0" style="fill: none; stroke: #888; stroke-width: 1; opacity: 1;"></line><line transform="translate(0,644)" x2="-5" y2="0" style="fill: none; stroke: #888; stroke-width: 1; opacity: 1;"></line><line transform="translate(0,631)" x2="-5" y2="0" style="fill: none; stroke: #888; stroke-width: 1; opacity: 1;"></line><line transform="translate(0,619)" x2="-5" y2="0" style="fill: none; stroke: #888; stroke-width: 1; opacity: 1;"></line><line transform="translate(0,609)" x2="-5" y2="0" style="fill: none; stroke: #888; stroke-width: 1; opacity: 1;"></line><line transform="translate(0,600)" x2="-5" y2="0" style="fill: none; stroke: #888; stroke-width: 1; opacity: 1;"></line><line transform="translate(0,540)" x2="-5" y2="0" style="fill: none; stroke: #888; stroke-width: 1; opacity: 1;"></line><line transform="translate(0,505)" x2="-5" y2="0" style="fill: none; stroke: #888; stroke-width: 1; opacity: 1;"></line><line transform="translate(0,480)" x2="-5" y2="0" style="fill: none; stroke: #888; stroke-width: 1; opacity: 1;"></line><line transform="translate(0,460)" x2="-5" y2="0" style="fill: none; stroke: #888; stroke-width: 1; opacity: 1;"></line><line transform="translate(0,444)" x2="-5" y2="0" style="fill: none; stroke: #888; stroke-width: 1; opacity: 1;"></line><line transform="translate(0,431)" x2="-5" y2="0" style="fill: none; stroke: #888; stroke-width: 1; opacity: 1;"></line><line transform="translate(0,419)" x2="-5" y2="0" style="fill: none; stroke: #888; stroke-width: 1; opacity: 1;"></line><line transform="translate(0,409)" x2="-5" y2="0" style="fill: none; stroke: #888; stroke-width: 1; opacity: 1;"></line><line transform="translate(0,400)" x2="-5" y2="0" style="fill: none; stroke: #888; stroke-width: 1; opacity: 1;"></line><line transform="translate(0,340)" x2="-5" y2="0" style="fill: none; stroke: #888; stroke-width: 1; opacity: 1;"></line><line transform="translate(0,305)" x2="-5" y2="0" style="fill: none; stroke: #888; stroke-width: 1; opacity: 1;"></line><line transform="translate(0,280)" x2="-5" y2="0" style="fill: none; stroke: #888; stroke-width: 1; opacity: 1;"></line><line transform="translate(0,260)" x2="-5" y2="0" style="fill: none; stroke: #888; stroke-width: 1; opacity: 1;"></line><line transform="translate(0,244)" x2="-5" y2="0" style="fill: none; stroke: #888; stroke-width: 1; opacity: 1;"></line><line transform="translate(0,231)" x2="-5" y2="0" style="fill: none; stroke: #888; stroke-width: 1; opacity: 1;"></line><line transform="translate(0,219)" x2="-5" y2="0" style="fill: none; stroke: #888; stroke-width: 1; opacity: 1;"></line><line transform="translate(0,209)" x2="-5" y2="0" style="fill: none; stroke: #888; stroke-width: 1; opacity: 1;"></line><line transform="translate(0,200)" x2="-5" y2="0" style="fill: none; stroke: #888; stroke-width: 1; opacity: 1;"></line><line transform="translate(0,140)" x2="-5" y2="0" style="fill: none; stroke: #888; stroke-width: 1; opacity: 1;"></line><line transform="translate(0,105)" x2="-5" y2="0" style="fill: none; stroke: #888; stroke-width: 1; opacity: 1;"></line><line transform="translate(0,80)" x2="-5" y2="0" style="fill: none; stroke: #888; stroke-width: 1; opacity: 1;"></line><line transform="translate(0,60)" x2="-5" y2="0" style="fill: none; stroke: #888; stroke-width: 1; opacity: 1;"></line><line transform="translate(0,44)" x2="-5" y2="0" style="fill: none; stroke: #888; stroke-width: 1; opacity: 1;"></line><line transform="translate(0,31)" x2="-5" y2="0" style="fill: none; stroke: #888; stroke-width: 1; opacity: 1;"></line><line transform="translate(0,19)" x2="-5" y2="0" style="fill: none; stroke: #888; stroke-width: 1; opacity: 1;"></line><line transform="translate(0,9)" x2="-5" y2="0" style="fill: none; stroke: #888; stroke-width: 1; opacity: 1;"></line><line transform="translate(0,0)" x2="-5" y2="0" style="fill: none; stroke: #888; stroke-width: 1; opacity: 1;"></line></g><g class="mark-text role-axis-label" style="pointer-events: none;"><text text-anchor="end" transform="translate(-7,805)" style="font-family: sans-serif; font-size: 15px; fill: #000; opacity: 1;">1</text><text text-anchor="end" transform="translate(-7,744.7940008672037)" style="font-family: sans-serif; font-size: 15px; fill: #000; opacity: 1;">2</text><text text-anchor="end" transform="translate(-7,709.5757490560676)" style="font-family: sans-serif; font-size: 15px; fill: #000; opacity: 1;"></text><text text-anchor="end" transform="translate(-7,684.5880017344075)" style="font-family: sans-serif; font-size: 15px; fill: #000; opacity: 1;"></text><text text-anchor="end" transform="translate(-7,665.2059991327963)" style="font-family: sans-serif; font-size: 15px; fill: #000; opacity: 1;"></text><text text-anchor="end" transform="translate(-7,649.3697499232713)" style="font-family: sans-serif; font-size: 15px; fill: #000; opacity: 1;"></text><text text-anchor="end" transform="translate(-7,635.9803919971487)" style="font-family: sans-serif; font-size: 15px; fill: #000; opacity: 1;"></text><text text-anchor="end" transform="translate(-7,624.3820026016114)" style="font-family: sans-serif; font-size: 15px; fill: #000; opacity: 1;"></text><text text-anchor="end" transform="translate(-7,614.1514981121351)" style="font-family: sans-serif; font-size: 15px; fill: #000; opacity: 1;"></text><text text-anchor="end" transform="translate(-7,605)" style="font-family: sans-serif; font-size: 15px; fill: #000; opacity: 1;">10</text><text text-anchor="end" transform="translate(-7,544.7940008672037)" style="font-family: sans-serif; font-size: 15px; fill: #000; opacity: 1;">20</text><text text-anchor="end" transform="translate(-7,509.5757490560675)" style="font-family: sans-serif; font-size: 15px; fill: #000; opacity: 1;"></text><text text-anchor="end" transform="translate(-7,484.5880017344075)" style="font-family: sans-serif; font-size: 15px; fill: #000; opacity: 1;"></text><text text-anchor="end" transform="translate(-7,465.20599913279625)" style="font-family: sans-serif; font-size: 15px; fill: #000; opacity: 1;"></text><text text-anchor="end" transform="translate(-7,449.36974992327134)" style="font-family: sans-serif; font-size: 15px; fill: #000; opacity: 1;"></text><text text-anchor="end" transform="translate(-7,435.9803919971486)" style="font-family: sans-serif; font-size: 15px; fill: #000; opacity: 1;"></text><text text-anchor="end" transform="translate(-7,424.38200260161136)" style="font-family: sans-serif; font-size: 15px; fill: #000; opacity: 1;"></text><text text-anchor="end" transform="translate(-7,414.1514981121351)" style="font-family: sans-serif; font-size: 15px; fill: #000; opacity: 1;"></text><text text-anchor="end" transform="translate(-7,405)" style="font-family: sans-serif; font-size: 15px; fill: #000; opacity: 1;">100</text><text text-anchor="end" transform="translate(-7,344.79400086720386)" style="font-family: sans-serif; font-size: 15px; fill: #000; opacity: 1;">200</text><text text-anchor="end" transform="translate(-7,309.5757490560676)" style="font-family: sans-serif; font-size: 15px; fill: #000; opacity: 1;"></text><text text-anchor="end" transform="translate(-7,284.5880017344076)" style="font-family: sans-serif; font-size: 15px; fill: #000; opacity: 1;"></text><text text-anchor="end" transform="translate(-7,265.20599913279636)" style="font-family: sans-serif; font-size: 15px; fill: #000; opacity: 1;"></text><text text-anchor="end" transform="translate(-7,249.3697499232713)" style="font-family: sans-serif; font-size: 15px; fill: #000; opacity: 1;"></text><text text-anchor="end" transform="translate(-7,235.9803919971487)" style="font-family: sans-serif; font-size: 15px; fill: #000; opacity: 1;"></text><text text-anchor="end" transform="translate(-7,224.38200260161133)" style="font-family: sans-serif; font-size: 15px; fill: #000; opacity: 1;"></text><text text-anchor="end" transform="translate(-7,214.15149811213504)" style="font-family: sans-serif; font-size: 15px; fill: #000; opacity: 1;"></text><text text-anchor="end" transform="translate(-7,205.00000000000009)" style="font-family: sans-serif; font-size: 15px; fill: #000; opacity: 1;">1,000</text><text text-anchor="end" transform="translate(-7,144.79400086720383)" style="font-family: sans-serif; font-size: 15px; fill: #000; opacity: 1;">2,000</text><text text-anchor="end" transform="translate(-7,109.57574905606765)" style="font-family: sans-serif; font-size: 15px; fill: #000; opacity: 1;"></text><text text-anchor="end" transform="translate(-7,84.58800173440758)" style="font-family: sans-serif; font-size: 15px; fill: #000; opacity: 1;"></text><text text-anchor="end" transform="translate(-7,65.20599913279625)" style="font-family: sans-serif; font-size: 15px; fill: #000; opacity: 1;"></text><text text-anchor="end" transform="translate(-7,49.36974992327141)" style="font-family: sans-serif; font-size: 15px; fill: #000; opacity: 1;"></text><text text-anchor="end" transform="translate(-7,35.9803919971487)" style="font-family: sans-serif; font-size: 15px; fill: #000; opacity: 1;"></text><text text-anchor="end" transform="translate(-7,24.382002601611337)" style="font-family: sans-serif; font-size: 15px; fill: #000; opacity: 1;"></text><text text-anchor="end" transform="translate(-7,14.151498112135048)" style="font-family: sans-serif; font-size: 15px; fill: #000; opacity: 1;"></text><text text-anchor="end" transform="translate(-7,5)" style="font-family: sans-serif; font-size: 15px; fill: #000; opacity: 1;">10,000</text></g><g class="mark-rule role-axis-domain" style="pointer-events: none;"><line transform="translate(0,800)" x2="0" y2="-800" style="fill: none; stroke: #888; stroke-width: 1; opacity: 1;"></line></g><g class="mark-text role-axis-title" style="pointer-events: none;"><text text-anchor="middle" transform="translate(-56.87890625,400) rotate(-90) translate(0,-4)" style="font-family: sans-serif; font-size: 20px; font-weight: bold; fill: #000; opacity: 1;">Mortes confirmadas (escala logarítmica)</text></g></g><path class="foreground" d="" style="pointer-events: none; display: none; fill: none;"></path></g></g><g class="mark-group role-scope layer_0_pathgroup"><g transform="translate(0,0)"><path class="background" d="M0,0h650v800h-650Z" style="fill: none;"></path><g><g class="mark-line role-mark layer_0_marks"><path d="M0,660.2059991327963L21.666666666666668,660.2059991327963" style="fill: none; stroke: #4c78a8; stroke-width: 4; opacity: 0.7;"></path></g></g><path class="foreground" d="" style="display: none; fill: none;"></path></g><g transform="translate(0,0)"><path class="background" d="M0,0h650v800h-650Z" style="fill: none;"></path><g><g class="mark-line role-mark layer_0_marks"><path d="M0,660.2059991327963L21.666666666666668,660.2059991327963L43.333333333333336,630.9803919971487" style="fill: none; stroke: #f58518; stroke-width: 4; opacity: 0.7;"></path></g></g><path class="foreground" d="" style="display: none; fill: none;"></path></g><g transform="translate(0,0)"><path class="background" d="M0,0h650v800h-650Z" style="fill: none;"></path><g><g class="mark-line role-mark layer_0_marks"><path d="M0,630.9803919971487L21.666666666666668,584.1637507904751L43.333333333333336,564.7817481888637L65,544.2492798094343L86.66666666666667,527.6544327964814L108.33333333333333,504.5757490560675L130,479.5880017344075L151.66666666666666,460.20599913279625L173.33333333333334,455.1448260798422L195,441.5216621003493L216.66666666666666,429.748330256185L238.33333333333331,409.1514981121351L260,394.938826947046L281.6666666666667,381.31566296755295L303.3333333333333,367.72639955300514" style="fill: none; stroke: #e45756; stroke-width: 4; opacity: 0.7;"></path></g></g><path class="foreground" d="" style="display: none; fill: none;"></path></g><g transform="translate(0,0)"><path class="background" d="M0,0h650v800h-650Z" style="fill: none;"></path><g><g class="mark-line role-mark layer_0_marks"><path d="M0,660.2059991327963L21.666666666666668,660.2059991327963L43.333333333333336,644.3697499232713L65,630.9803919971487L86.66666666666667,630.9803919971487L108.33333333333333,600L130,600" style="fill: none; stroke: #72b7b2; stroke-width: 4; opacity: 0.7;"></path></g></g><path class="foreground" d="" style="display: none; fill: none;"></path></g><g transform="translate(0,0)"><path class="background" d="M0,0h650v800h-650Z" style="fill: none;"></path><g><g class="mark-line role-mark layer_0_marks"><path d="M0,644.3697499232713L21.666666666666668,630.9803919971487L43.333333333333336,609.1514981121351L65,600L86.66666666666667,570.7743928643524L108.33333333333333,548.9454989793389L130,544.2492798094343L151.66666666666666,544.2492798094343L173.33333333333334,535.5561410532162L195,535.5561410532162L216.66666666666666,531.5154638355588L238.33333333333331,517.0053304058364L260,510.5683937315562L281.6666666666667,493.7042165915489L303.3333333333333,488.7394998465426" style="fill: none; stroke: #54a24b; stroke-width: 4; opacity: 0.7;"></path></g></g><path class="foreground" d="" style="display: none; fill: none;"></path></g><g transform="translate(0,0)"><path class="background" d="M0,0h650v800h-650Z" style="fill: none;"></path><g><g class="mark-line role-mark layer_0_marks"><path d="M0,660.2059991327963L21.666666666666668,660.2059991327963L43.333333333333336,630.9803919971487L65,609.1514981121351L86.66666666666667,535.5561410532162L108.33333333333333,531.5154638355588L130,527.6544327964814L151.66666666666666,491.18639112994487L173.33333333333334,491.18639112994487L195,479.5880017344075L216.66666666666666,448.82502886550174L238.33333333333331,448.82502886550174L260,434.7850394598348L281.6666666666667,426.15365605380487L303.3333333333333,423.83728154384175L325,399.1357252434715L346.6666666666667,390.9354042426686L368.3333333333333,381.31566296755295L390,373.9332463009988L411.66666666666663,361.9336603659417" style="fill: none; stroke: #eeca3b; stroke-width: 4; opacity: 0.7;"></path></g></g><path class="foreground" d="" style="display: none; fill: none;"></path></g><g transform="translate(0,0)"><path class="background" d="M0,0h650v800h-650Z" style="fill: none;"></path><g><g class="mark-line role-mark layer_0_marks"><path d="M0,660.2059991327963L21.666666666666668,644.3697499232713L43.333333333333336,630.9803919971487L65,630.9803919971487L86.66666666666667,600L108.33333333333333,584.1637507904751L130,584.1637507904751L151.66666666666666,577.2113295386326L173.33333333333334,570.7743928643524L195,570.7743928643524L216.66666666666666,570.7743928643524L238.33333333333331,564.7817481888637L260,553.9102157243452L281.6666666666667,553.9102157243452L303.3333333333333,539.7940008672037L325,523.9577516576788" style="fill: none; stroke: #b279a2; stroke-width: 4; opacity: 0.7;"></path></g></g><path class="foreground" d="" style="display: none; fill: none;"></path></g><g transform="translate(0,0)"><path class="background" d="M0,0h650v800h-650Z" style="fill: none;"></path><g><g class="mark-line role-mark layer_0_marks"><path d="M0,660.2059991327963L21.666666666666668,644.3697499232713L43.333333333333336,644.3697499232713L65,644.3697499232713L86.66666666666667,644.3697499232713L108.33333333333333,644.3697499232713L130,630.9803919971487L151.66666666666666,619.3820026016114L173.33333333333334,609.1514981121351L195,570.7743928643524L216.66666666666666,553.9102157243452L238.33333333333331,548.9454989793389L260,535.5561410532162L281.6666666666667,510.5683937315562L303.3333333333333,510.5683937315562" style="fill: none; stroke: #ff9da6; stroke-width: 4; opacity: 0.7;"></path></g></g><path class="foreground" d="" style="display: none; fill: none;"></path></g><g transform="translate(0,0)"><path class="background" d="M0,0h650v800h-650Z" style="fill: none;"></path><g><g class="mark-line role-mark layer_0_marks"><path d="M0,660.2059991327963L21.666666666666668,660.2059991327963L43.333333333333336,630.9803919971487L65,630.9803919971487L86.66666666666667,619.3820026016114L108.33333333333333,600L130,570.7743928643524L151.66666666666666,564.7817481888637L173.33333333333334,564.7817481888637L195,564.7817481888637L216.66666666666666,559.1760034688151L238.33333333333331,559.1760034688151" style="fill: none; stroke: #9d755d; stroke-width: 4; opacity: 0.7;"></path></g></g><path class="foreground" d="" style="display: none; fill: none;"></path></g><g transform="translate(0,0)"><path class="background" d="M0,0h650v800h-650Z" style="fill: none;"></path><g><g class="mark-line role-mark layer_0_marks"><path d="M0,591.721462968355L21.666666666666668,584.1637507904751L43.333333333333336,559.1760034688151L65,535.5561410532162L86.66666666666667,523.9577516576788L108.33333333333333,513.7272471682027L130,498.97000433601886L151.66666666666666,493.7042165915489L173.33333333333334,486.359655186601L195,479.5880017344075L216.66666666666666,471.3094647027626" style="fill: none; stroke: #bab0ac; stroke-width: 4; opacity: 0.7;"></path></g></g><path class="foreground" d="" style="display: none; fill: none;"></path></g><g transform="translate(0,0)"><path class="background" d="M0,0h650v800h-650Z" style="fill: none;"></path><g><g class="mark-line role-mark layer_0_marks"><path d="M0,644.3697499232713L21.666666666666668,644.3697499232713L43.333333333333336,644.3697499232713L65,609.1514981121351L86.66666666666667,591.721462968355L108.33333333333333,570.7743928643524L130,564.7817481888637L151.66666666666666,553.9102157243452L173.33333333333334,553.9102157243452L195,539.7940008672037L216.66666666666666,527.6544327964814L238.33333333333331,513.7272471682027L260,504.5757490560675L281.6666666666667,496.2972120244226L303.3333333333333,491.18639112994487" style="fill: none; stroke: #4c78a8; stroke-width: 4; opacity: 0.7;"></path></g></g><path class="foreground" d="" style="display: none; fill: none;"></path></g><g transform="translate(0,0)"><path class="background" d="M0,0h650v800h-650Z" style="fill: none;"></path><g><g class="mark-line role-mark layer_0_marks"><path d="M0,660.2059991327963L21.666666666666668,660.2059991327963" style="fill: none; stroke: #f58518; stroke-width: 4; opacity: 0.7;"></path></g></g><path class="foreground" d="" style="display: none; fill: none;"></path></g><g transform="translate(0,0)"><path class="background" d="M0,0h650v800h-650Z" style="fill: none;"></path><g><g class="mark-line role-mark layer_0_marks"><path d="M0,660.2059991327963L21.666666666666668,660.2059991327963" style="fill: none; stroke: #e45756; stroke-width: 4; opacity: 0.7;"></path></g></g><path class="foreground" d="" style="display: none; fill: none;"></path></g><g transform="translate(0,0)"><path class="background" d="M0,0h650v800h-650Z" style="fill: none;"></path><g><g class="mark-line role-mark layer_0_marks"><path d="M0,660.2059991327963L21.666666666666668,660.2059991327963L43.333333333333336,644.3697499232713L65,630.9803919971487L86.66666666666667,609.1514981121351L108.33333333333333,591.721462968355L130,570.7743928643524L151.66666666666666,570.7743928643524L173.33333333333334,535.5561410532162L195,535.5561410532162L216.66666666666666,517.0053304058364L238.33333333333331,498.97000433601886" style="fill: none; stroke: #72b7b2; stroke-width: 4; opacity: 0.7;"></path></g></g><path class="foreground" d="" style="display: none; fill: none;"></path></g><g transform="translate(0,0)"><path class="background" d="M0,0h650v800h-650Z" style="fill: none;"></path><g><g class="mark-line role-mark layer_0_marks"><path d="M0,630.9803919971487L21.666666666666668,591.721462968355L43.333333333333336,591.721462968355L65,577.2113295386326L86.66666666666667,577.2113295386326L108.33333333333333,559.1760034688151L130,535.5561410532162L151.66666666666666,523.9577516576788L173.33333333333334,517.0053304058364L195,510.5683937315562" style="fill: none; stroke: #54a24b; stroke-width: 4; opacity: 0.7;"></path></g></g><path class="foreground" d="" style="display: none; fill: none;"></path></g><g transform="translate(0,0)"><path class="background" d="M0,0h650v800h-650Z" style="fill: none;"></path><g><g class="mark-line role-mark layer_0_marks"><path d="M0,660.2059991327963L21.666666666666668,660.2059991327963L43.333333333333336,644.3697499232713L65,644.3697499232713L86.66666666666667,619.3820026016114L108.33333333333333,609.1514981121351L130,600L151.66666666666666,570.7743928643524L173.33333333333334,535.5561410532162L195,504.5757490560675L216.66666666666666,493.7042165915489L238.33333333333331,467.44843366368525L260,450.36239459875986L281.6666666666667,437.41732867142895L303.3333333333333,428.5335007137464L325,414.1162148571414L346.6666666666667,398.27996564761656L368.3333333333333,387.86043192927775L390,368.9327925069877L411.66666666666663,359.1760034688151L433.3333333333333,346.0974111564167" style="fill: none; stroke: #eeca3b; stroke-width: 4; opacity: 0.7;"></path></g></g><path class="foreground" d="" style="display: none; fill: none;"></path></g><g transform="translate(0,0)"><path class="background" d="M0,0h650v800h-650Z" style="fill: none;"></path><g><g class="mark-line role-mark layer_0_marks"><path d="M0,660.2059991327963L21.666666666666668,644.3697499232713L43.333333333333336,630.9803919971487L65,630.9803919971487L86.66666666666667,630.9803919971487L108.33333333333333,630.9803919971487L130,619.3820026016114L151.66666666666666,619.3820026016114L173.33333333333334,619.3820026016114L195,619.3820026016114L216.66666666666666,609.1514981121351" style="fill: none; stroke: #b279a2; stroke-width: 4; opacity: 0.7;"></path></g></g><path class="foreground" d="" style="display: none; fill: none;"></path></g><g transform="translate(0,0)"><path class="background" d="M0,0h650v800h-650Z" style="fill: none;"></path><g><g class="mark-line role-mark layer_0_marks"><path d="M0,660.2059991327963L21.666666666666668,630.9803919971487L43.333333333333336,600L65,570.7743928643524L86.66666666666667,564.7817481888637L108.33333333333333,553.9102157243452L130,523.9577516576788L151.66666666666666,517.0053304058364L173.33333333333334,513.7272471682027L195,501.72766123314545L216.66666666666666,496.2972120244226L238.33333333333331,481.7870785947002L260,477.4432286560529L281.6666666666667,473.30630888408274L303.3333333333333,471.3094647027626" style="fill: none; stroke: #ff9da6; stroke-width: 4; opacity: 0.7;"></path></g></g><path class="foreground" d="" style="display: none; fill: none;"></path></g><g transform="translate(0,0)"><path class="background" d="M0,0h650v800h-650Z" style="fill: none;"></path><g><g class="mark-line role-mark layer_0_marks"><path d="M0,644.3697499232713L21.666666666666668,619.3820026016114L43.333333333333336,609.1514981121351L65,600L86.66666666666667,577.2113295386326L108.33333333333333,553.9102157243452L130,548.9454989793389L151.66666666666666,527.6544327964814L173.33333333333334,510.5683937315562L195,477.4432286560529L216.66666666666666,465.5804284128566L238.33333333333331,447.31440128741264L260,438.76400520322267L281.6666666666667,429.748330256185L303.3333333333333,410.12199867101754L325,394.938826947046L346.6666666666667,382.7280338650504L368.3333333333333,366.5365330503649L390,361.9336603659417L411.66666666666663,353.9102157243453L433.3333333333333,347.98572240298506L454.99999999999994,329.95039633316753L476.66666666666663,315.3508252126385L498.33333333333337,304.28670088123135L520,293.44912420150047" style="fill: none; stroke: #9d755d; stroke-width: 4; opacity: 0.7;"></path></g></g><path class="foreground" d="" style="display: none; fill: none;"></path></g><g transform="translate(0,0)"><path class="background" d="M0,0h650v800h-650Z" style="fill: none;"></path><g><g class="mark-line role-mark layer_0_marks"><path d="M0,644.3697499232713L21.666666666666668,630.9803919971487L43.333333333333336,630.9803919971487L65,619.3820026016114L86.66666666666667,591.721462968355L108.33333333333333,591.721462968355L130,591.721462968355L151.66666666666666,577.2113295386326L173.33333333333334,553.9102157243452L195,548.9454989793389L216.66666666666666,544.2492798094343L238.33333333333331,539.7940008672037L260,527.6544327964814L281.6666666666667,523.9577516576788" style="fill: none; stroke: #bab0ac; stroke-width: 4; opacity: 0.7;"></path></g></g><path class="foreground" d="" style="display: none; fill: none;"></path></g><g transform="translate(0,0)"><path class="background" d="M0,0h650v800h-650Z" style="fill: none;"></path><g><g class="mark-line role-mark layer_0_marks"><path d="M0,660.2059991327963L21.666666666666668,660.2059991327963L43.333333333333336,644.3697499232713L65,630.9803919971487L86.66666666666667,630.9803919971487L108.33333333333333,619.3820026016114L130,619.3820026016114L151.66666666666666,600L173.33333333333334,570.7743928643524L195,564.7817481888637L216.66666666666666,559.1760034688151L238.33333333333331,559.1760034688151L260,553.9102157243452L281.6666666666667,548.9454989793389L303.3333333333333,544.2492798094343L325,535.5561410532162L346.6666666666667,523.9577516576788" style="fill: none; stroke: #4c78a8; stroke-width: 4; opacity: 0.7;"></path></g></g><path class="foreground" d="" style="display: none; fill: none;"></path></g><g transform="translate(0,0)"><path class="background" d="M0,0h650v800h-650Z" style="fill: none;"></path><g><g class="mark-line role-mark layer_0_marks"><path d="M0,660.2059991327963L21.666666666666668,660.2059991327963L43.333333333333336,600L65,600L86.66666666666667,591.721462968355L108.33333333333333,564.7817481888637L130,553.9102157243452L151.66666666666666,548.9454989793389L173.33333333333334,548.9454989793389L195,535.5561410532162L216.66666666666666,523.9577516576788L238.33333333333331,517.0053304058364L260,510.5683937315562L281.6666666666667,507.5204004202088L303.3333333333333,504.5757490560675L325,501.72766123314545" style="fill: none; stroke: #f58518; stroke-width: 4; opacity: 0.7;"></path></g></g><path class="foreground" d="" style="display: none; fill: none;"></path></g><g transform="translate(0,0)"><path class="background" d="M0,0h650v800h-650Z" style="fill: none;"></path><g><g class="mark-line role-mark layer_0_marks"><path d="M0,660.2059991327963L21.666666666666668,609.1514981121351L43.333333333333336,564.7817481888637L65,531.5154638355588L86.66666666666667,504.5757490560675L108.33333333333333,479.5880017344075L130,463.75175252488265L151.66666666666666,447.31440128741264L173.33333333333334,433.4982174587528L195,415.14414278762376L216.66666666666666,401.754784861501L238.33333333333331,389.3843113033161L260,373.2922183259565L281.6666666666667,357.0312303904604L303.3333333333333,345.1684301472641L325,331.91117703197637L346.6666666666667,317.00533040583645L368.3333333333333,312.1334612339475L390,303.4252832782493L411.66666666666663,286.12521807699085L433.3333333333333,273.71124619736565L454.99999999999994,260.90366470196057L476.66666666666663,253.52124803540627L498.33333333333337,250.36239459875995L520,246.12453478477238L541.6666666666667,243.21928414545306L563.3333333333334,231.60303908197727L585,221.8040806020623L606.6666666666666,213.81019376649544L628.3333333333334,206.49040475622763" style="fill: none; stroke: #e45756; stroke-width: 4; opacity: 0.7;"></path></g></g><path class="foreground" d="" style="display: none; fill: none;"></path></g></g><g class="mark-group role-scope layer_1_pathgroup"><g transform="translate(0,0)"><path class="background" d="M0,0h650v800h-650Z" style="fill: none;"></path><g><g class="mark-line role-mark layer_1_marks" style="pointer-events: none;"><path d="M0,660.2059991327963L21.666666666666668,660.2059991327963" style="fill: none; stroke: #4c78a8; stroke-width: 4; opacity: 0.5;"></path></g></g><path class="foreground" d="" style="display: none; fill: none;"></path></g><g transform="translate(0,0)"><path class="background" d="M0,0h650v800h-650Z" style="fill: none;"></path><g><g class="mark-line role-mark layer_1_marks" style="pointer-events: none;"><path d="M0,660.2059991327963L21.666666666666668,660.2059991327963L43.333333333333336,630.9803919971487" style="fill: none; stroke: #f58518; stroke-width: 4; opacity: 0.5;"></path></g></g><path class="foreground" d="" style="display: none; fill: none;"></path></g><g transform="translate(0,0)"><path class="background" d="M0,0h650v800h-650Z" style="fill: none;"></path><g><g class="mark-line role-mark layer_1_marks" style="pointer-events: none;"><path d="M0,630.9803919971487L21.666666666666668,584.1637507904751L43.333333333333336,564.7817481888637L65,544.2492798094343L86.66666666666667,527.6544327964814L108.33333333333333,504.5757490560675L130,479.5880017344075L151.66666666666666,460.20599913279625L173.33333333333334,455.1448260798422L195,441.5216621003493L216.66666666666666,429.748330256185L238.33333333333331,409.1514981121351L260,394.938826947046L281.6666666666667,381.31566296755295L303.3333333333333,367.72639955300514" style="fill: none; stroke: #e45756; stroke-width: 4; opacity: 0.5;"></path></g></g><path class="foreground" d="" style="display: none; fill: none;"></path></g><g transform="translate(0,0)"><path class="background" d="M0,0h650v800h-650Z" style="fill: none;"></path><g><g class="mark-line role-mark layer_1_marks" style="pointer-events: none;"><path d="M0,660.2059991327963L21.666666666666668,660.2059991327963L43.333333333333336,644.3697499232713L65,630.9803919971487L86.66666666666667,630.9803919971487L108.33333333333333,600L130,600" style="fill: none; stroke: #72b7b2; stroke-width: 4; opacity: 0.5;"></path></g></g><path class="foreground" d="" style="display: none; fill: none;"></path></g><g transform="translate(0,0)"><path class="background" d="M0,0h650v800h-650Z" style="fill: none;"></path><g><g class="mark-line role-mark layer_1_marks" style="pointer-events: none;"><path d="M0,644.3697499232713L21.666666666666668,630.9803919971487L43.333333333333336,609.1514981121351L65,600L86.66666666666667,570.7743928643524L108.33333333333333,548.9454989793389L130,544.2492798094343L151.66666666666666,544.2492798094343L173.33333333333334,535.5561410532162L195,535.5561410532162L216.66666666666666,531.5154638355588L238.33333333333331,517.0053304058364L260,510.5683937315562L281.6666666666667,493.7042165915489L303.3333333333333,488.7394998465426" style="fill: none; stroke: #54a24b; stroke-width: 4; opacity: 0.5;"></path></g></g><path class="foreground" d="" style="display: none; fill: none;"></path></g><g transform="translate(0,0)"><path class="background" d="M0,0h650v800h-650Z" style="fill: none;"></path><g><g class="mark-line role-mark layer_1_marks" style="pointer-events: none;"><path d="M0,660.2059991327963L21.666666666666668,660.2059991327963L43.333333333333336,630.9803919971487L65,609.1514981121351L86.66666666666667,535.5561410532162L108.33333333333333,531.5154638355588L130,527.6544327964814L151.66666666666666,491.18639112994487L173.33333333333334,491.18639112994487L195,479.5880017344075L216.66666666666666,448.82502886550174L238.33333333333331,448.82502886550174L260,434.7850394598348L281.6666666666667,426.15365605380487L303.3333333333333,423.83728154384175L325,399.1357252434715L346.6666666666667,390.9354042426686L368.3333333333333,381.31566296755295L390,373.9332463009988L411.66666666666663,361.9336603659417" style="fill: none; stroke: #eeca3b; stroke-width: 4; opacity: 0.5;"></path></g></g><path class="foreground" d="" style="display: none; fill: none;"></path></g><g transform="translate(0,0)"><path class="background" d="M0,0h650v800h-650Z" style="fill: none;"></path><g><g class="mark-line role-mark layer_1_marks" style="pointer-events: none;"><path d="M0,660.2059991327963L21.666666666666668,644.3697499232713L43.333333333333336,630.9803919971487L65,630.9803919971487L86.66666666666667,600L108.33333333333333,584.1637507904751L130,584.1637507904751L151.66666666666666,577.2113295386326L173.33333333333334,570.7743928643524L195,570.7743928643524L216.66666666666666,570.7743928643524L238.33333333333331,564.7817481888637L260,553.9102157243452L281.6666666666667,553.9102157243452L303.3333333333333,539.7940008672037L325,523.9577516576788" style="fill: none; stroke: #b279a2; stroke-width: 4; opacity: 0.5;"></path></g></g><path class="foreground" d="" style="display: none; fill: none;"></path></g><g transform="translate(0,0)"><path class="background" d="M0,0h650v800h-650Z" style="fill: none;"></path><g><g class="mark-line role-mark layer_1_marks" style="pointer-events: none;"><path d="M0,660.2059991327963L21.666666666666668,644.3697499232713L43.333333333333336,644.3697499232713L65,644.3697499232713L86.66666666666667,644.3697499232713L108.33333333333333,644.3697499232713L130,630.9803919971487L151.66666666666666,619.3820026016114L173.33333333333334,609.1514981121351L195,570.7743928643524L216.66666666666666,553.9102157243452L238.33333333333331,548.9454989793389L260,535.5561410532162L281.6666666666667,510.5683937315562L303.3333333333333,510.5683937315562" style="fill: none; stroke: #ff9da6; stroke-width: 4; opacity: 0.5;"></path></g></g><path class="foreground" d="" style="display: none; fill: none;"></path></g><g transform="translate(0,0)"><path class="background" d="M0,0h650v800h-650Z" style="fill: none;"></path><g><g class="mark-line role-mark layer_1_marks" style="pointer-events: none;"><path d="M0,660.2059991327963L21.666666666666668,660.2059991327963L43.333333333333336,630.9803919971487L65,630.9803919971487L86.66666666666667,619.3820026016114L108.33333333333333,600L130,570.7743928643524L151.66666666666666,564.7817481888637L173.33333333333334,564.7817481888637L195,564.7817481888637L216.66666666666666,559.1760034688151L238.33333333333331,559.1760034688151" style="fill: none; stroke: #9d755d; stroke-width: 4; opacity: 0.5;"></path></g></g><path class="foreground" d="" style="display: none; fill: none;"></path></g><g transform="translate(0,0)"><path class="background" d="M0,0h650v800h-650Z" style="fill: none;"></path><g><g class="mark-line role-mark layer_1_marks" style="pointer-events: none;"><path d="M0,591.721462968355L21.666666666666668,584.1637507904751L43.333333333333336,559.1760034688151L65,535.5561410532162L86.66666666666667,523.9577516576788L108.33333333333333,513.7272471682027L130,498.97000433601886L151.66666666666666,493.7042165915489L173.33333333333334,486.359655186601L195,479.5880017344075L216.66666666666666,471.3094647027626" style="fill: none; stroke: #bab0ac; stroke-width: 4; opacity: 0.5;"></path></g></g><path class="foreground" d="" style="display: none; fill: none;"></path></g><g transform="translate(0,0)"><path class="background" d="M0,0h650v800h-650Z" style="fill: none;"></path><g><g class="mark-line role-mark layer_1_marks" style="pointer-events: none;"><path d="M0,644.3697499232713L21.666666666666668,644.3697499232713L43.333333333333336,644.3697499232713L65,609.1514981121351L86.66666666666667,591.721462968355L108.33333333333333,570.7743928643524L130,564.7817481888637L151.66666666666666,553.9102157243452L173.33333333333334,553.9102157243452L195,539.7940008672037L216.66666666666666,527.6544327964814L238.33333333333331,513.7272471682027L260,504.5757490560675L281.6666666666667,496.2972120244226L303.3333333333333,491.18639112994487" style="fill: none; stroke: #4c78a8; stroke-width: 4; opacity: 0.5;"></path></g></g><path class="foreground" d="" style="display: none; fill: none;"></path></g><g transform="translate(0,0)"><path class="background" d="M0,0h650v800h-650Z" style="fill: none;"></path><g><g class="mark-line role-mark layer_1_marks" style="pointer-events: none;"><path d="M0,660.2059991327963L21.666666666666668,660.2059991327963" style="fill: none; stroke: #f58518; stroke-width: 4; opacity: 0.5;"></path></g></g><path class="foreground" d="" style="display: none; fill: none;"></path></g><g transform="translate(0,0)"><path class="background" d="M0,0h650v800h-650Z" style="fill: none;"></path><g><g class="mark-line role-mark layer_1_marks" style="pointer-events: none;"><path d="M0,660.2059991327963L21.666666666666668,660.2059991327963" style="fill: none; stroke: #e45756; stroke-width: 4; opacity: 0.5;"></path></g></g><path class="foreground" d="" style="display: none; fill: none;"></path></g><g transform="translate(0,0)"><path class="background" d="M0,0h650v800h-650Z" style="fill: none;"></path><g><g class="mark-line role-mark layer_1_marks" style="pointer-events: none;"><path d="M0,660.2059991327963L21.666666666666668,660.2059991327963L43.333333333333336,644.3697499232713L65,630.9803919971487L86.66666666666667,609.1514981121351L108.33333333333333,591.721462968355L130,570.7743928643524L151.66666666666666,570.7743928643524L173.33333333333334,535.5561410532162L195,535.5561410532162L216.66666666666666,517.0053304058364L238.33333333333331,498.97000433601886" style="fill: none; stroke: #72b7b2; stroke-width: 4; opacity: 0.5;"></path></g></g><path class="foreground" d="" style="display: none; fill: none;"></path></g><g transform="translate(0,0)"><path class="background" d="M0,0h650v800h-650Z" style="fill: none;"></path><g><g class="mark-line role-mark layer_1_marks" style="pointer-events: none;"><path d="M0,630.9803919971487L21.666666666666668,591.721462968355L43.333333333333336,591.721462968355L65,577.2113295386326L86.66666666666667,577.2113295386326L108.33333333333333,559.1760034688151L130,535.5561410532162L151.66666666666666,523.9577516576788L173.33333333333334,517.0053304058364L195,510.5683937315562" style="fill: none; stroke: #54a24b; stroke-width: 4; opacity: 0.5;"></path></g></g><path class="foreground" d="" style="display: none; fill: none;"></path></g><g transform="translate(0,0)"><path class="background" d="M0,0h650v800h-650Z" style="fill: none;"></path><g><g class="mark-line role-mark layer_1_marks" style="pointer-events: none;"><path d="M0,660.2059991327963L21.666666666666668,660.2059991327963L43.333333333333336,644.3697499232713L65,644.3697499232713L86.66666666666667,619.3820026016114L108.33333333333333,609.1514981121351L130,600L151.66666666666666,570.7743928643524L173.33333333333334,535.5561410532162L195,504.5757490560675L216.66666666666666,493.7042165915489L238.33333333333331,467.44843366368525L260,450.36239459875986L281.6666666666667,437.41732867142895L303.3333333333333,428.5335007137464L325,414.1162148571414L346.6666666666667,398.27996564761656L368.3333333333333,387.86043192927775L390,368.9327925069877L411.66666666666663,359.1760034688151L433.3333333333333,346.0974111564167" style="fill: none; stroke: #eeca3b; stroke-width: 4; opacity: 0.5;"></path></g></g><path class="foreground" d="" style="display: none; fill: none;"></path></g><g transform="translate(0,0)"><path class="background" d="M0,0h650v800h-650Z" style="fill: none;"></path><g><g class="mark-line role-mark layer_1_marks" style="pointer-events: none;"><path d="M0,660.2059991327963L21.666666666666668,644.3697499232713L43.333333333333336,630.9803919971487L65,630.9803919971487L86.66666666666667,630.9803919971487L108.33333333333333,630.9803919971487L130,619.3820026016114L151.66666666666666,619.3820026016114L173.33333333333334,619.3820026016114L195,619.3820026016114L216.66666666666666,609.1514981121351" style="fill: none; stroke: #b279a2; stroke-width: 4; opacity: 0.5;"></path></g></g><path class="foreground" d="" style="display: none; fill: none;"></path></g><g transform="translate(0,0)"><path class="background" d="M0,0h650v800h-650Z" style="fill: none;"></path><g><g class="mark-line role-mark layer_1_marks" style="pointer-events: none;"><path d="M0,660.2059991327963L21.666666666666668,630.9803919971487L43.333333333333336,600L65,570.7743928643524L86.66666666666667,564.7817481888637L108.33333333333333,553.9102157243452L130,523.9577516576788L151.66666666666666,517.0053304058364L173.33333333333334,513.7272471682027L195,501.72766123314545L216.66666666666666,496.2972120244226L238.33333333333331,481.7870785947002L260,477.4432286560529L281.6666666666667,473.30630888408274L303.3333333333333,471.3094647027626" style="fill: none; stroke: #ff9da6; stroke-width: 4; opacity: 0.5;"></path></g></g><path class="foreground" d="" style="display: none; fill: none;"></path></g><g transform="translate(0,0)"><path class="background" d="M0,0h650v800h-650Z" style="fill: none;"></path><g><g class="mark-line role-mark layer_1_marks" style="pointer-events: none;"><path d="M0,644.3697499232713L21.666666666666668,619.3820026016114L43.333333333333336,609.1514981121351L65,600L86.66666666666667,577.2113295386326L108.33333333333333,553.9102157243452L130,548.9454989793389L151.66666666666666,527.6544327964814L173.33333333333334,510.5683937315562L195,477.4432286560529L216.66666666666666,465.5804284128566L238.33333333333331,447.31440128741264L260,438.76400520322267L281.6666666666667,429.748330256185L303.3333333333333,410.12199867101754L325,394.938826947046L346.6666666666667,382.7280338650504L368.3333333333333,366.5365330503649L390,361.9336603659417L411.66666666666663,353.9102157243453L433.3333333333333,347.98572240298506L454.99999999999994,329.95039633316753L476.66666666666663,315.3508252126385L498.33333333333337,304.28670088123135L520,293.44912420150047" style="fill: none; stroke: #9d755d; stroke-width: 4; opacity: 0.5;"></path></g></g><path class="foreground" d="" style="display: none; fill: none;"></path></g><g transform="translate(0,0)"><path class="background" d="M0,0h650v800h-650Z" style="fill: none;"></path><g><g class="mark-line role-mark layer_1_marks" style="pointer-events: none;"><path d="M0,644.3697499232713L21.666666666666668,630.9803919971487L43.333333333333336,630.9803919971487L65,619.3820026016114L86.66666666666667,591.721462968355L108.33333333333333,591.721462968355L130,591.721462968355L151.66666666666666,577.2113295386326L173.33333333333334,553.9102157243452L195,548.9454989793389L216.66666666666666,544.2492798094343L238.33333333333331,539.7940008672037L260,527.6544327964814L281.6666666666667,523.9577516576788" style="fill: none; stroke: #bab0ac; stroke-width: 4; opacity: 0.5;"></path></g></g><path class="foreground" d="" style="display: none; fill: none;"></path></g><g transform="translate(0,0)"><path class="background" d="M0,0h650v800h-650Z" style="fill: none;"></path><g><g class="mark-line role-mark layer_1_marks" style="pointer-events: none;"><path d="M0,660.2059991327963L21.666666666666668,660.2059991327963L43.333333333333336,644.3697499232713L65,630.9803919971487L86.66666666666667,630.9803919971487L108.33333333333333,619.3820026016114L130,619.3820026016114L151.66666666666666,600L173.33333333333334,570.7743928643524L195,564.7817481888637L216.66666666666666,559.1760034688151L238.33333333333331,559.1760034688151L260,553.9102157243452L281.6666666666667,548.9454989793389L303.3333333333333,544.2492798094343L325,535.5561410532162L346.6666666666667,523.9577516576788" style="fill: none; stroke: #4c78a8; stroke-width: 4; opacity: 0.5;"></path></g></g><path class="foreground" d="" style="display: none; fill: none;"></path></g><g transform="translate(0,0)"><path class="background" d="M0,0h650v800h-650Z" style="fill: none;"></path><g><g class="mark-line role-mark layer_1_marks" style="pointer-events: none;"><path d="M0,660.2059991327963L21.666666666666668,660.2059991327963L43.333333333333336,600L65,600L86.66666666666667,591.721462968355L108.33333333333333,564.7817481888637L130,553.9102157243452L151.66666666666666,548.9454989793389L173.33333333333334,548.9454989793389L195,535.5561410532162L216.66666666666666,523.9577516576788L238.33333333333331,517.0053304058364L260,510.5683937315562L281.6666666666667,507.5204004202088L303.3333333333333,504.5757490560675L325,501.72766123314545" style="fill: none; stroke: #f58518; stroke-width: 4; opacity: 0.5;"></path></g></g><path class="foreground" d="" style="display: none; fill: none;"></path></g><g transform="translate(0,0)"><path class="background" d="M0,0h650v800h-650Z" style="fill: none;"></path><g><g class="mark-line role-mark layer_1_marks" style="pointer-events: none;"><path d="M0,660.2059991327963L21.666666666666668,609.1514981121351L43.333333333333336,564.7817481888637L65,531.5154638355588L86.66666666666667,504.5757490560675L108.33333333333333,479.5880017344075L130,463.75175252488265L151.66666666666666,447.31440128741264L173.33333333333334,433.4982174587528L195,415.14414278762376L216.66666666666666,401.754784861501L238.33333333333331,389.3843113033161L260,373.2922183259565L281.6666666666667,357.0312303904604L303.3333333333333,345.1684301472641L325,331.91117703197637L346.6666666666667,317.00533040583645L368.3333333333333,312.1334612339475L390,303.4252832782493L411.66666666666663,286.12521807699085L433.3333333333333,273.71124619736565L454.99999999999994,260.90366470196057L476.66666666666663,253.52124803540627L498.33333333333337,250.36239459875995L520,246.12453478477238L541.6666666666667,243.21928414545306L563.3333333333334,231.60303908197727L585,221.8040806020623L606.6666666666666,213.81019376649544L628.3333333333334,206.49040475622763" style="fill: none; stroke: #e45756; stroke-width: 4; opacity: 0.5;"></path></g></g><path class="foreground" d="" style="display: none; fill: none;"></path></g></g><g class="mark-text role-mark layer_2_marks" style="pointer-events: none;"><text text-anchor="start" transform="translate(26.666666666666668,665.2059991327963)" style="font-family: sans-serif; font-size: 15px; fill: #4c78a8;">AC</text><text text-anchor="start" transform="translate(48.333333333333336,635.9803919971487)" style="font-family: sans-serif; font-size: 15px; fill: #f58518;">AL</text><text text-anchor="start" transform="translate(308.3333333333333,372.72639955300514)" style="font-family: sans-serif; font-size: 15px; fill: #e45756;">AM</text><text text-anchor="start" transform="translate(135,605)" style="font-family: sans-serif; font-size: 15px; fill: #72b7b2;">AP</text><text text-anchor="start" transform="translate(308.3333333333333,493.7394998465426)" style="font-family: sans-serif; font-size: 15px; fill: #54a24b;">BA</text><text text-anchor="start" transform="translate(416.66666666666663,366.9336603659417)" style="font-family: sans-serif; font-size: 15px; fill: #eeca3b;">CE</text><text text-anchor="start" transform="translate(330,528.9577516576788)" style="font-family: sans-serif; font-size: 15px; fill: #b279a2;">DF</text><text text-anchor="start" transform="translate(308.3333333333333,515.5683937315562)" style="font-family: sans-serif; font-size: 15px; fill: #ff9da6;">ES</text><text text-anchor="start" transform="translate(243.33333333333331,564.1760034688151)" style="font-family: sans-serif; font-size: 15px; fill: #9d755d;">GO</text><text text-anchor="start" transform="translate(221.66666666666666,476.3094647027626)" style="font-family: sans-serif; font-size: 15px; fill: #bab0ac;">MA</text><text text-anchor="start" transform="translate(308.3333333333333,496.18639112994487)" style="font-family: sans-serif; font-size: 15px; fill: #4c78a8;">MG</text><text text-anchor="start" transform="translate(26.666666666666668,665.2059991327963)" style="font-family: sans-serif; font-size: 15px; fill: #f58518;">MS</text><text text-anchor="start" transform="translate(26.666666666666668,665.2059991327963)" style="font-family: sans-serif; font-size: 15px; fill: #e45756;">MT</text><text text-anchor="start" transform="translate(243.33333333333331,503.97000433601886)" style="font-family: sans-serif; font-size: 15px; fill: #72b7b2;">PA</text><text text-anchor="start" transform="translate(200,515.5683937315562)" style="font-family: sans-serif; font-size: 15px; fill: #54a24b;">PB</text><text text-anchor="start" transform="translate(438.3333333333333,351.0974111564167)" style="font-family: sans-serif; font-size: 15px; fill: #eeca3b;">PE</text><text text-anchor="start" transform="translate(221.66666666666666,614.1514981121351)" style="font-family: sans-serif; font-size: 15px; fill: #b279a2;">PI</text><text text-anchor="start" transform="translate(308.3333333333333,476.3094647027626)" style="font-family: sans-serif; font-size: 15px; fill: #ff9da6;">PR</text><text text-anchor="start" transform="translate(525,298.44912420150047)" style="font-family: sans-serif; font-size: 15px; fill: #9d755d;">RJ</text><text text-anchor="start" transform="translate(286.6666666666667,528.9577516576788)" style="font-family: sans-serif; font-size: 15px; fill: #bab0ac;">RN</text><text text-anchor="start" transform="translate(351.6666666666667,528.9577516576788)" style="font-family: sans-serif; font-size: 15px; fill: #4c78a8;">RS</text><text text-anchor="start" transform="translate(330,506.72766123314545)" style="font-family: sans-serif; font-size: 15px; fill: #f58518;">SC</text><text text-anchor="start" transform="translate(633.3333333333334,211.49040475622763)" style="font-family: sans-serif; font-size: 15px; fill: #e45756;">SP</text></g><g class="mark-line role-mark layer_3_marks" style="pointer-events: none;"><path d="M0,660.2059991327963L21.666666666666668,630.1029995663981L43.333333333333336,600L65,569.8970004336019L86.66666666666667,539.7940008672037L108.33333333333333,509.6910013008056L130,479.5880017344075L151.66666666666666,449.4850021680095L173.33333333333334,419.38200260161136L195,389.27900303521324L216.66666666666666,359.1760034688151L238.33333333333331,329.073003902417L260,298.97000433601886L281.6666666666667,268.86700476962073L303.3333333333333,238.76400520322267L325,208.66100563682454L346.6666666666667,178.55800607042642" style="fill: none; stroke: lightgray; stroke-width: 2; stroke-dasharray: 2,2;"></path></g><g class="mark-line role-mark layer_4_marks" style="pointer-events: none;"><path d="M0,660.2059991327963L21.666666666666668,648.164799306237L43.333333333333336,636.1235994796778L65,624.0823996531185L86.66666666666667,612.0411998265593L108.33333333333333,600L130,587.9588001734409L151.66666666666666,575.9176003468815L173.33333333333334,563.8764005203222L195,551.8352006937631L216.66666666666666,539.7940008672037L238.33333333333331,527.7528010406446L260,515.7116012140852L281.6666666666667,503.67040138752606L303.3333333333333,491.62920156096686L325,479.5880017344075L346.6666666666667,467.5468019078483L368.3333333333333,455.50560208128906L390,443.4644022547298L411.66666666666663,431.4232024281706L433.3333333333333,419.38200260161136L454.99999999999994,407.34080277505205L476.66666666666663,395.2996029484928L498.33333333333337,383.2584031219336L520,371.21720329537436L541.6666666666667,359.1760034688151L563.3333333333334,347.1348036422559L585,335.09360381569655L606.6666666666666,323.05240398913736L628.3333333333334,311.0112041625781" style="fill: none; stroke: lightgray; stroke-width: 2; stroke-dasharray: 2,2;"></path></g><g class="mark-line role-mark layer_5_marks" style="pointer-events: none;"><path d="M0,660.2059991327963L21.666666666666668,654.1853992195166L43.333333333333336,648.164799306237L65,642.1441993929574L86.66666666666667,636.1235994796778L108.33333333333333,630.1029995663981L130,624.0823996531185L151.66666666666666,618.061799739839L173.33333333333334,612.0411998265593L195,606.0205999132796L216.66666666666666,600L238.33333333333331,593.9794000867204L260,587.9588001734409L281.6666666666667,581.9382002601612L303.3333333333333,575.9176003468815L325,569.8970004336019L346.6666666666667,563.8764005203222L368.3333333333333,557.8558006070427L390,551.8352006937631L411.66666666666663,545.8146007804834L433.3333333333333,539.7940008672037L454.99999999999994,533.7734009539241L476.66666666666663,527.7528010406446L498.33333333333337,521.732201127365L520,515.7116012140852L541.6666666666667,509.6910013008056L563.3333333333334,503.67040138752606L585,497.64980147424643L606.6666666666666,491.62920156096686L628.3333333333334,485.6086016476872" style="fill: none; stroke: lightgray; stroke-width: 2; stroke-dasharray: 2,2;"></path></g><g class="mark-text role-mark layer_6_marks" style="pointer-events: none;"><text text-anchor="middle" transform="translate(281.6666666666667,260.20599913279636) rotate(305) translate(0,4)" style="font-family: sans-serif; font-size: 13px; fill: gray;">mortes duplicam a cada 2 dias</text></g><g class="mark-text role-mark layer_7_marks" style="pointer-events: none;"><text text-anchor="middle" transform="translate(520,364.78174818886384) rotate(329) translate(0,4)" style="font-family: sans-serif; font-size: 13px; fill: gray;">a cada 5 dias</text></g><g class="mark-text role-mark layer_8_marks" style="pointer-events: none;"><text text-anchor="middle" transform="translate(520,510.5683937315562) rotate(343) translate(0,4)" style="font-family: sans-serif; font-size: 13px; fill: gray;">a cada 10 dias</text></g><g class="mark-group role-title"><g transform="translate(325,-34)"><path class="background" d="M0,0h0v0h0Z" style="pointer-events: none; fill: none;"></path><g><g class="mark-text role-title-text" style="pointer-events: none;"><text text-anchor="middle" transform="translate(0,18)" style="font-family: sans-serif; font-size: 23px; font-weight: bold; fill: #000; opacity: 1;">Total de mortes confirmadas pelo COVID-19 por estado brasileiro</text></g></g><path class="foreground" d="" style="pointer-events: none; display: none; fill: none;"></path></g></g></g><path class="foreground" d="" style="display: none; fill: none;"></path></g></g></g></svg>