<svg class="marks" width="721" height="890" viewBox="0 0 721 890" version="1.1" xmlns="http://www.w3.org/2000/svg" xmlns:xlink="http://www.w3.org/1999/xlink"><rect width="721" height="890" style="fill: white;"></rect><g transform="translate(53,39)"><g class="mark-group role-frame root" role="graphics-object" aria-roledescription="group mark container"><g transform="translate(0,0)"><path class="background" aria-hidden="true" d="M0.5,0.5h650v800h-650Z" style="fill: none; stroke: #ddd;"></path><g><g class="mark-group role-axis" role="graphics-symbol" aria-roledescription="axis" aria-label="X-axis for a linear scale with values from 0 to 50"><g transform="translate(0.5,800.5)"><path class="background" aria-hidden="true" d="M0,0h0v0h0Z" style="pointer-events: none; fill: none;"></path><g><g class="mark-rule role-axis-grid" style="pointer-events: none;"><line transform="translate(0,-800)" x2="0" y2="800" style="fill: none; stroke: #ddd; stroke-width: 1; opacity: 1;"></line><line transform="translate(26,-800)" x2="0" y2="800" style="fill: none; stroke: #ddd; stroke-width: 1; opacity: 1;"></line><line transform="translate(52,-800)" x2="0" y2="800" style="fill: none; stroke: #ddd; stroke-width: 1; opacity: 1;"></line><line transform="translate(78,-800)" x2="0" y2="800" style="fill: none; stroke: #ddd; stroke-width: 1; opacity: 1;"></line><line transform="translate(104,-800)" x2="0" y2="800" style="fill: none; stroke: #ddd; stroke-width: 1; opacity: 1;"></line><line transform="translate(130,-800)" x2="0" y2="800" style="fill: none; stroke: #ddd; stroke-width: 1; opacity: 1;"></line><line transform="translate(156,-800)" x2="0" y2="800" style="fill: none; stroke: #ddd; stroke-width: 1; opacity: 1;"></line><line transform="translate(182,-800)" x2="0" y2="800" style="fill: none; stroke: #ddd; stroke-width: 1; opacity: 1;"></line><line transform="translate(208,-800)" x2="0" y2="800" style="fill: none; stroke: #ddd; stroke-width: 1; opacity: 1;"></line><line transform="translate(234,-800)" x2="0" y2="800" style="fill: none; stroke: #ddd; stroke-width: 1; opacity: 1;"></line><line transform="translate(260,-800)" x2="0" y2="800" style="fill: none; stroke: #ddd; stroke-width: 1; opacity: 1;"></line><line transform="translate(286,-800)" x2="0" y2="800" style="fill: none; stroke: #ddd; stroke-width: 1; opacity: 1;"></line><line transform="translate(312,-800)" x2="0" y2="800" style="fill: none; stroke: #ddd; stroke-width: 1; opacity: 1;"></line><line transform="translate(338,-800)" x2="0" y2="800" style="fill: none; stroke: #ddd; stroke-width: 1; opacity: 1;"></line><line transform="translate(364,-800)" x2="0" y2="800" style="fill: none; stroke: #ddd; stroke-width: 1; opacity: 1;"></line><line transform="translate(390,-800)" x2="0" y2="800" style="fill: none; stroke: #ddd; stroke-width: 1; opacity: 1;"></line><line transform="translate(416,-800)" x2="0" y2="800" style="fill: none; stroke: #ddd; stroke-width: 1; opacity: 1;"></line><line transform="translate(442,-800)" x2="0" y2="800" style="fill: none; stroke: #ddd; stroke-width: 1; opacity: 1;"></line><line transform="translate(468,-800)" x2="0" y2="800" style="fill: none; stroke: #ddd; stroke-width: 1; opacity: 1;"></line><line transform="translate(494,-800)" x2="0" y2="800" style="fill: none; stroke: #ddd; stroke-width: 1; opacity: 1;"></line><line transform="translate(520,-800)" x2="0" y2="800" style="fill: none; stroke: #ddd; stroke-width: 1; opacity: 1;"></line><line transform="translate(546,-800)" x2="0" y2="800" style="fill: none; stroke: #ddd; stroke-width: 1; opacity: 1;"></line><line transform="translate(572,-800)" x2="0" y2="800" style="fill: none; stroke: #ddd; stroke-width: 1; opacity: 1;"></line><line transform="translate(598,-800)" x2="0" y2="800" style="fill: none; stroke: #ddd; stroke-width: 1; opacity: 1;"></line><line transform="translate(624,-800)" x2="0" y2="800" style="fill: none; stroke: #ddd; stroke-width: 1; opacity: 1;"></line><line transform="translate(650,-800)" x2="0" y2="800" style="fill: none; stroke: #ddd; stroke-width: 1; opacity: 1;"></line></g></g><path class="foreground" aria-hidden="true" d="" style="pointer-events: none; display: none; fill: none;"></path></g></g><g class="mark-group role-axis" role="graphics-symbol" aria-roledescription="axis" aria-label="Y-axis for a linear scale with values from 0 to 20"><g transform="translate(0.5,0.5)"><path class="background" aria-hidden="true" d="M0,0h0v0h0Z" style="pointer-events: none; fill: none;"></path><g><g class="mark-rule role-axis-grid" style="pointer-events: none;"><line transform="translate(0,800)" x2="650" y2="0" style="fill: none; stroke: #ddd; stroke-width: 1; opacity: 1;"></line><line transform="translate(0,760)" x2="650" y2="0" style="fill: none; stroke: #ddd; stroke-width: 1; opacity: 1;"></line><line transform="translate(0,720)" x2="650" y2="0" style="fill: none; stroke: #ddd; stroke-width: 1; opacity: 1;"></line><line transform="translate(0,680)" x2="650" y2="0" style="fill: none; stroke: #ddd; stroke-width: 1; opacity: 1;"></line><line transform="translate(0,640)" x2="650" y2="0" style="fill: none; stroke: #ddd; stroke-width: 1; opacity: 1;"></line><line transform="translate(0,600)" x2="650" y2="0" style="fill: none; stroke: #ddd; stroke-width: 1; opacity: 1;"></line><line transform="translate(0,560)" x2="650" y2="0" style="fill: none; stroke: #ddd; stroke-width: 1; opacity: 1;"></line><line transform="translate(0,520)" x2="650" y2="0" style="fill: none; stroke: #ddd; stroke-width: 1; opacity: 1;"></line><line transform="translate(0,480)" x2="650" y2="0" style="fill: none; stroke: #ddd; stroke-width: 1; opacity: 1;"></line><line transform="translate(0,440)" x2="650" y2="0" style="fill: none; stroke: #ddd; stroke-width: 1; opacity: 1;"></line><line transform="translate(0,400)" x2="650" y2="0" style="fill: none; stroke: #ddd; stroke-width: 1; opacity: 1;"></line><line transform="translate(0,360)" x2="650" y2="0" style="fill: none; stroke: #ddd; stroke-width: 1; opacity: 1;"></line><line transform="translate(0,320)" x2="650" y2="0" style="fill: none; stroke: #ddd; stroke-width: 1; opacity: 1;"></line><line transform="translate(0,280)" x2="650" y2="0" style="fill: none; stroke: #ddd; stroke-width: 1; opacity: 1;"></line><line transform="translate(0,240)" x2="650" y2="0" style="fill: none; stroke: #ddd; stroke-width: 1; opacity: 1;"></line><line transform="translate(0,200)" x2="650" y2="0" style="fill: none; stroke: #ddd; stroke-width: 1; opacity: 1;"></line><line transform="translate(0,160)" x2="650" y2="0" style="fill: none; stroke: #ddd; stroke-width: 1; opacity: 1;"></line><line transform="translate(0,120)" x2="650" y2="0" style="fill: none; stroke: #ddd; stroke-width: 1; opacity: 1;"></line><line transform="translate(0,80)" x2="650" y2="0" style="fill: none; stroke: #ddd; stroke-width: 1; opacity: 1;"></line><line transform="translate(0,40)" x2="650" y2="0" style="fill: none; stroke: #ddd; stroke-width: 1; opacity: 1;"></line><line transform="translate(0,0)" x2="650" y2="0" style="fill: none; stroke: #ddd; stroke-width: 1; opacity: 1;"></line></g></g><path class="foreground" aria-hidden="true" d="" style="pointer-events: none; display: none; fill: none;"></path></g></g><g class="mark-group role-axis" role="graphics-symbol" aria-roledescription="axis" aria-label="X-axis titled 'Dias a partir da 5a morte no estado' for a linear scale with values from 0 to 50"><g transform="translate(0.5,800.5)"><path class="background" aria-hidden="true" d="M0,0h0v0h0Z" style="pointer-events: none; fill: none;"></path><g><g class="mark-rule role-axis-tick" style="pointer-events: none;"><line transform="translate(0,0)" x2="0" y2="5" style="fill: none; stroke: #888; stroke-width: 1; opacity: 1;"></line><line transform="translate(26,0)" x2="0" y2="5" style="fill: none; stroke: #888; stroke-width: 1; opacity: 1;"></line><line transform="translate(52,0)" x2="0" y2="5" style="fill: none; stroke: #888; stroke-width: 1; opacity: 1;"></line><line transform="translate(78,0)" x2="0" y2="5" style="fill: none; stroke: #888; stroke-width: 1; opacity: 1;"></line><line transform="translate(104,0)" x2="0" y2="5" style="fill: none; stroke: #888; stroke-width: 1; opacity: 1;"></line><line transform="translate(130,0)" x2="0" y2="5" style="fill: none; stroke: #888; stroke-width: 1; opacity: 1;"></line><line transform="translate(156,0)" x2="0" y2="5" style="fill: none; stroke: #888; stroke-width: 1; opacity: 1;"></line><line transform="translate(182,0)" x2="0" y2="5" style="fill: none; stroke: #888; stroke-width: 1; opacity: 1;"></line><line transform="translate(208,0)" x2="0" y2="5" style="fill: none; stroke: #888; stroke-width: 1; opacity: 1;"></line><line transform="translate(234,0)" x2="0" y2="5" style="fill: none; stroke: #888; stroke-width: 1; opacity: 1;"></line><line transform="translate(260,0)" x2="0" y2="5" style="fill: none; stroke: #888; stroke-width: 1; opacity: 1;"></line><line transform="translate(286,0)" x2="0" y2="5" style="fill: none; stroke: #888; stroke-width: 1; opacity: 1;"></line><line transform="translate(312,0)" x2="0" y2="5" style="fill: none; stroke: #888; stroke-width: 1; opacity: 1;"></line><line transform="translate(338,0)" x2="0" y2="5" style="fill: none; stroke: #888; stroke-width: 1; opacity: 1;"></line><line transform="translate(364,0)" x2="0" y2="5" style="fill: none; stroke: #888; stroke-width: 1; opacity: 1;"></line><line transform="translate(390,0)" x2="0" y2="5" style="fill: none; stroke: #888; stroke-width: 1; opacity: 1;"></line><line transform="translate(416,0)" x2="0" y2="5" style="fill: none; stroke: #888; stroke-width: 1; opacity: 1;"></line><line transform="translate(442,0)" x2="0" y2="5" style="fill: none; stroke: #888; stroke-width: 1; opacity: 1;"></line><line transform="translate(468,0)" x2="0" y2="5" style="fill: none; stroke: #888; stroke-width: 1; opacity: 1;"></line><line transform="translate(494,0)" x2="0" y2="5" style="fill: none; stroke: #888; stroke-width: 1; opacity: 1;"></line><line transform="translate(520,0)" x2="0" y2="5" style="fill: none; stroke: #888; stroke-width: 1; opacity: 1;"></line><line transform="translate(546,0)" x2="0" y2="5" style="fill: none; stroke: #888; stroke-width: 1; opacity: 1;"></line><line transform="translate(572,0)" x2="0" y2="5" style="fill: none; stroke: #888; stroke-width: 1; opacity: 1;"></line><line transform="translate(598,0)" x2="0" y2="5" style="fill: none; stroke: #888; stroke-width: 1; opacity: 1;"></line><line transform="translate(624,0)" x2="0" y2="5" style="fill: none; stroke: #888; stroke-width: 1; opacity: 1;"></line><line transform="translate(650,0)" x2="0" y2="5" style="fill: none; stroke: #888; stroke-width: 1; opacity: 1;"></line></g><g class="mark-text role-axis-label" style="pointer-events: none;"><text text-anchor="start" transform="translate(0,19)" style="font-family: sans-serif; font-size: 15px; fill: #000; opacity: 1;">0</text><text text-anchor="middle" transform="translate(26,19)" style="font-family: sans-serif; font-size: 15px; fill: #000; opacity: 1;">2</text><text text-anchor="middle" transform="translate(52,19)" style="font-family: sans-serif; font-size: 15px; fill: #000; opacity: 1;">4</text><text text-anchor="middle" transform="translate(78,19)" style="font-family: sans-serif; font-size: 15px; fill: #000; opacity: 1;">6</text><text text-anchor="middle" transform="translate(104,19)" style="font-family: sans-serif; font-size: 15px; fill: #000; opacity: 1;">8</text><text text-anchor="middle" transform="translate(130,19)" style="font-family: sans-serif; font-size: 15px; fill: #000; opacity: 1;">10</text><text text-anchor="middle" transform="translate(156,19)" style="font-family: sans-serif; font-size: 15px; fill: #000; opacity: 1;">12</text><text text-anchor="middle" transform="translate(182.00000000000003,19)" style="font-family: sans-serif; font-size: 15px; fill: #000; opacity: 1;">14</text><text text-anchor="middle" transform="translate(208,19)" style="font-family: sans-serif; font-size: 15px; fill: #000; opacity: 1;">16</text><text text-anchor="middle" transform="translate(234,19)" style="font-family: sans-serif; font-size: 15px; fill: #000; opacity: 1;">18</text><text text-anchor="middle" transform="translate(260,19)" style="font-family: sans-serif; font-size: 15px; fill: #000; opacity: 1;">20</text><text text-anchor="middle" transform="translate(286,19)" style="font-family: sans-serif; font-size: 15px; fill: #000; opacity: 1;">22</text><text text-anchor="middle" transform="translate(312,19)" style="font-family: sans-serif; font-size: 15px; fill: #000; opacity: 1;">24</text><text text-anchor="middle" transform="translate(338,19)" style="font-family: sans-serif; font-size: 15px; fill: #000; opacity: 1;">26</text><text text-anchor="middle" transform="translate(364.00000000000006,19)" style="font-family: sans-serif; font-size: 15px; fill: #000; opacity: 1;">28</text><text text-anchor="middle" transform="translate(390,19)" style="font-family: sans-serif; font-size: 15px; fill: #000; opacity: 1;">30</text><text text-anchor="middle" transform="translate(416,19)" style="font-family: sans-serif; font-size: 15px; fill: #000; opacity: 1;">32</text><text text-anchor="middle" transform="translate(442.00000000000006,19)" style="font-family: sans-serif; font-size: 15px; fill: #000; opacity: 1;">34</text><text text-anchor="middle" transform="translate(468,19)" style="font-family: sans-serif; font-size: 15px; fill: #000; opacity: 1;">36</text><text text-anchor="middle" transform="translate(494,19)" style="font-family: sans-serif; font-size: 15px; fill: #000; opacity: 1;">38</text><text text-anchor="middle" transform="translate(520,19)" style="font-family: sans-serif; font-size: 15px; fill: #000; opacity: 1;">40</text><text text-anchor="middle" transform="translate(546,19)" style="font-family: sans-serif; font-size: 15px; fill: #000; opacity: 1;">42</text><text text-anchor="middle" transform="translate(572,19)" style="font-family: sans-serif; font-size: 15px; fill: #000; opacity: 1;">44</text><text text-anchor="middle" transform="translate(598,19)" style="font-family: sans-serif; font-size: 15px; fill: #000; opacity: 1;">46</text><text text-anchor="middle" transform="translate(624,19)" style="font-family: sans-serif; font-size: 15px; fill: #000; opacity: 1;">48</text><text text-anchor="end" transform="translate(650,19)" style="font-family: sans-serif; font-size: 15px; fill: #000; opacity: 1;">50</text></g><g class="mark-rule role-axis-domain" style="pointer-events: none;"><line transform="translate(0,0)" x2="650" y2="0" style="fill: none; stroke: #888; stroke-width: 1; opacity: 1;"></line></g><g class="mark-text role-axis-title" style="pointer-events: none;"><text text-anchor="middle" transform="translate(325,42)" style="font-family: sans-serif; font-size: 20px; font-weight: bold; fill: #000; opacity: 1;">Dias a partir da 5a morte no estado</text></g></g><path class="foreground" aria-hidden="true" d="" style="pointer-events: none; display: none; fill: none;"></path></g></g><g class="mark-group role-axis" role="graphics-symbol" aria-roledescription="axis" aria-label="Y-axis titled 'Mortes a cada 100 mil habitantes' for a linear scale with values from 0 to 20"><g transform="translate(0.5,0.5)"><path class="background" aria-hidden="true" d="M0,0h0v0h0Z" style="pointer-events: none; fill: none;"></path><g><g class="mark-rule role-axis-tick" style="pointer-events: none;"><line transform="translate(0,800)" x2="-5" y2="0" style="fill: none; stroke: #888; stroke-width: 1; opacity: 1;"></line><line transform="translate(0,760)" x2="-5" y2="0" style="fill: none; stroke: #888; stroke-width: 1; opacity: 1;"></line><line transform="translate(0,720)" x2="-5" y2="0" style="fill: none; stroke: #888; stroke-width: 1; opacity: 1;"></line><line transform="translate(0,680)" x2="-5" y2="0" style="fill: none; stroke: #888; stroke-width: 1; opacity: 1;"></line><line transform="translate(0,640)" x2="-5" y2="0" style="fill: none; stroke: #888; stroke-width: 1; opacity: 1;"></line><line transform="translate(0,600)" x2="-5" y2="0" style="fill: none; stroke: #888; stroke-width: 1; opacity: 1;"></line><line transform="translate(0,560)" x2="-5" y2="0" style="fill: none; stroke: #888; stroke-width: 1; opacity: 1;"></line><line transform="translate(0,520)" x2="-5" y2="0" style="fill: none; stroke: #888; stroke-width: 1; opacity: 1;"></line><line transform="translate(0,480)" x2="-5" y2="0" style="fill: none; stroke: #888; stroke-width: 1; opacity: 1;"></line><line transform="translate(0,440)" x2="-5" y2="0" style="fill: none; stroke: #888; stroke-width: 1; opacity: 1;"></line><line transform="translate(0,400)" x2="-5" y2="0" style="fill: none; stroke: #888; stroke-width: 1; opacity: 1;"></line><line transform="translate(0,360)" x2="-5" y2="0" style="fill: none; stroke: #888; stroke-width: 1; opacity: 1;"></line><line transform="translate(0,320)" x2="-5" y2="0" style="fill: none; stroke: #888; stroke-width: 1; opacity: 1;"></line><line transform="translate(0,280)" x2="-5" y2="0" style="fill: none; stroke: #888; stroke-width: 1; opacity: 1;"></line><line transform="translate(0,240)" x2="-5" y2="0" style="fill: none; stroke: #888; stroke-width: 1; opacity: 1;"></line><line transform="translate(0,200)" x2="-5" y2="0" style="fill: none; stroke: #888; stroke-width: 1; opacity: 1;"></line><line transform="translate(0,160)" x2="-5" y2="0" style="fill: none; stroke: #888; stroke-width: 1; opacity: 1;"></line><line transform="translate(0,120)" x2="-5" y2="0" style="fill: none; stroke: #888; stroke-width: 1; opacity: 1;"></line><line transform="translate(0,80)" x2="-5" y2="0" style="fill: none; stroke: #888; stroke-width: 1; opacity: 1;"></line><line transform="translate(0,40)" x2="-5" y2="0" style="fill: none; stroke: #888; stroke-width: 1; opacity: 1;"></line><line transform="translate(0,0)" x2="-5" y2="0" style="fill: none; stroke: #888; stroke-width: 1; opacity: 1;"></line></g><g class="mark-text role-axis-label" style="pointer-events: none;"><text text-anchor="end" transform="translate(-7,805)" style="font-family: sans-serif; font-size: 15px; fill: #000; opacity: 1;">0</text><text text-anchor="end" transform="translate(-7,765)" style="font-family: sans-serif; font-size: 15px; fill: #000; opacity: 1;">1</text><text text-anchor="end" transform="translate(-7,725)" style="font-family: sans-serif; font-size: 15px; fill: #000; opacity: 1;">2</text><text text-anchor="end" transform="translate(-7,685)" style="font-family: sans-serif; font-size: 15px; fill: #000; opacity: 1;">3</text><text text-anchor="end" transform="translate(-7,645)" style="font-family: sans-serif; font-size: 15px; fill: #000; opacity: 1;">4</text><text text-anchor="end" transform="translate(-7,605)" style="font-family: sans-serif; font-size: 15px; fill: #000; opacity: 1;">5</text><text text-anchor="end" transform="translate(-7,565)" style="font-family: sans-serif; font-size: 15px; fill: #000; opacity: 1;">6</text><text text-anchor="end" transform="translate(-7,525)" style="font-family: sans-serif; font-size: 15px; fill: #000; opacity: 1;">7</text><text text-anchor="end" transform="translate(-7,485)" style="font-family: sans-serif; font-size: 15px; fill: #000; opacity: 1;">8</text><text text-anchor="end" transform="translate(-7,445.00000000000006)" style="font-family: sans-serif; font-size: 15px; fill: #000; opacity: 1;">9</text><text text-anchor="end" transform="translate(-7,405)" style="font-family: sans-serif; font-size: 15px; fill: #000; opacity: 1;">10</text><text text-anchor="end" transform="translate(-7,364.99999999999994)" style="font-family: sans-serif; font-size: 15px; fill: #000; opacity: 1;">11</text><text text-anchor="end" transform="translate(-7,325)" style="font-family: sans-serif; font-size: 15px; fill: #000; opacity: 1;">12</text><text text-anchor="end" transform="translate(-7,285)" style="font-family: sans-serif; font-size: 15px; fill: #000; opacity: 1;">13</text><text text-anchor="end" transform="translate(-7,245.00000000000003)" style="font-family: sans-serif; font-size: 15px; fill: #000; opacity: 1;">14</text><text text-anchor="end" transform="translate(-7,205)" style="font-family: sans-serif; font-size: 15px; fill: #000; opacity: 1;">15</text><text text-anchor="end" transform="translate(-7,164.99999999999997)" style="font-family: sans-serif; font-size: 15px; fill: #000; opacity: 1;">16</text><text text-anchor="end" transform="translate(-7,125.00000000000001)" style="font-family: sans-serif; font-size: 15px; fill: #000; opacity: 1;">17</text><text text-anchor="end" transform="translate(-7,84.99999999999999)" style="font-family: sans-serif; font-size: 15px; fill: #000; opacity: 1;">18</text><text text-anchor="end" transform="translate(-7,45.000000000000036)" style="font-family: sans-serif; font-size: 15px; fill: #000; opacity: 1;">19</text><text text-anchor="end" transform="translate(-7,5)" style="font-family: sans-serif; font-size: 15px; fill: #000; opacity: 1;">20</text></g><g class="mark-rule role-axis-domain" style="pointer-events: none;"><line transform="translate(0,800)" x2="0" y2="-800" style="fill: none; stroke: #888; stroke-width: 1; opacity: 1;"></line></g><g class="mark-text role-axis-title" style="pointer-events: none;"><text text-anchor="middle" transform="translate(-27.6845703125,400) rotate(-90) translate(0,-4)" style="font-family: sans-serif; font-size: 20px; font-weight: bold; fill: #000; opacity: 1;">Mortes a cada 100 mil habitantes</text></g></g><path class="foreground" aria-hidden="true" d="" style="pointer-events: none; display: none; fill: none;"></path></g></g><g class="mark-group role-scope layer_0_layer_0_pathgroup" role="graphics-object" aria-roledescription="group mark container"><g transform="translate(0,0)"><path class="background" aria-hidden="true" d="M0,0h650v800h-650Z" style="fill: none;"></path><g><g class="mark-line role-mark layer_0_layer_0_marks" role="graphics-symbol" aria-roledescription="line mark container"><path d="M0,777.3225918009831L13,777.3225918009831L26,772.7871101611797L39,772.7871101611797L52,763.716146881573L65,763.716146881573L78,763.716146881573L91.00000000000001,754.6451836019662L104,750.1097019621627L117,750.1097019621627L130,750.1097019621627L143,736.5032570427526L156,727.4322937631458L169,718.361330483539L182.00000000000003,713.8258488437357L195,713.8258488437357L208,700.2194039243255L221.00000000000003,686.6129590049153L234,673.0065140855052L247,668.4710324457018L260,641.2581426068815L273,636.722660967078" style="fill: none; stroke: #4c78a8; stroke-width: 4; opacity: 0.7;"></path></g></g><path class="foreground" aria-hidden="true" d="" style="display: none; fill: none;"></path></g><g transform="translate(0,0)"><path class="background" aria-hidden="true" d="M0,0h650v800h-650Z" style="fill: none;"></path><g><g class="mark-line role-mark layer_0_layer_0_marks" role="graphics-symbol" aria-roledescription="line mark container"><path d="M0,794.0072338679979L13,794.0072338679979L26,791.6101274151971L39,788.0144677359959L52,782.0217016039937L65,778.4260419247926L78,777.2274886983921L91.00000000000001,776.0289354719918L104,773.631829019191L117,767.6390628871889L130,765.241956434388L143,761.6462967551868L156,759.249190302386L169,756.8520838495851L182.00000000000003,750.859317717583L195,743.6679983591806L208,736.4766790007782L221.00000000000003,730.4839128687761L234,723.2925935103736L247,713.7041676991704L260,704.115741887967L273,693.3287628503633L286,682.5417838127596" style="fill: none; stroke: #f58518; stroke-width: 4; opacity: 0.7;"></path></g></g><path class="foreground" aria-hidden="true" d="" style="display: none; fill: none;"></path></g><g transform="translate(0,0)"><path class="background" aria-hidden="true" d="M0,0h650v800h-650Z" style="fill: none;"></path><g><g class="mark-line role-mark layer_0_layer_0_marks" role="graphics-symbol" aria-roledescription="line mark container"><path d="M0,793.2442165064541L13,788.418656868207L26,785.5233210852587L39,781.6628733746611L52,777.8024256640633L65,771.0466421705174L78,761.3955228940232L91.00000000000001,751.7444036175291L104,748.8490678345808L117,740.163060485736L130,731.4770531368913L143,713.1399265115523L156,697.6981356691615L169,680.326120971472L182.00000000000003,660.0587704908343L195,644.6169796484435L208,624.3496291678057L221.00000000000003,621.4542933848575L234,613.733397963662L247,601.1869429042197L260,574.1638089300359L273,553.8964584493981L286,523.0128767646166L299,506.60597399457663L312,491.1641831521859L325,461.2457133950539L338,433.2574674932207L351,389.82743074899685L364.00000000000006,340.6067224388765L377,316.478924247641L390,271.1186636481183L403,235.40952232508968L416,173.642358955527L429,75.20094233528613L442.00000000000006,22.119786314568124" style="fill: none; stroke: #e45756; stroke-width: 4; opacity: 0.7;"></path></g></g><path class="foreground" aria-hidden="true" d="" style="display: none; fill: none;"></path></g><g transform="translate(0,0)"><path class="background" aria-hidden="true" d="M0,0h650v800h-650Z" style="fill: none;"></path><g><g class="mark-line role-mark layer_0_layer_0_marks" role="graphics-symbol" aria-roledescription="line mark container"><path d="M0,776.3518187225017L13,776.3518187225017L26,771.622182467002L39,766.8925462115022L52,766.8925462115022L65,752.7036374450032L78,752.7036374450032L91.00000000000001,752.7036374450032L104,747.9740011895036L117,738.5147286785042L130,738.5147286785042L143,733.7850924230045L156,724.3258199120052L169,714.8665474010057L182.00000000000003,705.4072748900064L195,691.2183661235074L208,677.0294573570084L221.00000000000003,667.5701848460089L234,653.3812760795099L247,639.1923673130109L260,625.0034585465119L273,610.8145497800127L286,596.6256410135138L299,568.2478234805156L312,539.8700059475176L325,535.140369692018L338,511.4921884145195" style="fill: none; stroke: #72b7b2; stroke-width: 4; opacity: 0.7;"></path></g></g><path class="foreground" aria-hidden="true" d="" style="display: none; fill: none;"></path></g><g transform="translate(0,0)"><path class="background" aria-hidden="true" d="M0,0h650v800h-650Z" style="fill: none;"></path><g><g class="mark-line role-mark layer_0_layer_0_marks" role="graphics-symbol" aria-roledescription="line mark container"><path d="M0,798.3863446025647L13,798.1174020363255L26,797.5795169038471L39,797.3105743376079L52,796.2348040726511L65,795.1590338076942L78,794.890091241455L91.00000000000001,794.890091241455L104,794.3522061089766L117,794.3522061089766L130,794.0832635427374L143,793.0074932777806L156,792.4696081453021L169,790.8559527478669L182.00000000000003,790.3180676153885L195,789.2422973504316L208,787.8975845192356L221.00000000000003,787.3596993867571L234,787.090756820518L247,785.746043989322L260,783.325560893169L273,781.980848061973L286,780.636135230777L299,780.0982500982985L312,777.6777670021456L325,774.9883413397536L338,773.1057433760791L351,771.4920879786438L364.00000000000006,768.5337197500126L377,766.9200643525772L390,765.5753515213812L403,762.0790981602715L416,760.7343853290755L429,756.9691894017266L442.00000000000006,755.6244765705305" style="fill: none; stroke: #54a24b; stroke-width: 4; opacity: 0.7;"></path></g></g><path class="foreground" aria-hidden="true" d="" style="display: none; fill: none;"></path></g><g transform="translate(0,0)"><path class="background" aria-hidden="true" d="M0,0h650v800h-650Z" style="fill: none;"></path><g><g class="mark-line role-mark layer_0_layer_0_marks" role="graphics-symbol" aria-roledescription="line mark container"><path d="M0,797.8099179617169L13,797.8099179617169L26,796.9338851464037L39,796.0578523310904L52,790.8016554392111L65,790.3636390315545L78,789.9256226238979L91.00000000000001,784.6694257320185L104,784.6694257320185L117,782.4793436937355L130,775.033064763573L143,775.033064763573L156,770.6529006870069L169,767.5867858334105L182.00000000000003,766.7107530180973L195,755.760342826682L208,751.3801787501159L221.00000000000003,745.6859654505798L234,740.867784966357L247,732.1074568132248L260,721.1570466218094L273,717.2148989529L286,709.7686200227374L299,703.1983739078883L312,695.3140785700691L325,681.2975535250574L338,671.661192556612L351,657.2066511039437L364.00000000000006,635.305830721113L377,626.1074861603241L390,617.3471580071918L403,602.8926165545234L416,584.4959274329457L429,563.9091562730848L442.00000000000006,520.54553191508L454.99999999999994,503.462892016472L468,488.1323177484905L481,451.7769559129915L494,428.1240698995344L507,404.47118388607726" style="fill: none; stroke: #eeca3b; stroke-width: 4; opacity: 0.7;"></path></g></g><path class="foreground" aria-hidden="true" d="" style="display: none; fill: none;"></path></g><g transform="translate(0,0)"><path class="background" aria-hidden="true" d="M0,0h650v800h-650Z" style="fill: none;"></path><g><g class="mark-line role-mark layer_0_layer_0_marks" role="graphics-symbol" aria-roledescription="line mark container"><path d="M0,793.36709042115L13,792.0405085053799L26,790.71392658961L39,790.71392658961L52,786.7341808422999L65,784.08101701076L78,784.08101701076L91.00000000000001,782.7544350949898L104,781.4278531792198L117,781.4278531792198L130,781.4278531792198L143,780.1012712634499L156,777.4481074319099L169,777.4481074319099L182.00000000000003,773.4683616845998L195,768.1620340215198L208,768.1620340215198L221.00000000000003,768.1620340215198L234,768.1620340215198L247,768.1620340215198L260,766.8354521057498L273,765.5088701899798L286,765.5088701899798L299,764.1822882742098L312,764.1822882742098L325,762.8557063584398L338,762.8557063584398L351,762.8557063584398L364.00000000000006,760.2025425268998L377,758.8759606111298L390,757.5493786953597L403,756.2227967795898L416,756.2227967795898L429,754.8962148638198L442.00000000000006,753.5696329480497L454.99999999999994,753.5696329480497" style="fill: none; stroke: #b279a2; stroke-width: 4; opacity: 0.7;"></path></g></g><path class="foreground" aria-hidden="true" d="" style="display: none; fill: none;"></path></g><g transform="translate(0,0)"><path class="background" aria-hidden="true" d="M0,0h650v800h-650Z" style="fill: none;"></path><g><g class="mark-line role-mark layer_0_layer_0_marks" role="graphics-symbol" aria-roledescription="line mark container"><path d="M0,795.023204309905L13,794.027845171886L26,794.027845171886L39,794.027845171886L52,794.027845171886L65,794.027845171886L78,793.0324860338671L91.00000000000001,792.037126895848L104,791.0417677578291L117,786.0649720677342L130,783.0788946536773L143,782.0835355156582L156,779.0974581016012L169,772.1299441354683L182.00000000000003,772.1299441354683L195,770.1392258594304L208,766.1577893073544L221.00000000000003,766.1577893073544L234,766.1577893073544L247,763.1717118932975L260,757.1995570651836L273,753.2181205131076L286,748.2413248230127L299,743.2645291329178L312,737.2923743048038L325,723.357346372538L338,716.3898324064052L351,707.4316001642343L364.00000000000006,699.4687270600824L377,696.4826496460255L390,685.5336991278166L403,677.5708260236646L416,667.6172346434748L429,654.6775658492279L442.00000000000006,643.7286153310191" style="fill: none; stroke: #ff9da6; stroke-width: 4; opacity: 0.7;"></path></g></g><path class="foreground" aria-hidden="true" d="" style="display: none; fill: none;"></path></g><g transform="translate(0,0)"><path class="background" aria-hidden="true" d="M0,0h650v800h-650Z" style="fill: none;"></path><g><g class="mark-line role-mark layer_0_layer_0_marks" role="graphics-symbol" aria-roledescription="line mark container"><path d="M0,797.1503289802708L13,797.1503289802708L26,796.0104605723792L39,796.0104605723792L52,795.4405263684334L65,794.3006579605418L78,792.0209211447584L91.00000000000001,791.4509869408126L104,791.4509869408126L117,791.4509869408126L130,790.8810527368668L143,790.8810527368668L156,789.7411843289751L169,789.7411843289751L182.00000000000003,789.1712501250292L195,789.1712501250292L208,788.0313817171377L221.00000000000003,786.891513309246L234,786.3215791053002L247,785.7516449013543L260,785.7516449013543L273,785.1817106974086L286,784.6117764934627L299,784.6117764934627L312,783.471908085571L325,783.471908085571L338,782.9019738816253L351,782.9019738816253L364.00000000000006,782.9019738816253L377,778.3425002500587L390,774.3529608224379L403,774.9228950263837" style="fill: none; stroke: #9d755d; stroke-width: 4; opacity: 0.7;"></path></g></g><path class="foreground" aria-hidden="true" d="" style="display: none; fill: none;"></path></g><g transform="translate(0,0)"><path class="background" aria-hidden="true" d="M0,0h650v800h-650Z" style="fill: none;"></path><g><g class="mark-line role-mark layer_0_layer_0_marks" role="graphics-symbol" aria-roledescription="line mark container"><path d="M0,793.7810778268429L13,793.2157212656467L26,790.9542950208623L39,788.1275122148819L52,786.4314425312936L65,784.7353728477052L78,781.9085900417248L91.00000000000001,780.7778769193325L104,779.0818072357442L117,777.3857375521559L130,775.1243113073715L143,772.8628850625871L156,769.4707456954105L169,766.0786063282338L182.00000000000003,762.6864669610572L195,757.0329013490962L208,750.248622614743L221.00000000000003,743.4643438803897L234,736.6800651460366L247,729.3304298504872L260,718.0232986265652L273,706.150810841447L286,695.9743927399172L299,684.6672615159952L312,673.360130292073L325,666.0104949965238L338,659.2262162621705L351,646.7883719158563L364.00000000000006,635.4812406919342L377,627.5662488351888L390,613.4323348052862" style="fill: none; stroke: #bab0ac; stroke-width: 4; opacity: 0.7;"></path></g></g><path class="foreground" aria-hidden="true" d="" style="display: none; fill: none;"></path></g><g transform="translate(0,0)"><path class="background" aria-hidden="true" d="M0,0h650v800h-650Z" style="fill: none;"></path><g><g class="mark-line role-mark layer_0_layer_0_marks" role="graphics-symbol" aria-roledescription="line mark container"><path d="M0,798.8662555173794L13,798.8662555173794L26,798.8662555173794L39,798.299383276069L52,797.9214684485288L65,797.3545962072184L78,797.1656387934484L91.00000000000001,796.7877239659082L104,796.7877239659082L117,796.2208517245978L130,795.6539794832875L143,794.898149828207L156,794.3312775868967L169,793.7644053455864L182.00000000000003,793.3864905180461L195,792.6306608629657L208,792.6306608629657L221.00000000000003,792.2527460354255L234,791.6858737941151L247,791.1190015528048L260,790.3631718977243L273,789.796299656414L286,789.0404700013336L299,788.4735977600232L312,788.2846403462531L325,786.5840236223221L338,784.8834068983911L351,784.5054920708509L364.00000000000006,783.3717475882303L377,783.3717475882303L390,783.1827901744601L403,782.99383276069L416,782.2380031056096L429,781.6711308642992L442.00000000000006,779.9705141403683" style="fill: none; stroke: #4c78a8; stroke-width: 4; opacity: 0.7;"></path></g></g><path class="foreground" aria-hidden="true" d="" style="display: none; fill: none;"></path></g><g transform="translate(0,0)"><path class="background" aria-hidden="true" d="M0,0h650v800h-650Z" style="fill: none;"></path><g><g class="mark-line role-mark layer_0_layer_0_marks" role="graphics-symbol" aria-roledescription="line mark container"><path d="M0,792.8031303504227L13,792.8031303504227L26,792.8031303504227L39,792.8031303504227L52,792.8031303504227L65,791.3637564205073L78,791.3637564205073L91.00000000000001,789.9243824905919L104,789.9243824905919L117,789.9243824905919L130,789.9243824905919L143,787.045634630761L156,787.045634630761L169,787.045634630761L182.00000000000003,787.045634630761L195,787.045634630761L208,787.045634630761L221.00000000000003,785.6062607008456L234,785.6062607008456L247,785.6062607008456L260,785.6062607008456L273,785.6062607008456" style="fill: none; stroke: #f58518; stroke-width: 4; opacity: 0.7;"></path></g></g><path class="foreground" aria-hidden="true" d="" style="display: none; fill: none;"></path></g><g transform="translate(0,0)"><path class="background" aria-hidden="true" d="M0,0h650v800h-650Z" style="fill: none;"></path><g><g class="mark-line role-mark layer_0_layer_0_marks" role="graphics-symbol" aria-roledescription="line mark container"><path d="M0,794.260239589079L13,794.260239589079L26,794.260239589079L39,794.260239589079L52,793.1122875068949L65,793.1122875068949L78,793.1122875068949L91.00000000000001,791.9643354247107L104,790.8163833425265L117,789.6684312603423L130,789.6684312603423L143,788.5204791781581L156,787.372527095974L169,787.372527095974L182.00000000000003,787.372527095974L195,787.372527095974L208,786.2245750137898L221.00000000000003,786.2245750137898L234,785.0766229316056L247,785.0766229316056L260,785.0766229316056L273,783.9286708494215" style="fill: none; stroke: #e45756; stroke-width: 4; opacity: 0.7;"></path></g></g><path class="foreground" aria-hidden="true" d="" style="display: none; fill: none;"></path></g><g transform="translate(0,0)"><path class="background" aria-hidden="true" d="M0,0h650v800h-650Z" style="fill: none;"></path><g><g class="mark-line role-mark layer_0_layer_0_marks" role="graphics-symbol" aria-roledescription="line mark container"><path d="M0,797.675193089744L13,797.675193089744L26,797.2102317076927L39,796.7452703256415L52,795.815347561539L65,794.8854247974367L78,793.490540651283L91.00000000000001,793.490540651283L104,790.2358109769245L117,790.2358109769245L130,787.9110040666685L143,785.1212357743611L156,784.6562743923099L169,784.1913130102588L182.00000000000003,783.7263516282076L195,782.331467482054L208,780.0066605717979L221.00000000000003,775.3570467512858L234,760.0133211435958L247,755.8286687051349L260,746.9944024461619L273,743.2747113897522L286,738.62509756924L299,727.4660244000108L312,695.8486504205285L325,677.7151565205312L338,657.7218170923292L351,652.6072418897658L364.00000000000006,640.053284574383L377,625.6394817307955L390,609.3658333590031L403,573.0988455590085" style="fill: none; stroke: #72b7b2; stroke-width: 4; opacity: 0.7;"></path></g></g><path class="foreground" aria-hidden="true" d="" style="display: none; fill: none;"></path></g><g transform="translate(0,0)"><path class="background" aria-hidden="true" d="M0,0h650v800h-650Z" style="fill: none;"></path><g><g class="mark-line role-mark layer_0_layer_0_marks" role="graphics-symbol" aria-roledescription="line mark container"><path d="M0,793.0315791412268L13,789.0496243647849L26,789.0496243647849L39,787.0586469765639L52,787.0586469765639L65,784.0721808942326L78,779.0947374236803L91.00000000000001,776.1082713413489L104,774.117293953128L117,772.126316564907L130,771.1308278707965L143,768.1443617884652L156,767.1488730943547L169,761.1759409296918L182.00000000000003,760.1804522355815L195,756.1984974591395L208,754.2075200709186L221.00000000000003,751.2210539885873L234,750.2255652944767L247,747.2390992121453L260,743.2571444357035L273,738.2797009651512L286,733.3022574945988L299,726.3338366358256L312,724.3428592476047L325,721.3563931652733L338,715.3834610006105L351,708.4150401418373L364.00000000000006,699.4556418948431L377,689.5007549537385" style="fill: none; stroke: #54a24b; stroke-width: 4; opacity: 0.7;"></path></g></g><path class="foreground" aria-hidden="true" d="" style="display: none; fill: none;"></path></g><g transform="translate(0,0)"><path class="background" aria-hidden="true" d="M0,0h650v800h-650Z" style="fill: none;"></path><g><g class="mark-line role-mark layer_0_layer_0_marks" role="graphics-symbol" aria-roledescription="line mark container"><path d="M0,797.9073086304371L13,797.9073086304371L26,797.4887703565245L39,797.4887703565245L52,796.6516938086993L65,796.2331555347868L78,795.8146172608741L91.00000000000001,794.1404641652239L104,791.2106962478358L117,787.4438517826225L130,785.7696986869722L143,780.7472394000212L156,776.5618566608954L169,772.7950121956821L182.00000000000003,769.865244278294L195,764.4242467174305L208,757.3090960609167L221.00000000000003,751.868098500053L234,740.1490268305007L247,733.0338761739868L260,722.1518810522596L273,714.1996538479206L286,709.5957328348821L299,702.0620439044557L312,691.1800487827286L325,681.9722067566516L338,669.4160585392742L351,652.6745275827709L364.00000000000006,640.536917639306L377,626.3066163262782L390,611.6577767393378L403,587.382556852408L416,574.8264086350306L429,563.5258752393909L442.00000000000006,547.6214208307126L454.99999999999994,537.1579639828982L468,527.1130454089962L481,510.79005272640535L494,486.5148328394756L507,463.9137660481961L520,446.33515854386764" style="fill: none; stroke: #eeca3b; stroke-width: 4; opacity: 0.7;"></path></g></g><path class="foreground" aria-hidden="true" d="" style="display: none; fill: none;"></path></g><g transform="translate(0,0)"><path class="background" aria-hidden="true" d="M0,0h650v800h-650Z" style="fill: none;"></path><g><g class="mark-line role-mark layer_0_layer_0_marks" role="graphics-symbol" aria-roledescription="line mark container"><path d="M0,793.8898218791425L13,792.667786254971L26,791.4457506307995L39,791.4457506307995L52,791.4457506307995L65,791.4457506307995L78,790.223715006628L91.00000000000001,790.223715006628L104,790.223715006628L117,790.223715006628L130,789.0016793824566L143,787.779643758285L156,785.335572509942L169,782.891501261599L182.00000000000003,781.6694656374275L195,781.6694656374275L208,780.447430013256L221.00000000000003,779.2253943890845L234,778.0033587649131L247,775.55928751657L260,774.3372518923985L273,770.6711450198841L286,770.6711450198841L299,770.6711450198841L312,768.2270737715411L325,765.7830025231981L338,765.7830025231981L351,764.5609668990265L364.00000000000006,763.3389312748551L377,757.2287531539976L390,754.7846819056546" style="fill: none; stroke: #b279a2; stroke-width: 4; opacity: 0.7;"></path></g></g><path class="foreground" aria-hidden="true" d="" style="display: none; fill: none;"></path></g><g transform="translate(0,0)"><path class="background" aria-hidden="true" d="M0,0h650v800h-650Z" style="fill: none;"></path><g><g class="mark-line role-mark layer_0_layer_0_marks" role="graphics-symbol" aria-roledescription="line mark container"><path d="M0,798.2508242771946L13,797.5511539880725L26,796.5016485543894L39,795.1023079761451L52,794.752472831584L65,794.0528025424619L78,791.6039565305344L91.00000000000001,790.9042862414124L104,790.5544510968513L117,789.155110518607L130,788.4554402294849L143,786.3564293621184L156,785.6567590729964L169,784.9570887838742L182.00000000000003,784.6072536393132L195,782.8580779165078L208,781.8085724828246L221.00000000000003,781.4587373382635L234,780.7590670491414L247,779.0098913263362L260,778.310221037214L273,776.5610453144086L286,775.1617047361644L299,773.7623641579202L312,773.062693868798L325,772.3630235796759L338,770.6138478568706L351,769.2145072786263L364.00000000000006,767.815166700382L377,767.465331555821L390,766.4158261221378L403,766.0659909775767L416,764.3168152547714L429,763.6171449656492L442.00000000000006,762.567639531966" style="fill: none; stroke: #ff9da6; stroke-width: 4; opacity: 0.7;"></path></g></g><path class="foreground" aria-hidden="true" d="" style="display: none; fill: none;"></path></g><g transform="translate(0,0)"><path class="background" aria-hidden="true" d="M0,0h650v800h-650Z" style="fill: none;"></path><g><g class="mark-line role-mark layer_0_layer_0_marks" role="graphics-symbol" aria-roledescription="line mark container"><path d="M0,798.6098998415459L13,798.1465331220613L26,797.9148497623189L39,797.6831664025766L52,796.9881163233496L65,796.0613828843802L78,795.8296995246378L91.00000000000001,794.6712827259262L104,793.5128659272145L117,790.500982250564L130,789.11088209211L143,786.5623651349442L156,785.1722649764902L169,783.5504814582938L182.00000000000003,779.3801809829316L195,775.441563867312L208,771.7346301114345L221.00000000000003,765.942546117876L234,764.0890792399373L247,760.6138288438021L260,757.8336285268941L273,748.1029274177158L286,738.6039096682798L299,730.2633087175556L312,720.995974327862L325,710.3385397797143L338,706.8632893835792L351,702.2296221887325L364.00000000000006,693.1939711587811L377,686.4751537262532L390,677.2078193365596L403,667.940484946866L416,657.5147337584607L429,650.5642329661905L442.00000000000006,643.1503654544356L454.99999999999994,629.0176805101528L468,616.0434123645817L481,602.1424107800414L494,586.6196256773046L507,575.0354576901875L520,563.9146564225553L533,553.2572218744075L546,539.8195870093518L559,520.8215515104799L572,477.03339651917764" style="fill: none; stroke: #9d755d; stroke-width: 4; opacity: 0.7;"></path></g></g><path class="foreground" aria-hidden="true" d="" style="display: none; fill: none;"></path></g><g transform="translate(0,0)"><path class="background" aria-hidden="true" d="M0,0h650v800h-650Z" style="fill: none;"></path><g><g class="mark-line role-mark layer_0_layer_0_marks" role="graphics-symbol" aria-roledescription="line mark container"><path d="M0,793.1562571912766L13,792.0156333898228L26,792.0156333898228L39,790.8750095883688L52,787.4531381840072L65,787.4531381840072L78,787.4531381840072L91.00000000000001,785.1718905810993L104,780.6093953752837L117,779.4687715738298L130,778.3281477723759L143,777.1875239709221L156,773.7656525665603L169,772.6250287651065L182.00000000000003,770.3437811621986L195,769.2031573607447L208,768.062533559291L221.00000000000003,766.921909757837L234,761.2187907505676L247,756.656295544752L260,754.3750479418442L273,749.8125527360286L286,748.6719289345747L299,745.250057530213L312,738.4063147214896L325,736.1250671185818L338,736.1250671185818L351,732.7031957142201L364.00000000000006,730.4219481113123L377,729.2813243098584L390,722.4375815011351L403,717.8750862953195L416,713.3125910895039L429,713.3125910895039" style="fill: none; stroke: #bab0ac; stroke-width: 4; opacity: 0.7;"></path></g></g><path class="foreground" aria-hidden="true" d="" style="display: none; fill: none;"></path></g><g transform="translate(0,0)"><path class="background" aria-hidden="true" d="M0,0h650v800h-650Z" style="fill: none;"></path><g><g class="mark-line role-mark layer_0_layer_0_marks" role="graphics-symbol" aria-roledescription="line mark container"><path d="M0,788.7465008651128L13,788.7465008651128L26,788.7465008651128L39,786.4958010381354L52,784.2451012111578L65,777.4930017302255L78,777.4930017302255L91.00000000000001,775.2423019032481L104,766.2395025953383L117,763.9888027683608L130,759.4874031144059L143,748.2339039795187L156,745.9832041525412L169,743.7325043255637L182.00000000000003,734.7297050176539L195,725.7269057097442L208,716.7241064018343" style="fill: none; stroke: #4c78a8; stroke-width: 4; opacity: 0.7;"></path></g></g><path class="foreground" aria-hidden="true" d="" style="display: none; fill: none;"></path></g><g transform="translate(0,0)"><path class="background" aria-hidden="true" d="M0,0h650v800h-650Z" style="fill: none;"></path><g><g class="mark-line role-mark layer_0_layer_0_marks" role="graphics-symbol" aria-roledescription="line mark container"><path d="M0,753.777149733971L13,753.777149733971L26,753.777149733971L39,753.777149733971L52,727.3640924390972L65,727.3640924390972L78,714.1575637916604L91.00000000000001,707.554299467942" style="fill: none; stroke: #f58518; stroke-width: 4; opacity: 0.7;"></path></g></g><path class="foreground" aria-hidden="true" d="" style="display: none; fill: none;"></path></g><g transform="translate(0,0)"><path class="background" aria-hidden="true" d="M0,0h650v800h-650Z" style="fill: none;"></path><g><g class="mark-line role-mark layer_0_layer_0_marks" role="graphics-symbol" aria-roledescription="line mark container"><path d="M0,798.2421042574565L13,798.2421042574565L26,797.8905251089478L39,797.538945960439L52,797.538945960439L65,797.1873668119304L78,797.1873668119304L91.00000000000001,796.484208514913L104,795.0778919208782L117,794.7263127723694L130,794.3747336238607L143,794.3747336238607L156,794.023154475352L169,793.6715753268434L182.00000000000003,793.3199961783347L195,792.6168378813172L208,791.5621004357911L221.00000000000003,791.5621004357911L234,790.8589421387737L247,790.507362990265L260,790.507362990265L273,790.1557838417564L286,789.8042046932476L299,788.0463089507042L312,787.6947298021954L325,786.6399923566693L338,784.1789383171084L351,782.7726217230736L364.00000000000006,782.0694634260562L377,779.6084093864953L390,778.2020927924605L403,777.1473553469343L416,776.444197049917L429,773.2799847133386L442.00000000000006,770.8189306737777L454.99999999999994,768.3578766342168L468,768.006297485708" style="fill: none; stroke: #e45756; stroke-width: 4; opacity: 0.7;"></path></g></g><path class="foreground" aria-hidden="true" d="" style="display: none; fill: none;"></path></g><g transform="translate(0,0)"><path class="background" aria-hidden="true" d="M0,0h650v800h-650Z" style="fill: none;"></path><g><g class="mark-line role-mark layer_0_layer_0_marks" role="graphics-symbol" aria-roledescription="line mark container"><path d="M0,797.208570581572L13,797.208570581572L26,794.417141163144L39,794.417141163144L52,793.8588552794583L65,791.625711744716L78,790.5091399773448L91.00000000000001,789.9508540936591L104,789.9508540936591L117,788.2759964426024L130,786.6011387915455L143,785.4845670241743L156,784.3679952568032L169,783.8097093731175L182.00000000000003,783.2514234894319L195,782.6931376057463L208,782.1348517220607L221.00000000000003,780.459994071004L234,780.459994071004L247,779.3434223036327L260,778.2268505362615L273,776.5519928852048L286,776.5519928852048L299,776.5519928852048L312,775.993707001519L325,775.4354211178335L338,775.4354211178335L351,774.3188493504623L364.00000000000006,773.2022775830911L377,772.0857058157198L390,770.9691340483487L403,770.9691340483487L416,769.2942763972919L429,767.619418746235L442.00000000000006,767.0611328625495L454.99999999999994,764.827989327807" style="fill: none; stroke: #72b7b2; stroke-width: 4; opacity: 0.7;"></path></g></g><path class="foreground" aria-hidden="true" d="" style="display: none; fill: none;"></path></g><g transform="translate(0,0)"><path class="background" aria-hidden="true" d="M0,0h650v800h-650Z" style="fill: none;"></path><g><g class="mark-line role-mark layer_0_layer_0_marks" role="graphics-symbol" aria-roledescription="line mark container"><path d="M0,791.2994149726628L13,791.2994149726628L26,791.2994149726628L39,787.8191809617279L52,787.8191809617279L65,786.0790639562605L78,786.0790639562605L91.00000000000001,784.338946950793L104,784.338946950793L117,780.858712939858L130,780.858712939858L143,780.858712939858L156,775.6383619234557L169,775.6383619234557L182.00000000000003,775.6383619234557L195,775.6383619234557L208,770.4180109070534L221.00000000000003,763.4575428851836L234,759.9773088742487L247,756.4970748633139" style="fill: none; stroke: #54a24b; stroke-width: 4; opacity: 0.7;"></path></g></g><path class="foreground" aria-hidden="true" d="" style="display: none; fill: none;"></path></g><g transform="translate(0,0)"><path class="background" aria-hidden="true" d="M0,0h650v800h-650Z" style="fill: none;"></path><g><g class="mark-line role-mark layer_0_layer_0_marks" role="graphics-symbol" aria-roledescription="line mark container"><path d="M0,799.5644509101223L13,799.21601163822L26,798.6933527303669L39,798.0835840045381L52,797.3867054607338L65,796.5156072809783L78,795.818728737174L91.00000000000001,794.9476305574185L104,794.0765323776632L117,792.6827752900545L130,791.4632378383968L143,790.1565905687637L156,788.1530647553262L169,785.7139898520111L182.00000000000003,783.623354220598L195,780.9229498633563L208,777.3514473263591L221.00000000000003,776.044800056726L234,773.5186153354352L247,767.6822575310739L260,762.7169979064679L273,756.7935302841312L286,752.9606982932073L299,751.2185019336964L312,748.7794270303813L325,747.0372306708704L338,739.4586765069982L351,732.2285616150282L364.00000000000006,725.6953252668626L377,719.1620889186969L390,713.6741703862378L403,711.5835347548248L416,709.6671187593629L429,704.7889689527325L442.00000000000006,701.2174664157352L454.99999999999994,682.8372948228958L468,668.2899552209803L481,654.7879334347713L494,651.9133094415783L507,641.0245821946356L520,621.5119829681141L533,604.2642390089568L546,593.1141823080874L559,581.2672470634137L572,574.734010715248L585,571.1625081782508L598,568.8105430929111L611,551.6499089517293L624,534.7506042644742L637,520.725923570412" style="fill: none; stroke: #eeca3b; stroke-width: 4; opacity: 0.7;"></path></g></g><path class="foreground" aria-hidden="true" d="" style="display: none; fill: none;"></path></g><g transform="translate(0,0)"><path class="background" aria-hidden="true" d="M0,0h650v800h-650Z" style="fill: none;"></path><g><g class="mark-line role-mark layer_0_layer_0_marks" role="graphics-symbol" aria-roledescription="line mark container"><path d="M0,784.741230340029L13,782.1981020633671L26,777.1118455100434L39,777.1118455100434L52,777.1118455100434" style="fill: none; stroke: #b279a2; stroke-width: 4; opacity: 0.7;"></path></g></g><path class="foreground" aria-hidden="true" d="" style="display: none; fill: none;"></path></g></g><g class="mark-group role-scope layer_0_layer_1_pathgroup" role="graphics-object" aria-roledescription="group mark container"><g transform="translate(0,0)"><path class="background" aria-hidden="true" d="M0,0h650v800h-650Z" style="fill: none;"></path><g><g class="mark-line role-mark layer_0_layer_1_marks" role="graphics-symbol" aria-roledescription="line mark container" style="pointer-events: none;"><path d="M0,777.3225918009831L13,777.3225918009831L26,772.7871101611797L39,772.7871101611797L52,763.716146881573L65,763.716146881573L78,763.716146881573L91.00000000000001,754.6451836019662L104,750.1097019621627L117,750.1097019621627L130,750.1097019621627L143,736.5032570427526L156,727.4322937631458L169,718.361330483539L182.00000000000003,713.8258488437357L195,713.8258488437357L208,700.2194039243255L221.00000000000003,686.6129590049153L234,673.0065140855052L247,668.4710324457018L260,641.2581426068815L273,636.722660967078" style="fill: none; stroke: #4c78a8; stroke-width: 4; opacity: 0.5;"></path></g></g><path class="foreground" aria-hidden="true" d="" style="display: none; fill: none;"></path></g><g transform="translate(0,0)"><path class="background" aria-hidden="true" d="M0,0h650v800h-650Z" style="fill: none;"></path><g><g class="mark-line role-mark layer_0_layer_1_marks" role="graphics-symbol" aria-roledescription="line mark container" style="pointer-events: none;"><path d="M0,794.0072338679979L13,794.0072338679979L26,791.6101274151971L39,788.0144677359959L52,782.0217016039937L65,778.4260419247926L78,777.2274886983921L91.00000000000001,776.0289354719918L104,773.631829019191L117,767.6390628871889L130,765.241956434388L143,761.6462967551868L156,759.249190302386L169,756.8520838495851L182.00000000000003,750.859317717583L195,743.6679983591806L208,736.4766790007782L221.00000000000003,730.4839128687761L234,723.2925935103736L247,713.7041676991704L260,704.115741887967L273,693.3287628503633L286,682.5417838127596" style="fill: none; stroke: #f58518; stroke-width: 4; opacity: 0.5;"></path></g></g><path class="foreground" aria-hidden="true" d="" style="display: none; fill: none;"></path></g><g transform="translate(0,0)"><path class="background" aria-hidden="true" d="M0,0h650v800h-650Z" style="fill: none;"></path><g><g class="mark-line role-mark layer_0_layer_1_marks" role="graphics-symbol" aria-roledescription="line mark container" style="pointer-events: none;"><path d="M0,793.2442165064541L13,788.418656868207L26,785.5233210852587L39,781.6628733746611L52,777.8024256640633L65,771.0466421705174L78,761.3955228940232L91.00000000000001,751.7444036175291L104,748.8490678345808L117,740.163060485736L130,731.4770531368913L143,713.1399265115523L156,697.6981356691615L169,680.326120971472L182.00000000000003,660.0587704908343L195,644.6169796484435L208,624.3496291678057L221.00000000000003,621.4542933848575L234,613.733397963662L247,601.1869429042197L260,574.1638089300359L273,553.8964584493981L286,523.0128767646166L299,506.60597399457663L312,491.1641831521859L325,461.2457133950539L338,433.2574674932207L351,389.82743074899685L364.00000000000006,340.6067224388765L377,316.478924247641L390,271.1186636481183L403,235.40952232508968L416,173.642358955527L429,75.20094233528613L442.00000000000006,22.119786314568124" style="fill: none; stroke: #e45756; stroke-width: 4; opacity: 0.5;"></path></g></g><path class="foreground" aria-hidden="true" d="" style="display: none; fill: none;"></path></g><g transform="translate(0,0)"><path class="background" aria-hidden="true" d="M0,0h650v800h-650Z" style="fill: none;"></path><g><g class="mark-line role-mark layer_0_layer_1_marks" role="graphics-symbol" aria-roledescription="line mark container" style="pointer-events: none;"><path d="M0,776.3518187225017L13,776.3518187225017L26,771.622182467002L39,766.8925462115022L52,766.8925462115022L65,752.7036374450032L78,752.7036374450032L91.00000000000001,752.7036374450032L104,747.9740011895036L117,738.5147286785042L130,738.5147286785042L143,733.7850924230045L156,724.3258199120052L169,714.8665474010057L182.00000000000003,705.4072748900064L195,691.2183661235074L208,677.0294573570084L221.00000000000003,667.5701848460089L234,653.3812760795099L247,639.1923673130109L260,625.0034585465119L273,610.8145497800127L286,596.6256410135138L299,568.2478234805156L312,539.8700059475176L325,535.140369692018L338,511.4921884145195" style="fill: none; stroke: #72b7b2; stroke-width: 4; opacity: 0.5;"></path></g></g><path class="foreground" aria-hidden="true" d="" style="display: none; fill: none;"></path></g><g transform="translate(0,0)"><path class="background" aria-hidden="true" d="M0,0h650v800h-650Z" style="fill: none;"></path><g><g class="mark-line role-mark layer_0_layer_1_marks" role="graphics-symbol" aria-roledescription="line mark container" style="pointer-events: none;"><path d="M0,798.3863446025647L13,798.1174020363255L26,797.5795169038471L39,797.3105743376079L52,796.2348040726511L65,795.1590338076942L78,794.890091241455L91.00000000000001,794.890091241455L104,794.3522061089766L117,794.3522061089766L130,794.0832635427374L143,793.0074932777806L156,792.4696081453021L169,790.8559527478669L182.00000000000003,790.3180676153885L195,789.2422973504316L208,787.8975845192356L221.00000000000003,787.3596993867571L234,787.090756820518L247,785.746043989322L260,783.325560893169L273,781.980848061973L286,780.636135230777L299,780.0982500982985L312,777.6777670021456L325,774.9883413397536L338,773.1057433760791L351,771.4920879786438L364.00000000000006,768.5337197500126L377,766.9200643525772L390,765.5753515213812L403,762.0790981602715L416,760.7343853290755L429,756.9691894017266L442.00000000000006,755.6244765705305" style="fill: none; stroke: #54a24b; stroke-width: 4; opacity: 0.5;"></path></g></g><path class="foreground" aria-hidden="true" d="" style="display: none; fill: none;"></path></g><g transform="translate(0,0)"><path class="background" aria-hidden="true" d="M0,0h650v800h-650Z" style="fill: none;"></path><g><g class="mark-line role-mark layer_0_layer_1_marks" role="graphics-symbol" aria-roledescription="line mark container" style="pointer-events: none;"><path d="M0,797.8099179617169L13,797.8099179617169L26,796.9338851464037L39,796.0578523310904L52,790.8016554392111L65,790.3636390315545L78,789.9256226238979L91.00000000000001,784.6694257320185L104,784.6694257320185L117,782.4793436937355L130,775.033064763573L143,775.033064763573L156,770.6529006870069L169,767.5867858334105L182.00000000000003,766.7107530180973L195,755.760342826682L208,751.3801787501159L221.00000000000003,745.6859654505798L234,740.867784966357L247,732.1074568132248L260,721.1570466218094L273,717.2148989529L286,709.7686200227374L299,703.1983739078883L312,695.3140785700691L325,681.2975535250574L338,671.661192556612L351,657.2066511039437L364.00000000000006,635.305830721113L377,626.1074861603241L390,617.3471580071918L403,602.8926165545234L416,584.4959274329457L429,563.9091562730848L442.00000000000006,520.54553191508L454.99999999999994,503.462892016472L468,488.1323177484905L481,451.7769559129915L494,428.1240698995344L507,404.47118388607726" style="fill: none; stroke: #eeca3b; stroke-width: 4; opacity: 0.5;"></path></g></g><path class="foreground" aria-hidden="true" d="" style="display: none; fill: none;"></path></g><g transform="translate(0,0)"><path class="background" aria-hidden="true" d="M0,0h650v800h-650Z" style="fill: none;"></path><g><g class="mark-line role-mark layer_0_layer_1_marks" role="graphics-symbol" aria-roledescription="line mark container" style="pointer-events: none;"><path d="M0,793.36709042115L13,792.0405085053799L26,790.71392658961L39,790.71392658961L52,786.7341808422999L65,784.08101701076L78,784.08101701076L91.00000000000001,782.7544350949898L104,781.4278531792198L117,781.4278531792198L130,781.4278531792198L143,780.1012712634499L156,777.4481074319099L169,777.4481074319099L182.00000000000003,773.4683616845998L195,768.1620340215198L208,768.1620340215198L221.00000000000003,768.1620340215198L234,768.1620340215198L247,768.1620340215198L260,766.8354521057498L273,765.5088701899798L286,765.5088701899798L299,764.1822882742098L312,764.1822882742098L325,762.8557063584398L338,762.8557063584398L351,762.8557063584398L364.00000000000006,760.2025425268998L377,758.8759606111298L390,757.5493786953597L403,756.2227967795898L416,756.2227967795898L429,754.8962148638198L442.00000000000006,753.5696329480497L454.99999999999994,753.5696329480497" style="fill: none; stroke: #b279a2; stroke-width: 4; opacity: 0.5;"></path></g></g><path class="foreground" aria-hidden="true" d="" style="display: none; fill: none;"></path></g><g transform="translate(0,0)"><path class="background" aria-hidden="true" d="M0,0h650v800h-650Z" style="fill: none;"></path><g><g class="mark-line role-mark layer_0_layer_1_marks" role="graphics-symbol" aria-roledescription="line mark container" style="pointer-events: none;"><path d="M0,795.023204309905L13,794.027845171886L26,794.027845171886L39,794.027845171886L52,794.027845171886L65,794.027845171886L78,793.0324860338671L91.00000000000001,792.037126895848L104,791.0417677578291L117,786.0649720677342L130,783.0788946536773L143,782.0835355156582L156,779.0974581016012L169,772.1299441354683L182.00000000000003,772.1299441354683L195,770.1392258594304L208,766.1577893073544L221.00000000000003,766.1577893073544L234,766.1577893073544L247,763.1717118932975L260,757.1995570651836L273,753.2181205131076L286,748.2413248230127L299,743.2645291329178L312,737.2923743048038L325,723.357346372538L338,716.3898324064052L351,707.4316001642343L364.00000000000006,699.4687270600824L377,696.4826496460255L390,685.5336991278166L403,677.5708260236646L416,667.6172346434748L429,654.6775658492279L442.00000000000006,643.7286153310191" style="fill: none; stroke: #ff9da6; stroke-width: 4; opacity: 0.5;"></path></g></g><path class="foreground" aria-hidden="true" d="" style="display: none; fill: none;"></path></g><g transform="translate(0,0)"><path class="background" aria-hidden="true" d="M0,0h650v800h-650Z" style="fill: none;"></path><g><g class="mark-line role-mark layer_0_layer_1_marks" role="graphics-symbol" aria-roledescription="line mark container" style="pointer-events: none;"><path d="M0,797.1503289802708L13,797.1503289802708L26,796.0104605723792L39,796.0104605723792L52,795.4405263684334L65,794.3006579605418L78,792.0209211447584L91.00000000000001,791.4509869408126L104,791.4509869408126L117,791.4509869408126L130,790.8810527368668L143,790.8810527368668L156,789.7411843289751L169,789.7411843289751L182.00000000000003,789.1712501250292L195,789.1712501250292L208,788.0313817171377L221.00000000000003,786.891513309246L234,786.3215791053002L247,785.7516449013543L260,785.7516449013543L273,785.1817106974086L286,784.6117764934627L299,784.6117764934627L312,783.471908085571L325,783.471908085571L338,782.9019738816253L351,782.9019738816253L364.00000000000006,782.9019738816253L377,778.3425002500587L390,774.3529608224379L403,774.9228950263837" style="fill: none; stroke: #9d755d; stroke-width: 4; opacity: 0.5;"></path></g></g><path class="foreground" aria-hidden="true" d="" style="display: none; fill: none;"></path></g><g transform="translate(0,0)"><path class="background" aria-hidden="true" d="M0,0h650v800h-650Z" style="fill: none;"></path><g><g class="mark-line role-mark layer_0_layer_1_marks" role="graphics-symbol" aria-roledescription="line mark container" style="pointer-events: none;"><path d="M0,793.7810778268429L13,793.2157212656467L26,790.9542950208623L39,788.1275122148819L52,786.4314425312936L65,784.7353728477052L78,781.9085900417248L91.00000000000001,780.7778769193325L104,779.0818072357442L117,777.3857375521559L130,775.1243113073715L143,772.8628850625871L156,769.4707456954105L169,766.0786063282338L182.00000000000003,762.6864669610572L195,757.0329013490962L208,750.248622614743L221.00000000000003,743.4643438803897L234,736.6800651460366L247,729.3304298504872L260,718.0232986265652L273,706.150810841447L286,695.9743927399172L299,684.6672615159952L312,673.360130292073L325,666.0104949965238L338,659.2262162621705L351,646.7883719158563L364.00000000000006,635.4812406919342L377,627.5662488351888L390,613.4323348052862" style="fill: none; stroke: #bab0ac; stroke-width: 4; opacity: 0.5;"></path></g></g><path class="foreground" aria-hidden="true" d="" style="display: none; fill: none;"></path></g><g transform="translate(0,0)"><path class="background" aria-hidden="true" d="M0,0h650v800h-650Z" style="fill: none;"></path><g><g class="mark-line role-mark layer_0_layer_1_marks" role="graphics-symbol" aria-roledescription="line mark container" style="pointer-events: none;"><path d="M0,798.8662555173794L13,798.8662555173794L26,798.8662555173794L39,798.299383276069L52,797.9214684485288L65,797.3545962072184L78,797.1656387934484L91.00000000000001,796.7877239659082L104,796.7877239659082L117,796.2208517245978L130,795.6539794832875L143,794.898149828207L156,794.3312775868967L169,793.7644053455864L182.00000000000003,793.3864905180461L195,792.6306608629657L208,792.6306608629657L221.00000000000003,792.2527460354255L234,791.6858737941151L247,791.1190015528048L260,790.3631718977243L273,789.796299656414L286,789.0404700013336L299,788.4735977600232L312,788.2846403462531L325,786.5840236223221L338,784.8834068983911L351,784.5054920708509L364.00000000000006,783.3717475882303L377,783.3717475882303L390,783.1827901744601L403,782.99383276069L416,782.2380031056096L429,781.6711308642992L442.00000000000006,779.9705141403683" style="fill: none; stroke: #4c78a8; stroke-width: 4; opacity: 0.5;"></path></g></g><path class="foreground" aria-hidden="true" d="" style="display: none; fill: none;"></path></g><g transform="translate(0,0)"><path class="background" aria-hidden="true" d="M0,0h650v800h-650Z" style="fill: none;"></path><g><g class="mark-line role-mark layer_0_layer_1_marks" role="graphics-symbol" aria-roledescription="line mark container" style="pointer-events: none;"><path d="M0,792.8031303504227L13,792.8031303504227L26,792.8031303504227L39,792.8031303504227L52,792.8031303504227L65,791.3637564205073L78,791.3637564205073L91.00000000000001,789.9243824905919L104,789.9243824905919L117,789.9243824905919L130,789.9243824905919L143,787.045634630761L156,787.045634630761L169,787.045634630761L182.00000000000003,787.045634630761L195,787.045634630761L208,787.045634630761L221.00000000000003,785.6062607008456L234,785.6062607008456L247,785.6062607008456L260,785.6062607008456L273,785.6062607008456" style="fill: none; stroke: #f58518; stroke-width: 4; opacity: 0.5;"></path></g></g><path class="foreground" aria-hidden="true" d="" style="display: none; fill: none;"></path></g><g transform="translate(0,0)"><path class="background" aria-hidden="true" d="M0,0h650v800h-650Z" style="fill: none;"></path><g><g class="mark-line role-mark layer_0_layer_1_marks" role="graphics-symbol" aria-roledescription="line mark container" style="pointer-events: none;"><path d="M0,794.260239589079L13,794.260239589079L26,794.260239589079L39,794.260239589079L52,793.1122875068949L65,793.1122875068949L78,793.1122875068949L91.00000000000001,791.9643354247107L104,790.8163833425265L117,789.6684312603423L130,789.6684312603423L143,788.5204791781581L156,787.372527095974L169,787.372527095974L182.00000000000003,787.372527095974L195,787.372527095974L208,786.2245750137898L221.00000000000003,786.2245750137898L234,785.0766229316056L247,785.0766229316056L260,785.0766229316056L273,783.9286708494215" style="fill: none; stroke: #e45756; stroke-width: 4; opacity: 0.5;"></path></g></g><path class="foreground" aria-hidden="true" d="" style="display: none; fill: none;"></path></g><g transform="translate(0,0)"><path class="background" aria-hidden="true" d="M0,0h650v800h-650Z" style="fill: none;"></path><g><g class="mark-line role-mark layer_0_layer_1_marks" role="graphics-symbol" aria-roledescription="line mark container" style="pointer-events: none;"><path d="M0,797.675193089744L13,797.675193089744L26,797.2102317076927L39,796.7452703256415L52,795.815347561539L65,794.8854247974367L78,793.490540651283L91.00000000000001,793.490540651283L104,790.2358109769245L117,790.2358109769245L130,787.9110040666685L143,785.1212357743611L156,784.6562743923099L169,784.1913130102588L182.00000000000003,783.7263516282076L195,782.331467482054L208,780.0066605717979L221.00000000000003,775.3570467512858L234,760.0133211435958L247,755.8286687051349L260,746.9944024461619L273,743.2747113897522L286,738.62509756924L299,727.4660244000108L312,695.8486504205285L325,677.7151565205312L338,657.7218170923292L351,652.6072418897658L364.00000000000006,640.053284574383L377,625.6394817307955L390,609.3658333590031L403,573.0988455590085" style="fill: none; stroke: #72b7b2; stroke-width: 4; opacity: 0.5;"></path></g></g><path class="foreground" aria-hidden="true" d="" style="display: none; fill: none;"></path></g><g transform="translate(0,0)"><path class="background" aria-hidden="true" d="M0,0h650v800h-650Z" style="fill: none;"></path><g><g class="mark-line role-mark layer_0_layer_1_marks" role="graphics-symbol" aria-roledescription="line mark container" style="pointer-events: none;"><path d="M0,793.0315791412268L13,789.0496243647849L26,789.0496243647849L39,787.0586469765639L52,787.0586469765639L65,784.0721808942326L78,779.0947374236803L91.00000000000001,776.1082713413489L104,774.117293953128L117,772.126316564907L130,771.1308278707965L143,768.1443617884652L156,767.1488730943547L169,761.1759409296918L182.00000000000003,760.1804522355815L195,756.1984974591395L208,754.2075200709186L221.00000000000003,751.2210539885873L234,750.2255652944767L247,747.2390992121453L260,743.2571444357035L273,738.2797009651512L286,733.3022574945988L299,726.3338366358256L312,724.3428592476047L325,721.3563931652733L338,715.3834610006105L351,708.4150401418373L364.00000000000006,699.4556418948431L377,689.5007549537385" style="fill: none; stroke: #54a24b; stroke-width: 4; opacity: 0.5;"></path></g></g><path class="foreground" aria-hidden="true" d="" style="display: none; fill: none;"></path></g><g transform="translate(0,0)"><path class="background" aria-hidden="true" d="M0,0h650v800h-650Z" style="fill: none;"></path><g><g class="mark-line role-mark layer_0_layer_1_marks" role="graphics-symbol" aria-roledescription="line mark container" style="pointer-events: none;"><path d="M0,797.9073086304371L13,797.9073086304371L26,797.4887703565245L39,797.4887703565245L52,796.6516938086993L65,796.2331555347868L78,795.8146172608741L91.00000000000001,794.1404641652239L104,791.2106962478358L117,787.4438517826225L130,785.7696986869722L143,780.7472394000212L156,776.5618566608954L169,772.7950121956821L182.00000000000003,769.865244278294L195,764.4242467174305L208,757.3090960609167L221.00000000000003,751.868098500053L234,740.1490268305007L247,733.0338761739868L260,722.1518810522596L273,714.1996538479206L286,709.5957328348821L299,702.0620439044557L312,691.1800487827286L325,681.9722067566516L338,669.4160585392742L351,652.6745275827709L364.00000000000006,640.536917639306L377,626.3066163262782L390,611.6577767393378L403,587.382556852408L416,574.8264086350306L429,563.5258752393909L442.00000000000006,547.6214208307126L454.99999999999994,537.1579639828982L468,527.1130454089962L481,510.79005272640535L494,486.5148328394756L507,463.9137660481961L520,446.33515854386764" style="fill: none; stroke: #eeca3b; stroke-width: 4; opacity: 0.5;"></path></g></g><path class="foreground" aria-hidden="true" d="" style="display: none; fill: none;"></path></g><g transform="translate(0,0)"><path class="background" aria-hidden="true" d="M0,0h650v800h-650Z" style="fill: none;"></path><g><g class="mark-line role-mark layer_0_layer_1_marks" role="graphics-symbol" aria-roledescription="line mark container" style="pointer-events: none;"><path d="M0,793.8898218791425L13,792.667786254971L26,791.4457506307995L39,791.4457506307995L52,791.4457506307995L65,791.4457506307995L78,790.223715006628L91.00000000000001,790.223715006628L104,790.223715006628L117,790.223715006628L130,789.0016793824566L143,787.779643758285L156,785.335572509942L169,782.891501261599L182.00000000000003,781.6694656374275L195,781.6694656374275L208,780.447430013256L221.00000000000003,779.2253943890845L234,778.0033587649131L247,775.55928751657L260,774.3372518923985L273,770.6711450198841L286,770.6711450198841L299,770.6711450198841L312,768.2270737715411L325,765.7830025231981L338,765.7830025231981L351,764.5609668990265L364.00000000000006,763.3389312748551L377,757.2287531539976L390,754.7846819056546" style="fill: none; stroke: #b279a2; stroke-width: 4; opacity: 0.5;"></path></g></g><path class="foreground" aria-hidden="true" d="" style="display: none; fill: none;"></path></g><g transform="translate(0,0)"><path class="background" aria-hidden="true" d="M0,0h650v800h-650Z" style="fill: none;"></path><g><g class="mark-line role-mark layer_0_layer_1_marks" role="graphics-symbol" aria-roledescription="line mark container" style="pointer-events: none;"><path d="M0,798.2508242771946L13,797.5511539880725L26,796.5016485543894L39,795.1023079761451L52,794.752472831584L65,794.0528025424619L78,791.6039565305344L91.00000000000001,790.9042862414124L104,790.5544510968513L117,789.155110518607L130,788.4554402294849L143,786.3564293621184L156,785.6567590729964L169,784.9570887838742L182.00000000000003,784.6072536393132L195,782.8580779165078L208,781.8085724828246L221.00000000000003,781.4587373382635L234,780.7590670491414L247,779.0098913263362L260,778.310221037214L273,776.5610453144086L286,775.1617047361644L299,773.7623641579202L312,773.062693868798L325,772.3630235796759L338,770.6138478568706L351,769.2145072786263L364.00000000000006,767.815166700382L377,767.465331555821L390,766.4158261221378L403,766.0659909775767L416,764.3168152547714L429,763.6171449656492L442.00000000000006,762.567639531966" style="fill: none; stroke: #ff9da6; stroke-width: 4; opacity: 0.5;"></path></g></g><path class="foreground" aria-hidden="true" d="" style="display: none; fill: none;"></path></g><g transform="translate(0,0)"><path class="background" aria-hidden="true" d="M0,0h650v800h-650Z" style="fill: none;"></path><g><g class="mark-line role-mark layer_0_layer_1_marks" role="graphics-symbol" aria-roledescription="line mark container" style="pointer-events: none;"><path d="M0,798.6098998415459L13,798.1465331220613L26,797.9148497623189L39,797.6831664025766L52,796.9881163233496L65,796.0613828843802L78,795.8296995246378L91.00000000000001,794.6712827259262L104,793.5128659272145L117,790.500982250564L130,789.11088209211L143,786.5623651349442L156,785.1722649764902L169,783.5504814582938L182.00000000000003,779.3801809829316L195,775.441563867312L208,771.7346301114345L221.00000000000003,765.942546117876L234,764.0890792399373L247,760.6138288438021L260,757.8336285268941L273,748.1029274177158L286,738.6039096682798L299,730.2633087175556L312,720.995974327862L325,710.3385397797143L338,706.8632893835792L351,702.2296221887325L364.00000000000006,693.1939711587811L377,686.4751537262532L390,677.2078193365596L403,667.940484946866L416,657.5147337584607L429,650.5642329661905L442.00000000000006,643.1503654544356L454.99999999999994,629.0176805101528L468,616.0434123645817L481,602.1424107800414L494,586.6196256773046L507,575.0354576901875L520,563.9146564225553L533,553.2572218744075L546,539.8195870093518L559,520.8215515104799L572,477.03339651917764" style="fill: none; stroke: #9d755d; stroke-width: 4; opacity: 0.5;"></path></g></g><path class="foreground" aria-hidden="true" d="" style="display: none; fill: none;"></path></g><g transform="translate(0,0)"><path class="background" aria-hidden="true" d="M0,0h650v800h-650Z" style="fill: none;"></path><g><g class="mark-line role-mark layer_0_layer_1_marks" role="graphics-symbol" aria-roledescription="line mark container" style="pointer-events: none;"><path d="M0,793.1562571912766L13,792.0156333898228L26,792.0156333898228L39,790.8750095883688L52,787.4531381840072L65,787.4531381840072L78,787.4531381840072L91.00000000000001,785.1718905810993L104,780.6093953752837L117,779.4687715738298L130,778.3281477723759L143,777.1875239709221L156,773.7656525665603L169,772.6250287651065L182.00000000000003,770.3437811621986L195,769.2031573607447L208,768.062533559291L221.00000000000003,766.921909757837L234,761.2187907505676L247,756.656295544752L260,754.3750479418442L273,749.8125527360286L286,748.6719289345747L299,745.250057530213L312,738.4063147214896L325,736.1250671185818L338,736.1250671185818L351,732.7031957142201L364.00000000000006,730.4219481113123L377,729.2813243098584L390,722.4375815011351L403,717.8750862953195L416,713.3125910895039L429,713.3125910895039" style="fill: none; stroke: #bab0ac; stroke-width: 4; opacity: 0.5;"></path></g></g><path class="foreground" aria-hidden="true" d="" style="display: none; fill: none;"></path></g><g transform="translate(0,0)"><path class="background" aria-hidden="true" d="M0,0h650v800h-650Z" style="fill: none;"></path><g><g class="mark-line role-mark layer_0_layer_1_marks" role="graphics-symbol" aria-roledescription="line mark container" style="pointer-events: none;"><path d="M0,788.7465008651128L13,788.7465008651128L26,788.7465008651128L39,786.4958010381354L52,784.2451012111578L65,777.4930017302255L78,777.4930017302255L91.00000000000001,775.2423019032481L104,766.2395025953383L117,763.9888027683608L130,759.4874031144059L143,748.2339039795187L156,745.9832041525412L169,743.7325043255637L182.00000000000003,734.7297050176539L195,725.7269057097442L208,716.7241064018343" style="fill: none; stroke: #4c78a8; stroke-width: 4; opacity: 0.5;"></path></g></g><path class="foreground" aria-hidden="true" d="" style="display: none; fill: none;"></path></g><g transform="translate(0,0)"><path class="background" aria-hidden="true" d="M0,0h650v800h-650Z" style="fill: none;"></path><g><g class="mark-line role-mark layer_0_layer_1_marks" role="graphics-symbol" aria-roledescription="line mark container" style="pointer-events: none;"><path d="M0,753.777149733971L13,753.777149733971L26,753.777149733971L39,753.777149733971L52,727.3640924390972L65,727.3640924390972L78,714.1575637916604L91.00000000000001,707.554299467942" style="fill: none; stroke: #f58518; stroke-width: 4; opacity: 0.5;"></path></g></g><path class="foreground" aria-hidden="true" d="" style="display: none; fill: none;"></path></g><g transform="translate(0,0)"><path class="background" aria-hidden="true" d="M0,0h650v800h-650Z" style="fill: none;"></path><g><g class="mark-line role-mark layer_0_layer_1_marks" role="graphics-symbol" aria-roledescription="line mark container" style="pointer-events: none;"><path d="M0,798.2421042574565L13,798.2421042574565L26,797.8905251089478L39,797.538945960439L52,797.538945960439L65,797.1873668119304L78,797.1873668119304L91.00000000000001,796.484208514913L104,795.0778919208782L117,794.7263127723694L130,794.3747336238607L143,794.3747336238607L156,794.023154475352L169,793.6715753268434L182.00000000000003,793.3199961783347L195,792.6168378813172L208,791.5621004357911L221.00000000000003,791.5621004357911L234,790.8589421387737L247,790.507362990265L260,790.507362990265L273,790.1557838417564L286,789.8042046932476L299,788.0463089507042L312,787.6947298021954L325,786.6399923566693L338,784.1789383171084L351,782.7726217230736L364.00000000000006,782.0694634260562L377,779.6084093864953L390,778.2020927924605L403,777.1473553469343L416,776.444197049917L429,773.2799847133386L442.00000000000006,770.8189306737777L454.99999999999994,768.3578766342168L468,768.006297485708" style="fill: none; stroke: #e45756; stroke-width: 4; opacity: 0.5;"></path></g></g><path class="foreground" aria-hidden="true" d="" style="display: none; fill: none;"></path></g><g transform="translate(0,0)"><path class="background" aria-hidden="true" d="M0,0h650v800h-650Z" style="fill: none;"></path><g><g class="mark-line role-mark layer_0_layer_1_marks" role="graphics-symbol" aria-roledescription="line mark container" style="pointer-events: none;"><path d="M0,797.208570581572L13,797.208570581572L26,794.417141163144L39,794.417141163144L52,793.8588552794583L65,791.625711744716L78,790.5091399773448L91.00000000000001,789.9508540936591L104,789.9508540936591L117,788.2759964426024L130,786.6011387915455L143,785.4845670241743L156,784.3679952568032L169,783.8097093731175L182.00000000000003,783.2514234894319L195,782.6931376057463L208,782.1348517220607L221.00000000000003,780.459994071004L234,780.459994071004L247,779.3434223036327L260,778.2268505362615L273,776.5519928852048L286,776.5519928852048L299,776.5519928852048L312,775.993707001519L325,775.4354211178335L338,775.4354211178335L351,774.3188493504623L364.00000000000006,773.2022775830911L377,772.0857058157198L390,770.9691340483487L403,770.9691340483487L416,769.2942763972919L429,767.619418746235L442.00000000000006,767.0611328625495L454.99999999999994,764.827989327807" style="fill: none; stroke: #72b7b2; stroke-width: 4; opacity: 0.5;"></path></g></g><path class="foreground" aria-hidden="true" d="" style="display: none; fill: none;"></path></g><g transform="translate(0,0)"><path class="background" aria-hidden="true" d="M0,0h650v800h-650Z" style="fill: none;"></path><g><g class="mark-line role-mark layer_0_layer_1_marks" role="graphics-symbol" aria-roledescription="line mark container" style="pointer-events: none;"><path d="M0,791.2994149726628L13,791.2994149726628L26,791.2994149726628L39,787.8191809617279L52,787.8191809617279L65,786.0790639562605L78,786.0790639562605L91.00000000000001,784.338946950793L104,784.338946950793L117,780.858712939858L130,780.858712939858L143,780.858712939858L156,775.6383619234557L169,775.6383619234557L182.00000000000003,775.6383619234557L195,775.6383619234557L208,770.4180109070534L221.00000000000003,763.4575428851836L234,759.9773088742487L247,756.4970748633139" style="fill: none; stroke: #54a24b; stroke-width: 4; opacity: 0.5;"></path></g></g><path class="foreground" aria-hidden="true" d="" style="display: none; fill: none;"></path></g><g transform="translate(0,0)"><path class="background" aria-hidden="true" d="M0,0h650v800h-650Z" style="fill: none;"></path><g><g class="mark-line role-mark layer_0_layer_1_marks" role="graphics-symbol" aria-roledescription="line mark container" style="pointer-events: none;"><path d="M0,799.5644509101223L13,799.21601163822L26,798.6933527303669L39,798.0835840045381L52,797.3867054607338L65,796.5156072809783L78,795.818728737174L91.00000000000001,794.9476305574185L104,794.0765323776632L117,792.6827752900545L130,791.4632378383968L143,790.1565905687637L156,788.1530647553262L169,785.7139898520111L182.00000000000003,783.623354220598L195,780.9229498633563L208,777.3514473263591L221.00000000000003,776.044800056726L234,773.5186153354352L247,767.6822575310739L260,762.7169979064679L273,756.7935302841312L286,752.9606982932073L299,751.2185019336964L312,748.7794270303813L325,747.0372306708704L338,739.4586765069982L351,732.2285616150282L364.00000000000006,725.6953252668626L377,719.1620889186969L390,713.6741703862378L403,711.5835347548248L416,709.6671187593629L429,704.7889689527325L442.00000000000006,701.2174664157352L454.99999999999994,682.8372948228958L468,668.2899552209803L481,654.7879334347713L494,651.9133094415783L507,641.0245821946356L520,621.5119829681141L533,604.2642390089568L546,593.1141823080874L559,581.2672470634137L572,574.734010715248L585,571.1625081782508L598,568.8105430929111L611,551.6499089517293L624,534.7506042644742L637,520.725923570412" style="fill: none; stroke: #eeca3b; stroke-width: 4; opacity: 0.5;"></path></g></g><path class="foreground" aria-hidden="true" d="" style="display: none; fill: none;"></path></g><g transform="translate(0,0)"><path class="background" aria-hidden="true" d="M0,0h650v800h-650Z" style="fill: none;"></path><g><g class="mark-line role-mark layer_0_layer_1_marks" role="graphics-symbol" aria-roledescription="line mark container" style="pointer-events: none;"><path d="M0,784.741230340029L13,782.1981020633671L26,777.1118455100434L39,777.1118455100434L52,777.1118455100434" style="fill: none; stroke: #b279a2; stroke-width: 4; opacity: 0.5;"></path></g></g><path class="foreground" aria-hidden="true" d="" style="display: none; fill: none;"></path></g></g><g class="mark-text role-mark layer_0_layer_2_marks" role="graphics-object" aria-roledescription="text mark container" style="pointer-events: none;"><text text-anchor="start" transform="translate(278,641.722660967078)" style="font-family: sans-serif; font-size: 15px; fill: #4c78a8;">AC</text><text text-anchor="start" transform="translate(291,687.5417838127596)" style="font-family: sans-serif; font-size: 15px; fill: #f58518;">AL</text><text text-anchor="start" transform="translate(447.00000000000006,27.119786314568124)" style="font-family: sans-serif; font-size: 15px; fill: #e45756;">AM</text><text text-anchor="start" transform="translate(343,516.4921884145194)" style="font-family: sans-serif; font-size: 15px; fill: #72b7b2;">AP</text><text text-anchor="start" transform="translate(447.00000000000006,760.6244765705305)" style="font-family: sans-serif; font-size: 15px; fill: #54a24b;">BA</text><text text-anchor="start" transform="translate(512,409.47118388607726)" style="font-family: sans-serif; font-size: 15px; fill: #eeca3b;">CE</text><text text-anchor="start" transform="translate(459.99999999999994,758.5696329480497)" style="font-family: sans-serif; font-size: 15px; fill: #b279a2;">DF</text><text text-anchor="start" transform="translate(447.00000000000006,648.7286153310191)" style="font-family: sans-serif; font-size: 15px; fill: #ff9da6;">ES</text><text text-anchor="start" transform="translate(408,779.9228950263837)" style="font-family: sans-serif; font-size: 15px; fill: #9d755d;">GO</text><text text-anchor="start" transform="translate(395,618.4323348052862)" style="font-family: sans-serif; font-size: 15px; fill: #bab0ac;">MA</text><text text-anchor="start" transform="translate(447.00000000000006,784.9705141403683)" style="font-family: sans-serif; font-size: 15px; fill: #4c78a8;">MG</text><text text-anchor="start" transform="translate(278,790.6062607008456)" style="font-family: sans-serif; font-size: 15px; fill: #f58518;">MS</text><text text-anchor="start" transform="translate(278,788.9286708494215)" style="font-family: sans-serif; font-size: 15px; fill: #e45756;">MT</text><text text-anchor="start" transform="translate(408,578.0988455590085)" style="font-family: sans-serif; font-size: 15px; fill: #72b7b2;">PA</text><text text-anchor="start" transform="translate(382,694.5007549537385)" style="font-family: sans-serif; font-size: 15px; fill: #54a24b;">PB</text><text text-anchor="start" transform="translate(525,451.33515854386764)" style="font-family: sans-serif; font-size: 15px; fill: #eeca3b;">PE</text><text text-anchor="start" transform="translate(395,759.7846819056546)" style="font-family: sans-serif; font-size: 15px; fill: #b279a2;">PI</text><text text-anchor="start" transform="translate(447.00000000000006,767.567639531966)" style="font-family: sans-serif; font-size: 15px; fill: #ff9da6;">PR</text><text text-anchor="start" transform="translate(577,482.03339651917764)" style="font-family: sans-serif; font-size: 15px; fill: #9d755d;">RJ</text><text text-anchor="start" transform="translate(434,718.3125910895039)" style="font-family: sans-serif; font-size: 15px; fill: #bab0ac;">RN</text><text text-anchor="start" transform="translate(213,721.7241064018343)" style="font-family: sans-serif; font-size: 15px; fill: #4c78a8;">RO</text><text text-anchor="start" transform="translate(96.00000000000001,712.554299467942)" style="font-family: sans-serif; font-size: 15px; fill: #f58518;">RR</text><text text-anchor="start" transform="translate(473,773.006297485708)" style="font-family: sans-serif; font-size: 15px; fill: #e45756;">RS</text><text text-anchor="start" transform="translate(459.99999999999994,769.827989327807)" style="font-family: sans-serif; font-size: 15px; fill: #72b7b2;">SC</text><text text-anchor="start" transform="translate(252,761.4970748633139)" style="font-family: sans-serif; font-size: 15px; fill: #54a24b;">SE</text><text text-anchor="start" transform="translate(642,525.725923570412)" style="font-family: sans-serif; font-size: 15px; fill: #eeca3b;">SP</text><text text-anchor="start" transform="translate(57,782.1118455100434)" style="font-family: sans-serif; font-size: 15px; fill: #b279a2;">TO</text></g><g class="mark-group role-title"><g transform="translate(325,-34)"><path class="background" aria-hidden="true" d="M0,0h0v0h0Z" style="pointer-events: none; fill: none;"></path><g><g class="mark-text role-title-text" role="graphics-symbol" aria-roledescription="title" aria-label="Title text 'Mortes confirmadas pelo COVID-19 a cada 100 mil habitantes'" style="pointer-events: none;"><text text-anchor="middle" transform="translate(0,18)" style="font-family: sans-serif; font-size: 23px; font-weight: bold; fill: #000; opacity: 1;">Mortes confirmadas pelo COVID-19 a cada 100 mil habitantes</text></g></g><path class="foreground" aria-hidden="true" d="" style="pointer-events: none; display: none; fill: none;"></path></g></g></g><path class="foreground" aria-hidden="true" d="" style="display: none; fill: none;"></path></g></g></g></svg>