<svg class="marks" width="722" height="890" viewBox="0 0 722 890" version="1.1" xmlns="http://www.w3.org/2000/svg" xmlns:xlink="http://www.w3.org/1999/xlink"><rect width="722" height="890" style="fill: white;"></rect><g transform="translate(57,39)"><g class="mark-group role-frame root"><g transform="translate(0,0)"><path class="background" d="M0.5,0.5h650v800h-650Z" style="fill: none; stroke: #ddd;"></path><g><g class="mark-group role-axis"><g transform="translate(0.5,800.5)"><path class="background" d="M0,0h0v0h0Z" style="pointer-events: none; fill: none;"></path><g><g class="mark-rule role-axis-grid" style="pointer-events: none;"><line transform="translate(0,-800)" x2="0" y2="800" style="fill: none; stroke: #ddd; stroke-width: 1; opacity: 1;"></line><line transform="translate(37,-800)" x2="0" y2="800" style="fill: none; stroke: #ddd; stroke-width: 1; opacity: 1;"></line><line transform="translate(74,-800)" x2="0" y2="800" style="fill: none; stroke: #ddd; stroke-width: 1; opacity: 1;"></line><line transform="translate(111,-800)" x2="0" y2="800" style="fill: none; stroke: #ddd; stroke-width: 1; opacity: 1;"></line><line transform="translate(149,-800)" x2="0" y2="800" style="fill: none; stroke: #ddd; stroke-width: 1; opacity: 1;"></line><line transform="translate(186,-800)" x2="0" y2="800" style="fill: none; stroke: #ddd; stroke-width: 1; opacity: 1;"></line><line transform="translate(223,-800)" x2="0" y2="800" style="fill: none; stroke: #ddd; stroke-width: 1; opacity: 1;"></line><line transform="translate(260,-800)" x2="0" y2="800" style="fill: none; stroke: #ddd; stroke-width: 1; opacity: 1;"></line><line transform="translate(297,-800)" x2="0" y2="800" style="fill: none; stroke: #ddd; stroke-width: 1; opacity: 1;"></line><line transform="translate(334,-800)" x2="0" y2="800" style="fill: none; stroke: #ddd; stroke-width: 1; opacity: 1;"></line><line transform="translate(371,-800)" x2="0" y2="800" style="fill: none; stroke: #ddd; stroke-width: 1; opacity: 1;"></line><line transform="translate(409,-800)" x2="0" y2="800" style="fill: none; stroke: #ddd; stroke-width: 1; opacity: 1;"></line><line transform="translate(446,-800)" x2="0" y2="800" style="fill: none; stroke: #ddd; stroke-width: 1; opacity: 1;"></line><line transform="translate(483,-800)" x2="0" y2="800" style="fill: none; stroke: #ddd; stroke-width: 1; opacity: 1;"></line><line transform="translate(520,-800)" x2="0" y2="800" style="fill: none; stroke: #ddd; stroke-width: 1; opacity: 1;"></line><line transform="translate(557,-800)" x2="0" y2="800" style="fill: none; stroke: #ddd; stroke-width: 1; opacity: 1;"></line><line transform="translate(594,-800)" x2="0" y2="800" style="fill: none; stroke: #ddd; stroke-width: 1; opacity: 1;"></line><line transform="translate(631,-800)" x2="0" y2="800" style="fill: none; stroke: #ddd; stroke-width: 1; opacity: 1;"></line></g></g><path class="foreground" d="" style="pointer-events: none; display: none; fill: none;"></path></g></g><g class="mark-group role-axis"><g transform="translate(0.5,0.5)"><path class="background" d="M0,0h0v0h0Z" style="pointer-events: none; fill: none;"></path><g><g class="mark-rule role-axis-grid" style="pointer-events: none;"><line transform="translate(0,800)" x2="650" y2="0" style="fill: none; stroke: #ddd; stroke-width: 1; opacity: 1;"></line><line transform="translate(0,768)" x2="650" y2="0" style="fill: none; stroke: #ddd; stroke-width: 1; opacity: 1;"></line><line transform="translate(0,736)" x2="650" y2="0" style="fill: none; stroke: #ddd; stroke-width: 1; opacity: 1;"></line><line transform="translate(0,704)" x2="650" y2="0" style="fill: none; stroke: #ddd; stroke-width: 1; opacity: 1;"></line><line transform="translate(0,672)" x2="650" y2="0" style="fill: none; stroke: #ddd; stroke-width: 1; opacity: 1;"></line><line transform="translate(0,640)" x2="650" y2="0" style="fill: none; stroke: #ddd; stroke-width: 1; opacity: 1;"></line><line transform="translate(0,608)" x2="650" y2="0" style="fill: none; stroke: #ddd; stroke-width: 1; opacity: 1;"></line><line transform="translate(0,576)" x2="650" y2="0" style="fill: none; stroke: #ddd; stroke-width: 1; opacity: 1;"></line><line transform="translate(0,544)" x2="650" y2="0" style="fill: none; stroke: #ddd; stroke-width: 1; opacity: 1;"></line><line transform="translate(0,512)" x2="650" y2="0" style="fill: none; stroke: #ddd; stroke-width: 1; opacity: 1;"></line><line transform="translate(0,480)" x2="650" y2="0" style="fill: none; stroke: #ddd; stroke-width: 1; opacity: 1;"></line><line transform="translate(0,448)" x2="650" y2="0" style="fill: none; stroke: #ddd; stroke-width: 1; opacity: 1;"></line><line transform="translate(0,416)" x2="650" y2="0" style="fill: none; stroke: #ddd; stroke-width: 1; opacity: 1;"></line><line transform="translate(0,384)" x2="650" y2="0" style="fill: none; stroke: #ddd; stroke-width: 1; opacity: 1;"></line><line transform="translate(0,352)" x2="650" y2="0" style="fill: none; stroke: #ddd; stroke-width: 1; opacity: 1;"></line><line transform="translate(0,320)" x2="650" y2="0" style="fill: none; stroke: #ddd; stroke-width: 1; opacity: 1;"></line><line transform="translate(0,288)" x2="650" y2="0" style="fill: none; stroke: #ddd; stroke-width: 1; opacity: 1;"></line><line transform="translate(0,256)" x2="650" y2="0" style="fill: none; stroke: #ddd; stroke-width: 1; opacity: 1;"></line><line transform="translate(0,224)" x2="650" y2="0" style="fill: none; stroke: #ddd; stroke-width: 1; opacity: 1;"></line><line transform="translate(0,192)" x2="650" y2="0" style="fill: none; stroke: #ddd; stroke-width: 1; opacity: 1;"></line><line transform="translate(0,160)" x2="650" y2="0" style="fill: none; stroke: #ddd; stroke-width: 1; opacity: 1;"></line><line transform="translate(0,128)" x2="650" y2="0" style="fill: none; stroke: #ddd; stroke-width: 1; opacity: 1;"></line><line transform="translate(0,96)" x2="650" y2="0" style="fill: none; stroke: #ddd; stroke-width: 1; opacity: 1;"></line><line transform="translate(0,64)" x2="650" y2="0" style="fill: none; stroke: #ddd; stroke-width: 1; opacity: 1;"></line><line transform="translate(0,32)" x2="650" y2="0" style="fill: none; stroke: #ddd; stroke-width: 1; opacity: 1;"></line><line transform="translate(0,0)" x2="650" y2="0" style="fill: none; stroke: #ddd; stroke-width: 1; opacity: 1;"></line></g></g><path class="foreground" d="" style="pointer-events: none; display: none; fill: none;"></path></g></g><g class="mark-group role-axis"><g transform="translate(0.5,800.5)"><path class="background" d="M0,0h0v0h0Z" style="pointer-events: none; fill: none;"></path><g><g class="mark-rule role-axis-tick" style="pointer-events: none;"><line transform="translate(0,0)" x2="0" y2="5" style="fill: none; stroke: #888; stroke-width: 1; opacity: 1;"></line><line transform="translate(37,0)" x2="0" y2="5" style="fill: none; stroke: #888; stroke-width: 1; opacity: 1;"></line><line transform="translate(74,0)" x2="0" y2="5" style="fill: none; stroke: #888; stroke-width: 1; opacity: 1;"></line><line transform="translate(111,0)" x2="0" y2="5" style="fill: none; stroke: #888; stroke-width: 1; opacity: 1;"></line><line transform="translate(149,0)" x2="0" y2="5" style="fill: none; stroke: #888; stroke-width: 1; opacity: 1;"></line><line transform="translate(186,0)" x2="0" y2="5" style="fill: none; stroke: #888; stroke-width: 1; opacity: 1;"></line><line transform="translate(223,0)" x2="0" y2="5" style="fill: none; stroke: #888; stroke-width: 1; opacity: 1;"></line><line transform="translate(260,0)" x2="0" y2="5" style="fill: none; stroke: #888; stroke-width: 1; opacity: 1;"></line><line transform="translate(297,0)" x2="0" y2="5" style="fill: none; stroke: #888; stroke-width: 1; opacity: 1;"></line><line transform="translate(334,0)" x2="0" y2="5" style="fill: none; stroke: #888; stroke-width: 1; opacity: 1;"></line><line transform="translate(371,0)" x2="0" y2="5" style="fill: none; stroke: #888; stroke-width: 1; opacity: 1;"></line><line transform="translate(409,0)" x2="0" y2="5" style="fill: none; stroke: #888; stroke-width: 1; opacity: 1;"></line><line transform="translate(446,0)" x2="0" y2="5" style="fill: none; stroke: #888; stroke-width: 1; opacity: 1;"></line><line transform="translate(483,0)" x2="0" y2="5" style="fill: none; stroke: #888; stroke-width: 1; opacity: 1;"></line><line transform="translate(520,0)" x2="0" y2="5" style="fill: none; stroke: #888; stroke-width: 1; opacity: 1;"></line><line transform="translate(557,0)" x2="0" y2="5" style="fill: none; stroke: #888; stroke-width: 1; opacity: 1;"></line><line transform="translate(594,0)" x2="0" y2="5" style="fill: none; stroke: #888; stroke-width: 1; opacity: 1;"></line><line transform="translate(631,0)" x2="0" y2="5" style="fill: none; stroke: #888; stroke-width: 1; opacity: 1;"></line></g><g class="mark-text role-axis-label" style="pointer-events: none;"><text text-anchor="start" transform="translate(0,19)" style="font-family: sans-serif; font-size: 15px; fill: #000; opacity: 1;">0</text><text text-anchor="middle" transform="translate(37.14285714285714,19)" style="font-family: sans-serif; font-size: 15px; fill: #000; opacity: 1;">2</text><text text-anchor="middle" transform="translate(74.28571428571428,19)" style="font-family: sans-serif; font-size: 15px; fill: #000; opacity: 1;">4</text><text text-anchor="middle" transform="translate(111.42857142857143,19)" style="font-family: sans-serif; font-size: 15px; fill: #000; opacity: 1;">6</text><text text-anchor="middle" transform="translate(148.57142857142856,19)" style="font-family: sans-serif; font-size: 15px; fill: #000; opacity: 1;">8</text><text text-anchor="middle" transform="translate(185.7142857142857,19)" style="font-family: sans-serif; font-size: 15px; fill: #000; opacity: 1;">10</text><text text-anchor="middle" transform="translate(222.85714285714286,19)" style="font-family: sans-serif; font-size: 15px; fill: #000; opacity: 1;">12</text><text text-anchor="middle" transform="translate(260,19)" style="font-family: sans-serif; font-size: 15px; fill: #000; opacity: 1;">14</text><text text-anchor="middle" transform="translate(297.1428571428571,19)" style="font-family: sans-serif; font-size: 15px; fill: #000; opacity: 1;">16</text><text text-anchor="middle" transform="translate(334.2857142857143,19)" style="font-family: sans-serif; font-size: 15px; fill: #000; opacity: 1;">18</text><text text-anchor="middle" transform="translate(371.4285714285714,19)" style="font-family: sans-serif; font-size: 15px; fill: #000; opacity: 1;">20</text><text text-anchor="middle" transform="translate(408.57142857142856,19)" style="font-family: sans-serif; font-size: 15px; fill: #000; opacity: 1;">22</text><text text-anchor="middle" transform="translate(445.7142857142857,19)" style="font-family: sans-serif; font-size: 15px; fill: #000; opacity: 1;">24</text><text text-anchor="middle" transform="translate(482.8571428571429,19)" style="font-family: sans-serif; font-size: 15px; fill: #000; opacity: 1;">26</text><text text-anchor="middle" transform="translate(520,19)" style="font-family: sans-serif; font-size: 15px; fill: #000; opacity: 1;">28</text><text text-anchor="middle" transform="translate(557.1428571428571,19)" style="font-family: sans-serif; font-size: 15px; fill: #000; opacity: 1;">30</text><text text-anchor="middle" transform="translate(594.2857142857142,19)" style="font-family: sans-serif; font-size: 15px; fill: #000; opacity: 1;">32</text><text text-anchor="middle" transform="translate(631.4285714285714,19)" style="font-family: sans-serif; font-size: 15px; fill: #000; opacity: 1;">34</text></g><g class="mark-rule role-axis-domain" style="pointer-events: none;"><line transform="translate(0,0)" x2="650" y2="0" style="fill: none; stroke: #888; stroke-width: 1; opacity: 1;"></line></g><g class="mark-text role-axis-title" style="pointer-events: none;"><text text-anchor="middle" transform="translate(325,42)" style="font-family: sans-serif; font-size: 20px; font-weight: bold; fill: #000; opacity: 1;">Dias a partir da 5a morte no estado</text></g></g><path class="foreground" d="" style="pointer-events: none; display: none; fill: none;"></path></g></g><g class="mark-group role-axis"><g transform="translate(0.5,0.5)"><path class="background" d="M0,0h0v0h0Z" style="pointer-events: none; fill: none;"></path><g><g class="mark-rule role-axis-tick" style="pointer-events: none;"><line transform="translate(0,800)" x2="-5" y2="0" style="fill: none; stroke: #888; stroke-width: 1; opacity: 1;"></line><line transform="translate(0,768)" x2="-5" y2="0" style="fill: none; stroke: #888; stroke-width: 1; opacity: 1;"></line><line transform="translate(0,736)" x2="-5" y2="0" style="fill: none; stroke: #888; stroke-width: 1; opacity: 1;"></line><line transform="translate(0,704)" x2="-5" y2="0" style="fill: none; stroke: #888; stroke-width: 1; opacity: 1;"></line><line transform="translate(0,672)" x2="-5" y2="0" style="fill: none; stroke: #888; stroke-width: 1; opacity: 1;"></line><line transform="translate(0,640)" x2="-5" y2="0" style="fill: none; stroke: #888; stroke-width: 1; opacity: 1;"></line><line transform="translate(0,608)" x2="-5" y2="0" style="fill: none; stroke: #888; stroke-width: 1; opacity: 1;"></line><line transform="translate(0,576)" x2="-5" y2="0" style="fill: none; stroke: #888; stroke-width: 1; opacity: 1;"></line><line transform="translate(0,544)" x2="-5" y2="0" style="fill: none; stroke: #888; stroke-width: 1; opacity: 1;"></line><line transform="translate(0,512)" x2="-5" y2="0" style="fill: none; stroke: #888; stroke-width: 1; opacity: 1;"></line><line transform="translate(0,480)" x2="-5" y2="0" style="fill: none; stroke: #888; stroke-width: 1; opacity: 1;"></line><line transform="translate(0,448)" x2="-5" y2="0" style="fill: none; stroke: #888; stroke-width: 1; opacity: 1;"></line><line transform="translate(0,416)" x2="-5" y2="0" style="fill: none; stroke: #888; stroke-width: 1; opacity: 1;"></line><line transform="translate(0,384)" x2="-5" y2="0" style="fill: none; stroke: #888; stroke-width: 1; opacity: 1;"></line><line transform="translate(0,352)" x2="-5" y2="0" style="fill: none; stroke: #888; stroke-width: 1; opacity: 1;"></line><line transform="translate(0,320)" x2="-5" y2="0" style="fill: none; stroke: #888; stroke-width: 1; opacity: 1;"></line><line transform="translate(0,288)" x2="-5" y2="0" style="fill: none; stroke: #888; stroke-width: 1; opacity: 1;"></line><line transform="translate(0,256)" x2="-5" y2="0" style="fill: none; stroke: #888; stroke-width: 1; opacity: 1;"></line><line transform="translate(0,224)" x2="-5" y2="0" style="fill: none; stroke: #888; stroke-width: 1; opacity: 1;"></line><line transform="translate(0,192)" x2="-5" y2="0" style="fill: none; stroke: #888; stroke-width: 1; opacity: 1;"></line><line transform="translate(0,160)" x2="-5" y2="0" style="fill: none; stroke: #888; stroke-width: 1; opacity: 1;"></line><line transform="translate(0,128)" x2="-5" y2="0" style="fill: none; stroke: #888; stroke-width: 1; opacity: 1;"></line><line transform="translate(0,96)" x2="-5" y2="0" style="fill: none; stroke: #888; stroke-width: 1; opacity: 1;"></line><line transform="translate(0,64)" x2="-5" y2="0" style="fill: none; stroke: #888; stroke-width: 1; opacity: 1;"></line><line transform="translate(0,32)" x2="-5" y2="0" style="fill: none; stroke: #888; stroke-width: 1; opacity: 1;"></line><line transform="translate(0,0)" x2="-5" y2="0" style="fill: none; stroke: #888; stroke-width: 1; opacity: 1;"></line></g><g class="mark-text role-axis-label" style="pointer-events: none;"><text text-anchor="end" transform="translate(-7,805)" style="font-family: sans-serif; font-size: 15px; fill: #000; opacity: 1;">0.0</text><text text-anchor="end" transform="translate(-7,773)" style="font-family: sans-serif; font-size: 15px; fill: #000; opacity: 1;">0.2</text><text text-anchor="end" transform="translate(-7,741)" style="font-family: sans-serif; font-size: 15px; fill: #000; opacity: 1;">0.4</text><text text-anchor="end" transform="translate(-7,709)" style="font-family: sans-serif; font-size: 15px; fill: #000; opacity: 1;">0.6</text><text text-anchor="end" transform="translate(-7,677)" style="font-family: sans-serif; font-size: 15px; fill: #000; opacity: 1;">0.8</text><text text-anchor="end" transform="translate(-7,645)" style="font-family: sans-serif; font-size: 15px; fill: #000; opacity: 1;">1.0</text><text text-anchor="end" transform="translate(-7,613)" style="font-family: sans-serif; font-size: 15px; fill: #000; opacity: 1;">1.2</text><text text-anchor="end" transform="translate(-7,581)" style="font-family: sans-serif; font-size: 15px; fill: #000; opacity: 1;">1.4</text><text text-anchor="end" transform="translate(-7,549)" style="font-family: sans-serif; font-size: 15px; fill: #000; opacity: 1;">1.6</text><text text-anchor="end" transform="translate(-7,517)" style="font-family: sans-serif; font-size: 15px; fill: #000; opacity: 1;">1.8</text><text text-anchor="end" transform="translate(-7,485)" style="font-family: sans-serif; font-size: 15px; fill: #000; opacity: 1;">2.0</text><text text-anchor="end" transform="translate(-7,452.99999999999994)" style="font-family: sans-serif; font-size: 15px; fill: #000; opacity: 1;">2.2</text><text text-anchor="end" transform="translate(-7,421)" style="font-family: sans-serif; font-size: 15px; fill: #000; opacity: 1;">2.4</text><text text-anchor="end" transform="translate(-7,389)" style="font-family: sans-serif; font-size: 15px; fill: #000; opacity: 1;">2.6</text><text text-anchor="end" transform="translate(-7,357.00000000000006)" style="font-family: sans-serif; font-size: 15px; fill: #000; opacity: 1;">2.8</text><text text-anchor="end" transform="translate(-7,325)" style="font-family: sans-serif; font-size: 15px; fill: #000; opacity: 1;">3.0</text><text text-anchor="end" transform="translate(-7,293)" style="font-family: sans-serif; font-size: 15px; fill: #000; opacity: 1;">3.2</text><text text-anchor="end" transform="translate(-7,261.00000000000006)" style="font-family: sans-serif; font-size: 15px; fill: #000; opacity: 1;">3.4</text><text text-anchor="end" transform="translate(-7,229.00000000000003)" style="font-family: sans-serif; font-size: 15px; fill: #000; opacity: 1;">3.6</text><text text-anchor="end" transform="translate(-7,197)" style="font-family: sans-serif; font-size: 15px; fill: #000; opacity: 1;">3.8</text><text text-anchor="end" transform="translate(-7,164.99999999999997)" style="font-family: sans-serif; font-size: 15px; fill: #000; opacity: 1;">4.0</text><text text-anchor="end" transform="translate(-7,132.99999999999994)" style="font-family: sans-serif; font-size: 15px; fill: #000; opacity: 1;">4.2</text><text text-anchor="end" transform="translate(-7,100.99999999999991)" style="font-family: sans-serif; font-size: 15px; fill: #000; opacity: 1;">4.4</text><text text-anchor="end" transform="translate(-7,69.00000000000006)" style="font-family: sans-serif; font-size: 15px; fill: #000; opacity: 1;">4.6</text><text text-anchor="end" transform="translate(-7,37.00000000000003)" style="font-family: sans-serif; font-size: 15px; fill: #000; opacity: 1;">4.8</text><text text-anchor="end" transform="translate(-7,5)" style="font-family: sans-serif; font-size: 15px; fill: #000; opacity: 1;">5.0</text></g><g class="mark-rule role-axis-domain" style="pointer-events: none;"><line transform="translate(0,800)" x2="0" y2="-800" style="fill: none; stroke: #888; stroke-width: 1; opacity: 1;"></line></g><g class="mark-text role-axis-title" style="pointer-events: none;"><text text-anchor="middle" transform="translate(-31.85205078125,400) rotate(-90) translate(0,-4)" style="font-family: sans-serif; font-size: 20px; font-weight: bold; fill: #000; opacity: 1;">Mortes confirmadas a cada 100 mil habitantes</text></g></g><path class="foreground" d="" style="pointer-events: none; display: none; fill: none;"></path></g></g><g class="mark-group role-scope layer_0_layer_0_pathgroup"><g transform="translate(0,0)"><path class="background" d="M0,0h650v800h-650Z" style="fill: none;"></path><g><g class="mark-line role-mark layer_0_layer_0_marks"><path d="M0,709.2903672039323L18.57142857142857,709.2903672039323L37.14285714285714,691.1484406447187L55.714285714285715,691.1484406447187L74.28571428571428,654.8645875262916L92.85714285714285,654.8645875262916" style="fill: none; stroke: #4c78a8; stroke-width: 4; opacity: 0.7;"></path></g></g><path class="foreground" d="" style="display: none; fill: none;"></path></g><g transform="translate(0,0)"><path class="background" d="M0,0h650v800h-650Z" style="fill: none;"></path><g><g class="mark-line role-mark layer_0_layer_0_marks"><path d="M0,776.0289354719918L18.57142857142857,776.0289354719918L37.14285714285714,766.4405096607885L55.714285714285715,752.0578709439835L74.28571428571428,728.0868064159753L92.85714285714285,713.7041676991704L111.42857142857143,708.9099547935687" style="fill: none; stroke: #f58518; stroke-width: 4; opacity: 0.7;"></path></g></g><path class="foreground" d="" style="display: none; fill: none;"></path></g><g transform="translate(0,0)"><path class="background" d="M0,0h650v800h-650Z" style="fill: none;"></path><g><g class="mark-line role-mark layer_0_layer_0_marks"><path d="M0,772.9768660258163L18.57142857142857,753.6746274728279L37.14285714285714,742.0932843410349L55.714285714285715,726.6514934986441L74.28571428571428,711.2097026562535L92.85714285714285,684.1865686820697L111.42857142857143,645.5820915760929L130,606.9776144701161L148.57142857142856,595.3962713383231L167.14285714285714,560.6522419429441L185.7142857142857,525.9082125475649L204.28571428571428,452.5597060462091L222.85714285714286,390.7925426766463L241.42857142857144,321.30448388588803L260,240.23508196333685L278.57142857142856,178.46791859377396L297.1428571428571,97.3985166712228L315.7142857142857,85.81717353942979L334.2857142857143,54.933591854648256" style="fill: none; stroke: #e45756; stroke-width: 4; opacity: 0.7;"></path></g></g><path class="foreground" d="" style="display: none; fill: none;"></path></g><g transform="translate(0,0)"><path class="background" d="M0,0h650v800h-650Z" style="fill: none;"></path><g><g class="mark-line role-mark layer_0_layer_0_marks"><path d="M0,705.4072748900064L18.57142857142857,705.4072748900064L37.14285714285714,686.4887298680077L55.714285714285715,667.5701848460089L74.28571428571428,667.5701848460089L92.85714285714285,610.8145497800127L111.42857142857143,610.8145497800127L130,610.8145497800127L148.57142857142856,591.8960047580141L167.14285714285714,554.0589147140166L185.7142857142857,554.0589147140166" style="fill: none; stroke: #72b7b2; stroke-width: 4; opacity: 0.7;"></path></g></g><path class="foreground" d="" style="display: none; fill: none;"></path></g><g transform="translate(0,0)"><path class="background" d="M0,0h650v800h-650Z" style="fill: none;"></path><g><g class="mark-line role-mark layer_0_layer_0_marks"><path d="M0,793.545378410259L18.57142857142857,792.4696081453021L37.14285714285714,790.3180676153885L55.714285714285715,789.2422973504316L74.28571428571428,784.9392162906042L92.85714285714285,780.636135230777L111.42857142857143,779.5603649658201L130,779.5603649658201L148.57142857142856,777.4088244359065L167.14285714285714,777.4088244359065L185.7142857142857,776.3330541709496L204.28571428571428,772.0299731111222L222.85714285714286,769.8784325812086L241.42857142857144,763.4238109914676L260,761.272270461554L278.57142857142856,756.9691894017266L297.1428571428571,751.5903380769423L315.7142857142857,749.4387975470287L334.2857142857143,748.3630272820718" style="fill: none; stroke: #54a24b; stroke-width: 4; opacity: 0.7;"></path></g></g><path class="foreground" d="" style="display: none; fill: none;"></path></g><g transform="translate(0,0)"><path class="background" d="M0,0h650v800h-650Z" style="fill: none;"></path><g><g class="mark-line role-mark layer_0_layer_0_marks"><path d="M0,791.2396718468676L18.57142857142857,791.2396718468676L37.14285714285714,787.7355405856148L55.714285714285715,784.231409324362L74.28571428571428,763.2066217568445L92.85714285714285,761.454556126218L111.42857142857143,759.7024904955915L130,738.677702928074L148.57142857142856,738.677702928074L167.14285714285714,729.9173747749417L185.7142857142857,700.1322590542919L204.28571428571428,700.1322590542919L222.85714285714286,682.6116027480273L241.42857142857144,670.3471433336422L260,666.8430120723892L278.57142857142856,623.0413713067278L297.1428571428571,605.5207150004632L315.7142857142857,582.7438618023192L334.2857142857143,563.4711398654282L352.85714285714283,528.4298272528991L371.4285714285714,484.62818648723766L390,468.8595958115995L408.57142857142856,439.0744800909497L427.14285714285717,412.7934956315529" style="fill: none; stroke: #eeca3b; stroke-width: 4; opacity: 0.7;"></path></g></g><path class="foreground" d="" style="display: none; fill: none;"></path></g><g transform="translate(0,0)"><path class="background" d="M0,0h650v800h-650Z" style="fill: none;"></path><g><g class="mark-line role-mark layer_0_layer_0_marks"><path d="M0,773.4683616845998L18.57142857142857,768.1620340215198L37.14285714285714,762.8557063584398L55.714285714285715,762.8557063584398L74.28571428571428,746.9367233691996L92.85714285714285,736.3240680430396L111.42857142857143,736.3240680430396L130,731.0177403799596L148.57142857142856,725.7114127168796L167.14285714285714,725.7114127168796L185.7142857142857,725.7114127168796L204.28571428571428,720.4050850537996L222.85714285714286,709.7924297276395L241.42857142857144,709.7924297276395L260,693.8734467383994L278.57142857142856,672.6481360860793L297.1428571428571,672.6481360860793L315.7142857142857,672.6481360860793L334.2857142857143,672.6481360860793L352.85714285714283,672.6481360860793" style="fill: none; stroke: #b279a2; stroke-width: 4; opacity: 0.7;"></path></g></g><path class="foreground" d="" style="display: none; fill: none;"></path></g><g transform="translate(0,0)"><path class="background" d="M0,0h650v800h-650Z" style="fill: none;"></path><g><g class="mark-line role-mark layer_0_layer_0_marks"><path d="M0,780.0928172396203L18.57142857142857,776.1113806875443L37.14285714285714,776.1113806875443L55.714285714285715,776.1113806875443L74.28571428571428,776.1113806875443L92.85714285714285,776.1113806875443L111.42857142857143,772.1299441354683L130,768.1485075833924L148.57142857142856,764.1670710313165L167.14285714285714,744.2598882709367L185.7142857142857,732.3155786147089L204.28571428571428,728.334142062633L222.85714285714286,716.3898324064052L241.42857142857144,688.5197765418735L260,688.5197765418735L278.57142857142856,680.5569034377216L297.1428571428571,664.6311572294179L315.7142857142857,664.6311572294179L334.2857142857143,664.6311572294179" style="fill: none; stroke: #ff9da6; stroke-width: 4; opacity: 0.7;"></path></g></g><path class="foreground" d="" style="display: none; fill: none;"></path></g><g transform="translate(0,0)"><path class="background" d="M0,0h650v800h-650Z" style="fill: none;"></path><g><g class="mark-line role-mark layer_0_layer_0_marks"><path d="M0,788.6013159210835L18.57142857142857,788.6013159210835L37.14285714285714,784.0418422895169L55.714285714285715,784.0418422895169L74.28571428571428,781.7621054737335L92.85714285714285,777.202631842167L111.42857142857143,768.0836845790337L130,765.8039477632504L148.57142857142856,765.8039477632504L167.14285714285714,765.8039477632504L185.7142857142857,763.5242109474672L204.28571428571428,763.5242109474672L222.85714285714286,758.9647373159005L241.42857142857144,758.9647373159005L260,756.6850005001172L278.57142857142856,756.6850005001172" style="fill: none; stroke: #9d755d; stroke-width: 4; opacity: 0.7;"></path></g></g><path class="foreground" d="" style="display: none; fill: none;"></path></g><g transform="translate(0,0)"><path class="background" d="M0,0h650v800h-650Z" style="fill: none;"></path><g><g class="mark-line role-mark layer_0_layer_0_marks"><path d="M0,775.1243113073715L18.57142857142857,772.8628850625871L37.14285714285714,763.8171800834494L55.714285714285715,752.5100488595275L74.28571428571428,745.7257701251741L92.85714285714285,738.9414913908209L111.42857142857143,727.6343601668989L130,723.1115076773301L148.57142857142856,716.327228942977L167.14285714285714,709.5429502086237L185.7142857142857,700.497245229486L204.28571428571428,691.4515402503483L222.85714285714286,677.8829827816419L241.42857142857144,664.3144253129356L260,650.745867844229" style="fill: none; stroke: #bab0ac; stroke-width: 4; opacity: 0.7;"></path></g></g><path class="foreground" d="" style="display: none; fill: none;"></path></g><g transform="translate(0,0)"><path class="background" d="M0,0h650v800h-650Z" style="fill: none;"></path><g><g class="mark-line role-mark layer_0_layer_0_marks"><path d="M0,795.4650220695173L18.57142857142857,795.4650220695173L37.14285714285714,795.4650220695173L55.714285714285715,793.197533104276L74.28571428571428,791.6858737941151L92.85714285714285,789.4183848288737L111.42857142857143,788.6625551737933L130,787.1508958636324L148.57142857142856,787.1508958636324L167.14285714285714,784.8834068983911L185.7142857142857,782.6159179331498L204.28571428571428,779.592599312828L222.85714285714286,777.3251103475867L241.42857142857144,775.0576213823454L260,773.5459620721845L278.57142857142856,770.5226434518627L297.1428571428571,770.5226434518627L315.7142857142857,769.0109841417018L334.2857142857143,766.7434951764606" style="fill: none; stroke: #4c78a8; stroke-width: 4; opacity: 0.7;"></path></g></g><path class="foreground" d="" style="display: none; fill: none;"></path></g><g transform="translate(0,0)"><path class="background" d="M0,0h650v800h-650Z" style="fill: none;"></path><g><g class="mark-line role-mark layer_0_layer_0_marks"><path d="M0,771.2125214016911L18.57142857142857,771.2125214016911L37.14285714285714,771.2125214016911L55.714285714285715,771.2125214016911L74.28571428571428,771.2125214016911L92.85714285714285,765.4550256820294" style="fill: none; stroke: #f58518; stroke-width: 4; opacity: 0.7;"></path></g></g><path class="foreground" d="" style="display: none; fill: none;"></path></g><g transform="translate(0,0)"><path class="background" d="M0,0h650v800h-650Z" style="fill: none;"></path><g><g class="mark-line role-mark layer_0_layer_0_marks"><path d="M0,777.0409583563163L18.57142857142857,777.0409583563163L37.14285714285714,777.0409583563163L55.714285714285715,777.0409583563163L74.28571428571428,772.4491500275795L92.85714285714285,772.4491500275795" style="fill: none; stroke: #e45756; stroke-width: 4; opacity: 0.7;"></path></g></g><path class="foreground" d="" style="display: none; fill: none;"></path></g><g transform="translate(0,0)"><path class="background" d="M0,0h650v800h-650Z" style="fill: none;"></path><g><g class="mark-line role-mark layer_0_layer_0_marks"><path d="M0,790.7007723589758L18.57142857142857,790.7007723589758L37.14285714285714,788.8409268307709L55.714285714285715,786.981081302566L74.28571428571428,783.2613902461563L92.85714285714285,779.5416991897466L111.42857142857143,773.9621626051321L130,773.9621626051321L148.57142857142856,760.9432439076982L167.14285714285714,760.9432439076982L185.7142857142857,751.644016266674L204.28571428571428,740.4849430974449L222.85714285714286,738.62509756924L241.42857142857144,736.7652520410352L260,734.9054065128304L278.57142857142856,729.3258699282158" style="fill: none; stroke: #72b7b2; stroke-width: 4; opacity: 0.7;"></path></g></g><path class="foreground" d="" style="display: none; fill: none;"></path></g><g transform="translate(0,0)"><path class="background" d="M0,0h650v800h-650Z" style="fill: none;"></path><g><g class="mark-line role-mark layer_0_layer_0_marks"><path d="M0,772.126316564907L18.57142857142857,756.1984974591395L37.14285714285714,756.1984974591395L55.714285714285715,748.2345879062558L74.28571428571428,748.2345879062558L92.85714285714285,736.2887235769302L111.42857142857143,716.3789496947209L130,704.4330853653954L148.57142857142856,696.4691758125117L167.14285714285714,688.5052662596279L185.7142857142857,684.523311483186L204.28571428571428,672.5774471538605L222.85714285714286,668.5954923774186L241.42857142857144,644.7037637187675" style="fill: none; stroke: #54a24b; stroke-width: 4; opacity: 0.7;"></path></g></g><path class="foreground" d="" style="display: none; fill: none;"></path></g><g transform="translate(0,0)"><path class="background" d="M0,0h650v800h-650Z" style="fill: none;"></path><g><g class="mark-line role-mark layer_0_layer_0_marks"><path d="M0,791.6292345217483L18.57142857142857,791.6292345217483L37.14285714285714,789.955081426098L55.714285714285715,789.955081426098L74.28571428571428,786.6067752347974L92.85714285714285,784.932622139147L111.42857142857143,783.2584690434967L130,776.5618566608954L148.57142857142856,764.842784991343L167.14285714285714,749.7754071304901L185.7142857142857,743.0787947478888L204.28571428571428,722.9889576000847L222.85714285714286,706.2474266435814L241.42857142857144,691.1800487827286L260,679.4609771131762L278.57142857142856,657.696986869722L297.1428571428571,629.2363842436663L315.7142857142857,607.472394000212L334.2857142857143,560.5961073220027L352.85714285714283,532.135504695947L371.4285714285714,488.6075242090385L390,456.7986153916822L408.57142857142856,438.3829313395286L427.14285714285717,408.2481756178227L445.7142857142857,364.7201951309141" style="fill: none; stroke: #eeca3b; stroke-width: 4; opacity: 0.7;"></path></g></g><path class="foreground" d="" style="display: none; fill: none;"></path></g><g transform="translate(0,0)"><path class="background" d="M0,0h650v800h-650Z" style="fill: none;"></path><g><g class="mark-line role-mark layer_0_layer_0_marks"><path d="M0,775.55928751657L18.57142857142857,770.6711450198841L37.14285714285714,765.7830025231981L55.714285714285715,765.7830025231981L74.28571428571428,765.7830025231981L92.85714285714285,765.7830025231981L111.42857142857143,760.8948600265121L130,760.8948600265121L148.57142857142856,760.8948600265121L167.14285714285714,760.8948600265121L185.7142857142857,756.006717529826L204.28571428571428,751.1185750331401L222.85714285714286,741.342290039768L241.42857142857144,731.5660050463962L260,726.6778625497102" style="fill: none; stroke: #b279a2; stroke-width: 4; opacity: 0.7;"></path></g></g><path class="foreground" d="" style="display: none; fill: none;"></path></g><g transform="translate(0,0)"><path class="background" d="M0,0h650v800h-650Z" style="fill: none;"></path><g><g class="mark-line role-mark layer_0_layer_0_marks"><path d="M0,793.0032971087787L18.57142857142857,790.2046159522902L37.14285714285714,786.0065942175573L55.714285714285715,780.4092319045803L74.28571428571428,779.0098913263362L92.85714285714285,776.2112101698475L111.42857142857143,766.4158261221378L130,763.6171449656492L148.57142857142856,762.217804387405L167.14285714285714,756.620442074428L185.7142857142857,753.8217609179394L204.28571428571428,745.4257174484738L222.85714285714286,742.6270362919854L241.42857142857144,739.8283551354968L260,738.4290145572526L278.57142857142856,731.4323116660313L297.1428571428571,727.2342899312985L315.7142857142857,725.8349493530543L334.2857142857143,723.0362681965656" style="fill: none; stroke: #ff9da6; stroke-width: 4; opacity: 0.7;"></path></g></g><path class="foreground" d="" style="display: none; fill: none;"></path></g><g transform="translate(0,0)"><path class="background" d="M0,0h650v800h-650Z" style="fill: none;"></path><g><g class="mark-line role-mark layer_0_layer_0_marks"><path d="M0,794.4395993661839L18.57142857142857,792.5861324882451L37.14285714285714,791.6593990492757L55.714285714285715,790.7326656103064L74.28571428571428,787.9524652933983L92.85714285714285,784.2455315375208L111.42857142857143,783.3187980985515L130,778.6851309037047L148.57142857142856,774.0514637088578L167.14285714285714,762.0039290022562L185.7142857142857,756.44352836844L204.28571428571428,746.249460539777L222.85714285714286,740.6890599059609L241.42857142857144,734.2019258331754L260,717.5207239317268L278.57142857142856,701.7662554692478L297.1428571428571,686.9385204457379L315.7142857142857,663.7701844715039L334.2857142857143,656.356316959749L352.85714285714283,642.4553153752086L371.4285714285714,631.3345141075763L390,592.4117096708632L408.57142857142856,554.4156386731192L427.14285714285717,521.0532348702224L445.7142857142857,483.98389731144783L464.2857142857143,441.3541591188571L482.8571428571429,427.45315753431674L501.42857142857144,408.91848875492957L520,372.7758846351245" style="fill: none; stroke: #9d755d; stroke-width: 4; opacity: 0.7;"></path></g></g><path class="foreground" d="" style="display: none; fill: none;"></path></g><g transform="translate(0,0)"><path class="background" d="M0,0h650v800h-650Z" style="fill: none;"></path><g><g class="mark-line role-mark layer_0_layer_0_marks"><path d="M0,772.6250287651065L18.57142857142857,768.062533559291L37.14285714285714,768.062533559291L55.714285714285715,763.5000383534754L74.28571428571428,749.8125527360286L92.85714285714285,749.8125527360286L111.42857142857143,749.8125527360286L130,740.6875623243974L148.57142857142856,722.4375815011351L167.14285714285714,717.8750862953195L185.7142857142857,713.3125910895039L204.28571428571428,708.7500958836883L222.85714285714286,695.0626102662416L241.42857142857144,690.500115060426L260,681.3751246487948L278.57142857142856,676.8126294429792L297.1428571428571,672.2501342371636L315.7142857142857,667.687639031348" style="fill: none; stroke: #bab0ac; stroke-width: 4; opacity: 0.7;"></path></g></g><path class="foreground" d="" style="display: none; fill: none;"></path></g><g transform="translate(0,0)"><path class="background" d="M0,0h650v800h-650Z" style="fill: none;"></path><g><g class="mark-line role-mark layer_0_layer_0_marks"><path d="M0,754.986003460451Z" style="fill: none; stroke: #4c78a8; stroke-width: 4; opacity: 0.7;"></path></g></g><path class="foreground" d="" style="display: none; fill: none;"></path></g><g transform="translate(0,0)"><path class="background" d="M0,0h650v800h-650Z" style="fill: none;"></path><g><g class="mark-line role-mark layer_0_layer_0_marks"><path d="M0,792.968417029826L18.57142857142857,792.968417029826L37.14285714285714,791.5621004357911L55.714285714285715,790.1557838417564L74.28571428571428,790.1557838417564L92.85714285714285,788.7494672477216L111.42857142857143,788.7494672477216L130,785.9368340596519L148.57142857142856,780.3115676835126L167.14285714285714,778.9052510894779L185.7142857142857,777.4989344954431L204.28571428571428,777.4989344954431L222.85714285714286,776.0926179014082L241.42857142857144,774.6863013073735L260,773.2799847133386L278.57142857142856,770.467351525269L297.1428571428571,766.2484017431645L315.7142857142857,766.2484017431645L334.2857142857143,763.435768555095L352.85714285714283,762.0294519610601L371.4285714285714,762.0294519610601" style="fill: none; stroke: #f58518; stroke-width: 4; opacity: 0.7;"></path></g></g><path class="foreground" d="" style="display: none; fill: none;"></path></g><g transform="translate(0,0)"><path class="background" d="M0,0h650v800h-650Z" style="fill: none;"></path><g><g class="mark-line role-mark layer_0_layer_0_marks"><path d="M0,788.834282326288L18.57142857142857,788.834282326288L37.14285714285714,777.6685646525759L55.714285714285715,777.6685646525759L74.28571428571428,775.4354211178335L92.85714285714285,766.5028469788639L111.42857142857143,762.036559909379L130,759.8034163746366L148.57142857142856,759.8034163746366L167.14285714285714,753.1039857704094L185.7142857142857,746.4045551661821L204.28571428571428,741.9382680966974L222.85714285714286,737.4719810272126L241.42857142857144,735.2388374924701L260,733.0056939577278L278.57142857142856,730.7725504229853L297.1428571428571,728.5394068882429L315.7142857142857,721.8399762840157L334.2857142857143,721.8399762840157L352.85714285714283,717.3736892145308" style="fill: none; stroke: #e45756; stroke-width: 4; opacity: 0.7;"></path></g></g><path class="foreground" d="" style="display: none; fill: none;"></path></g><g transform="translate(0,0)"><path class="background" d="M0,0h650v800h-650Z" style="fill: none;"></path><g><g class="mark-line role-mark layer_0_layer_0_marks"><path d="M0,765.197659890651L18.57142857142857,765.197659890651L37.14285714285714,765.197659890651L55.714285714285715,751.2767238469115" style="fill: none; stroke: #72b7b2; stroke-width: 4; opacity: 0.7;"></path></g></g><path class="foreground" d="" style="display: none; fill: none;"></path></g><g transform="translate(0,0)"><path class="background" d="M0,0h650v800h-650Z" style="fill: none;"></path><g><g class="mark-line role-mark layer_0_layer_0_marks"><path d="M0,798.2578036404892L18.57142857142857,796.8640465528805L37.14285714285714,794.7734109214675L55.714285714285715,792.3343360181523L74.28571428571428,789.546821842935L92.85714285714285,786.0624291239133L111.42857142857143,783.2749149486959L130,779.7905222296743L148.57142857142856,776.3061295106526L167.14285714285714,770.7311011602178L185.7142857142857,765.8529513535875L204.28571428571428,760.6263622750549L222.85714285714286,752.6122590213051L241.42857142857144,742.8559594080443L260,734.4934168823924L278.57142857142856,723.691799453425L297.1428571428571,709.4057893054362L315.7142857142857,704.1792002269036L334.2857142857143,694.0744613417407L352.85714285714283,670.7290301242955L371.4285714285714,650.8679916258718L390,627.1741211365244L408.57142857142856,611.8427931728289L427.14285714285717,604.8740077347857L445.7142857142857,595.1177081215249L464.2857142857143,588.1489226834815L482.8571428571429,557.8347060279929L501.42857142857144,528.914246460113L520,502.7813010674502L538.5714285714286,476.64835567478764L557.1428571428571,454.696681544951L575.7142857142857,446.33413901929896L594.2857142857142,438.66847503745123L612.8571428571429,419.1558758109298" style="fill: none; stroke: #54a24b; stroke-width: 4; opacity: 0.7;"></path></g></g><path class="foreground" d="" style="display: none; fill: none;"></path></g></g><g class="mark-group role-scope layer_0_layer_1_pathgroup"><g transform="translate(0,0)"><path class="background" d="M0,0h650v800h-650Z" style="fill: none;"></path><g><g class="mark-line role-mark layer_0_layer_1_marks" style="pointer-events: none;"><path d="M0,709.2903672039323L18.57142857142857,709.2903672039323L37.14285714285714,691.1484406447187L55.714285714285715,691.1484406447187L74.28571428571428,654.8645875262916L92.85714285714285,654.8645875262916" style="fill: none; stroke: #4c78a8; stroke-width: 4; opacity: 0.5;"></path></g></g><path class="foreground" d="" style="display: none; fill: none;"></path></g><g transform="translate(0,0)"><path class="background" d="M0,0h650v800h-650Z" style="fill: none;"></path><g><g class="mark-line role-mark layer_0_layer_1_marks" style="pointer-events: none;"><path d="M0,776.0289354719918L18.57142857142857,776.0289354719918L37.14285714285714,766.4405096607885L55.714285714285715,752.0578709439835L74.28571428571428,728.0868064159753L92.85714285714285,713.7041676991704L111.42857142857143,708.9099547935687" style="fill: none; stroke: #f58518; stroke-width: 4; opacity: 0.5;"></path></g></g><path class="foreground" d="" style="display: none; fill: none;"></path></g><g transform="translate(0,0)"><path class="background" d="M0,0h650v800h-650Z" style="fill: none;"></path><g><g class="mark-line role-mark layer_0_layer_1_marks" style="pointer-events: none;"><path d="M0,772.9768660258163L18.57142857142857,753.6746274728279L37.14285714285714,742.0932843410349L55.714285714285715,726.6514934986441L74.28571428571428,711.2097026562535L92.85714285714285,684.1865686820697L111.42857142857143,645.5820915760929L130,606.9776144701161L148.57142857142856,595.3962713383231L167.14285714285714,560.6522419429441L185.7142857142857,525.9082125475649L204.28571428571428,452.5597060462091L222.85714285714286,390.7925426766463L241.42857142857144,321.30448388588803L260,240.23508196333685L278.57142857142856,178.46791859377396L297.1428571428571,97.3985166712228L315.7142857142857,85.81717353942979L334.2857142857143,54.933591854648256" style="fill: none; stroke: #e45756; stroke-width: 4; opacity: 0.5;"></path></g></g><path class="foreground" d="" style="display: none; fill: none;"></path></g><g transform="translate(0,0)"><path class="background" d="M0,0h650v800h-650Z" style="fill: none;"></path><g><g class="mark-line role-mark layer_0_layer_1_marks" style="pointer-events: none;"><path d="M0,705.4072748900064L18.57142857142857,705.4072748900064L37.14285714285714,686.4887298680077L55.714285714285715,667.5701848460089L74.28571428571428,667.5701848460089L92.85714285714285,610.8145497800127L111.42857142857143,610.8145497800127L130,610.8145497800127L148.57142857142856,591.8960047580141L167.14285714285714,554.0589147140166L185.7142857142857,554.0589147140166" style="fill: none; stroke: #72b7b2; stroke-width: 4; opacity: 0.5;"></path></g></g><path class="foreground" d="" style="display: none; fill: none;"></path></g><g transform="translate(0,0)"><path class="background" d="M0,0h650v800h-650Z" style="fill: none;"></path><g><g class="mark-line role-mark layer_0_layer_1_marks" style="pointer-events: none;"><path d="M0,793.545378410259L18.57142857142857,792.4696081453021L37.14285714285714,790.3180676153885L55.714285714285715,789.2422973504316L74.28571428571428,784.9392162906042L92.85714285714285,780.636135230777L111.42857142857143,779.5603649658201L130,779.5603649658201L148.57142857142856,777.4088244359065L167.14285714285714,777.4088244359065L185.7142857142857,776.3330541709496L204.28571428571428,772.0299731111222L222.85714285714286,769.8784325812086L241.42857142857144,763.4238109914676L260,761.272270461554L278.57142857142856,756.9691894017266L297.1428571428571,751.5903380769423L315.7142857142857,749.4387975470287L334.2857142857143,748.3630272820718" style="fill: none; stroke: #54a24b; stroke-width: 4; opacity: 0.5;"></path></g></g><path class="foreground" d="" style="display: none; fill: none;"></path></g><g transform="translate(0,0)"><path class="background" d="M0,0h650v800h-650Z" style="fill: none;"></path><g><g class="mark-line role-mark layer_0_layer_1_marks" style="pointer-events: none;"><path d="M0,791.2396718468676L18.57142857142857,791.2396718468676L37.14285714285714,787.7355405856148L55.714285714285715,784.231409324362L74.28571428571428,763.2066217568445L92.85714285714285,761.454556126218L111.42857142857143,759.7024904955915L130,738.677702928074L148.57142857142856,738.677702928074L167.14285714285714,729.9173747749417L185.7142857142857,700.1322590542919L204.28571428571428,700.1322590542919L222.85714285714286,682.6116027480273L241.42857142857144,670.3471433336422L260,666.8430120723892L278.57142857142856,623.0413713067278L297.1428571428571,605.5207150004632L315.7142857142857,582.7438618023192L334.2857142857143,563.4711398654282L352.85714285714283,528.4298272528991L371.4285714285714,484.62818648723766L390,468.8595958115995L408.57142857142856,439.0744800909497L427.14285714285717,412.7934956315529" style="fill: none; stroke: #eeca3b; stroke-width: 4; opacity: 0.5;"></path></g></g><path class="foreground" d="" style="display: none; fill: none;"></path></g><g transform="translate(0,0)"><path class="background" d="M0,0h650v800h-650Z" style="fill: none;"></path><g><g class="mark-line role-mark layer_0_layer_1_marks" style="pointer-events: none;"><path d="M0,773.4683616845998L18.57142857142857,768.1620340215198L37.14285714285714,762.8557063584398L55.714285714285715,762.8557063584398L74.28571428571428,746.9367233691996L92.85714285714285,736.3240680430396L111.42857142857143,736.3240680430396L130,731.0177403799596L148.57142857142856,725.7114127168796L167.14285714285714,725.7114127168796L185.7142857142857,725.7114127168796L204.28571428571428,720.4050850537996L222.85714285714286,709.7924297276395L241.42857142857144,709.7924297276395L260,693.8734467383994L278.57142857142856,672.6481360860793L297.1428571428571,672.6481360860793L315.7142857142857,672.6481360860793L334.2857142857143,672.6481360860793L352.85714285714283,672.6481360860793" style="fill: none; stroke: #b279a2; stroke-width: 4; opacity: 0.5;"></path></g></g><path class="foreground" d="" style="display: none; fill: none;"></path></g><g transform="translate(0,0)"><path class="background" d="M0,0h650v800h-650Z" style="fill: none;"></path><g><g class="mark-line role-mark layer_0_layer_1_marks" style="pointer-events: none;"><path d="M0,780.0928172396203L18.57142857142857,776.1113806875443L37.14285714285714,776.1113806875443L55.714285714285715,776.1113806875443L74.28571428571428,776.1113806875443L92.85714285714285,776.1113806875443L111.42857142857143,772.1299441354683L130,768.1485075833924L148.57142857142856,764.1670710313165L167.14285714285714,744.2598882709367L185.7142857142857,732.3155786147089L204.28571428571428,728.334142062633L222.85714285714286,716.3898324064052L241.42857142857144,688.5197765418735L260,688.5197765418735L278.57142857142856,680.5569034377216L297.1428571428571,664.6311572294179L315.7142857142857,664.6311572294179L334.2857142857143,664.6311572294179" style="fill: none; stroke: #ff9da6; stroke-width: 4; opacity: 0.5;"></path></g></g><path class="foreground" d="" style="display: none; fill: none;"></path></g><g transform="translate(0,0)"><path class="background" d="M0,0h650v800h-650Z" style="fill: none;"></path><g><g class="mark-line role-mark layer_0_layer_1_marks" style="pointer-events: none;"><path d="M0,788.6013159210835L18.57142857142857,788.6013159210835L37.14285714285714,784.0418422895169L55.714285714285715,784.0418422895169L74.28571428571428,781.7621054737335L92.85714285714285,777.202631842167L111.42857142857143,768.0836845790337L130,765.8039477632504L148.57142857142856,765.8039477632504L167.14285714285714,765.8039477632504L185.7142857142857,763.5242109474672L204.28571428571428,763.5242109474672L222.85714285714286,758.9647373159005L241.42857142857144,758.9647373159005L260,756.6850005001172L278.57142857142856,756.6850005001172" style="fill: none; stroke: #9d755d; stroke-width: 4; opacity: 0.5;"></path></g></g><path class="foreground" d="" style="display: none; fill: none;"></path></g><g transform="translate(0,0)"><path class="background" d="M0,0h650v800h-650Z" style="fill: none;"></path><g><g class="mark-line role-mark layer_0_layer_1_marks" style="pointer-events: none;"><path d="M0,775.1243113073715L18.57142857142857,772.8628850625871L37.14285714285714,763.8171800834494L55.714285714285715,752.5100488595275L74.28571428571428,745.7257701251741L92.85714285714285,738.9414913908209L111.42857142857143,727.6343601668989L130,723.1115076773301L148.57142857142856,716.327228942977L167.14285714285714,709.5429502086237L185.7142857142857,700.497245229486L204.28571428571428,691.4515402503483L222.85714285714286,677.8829827816419L241.42857142857144,664.3144253129356L260,650.745867844229" style="fill: none; stroke: #bab0ac; stroke-width: 4; opacity: 0.5;"></path></g></g><path class="foreground" d="" style="display: none; fill: none;"></path></g><g transform="translate(0,0)"><path class="background" d="M0,0h650v800h-650Z" style="fill: none;"></path><g><g class="mark-line role-mark layer_0_layer_1_marks" style="pointer-events: none;"><path d="M0,795.4650220695173L18.57142857142857,795.4650220695173L37.14285714285714,795.4650220695173L55.714285714285715,793.197533104276L74.28571428571428,791.6858737941151L92.85714285714285,789.4183848288737L111.42857142857143,788.6625551737933L130,787.1508958636324L148.57142857142856,787.1508958636324L167.14285714285714,784.8834068983911L185.7142857142857,782.6159179331498L204.28571428571428,779.592599312828L222.85714285714286,777.3251103475867L241.42857142857144,775.0576213823454L260,773.5459620721845L278.57142857142856,770.5226434518627L297.1428571428571,770.5226434518627L315.7142857142857,769.0109841417018L334.2857142857143,766.7434951764606" style="fill: none; stroke: #4c78a8; stroke-width: 4; opacity: 0.5;"></path></g></g><path class="foreground" d="" style="display: none; fill: none;"></path></g><g transform="translate(0,0)"><path class="background" d="M0,0h650v800h-650Z" style="fill: none;"></path><g><g class="mark-line role-mark layer_0_layer_1_marks" style="pointer-events: none;"><path d="M0,771.2125214016911L18.57142857142857,771.2125214016911L37.14285714285714,771.2125214016911L55.714285714285715,771.2125214016911L74.28571428571428,771.2125214016911L92.85714285714285,765.4550256820294" style="fill: none; stroke: #f58518; stroke-width: 4; opacity: 0.5;"></path></g></g><path class="foreground" d="" style="display: none; fill: none;"></path></g><g transform="translate(0,0)"><path class="background" d="M0,0h650v800h-650Z" style="fill: none;"></path><g><g class="mark-line role-mark layer_0_layer_1_marks" style="pointer-events: none;"><path d="M0,777.0409583563163L18.57142857142857,777.0409583563163L37.14285714285714,777.0409583563163L55.714285714285715,777.0409583563163L74.28571428571428,772.4491500275795L92.85714285714285,772.4491500275795" style="fill: none; stroke: #e45756; stroke-width: 4; opacity: 0.5;"></path></g></g><path class="foreground" d="" style="display: none; fill: none;"></path></g><g transform="translate(0,0)"><path class="background" d="M0,0h650v800h-650Z" style="fill: none;"></path><g><g class="mark-line role-mark layer_0_layer_1_marks" style="pointer-events: none;"><path d="M0,790.7007723589758L18.57142857142857,790.7007723589758L37.14285714285714,788.8409268307709L55.714285714285715,786.981081302566L74.28571428571428,783.2613902461563L92.85714285714285,779.5416991897466L111.42857142857143,773.9621626051321L130,773.9621626051321L148.57142857142856,760.9432439076982L167.14285714285714,760.9432439076982L185.7142857142857,751.644016266674L204.28571428571428,740.4849430974449L222.85714285714286,738.62509756924L241.42857142857144,736.7652520410352L260,734.9054065128304L278.57142857142856,729.3258699282158" style="fill: none; stroke: #72b7b2; stroke-width: 4; opacity: 0.5;"></path></g></g><path class="foreground" d="" style="display: none; fill: none;"></path></g><g transform="translate(0,0)"><path class="background" d="M0,0h650v800h-650Z" style="fill: none;"></path><g><g class="mark-line role-mark layer_0_layer_1_marks" style="pointer-events: none;"><path d="M0,772.126316564907L18.57142857142857,756.1984974591395L37.14285714285714,756.1984974591395L55.714285714285715,748.2345879062558L74.28571428571428,748.2345879062558L92.85714285714285,736.2887235769302L111.42857142857143,716.3789496947209L130,704.4330853653954L148.57142857142856,696.4691758125117L167.14285714285714,688.5052662596279L185.7142857142857,684.523311483186L204.28571428571428,672.5774471538605L222.85714285714286,668.5954923774186L241.42857142857144,644.7037637187675" style="fill: none; stroke: #54a24b; stroke-width: 4; opacity: 0.5;"></path></g></g><path class="foreground" d="" style="display: none; fill: none;"></path></g><g transform="translate(0,0)"><path class="background" d="M0,0h650v800h-650Z" style="fill: none;"></path><g><g class="mark-line role-mark layer_0_layer_1_marks" style="pointer-events: none;"><path d="M0,791.6292345217483L18.57142857142857,791.6292345217483L37.14285714285714,789.955081426098L55.714285714285715,789.955081426098L74.28571428571428,786.6067752347974L92.85714285714285,784.932622139147L111.42857142857143,783.2584690434967L130,776.5618566608954L148.57142857142856,764.842784991343L167.14285714285714,749.7754071304901L185.7142857142857,743.0787947478888L204.28571428571428,722.9889576000847L222.85714285714286,706.2474266435814L241.42857142857144,691.1800487827286L260,679.4609771131762L278.57142857142856,657.696986869722L297.1428571428571,629.2363842436663L315.7142857142857,607.472394000212L334.2857142857143,560.5961073220027L352.85714285714283,532.135504695947L371.4285714285714,488.6075242090385L390,456.7986153916822L408.57142857142856,438.3829313395286L427.14285714285717,408.2481756178227L445.7142857142857,364.7201951309141" style="fill: none; stroke: #eeca3b; stroke-width: 4; opacity: 0.5;"></path></g></g><path class="foreground" d="" style="display: none; fill: none;"></path></g><g transform="translate(0,0)"><path class="background" d="M0,0h650v800h-650Z" style="fill: none;"></path><g><g class="mark-line role-mark layer_0_layer_1_marks" style="pointer-events: none;"><path d="M0,775.55928751657L18.57142857142857,770.6711450198841L37.14285714285714,765.7830025231981L55.714285714285715,765.7830025231981L74.28571428571428,765.7830025231981L92.85714285714285,765.7830025231981L111.42857142857143,760.8948600265121L130,760.8948600265121L148.57142857142856,760.8948600265121L167.14285714285714,760.8948600265121L185.7142857142857,756.006717529826L204.28571428571428,751.1185750331401L222.85714285714286,741.342290039768L241.42857142857144,731.5660050463962L260,726.6778625497102" style="fill: none; stroke: #b279a2; stroke-width: 4; opacity: 0.5;"></path></g></g><path class="foreground" d="" style="display: none; fill: none;"></path></g><g transform="translate(0,0)"><path class="background" d="M0,0h650v800h-650Z" style="fill: none;"></path><g><g class="mark-line role-mark layer_0_layer_1_marks" style="pointer-events: none;"><path d="M0,793.0032971087787L18.57142857142857,790.2046159522902L37.14285714285714,786.0065942175573L55.714285714285715,780.4092319045803L74.28571428571428,779.0098913263362L92.85714285714285,776.2112101698475L111.42857142857143,766.4158261221378L130,763.6171449656492L148.57142857142856,762.217804387405L167.14285714285714,756.620442074428L185.7142857142857,753.8217609179394L204.28571428571428,745.4257174484738L222.85714285714286,742.6270362919854L241.42857142857144,739.8283551354968L260,738.4290145572526L278.57142857142856,731.4323116660313L297.1428571428571,727.2342899312985L315.7142857142857,725.8349493530543L334.2857142857143,723.0362681965656" style="fill: none; stroke: #ff9da6; stroke-width: 4; opacity: 0.5;"></path></g></g><path class="foreground" d="" style="display: none; fill: none;"></path></g><g transform="translate(0,0)"><path class="background" d="M0,0h650v800h-650Z" style="fill: none;"></path><g><g class="mark-line role-mark layer_0_layer_1_marks" style="pointer-events: none;"><path d="M0,794.4395993661839L18.57142857142857,792.5861324882451L37.14285714285714,791.6593990492757L55.714285714285715,790.7326656103064L74.28571428571428,787.9524652933983L92.85714285714285,784.2455315375208L111.42857142857143,783.3187980985515L130,778.6851309037047L148.57142857142856,774.0514637088578L167.14285714285714,762.0039290022562L185.7142857142857,756.44352836844L204.28571428571428,746.249460539777L222.85714285714286,740.6890599059609L241.42857142857144,734.2019258331754L260,717.5207239317268L278.57142857142856,701.7662554692478L297.1428571428571,686.9385204457379L315.7142857142857,663.7701844715039L334.2857142857143,656.356316959749L352.85714285714283,642.4553153752086L371.4285714285714,631.3345141075763L390,592.4117096708632L408.57142857142856,554.4156386731192L427.14285714285717,521.0532348702224L445.7142857142857,483.98389731144783L464.2857142857143,441.3541591188571L482.8571428571429,427.45315753431674L501.42857142857144,408.91848875492957L520,372.7758846351245" style="fill: none; stroke: #9d755d; stroke-width: 4; opacity: 0.5;"></path></g></g><path class="foreground" d="" style="display: none; fill: none;"></path></g><g transform="translate(0,0)"><path class="background" d="M0,0h650v800h-650Z" style="fill: none;"></path><g><g class="mark-line role-mark layer_0_layer_1_marks" style="pointer-events: none;"><path d="M0,772.6250287651065L18.57142857142857,768.062533559291L37.14285714285714,768.062533559291L55.714285714285715,763.5000383534754L74.28571428571428,749.8125527360286L92.85714285714285,749.8125527360286L111.42857142857143,749.8125527360286L130,740.6875623243974L148.57142857142856,722.4375815011351L167.14285714285714,717.8750862953195L185.7142857142857,713.3125910895039L204.28571428571428,708.7500958836883L222.85714285714286,695.0626102662416L241.42857142857144,690.500115060426L260,681.3751246487948L278.57142857142856,676.8126294429792L297.1428571428571,672.2501342371636L315.7142857142857,667.687639031348" style="fill: none; stroke: #bab0ac; stroke-width: 4; opacity: 0.5;"></path></g></g><path class="foreground" d="" style="display: none; fill: none;"></path></g><g transform="translate(0,0)"><path class="background" d="M0,0h650v800h-650Z" style="fill: none;"></path><g><g class="mark-line role-mark layer_0_layer_1_marks" style="pointer-events: none;"><path d="M0,754.986003460451Z" style="fill: none; stroke: #4c78a8; stroke-width: 4; opacity: 0.5;"></path></g></g><path class="foreground" d="" style="display: none; fill: none;"></path></g><g transform="translate(0,0)"><path class="background" d="M0,0h650v800h-650Z" style="fill: none;"></path><g><g class="mark-line role-mark layer_0_layer_1_marks" style="pointer-events: none;"><path d="M0,792.968417029826L18.57142857142857,792.968417029826L37.14285714285714,791.5621004357911L55.714285714285715,790.1557838417564L74.28571428571428,790.1557838417564L92.85714285714285,788.7494672477216L111.42857142857143,788.7494672477216L130,785.9368340596519L148.57142857142856,780.3115676835126L167.14285714285714,778.9052510894779L185.7142857142857,777.4989344954431L204.28571428571428,777.4989344954431L222.85714285714286,776.0926179014082L241.42857142857144,774.6863013073735L260,773.2799847133386L278.57142857142856,770.467351525269L297.1428571428571,766.2484017431645L315.7142857142857,766.2484017431645L334.2857142857143,763.435768555095L352.85714285714283,762.0294519610601L371.4285714285714,762.0294519610601" style="fill: none; stroke: #f58518; stroke-width: 4; opacity: 0.5;"></path></g></g><path class="foreground" d="" style="display: none; fill: none;"></path></g><g transform="translate(0,0)"><path class="background" d="M0,0h650v800h-650Z" style="fill: none;"></path><g><g class="mark-line role-mark layer_0_layer_1_marks" style="pointer-events: none;"><path d="M0,788.834282326288L18.57142857142857,788.834282326288L37.14285714285714,777.6685646525759L55.714285714285715,777.6685646525759L74.28571428571428,775.4354211178335L92.85714285714285,766.5028469788639L111.42857142857143,762.036559909379L130,759.8034163746366L148.57142857142856,759.8034163746366L167.14285714285714,753.1039857704094L185.7142857142857,746.4045551661821L204.28571428571428,741.9382680966974L222.85714285714286,737.4719810272126L241.42857142857144,735.2388374924701L260,733.0056939577278L278.57142857142856,730.7725504229853L297.1428571428571,728.5394068882429L315.7142857142857,721.8399762840157L334.2857142857143,721.8399762840157L352.85714285714283,717.3736892145308" style="fill: none; stroke: #e45756; stroke-width: 4; opacity: 0.5;"></path></g></g><path class="foreground" d="" style="display: none; fill: none;"></path></g><g transform="translate(0,0)"><path class="background" d="M0,0h650v800h-650Z" style="fill: none;"></path><g><g class="mark-line role-mark layer_0_layer_1_marks" style="pointer-events: none;"><path d="M0,765.197659890651L18.57142857142857,765.197659890651L37.14285714285714,765.197659890651L55.714285714285715,751.2767238469115" style="fill: none; stroke: #72b7b2; stroke-width: 4; opacity: 0.5;"></path></g></g><path class="foreground" d="" style="display: none; fill: none;"></path></g><g transform="translate(0,0)"><path class="background" d="M0,0h650v800h-650Z" style="fill: none;"></path><g><g class="mark-line role-mark layer_0_layer_1_marks" style="pointer-events: none;"><path d="M0,798.2578036404892L18.57142857142857,796.8640465528805L37.14285714285714,794.7734109214675L55.714285714285715,792.3343360181523L74.28571428571428,789.546821842935L92.85714285714285,786.0624291239133L111.42857142857143,783.2749149486959L130,779.7905222296743L148.57142857142856,776.3061295106526L167.14285714285714,770.7311011602178L185.7142857142857,765.8529513535875L204.28571428571428,760.6263622750549L222.85714285714286,752.6122590213051L241.42857142857144,742.8559594080443L260,734.4934168823924L278.57142857142856,723.691799453425L297.1428571428571,709.4057893054362L315.7142857142857,704.1792002269036L334.2857142857143,694.0744613417407L352.85714285714283,670.7290301242955L371.4285714285714,650.8679916258718L390,627.1741211365244L408.57142857142856,611.8427931728289L427.14285714285717,604.8740077347857L445.7142857142857,595.1177081215249L464.2857142857143,588.1489226834815L482.8571428571429,557.8347060279929L501.42857142857144,528.914246460113L520,502.7813010674502L538.5714285714286,476.64835567478764L557.1428571428571,454.696681544951L575.7142857142857,446.33413901929896L594.2857142857142,438.66847503745123L612.8571428571429,419.1558758109298" style="fill: none; stroke: #54a24b; stroke-width: 4; opacity: 0.5;"></path></g></g><path class="foreground" d="" style="display: none; fill: none;"></path></g></g><g class="mark-text role-mark layer_0_layer_2_marks" style="pointer-events: none;"><text text-anchor="start" transform="translate(97.85714285714285,659.8645875262916)" style="font-family: sans-serif; font-size: 15px; fill: #4c78a8;">AC</text><text text-anchor="start" transform="translate(116.42857142857143,713.9099547935687)" style="font-family: sans-serif; font-size: 15px; fill: #f58518;">AL</text><text text-anchor="start" transform="translate(339.2857142857143,59.933591854648256)" style="font-family: sans-serif; font-size: 15px; fill: #e45756;">AM</text><text text-anchor="start" transform="translate(190.7142857142857,559.0589147140166)" style="font-family: sans-serif; font-size: 15px; fill: #72b7b2;">AP</text><text text-anchor="start" transform="translate(339.2857142857143,753.3630272820718)" style="font-family: sans-serif; font-size: 15px; fill: #54a24b;">BA</text><text text-anchor="start" transform="translate(432.14285714285717,417.7934956315529)" style="font-family: sans-serif; font-size: 15px; fill: #eeca3b;">CE</text><text text-anchor="start" transform="translate(357.85714285714283,677.6481360860793)" style="font-family: sans-serif; font-size: 15px; fill: #b279a2;">DF</text><text text-anchor="start" transform="translate(339.2857142857143,669.6311572294179)" style="font-family: sans-serif; font-size: 15px; fill: #ff9da6;">ES</text><text text-anchor="start" transform="translate(283.57142857142856,761.6850005001172)" style="font-family: sans-serif; font-size: 15px; fill: #9d755d;">GO</text><text text-anchor="start" transform="translate(265,655.745867844229)" style="font-family: sans-serif; font-size: 15px; fill: #bab0ac;">MA</text><text text-anchor="start" transform="translate(339.2857142857143,771.7434951764606)" style="font-family: sans-serif; font-size: 15px; fill: #4c78a8;">MG</text><text text-anchor="start" transform="translate(97.85714285714285,770.4550256820294)" style="font-family: sans-serif; font-size: 15px; fill: #f58518;">MS</text><text text-anchor="start" transform="translate(97.85714285714285,777.4491500275795)" style="font-family: sans-serif; font-size: 15px; fill: #e45756;">MT</text><text text-anchor="start" transform="translate(283.57142857142856,734.3258699282158)" style="font-family: sans-serif; font-size: 15px; fill: #72b7b2;">PA</text><text text-anchor="start" transform="translate(246.42857142857144,649.7037637187675)" style="font-family: sans-serif; font-size: 15px; fill: #54a24b;">PB</text><text text-anchor="start" transform="translate(450.7142857142857,369.7201951309141)" style="font-family: sans-serif; font-size: 15px; fill: #eeca3b;">PE</text><text text-anchor="start" transform="translate(265,731.6778625497102)" style="font-family: sans-serif; font-size: 15px; fill: #b279a2;">PI</text><text text-anchor="start" transform="translate(339.2857142857143,728.0362681965656)" style="font-family: sans-serif; font-size: 15px; fill: #ff9da6;">PR</text><text text-anchor="start" transform="translate(525,377.7758846351245)" style="font-family: sans-serif; font-size: 15px; fill: #9d755d;">RJ</text><text text-anchor="start" transform="translate(320.7142857142857,672.687639031348)" style="font-family: sans-serif; font-size: 15px; fill: #bab0ac;">RN</text><text text-anchor="start" transform="translate(5,759.986003460451)" style="font-family: sans-serif; font-size: 15px; fill: #4c78a8;">RO</text><text text-anchor="start" transform="translate(376.4285714285714,767.0294519610601)" style="font-family: sans-serif; font-size: 15px; fill: #f58518;">RS</text><text text-anchor="start" transform="translate(357.85714285714283,722.3736892145308)" style="font-family: sans-serif; font-size: 15px; fill: #e45756;">SC</text><text text-anchor="start" transform="translate(60.714285714285715,756.2767238469115)" style="font-family: sans-serif; font-size: 15px; fill: #72b7b2;">SE</text><text text-anchor="start" transform="translate(617.8571428571429,424.1558758109298)" style="font-family: sans-serif; font-size: 15px; fill: #54a24b;">SP</text></g><g class="mark-group role-title"><g transform="translate(325,-34)"><path class="background" d="M0,0h0v0h0Z" style="pointer-events: none; fill: none;"></path><g><g class="mark-text role-title-text" style="pointer-events: none;"><text text-anchor="middle" transform="translate(0,18)" style="font-family: sans-serif; font-size: 23px; font-weight: bold; fill: #000; opacity: 1;">Mortes confirmadas pelo COVID-19 a cada 100 mil habitantes</text></g></g><path class="foreground" d="" style="pointer-events: none; display: none; fill: none;"></path></g></g></g><path class="foreground" d="" style="display: none; fill: none;"></path></g></g></g></svg>