<svg class="marks" width="738" height="890" viewBox="0 0 738 890" version="1.1" xmlns="http://www.w3.org/2000/svg" xmlns:xlink="http://www.w3.org/1999/xlink"><rect width="738" height="890" style="fill: white;"></rect><g transform="translate(57,39)"><g class="mark-group role-frame root" role="graphics-object" aria-roledescription="group mark container"><g transform="translate(0,0)"><path class="background" aria-hidden="true" d="M0.5,0.5h650v800h-650Z" style="fill: none; stroke: #ddd;"></path><g><g class="mark-group role-axis" role="graphics-symbol" aria-roledescription="axis" aria-label="X-axis for a linear scale with values from 0 to 40"><g transform="translate(0.5,800.5)"><path class="background" aria-hidden="true" d="M0,0h0v0h0Z" style="pointer-events: none; fill: none;"></path><g><g class="mark-rule role-axis-grid" style="pointer-events: none;"><line transform="translate(0,-800)" x2="0" y2="800" style="fill: none; stroke: #ddd; stroke-width: 1; opacity: 1;"></line><line transform="translate(33,-800)" x2="0" y2="800" style="fill: none; stroke: #ddd; stroke-width: 1; opacity: 1;"></line><line transform="translate(65,-800)" x2="0" y2="800" style="fill: none; stroke: #ddd; stroke-width: 1; opacity: 1;"></line><line transform="translate(98,-800)" x2="0" y2="800" style="fill: none; stroke: #ddd; stroke-width: 1; opacity: 1;"></line><line transform="translate(130,-800)" x2="0" y2="800" style="fill: none; stroke: #ddd; stroke-width: 1; opacity: 1;"></line><line transform="translate(163,-800)" x2="0" y2="800" style="fill: none; stroke: #ddd; stroke-width: 1; opacity: 1;"></line><line transform="translate(195,-800)" x2="0" y2="800" style="fill: none; stroke: #ddd; stroke-width: 1; opacity: 1;"></line><line transform="translate(227,-800)" x2="0" y2="800" style="fill: none; stroke: #ddd; stroke-width: 1; opacity: 1;"></line><line transform="translate(260,-800)" x2="0" y2="800" style="fill: none; stroke: #ddd; stroke-width: 1; opacity: 1;"></line><line transform="translate(293,-800)" x2="0" y2="800" style="fill: none; stroke: #ddd; stroke-width: 1; opacity: 1;"></line><line transform="translate(325,-800)" x2="0" y2="800" style="fill: none; stroke: #ddd; stroke-width: 1; opacity: 1;"></line><line transform="translate(358,-800)" x2="0" y2="800" style="fill: none; stroke: #ddd; stroke-width: 1; opacity: 1;"></line><line transform="translate(390,-800)" x2="0" y2="800" style="fill: none; stroke: #ddd; stroke-width: 1; opacity: 1;"></line><line transform="translate(423,-800)" x2="0" y2="800" style="fill: none; stroke: #ddd; stroke-width: 1; opacity: 1;"></line><line transform="translate(455,-800)" x2="0" y2="800" style="fill: none; stroke: #ddd; stroke-width: 1; opacity: 1;"></line><line transform="translate(488,-800)" x2="0" y2="800" style="fill: none; stroke: #ddd; stroke-width: 1; opacity: 1;"></line><line transform="translate(520,-800)" x2="0" y2="800" style="fill: none; stroke: #ddd; stroke-width: 1; opacity: 1;"></line><line transform="translate(553,-800)" x2="0" y2="800" style="fill: none; stroke: #ddd; stroke-width: 1; opacity: 1;"></line><line transform="translate(585,-800)" x2="0" y2="800" style="fill: none; stroke: #ddd; stroke-width: 1; opacity: 1;"></line><line transform="translate(618,-800)" x2="0" y2="800" style="fill: none; stroke: #ddd; stroke-width: 1; opacity: 1;"></line><line transform="translate(650,-800)" x2="0" y2="800" style="fill: none; stroke: #ddd; stroke-width: 1; opacity: 1;"></line></g></g><path class="foreground" aria-hidden="true" d="" style="pointer-events: none; display: none; fill: none;"></path></g></g><g class="mark-group role-axis" role="graphics-symbol" aria-roledescription="axis" aria-label="Y-axis for a linear scale with values from 0 to 9"><g transform="translate(0.5,0.5)"><path class="background" aria-hidden="true" d="M0,0h0v0h0Z" style="pointer-events: none; fill: none;"></path><g><g class="mark-rule role-axis-grid" style="pointer-events: none;"><line transform="translate(0,800)" x2="650" y2="0" style="fill: none; stroke: #ddd; stroke-width: 1; opacity: 1;"></line><line transform="translate(0,756)" x2="650" y2="0" style="fill: none; stroke: #ddd; stroke-width: 1; opacity: 1;"></line><line transform="translate(0,711)" x2="650" y2="0" style="fill: none; stroke: #ddd; stroke-width: 1; opacity: 1;"></line><line transform="translate(0,667)" x2="650" y2="0" style="fill: none; stroke: #ddd; stroke-width: 1; opacity: 1;"></line><line transform="translate(0,622)" x2="650" y2="0" style="fill: none; stroke: #ddd; stroke-width: 1; opacity: 1;"></line><line transform="translate(0,578)" x2="650" y2="0" style="fill: none; stroke: #ddd; stroke-width: 1; opacity: 1;"></line><line transform="translate(0,533)" x2="650" y2="0" style="fill: none; stroke: #ddd; stroke-width: 1; opacity: 1;"></line><line transform="translate(0,489)" x2="650" y2="0" style="fill: none; stroke: #ddd; stroke-width: 1; opacity: 1;"></line><line transform="translate(0,444)" x2="650" y2="0" style="fill: none; stroke: #ddd; stroke-width: 1; opacity: 1;"></line><line transform="translate(0,400)" x2="650" y2="0" style="fill: none; stroke: #ddd; stroke-width: 1; opacity: 1;"></line><line transform="translate(0,356)" x2="650" y2="0" style="fill: none; stroke: #ddd; stroke-width: 1; opacity: 1;"></line><line transform="translate(0,311)" x2="650" y2="0" style="fill: none; stroke: #ddd; stroke-width: 1; opacity: 1;"></line><line transform="translate(0,267)" x2="650" y2="0" style="fill: none; stroke: #ddd; stroke-width: 1; opacity: 1;"></line><line transform="translate(0,222)" x2="650" y2="0" style="fill: none; stroke: #ddd; stroke-width: 1; opacity: 1;"></line><line transform="translate(0,178)" x2="650" y2="0" style="fill: none; stroke: #ddd; stroke-width: 1; opacity: 1;"></line><line transform="translate(0,133)" x2="650" y2="0" style="fill: none; stroke: #ddd; stroke-width: 1; opacity: 1;"></line><line transform="translate(0,89)" x2="650" y2="0" style="fill: none; stroke: #ddd; stroke-width: 1; opacity: 1;"></line><line transform="translate(0,44)" x2="650" y2="0" style="fill: none; stroke: #ddd; stroke-width: 1; opacity: 1;"></line><line transform="translate(0,0)" x2="650" y2="0" style="fill: none; stroke: #ddd; stroke-width: 1; opacity: 1;"></line></g></g><path class="foreground" aria-hidden="true" d="" style="pointer-events: none; display: none; fill: none;"></path></g></g><g class="mark-group role-axis" role="graphics-symbol" aria-roledescription="axis" aria-label="X-axis titled 'Dias a partir da 5a morte no estado' for a linear scale with values from 0 to 40"><g transform="translate(0.5,800.5)"><path class="background" aria-hidden="true" d="M0,0h0v0h0Z" style="pointer-events: none; fill: none;"></path><g><g class="mark-rule role-axis-tick" style="pointer-events: none;"><line transform="translate(0,0)" x2="0" y2="5" style="fill: none; stroke: #888; stroke-width: 1; opacity: 1;"></line><line transform="translate(33,0)" x2="0" y2="5" style="fill: none; stroke: #888; stroke-width: 1; opacity: 1;"></line><line transform="translate(65,0)" x2="0" y2="5" style="fill: none; stroke: #888; stroke-width: 1; opacity: 1;"></line><line transform="translate(98,0)" x2="0" y2="5" style="fill: none; stroke: #888; stroke-width: 1; opacity: 1;"></line><line transform="translate(130,0)" x2="0" y2="5" style="fill: none; stroke: #888; stroke-width: 1; opacity: 1;"></line><line transform="translate(163,0)" x2="0" y2="5" style="fill: none; stroke: #888; stroke-width: 1; opacity: 1;"></line><line transform="translate(195,0)" x2="0" y2="5" style="fill: none; stroke: #888; stroke-width: 1; opacity: 1;"></line><line transform="translate(227,0)" x2="0" y2="5" style="fill: none; stroke: #888; stroke-width: 1; opacity: 1;"></line><line transform="translate(260,0)" x2="0" y2="5" style="fill: none; stroke: #888; stroke-width: 1; opacity: 1;"></line><line transform="translate(293,0)" x2="0" y2="5" style="fill: none; stroke: #888; stroke-width: 1; opacity: 1;"></line><line transform="translate(325,0)" x2="0" y2="5" style="fill: none; stroke: #888; stroke-width: 1; opacity: 1;"></line><line transform="translate(358,0)" x2="0" y2="5" style="fill: none; stroke: #888; stroke-width: 1; opacity: 1;"></line><line transform="translate(390,0)" x2="0" y2="5" style="fill: none; stroke: #888; stroke-width: 1; opacity: 1;"></line><line transform="translate(423,0)" x2="0" y2="5" style="fill: none; stroke: #888; stroke-width: 1; opacity: 1;"></line><line transform="translate(455,0)" x2="0" y2="5" style="fill: none; stroke: #888; stroke-width: 1; opacity: 1;"></line><line transform="translate(488,0)" x2="0" y2="5" style="fill: none; stroke: #888; stroke-width: 1; opacity: 1;"></line><line transform="translate(520,0)" x2="0" y2="5" style="fill: none; stroke: #888; stroke-width: 1; opacity: 1;"></line><line transform="translate(553,0)" x2="0" y2="5" style="fill: none; stroke: #888; stroke-width: 1; opacity: 1;"></line><line transform="translate(585,0)" x2="0" y2="5" style="fill: none; stroke: #888; stroke-width: 1; opacity: 1;"></line><line transform="translate(618,0)" x2="0" y2="5" style="fill: none; stroke: #888; stroke-width: 1; opacity: 1;"></line><line transform="translate(650,0)" x2="0" y2="5" style="fill: none; stroke: #888; stroke-width: 1; opacity: 1;"></line></g><g class="mark-text role-axis-label" style="pointer-events: none;"><text text-anchor="start" transform="translate(0,19)" style="font-family: sans-serif; font-size: 15px; fill: #000; opacity: 1;">0</text><text text-anchor="middle" transform="translate(32.5,19)" style="font-family: sans-serif; font-size: 15px; fill: #000; opacity: 1;">2</text><text text-anchor="middle" transform="translate(65,19)" style="font-family: sans-serif; font-size: 15px; fill: #000; opacity: 1;">4</text><text text-anchor="middle" transform="translate(97.5,19)" style="font-family: sans-serif; font-size: 15px; fill: #000; opacity: 1;">6</text><text text-anchor="middle" transform="translate(130,19)" style="font-family: sans-serif; font-size: 15px; fill: #000; opacity: 1;">8</text><text text-anchor="middle" transform="translate(162.5,19)" style="font-family: sans-serif; font-size: 15px; fill: #000; opacity: 1;">10</text><text text-anchor="middle" transform="translate(195,19)" style="font-family: sans-serif; font-size: 15px; fill: #000; opacity: 1;">12</text><text text-anchor="middle" transform="translate(227.49999999999997,19)" style="font-family: sans-serif; font-size: 15px; fill: #000; opacity: 1;">14</text><text text-anchor="middle" transform="translate(260,19)" style="font-family: sans-serif; font-size: 15px; fill: #000; opacity: 1;">16</text><text text-anchor="middle" transform="translate(292.5,19)" style="font-family: sans-serif; font-size: 15px; fill: #000; opacity: 1;">18</text><text text-anchor="middle" transform="translate(325,19)" style="font-family: sans-serif; font-size: 15px; fill: #000; opacity: 1;">20</text><text text-anchor="middle" transform="translate(357.50000000000006,19)" style="font-family: sans-serif; font-size: 15px; fill: #000; opacity: 1;">22</text><text text-anchor="middle" transform="translate(390,19)" style="font-family: sans-serif; font-size: 15px; fill: #000; opacity: 1;">24</text><text text-anchor="middle" transform="translate(422.5,19)" style="font-family: sans-serif; font-size: 15px; fill: #000; opacity: 1;">26</text><text text-anchor="middle" transform="translate(454.99999999999994,19)" style="font-family: sans-serif; font-size: 15px; fill: #000; opacity: 1;">28</text><text text-anchor="middle" transform="translate(487.5,19)" style="font-family: sans-serif; font-size: 15px; fill: #000; opacity: 1;">30</text><text text-anchor="middle" transform="translate(520,19)" style="font-family: sans-serif; font-size: 15px; fill: #000; opacity: 1;">32</text><text text-anchor="middle" transform="translate(552.5,19)" style="font-family: sans-serif; font-size: 15px; fill: #000; opacity: 1;">34</text><text text-anchor="middle" transform="translate(585,19)" style="font-family: sans-serif; font-size: 15px; fill: #000; opacity: 1;">36</text><text text-anchor="middle" transform="translate(617.5,19)" style="font-family: sans-serif; font-size: 15px; fill: #000; opacity: 1;">38</text><text text-anchor="end" transform="translate(650,19)" style="font-family: sans-serif; font-size: 15px; fill: #000; opacity: 1;">40</text></g><g class="mark-rule role-axis-domain" style="pointer-events: none;"><line transform="translate(0,0)" x2="650" y2="0" style="fill: none; stroke: #888; stroke-width: 1; opacity: 1;"></line></g><g class="mark-text role-axis-title" style="pointer-events: none;"><text text-anchor="middle" transform="translate(325,42)" style="font-family: sans-serif; font-size: 20px; font-weight: bold; fill: #000; opacity: 1;">Dias a partir da 5a morte no estado</text></g></g><path class="foreground" aria-hidden="true" d="" style="pointer-events: none; display: none; fill: none;"></path></g></g><g class="mark-group role-axis" role="graphics-symbol" aria-roledescription="axis" aria-label="Y-axis titled 'Mortes confirmadas a cada 100 mil habitantes' for a linear scale with values from 0 to 9"><g transform="translate(0.5,0.5)"><path class="background" aria-hidden="true" d="M0,0h0v0h0Z" style="pointer-events: none; fill: none;"></path><g><g class="mark-rule role-axis-tick" style="pointer-events: none;"><line transform="translate(0,800)" x2="-5" y2="0" style="fill: none; stroke: #888; stroke-width: 1; opacity: 1;"></line><line transform="translate(0,756)" x2="-5" y2="0" style="fill: none; stroke: #888; stroke-width: 1; opacity: 1;"></line><line transform="translate(0,711)" x2="-5" y2="0" style="fill: none; stroke: #888; stroke-width: 1; opacity: 1;"></line><line transform="translate(0,667)" x2="-5" y2="0" style="fill: none; stroke: #888; stroke-width: 1; opacity: 1;"></line><line transform="translate(0,622)" x2="-5" y2="0" style="fill: none; stroke: #888; stroke-width: 1; opacity: 1;"></line><line transform="translate(0,578)" x2="-5" y2="0" style="fill: none; stroke: #888; stroke-width: 1; opacity: 1;"></line><line transform="translate(0,533)" x2="-5" y2="0" style="fill: none; stroke: #888; stroke-width: 1; opacity: 1;"></line><line transform="translate(0,489)" x2="-5" y2="0" style="fill: none; stroke: #888; stroke-width: 1; opacity: 1;"></line><line transform="translate(0,444)" x2="-5" y2="0" style="fill: none; stroke: #888; stroke-width: 1; opacity: 1;"></line><line transform="translate(0,400)" x2="-5" y2="0" style="fill: none; stroke: #888; stroke-width: 1; opacity: 1;"></line><line transform="translate(0,356)" x2="-5" y2="0" style="fill: none; stroke: #888; stroke-width: 1; opacity: 1;"></line><line transform="translate(0,311)" x2="-5" y2="0" style="fill: none; stroke: #888; stroke-width: 1; opacity: 1;"></line><line transform="translate(0,267)" x2="-5" y2="0" style="fill: none; stroke: #888; stroke-width: 1; opacity: 1;"></line><line transform="translate(0,222)" x2="-5" y2="0" style="fill: none; stroke: #888; stroke-width: 1; opacity: 1;"></line><line transform="translate(0,178)" x2="-5" y2="0" style="fill: none; stroke: #888; stroke-width: 1; opacity: 1;"></line><line transform="translate(0,133)" x2="-5" y2="0" style="fill: none; stroke: #888; stroke-width: 1; opacity: 1;"></line><line transform="translate(0,89)" x2="-5" y2="0" style="fill: none; stroke: #888; stroke-width: 1; opacity: 1;"></line><line transform="translate(0,44)" x2="-5" y2="0" style="fill: none; stroke: #888; stroke-width: 1; opacity: 1;"></line><line transform="translate(0,0)" x2="-5" y2="0" style="fill: none; stroke: #888; stroke-width: 1; opacity: 1;"></line></g><g class="mark-text role-axis-label" style="pointer-events: none;"><text text-anchor="end" transform="translate(-7,805)" style="font-family: sans-serif; font-size: 15px; fill: #000; opacity: 1;">0.0</text><text text-anchor="end" transform="translate(-7,760.5555555555555)" style="font-family: sans-serif; font-size: 15px; fill: #000; opacity: 1;">0.5</text><text text-anchor="end" transform="translate(-7,716.1111111111111)" style="font-family: sans-serif; font-size: 15px; fill: #000; opacity: 1;">1.0</text><text text-anchor="end" transform="translate(-7,671.6666666666667)" style="font-family: sans-serif; font-size: 15px; fill: #000; opacity: 1;">1.5</text><text text-anchor="end" transform="translate(-7,627.2222222222223)" style="font-family: sans-serif; font-size: 15px; fill: #000; opacity: 1;">2.0</text><text text-anchor="end" transform="translate(-7,582.7777777777777)" style="font-family: sans-serif; font-size: 15px; fill: #000; opacity: 1;">2.5</text><text text-anchor="end" transform="translate(-7,538.3333333333334)" style="font-family: sans-serif; font-size: 15px; fill: #000; opacity: 1;">3.0</text><text text-anchor="end" transform="translate(-7,493.8888888888889)" style="font-family: sans-serif; font-size: 15px; fill: #000; opacity: 1;">3.5</text><text text-anchor="end" transform="translate(-7,449.44444444444446)" style="font-family: sans-serif; font-size: 15px; fill: #000; opacity: 1;">4.0</text><text text-anchor="end" transform="translate(-7,405)" style="font-family: sans-serif; font-size: 15px; fill: #000; opacity: 1;">4.5</text><text text-anchor="end" transform="translate(-7,360.55555555555554)" style="font-family: sans-serif; font-size: 15px; fill: #000; opacity: 1;">5.0</text><text text-anchor="end" transform="translate(-7,316.1111111111111)" style="font-family: sans-serif; font-size: 15px; fill: #000; opacity: 1;">5.5</text><text text-anchor="end" transform="translate(-7,271.6666666666667)" style="font-family: sans-serif; font-size: 15px; fill: #000; opacity: 1;">6.0</text><text text-anchor="end" transform="translate(-7,227.22222222222223)" style="font-family: sans-serif; font-size: 15px; fill: #000; opacity: 1;">6.5</text><text text-anchor="end" transform="translate(-7,182.77777777777777)" style="font-family: sans-serif; font-size: 15px; fill: #000; opacity: 1;">7.0</text><text text-anchor="end" transform="translate(-7,138.33333333333331)" style="font-family: sans-serif; font-size: 15px; fill: #000; opacity: 1;">7.5</text><text text-anchor="end" transform="translate(-7,93.88888888888893)" style="font-family: sans-serif; font-size: 15px; fill: #000; opacity: 1;">8.0</text><text text-anchor="end" transform="translate(-7,49.444444444444464)" style="font-family: sans-serif; font-size: 15px; fill: #000; opacity: 1;">8.5</text><text text-anchor="end" transform="translate(-7,5)" style="font-family: sans-serif; font-size: 15px; fill: #000; opacity: 1;">9.0</text></g><g class="mark-rule role-axis-domain" style="pointer-events: none;"><line transform="translate(0,800)" x2="0" y2="-800" style="fill: none; stroke: #888; stroke-width: 1; opacity: 1;"></line></g><g class="mark-text role-axis-title" style="pointer-events: none;"><text text-anchor="middle" transform="translate(-31.85205078125,400) rotate(-90) translate(0,-4)" style="font-family: sans-serif; font-size: 20px; font-weight: bold; fill: #000; opacity: 1;">Mortes confirmadas a cada 100 mil habitantes</text></g></g><path class="foreground" aria-hidden="true" d="" style="pointer-events: none; display: none; fill: none;"></path></g></g><g class="mark-group role-scope layer_0_layer_0_pathgroup" role="graphics-object" aria-roledescription="group mark container"><g transform="translate(0,0)"><path class="background" aria-hidden="true" d="M0,0h650v800h-650Z" style="fill: none;"></path><g><g class="mark-line role-mark layer_0_layer_0_marks" role="graphics-symbol" aria-roledescription="line mark container"><path d="M0,749.6057595577402L16.25,749.6057595577402L32.5,739.5269114692882L48.75,739.5269114692882L65,719.3692152923842L81.25,719.3692152923842L97.5,719.3692152923842L113.74999999999999,699.2115191154803L130,689.1326710270283L146.25,689.1326710270283L162.5,689.1326710270283L178.75000000000003,658.8961267616723L195,638.7384305847685" style="fill: none; stroke: #4c78a8; stroke-width: 4; opacity: 0.7;"></path></g></g><path class="foreground" aria-hidden="true" d="" style="display: none; fill: none;"></path></g><g transform="translate(0,0)"><path class="background" aria-hidden="true" d="M0,0h650v800h-650Z" style="fill: none;"></path><g><g class="mark-line role-mark layer_0_layer_0_marks" role="graphics-symbol" aria-roledescription="line mark container"><path d="M0,786.6827419288843L16.25,786.6827419288843L32.5,781.355838700438L48.75,773.3654838577686L65,760.0482257866529L81.25,752.0578709439835L97.5,749.3944193297604L113.74999999999999,746.7309677155372L130,741.404064487091L146.25,728.0868064159753L162.5,722.759903187529L178.75000000000003,714.7695483448596L195,709.4426451164134L211.25,704.115741887967" style="fill: none; stroke: #f58518; stroke-width: 4; opacity: 0.7;"></path></g></g><path class="foreground" aria-hidden="true" d="" style="display: none; fill: none;"></path></g><g transform="translate(0,0)"><path class="background" aria-hidden="true" d="M0,0h650v800h-650Z" style="fill: none;"></path><g><g class="mark-line role-mark layer_0_layer_0_marks" role="graphics-symbol" aria-roledescription="line mark container"><path d="M0,784.9871477921201L16.25,774.2636819293489L32.5,767.829602411686L48.75,759.250829721469L65,750.6720570312519L81.25,735.659204823372L97.5,714.2122730978293L113.74999999999999,692.7653413722868L130,686.331261854624L146.25,667.0290233016356L162.5,647.7267847486471L178.75000000000003,606.9776144701161L195,572.6625237092479L211.25,534.0580466032711L227.49999999999997,489.0194899796316L243.75,454.7043992187634L260,409.6658425951238L276.25,403.23176307746104L292.5,386.07421769702677L308.75,358.1932064538214L325,298.141797622302L341.25,253.10324099866247L357.50000000000006,184.47305947692598L373.74999999999994,148.01327554350348L390,113.69818478263518L406.25,47.212696433453075" style="fill: none; stroke: #e45756; stroke-width: 4; opacity: 0.7;"></path></g></g><path class="foreground" aria-hidden="true" d="" style="display: none; fill: none;"></path></g><g transform="translate(0,0)"><path class="background" aria-hidden="true" d="M0,0h650v800h-650Z" style="fill: none;"></path><g><g class="mark-line role-mark layer_0_layer_0_marks" role="graphics-symbol" aria-roledescription="line mark container"><path d="M0,747.4484860500036L16.25,747.4484860500036L32.5,736.9381832600043L48.75,726.427880470005L65,726.427880470005L81.25,694.8969721000071L97.5,694.8969721000071L113.74999999999999,694.8969721000071L130,684.3866693100078L146.25,663.3660637300093L162.5,663.3660637300093L178.75000000000003,652.85576094001L195,631.8351553600114L211.25,610.8145497800127L227.49999999999997,589.7939442000143L243.75,558.2630358300163L260,526.7321274600185L276.25,505.71152188001986" style="fill: none; stroke: #72b7b2; stroke-width: 4; opacity: 0.7;"></path></g></g><path class="foreground" aria-hidden="true" d="" style="display: none; fill: none;"></path></g><g transform="translate(0,0)"><path class="background" aria-hidden="true" d="M0,0h650v800h-650Z" style="fill: none;"></path><g><g class="mark-line role-mark layer_0_layer_0_marks" role="graphics-symbol" aria-roledescription="line mark container"><path d="M0,796.4140991168106L16.25,795.8164489696122L32.5,794.6211486752159L48.75,794.0234985280176L65,791.6328979392246L81.25,789.2422973504316L97.5,788.6446472032334L113.74999999999999,788.6446472032334L130,787.4493469088369L146.25,787.4493469088369L162.5,786.8516967616387L178.75000000000003,784.4610961728457L195,783.2657958784492L211.25,779.6798949952597L227.49999999999997,778.4845947008632L243.75,776.0939941120703L260,773.1057433760791L276.25,771.9104430816825L292.5,771.3127929344843L308.75,768.3245421984931L325,762.9456908737089L341.25,759.9574401377178L357.50000000000006,756.9691894017266L373.74999999999994,755.77388910733L390,750.3950377825458L406.25,744.4185363105634" style="fill: none; stroke: #54a24b; stroke-width: 4; opacity: 0.7;"></path></g></g><path class="foreground" aria-hidden="true" d="" style="display: none; fill: none;"></path></g><g transform="translate(0,0)"><path class="background" aria-hidden="true" d="M0,0h650v800h-650Z" style="fill: none;"></path><g><g class="mark-line role-mark layer_0_layer_0_marks" role="graphics-symbol" aria-roledescription="line mark container"><path d="M0,795.1331510260376L16.25,795.1331510260376L32.5,793.1864114364527L48.75,791.2396718468676L65,779.559234309358L81.25,778.5858645145655L97.5,777.612494719773L113.74999999999999,765.9320571822633L130,765.9320571822633L146.25,761.065208208301L162.5,744.5179216968288L178.75000000000003,744.5179216968288L195,734.7842237489041L211.25,727.9706351853567L227.49999999999997,726.0238955957718L243.75,701.6896507259598L260,691.9559527780351L276.25,679.3021454457329L292.5,668.5950777030157L308.75,649.1276818071661L325,624.7934369373543L341.25,616.033108784222L357.50000000000006,599.4858222727498L373.74999999999994,584.8852753508627L390,567.3646190445982L406.25,536.2167856112388L422.5,514.8026501258043L438.75000000000006,482.6814468976527L454.99999999999994,434.0129571580288L471.25,413.57219146738674L487.5,394.1047955715373" style="fill: none; stroke: #eeca3b; stroke-width: 4; opacity: 0.7;"></path></g></g><path class="foreground" aria-hidden="true" d="" style="display: none; fill: none;"></path></g><g transform="translate(0,0)"><path class="background" aria-hidden="true" d="M0,0h650v800h-650Z" style="fill: none;"></path><g><g class="mark-line role-mark layer_0_layer_0_marks" role="graphics-symbol" aria-roledescription="line mark container"><path d="M0,785.2602009358887L16.25,782.3122411230665L32.5,779.3642813102443L48.75,779.3642813102443L65,770.5204018717776L81.25,764.6244822461331L97.5,764.6244822461331L113.74999999999999,761.6765224333109L130,758.7285626204887L146.25,758.7285626204887L162.5,758.7285626204887L178.75000000000003,755.7806028076664L195,749.884683182022L211.25,749.884683182022L227.49999999999997,741.0408037435552L243.75,729.2489644922663L260,729.2489644922663L276.25,729.2489644922663L292.5,729.2489644922663L308.75,729.2489644922663L325,726.301004679444L341.25,723.3530448666218L357.50000000000006,723.3530448666218L373.74999999999994,720.4050850537996L390,720.4050850537996L406.25,717.4571252409773L422.5,717.4571252409773" style="fill: none; stroke: #b279a2; stroke-width: 4; opacity: 0.7;"></path></g></g><path class="foreground" aria-hidden="true" d="" style="display: none; fill: none;"></path></g><g transform="translate(0,0)"><path class="background" aria-hidden="true" d="M0,0h650v800h-650Z" style="fill: none;"></path><g><g class="mark-line role-mark layer_0_layer_0_marks" role="graphics-symbol" aria-roledescription="line mark container"><path d="M0,788.9404540220113L16.25,786.7285448264136L32.5,786.7285448264136L48.75,786.7285448264136L65,786.7285448264136L81.25,786.7285448264136L97.5,784.5166356308158L113.74999999999999,782.304726435218L130,780.0928172396203L146.25,769.0332712616315L162.5,762.3975436748383L178.75000000000003,760.1856344792405L195,753.5499068924473L211.25,738.0665425232631L227.49999999999997,738.0665425232631L243.75,733.6427241320675L260,724.7950873496766L276.25,724.7950873496766L292.5,724.7950873496766L308.75,718.1593597628832L325,704.8879045892969L341.25,696.0402678069058L357.50000000000006,684.9807218289171L373.74999999999994,673.9211758509284L390,660.6497206773419L406.25,629.6829919389734" style="fill: none; stroke: #ff9da6; stroke-width: 4; opacity: 0.7;"></path></g></g><path class="foreground" aria-hidden="true" d="" style="display: none; fill: none;"></path></g><g transform="translate(0,0)"><path class="background" aria-hidden="true" d="M0,0h650v800h-650Z" style="fill: none;"></path><g><g class="mark-line role-mark layer_0_layer_0_marks" role="graphics-symbol" aria-roledescription="line mark container"><path d="M0,793.6673977339352L16.25,793.6673977339352L32.5,791.1343568275095L48.75,791.1343568275095L65,789.8678363742964L81.25,787.3347954678705L97.5,782.2687136550187L113.74999999999999,781.0021932018058L130,781.0021932018058L146.25,781.0021932018058L162.5,779.735672748593L178.75000000000003,779.735672748593L195,777.202631842167L211.25,777.202631842167L227.49999999999997,775.936111388954L243.75,775.936111388954L260,773.4030704825282L276.25,770.8700295761022L292.5,769.6035091228894L308.75,768.3369886696764L325,768.3369886696764L341.25,767.0704682164634L357.50000000000006,765.8039477632504" style="fill: none; stroke: #9d755d; stroke-width: 4; opacity: 0.7;"></path></g></g><path class="foreground" aria-hidden="true" d="" style="display: none; fill: none;"></path></g><g transform="translate(0,0)"><path class="background" aria-hidden="true" d="M0,0h650v800h-650Z" style="fill: none;"></path><g><g class="mark-line role-mark layer_0_layer_0_marks" role="graphics-symbol" aria-roledescription="line mark container"><path d="M0,786.1801729485397L16.25,784.9238250347706L32.5,779.8984333796941L48.75,773.6166938108486L65,769.8476500695411L81.25,766.0786063282338L97.5,759.7968667593883L113.74999999999999,757.28417093185L130,753.5151271905427L146.25,749.7460834492354L162.5,744.7206917941589L178.75000000000003,739.6953001390824L195,732.1572126564677L211.25,724.619125173853L227.49999999999997,717.0810376912383L243.75,704.5175585535471L260,689.4413835883178L276.25,674.3652086230884L292.5,659.2890336578589L308.75,642.9565107788605L325,617.8295525034781L341.25,591.4462463143267" style="fill: none; stroke: #bab0ac; stroke-width: 4; opacity: 0.7;"></path></g></g><path class="foreground" aria-hidden="true" d="" style="display: none; fill: none;"></path></g><g transform="translate(0,0)"><path class="background" aria-hidden="true" d="M0,0h650v800h-650Z" style="fill: none;"></path><g><g class="mark-line role-mark layer_0_layer_0_marks" role="graphics-symbol" aria-roledescription="line mark container"><path d="M0,797.4805678163985L16.25,797.4805678163985L32.5,797.4805678163985L48.75,796.2208517245978L65,795.3810409967306L81.25,794.1213249049299L97.5,793.7014195409963L113.74999999999999,792.8616088131291L130,792.8616088131291L146.25,791.6018927213285L162.5,790.3421766295277L178.75000000000003,788.6625551737933L195,787.4028390819926L211.25,786.1431229901918L227.49999999999997,785.3033122623248L243.75,783.6236908065904L260,783.6236908065904L276.25,782.7838800787232L292.5,781.5241639869224L308.75,780.2644478951217L325,778.5848264393875L341.25,777.3251103475867L357.50000000000006,775.6454888918523L373.74999999999994,774.3857728000517L390,773.9658674361181L406.25,770.1867191607158" style="fill: none; stroke: #4c78a8; stroke-width: 4; opacity: 0.7;"></path></g></g><path class="foreground" aria-hidden="true" d="" style="display: none; fill: none;"></path></g><g transform="translate(0,0)"><path class="background" aria-hidden="true" d="M0,0h650v800h-650Z" style="fill: none;"></path><g><g class="mark-line role-mark layer_0_layer_0_marks" role="graphics-symbol" aria-roledescription="line mark container"><path d="M0,784.0069563342729L16.25,784.0069563342729L32.5,784.0069563342729L48.75,784.0069563342729L65,784.0069563342729L81.25,780.8083476011274L97.5,780.8083476011274L113.74999999999999,777.609738867982L130,777.609738867982L146.25,777.609738867982L162.5,777.609738867982L178.75000000000003,771.2125214016911L195,771.2125214016911" style="fill: none; stroke: #f58518; stroke-width: 4; opacity: 0.7;"></path></g></g><path class="foreground" aria-hidden="true" d="" style="display: none; fill: none;"></path></g><g transform="translate(0,0)"><path class="background" aria-hidden="true" d="M0,0h650v800h-650Z" style="fill: none;"></path><g><g class="mark-line role-mark layer_0_layer_0_marks" role="graphics-symbol" aria-roledescription="line mark container"><path d="M0,787.2449768646202L16.25,787.2449768646202L32.5,787.2449768646202L48.75,787.2449768646202L65,784.6939722375442L81.25,784.6939722375442L97.5,784.6939722375442L113.74999999999999,782.1429676104683L130,779.5919629833922L146.25,777.0409583563163L162.5,777.0409583563163L178.75000000000003,774.4899537292404L195,771.9389491021643" style="fill: none; stroke: #e45756; stroke-width: 4; opacity: 0.7;"></path></g></g><path class="foreground" aria-hidden="true" d="" style="display: none; fill: none;"></path></g><g transform="translate(0,0)"><path class="background" aria-hidden="true" d="M0,0h650v800h-650Z" style="fill: none;"></path><g><g class="mark-line role-mark layer_0_layer_0_marks" role="graphics-symbol" aria-roledescription="line mark container"><path d="M0,794.8337624216532L16.25,794.8337624216532L32.5,793.8005149059838L48.75,792.7672673903145L65,790.7007723589758L81.25,788.634277327637L97.5,785.534534780629L113.74999999999999,785.534534780629L130,778.3018021709435L146.25,778.3018021709435L162.5,773.1355645925967L178.75000000000003,766.9360794985804L195,765.902831982911L211.25,764.8695844672418L227.49999999999997,763.8363369515724L243.75,760.7365944045644L260,755.5703568262176L276.25,745.2378816695239L292.5,711.1407136524351L308.75,701.8414860114108L325,682.209783213693L341.25,673.9438030883381L357.50000000000006,663.6113279316445" style="fill: none; stroke: #72b7b2; stroke-width: 4; opacity: 0.7;"></path></g></g><path class="foreground" aria-hidden="true" d="" style="display: none; fill: none;"></path></g><g transform="translate(0,0)"><path class="background" aria-hidden="true" d="M0,0h650v800h-650Z" style="fill: none;"></path><g><g class="mark-line role-mark layer_0_layer_0_marks" role="graphics-symbol" aria-roledescription="line mark container"><path d="M0,784.5146203138372L16.25,775.6658319217441L32.5,775.6658319217441L48.75,771.2414377256977L65,771.2414377256977L81.25,764.604846431628L97.5,753.5438609415116L113.74999999999999,746.9072696474418L130,742.4828754513953L146.25,738.0584812553489L162.5,735.8462841573256L178.75000000000003,729.2096928632558L195,726.9974957652325L211.25,713.724313177093L227.49999999999997,711.5121160790699L243.75,702.6633276869768L260,698.2389334909302L276.25,691.6023421968605L292.5,689.3901450988373L308.75,682.7535538047675L325,673.9047654126745" style="fill: none; stroke: #54a24b; stroke-width: 4; opacity: 0.7;"></path></g></g><path class="foreground" aria-hidden="true" d="" style="display: none; fill: none;"></path></g><g transform="translate(0,0)"><path class="background" aria-hidden="true" d="M0,0h650v800h-650Z" style="fill: none;"></path><g><g class="mark-line role-mark layer_0_layer_0_marks" role="graphics-symbol" aria-roledescription="line mark container"><path d="M0,795.3495747343046L16.25,795.3495747343046L32.5,794.4194896811656L48.75,794.4194896811656L65,792.5593195748875L81.25,791.6292345217483L97.5,790.6991494686092L113.74999999999999,786.978809256053L130,780.4682138840794L146.25,772.0974484058278L162.5,768.3771081932715L178.75000000000003,757.2160875556027L195,747.9152370242119L211.25,739.5444715459603L227.49999999999997,733.0338761739868L243.75,720.9427704831788L260,705.1313245798145L276.25,693.0402188890067L292.5,666.9978374011126L308.75,651.1863914977484L325,627.0041801161325L341.25,609.33256410649L357.50000000000006,599.1016285219603L373.74999999999994,582.3600975654571L390,558.1778861838411L406.25,537.7160150147815L422.5,509.81346342060937L438.75000000000006,472.6100612950464L454.99999999999994,445.6375947540133L471.25,414.0147029472849L487.5,381.4617260874174L503.75,327.51679300535113" style="fill: none; stroke: #eeca3b; stroke-width: 4; opacity: 0.7;"></path></g></g><path class="foreground" aria-hidden="true" d="" style="display: none; fill: none;"></path></g><g transform="translate(0,0)"><path class="background" aria-hidden="true" d="M0,0h650v800h-650Z" style="fill: none;"></path><g><g class="mark-line role-mark layer_0_layer_0_marks" role="graphics-symbol" aria-roledescription="line mark container"><path d="M0,786.4218263980945L16.25,783.7061916777134L32.5,780.9905569573323L48.75,780.9905569573323L65,780.9905569573323L81.25,780.9905569573323L97.5,778.2749222369512L113.74999999999999,778.2749222369512L130,778.2749222369512L146.25,778.2749222369512L162.5,775.55928751657L178.75000000000003,772.843652796189L195,767.4123833554268L211.25,761.9811139146644L227.49999999999997,759.2654791942834L243.75,759.2654791942834L260,756.5498444739023L276.25,753.8342097535212L292.5,751.1185750331401L308.75,745.6873055923778L325,742.9716708719967L341.25,734.8247667108534" style="fill: none; stroke: #b279a2; stroke-width: 4; opacity: 0.7;"></path></g></g><path class="foreground" aria-hidden="true" d="" style="display: none; fill: none;"></path></g><g transform="translate(0,0)"><path class="background" aria-hidden="true" d="M0,0h650v800h-650Z" style="fill: none;"></path><g><g class="mark-line role-mark layer_0_layer_0_marks" role="graphics-symbol" aria-roledescription="line mark container"><path d="M0,796.1129428382104L16.25,794.5581199734945L32.5,792.2258856764207L48.75,789.116239946989L65,788.3388285146312L81.25,786.7840056499153L97.5,781.3421256234099L113.74999999999999,779.787302758694L130,779.0098913263362L146.25,775.9002455969045L162.5,774.3454227321886L178.75000000000003,769.6809541380411L195,768.1261312733252L211.25,766.5713084086094L227.49999999999997,765.7938969762514L243.75,761.9068398144618L260,759.574605517388L276.25,758.7971940850301L292.5,757.2423712203143L308.75,753.3553140585246L325,751.8004911938089L341.25,747.9134340320192L357.50000000000006,744.8037883025876L373.74999999999994,741.6941425731558L390,740.13931970844L406.25,738.5844968437242" style="fill: none; stroke: #ff9da6; stroke-width: 4; opacity: 0.7;"></path></g></g><path class="foreground" aria-hidden="true" d="" style="display: none; fill: none;"></path></g><g transform="translate(0,0)"><path class="background" aria-hidden="true" d="M0,0h650v800h-650Z" style="fill: none;"></path><g><g class="mark-line role-mark layer_0_layer_0_marks" role="graphics-symbol" aria-roledescription="line mark container"><path d="M0,796.9108885367688L16.25,795.8811847156917L32.5,795.3663328051532L48.75,794.8514808946147L65,793.306925162999L81.25,791.2475175208449L97.5,790.7326656103064L113.74999999999999,788.1584060576137L130,785.584146504921L146.25,778.8910716679201L162.5,775.8019602046888L178.75000000000003,770.138589188765L195,767.0494777255338L211.25,763.4455143517641L227.49999999999997,754.1781799620705L243.75,745.4256974829154L260,737.1880669142989L276.25,724.3167691508355L292.5,720.1979538665272L308.75,712.4751752084492L325,706.2969522819868L341.25,684.6731720393683L357.50000000000006,663.5642437072885L373.74999999999994,645.0295749279013L390,624.4354985063599L406.25,600.7523106215873L422.5,593.0295319635093L438.75000000000006,582.7324937527386L454.99999999999994,562.6532692417359L471.25,547.7225638361183L487.5,527.128487414577L503.75,506.5344109930356L520,483.36607501880155L536.25,467.92051770264555L552.5,451.4452565654125L568.75,420.03929002256194" style="fill: none; stroke: #9d755d; stroke-width: 4; opacity: 0.7;"></path></g></g><path class="foreground" aria-hidden="true" d="" style="display: none; fill: none;"></path></g><g transform="translate(0,0)"><path class="background" aria-hidden="true" d="M0,0h650v800h-650Z" style="fill: none;"></path><g><g class="mark-line role-mark layer_0_layer_0_marks" role="graphics-symbol" aria-roledescription="line mark container"><path d="M0,784.7916826472814L16.25,782.2569630884949L32.5,782.2569630884949L48.75,779.7222435297085L65,772.1180848533492L81.25,772.1180848533492L97.5,772.1180848533492L113.74999999999999,767.0486457357764L130,756.9097675006307L146.25,754.3750479418441L162.5,751.8403283830577L178.75000000000003,749.3056088242713L195,741.7014501479119L211.25,739.1667305891256L227.49999999999997,734.0972914715527L243.75,731.5625719127662L260,729.0278523539798L276.25,726.4931327951933L292.5,713.8195350012612L308.75,703.6806567661154L325,698.6112176485426L341.25,688.4723394133969L357.50000000000006,685.9376198546104L373.74999999999994,678.3334611782511L390,663.1251438255324" style="fill: none; stroke: #bab0ac; stroke-width: 4; opacity: 0.7;"></path></g></g><path class="foreground" aria-hidden="true" d="" style="display: none; fill: none;"></path></g><g transform="translate(0,0)"><path class="background" aria-hidden="true" d="M0,0h650v800h-650Z" style="fill: none;"></path><g><g class="mark-line role-mark layer_0_layer_0_marks" role="graphics-symbol" aria-roledescription="line mark container"><path d="M0,774.992224144695L16.25,774.992224144695L32.5,774.992224144695L48.75,769.990668973634L65,764.989113802573L81.25,749.98444828939L97.5,749.98444828939L113.74999999999999,744.982893118329" style="fill: none; stroke: #4c78a8; stroke-width: 4; opacity: 0.7;"></path></g></g><path class="foreground" aria-hidden="true" d="" style="display: none; fill: none;"></path></g><g transform="translate(0,0)"><path class="background" aria-hidden="true" d="M0,0h650v800h-650Z" style="fill: none;"></path><g><g class="mark-line role-mark layer_0_layer_0_marks" role="graphics-symbol" aria-roledescription="line mark container"><path d="M0,796.09356501657L16.25,796.09356501657L32.5,795.3122780198839L48.75,794.530991023198L65,794.530991023198L81.25,793.749704026512L97.5,793.749704026512L113.74999999999999,792.18713003314L130,789.0619820463959L146.25,788.28069504971L162.5,787.4994080530239L178.75000000000003,787.4994080530239L195,786.7181210563378L211.25,785.9368340596519L227.49999999999997,785.1555470629659L243.75,783.5929730695939L260,781.249112079536L276.25,781.249112079536L292.5,779.6865380861639L308.75,778.9052510894779L325,778.9052510894779L341.25,778.1239640927918L357.50000000000006,777.3426770961058L373.74999999999994,773.4362421126758L390,772.6549551159899L406.25,770.3110941259318L422.5,764.8420851491297L438.75000000000006,761.7169371623858" style="fill: none; stroke: #f58518; stroke-width: 4; opacity: 0.7;"></path></g></g><path class="foreground" aria-hidden="true" d="" style="display: none; fill: none;"></path></g><g transform="translate(0,0)"><path class="background" aria-hidden="true" d="M0,0h650v800h-650Z" style="fill: none;"></path><g><g class="mark-line role-mark layer_0_layer_0_marks" role="graphics-symbol" aria-roledescription="line mark container"><path d="M0,793.7968235146045L16.25,793.7968235146045L32.5,787.5936470292088L48.75,787.5936470292088L65,786.3530117321297L81.25,781.3904705438133L97.5,778.9091999496551L113.74999999999999,777.6685646525759L130,777.6685646525759L146.25,773.9466587613385L162.5,770.2247528701012L178.75000000000003,767.7434822759429L195,765.2622116817847L211.25,764.0215763847057L227.49999999999997,762.7809410876265L243.75,761.5403057905473L260,760.2996704934683L276.25,756.5777646022309L292.5,756.5777646022309L308.75,754.0964940080727L325,751.6152234139145L341.25,747.8933175226771L357.50000000000006,747.8933175226771L373.74999999999994,747.8933175226771L390,746.652682225598L406.25,745.4120469285189L422.5,745.4120469285189" style="fill: none; stroke: #e45756; stroke-width: 4; opacity: 0.7;"></path></g></g><path class="foreground" aria-hidden="true" d="" style="display: none; fill: none;"></path></g><g transform="translate(0,0)"><path class="background" aria-hidden="true" d="M0,0h650v800h-650Z" style="fill: none;"></path><g><g class="mark-line role-mark layer_0_layer_0_marks" role="graphics-symbol" aria-roledescription="line mark container"><path d="M0,780.6653666059173L16.25,780.6653666059173L32.5,780.6653666059173L48.75,772.9315132482841L65,772.9315132482841L81.25,769.0645865694676L97.5,769.0645865694676L113.74999999999999,765.197659890651L130,765.197659890651L146.25,757.463806533018L162.5,757.463806533018" style="fill: none; stroke: #72b7b2; stroke-width: 4; opacity: 0.7;"></path></g></g><path class="foreground" aria-hidden="true" d="" style="display: none; fill: none;"></path></g><g transform="translate(0,0)"><path class="background" aria-hidden="true" d="M0,0h650v800h-650Z" style="fill: none;"></path><g><g class="mark-line role-mark layer_0_layer_0_marks" role="graphics-symbol" aria-roledescription="line mark container"><path d="M0,799.0321131336051L16.25,798.2578036404892L32.5,797.0963394008153L48.75,795.7412977878624L65,794.1926788016306L81.25,792.2569050688406L97.5,790.7082860826089L113.74999999999999,788.772512349819L130,786.8367386170293L146.25,783.7395006445655L162.5,781.0294174186597L178.75000000000003,778.125756819475L195,773.6734772340584L211.25,768.2533107822469L227.49999999999997,763.6074538235513L243.75,757.6065552519028L260,749.6698829474645L276.25,746.7662223482798L292.5,741.1524785231893L308.75,728.1827945134975L325,717.1488842365954L341.25,703.9856228536247L357.50000000000006,695.4682184293495L373.74999999999994,691.5966709637698L390,686.1765045119582L406.25,682.3049570463786L422.5,665.4637255711071L438.75000000000006,649.3968035889516L454.99999999999994,634.8785005930279L471.25,620.3601975971043L487.5,608.1648230805283L503.75,603.5189661218328L520,599.2602639096951L536.25,588.419931006072L552.5,580.4832587016339L568.75,539.6384329397686L585,507.3110116021784L601.25,477.3065187439362L617.5,470.9184654257298L633.75,446.72129376585696L650,403.3599621513648" style="fill: none; stroke: #54a24b; stroke-width: 4; opacity: 0.7;"></path></g></g><path class="foreground" aria-hidden="true" d="" style="display: none; fill: none;"></path></g></g><g class="mark-group role-scope layer_0_layer_1_pathgroup" role="graphics-object" aria-roledescription="group mark container"><g transform="translate(0,0)"><path class="background" aria-hidden="true" d="M0,0h650v800h-650Z" style="fill: none;"></path><g><g class="mark-line role-mark layer_0_layer_1_marks" role="graphics-symbol" aria-roledescription="line mark container" style="pointer-events: none;"><path d="M0,749.6057595577402L16.25,749.6057595577402L32.5,739.5269114692882L48.75,739.5269114692882L65,719.3692152923842L81.25,719.3692152923842L97.5,719.3692152923842L113.74999999999999,699.2115191154803L130,689.1326710270283L146.25,689.1326710270283L162.5,689.1326710270283L178.75000000000003,658.8961267616723L195,638.7384305847685" style="fill: none; stroke: #4c78a8; stroke-width: 4; opacity: 0.5;"></path></g></g><path class="foreground" aria-hidden="true" d="" style="display: none; fill: none;"></path></g><g transform="translate(0,0)"><path class="background" aria-hidden="true" d="M0,0h650v800h-650Z" style="fill: none;"></path><g><g class="mark-line role-mark layer_0_layer_1_marks" role="graphics-symbol" aria-roledescription="line mark container" style="pointer-events: none;"><path d="M0,786.6827419288843L16.25,786.6827419288843L32.5,781.355838700438L48.75,773.3654838577686L65,760.0482257866529L81.25,752.0578709439835L97.5,749.3944193297604L113.74999999999999,746.7309677155372L130,741.404064487091L146.25,728.0868064159753L162.5,722.759903187529L178.75000000000003,714.7695483448596L195,709.4426451164134L211.25,704.115741887967" style="fill: none; stroke: #f58518; stroke-width: 4; opacity: 0.5;"></path></g></g><path class="foreground" aria-hidden="true" d="" style="display: none; fill: none;"></path></g><g transform="translate(0,0)"><path class="background" aria-hidden="true" d="M0,0h650v800h-650Z" style="fill: none;"></path><g><g class="mark-line role-mark layer_0_layer_1_marks" role="graphics-symbol" aria-roledescription="line mark container" style="pointer-events: none;"><path d="M0,784.9871477921201L16.25,774.2636819293489L32.5,767.829602411686L48.75,759.250829721469L65,750.6720570312519L81.25,735.659204823372L97.5,714.2122730978293L113.74999999999999,692.7653413722868L130,686.331261854624L146.25,667.0290233016356L162.5,647.7267847486471L178.75000000000003,606.9776144701161L195,572.6625237092479L211.25,534.0580466032711L227.49999999999997,489.0194899796316L243.75,454.7043992187634L260,409.6658425951238L276.25,403.23176307746104L292.5,386.07421769702677L308.75,358.1932064538214L325,298.141797622302L341.25,253.10324099866247L357.50000000000006,184.47305947692598L373.74999999999994,148.01327554350348L390,113.69818478263518L406.25,47.212696433453075" style="fill: none; stroke: #e45756; stroke-width: 4; opacity: 0.5;"></path></g></g><path class="foreground" aria-hidden="true" d="" style="display: none; fill: none;"></path></g><g transform="translate(0,0)"><path class="background" aria-hidden="true" d="M0,0h650v800h-650Z" style="fill: none;"></path><g><g class="mark-line role-mark layer_0_layer_1_marks" role="graphics-symbol" aria-roledescription="line mark container" style="pointer-events: none;"><path d="M0,747.4484860500036L16.25,747.4484860500036L32.5,736.9381832600043L48.75,726.427880470005L65,726.427880470005L81.25,694.8969721000071L97.5,694.8969721000071L113.74999999999999,694.8969721000071L130,684.3866693100078L146.25,663.3660637300093L162.5,663.3660637300093L178.75000000000003,652.85576094001L195,631.8351553600114L211.25,610.8145497800127L227.49999999999997,589.7939442000143L243.75,558.2630358300163L260,526.7321274600185L276.25,505.71152188001986" style="fill: none; stroke: #72b7b2; stroke-width: 4; opacity: 0.5;"></path></g></g><path class="foreground" aria-hidden="true" d="" style="display: none; fill: none;"></path></g><g transform="translate(0,0)"><path class="background" aria-hidden="true" d="M0,0h650v800h-650Z" style="fill: none;"></path><g><g class="mark-line role-mark layer_0_layer_1_marks" role="graphics-symbol" aria-roledescription="line mark container" style="pointer-events: none;"><path d="M0,796.4140991168106L16.25,795.8164489696122L32.5,794.6211486752159L48.75,794.0234985280176L65,791.6328979392246L81.25,789.2422973504316L97.5,788.6446472032334L113.74999999999999,788.6446472032334L130,787.4493469088369L146.25,787.4493469088369L162.5,786.8516967616387L178.75000000000003,784.4610961728457L195,783.2657958784492L211.25,779.6798949952597L227.49999999999997,778.4845947008632L243.75,776.0939941120703L260,773.1057433760791L276.25,771.9104430816825L292.5,771.3127929344843L308.75,768.3245421984931L325,762.9456908737089L341.25,759.9574401377178L357.50000000000006,756.9691894017266L373.74999999999994,755.77388910733L390,750.3950377825458L406.25,744.4185363105634" style="fill: none; stroke: #54a24b; stroke-width: 4; opacity: 0.5;"></path></g></g><path class="foreground" aria-hidden="true" d="" style="display: none; fill: none;"></path></g><g transform="translate(0,0)"><path class="background" aria-hidden="true" d="M0,0h650v800h-650Z" style="fill: none;"></path><g><g class="mark-line role-mark layer_0_layer_1_marks" role="graphics-symbol" aria-roledescription="line mark container" style="pointer-events: none;"><path d="M0,795.1331510260376L16.25,795.1331510260376L32.5,793.1864114364527L48.75,791.2396718468676L65,779.559234309358L81.25,778.5858645145655L97.5,777.612494719773L113.74999999999999,765.9320571822633L130,765.9320571822633L146.25,761.065208208301L162.5,744.5179216968288L178.75000000000003,744.5179216968288L195,734.7842237489041L211.25,727.9706351853567L227.49999999999997,726.0238955957718L243.75,701.6896507259598L260,691.9559527780351L276.25,679.3021454457329L292.5,668.5950777030157L308.75,649.1276818071661L325,624.7934369373543L341.25,616.033108784222L357.50000000000006,599.4858222727498L373.74999999999994,584.8852753508627L390,567.3646190445982L406.25,536.2167856112388L422.5,514.8026501258043L438.75000000000006,482.6814468976527L454.99999999999994,434.0129571580288L471.25,413.57219146738674L487.5,394.1047955715373" style="fill: none; stroke: #eeca3b; stroke-width: 4; opacity: 0.5;"></path></g></g><path class="foreground" aria-hidden="true" d="" style="display: none; fill: none;"></path></g><g transform="translate(0,0)"><path class="background" aria-hidden="true" d="M0,0h650v800h-650Z" style="fill: none;"></path><g><g class="mark-line role-mark layer_0_layer_1_marks" role="graphics-symbol" aria-roledescription="line mark container" style="pointer-events: none;"><path d="M0,785.2602009358887L16.25,782.3122411230665L32.5,779.3642813102443L48.75,779.3642813102443L65,770.5204018717776L81.25,764.6244822461331L97.5,764.6244822461331L113.74999999999999,761.6765224333109L130,758.7285626204887L146.25,758.7285626204887L162.5,758.7285626204887L178.75000000000003,755.7806028076664L195,749.884683182022L211.25,749.884683182022L227.49999999999997,741.0408037435552L243.75,729.2489644922663L260,729.2489644922663L276.25,729.2489644922663L292.5,729.2489644922663L308.75,729.2489644922663L325,726.301004679444L341.25,723.3530448666218L357.50000000000006,723.3530448666218L373.74999999999994,720.4050850537996L390,720.4050850537996L406.25,717.4571252409773L422.5,717.4571252409773" style="fill: none; stroke: #b279a2; stroke-width: 4; opacity: 0.5;"></path></g></g><path class="foreground" aria-hidden="true" d="" style="display: none; fill: none;"></path></g><g transform="translate(0,0)"><path class="background" aria-hidden="true" d="M0,0h650v800h-650Z" style="fill: none;"></path><g><g class="mark-line role-mark layer_0_layer_1_marks" role="graphics-symbol" aria-roledescription="line mark container" style="pointer-events: none;"><path d="M0,788.9404540220113L16.25,786.7285448264136L32.5,786.7285448264136L48.75,786.7285448264136L65,786.7285448264136L81.25,786.7285448264136L97.5,784.5166356308158L113.74999999999999,782.304726435218L130,780.0928172396203L146.25,769.0332712616315L162.5,762.3975436748383L178.75000000000003,760.1856344792405L195,753.5499068924473L211.25,738.0665425232631L227.49999999999997,738.0665425232631L243.75,733.6427241320675L260,724.7950873496766L276.25,724.7950873496766L292.5,724.7950873496766L308.75,718.1593597628832L325,704.8879045892969L341.25,696.0402678069058L357.50000000000006,684.9807218289171L373.74999999999994,673.9211758509284L390,660.6497206773419L406.25,629.6829919389734" style="fill: none; stroke: #ff9da6; stroke-width: 4; opacity: 0.5;"></path></g></g><path class="foreground" aria-hidden="true" d="" style="display: none; fill: none;"></path></g><g transform="translate(0,0)"><path class="background" aria-hidden="true" d="M0,0h650v800h-650Z" style="fill: none;"></path><g><g class="mark-line role-mark layer_0_layer_1_marks" role="graphics-symbol" aria-roledescription="line mark container" style="pointer-events: none;"><path d="M0,793.6673977339352L16.25,793.6673977339352L32.5,791.1343568275095L48.75,791.1343568275095L65,789.8678363742964L81.25,787.3347954678705L97.5,782.2687136550187L113.74999999999999,781.0021932018058L130,781.0021932018058L146.25,781.0021932018058L162.5,779.735672748593L178.75000000000003,779.735672748593L195,777.202631842167L211.25,777.202631842167L227.49999999999997,775.936111388954L243.75,775.936111388954L260,773.4030704825282L276.25,770.8700295761022L292.5,769.6035091228894L308.75,768.3369886696764L325,768.3369886696764L341.25,767.0704682164634L357.50000000000006,765.8039477632504" style="fill: none; stroke: #9d755d; stroke-width: 4; opacity: 0.5;"></path></g></g><path class="foreground" aria-hidden="true" d="" style="display: none; fill: none;"></path></g><g transform="translate(0,0)"><path class="background" aria-hidden="true" d="M0,0h650v800h-650Z" style="fill: none;"></path><g><g class="mark-line role-mark layer_0_layer_1_marks" role="graphics-symbol" aria-roledescription="line mark container" style="pointer-events: none;"><path d="M0,786.1801729485397L16.25,784.9238250347706L32.5,779.8984333796941L48.75,773.6166938108486L65,769.8476500695411L81.25,766.0786063282338L97.5,759.7968667593883L113.74999999999999,757.28417093185L130,753.5151271905427L146.25,749.7460834492354L162.5,744.7206917941589L178.75000000000003,739.6953001390824L195,732.1572126564677L211.25,724.619125173853L227.49999999999997,717.0810376912383L243.75,704.5175585535471L260,689.4413835883178L276.25,674.3652086230884L292.5,659.2890336578589L308.75,642.9565107788605L325,617.8295525034781L341.25,591.4462463143267" style="fill: none; stroke: #bab0ac; stroke-width: 4; opacity: 0.5;"></path></g></g><path class="foreground" aria-hidden="true" d="" style="display: none; fill: none;"></path></g><g transform="translate(0,0)"><path class="background" aria-hidden="true" d="M0,0h650v800h-650Z" style="fill: none;"></path><g><g class="mark-line role-mark layer_0_layer_1_marks" role="graphics-symbol" aria-roledescription="line mark container" style="pointer-events: none;"><path d="M0,797.4805678163985L16.25,797.4805678163985L32.5,797.4805678163985L48.75,796.2208517245978L65,795.3810409967306L81.25,794.1213249049299L97.5,793.7014195409963L113.74999999999999,792.8616088131291L130,792.8616088131291L146.25,791.6018927213285L162.5,790.3421766295277L178.75000000000003,788.6625551737933L195,787.4028390819926L211.25,786.1431229901918L227.49999999999997,785.3033122623248L243.75,783.6236908065904L260,783.6236908065904L276.25,782.7838800787232L292.5,781.5241639869224L308.75,780.2644478951217L325,778.5848264393875L341.25,777.3251103475867L357.50000000000006,775.6454888918523L373.74999999999994,774.3857728000517L390,773.9658674361181L406.25,770.1867191607158" style="fill: none; stroke: #4c78a8; stroke-width: 4; opacity: 0.5;"></path></g></g><path class="foreground" aria-hidden="true" d="" style="display: none; fill: none;"></path></g><g transform="translate(0,0)"><path class="background" aria-hidden="true" d="M0,0h650v800h-650Z" style="fill: none;"></path><g><g class="mark-line role-mark layer_0_layer_1_marks" role="graphics-symbol" aria-roledescription="line mark container" style="pointer-events: none;"><path d="M0,784.0069563342729L16.25,784.0069563342729L32.5,784.0069563342729L48.75,784.0069563342729L65,784.0069563342729L81.25,780.8083476011274L97.5,780.8083476011274L113.74999999999999,777.609738867982L130,777.609738867982L146.25,777.609738867982L162.5,777.609738867982L178.75000000000003,771.2125214016911L195,771.2125214016911" style="fill: none; stroke: #f58518; stroke-width: 4; opacity: 0.5;"></path></g></g><path class="foreground" aria-hidden="true" d="" style="display: none; fill: none;"></path></g><g transform="translate(0,0)"><path class="background" aria-hidden="true" d="M0,0h650v800h-650Z" style="fill: none;"></path><g><g class="mark-line role-mark layer_0_layer_1_marks" role="graphics-symbol" aria-roledescription="line mark container" style="pointer-events: none;"><path d="M0,787.2449768646202L16.25,787.2449768646202L32.5,787.2449768646202L48.75,787.2449768646202L65,784.6939722375442L81.25,784.6939722375442L97.5,784.6939722375442L113.74999999999999,782.1429676104683L130,779.5919629833922L146.25,777.0409583563163L162.5,777.0409583563163L178.75000000000003,774.4899537292404L195,771.9389491021643" style="fill: none; stroke: #e45756; stroke-width: 4; opacity: 0.5;"></path></g></g><path class="foreground" aria-hidden="true" d="" style="display: none; fill: none;"></path></g><g transform="translate(0,0)"><path class="background" aria-hidden="true" d="M0,0h650v800h-650Z" style="fill: none;"></path><g><g class="mark-line role-mark layer_0_layer_1_marks" role="graphics-symbol" aria-roledescription="line mark container" style="pointer-events: none;"><path d="M0,794.8337624216532L16.25,794.8337624216532L32.5,793.8005149059838L48.75,792.7672673903145L65,790.7007723589758L81.25,788.634277327637L97.5,785.534534780629L113.74999999999999,785.534534780629L130,778.3018021709435L146.25,778.3018021709435L162.5,773.1355645925967L178.75000000000003,766.9360794985804L195,765.902831982911L211.25,764.8695844672418L227.49999999999997,763.8363369515724L243.75,760.7365944045644L260,755.5703568262176L276.25,745.2378816695239L292.5,711.1407136524351L308.75,701.8414860114108L325,682.209783213693L341.25,673.9438030883381L357.50000000000006,663.6113279316445" style="fill: none; stroke: #72b7b2; stroke-width: 4; opacity: 0.5;"></path></g></g><path class="foreground" aria-hidden="true" d="" style="display: none; fill: none;"></path></g><g transform="translate(0,0)"><path class="background" aria-hidden="true" d="M0,0h650v800h-650Z" style="fill: none;"></path><g><g class="mark-line role-mark layer_0_layer_1_marks" role="graphics-symbol" aria-roledescription="line mark container" style="pointer-events: none;"><path d="M0,784.5146203138372L16.25,775.6658319217441L32.5,775.6658319217441L48.75,771.2414377256977L65,771.2414377256977L81.25,764.604846431628L97.5,753.5438609415116L113.74999999999999,746.9072696474418L130,742.4828754513953L146.25,738.0584812553489L162.5,735.8462841573256L178.75000000000003,729.2096928632558L195,726.9974957652325L211.25,713.724313177093L227.49999999999997,711.5121160790699L243.75,702.6633276869768L260,698.2389334909302L276.25,691.6023421968605L292.5,689.3901450988373L308.75,682.7535538047675L325,673.9047654126745" style="fill: none; stroke: #54a24b; stroke-width: 4; opacity: 0.5;"></path></g></g><path class="foreground" aria-hidden="true" d="" style="display: none; fill: none;"></path></g><g transform="translate(0,0)"><path class="background" aria-hidden="true" d="M0,0h650v800h-650Z" style="fill: none;"></path><g><g class="mark-line role-mark layer_0_layer_1_marks" role="graphics-symbol" aria-roledescription="line mark container" style="pointer-events: none;"><path d="M0,795.3495747343046L16.25,795.3495747343046L32.5,794.4194896811656L48.75,794.4194896811656L65,792.5593195748875L81.25,791.6292345217483L97.5,790.6991494686092L113.74999999999999,786.978809256053L130,780.4682138840794L146.25,772.0974484058278L162.5,768.3771081932715L178.75000000000003,757.2160875556027L195,747.9152370242119L211.25,739.5444715459603L227.49999999999997,733.0338761739868L243.75,720.9427704831788L260,705.1313245798145L276.25,693.0402188890067L292.5,666.9978374011126L308.75,651.1863914977484L325,627.0041801161325L341.25,609.33256410649L357.50000000000006,599.1016285219603L373.74999999999994,582.3600975654571L390,558.1778861838411L406.25,537.7160150147815L422.5,509.81346342060937L438.75000000000006,472.6100612950464L454.99999999999994,445.6375947540133L471.25,414.0147029472849L487.5,381.4617260874174L503.75,327.51679300535113" style="fill: none; stroke: #eeca3b; stroke-width: 4; opacity: 0.5;"></path></g></g><path class="foreground" aria-hidden="true" d="" style="display: none; fill: none;"></path></g><g transform="translate(0,0)"><path class="background" aria-hidden="true" d="M0,0h650v800h-650Z" style="fill: none;"></path><g><g class="mark-line role-mark layer_0_layer_1_marks" role="graphics-symbol" aria-roledescription="line mark container" style="pointer-events: none;"><path d="M0,786.4218263980945L16.25,783.7061916777134L32.5,780.9905569573323L48.75,780.9905569573323L65,780.9905569573323L81.25,780.9905569573323L97.5,778.2749222369512L113.74999999999999,778.2749222369512L130,778.2749222369512L146.25,778.2749222369512L162.5,775.55928751657L178.75000000000003,772.843652796189L195,767.4123833554268L211.25,761.9811139146644L227.49999999999997,759.2654791942834L243.75,759.2654791942834L260,756.5498444739023L276.25,753.8342097535212L292.5,751.1185750331401L308.75,745.6873055923778L325,742.9716708719967L341.25,734.8247667108534" style="fill: none; stroke: #b279a2; stroke-width: 4; opacity: 0.5;"></path></g></g><path class="foreground" aria-hidden="true" d="" style="display: none; fill: none;"></path></g><g transform="translate(0,0)"><path class="background" aria-hidden="true" d="M0,0h650v800h-650Z" style="fill: none;"></path><g><g class="mark-line role-mark layer_0_layer_1_marks" role="graphics-symbol" aria-roledescription="line mark container" style="pointer-events: none;"><path d="M0,796.1129428382104L16.25,794.5581199734945L32.5,792.2258856764207L48.75,789.116239946989L65,788.3388285146312L81.25,786.7840056499153L97.5,781.3421256234099L113.74999999999999,779.787302758694L130,779.0098913263362L146.25,775.9002455969045L162.5,774.3454227321886L178.75000000000003,769.6809541380411L195,768.1261312733252L211.25,766.5713084086094L227.49999999999997,765.7938969762514L243.75,761.9068398144618L260,759.574605517388L276.25,758.7971940850301L292.5,757.2423712203143L308.75,753.3553140585246L325,751.8004911938089L341.25,747.9134340320192L357.50000000000006,744.8037883025876L373.74999999999994,741.6941425731558L390,740.13931970844L406.25,738.5844968437242" style="fill: none; stroke: #ff9da6; stroke-width: 4; opacity: 0.5;"></path></g></g><path class="foreground" aria-hidden="true" d="" style="display: none; fill: none;"></path></g><g transform="translate(0,0)"><path class="background" aria-hidden="true" d="M0,0h650v800h-650Z" style="fill: none;"></path><g><g class="mark-line role-mark layer_0_layer_1_marks" role="graphics-symbol" aria-roledescription="line mark container" style="pointer-events: none;"><path d="M0,796.9108885367688L16.25,795.8811847156917L32.5,795.3663328051532L48.75,794.8514808946147L65,793.306925162999L81.25,791.2475175208449L97.5,790.7326656103064L113.74999999999999,788.1584060576137L130,785.584146504921L146.25,778.8910716679201L162.5,775.8019602046888L178.75000000000003,770.138589188765L195,767.0494777255338L211.25,763.4455143517641L227.49999999999997,754.1781799620705L243.75,745.4256974829154L260,737.1880669142989L276.25,724.3167691508355L292.5,720.1979538665272L308.75,712.4751752084492L325,706.2969522819868L341.25,684.6731720393683L357.50000000000006,663.5642437072885L373.74999999999994,645.0295749279013L390,624.4354985063599L406.25,600.7523106215873L422.5,593.0295319635093L438.75000000000006,582.7324937527386L454.99999999999994,562.6532692417359L471.25,547.7225638361183L487.5,527.128487414577L503.75,506.5344109930356L520,483.36607501880155L536.25,467.92051770264555L552.5,451.4452565654125L568.75,420.03929002256194" style="fill: none; stroke: #9d755d; stroke-width: 4; opacity: 0.5;"></path></g></g><path class="foreground" aria-hidden="true" d="" style="display: none; fill: none;"></path></g><g transform="translate(0,0)"><path class="background" aria-hidden="true" d="M0,0h650v800h-650Z" style="fill: none;"></path><g><g class="mark-line role-mark layer_0_layer_1_marks" role="graphics-symbol" aria-roledescription="line mark container" style="pointer-events: none;"><path d="M0,784.7916826472814L16.25,782.2569630884949L32.5,782.2569630884949L48.75,779.7222435297085L65,772.1180848533492L81.25,772.1180848533492L97.5,772.1180848533492L113.74999999999999,767.0486457357764L130,756.9097675006307L146.25,754.3750479418441L162.5,751.8403283830577L178.75000000000003,749.3056088242713L195,741.7014501479119L211.25,739.1667305891256L227.49999999999997,734.0972914715527L243.75,731.5625719127662L260,729.0278523539798L276.25,726.4931327951933L292.5,713.8195350012612L308.75,703.6806567661154L325,698.6112176485426L341.25,688.4723394133969L357.50000000000006,685.9376198546104L373.74999999999994,678.3334611782511L390,663.1251438255324" style="fill: none; stroke: #bab0ac; stroke-width: 4; opacity: 0.5;"></path></g></g><path class="foreground" aria-hidden="true" d="" style="display: none; fill: none;"></path></g><g transform="translate(0,0)"><path class="background" aria-hidden="true" d="M0,0h650v800h-650Z" style="fill: none;"></path><g><g class="mark-line role-mark layer_0_layer_1_marks" role="graphics-symbol" aria-roledescription="line mark container" style="pointer-events: none;"><path d="M0,774.992224144695L16.25,774.992224144695L32.5,774.992224144695L48.75,769.990668973634L65,764.989113802573L81.25,749.98444828939L97.5,749.98444828939L113.74999999999999,744.982893118329" style="fill: none; stroke: #4c78a8; stroke-width: 4; opacity: 0.5;"></path></g></g><path class="foreground" aria-hidden="true" d="" style="display: none; fill: none;"></path></g><g transform="translate(0,0)"><path class="background" aria-hidden="true" d="M0,0h650v800h-650Z" style="fill: none;"></path><g><g class="mark-line role-mark layer_0_layer_1_marks" role="graphics-symbol" aria-roledescription="line mark container" style="pointer-events: none;"><path d="M0,796.09356501657L16.25,796.09356501657L32.5,795.3122780198839L48.75,794.530991023198L65,794.530991023198L81.25,793.749704026512L97.5,793.749704026512L113.74999999999999,792.18713003314L130,789.0619820463959L146.25,788.28069504971L162.5,787.4994080530239L178.75000000000003,787.4994080530239L195,786.7181210563378L211.25,785.9368340596519L227.49999999999997,785.1555470629659L243.75,783.5929730695939L260,781.249112079536L276.25,781.249112079536L292.5,779.6865380861639L308.75,778.9052510894779L325,778.9052510894779L341.25,778.1239640927918L357.50000000000006,777.3426770961058L373.74999999999994,773.4362421126758L390,772.6549551159899L406.25,770.3110941259318L422.5,764.8420851491297L438.75000000000006,761.7169371623858" style="fill: none; stroke: #f58518; stroke-width: 4; opacity: 0.5;"></path></g></g><path class="foreground" aria-hidden="true" d="" style="display: none; fill: none;"></path></g><g transform="translate(0,0)"><path class="background" aria-hidden="true" d="M0,0h650v800h-650Z" style="fill: none;"></path><g><g class="mark-line role-mark layer_0_layer_1_marks" role="graphics-symbol" aria-roledescription="line mark container" style="pointer-events: none;"><path d="M0,793.7968235146045L16.25,793.7968235146045L32.5,787.5936470292088L48.75,787.5936470292088L65,786.3530117321297L81.25,781.3904705438133L97.5,778.9091999496551L113.74999999999999,777.6685646525759L130,777.6685646525759L146.25,773.9466587613385L162.5,770.2247528701012L178.75000000000003,767.7434822759429L195,765.2622116817847L211.25,764.0215763847057L227.49999999999997,762.7809410876265L243.75,761.5403057905473L260,760.2996704934683L276.25,756.5777646022309L292.5,756.5777646022309L308.75,754.0964940080727L325,751.6152234139145L341.25,747.8933175226771L357.50000000000006,747.8933175226771L373.74999999999994,747.8933175226771L390,746.652682225598L406.25,745.4120469285189L422.5,745.4120469285189" style="fill: none; stroke: #e45756; stroke-width: 4; opacity: 0.5;"></path></g></g><path class="foreground" aria-hidden="true" d="" style="display: none; fill: none;"></path></g><g transform="translate(0,0)"><path class="background" aria-hidden="true" d="M0,0h650v800h-650Z" style="fill: none;"></path><g><g class="mark-line role-mark layer_0_layer_1_marks" role="graphics-symbol" aria-roledescription="line mark container" style="pointer-events: none;"><path d="M0,780.6653666059173L16.25,780.6653666059173L32.5,780.6653666059173L48.75,772.9315132482841L65,772.9315132482841L81.25,769.0645865694676L97.5,769.0645865694676L113.74999999999999,765.197659890651L130,765.197659890651L146.25,757.463806533018L162.5,757.463806533018" style="fill: none; stroke: #72b7b2; stroke-width: 4; opacity: 0.5;"></path></g></g><path class="foreground" aria-hidden="true" d="" style="display: none; fill: none;"></path></g><g transform="translate(0,0)"><path class="background" aria-hidden="true" d="M0,0h650v800h-650Z" style="fill: none;"></path><g><g class="mark-line role-mark layer_0_layer_1_marks" role="graphics-symbol" aria-roledescription="line mark container" style="pointer-events: none;"><path d="M0,799.0321131336051L16.25,798.2578036404892L32.5,797.0963394008153L48.75,795.7412977878624L65,794.1926788016306L81.25,792.2569050688406L97.5,790.7082860826089L113.74999999999999,788.772512349819L130,786.8367386170293L146.25,783.7395006445655L162.5,781.0294174186597L178.75000000000003,778.125756819475L195,773.6734772340584L211.25,768.2533107822469L227.49999999999997,763.6074538235513L243.75,757.6065552519028L260,749.6698829474645L276.25,746.7662223482798L292.5,741.1524785231893L308.75,728.1827945134975L325,717.1488842365954L341.25,703.9856228536247L357.50000000000006,695.4682184293495L373.74999999999994,691.5966709637698L390,686.1765045119582L406.25,682.3049570463786L422.5,665.4637255711071L438.75000000000006,649.3968035889516L454.99999999999994,634.8785005930279L471.25,620.3601975971043L487.5,608.1648230805283L503.75,603.5189661218328L520,599.2602639096951L536.25,588.419931006072L552.5,580.4832587016339L568.75,539.6384329397686L585,507.3110116021784L601.25,477.3065187439362L617.5,470.9184654257298L633.75,446.72129376585696L650,403.3599621513648" style="fill: none; stroke: #54a24b; stroke-width: 4; opacity: 0.5;"></path></g></g><path class="foreground" aria-hidden="true" d="" style="display: none; fill: none;"></path></g></g><g class="mark-text role-mark layer_0_layer_2_marks" role="graphics-object" aria-roledescription="text mark container" style="pointer-events: none;"><text text-anchor="start" transform="translate(200,643.7384305847685)" style="font-family: sans-serif; font-size: 15px; fill: #4c78a8;">AC</text><text text-anchor="start" transform="translate(216.25,709.115741887967)" style="font-family: sans-serif; font-size: 15px; fill: #f58518;">AL</text><text text-anchor="start" transform="translate(411.25,52.212696433453075)" style="font-family: sans-serif; font-size: 15px; fill: #e45756;">AM</text><text text-anchor="start" transform="translate(281.25,510.71152188001986)" style="font-family: sans-serif; font-size: 15px; fill: #72b7b2;">AP</text><text text-anchor="start" transform="translate(411.25,749.4185363105634)" style="font-family: sans-serif; font-size: 15px; fill: #54a24b;">BA</text><text text-anchor="start" transform="translate(492.5,399.1047955715373)" style="font-family: sans-serif; font-size: 15px; fill: #eeca3b;">CE</text><text text-anchor="start" transform="translate(427.5,722.4571252409773)" style="font-family: sans-serif; font-size: 15px; fill: #b279a2;">DF</text><text text-anchor="start" transform="translate(411.25,634.6829919389734)" style="font-family: sans-serif; font-size: 15px; fill: #ff9da6;">ES</text><text text-anchor="start" transform="translate(362.50000000000006,770.8039477632504)" style="font-family: sans-serif; font-size: 15px; fill: #9d755d;">GO</text><text text-anchor="start" transform="translate(346.25,596.4462463143267)" style="font-family: sans-serif; font-size: 15px; fill: #bab0ac;">MA</text><text text-anchor="start" transform="translate(411.25,775.1867191607158)" style="font-family: sans-serif; font-size: 15px; fill: #4c78a8;">MG</text><text text-anchor="start" transform="translate(200,776.2125214016911)" style="font-family: sans-serif; font-size: 15px; fill: #f58518;">MS</text><text text-anchor="start" transform="translate(200,776.9389491021643)" style="font-family: sans-serif; font-size: 15px; fill: #e45756;">MT</text><text text-anchor="start" transform="translate(362.50000000000006,668.6113279316445)" style="font-family: sans-serif; font-size: 15px; fill: #72b7b2;">PA</text><text text-anchor="start" transform="translate(330,678.9047654126745)" style="font-family: sans-serif; font-size: 15px; fill: #54a24b;">PB</text><text text-anchor="start" transform="translate(508.75,332.51679300535113)" style="font-family: sans-serif; font-size: 15px; fill: #eeca3b;">PE</text><text text-anchor="start" transform="translate(346.25,739.8247667108534)" style="font-family: sans-serif; font-size: 15px; fill: #b279a2;">PI</text><text text-anchor="start" transform="translate(411.25,743.5844968437242)" style="font-family: sans-serif; font-size: 15px; fill: #ff9da6;">PR</text><text text-anchor="start" transform="translate(573.75,425.03929002256194)" style="font-family: sans-serif; font-size: 15px; fill: #9d755d;">RJ</text><text text-anchor="start" transform="translate(395,668.1251438255324)" style="font-family: sans-serif; font-size: 15px; fill: #bab0ac;">RN</text><text text-anchor="start" transform="translate(118.74999999999999,749.982893118329)" style="font-family: sans-serif; font-size: 15px; fill: #4c78a8;">RO</text><text text-anchor="start" transform="translate(443.75000000000006,766.7169371623858)" style="font-family: sans-serif; font-size: 15px; fill: #f58518;">RS</text><text text-anchor="start" transform="translate(427.5,750.4120469285189)" style="font-family: sans-serif; font-size: 15px; fill: #e45756;">SC</text><text text-anchor="start" transform="translate(167.5,762.463806533018)" style="font-family: sans-serif; font-size: 15px; fill: #72b7b2;">SE</text><text text-anchor="start" transform="translate(655,408.3599621513648)" style="font-family: sans-serif; font-size: 15px; fill: #54a24b;">SP</text></g><g class="mark-group role-title"><g transform="translate(325,-34)"><path class="background" aria-hidden="true" d="M0,0h0v0h0Z" style="pointer-events: none; fill: none;"></path><g><g class="mark-text role-title-text" role="graphics-symbol" aria-roledescription="title" aria-label="Title text 'Mortes confirmadas pelo COVID-19 a cada 100 mil habitantes'" style="pointer-events: none;"><text text-anchor="middle" transform="translate(0,18)" style="font-family: sans-serif; font-size: 23px; font-weight: bold; fill: #000; opacity: 1;">Mortes confirmadas pelo COVID-19 a cada 100 mil habitantes</text></g></g><path class="foreground" aria-hidden="true" d="" style="pointer-events: none; display: none; fill: none;"></path></g></g></g><path class="foreground" aria-hidden="true" d="" style="display: none; fill: none;"></path></g></g></g></svg>