<svg class="marks" width="732" height="890" viewBox="0 0 732 890" version="1.1" xmlns="http://www.w3.org/2000/svg" xmlns:xlink="http://www.w3.org/1999/xlink"><rect width="732" height="890" style="fill: white;"></rect><g transform="translate(66,39)"><g class="mark-group role-frame root" role="graphics-object" aria-roledescription="group mark container"><g transform="translate(0,0)"><path class="background" aria-hidden="true" d="M0.5,0.5h650v800h-650Z" style="fill: none; stroke: #ddd;"></path><g><g class="mark-group role-axis" role="graphics-symbol" aria-roledescription="axis" aria-label="X-axis for a linear scale with values from 0 to 45"><g transform="translate(0.5,800.5)"><path class="background" aria-hidden="true" d="M0,0h0v0h0Z" style="pointer-events: none; fill: none;"></path><g><g class="mark-rule role-axis-grid" style="pointer-events: none;"><line transform="translate(0,-800)" x2="0" y2="800" style="fill: none; stroke: #ddd; stroke-width: 1; opacity: 1;"></line><line transform="translate(29,-800)" x2="0" y2="800" style="fill: none; stroke: #ddd; stroke-width: 1; opacity: 1;"></line><line transform="translate(58,-800)" x2="0" y2="800" style="fill: none; stroke: #ddd; stroke-width: 1; opacity: 1;"></line><line transform="translate(87,-800)" x2="0" y2="800" style="fill: none; stroke: #ddd; stroke-width: 1; opacity: 1;"></line><line transform="translate(116,-800)" x2="0" y2="800" style="fill: none; stroke: #ddd; stroke-width: 1; opacity: 1;"></line><line transform="translate(144,-800)" x2="0" y2="800" style="fill: none; stroke: #ddd; stroke-width: 1; opacity: 1;"></line><line transform="translate(173,-800)" x2="0" y2="800" style="fill: none; stroke: #ddd; stroke-width: 1; opacity: 1;"></line><line transform="translate(202,-800)" x2="0" y2="800" style="fill: none; stroke: #ddd; stroke-width: 1; opacity: 1;"></line><line transform="translate(231,-800)" x2="0" y2="800" style="fill: none; stroke: #ddd; stroke-width: 1; opacity: 1;"></line><line transform="translate(260,-800)" x2="0" y2="800" style="fill: none; stroke: #ddd; stroke-width: 1; opacity: 1;"></line><line transform="translate(289,-800)" x2="0" y2="800" style="fill: none; stroke: #ddd; stroke-width: 1; opacity: 1;"></line><line transform="translate(318,-800)" x2="0" y2="800" style="fill: none; stroke: #ddd; stroke-width: 1; opacity: 1;"></line><line transform="translate(347,-800)" x2="0" y2="800" style="fill: none; stroke: #ddd; stroke-width: 1; opacity: 1;"></line><line transform="translate(376,-800)" x2="0" y2="800" style="fill: none; stroke: #ddd; stroke-width: 1; opacity: 1;"></line><line transform="translate(404,-800)" x2="0" y2="800" style="fill: none; stroke: #ddd; stroke-width: 1; opacity: 1;"></line><line transform="translate(433,-800)" x2="0" y2="800" style="fill: none; stroke: #ddd; stroke-width: 1; opacity: 1;"></line><line transform="translate(462,-800)" x2="0" y2="800" style="fill: none; stroke: #ddd; stroke-width: 1; opacity: 1;"></line><line transform="translate(491,-800)" x2="0" y2="800" style="fill: none; stroke: #ddd; stroke-width: 1; opacity: 1;"></line><line transform="translate(520,-800)" x2="0" y2="800" style="fill: none; stroke: #ddd; stroke-width: 1; opacity: 1;"></line><line transform="translate(549,-800)" x2="0" y2="800" style="fill: none; stroke: #ddd; stroke-width: 1; opacity: 1;"></line><line transform="translate(578,-800)" x2="0" y2="800" style="fill: none; stroke: #ddd; stroke-width: 1; opacity: 1;"></line><line transform="translate(607,-800)" x2="0" y2="800" style="fill: none; stroke: #ddd; stroke-width: 1; opacity: 1;"></line><line transform="translate(636,-800)" x2="0" y2="800" style="fill: none; stroke: #ddd; stroke-width: 1; opacity: 1;"></line></g></g><path class="foreground" aria-hidden="true" d="" style="pointer-events: none; display: none; fill: none;"></path></g></g><g class="mark-group role-axis" role="graphics-symbol" aria-roledescription="axis" aria-label="Y-axis for a linear scale with values from 0 to 13"><g transform="translate(0.5,0.5)"><path class="background" aria-hidden="true" d="M0,0h0v0h0Z" style="pointer-events: none; fill: none;"></path><g><g class="mark-rule role-axis-grid" style="pointer-events: none;"><line transform="translate(0,800)" x2="650" y2="0" style="fill: none; stroke: #ddd; stroke-width: 1; opacity: 1;"></line><line transform="translate(0,769)" x2="650" y2="0" style="fill: none; stroke: #ddd; stroke-width: 1; opacity: 1;"></line><line transform="translate(0,738)" x2="650" y2="0" style="fill: none; stroke: #ddd; stroke-width: 1; opacity: 1;"></line><line transform="translate(0,708)" x2="650" y2="0" style="fill: none; stroke: #ddd; stroke-width: 1; opacity: 1;"></line><line transform="translate(0,677)" x2="650" y2="0" style="fill: none; stroke: #ddd; stroke-width: 1; opacity: 1;"></line><line transform="translate(0,646)" x2="650" y2="0" style="fill: none; stroke: #ddd; stroke-width: 1; opacity: 1;"></line><line transform="translate(0,615)" x2="650" y2="0" style="fill: none; stroke: #ddd; stroke-width: 1; opacity: 1;"></line><line transform="translate(0,585)" x2="650" y2="0" style="fill: none; stroke: #ddd; stroke-width: 1; opacity: 1;"></line><line transform="translate(0,554)" x2="650" y2="0" style="fill: none; stroke: #ddd; stroke-width: 1; opacity: 1;"></line><line transform="translate(0,523)" x2="650" y2="0" style="fill: none; stroke: #ddd; stroke-width: 1; opacity: 1;"></line><line transform="translate(0,492)" x2="650" y2="0" style="fill: none; stroke: #ddd; stroke-width: 1; opacity: 1;"></line><line transform="translate(0,462)" x2="650" y2="0" style="fill: none; stroke: #ddd; stroke-width: 1; opacity: 1;"></line><line transform="translate(0,431)" x2="650" y2="0" style="fill: none; stroke: #ddd; stroke-width: 1; opacity: 1;"></line><line transform="translate(0,400)" x2="650" y2="0" style="fill: none; stroke: #ddd; stroke-width: 1; opacity: 1;"></line><line transform="translate(0,369)" x2="650" y2="0" style="fill: none; stroke: #ddd; stroke-width: 1; opacity: 1;"></line><line transform="translate(0,338)" x2="650" y2="0" style="fill: none; stroke: #ddd; stroke-width: 1; opacity: 1;"></line><line transform="translate(0,308)" x2="650" y2="0" style="fill: none; stroke: #ddd; stroke-width: 1; opacity: 1;"></line><line transform="translate(0,277)" x2="650" y2="0" style="fill: none; stroke: #ddd; stroke-width: 1; opacity: 1;"></line><line transform="translate(0,246)" x2="650" y2="0" style="fill: none; stroke: #ddd; stroke-width: 1; opacity: 1;"></line><line transform="translate(0,215)" x2="650" y2="0" style="fill: none; stroke: #ddd; stroke-width: 1; opacity: 1;"></line><line transform="translate(0,185)" x2="650" y2="0" style="fill: none; stroke: #ddd; stroke-width: 1; opacity: 1;"></line><line transform="translate(0,154)" x2="650" y2="0" style="fill: none; stroke: #ddd; stroke-width: 1; opacity: 1;"></line><line transform="translate(0,123)" x2="650" y2="0" style="fill: none; stroke: #ddd; stroke-width: 1; opacity: 1;"></line><line transform="translate(0,92)" x2="650" y2="0" style="fill: none; stroke: #ddd; stroke-width: 1; opacity: 1;"></line><line transform="translate(0,62)" x2="650" y2="0" style="fill: none; stroke: #ddd; stroke-width: 1; opacity: 1;"></line><line transform="translate(0,31)" x2="650" y2="0" style="fill: none; stroke: #ddd; stroke-width: 1; opacity: 1;"></line><line transform="translate(0,0)" x2="650" y2="0" style="fill: none; stroke: #ddd; stroke-width: 1; opacity: 1;"></line></g></g><path class="foreground" aria-hidden="true" d="" style="pointer-events: none; display: none; fill: none;"></path></g></g><g class="mark-group role-axis" role="graphics-symbol" aria-roledescription="axis" aria-label="X-axis titled 'Dias a partir da 5a morte no estado' for a linear scale with values from 0 to 45"><g transform="translate(0.5,800.5)"><path class="background" aria-hidden="true" d="M0,0h0v0h0Z" style="pointer-events: none; fill: none;"></path><g><g class="mark-rule role-axis-tick" style="pointer-events: none;"><line transform="translate(0,0)" x2="0" y2="5" style="fill: none; stroke: #888; stroke-width: 1; opacity: 1;"></line><line transform="translate(29,0)" x2="0" y2="5" style="fill: none; stroke: #888; stroke-width: 1; opacity: 1;"></line><line transform="translate(58,0)" x2="0" y2="5" style="fill: none; stroke: #888; stroke-width: 1; opacity: 1;"></line><line transform="translate(87,0)" x2="0" y2="5" style="fill: none; stroke: #888; stroke-width: 1; opacity: 1;"></line><line transform="translate(116,0)" x2="0" y2="5" style="fill: none; stroke: #888; stroke-width: 1; opacity: 1;"></line><line transform="translate(144,0)" x2="0" y2="5" style="fill: none; stroke: #888; stroke-width: 1; opacity: 1;"></line><line transform="translate(173,0)" x2="0" y2="5" style="fill: none; stroke: #888; stroke-width: 1; opacity: 1;"></line><line transform="translate(202,0)" x2="0" y2="5" style="fill: none; stroke: #888; stroke-width: 1; opacity: 1;"></line><line transform="translate(231,0)" x2="0" y2="5" style="fill: none; stroke: #888; stroke-width: 1; opacity: 1;"></line><line transform="translate(260,0)" x2="0" y2="5" style="fill: none; stroke: #888; stroke-width: 1; opacity: 1;"></line><line transform="translate(289,0)" x2="0" y2="5" style="fill: none; stroke: #888; stroke-width: 1; opacity: 1;"></line><line transform="translate(318,0)" x2="0" y2="5" style="fill: none; stroke: #888; stroke-width: 1; opacity: 1;"></line><line transform="translate(347,0)" x2="0" y2="5" style="fill: none; stroke: #888; stroke-width: 1; opacity: 1;"></line><line transform="translate(376,0)" x2="0" y2="5" style="fill: none; stroke: #888; stroke-width: 1; opacity: 1;"></line><line transform="translate(404,0)" x2="0" y2="5" style="fill: none; stroke: #888; stroke-width: 1; opacity: 1;"></line><line transform="translate(433,0)" x2="0" y2="5" style="fill: none; stroke: #888; stroke-width: 1; opacity: 1;"></line><line transform="translate(462,0)" x2="0" y2="5" style="fill: none; stroke: #888; stroke-width: 1; opacity: 1;"></line><line transform="translate(491,0)" x2="0" y2="5" style="fill: none; stroke: #888; stroke-width: 1; opacity: 1;"></line><line transform="translate(520,0)" x2="0" y2="5" style="fill: none; stroke: #888; stroke-width: 1; opacity: 1;"></line><line transform="translate(549,0)" x2="0" y2="5" style="fill: none; stroke: #888; stroke-width: 1; opacity: 1;"></line><line transform="translate(578,0)" x2="0" y2="5" style="fill: none; stroke: #888; stroke-width: 1; opacity: 1;"></line><line transform="translate(607,0)" x2="0" y2="5" style="fill: none; stroke: #888; stroke-width: 1; opacity: 1;"></line><line transform="translate(636,0)" x2="0" y2="5" style="fill: none; stroke: #888; stroke-width: 1; opacity: 1;"></line></g><g class="mark-text role-axis-label" style="pointer-events: none;"><text text-anchor="start" transform="translate(0,19)" style="font-family: sans-serif; font-size: 15px; fill: #000; opacity: 1;">0</text><text text-anchor="middle" transform="translate(28.88888888888889,19)" style="font-family: sans-serif; font-size: 15px; fill: #000; opacity: 1;">2</text><text text-anchor="middle" transform="translate(57.77777777777778,19)" style="font-family: sans-serif; font-size: 15px; fill: #000; opacity: 1;">4</text><text text-anchor="middle" transform="translate(86.66666666666667,19)" style="font-family: sans-serif; font-size: 15px; fill: #000; opacity: 1;">6</text><text text-anchor="middle" transform="translate(115.55555555555556,19)" style="font-family: sans-serif; font-size: 15px; fill: #000; opacity: 1;">8</text><text text-anchor="middle" transform="translate(144.44444444444443,19)" style="font-family: sans-serif; font-size: 15px; fill: #000; opacity: 1;">10</text><text text-anchor="middle" transform="translate(173.33333333333334,19)" style="font-family: sans-serif; font-size: 15px; fill: #000; opacity: 1;">12</text><text text-anchor="middle" transform="translate(202.22222222222223,19)" style="font-family: sans-serif; font-size: 15px; fill: #000; opacity: 1;">14</text><text text-anchor="middle" transform="translate(231.11111111111111,19)" style="font-family: sans-serif; font-size: 15px; fill: #000; opacity: 1;">16</text><text text-anchor="middle" transform="translate(260,19)" style="font-family: sans-serif; font-size: 15px; fill: #000; opacity: 1;">18</text><text text-anchor="middle" transform="translate(288.88888888888886,19)" style="font-family: sans-serif; font-size: 15px; fill: #000; opacity: 1;">20</text><text text-anchor="middle" transform="translate(317.77777777777777,19)" style="font-family: sans-serif; font-size: 15px; fill: #000; opacity: 1;">22</text><text text-anchor="middle" transform="translate(346.6666666666667,19)" style="font-family: sans-serif; font-size: 15px; fill: #000; opacity: 1;">24</text><text text-anchor="middle" transform="translate(375.55555555555554,19)" style="font-family: sans-serif; font-size: 15px; fill: #000; opacity: 1;">26</text><text text-anchor="middle" transform="translate(404.44444444444446,19)" style="font-family: sans-serif; font-size: 15px; fill: #000; opacity: 1;">28</text><text text-anchor="middle" transform="translate(433.3333333333333,19)" style="font-family: sans-serif; font-size: 15px; fill: #000; opacity: 1;">30</text><text text-anchor="middle" transform="translate(462.22222222222223,19)" style="font-family: sans-serif; font-size: 15px; fill: #000; opacity: 1;">32</text><text text-anchor="middle" transform="translate(491.1111111111111,19)" style="font-family: sans-serif; font-size: 15px; fill: #000; opacity: 1;">34</text><text text-anchor="middle" transform="translate(520,19)" style="font-family: sans-serif; font-size: 15px; fill: #000; opacity: 1;">36</text><text text-anchor="middle" transform="translate(548.8888888888889,19)" style="font-family: sans-serif; font-size: 15px; fill: #000; opacity: 1;">38</text><text text-anchor="middle" transform="translate(577.7777777777777,19)" style="font-family: sans-serif; font-size: 15px; fill: #000; opacity: 1;">40</text><text text-anchor="middle" transform="translate(606.6666666666666,19)" style="font-family: sans-serif; font-size: 15px; fill: #000; opacity: 1;">42</text><text text-anchor="middle" transform="translate(635.5555555555555,19)" style="font-family: sans-serif; font-size: 15px; fill: #000; opacity: 1;">44</text></g><g class="mark-rule role-axis-domain" style="pointer-events: none;"><line transform="translate(0,0)" x2="650" y2="0" style="fill: none; stroke: #888; stroke-width: 1; opacity: 1;"></line></g><g class="mark-text role-axis-title" style="pointer-events: none;"><text text-anchor="middle" transform="translate(325,42)" style="font-family: sans-serif; font-size: 20px; font-weight: bold; fill: #000; opacity: 1;">Dias a partir da 5a morte no estado</text></g></g><path class="foreground" aria-hidden="true" d="" style="pointer-events: none; display: none; fill: none;"></path></g></g><g class="mark-group role-axis" role="graphics-symbol" aria-roledescription="axis" aria-label="Y-axis titled 'Mortes a cada 100 mil habitantes' for a linear scale with values from 0 to 13"><g transform="translate(0.5,0.5)"><path class="background" aria-hidden="true" d="M0,0h0v0h0Z" style="pointer-events: none; fill: none;"></path><g><g class="mark-rule role-axis-tick" style="pointer-events: none;"><line transform="translate(0,800)" x2="-5" y2="0" style="fill: none; stroke: #888; stroke-width: 1; opacity: 1;"></line><line transform="translate(0,769)" x2="-5" y2="0" style="fill: none; stroke: #888; stroke-width: 1; opacity: 1;"></line><line transform="translate(0,738)" x2="-5" y2="0" style="fill: none; stroke: #888; stroke-width: 1; opacity: 1;"></line><line transform="translate(0,708)" x2="-5" y2="0" style="fill: none; stroke: #888; stroke-width: 1; opacity: 1;"></line><line transform="translate(0,677)" x2="-5" y2="0" style="fill: none; stroke: #888; stroke-width: 1; opacity: 1;"></line><line transform="translate(0,646)" x2="-5" y2="0" style="fill: none; stroke: #888; stroke-width: 1; opacity: 1;"></line><line transform="translate(0,615)" x2="-5" y2="0" style="fill: none; stroke: #888; stroke-width: 1; opacity: 1;"></line><line transform="translate(0,585)" x2="-5" y2="0" style="fill: none; stroke: #888; stroke-width: 1; opacity: 1;"></line><line transform="translate(0,554)" x2="-5" y2="0" style="fill: none; stroke: #888; stroke-width: 1; opacity: 1;"></line><line transform="translate(0,523)" x2="-5" y2="0" style="fill: none; stroke: #888; stroke-width: 1; opacity: 1;"></line><line transform="translate(0,492)" x2="-5" y2="0" style="fill: none; stroke: #888; stroke-width: 1; opacity: 1;"></line><line transform="translate(0,462)" x2="-5" y2="0" style="fill: none; stroke: #888; stroke-width: 1; opacity: 1;"></line><line transform="translate(0,431)" x2="-5" y2="0" style="fill: none; stroke: #888; stroke-width: 1; opacity: 1;"></line><line transform="translate(0,400)" x2="-5" y2="0" style="fill: none; stroke: #888; stroke-width: 1; opacity: 1;"></line><line transform="translate(0,369)" x2="-5" y2="0" style="fill: none; stroke: #888; stroke-width: 1; opacity: 1;"></line><line transform="translate(0,338)" x2="-5" y2="0" style="fill: none; stroke: #888; stroke-width: 1; opacity: 1;"></line><line transform="translate(0,308)" x2="-5" y2="0" style="fill: none; stroke: #888; stroke-width: 1; opacity: 1;"></line><line transform="translate(0,277)" x2="-5" y2="0" style="fill: none; stroke: #888; stroke-width: 1; opacity: 1;"></line><line transform="translate(0,246)" x2="-5" y2="0" style="fill: none; stroke: #888; stroke-width: 1; opacity: 1;"></line><line transform="translate(0,215)" x2="-5" y2="0" style="fill: none; stroke: #888; stroke-width: 1; opacity: 1;"></line><line transform="translate(0,185)" x2="-5" y2="0" style="fill: none; stroke: #888; stroke-width: 1; opacity: 1;"></line><line transform="translate(0,154)" x2="-5" y2="0" style="fill: none; stroke: #888; stroke-width: 1; opacity: 1;"></line><line transform="translate(0,123)" x2="-5" y2="0" style="fill: none; stroke: #888; stroke-width: 1; opacity: 1;"></line><line transform="translate(0,92)" x2="-5" y2="0" style="fill: none; stroke: #888; stroke-width: 1; opacity: 1;"></line><line transform="translate(0,62)" x2="-5" y2="0" style="fill: none; stroke: #888; stroke-width: 1; opacity: 1;"></line><line transform="translate(0,31)" x2="-5" y2="0" style="fill: none; stroke: #888; stroke-width: 1; opacity: 1;"></line><line transform="translate(0,0)" x2="-5" y2="0" style="fill: none; stroke: #888; stroke-width: 1; opacity: 1;"></line></g><g class="mark-text role-axis-label" style="pointer-events: none;"><text text-anchor="end" transform="translate(-7,805)" style="font-family: sans-serif; font-size: 15px; fill: #000; opacity: 1;">0.0</text><text text-anchor="end" transform="translate(-7,774.2307692307693)" style="font-family: sans-serif; font-size: 15px; fill: #000; opacity: 1;">0.5</text><text text-anchor="end" transform="translate(-7,743.4615384615385)" style="font-family: sans-serif; font-size: 15px; fill: #000; opacity: 1;">1.0</text><text text-anchor="end" transform="translate(-7,712.6923076923076)" style="font-family: sans-serif; font-size: 15px; fill: #000; opacity: 1;">1.5</text><text text-anchor="end" transform="translate(-7,681.9230769230769)" style="font-family: sans-serif; font-size: 15px; fill: #000; opacity: 1;">2.0</text><text text-anchor="end" transform="translate(-7,651.1538461538462)" style="font-family: sans-serif; font-size: 15px; fill: #000; opacity: 1;">2.5</text><text text-anchor="end" transform="translate(-7,620.3846153846154)" style="font-family: sans-serif; font-size: 15px; fill: #000; opacity: 1;">3.0</text><text text-anchor="end" transform="translate(-7,589.6153846153846)" style="font-family: sans-serif; font-size: 15px; fill: #000; opacity: 1;">3.5</text><text text-anchor="end" transform="translate(-7,558.8461538461538)" style="font-family: sans-serif; font-size: 15px; fill: #000; opacity: 1;">4.0</text><text text-anchor="end" transform="translate(-7,528.0769230769231)" style="font-family: sans-serif; font-size: 15px; fill: #000; opacity: 1;">4.5</text><text text-anchor="end" transform="translate(-7,497.3076923076923)" style="font-family: sans-serif; font-size: 15px; fill: #000; opacity: 1;">5.0</text><text text-anchor="end" transform="translate(-7,466.5384615384615)" style="font-family: sans-serif; font-size: 15px; fill: #000; opacity: 1;">5.5</text><text text-anchor="end" transform="translate(-7,435.7692307692308)" style="font-family: sans-serif; font-size: 15px; fill: #000; opacity: 1;">6.0</text><text text-anchor="end" transform="translate(-7,405)" style="font-family: sans-serif; font-size: 15px; fill: #000; opacity: 1;">6.5</text><text text-anchor="end" transform="translate(-7,374.2307692307692)" style="font-family: sans-serif; font-size: 15px; fill: #000; opacity: 1;">7.0</text><text text-anchor="end" transform="translate(-7,343.4615384615385)" style="font-family: sans-serif; font-size: 15px; fill: #000; opacity: 1;">7.5</text><text text-anchor="end" transform="translate(-7,312.6923076923077)" style="font-family: sans-serif; font-size: 15px; fill: #000; opacity: 1;">8.0</text><text text-anchor="end" transform="translate(-7,281.9230769230769)" style="font-family: sans-serif; font-size: 15px; fill: #000; opacity: 1;">8.5</text><text text-anchor="end" transform="translate(-7,251.15384615384616)" style="font-family: sans-serif; font-size: 15px; fill: #000; opacity: 1;">9.0</text><text text-anchor="end" transform="translate(-7,220.38461538461542)" style="font-family: sans-serif; font-size: 15px; fill: #000; opacity: 1;">9.5</text><text text-anchor="end" transform="translate(-7,189.61538461538458)" style="font-family: sans-serif; font-size: 15px; fill: #000; opacity: 1;">10.0</text><text text-anchor="end" transform="translate(-7,158.84615384615384)" style="font-family: sans-serif; font-size: 15px; fill: #000; opacity: 1;">10.5</text><text text-anchor="end" transform="translate(-7,128.0769230769231)" style="font-family: sans-serif; font-size: 15px; fill: #000; opacity: 1;">11.0</text><text text-anchor="end" transform="translate(-7,97.30769230769234)" style="font-family: sans-serif; font-size: 15px; fill: #000; opacity: 1;">11.5</text><text text-anchor="end" transform="translate(-7,66.53846153846149)" style="font-family: sans-serif; font-size: 15px; fill: #000; opacity: 1;">12.0</text><text text-anchor="end" transform="translate(-7,35.769230769230745)" style="font-family: sans-serif; font-size: 15px; fill: #000; opacity: 1;">12.5</text><text text-anchor="end" transform="translate(-7,5)" style="font-family: sans-serif; font-size: 15px; fill: #000; opacity: 1;">13.0</text></g><g class="mark-rule role-axis-domain" style="pointer-events: none;"><line transform="translate(0,800)" x2="0" y2="-800" style="fill: none; stroke: #888; stroke-width: 1; opacity: 1;"></line></g><g class="mark-text role-axis-title" style="pointer-events: none;"><text text-anchor="middle" transform="translate(-40.1943359375,400) rotate(-90) translate(0,-4)" style="font-family: sans-serif; font-size: 20px; font-weight: bold; fill: #000; opacity: 1;">Mortes a cada 100 mil habitantes</text></g></g><path class="foreground" aria-hidden="true" d="" style="pointer-events: none; display: none; fill: none;"></path></g></g><g class="mark-group role-scope layer_0_layer_0_pathgroup" role="graphics-object" aria-roledescription="group mark container"><g transform="translate(0,0)"><path class="background" aria-hidden="true" d="M0,0h650v800h-650Z" style="fill: none;"></path><g><g class="mark-line role-mark layer_0_layer_0_marks" role="graphics-symbol" aria-roledescription="line mark container"><path d="M0,765.1116796938201L14.444444444444445,765.1116796938201L28.88888888888889,758.1340156325841L43.333333333333336,758.1340156325841L57.77777777777778,744.1786875101121L72.22222222222221,744.1786875101121L86.66666666666667,744.1786875101121L101.11111111111111,730.2233593876402L115.55555555555556,723.2456953264042L130,723.2456953264042L144.44444444444443,723.2456953264042L158.88888888888889,702.3127031426963L173.33333333333334,688.3573750202244L187.77777777777777,674.4020468977524L202.22222222222223,667.4243828365163L216.66666666666666,667.4243828365163L231.11111111111111,646.4913906528085" style="fill: none; stroke: #4c78a8; stroke-width: 4; opacity: 0.7;"></path></g></g><path class="foreground" aria-hidden="true" d="" style="display: none; fill: none;"></path></g><g transform="translate(0,0)"><path class="background" aria-hidden="true" d="M0,0h650v800h-650Z" style="fill: none;"></path><g><g class="mark-line role-mark layer_0_layer_0_marks" role="graphics-symbol" aria-roledescription="line mark container"><path d="M0,790.7803597969199L14.444444444444445,790.7803597969199L28.88888888888889,787.0925037156879L43.333333333333336,781.5607195938398L57.77777777777778,772.3410793907597L72.22222222222221,766.8092952689117L86.66666666666667,764.9653672282956L101.11111111111111,763.1214391876797L115.55555555555556,759.4335831064476L130,750.2139429033675L144.44444444444443,746.5260868221355L158.88888888888889,740.9943027002873L173.33333333333334,737.3064466190554L187.77777777777777,733.6185905378234L202.22222222222223,724.3989503347432L216.66666666666666,713.3353820910472L231.11111111111111,702.271813847351L245.55555555555554,693.052173644271" style="fill: none; stroke: #f58518; stroke-width: 4; opacity: 0.7;"></path></g></g><path class="foreground" aria-hidden="true" d="" style="display: none; fill: none;"></path></g><g transform="translate(0,0)"><path class="background" aria-hidden="true" d="M0,0h650v800h-650Z" style="fill: none;"></path><g><g class="mark-line role-mark layer_0_layer_0_marks" role="graphics-symbol" aria-roledescription="line mark container"><path d="M0,789.6064869330062L14.444444444444445,782.1825490280107L28.88888888888889,777.7281862850134L43.333333333333336,771.789035961017L57.77777777777778,765.8498856370205L72.22222222222221,755.4563725700268L86.66666666666667,740.6084967600357L101.11111111111111,725.7606209500447L115.55555555555556,721.3062582070473L130,707.9431699780554L144.44444444444443,694.5800817490634L158.88888888888889,666.3691177100804L173.33333333333334,642.6125164140947L187.77777777777777,615.8863399561108L202.22222222222223,584.7058007551295L216.66666666666666,560.9491994591439L231.11111111111111,529.7686602581626L245.55555555555554,525.3142975151653L260,513.4359968671724L274.44444444444446,494.13375831418404L288.88888888888886,452.5597060462091L303.3333333333333,421.37916684522787L317.77777777777777,373.86596425325644L332.2222222222222,348.62457537627165L346.6666666666667,324.86797408028593L361.11111111111114,278.8395590693137L375.55555555555554,235.78071922033956L390,168.9652780753798L404.44444444444446,93.24111144442533L418.8888888888889,56.12142191944764" style="fill: none; stroke: #e45756; stroke-width: 4; opacity: 0.7;"></path></g></g><path class="foreground" aria-hidden="true" d="" style="display: none; fill: none;"></path></g><g transform="translate(0,0)"><path class="background" aria-hidden="true" d="M0,0h650v800h-650Z" style="fill: none;"></path><g><g class="mark-line role-mark layer_0_layer_0_marks" role="graphics-symbol" aria-roledescription="line mark container"><path d="M0,763.6181826500025L14.444444444444445,763.6181826500025L28.88888888888889,756.341819180003L43.333333333333336,749.0654557100034L57.77777777777778,749.0654557100034L72.22222222222221,727.2363653000049L86.66666666666667,727.2363653000049L101.11111111111111,727.2363653000049L115.55555555555556,719.9600018300055L130,705.4072748900064L144.44444444444443,705.4072748900064L158.88888888888889,698.1309114200069L173.33333333333334,683.5781844800078L187.77777777777777,669.0254575400089L202.22222222222223,654.4727306000098L216.66666666666666,632.6436401900113L231.11111111111111,610.8145497800127L245.55555555555554,596.2618228400138L260,574.4327324300152L274.44444444444446,552.6036420200168L288.88888888888886,530.7745516100182L303.3333333333333,508.9454612000196" style="fill: none; stroke: #72b7b2; stroke-width: 4; opacity: 0.7;"></path></g></g><path class="foreground" aria-hidden="true" d="" style="display: none; fill: none;"></path></g><g transform="translate(0,0)"><path class="background" aria-hidden="true" d="M0,0h650v800h-650Z" style="fill: none;"></path><g><g class="mark-line role-mark layer_0_layer_0_marks" role="graphics-symbol" aria-roledescription="line mark container"><path d="M0,797.517453234715L14.444444444444445,797.1036954405008L28.88888888888889,796.2761798520725L43.333333333333336,795.8624220578583L57.77777777777778,794.2073908810016L72.22222222222221,792.552359704145L86.66666666666667,792.1386019099308L101.11111111111111,792.1386019099308L115.55555555555556,791.3110863215024L130,791.3110863215024L144.44444444444443,790.8973285272883L158.88888888888889,789.2422973504316L173.33333333333334,788.4147817620033L187.77777777777777,785.9322349967183L202.22222222222223,785.10471940829L216.66666666666666,783.4496882314332L231.11111111111111,781.3808992603624L245.55555555555554,780.5533836719341L260,780.1396258777199L274.44444444444446,778.0708369066491L288.88888888888886,774.3470167587216L303.3333333333333,772.2782277876507L317.77777777777777,770.2094388165799L332.2222222222222,769.3819232281515L346.6666666666667,765.658103080224L361.11111111111114,761.5205251380823L375.55555555555554,758.6242205785832L390,756.1416738132982L404.44444444444446,751.5903380769423L418.8888888888889,749.1077913116574" style="fill: none; stroke: #54a24b; stroke-width: 4; opacity: 0.7;"></path></g></g><path class="foreground" aria-hidden="true" d="" style="display: none; fill: none;"></path></g><g transform="translate(0,0)"><path class="background" aria-hidden="true" d="M0,0h650v800h-650Z" style="fill: none;"></path><g><g class="mark-line role-mark layer_0_layer_0_marks" role="graphics-symbol" aria-roledescription="line mark container"><path d="M0,796.630643018026L14.444444444444445,796.630643018026L28.88888888888889,795.2829002252365L43.333333333333336,793.9351574324469L57.77777777777778,785.8487006757093L72.22222222222221,785.1748292793146L86.66666666666667,784.5009578829198L101.11111111111111,776.4145011261822L115.55555555555556,776.4145011261822L130,773.0451441442083L144.44444444444443,761.5893304054969L158.88888888888889,761.5893304054969L173.33333333333334,754.8506164415489L187.77777777777777,750.1335166667855L202.22222222222223,748.7857738739958L216.66666666666666,731.938988964126L231.11111111111111,725.2002750001782L245.55555555555554,716.4399468470458L260,709.0273614867032L274.44444444444446,695.5499335588073L288.88888888888886,678.7031486489376L303.3333333333333,672.6383060813845L317.77777777777777,661.182492342673L332.2222222222222,651.0744213967511L346.6666666666667,638.9447362616448L361.11111111111114,617.3808515770115L375.55555555555554,602.555680856326L390,580.317924775298L404.44444444444446,546.6243549555585L418.8888888888889,532.4730556312678L433.3333333333333,518.995627703372L447.77777777777777,496.7578716223438L462.22222222222223,468.4552729737626L476.66666666666663,436.7833173432075L491.1111111111111,370.070049100123" style="fill: none; stroke: #eeca3b; stroke-width: 4; opacity: 0.7;"></path></g></g><path class="foreground" aria-hidden="true" d="" style="display: none; fill: none;"></path></g><g transform="translate(0,0)"><path class="background" aria-hidden="true" d="M0,0h650v800h-650Z" style="fill: none;"></path><g><g class="mark-line role-mark layer_0_layer_0_marks" role="graphics-symbol" aria-roledescription="line mark container"><path d="M0,789.795523724846L14.444444444444445,787.7546284698153L28.88888888888889,785.7137332147845L43.333333333333336,785.7137332147845L57.77777777777778,779.5910474496922L72.22222222222221,775.5092569396306L86.66666666666667,775.5092569396306L101.11111111111111,773.4683616845998L115.55555555555556,771.4274664295691L130,771.4274664295691L144.44444444444443,771.4274664295691L158.88888888888889,769.3865711745383L173.33333333333334,765.3047806644767L187.77777777777777,765.3047806644767L202.22222222222223,759.1820948993844L216.66666666666666,751.0185138792613L231.11111111111111,751.0185138792613L245.55555555555554,751.0185138792613L260,751.0185138792613L274.44444444444446,751.0185138792613L288.88888888888886,748.9776186242304L303.3333333333333,746.9367233691997L317.77777777777777,746.9367233691997L332.2222222222222,744.8958281141689L346.6666666666667,744.8958281141689L361.11111111111114,742.8549328591381L375.55555555555554,742.8549328591381L390,742.8549328591381L404.44444444444446,738.7731423490766L418.8888888888889,736.7322470940458L433.3333333333333,734.691351839015" style="fill: none; stroke: #b279a2; stroke-width: 4; opacity: 0.7;"></path></g></g><path class="foreground" aria-hidden="true" d="" style="display: none; fill: none;"></path></g><g transform="translate(0,0)"><path class="background" aria-hidden="true" d="M0,0h650v800h-650Z" style="fill: none;"></path><g><g class="mark-line role-mark layer_0_layer_0_marks" role="graphics-symbol" aria-roledescription="line mark container"><path d="M0,792.3433912460079L14.444444444444445,790.8120694952094L28.88888888888889,790.8120694952094L43.333333333333336,790.8120694952094L57.77777777777778,790.8120694952094L72.22222222222221,790.8120694952094L86.66666666666667,789.280747744411L101.11111111111111,787.7494259936125L115.55555555555556,786.2181042428141L130,778.5614954888218L144.44444444444443,773.9675302364266L158.88888888888889,772.4362084856281L173.33333333333334,767.8422432332328L187.77777777777777,757.1229909776437L202.22222222222223,757.1229909776437L216.66666666666666,754.0603474760468L231.11111111111111,747.935060472853L245.55555555555554,747.935060472853L260,747.935060472853L274.44444444444446,743.3410952204576L288.88888888888886,734.153164715667L303.3333333333333,728.0278777124732L317.77777777777777,720.3712689584811L332.2222222222222,712.7146602044888L346.6666666666667,703.5267296996983L361.11111111111114,682.08822518852L375.55555555555554,671.368972932931L390,657.587077175745L404.44444444444446,645.3365031693576L418.8888888888889,640.7425379169622" style="fill: none; stroke: #ff9da6; stroke-width: 4; opacity: 0.7;"></path></g></g><path class="foreground" aria-hidden="true" d="" style="display: none; fill: none;"></path></g><g transform="translate(0,0)"><path class="background" aria-hidden="true" d="M0,0h650v800h-650Z" style="fill: none;"></path><g><g class="mark-line role-mark layer_0_layer_0_marks" role="graphics-symbol" aria-roledescription="line mark container"><path d="M0,795.6158907388783L14.444444444444445,795.6158907388783L28.88888888888889,793.8622470344295L43.333333333333336,793.8622470344295L57.77777777777778,792.9854251822052L72.22222222222221,791.2317814777565L86.66666666666667,787.7244940688591L101.11111111111111,786.8476722166348L115.55555555555556,786.8476722166348L130,786.8476722166348L144.44444444444443,785.9708503644105L158.88888888888889,785.9708503644105L173.33333333333334,784.2172066599618L187.77777777777777,784.2172066599618L202.22222222222223,783.3403848077375L216.66666666666666,783.3403848077375L231.11111111111111,781.5867411032887L245.55555555555554,779.83309739884L260,778.9562755466156L274.44444444444446,778.0794536943913L288.88888888888886,778.0794536943913L303.3333333333333,777.202631842167L317.77777777777777,776.3258099899426L332.2222222222222,776.3258099899426L346.6666666666667,774.572166285494L361.11111111111114,774.572166285494L375.55555555555554,773.6953444332696" style="fill: none; stroke: #9d755d; stroke-width: 4; opacity: 0.7;"></path></g></g><path class="foreground" aria-hidden="true" d="" style="display: none; fill: none;"></path></g><g transform="translate(0,0)"><path class="background" aria-hidden="true" d="M0,0h650v800h-650Z" style="fill: none;"></path><g><g class="mark-line role-mark layer_0_layer_0_marks" role="graphics-symbol" aria-roledescription="line mark container"><path d="M0,790.4324274259121L14.444444444444445,789.562648100995L28.88888888888889,786.0835308013267L43.333333333333336,781.7346341767413L57.77777777777778,779.1252962019901L72.22222222222221,776.5159582272388L86.66666666666667,772.1670616026535L101.11111111111111,770.4275029528193L115.55555555555556,767.818164978068L130,765.2088270033169L144.44444444444443,761.7297097036485L158.88888888888889,758.2505924039801L173.33333333333334,753.0319164544776L187.77777777777777,747.8132405049752L202.22222222222223,742.5945645554726L216.66666666666666,733.8967713063018L231.11111111111111,723.4594194072969L245.55555555555554,713.022067508292L260,702.584715609287L274.44444444444446,691.277584385365L288.88888888888886,673.8819978870233L303.3333333333333,655.6166320637647L317.77777777777777,639.9606042152571L332.2222222222222,622.5650177169156L346.6666666666667,605.169431218574L361.11111111111114,593.862299994652" style="fill: none; stroke: #bab0ac; stroke-width: 4; opacity: 0.7;"></path></g></g><path class="foreground" aria-hidden="true" d="" style="display: none; fill: none;"></path></g><g transform="translate(0,0)"><path class="background" aria-hidden="true" d="M0,0h650v800h-650Z" style="fill: none;"></path><g><g class="mark-line role-mark layer_0_layer_0_marks" role="graphics-symbol" aria-roledescription="line mark container"><path d="M0,798.2557777190451L14.444444444444445,798.2557777190451L28.88888888888889,798.2557777190451L43.333333333333336,797.3836665785677L57.77777777777778,796.8022591515828L72.22222222222221,795.9301480111053L86.66666666666667,795.6394442976128L101.11111111111111,795.0580368706278L115.55555555555556,795.0580368706278L130,794.1859257301504L144.44444444444443,793.313814589673L158.88888888888889,792.1509997357031L173.33333333333334,791.2788885952257L187.77777777777777,790.4067774547483L202.22222222222223,789.8253700277633L216.66666666666666,788.6625551737933L231.11111111111111,788.6625551737933L245.55555555555554,788.0811477468084L260,787.209036606331L274.44444444444446,786.3369254658535L288.88888888888886,785.1741106118836L303.3333333333333,784.3019994714061L317.77777777777777,783.1391846174363L332.2222222222222,782.2670734769588L346.6666666666667,781.9763697634664L361.11111111111114,779.360036342034L375.55555555555554,776.7437029206018L390,776.1622954936167L404.44444444444446,774.4180732126619L418.8888888888889,774.4180732126619" style="fill: none; stroke: #4c78a8; stroke-width: 4; opacity: 0.7;"></path></g></g><path class="foreground" aria-hidden="true" d="" style="display: none; fill: none;"></path></g><g transform="translate(0,0)"><path class="background" aria-hidden="true" d="M0,0h650v800h-650Z" style="fill: none;"></path><g><g class="mark-line role-mark layer_0_layer_0_marks" role="graphics-symbol" aria-roledescription="line mark container"><path d="M0,788.9278928468043L14.444444444444445,788.9278928468043L28.88888888888889,788.9278928468043L43.333333333333336,788.9278928468043L57.77777777777778,788.9278928468043L72.22222222222221,786.7134714161651L86.66666666666667,786.7134714161651L101.11111111111111,784.499049985526L115.55555555555556,784.499049985526L130,784.499049985526L144.44444444444443,784.499049985526L158.88888888888889,780.0702071242478L173.33333333333334,780.0702071242478L187.77777777777777,780.0702071242478L202.22222222222223,780.0702071242478L216.66666666666666,780.0702071242478L231.11111111111111,780.0702071242478" style="fill: none; stroke: #f58518; stroke-width: 4; opacity: 0.7;"></path></g></g><path class="foreground" aria-hidden="true" d="" style="display: none; fill: none;"></path></g><g transform="translate(0,0)"><path class="background" aria-hidden="true" d="M0,0h650v800h-650Z" style="fill: none;"></path><g><g class="mark-line role-mark layer_0_layer_0_marks" role="graphics-symbol" aria-roledescription="line mark container"><path d="M0,791.1695993678139L14.444444444444445,791.1695993678139L28.88888888888889,791.1695993678139L43.333333333333336,791.1695993678139L57.77777777777778,789.4035192413767L72.22222222222221,789.4035192413767L86.66666666666667,789.4035192413767L101.11111111111111,787.6374391149395L115.55555555555556,785.8713589885024L130,784.1052788620651L144.44444444444443,784.1052788620651L158.88888888888889,782.339198735628L173.33333333333334,780.5731186091907L187.77777777777777,780.5731186091907L202.22222222222223,780.5731186091907L216.66666666666666,780.5731186091907L231.11111111111111,778.8070384827535" style="fill: none; stroke: #e45756; stroke-width: 4; opacity: 0.7;"></path></g></g><path class="foreground" aria-hidden="true" d="" style="display: none; fill: none;"></path></g><g transform="translate(0,0)"><path class="background" aria-hidden="true" d="M0,0h650v800h-650Z" style="fill: none;"></path><g><g class="mark-line role-mark layer_0_layer_0_marks" role="graphics-symbol" aria-roledescription="line mark container"><path d="M0,796.4233739842214L14.444444444444445,796.4233739842214L28.88888888888889,795.7080487810657L43.333333333333336,794.99272357791L57.77777777777778,793.5620731715985L72.22222222222221,792.1314227652872L86.66666666666667,789.9854471558201L101.11111111111111,789.9854471558201L115.55555555555556,784.97817073373L130,784.97817073373L144.44444444444443,781.4015447179515L158.88888888888889,777.1095934990173L173.33333333333334,776.3942682958615L187.77777777777777,775.6789430927058L202.22222222222223,774.96361788955L216.66666666666666,772.8176422800831L231.11111111111111,769.2410162643044L245.55555555555554,762.0877642327473L260,738.4820325286089L274.44444444444446,732.0441057002075L288.88888888888886,718.452926840249L303.3333333333333,712.7303252150033L317.77777777777777,705.5770731834461L332.2222222222222,688.4092683077091L346.6666666666667,639.7671544931208L361.11111111111114,611.8694715700481L375.55555555555554,581.1104878343524" style="fill: none; stroke: #72b7b2; stroke-width: 4; opacity: 0.7;"></path></g></g><path class="foreground" aria-hidden="true" d="" style="display: none; fill: none;"></path></g><g transform="translate(0,0)"><path class="background" aria-hidden="true" d="M0,0h650v800h-650Z" style="fill: none;"></path><g><g class="mark-line role-mark layer_0_layer_0_marks" role="graphics-symbol" aria-roledescription="line mark container"><path d="M0,789.2793525249642L14.444444444444445,783.1532682535152L28.88888888888889,783.1532682535152L43.333333333333336,780.0902261177906L57.77777777777778,780.0902261177906L72.22222222222221,775.495662914204L86.66666666666667,767.8380575748927L101.11111111111111,763.2434943713059L115.55555555555556,760.1804522355815L130,757.1174100998569L144.44444444444443,755.5858890319946L158.88888888888889,750.9913258284079L173.33333333333334,749.4598047605456L187.77777777777777,740.2706783533721L202.22222222222223,738.7391572855098L216.66666666666666,732.6130730140609L231.11111111111111,729.5500308783363L245.55555555555554,724.9554676747496L260,723.4239466068873L274.44444444444446,718.8293834033005L288.88888888888886,712.7032991318515L303.3333333333333,705.0456937925403L317.77777777777777,697.388088453229L332.2222222222222,686.6674409781932L346.6666666666667,683.6043988424688" style="fill: none; stroke: #54a24b; stroke-width: 4; opacity: 0.7;"></path></g></g><path class="foreground" aria-hidden="true" d="" style="display: none; fill: none;"></path></g><g transform="translate(0,0)"><path class="background" aria-hidden="true" d="M0,0h650v800h-650Z" style="fill: none;"></path><g><g class="mark-line role-mark layer_0_layer_0_marks" role="graphics-symbol" aria-roledescription="line mark container"><path d="M0,796.7804748160571L14.444444444444445,796.7804748160571L28.88888888888889,796.1365697792685L43.333333333333336,796.1365697792685L57.77777777777778,794.8487597056914L72.22222222222221,794.2048546689027L86.66666666666667,793.5609496321141L101.11111111111111,790.9853294849597L115.55555555555556,786.4779942274397L130,780.6828488963424L144.44444444444443,778.107228749188L158.88888888888889,770.380368307725L173.33333333333334,763.9413179398391L187.77777777777777,758.1461726087417L202.22222222222223,753.6388373512216L216.66666666666666,745.2680718729699L231.11111111111111,734.3216862475639L245.55555555555554,725.9509207693122L260,707.9215797392318L274.44444444444446,696.9751941138258L288.88888888888886,680.2336631573226L303.3333333333333,667.9994674583394L317.77777777777777,660.9165120536649L332.2222222222222,649.3262213914702L346.6666666666667,632.5846904349669L361.11111111111114,618.418779625618L375.55555555555554,599.1016285219603L390,573.3454270504169L404.44444444444446,554.6721809835477L418.8888888888889,532.7794097327356L433.3333333333333,510.24273344513506L447.77777777777777,472.8962413113969L462.22222222222223,453.5790902077393L476.66666666666663,436.1936542144474L491.1111111111111,411.72526281648106L505.55555555555554,395.6276368967663" style="fill: none; stroke: #eeca3b; stroke-width: 4; opacity: 0.7;"></path></g></g><path class="foreground" aria-hidden="true" d="" style="display: none; fill: none;"></path></g><g transform="translate(0,0)"><path class="background" aria-hidden="true" d="M0,0h650v800h-650Z" style="fill: none;"></path><g><g class="mark-line role-mark layer_0_layer_0_marks" role="graphics-symbol" aria-roledescription="line mark container"><path d="M0,790.5997259679116L14.444444444444445,788.7196711614939L28.88888888888889,786.8396163550761L43.333333333333336,786.8396163550761L57.77777777777778,786.8396163550761L72.22222222222221,786.8396163550761L86.66666666666667,784.9595615486585L101.11111111111111,784.9595615486585L115.55555555555556,784.9595615486585L130,784.9595615486585L144.44444444444443,783.0795067422408L158.88888888888889,781.1994519358232L173.33333333333334,777.4393423229877L187.77777777777777,773.6792327101523L202.22222222222223,771.7991779037346L216.66666666666666,771.7991779037346L231.11111111111111,769.919123097317L245.55555555555554,768.0390682908992L260,766.1590134844815L274.44444444444446,762.3989038716462L288.88888888888886,760.5188490652286L303.3333333333333,754.8786846459755L317.77777777777777,754.8786846459755L332.2222222222222,754.8786846459755L346.6666666666667,751.1185750331401L361.11111111111114,747.3584654203047" style="fill: none; stroke: #b279a2; stroke-width: 4; opacity: 0.7;"></path></g></g><path class="foreground" aria-hidden="true" d="" style="display: none; fill: none;"></path></g><g transform="translate(0,0)"><path class="background" aria-hidden="true" d="M0,0h650v800h-650Z" style="fill: none;"></path><g><g class="mark-line role-mark layer_0_layer_0_marks" role="graphics-symbol" aria-roledescription="line mark container"><path d="M0,797.3089604264534L14.444444444444445,796.2325445970347L28.88888888888889,794.6179208529066L43.333333333333336,792.4650891940694L57.77777777777778,791.92688127936L72.22222222222221,790.8504654499413L86.66666666666667,787.083010046976L101.11111111111111,786.0065942175573L115.55555555555556,785.468386302848L130,783.3155546440108L144.44444444444443,782.2391388145921L158.88888888888889,779.0098913263362L173.33333333333334,777.9334754969175L187.77777777777777,776.8570596674988L202.22222222222223,776.3188517527894L216.66666666666666,773.6278121792428L231.11111111111111,772.0131884351148L245.55555555555554,771.4749805204054L260,770.3985646909869L274.44444444444446,767.7075251174401L288.88888888888886,766.6311092880215L303.3333333333333,763.9400697144748L317.77777777777777,761.7872380556375L332.2222222222222,759.6344063968002L346.6666666666667,758.5579905673815L361.11111111111114,757.4815747379629L375.55555555555554,754.7905351644162L390,752.637703505579L404.44444444444446,750.4848718467416L418.8888888888889,749.9466639320323" style="fill: none; stroke: #ff9da6; stroke-width: 4; opacity: 0.7;"></path></g></g><path class="foreground" aria-hidden="true" d="" style="display: none; fill: none;"></path></g><g transform="translate(0,0)"><path class="background" aria-hidden="true" d="M0,0h650v800h-650Z" style="fill: none;"></path><g><g class="mark-line role-mark layer_0_layer_0_marks" role="graphics-symbol" aria-roledescription="line mark container"><path d="M0,797.8613843716092L14.444444444444445,797.1485124954789L28.88888888888889,796.7920765574138L43.333333333333336,796.4356406193486L57.77777777777778,795.3663328051532L72.22222222222221,793.9405890528926L86.66666666666667,793.5841531148275L101.11111111111111,791.8019734245017L115.55555555555556,790.0197937341761L130,785.3861265393293L144.44444444444443,783.2475109109384L158.88888888888889,779.326715592222L173.33333333333334,777.1880999638311L187.77777777777777,774.6930483973752L202.22222222222223,768.2772015122026L216.66666666666666,762.2177905650954L231.11111111111111,756.514815556053L245.55555555555554,747.6039171044246L260,744.7524295999035L274.44444444444446,739.4058905289263L288.88888888888886,735.1286592721447L303.3333333333333,720.158349873409L317.77777777777777,705.5444764127382L332.2222222222222,692.7127826423932L346.6666666666667,678.4553451197876L361.11111111111114,662.0592919687912L375.55555555555554,656.7127528978142L390,649.5840341365114L404.44444444444446,635.6830325519709L418.8888888888889,625.3463903480819L433.3333333333333,611.0889528254763L447.77777777777777,596.8315153028708L462.22222222222223,580.7918980899395L476.66666666666663,570.0988199479854L491.1111111111111,558.6928699299009L505.55555555555554,536.9502777079274L520,516.9898651762796L534.4444444444445,495.6037088923714L548.8888888888889,471.7225010420071L563.3333333333334,453.90070413875014" style="fill: none; stroke: #9d755d; stroke-width: 4; opacity: 0.7;"></path></g></g><path class="foreground" aria-hidden="true" d="" style="display: none; fill: none;"></path></g><g transform="translate(0,0)"><path class="background" aria-hidden="true" d="M0,0h650v800h-650Z" style="fill: none;"></path><g><g class="mark-line role-mark layer_0_layer_0_marks" role="graphics-symbol" aria-roledescription="line mark container"><path d="M0,789.4711649096563L14.444444444444445,787.7163590612657L28.88888888888889,787.7163590612657L43.333333333333336,785.9615532128752L57.77777777777778,780.6971356677033L72.22222222222221,780.6971356677033L86.66666666666667,780.6971356677033L101.11111111111111,777.1875239709221L115.55555555555556,770.1683005773597L130,768.413494728969L144.44444444444443,766.6586888805784L158.88888888888889,764.9038830321878L173.33333333333334,759.639465487016L187.77777777777777,757.8846596386254L202.22222222222223,754.3750479418441L216.66666666666666,752.6202420934536L231.11111111111111,750.8654362450629L245.55555555555554,749.1106303966723L260,740.3366011547192L274.44444444444446,733.3173777611569L288.88888888888886,729.8077660643755L303.3333333333333,722.7885426708132L317.77777777777777,721.0337368224225L332.2222222222222,715.7693192772507L346.6666666666667,705.2404841869071L361.11111111111114,701.7308724901259L375.55555555555554,701.7308724901259L390,696.4664549449541L404.44444444444446,692.9568432481728" style="fill: none; stroke: #bab0ac; stroke-width: 4; opacity: 0.7;"></path></g></g><path class="foreground" aria-hidden="true" d="" style="display: none; fill: none;"></path></g><g transform="translate(0,0)"><path class="background" aria-hidden="true" d="M0,0h650v800h-650Z" style="fill: none;"></path><g><g class="mark-line role-mark layer_0_layer_0_marks" role="graphics-symbol" aria-roledescription="line mark container"><path d="M0,782.6869244078658L14.444444444444445,782.6869244078658L28.88888888888889,782.6869244078658L43.333333333333336,779.2243092894389L57.77777777777778,775.7616941710121L72.22222222222221,765.3738488157315L86.66666666666667,765.3738488157315L101.11111111111111,761.9112336973047L115.55555555555556,748.0607732235973L130,744.5981581051705L144.44444444444443,737.6729278683167L158.88888888888889,720.3598522761826" style="fill: none; stroke: #4c78a8; stroke-width: 4; opacity: 0.7;"></path></g></g><path class="foreground" aria-hidden="true" d="" style="display: none; fill: none;"></path></g><g transform="translate(0,0)"><path class="background" aria-hidden="true" d="M0,0h650v800h-650Z" style="fill: none;"></path><g><g class="mark-line role-mark layer_0_layer_0_marks" role="graphics-symbol" aria-roledescription="line mark container"><path d="M0,728.8879226676477L14.444444444444445,728.8879226676477L28.88888888888889,728.8879226676477" style="fill: none; stroke: #f58518; stroke-width: 4; opacity: 0.7;"></path></g></g><path class="foreground" aria-hidden="true" d="" style="display: none; fill: none;"></path></g><g transform="translate(0,0)"><path class="background" aria-hidden="true" d="M0,0h650v800h-650Z" style="fill: none;"></path><g><g class="mark-line role-mark layer_0_layer_0_marks" role="graphics-symbol" aria-roledescription="line mark container"><path d="M0,797.2955450114715L14.444444444444445,797.2955450114715L28.88888888888889,796.7546540137658L43.333333333333336,796.2137630160602L57.77777777777778,796.2137630160602L72.22222222222221,795.6728720183544L86.66666666666667,795.6728720183544L101.11111111111111,794.591090022943L115.55555555555556,792.4275260321202L130,791.8866350344146L144.44444444444443,791.3457440367089L158.88888888888889,791.3457440367089L173.33333333333334,790.8048530390031L187.77777777777777,790.2639620412975L202.22222222222223,789.7230710435917L216.66666666666666,788.6412890481804L231.11111111111111,787.0186160550633L245.55555555555554,787.0186160550633L260,785.9368340596519L274.44444444444446,785.3959430619462L288.88888888888886,785.3959430619462L303.3333333333333,784.8550520642405L317.77777777777777,784.3141610665348L332.2222222222222,781.6097060780064L346.6666666666667,781.0688150803006L361.11111111111114,779.4461420871835L375.55555555555554,775.6599051032437L390,773.4963411124209L404.44444444444446,772.4145591170095L418.8888888888889,768.6283221330697L433.3333333333333,766.4647581422469L447.77777777777777,764.8420851491297" style="fill: none; stroke: #e45756; stroke-width: 4; opacity: 0.7;"></path></g></g><path class="foreground" aria-hidden="true" d="" style="display: none; fill: none;"></path></g><g transform="translate(0,0)"><path class="background" aria-hidden="true" d="M0,0h650v800h-650Z" style="fill: none;"></path><g><g class="mark-line role-mark layer_0_layer_0_marks" role="graphics-symbol" aria-roledescription="line mark container"><path d="M0,795.7054932024184L14.444444444444445,795.7054932024184L28.88888888888889,791.4109864048369L43.333333333333336,791.4109864048369L57.77777777777778,790.5520850453206L72.22222222222221,787.1164796072553L86.66666666666667,785.3986768882227L101.11111111111111,784.5397755287064L115.55555555555556,784.5397755287064L130,781.9630714501575L144.44444444444443,779.3863673716086L158.88888888888889,777.6685646525759L173.33333333333334,775.9507619335433L187.77777777777777,775.091860574027L202.22222222222223,774.2329592145107L216.66666666666666,773.3740578549944L231.11111111111111,772.515156495478L245.55555555555554,769.9384524169292L260,769.9384524169292L274.44444444444446,768.2206496978964L288.88888888888886,766.5028469788639L303.3333333333333,763.9261429003149L317.77777777777777,763.9261429003149L332.2222222222222,763.9261429003149L346.6666666666667,763.0672415407986L361.11111111111114,762.2083401812823L375.55555555555554,762.2083401812823L390,760.4905374622497L404.44444444444446,758.772734743217L418.8888888888889,757.0549320241844L433.3333333333333,755.3371293051518" style="fill: none; stroke: #72b7b2; stroke-width: 4; opacity: 0.7;"></path></g></g><path class="foreground" aria-hidden="true" d="" style="display: none; fill: none;"></path></g><g transform="translate(0,0)"><path class="background" aria-hidden="true" d="M0,0h650v800h-650Z" style="fill: none;"></path><g><g class="mark-line role-mark layer_0_layer_0_marks" role="graphics-symbol" aria-roledescription="line mark container"><path d="M0,786.6144845733273L14.444444444444445,786.6144845733273L28.88888888888889,786.6144845733273L43.333333333333336,781.2602784026583L57.77777777777778,781.2602784026583L72.22222222222221,778.5831753173237L86.66666666666667,778.5831753173237L101.11111111111111,775.9060722319891L115.55555555555556,775.9060722319891L130,770.5518660613201L144.44444444444443,770.5518660613201L158.88888888888889,770.5518660613201L173.33333333333334,762.5205568053165L187.77777777777777,762.5205568053165L202.22222222222223,762.5205568053165" style="fill: none; stroke: #54a24b; stroke-width: 4; opacity: 0.7;"></path></g></g><path class="foreground" aria-hidden="true" d="" style="display: none; fill: none;"></path></g><g transform="translate(0,0)"><path class="background" aria-hidden="true" d="M0,0h650v800h-650Z" style="fill: none;"></path><g><g class="mark-line role-mark layer_0_layer_0_marks" role="graphics-symbol" aria-roledescription="line mark container"><path d="M0,799.3299244771113L14.444444444444445,798.7938640588002L28.88888888888889,797.9897734313337L43.333333333333336,797.0516676992894L57.77777777777778,795.9795468626673L72.22222222222221,794.6393958168896L86.66666666666667,793.5672749802676L101.11111111111111,792.22712393449L115.55555555555556,790.8869728887125L130,788.7427312154684L144.44444444444443,786.8665197513798L158.88888888888889,784.8562931827134L173.33333333333334,781.773945777425L187.77777777777777,778.0215228492478L202.22222222222223,774.8051603393817L216.66666666666666,770.6506920974712L231.11111111111111,765.1560728097832L245.55555555555554,763.1458462411168L260,759.2594082083618L274.44444444444446,750.280396201652L288.88888888888886,742.6415352407199L303.3333333333333,733.5285081294325L317.77777777777777,727.6318435280111L332.2222222222222,724.9515414364561L346.6666666666667,721.1991185082788L361.11111111111114,718.5188164167237L375.55555555555554,706.8595023184588L390,695.7362486385049L404.44444444444446,685.6851157951731L418.8888888888889,675.6339829518414L433.3333333333333,667.1910313634428L447.77777777777777,663.9746688535765L462.22222222222223,661.0263365528658L476.66666666666663,653.5214906965115L491.1111111111111,648.0268714088235L505.55555555555554,619.7496843429167L520,597.3691618784312L534.4444444444445,576.5968206688789L548.8888888888889,572.1743222178128L563.3333333333334,555.4224341455932L577.7777777777777,525.4030507201757L592.2222222222222,498.86806001377977L606.6666666666666,481.71412662782683L621.1111111111111,463.48807240525184L635.5555555555555,453.4369395619201" style="fill: none; stroke: #eeca3b; stroke-width: 4; opacity: 0.7;"></path></g></g><path class="foreground" aria-hidden="true" d="" style="display: none; fill: none;"></path></g></g><g class="mark-group role-scope layer_0_layer_1_pathgroup" role="graphics-object" aria-roledescription="group mark container"><g transform="translate(0,0)"><path class="background" aria-hidden="true" d="M0,0h650v800h-650Z" style="fill: none;"></path><g><g class="mark-line role-mark layer_0_layer_1_marks" role="graphics-symbol" aria-roledescription="line mark container" style="pointer-events: none;"><path d="M0,765.1116796938201L14.444444444444445,765.1116796938201L28.88888888888889,758.1340156325841L43.333333333333336,758.1340156325841L57.77777777777778,744.1786875101121L72.22222222222221,744.1786875101121L86.66666666666667,744.1786875101121L101.11111111111111,730.2233593876402L115.55555555555556,723.2456953264042L130,723.2456953264042L144.44444444444443,723.2456953264042L158.88888888888889,702.3127031426963L173.33333333333334,688.3573750202244L187.77777777777777,674.4020468977524L202.22222222222223,667.4243828365163L216.66666666666666,667.4243828365163L231.11111111111111,646.4913906528085" style="fill: none; stroke: #4c78a8; stroke-width: 4; opacity: 0.5;"></path></g></g><path class="foreground" aria-hidden="true" d="" style="display: none; fill: none;"></path></g><g transform="translate(0,0)"><path class="background" aria-hidden="true" d="M0,0h650v800h-650Z" style="fill: none;"></path><g><g class="mark-line role-mark layer_0_layer_1_marks" role="graphics-symbol" aria-roledescription="line mark container" style="pointer-events: none;"><path d="M0,790.7803597969199L14.444444444444445,790.7803597969199L28.88888888888889,787.0925037156879L43.333333333333336,781.5607195938398L57.77777777777778,772.3410793907597L72.22222222222221,766.8092952689117L86.66666666666667,764.9653672282956L101.11111111111111,763.1214391876797L115.55555555555556,759.4335831064476L130,750.2139429033675L144.44444444444443,746.5260868221355L158.88888888888889,740.9943027002873L173.33333333333334,737.3064466190554L187.77777777777777,733.6185905378234L202.22222222222223,724.3989503347432L216.66666666666666,713.3353820910472L231.11111111111111,702.271813847351L245.55555555555554,693.052173644271" style="fill: none; stroke: #f58518; stroke-width: 4; opacity: 0.5;"></path></g></g><path class="foreground" aria-hidden="true" d="" style="display: none; fill: none;"></path></g><g transform="translate(0,0)"><path class="background" aria-hidden="true" d="M0,0h650v800h-650Z" style="fill: none;"></path><g><g class="mark-line role-mark layer_0_layer_1_marks" role="graphics-symbol" aria-roledescription="line mark container" style="pointer-events: none;"><path d="M0,789.6064869330062L14.444444444444445,782.1825490280107L28.88888888888889,777.7281862850134L43.333333333333336,771.789035961017L57.77777777777778,765.8498856370205L72.22222222222221,755.4563725700268L86.66666666666667,740.6084967600357L101.11111111111111,725.7606209500447L115.55555555555556,721.3062582070473L130,707.9431699780554L144.44444444444443,694.5800817490634L158.88888888888889,666.3691177100804L173.33333333333334,642.6125164140947L187.77777777777777,615.8863399561108L202.22222222222223,584.7058007551295L216.66666666666666,560.9491994591439L231.11111111111111,529.7686602581626L245.55555555555554,525.3142975151653L260,513.4359968671724L274.44444444444446,494.13375831418404L288.88888888888886,452.5597060462091L303.3333333333333,421.37916684522787L317.77777777777777,373.86596425325644L332.2222222222222,348.62457537627165L346.6666666666667,324.86797408028593L361.11111111111114,278.8395590693137L375.55555555555554,235.78071922033956L390,168.9652780753798L404.44444444444446,93.24111144442533L418.8888888888889,56.12142191944764" style="fill: none; stroke: #e45756; stroke-width: 4; opacity: 0.5;"></path></g></g><path class="foreground" aria-hidden="true" d="" style="display: none; fill: none;"></path></g><g transform="translate(0,0)"><path class="background" aria-hidden="true" d="M0,0h650v800h-650Z" style="fill: none;"></path><g><g class="mark-line role-mark layer_0_layer_1_marks" role="graphics-symbol" aria-roledescription="line mark container" style="pointer-events: none;"><path d="M0,763.6181826500025L14.444444444444445,763.6181826500025L28.88888888888889,756.341819180003L43.333333333333336,749.0654557100034L57.77777777777778,749.0654557100034L72.22222222222221,727.2363653000049L86.66666666666667,727.2363653000049L101.11111111111111,727.2363653000049L115.55555555555556,719.9600018300055L130,705.4072748900064L144.44444444444443,705.4072748900064L158.88888888888889,698.1309114200069L173.33333333333334,683.5781844800078L187.77777777777777,669.0254575400089L202.22222222222223,654.4727306000098L216.66666666666666,632.6436401900113L231.11111111111111,610.8145497800127L245.55555555555554,596.2618228400138L260,574.4327324300152L274.44444444444446,552.6036420200168L288.88888888888886,530.7745516100182L303.3333333333333,508.9454612000196" style="fill: none; stroke: #72b7b2; stroke-width: 4; opacity: 0.5;"></path></g></g><path class="foreground" aria-hidden="true" d="" style="display: none; fill: none;"></path></g><g transform="translate(0,0)"><path class="background" aria-hidden="true" d="M0,0h650v800h-650Z" style="fill: none;"></path><g><g class="mark-line role-mark layer_0_layer_1_marks" role="graphics-symbol" aria-roledescription="line mark container" style="pointer-events: none;"><path d="M0,797.517453234715L14.444444444444445,797.1036954405008L28.88888888888889,796.2761798520725L43.333333333333336,795.8624220578583L57.77777777777778,794.2073908810016L72.22222222222221,792.552359704145L86.66666666666667,792.1386019099308L101.11111111111111,792.1386019099308L115.55555555555556,791.3110863215024L130,791.3110863215024L144.44444444444443,790.8973285272883L158.88888888888889,789.2422973504316L173.33333333333334,788.4147817620033L187.77777777777777,785.9322349967183L202.22222222222223,785.10471940829L216.66666666666666,783.4496882314332L231.11111111111111,781.3808992603624L245.55555555555554,780.5533836719341L260,780.1396258777199L274.44444444444446,778.0708369066491L288.88888888888886,774.3470167587216L303.3333333333333,772.2782277876507L317.77777777777777,770.2094388165799L332.2222222222222,769.3819232281515L346.6666666666667,765.658103080224L361.11111111111114,761.5205251380823L375.55555555555554,758.6242205785832L390,756.1416738132982L404.44444444444446,751.5903380769423L418.8888888888889,749.1077913116574" style="fill: none; stroke: #54a24b; stroke-width: 4; opacity: 0.5;"></path></g></g><path class="foreground" aria-hidden="true" d="" style="display: none; fill: none;"></path></g><g transform="translate(0,0)"><path class="background" aria-hidden="true" d="M0,0h650v800h-650Z" style="fill: none;"></path><g><g class="mark-line role-mark layer_0_layer_1_marks" role="graphics-symbol" aria-roledescription="line mark container" style="pointer-events: none;"><path d="M0,796.630643018026L14.444444444444445,796.630643018026L28.88888888888889,795.2829002252365L43.333333333333336,793.9351574324469L57.77777777777778,785.8487006757093L72.22222222222221,785.1748292793146L86.66666666666667,784.5009578829198L101.11111111111111,776.4145011261822L115.55555555555556,776.4145011261822L130,773.0451441442083L144.44444444444443,761.5893304054969L158.88888888888889,761.5893304054969L173.33333333333334,754.8506164415489L187.77777777777777,750.1335166667855L202.22222222222223,748.7857738739958L216.66666666666666,731.938988964126L231.11111111111111,725.2002750001782L245.55555555555554,716.4399468470458L260,709.0273614867032L274.44444444444446,695.5499335588073L288.88888888888886,678.7031486489376L303.3333333333333,672.6383060813845L317.77777777777777,661.182492342673L332.2222222222222,651.0744213967511L346.6666666666667,638.9447362616448L361.11111111111114,617.3808515770115L375.55555555555554,602.555680856326L390,580.317924775298L404.44444444444446,546.6243549555585L418.8888888888889,532.4730556312678L433.3333333333333,518.995627703372L447.77777777777777,496.7578716223438L462.22222222222223,468.4552729737626L476.66666666666663,436.7833173432075L491.1111111111111,370.070049100123" style="fill: none; stroke: #eeca3b; stroke-width: 4; opacity: 0.5;"></path></g></g><path class="foreground" aria-hidden="true" d="" style="display: none; fill: none;"></path></g><g transform="translate(0,0)"><path class="background" aria-hidden="true" d="M0,0h650v800h-650Z" style="fill: none;"></path><g><g class="mark-line role-mark layer_0_layer_1_marks" role="graphics-symbol" aria-roledescription="line mark container" style="pointer-events: none;"><path d="M0,789.795523724846L14.444444444444445,787.7546284698153L28.88888888888889,785.7137332147845L43.333333333333336,785.7137332147845L57.77777777777778,779.5910474496922L72.22222222222221,775.5092569396306L86.66666666666667,775.5092569396306L101.11111111111111,773.4683616845998L115.55555555555556,771.4274664295691L130,771.4274664295691L144.44444444444443,771.4274664295691L158.88888888888889,769.3865711745383L173.33333333333334,765.3047806644767L187.77777777777777,765.3047806644767L202.22222222222223,759.1820948993844L216.66666666666666,751.0185138792613L231.11111111111111,751.0185138792613L245.55555555555554,751.0185138792613L260,751.0185138792613L274.44444444444446,751.0185138792613L288.88888888888886,748.9776186242304L303.3333333333333,746.9367233691997L317.77777777777777,746.9367233691997L332.2222222222222,744.8958281141689L346.6666666666667,744.8958281141689L361.11111111111114,742.8549328591381L375.55555555555554,742.8549328591381L390,742.8549328591381L404.44444444444446,738.7731423490766L418.8888888888889,736.7322470940458L433.3333333333333,734.691351839015" style="fill: none; stroke: #b279a2; stroke-width: 4; opacity: 0.5;"></path></g></g><path class="foreground" aria-hidden="true" d="" style="display: none; fill: none;"></path></g><g transform="translate(0,0)"><path class="background" aria-hidden="true" d="M0,0h650v800h-650Z" style="fill: none;"></path><g><g class="mark-line role-mark layer_0_layer_1_marks" role="graphics-symbol" aria-roledescription="line mark container" style="pointer-events: none;"><path d="M0,792.3433912460079L14.444444444444445,790.8120694952094L28.88888888888889,790.8120694952094L43.333333333333336,790.8120694952094L57.77777777777778,790.8120694952094L72.22222222222221,790.8120694952094L86.66666666666667,789.280747744411L101.11111111111111,787.7494259936125L115.55555555555556,786.2181042428141L130,778.5614954888218L144.44444444444443,773.9675302364266L158.88888888888889,772.4362084856281L173.33333333333334,767.8422432332328L187.77777777777777,757.1229909776437L202.22222222222223,757.1229909776437L216.66666666666666,754.0603474760468L231.11111111111111,747.935060472853L245.55555555555554,747.935060472853L260,747.935060472853L274.44444444444446,743.3410952204576L288.88888888888886,734.153164715667L303.3333333333333,728.0278777124732L317.77777777777777,720.3712689584811L332.2222222222222,712.7146602044888L346.6666666666667,703.5267296996983L361.11111111111114,682.08822518852L375.55555555555554,671.368972932931L390,657.587077175745L404.44444444444446,645.3365031693576L418.8888888888889,640.7425379169622" style="fill: none; stroke: #ff9da6; stroke-width: 4; opacity: 0.5;"></path></g></g><path class="foreground" aria-hidden="true" d="" style="display: none; fill: none;"></path></g><g transform="translate(0,0)"><path class="background" aria-hidden="true" d="M0,0h650v800h-650Z" style="fill: none;"></path><g><g class="mark-line role-mark layer_0_layer_1_marks" role="graphics-symbol" aria-roledescription="line mark container" style="pointer-events: none;"><path d="M0,795.6158907388783L14.444444444444445,795.6158907388783L28.88888888888889,793.8622470344295L43.333333333333336,793.8622470344295L57.77777777777778,792.9854251822052L72.22222222222221,791.2317814777565L86.66666666666667,787.7244940688591L101.11111111111111,786.8476722166348L115.55555555555556,786.8476722166348L130,786.8476722166348L144.44444444444443,785.9708503644105L158.88888888888889,785.9708503644105L173.33333333333334,784.2172066599618L187.77777777777777,784.2172066599618L202.22222222222223,783.3403848077375L216.66666666666666,783.3403848077375L231.11111111111111,781.5867411032887L245.55555555555554,779.83309739884L260,778.9562755466156L274.44444444444446,778.0794536943913L288.88888888888886,778.0794536943913L303.3333333333333,777.202631842167L317.77777777777777,776.3258099899426L332.2222222222222,776.3258099899426L346.6666666666667,774.572166285494L361.11111111111114,774.572166285494L375.55555555555554,773.6953444332696" style="fill: none; stroke: #9d755d; stroke-width: 4; opacity: 0.5;"></path></g></g><path class="foreground" aria-hidden="true" d="" style="display: none; fill: none;"></path></g><g transform="translate(0,0)"><path class="background" aria-hidden="true" d="M0,0h650v800h-650Z" style="fill: none;"></path><g><g class="mark-line role-mark layer_0_layer_1_marks" role="graphics-symbol" aria-roledescription="line mark container" style="pointer-events: none;"><path d="M0,790.4324274259121L14.444444444444445,789.562648100995L28.88888888888889,786.0835308013267L43.333333333333336,781.7346341767413L57.77777777777778,779.1252962019901L72.22222222222221,776.5159582272388L86.66666666666667,772.1670616026535L101.11111111111111,770.4275029528193L115.55555555555556,767.818164978068L130,765.2088270033169L144.44444444444443,761.7297097036485L158.88888888888889,758.2505924039801L173.33333333333334,753.0319164544776L187.77777777777777,747.8132405049752L202.22222222222223,742.5945645554726L216.66666666666666,733.8967713063018L231.11111111111111,723.4594194072969L245.55555555555554,713.022067508292L260,702.584715609287L274.44444444444446,691.277584385365L288.88888888888886,673.8819978870233L303.3333333333333,655.6166320637647L317.77777777777777,639.9606042152571L332.2222222222222,622.5650177169156L346.6666666666667,605.169431218574L361.11111111111114,593.862299994652" style="fill: none; stroke: #bab0ac; stroke-width: 4; opacity: 0.5;"></path></g></g><path class="foreground" aria-hidden="true" d="" style="display: none; fill: none;"></path></g><g transform="translate(0,0)"><path class="background" aria-hidden="true" d="M0,0h650v800h-650Z" style="fill: none;"></path><g><g class="mark-line role-mark layer_0_layer_1_marks" role="graphics-symbol" aria-roledescription="line mark container" style="pointer-events: none;"><path d="M0,798.2557777190451L14.444444444444445,798.2557777190451L28.88888888888889,798.2557777190451L43.333333333333336,797.3836665785677L57.77777777777778,796.8022591515828L72.22222222222221,795.9301480111053L86.66666666666667,795.6394442976128L101.11111111111111,795.0580368706278L115.55555555555556,795.0580368706278L130,794.1859257301504L144.44444444444443,793.313814589673L158.88888888888889,792.1509997357031L173.33333333333334,791.2788885952257L187.77777777777777,790.4067774547483L202.22222222222223,789.8253700277633L216.66666666666666,788.6625551737933L231.11111111111111,788.6625551737933L245.55555555555554,788.0811477468084L260,787.209036606331L274.44444444444446,786.3369254658535L288.88888888888886,785.1741106118836L303.3333333333333,784.3019994714061L317.77777777777777,783.1391846174363L332.2222222222222,782.2670734769588L346.6666666666667,781.9763697634664L361.11111111111114,779.360036342034L375.55555555555554,776.7437029206018L390,776.1622954936167L404.44444444444446,774.4180732126619L418.8888888888889,774.4180732126619" style="fill: none; stroke: #4c78a8; stroke-width: 4; opacity: 0.5;"></path></g></g><path class="foreground" aria-hidden="true" d="" style="display: none; fill: none;"></path></g><g transform="translate(0,0)"><path class="background" aria-hidden="true" d="M0,0h650v800h-650Z" style="fill: none;"></path><g><g class="mark-line role-mark layer_0_layer_1_marks" role="graphics-symbol" aria-roledescription="line mark container" style="pointer-events: none;"><path d="M0,788.9278928468043L14.444444444444445,788.9278928468043L28.88888888888889,788.9278928468043L43.333333333333336,788.9278928468043L57.77777777777778,788.9278928468043L72.22222222222221,786.7134714161651L86.66666666666667,786.7134714161651L101.11111111111111,784.499049985526L115.55555555555556,784.499049985526L130,784.499049985526L144.44444444444443,784.499049985526L158.88888888888889,780.0702071242478L173.33333333333334,780.0702071242478L187.77777777777777,780.0702071242478L202.22222222222223,780.0702071242478L216.66666666666666,780.0702071242478L231.11111111111111,780.0702071242478" style="fill: none; stroke: #f58518; stroke-width: 4; opacity: 0.5;"></path></g></g><path class="foreground" aria-hidden="true" d="" style="display: none; fill: none;"></path></g><g transform="translate(0,0)"><path class="background" aria-hidden="true" d="M0,0h650v800h-650Z" style="fill: none;"></path><g><g class="mark-line role-mark layer_0_layer_1_marks" role="graphics-symbol" aria-roledescription="line mark container" style="pointer-events: none;"><path d="M0,791.1695993678139L14.444444444444445,791.1695993678139L28.88888888888889,791.1695993678139L43.333333333333336,791.1695993678139L57.77777777777778,789.4035192413767L72.22222222222221,789.4035192413767L86.66666666666667,789.4035192413767L101.11111111111111,787.6374391149395L115.55555555555556,785.8713589885024L130,784.1052788620651L144.44444444444443,784.1052788620651L158.88888888888889,782.339198735628L173.33333333333334,780.5731186091907L187.77777777777777,780.5731186091907L202.22222222222223,780.5731186091907L216.66666666666666,780.5731186091907L231.11111111111111,778.8070384827535" style="fill: none; stroke: #e45756; stroke-width: 4; opacity: 0.5;"></path></g></g><path class="foreground" aria-hidden="true" d="" style="display: none; fill: none;"></path></g><g transform="translate(0,0)"><path class="background" aria-hidden="true" d="M0,0h650v800h-650Z" style="fill: none;"></path><g><g class="mark-line role-mark layer_0_layer_1_marks" role="graphics-symbol" aria-roledescription="line mark container" style="pointer-events: none;"><path d="M0,796.4233739842214L14.444444444444445,796.4233739842214L28.88888888888889,795.7080487810657L43.333333333333336,794.99272357791L57.77777777777778,793.5620731715985L72.22222222222221,792.1314227652872L86.66666666666667,789.9854471558201L101.11111111111111,789.9854471558201L115.55555555555556,784.97817073373L130,784.97817073373L144.44444444444443,781.4015447179515L158.88888888888889,777.1095934990173L173.33333333333334,776.3942682958615L187.77777777777777,775.6789430927058L202.22222222222223,774.96361788955L216.66666666666666,772.8176422800831L231.11111111111111,769.2410162643044L245.55555555555554,762.0877642327473L260,738.4820325286089L274.44444444444446,732.0441057002075L288.88888888888886,718.452926840249L303.3333333333333,712.7303252150033L317.77777777777777,705.5770731834461L332.2222222222222,688.4092683077091L346.6666666666667,639.7671544931208L361.11111111111114,611.8694715700481L375.55555555555554,581.1104878343524" style="fill: none; stroke: #72b7b2; stroke-width: 4; opacity: 0.5;"></path></g></g><path class="foreground" aria-hidden="true" d="" style="display: none; fill: none;"></path></g><g transform="translate(0,0)"><path class="background" aria-hidden="true" d="M0,0h650v800h-650Z" style="fill: none;"></path><g><g class="mark-line role-mark layer_0_layer_1_marks" role="graphics-symbol" aria-roledescription="line mark container" style="pointer-events: none;"><path d="M0,789.2793525249642L14.444444444444445,783.1532682535152L28.88888888888889,783.1532682535152L43.333333333333336,780.0902261177906L57.77777777777778,780.0902261177906L72.22222222222221,775.495662914204L86.66666666666667,767.8380575748927L101.11111111111111,763.2434943713059L115.55555555555556,760.1804522355815L130,757.1174100998569L144.44444444444443,755.5858890319946L158.88888888888889,750.9913258284079L173.33333333333334,749.4598047605456L187.77777777777777,740.2706783533721L202.22222222222223,738.7391572855098L216.66666666666666,732.6130730140609L231.11111111111111,729.5500308783363L245.55555555555554,724.9554676747496L260,723.4239466068873L274.44444444444446,718.8293834033005L288.88888888888886,712.7032991318515L303.3333333333333,705.0456937925403L317.77777777777777,697.388088453229L332.2222222222222,686.6674409781932L346.6666666666667,683.6043988424688" style="fill: none; stroke: #54a24b; stroke-width: 4; opacity: 0.5;"></path></g></g><path class="foreground" aria-hidden="true" d="" style="display: none; fill: none;"></path></g><g transform="translate(0,0)"><path class="background" aria-hidden="true" d="M0,0h650v800h-650Z" style="fill: none;"></path><g><g class="mark-line role-mark layer_0_layer_1_marks" role="graphics-symbol" aria-roledescription="line mark container" style="pointer-events: none;"><path d="M0,796.7804748160571L14.444444444444445,796.7804748160571L28.88888888888889,796.1365697792685L43.333333333333336,796.1365697792685L57.77777777777778,794.8487597056914L72.22222222222221,794.2048546689027L86.66666666666667,793.5609496321141L101.11111111111111,790.9853294849597L115.55555555555556,786.4779942274397L130,780.6828488963424L144.44444444444443,778.107228749188L158.88888888888889,770.380368307725L173.33333333333334,763.9413179398391L187.77777777777777,758.1461726087417L202.22222222222223,753.6388373512216L216.66666666666666,745.2680718729699L231.11111111111111,734.3216862475639L245.55555555555554,725.9509207693122L260,707.9215797392318L274.44444444444446,696.9751941138258L288.88888888888886,680.2336631573226L303.3333333333333,667.9994674583394L317.77777777777777,660.9165120536649L332.2222222222222,649.3262213914702L346.6666666666667,632.5846904349669L361.11111111111114,618.418779625618L375.55555555555554,599.1016285219603L390,573.3454270504169L404.44444444444446,554.6721809835477L418.8888888888889,532.7794097327356L433.3333333333333,510.24273344513506L447.77777777777777,472.8962413113969L462.22222222222223,453.5790902077393L476.66666666666663,436.1936542144474L491.1111111111111,411.72526281648106L505.55555555555554,395.6276368967663" style="fill: none; stroke: #eeca3b; stroke-width: 4; opacity: 0.5;"></path></g></g><path class="foreground" aria-hidden="true" d="" style="display: none; fill: none;"></path></g><g transform="translate(0,0)"><path class="background" aria-hidden="true" d="M0,0h650v800h-650Z" style="fill: none;"></path><g><g class="mark-line role-mark layer_0_layer_1_marks" role="graphics-symbol" aria-roledescription="line mark container" style="pointer-events: none;"><path d="M0,790.5997259679116L14.444444444444445,788.7196711614939L28.88888888888889,786.8396163550761L43.333333333333336,786.8396163550761L57.77777777777778,786.8396163550761L72.22222222222221,786.8396163550761L86.66666666666667,784.9595615486585L101.11111111111111,784.9595615486585L115.55555555555556,784.9595615486585L130,784.9595615486585L144.44444444444443,783.0795067422408L158.88888888888889,781.1994519358232L173.33333333333334,777.4393423229877L187.77777777777777,773.6792327101523L202.22222222222223,771.7991779037346L216.66666666666666,771.7991779037346L231.11111111111111,769.919123097317L245.55555555555554,768.0390682908992L260,766.1590134844815L274.44444444444446,762.3989038716462L288.88888888888886,760.5188490652286L303.3333333333333,754.8786846459755L317.77777777777777,754.8786846459755L332.2222222222222,754.8786846459755L346.6666666666667,751.1185750331401L361.11111111111114,747.3584654203047" style="fill: none; stroke: #b279a2; stroke-width: 4; opacity: 0.5;"></path></g></g><path class="foreground" aria-hidden="true" d="" style="display: none; fill: none;"></path></g><g transform="translate(0,0)"><path class="background" aria-hidden="true" d="M0,0h650v800h-650Z" style="fill: none;"></path><g><g class="mark-line role-mark layer_0_layer_1_marks" role="graphics-symbol" aria-roledescription="line mark container" style="pointer-events: none;"><path d="M0,797.3089604264534L14.444444444444445,796.2325445970347L28.88888888888889,794.6179208529066L43.333333333333336,792.4650891940694L57.77777777777778,791.92688127936L72.22222222222221,790.8504654499413L86.66666666666667,787.083010046976L101.11111111111111,786.0065942175573L115.55555555555556,785.468386302848L130,783.3155546440108L144.44444444444443,782.2391388145921L158.88888888888889,779.0098913263362L173.33333333333334,777.9334754969175L187.77777777777777,776.8570596674988L202.22222222222223,776.3188517527894L216.66666666666666,773.6278121792428L231.11111111111111,772.0131884351148L245.55555555555554,771.4749805204054L260,770.3985646909869L274.44444444444446,767.7075251174401L288.88888888888886,766.6311092880215L303.3333333333333,763.9400697144748L317.77777777777777,761.7872380556375L332.2222222222222,759.6344063968002L346.6666666666667,758.5579905673815L361.11111111111114,757.4815747379629L375.55555555555554,754.7905351644162L390,752.637703505579L404.44444444444446,750.4848718467416L418.8888888888889,749.9466639320323" style="fill: none; stroke: #ff9da6; stroke-width: 4; opacity: 0.5;"></path></g></g><path class="foreground" aria-hidden="true" d="" style="display: none; fill: none;"></path></g><g transform="translate(0,0)"><path class="background" aria-hidden="true" d="M0,0h650v800h-650Z" style="fill: none;"></path><g><g class="mark-line role-mark layer_0_layer_1_marks" role="graphics-symbol" aria-roledescription="line mark container" style="pointer-events: none;"><path d="M0,797.8613843716092L14.444444444444445,797.1485124954789L28.88888888888889,796.7920765574138L43.333333333333336,796.4356406193486L57.77777777777778,795.3663328051532L72.22222222222221,793.9405890528926L86.66666666666667,793.5841531148275L101.11111111111111,791.8019734245017L115.55555555555556,790.0197937341761L130,785.3861265393293L144.44444444444443,783.2475109109384L158.88888888888889,779.326715592222L173.33333333333334,777.1880999638311L187.77777777777777,774.6930483973752L202.22222222222223,768.2772015122026L216.66666666666666,762.2177905650954L231.11111111111111,756.514815556053L245.55555555555554,747.6039171044246L260,744.7524295999035L274.44444444444446,739.4058905289263L288.88888888888886,735.1286592721447L303.3333333333333,720.158349873409L317.77777777777777,705.5444764127382L332.2222222222222,692.7127826423932L346.6666666666667,678.4553451197876L361.11111111111114,662.0592919687912L375.55555555555554,656.7127528978142L390,649.5840341365114L404.44444444444446,635.6830325519709L418.8888888888889,625.3463903480819L433.3333333333333,611.0889528254763L447.77777777777777,596.8315153028708L462.22222222222223,580.7918980899395L476.66666666666663,570.0988199479854L491.1111111111111,558.6928699299009L505.55555555555554,536.9502777079274L520,516.9898651762796L534.4444444444445,495.6037088923714L548.8888888888889,471.7225010420071L563.3333333333334,453.90070413875014" style="fill: none; stroke: #9d755d; stroke-width: 4; opacity: 0.5;"></path></g></g><path class="foreground" aria-hidden="true" d="" style="display: none; fill: none;"></path></g><g transform="translate(0,0)"><path class="background" aria-hidden="true" d="M0,0h650v800h-650Z" style="fill: none;"></path><g><g class="mark-line role-mark layer_0_layer_1_marks" role="graphics-symbol" aria-roledescription="line mark container" style="pointer-events: none;"><path d="M0,789.4711649096563L14.444444444444445,787.7163590612657L28.88888888888889,787.7163590612657L43.333333333333336,785.9615532128752L57.77777777777778,780.6971356677033L72.22222222222221,780.6971356677033L86.66666666666667,780.6971356677033L101.11111111111111,777.1875239709221L115.55555555555556,770.1683005773597L130,768.413494728969L144.44444444444443,766.6586888805784L158.88888888888889,764.9038830321878L173.33333333333334,759.639465487016L187.77777777777777,757.8846596386254L202.22222222222223,754.3750479418441L216.66666666666666,752.6202420934536L231.11111111111111,750.8654362450629L245.55555555555554,749.1106303966723L260,740.3366011547192L274.44444444444446,733.3173777611569L288.88888888888886,729.8077660643755L303.3333333333333,722.7885426708132L317.77777777777777,721.0337368224225L332.2222222222222,715.7693192772507L346.6666666666667,705.2404841869071L361.11111111111114,701.7308724901259L375.55555555555554,701.7308724901259L390,696.4664549449541L404.44444444444446,692.9568432481728" style="fill: none; stroke: #bab0ac; stroke-width: 4; opacity: 0.5;"></path></g></g><path class="foreground" aria-hidden="true" d="" style="display: none; fill: none;"></path></g><g transform="translate(0,0)"><path class="background" aria-hidden="true" d="M0,0h650v800h-650Z" style="fill: none;"></path><g><g class="mark-line role-mark layer_0_layer_1_marks" role="graphics-symbol" aria-roledescription="line mark container" style="pointer-events: none;"><path d="M0,782.6869244078658L14.444444444444445,782.6869244078658L28.88888888888889,782.6869244078658L43.333333333333336,779.2243092894389L57.77777777777778,775.7616941710121L72.22222222222221,765.3738488157315L86.66666666666667,765.3738488157315L101.11111111111111,761.9112336973047L115.55555555555556,748.0607732235973L130,744.5981581051705L144.44444444444443,737.6729278683167L158.88888888888889,720.3598522761826" style="fill: none; stroke: #4c78a8; stroke-width: 4; opacity: 0.5;"></path></g></g><path class="foreground" aria-hidden="true" d="" style="display: none; fill: none;"></path></g><g transform="translate(0,0)"><path class="background" aria-hidden="true" d="M0,0h650v800h-650Z" style="fill: none;"></path><g><g class="mark-line role-mark layer_0_layer_1_marks" role="graphics-symbol" aria-roledescription="line mark container" style="pointer-events: none;"><path d="M0,728.8879226676477L14.444444444444445,728.8879226676477L28.88888888888889,728.8879226676477" style="fill: none; stroke: #f58518; stroke-width: 4; opacity: 0.5;"></path></g></g><path class="foreground" aria-hidden="true" d="" style="display: none; fill: none;"></path></g><g transform="translate(0,0)"><path class="background" aria-hidden="true" d="M0,0h650v800h-650Z" style="fill: none;"></path><g><g class="mark-line role-mark layer_0_layer_1_marks" role="graphics-symbol" aria-roledescription="line mark container" style="pointer-events: none;"><path d="M0,797.2955450114715L14.444444444444445,797.2955450114715L28.88888888888889,796.7546540137658L43.333333333333336,796.2137630160602L57.77777777777778,796.2137630160602L72.22222222222221,795.6728720183544L86.66666666666667,795.6728720183544L101.11111111111111,794.591090022943L115.55555555555556,792.4275260321202L130,791.8866350344146L144.44444444444443,791.3457440367089L158.88888888888889,791.3457440367089L173.33333333333334,790.8048530390031L187.77777777777777,790.2639620412975L202.22222222222223,789.7230710435917L216.66666666666666,788.6412890481804L231.11111111111111,787.0186160550633L245.55555555555554,787.0186160550633L260,785.9368340596519L274.44444444444446,785.3959430619462L288.88888888888886,785.3959430619462L303.3333333333333,784.8550520642405L317.77777777777777,784.3141610665348L332.2222222222222,781.6097060780064L346.6666666666667,781.0688150803006L361.11111111111114,779.4461420871835L375.55555555555554,775.6599051032437L390,773.4963411124209L404.44444444444446,772.4145591170095L418.8888888888889,768.6283221330697L433.3333333333333,766.4647581422469L447.77777777777777,764.8420851491297" style="fill: none; stroke: #e45756; stroke-width: 4; opacity: 0.5;"></path></g></g><path class="foreground" aria-hidden="true" d="" style="display: none; fill: none;"></path></g><g transform="translate(0,0)"><path class="background" aria-hidden="true" d="M0,0h650v800h-650Z" style="fill: none;"></path><g><g class="mark-line role-mark layer_0_layer_1_marks" role="graphics-symbol" aria-roledescription="line mark container" style="pointer-events: none;"><path d="M0,795.7054932024184L14.444444444444445,795.7054932024184L28.88888888888889,791.4109864048369L43.333333333333336,791.4109864048369L57.77777777777778,790.5520850453206L72.22222222222221,787.1164796072553L86.66666666666667,785.3986768882227L101.11111111111111,784.5397755287064L115.55555555555556,784.5397755287064L130,781.9630714501575L144.44444444444443,779.3863673716086L158.88888888888889,777.6685646525759L173.33333333333334,775.9507619335433L187.77777777777777,775.091860574027L202.22222222222223,774.2329592145107L216.66666666666666,773.3740578549944L231.11111111111111,772.515156495478L245.55555555555554,769.9384524169292L260,769.9384524169292L274.44444444444446,768.2206496978964L288.88888888888886,766.5028469788639L303.3333333333333,763.9261429003149L317.77777777777777,763.9261429003149L332.2222222222222,763.9261429003149L346.6666666666667,763.0672415407986L361.11111111111114,762.2083401812823L375.55555555555554,762.2083401812823L390,760.4905374622497L404.44444444444446,758.772734743217L418.8888888888889,757.0549320241844L433.3333333333333,755.3371293051518" style="fill: none; stroke: #72b7b2; stroke-width: 4; opacity: 0.5;"></path></g></g><path class="foreground" aria-hidden="true" d="" style="display: none; fill: none;"></path></g><g transform="translate(0,0)"><path class="background" aria-hidden="true" d="M0,0h650v800h-650Z" style="fill: none;"></path><g><g class="mark-line role-mark layer_0_layer_1_marks" role="graphics-symbol" aria-roledescription="line mark container" style="pointer-events: none;"><path d="M0,786.6144845733273L14.444444444444445,786.6144845733273L28.88888888888889,786.6144845733273L43.333333333333336,781.2602784026583L57.77777777777778,781.2602784026583L72.22222222222221,778.5831753173237L86.66666666666667,778.5831753173237L101.11111111111111,775.9060722319891L115.55555555555556,775.9060722319891L130,770.5518660613201L144.44444444444443,770.5518660613201L158.88888888888889,770.5518660613201L173.33333333333334,762.5205568053165L187.77777777777777,762.5205568053165L202.22222222222223,762.5205568053165" style="fill: none; stroke: #54a24b; stroke-width: 4; opacity: 0.5;"></path></g></g><path class="foreground" aria-hidden="true" d="" style="display: none; fill: none;"></path></g><g transform="translate(0,0)"><path class="background" aria-hidden="true" d="M0,0h650v800h-650Z" style="fill: none;"></path><g><g class="mark-line role-mark layer_0_layer_1_marks" role="graphics-symbol" aria-roledescription="line mark container" style="pointer-events: none;"><path d="M0,799.3299244771113L14.444444444444445,798.7938640588002L28.88888888888889,797.9897734313337L43.333333333333336,797.0516676992894L57.77777777777778,795.9795468626673L72.22222222222221,794.6393958168896L86.66666666666667,793.5672749802676L101.11111111111111,792.22712393449L115.55555555555556,790.8869728887125L130,788.7427312154684L144.44444444444443,786.8665197513798L158.88888888888889,784.8562931827134L173.33333333333334,781.773945777425L187.77777777777777,778.0215228492478L202.22222222222223,774.8051603393817L216.66666666666666,770.6506920974712L231.11111111111111,765.1560728097832L245.55555555555554,763.1458462411168L260,759.2594082083618L274.44444444444446,750.280396201652L288.88888888888886,742.6415352407199L303.3333333333333,733.5285081294325L317.77777777777777,727.6318435280111L332.2222222222222,724.9515414364561L346.6666666666667,721.1991185082788L361.11111111111114,718.5188164167237L375.55555555555554,706.8595023184588L390,695.7362486385049L404.44444444444446,685.6851157951731L418.8888888888889,675.6339829518414L433.3333333333333,667.1910313634428L447.77777777777777,663.9746688535765L462.22222222222223,661.0263365528658L476.66666666666663,653.5214906965115L491.1111111111111,648.0268714088235L505.55555555555554,619.7496843429167L520,597.3691618784312L534.4444444444445,576.5968206688789L548.8888888888889,572.1743222178128L563.3333333333334,555.4224341455932L577.7777777777777,525.4030507201757L592.2222222222222,498.86806001377977L606.6666666666666,481.71412662782683L621.1111111111111,463.48807240525184L635.5555555555555,453.4369395619201" style="fill: none; stroke: #eeca3b; stroke-width: 4; opacity: 0.5;"></path></g></g><path class="foreground" aria-hidden="true" d="" style="display: none; fill: none;"></path></g></g><g class="mark-text role-mark layer_0_layer_2_marks" role="graphics-object" aria-roledescription="text mark container" style="pointer-events: none;"><text text-anchor="start" transform="translate(236.11111111111111,651.4913906528085)" style="font-family: sans-serif; font-size: 15px; fill: #4c78a8;">AC</text><text text-anchor="start" transform="translate(250.55555555555554,698.052173644271)" style="font-family: sans-serif; font-size: 15px; fill: #f58518;">AL</text><text text-anchor="start" transform="translate(423.8888888888889,61.12142191944764)" style="font-family: sans-serif; font-size: 15px; fill: #e45756;">AM</text><text text-anchor="start" transform="translate(308.3333333333333,513.9454612000196)" style="font-family: sans-serif; font-size: 15px; fill: #72b7b2;">AP</text><text text-anchor="start" transform="translate(423.8888888888889,754.1077913116574)" style="font-family: sans-serif; font-size: 15px; fill: #54a24b;">BA</text><text text-anchor="start" transform="translate(496.1111111111111,375.070049100123)" style="font-family: sans-serif; font-size: 15px; fill: #eeca3b;">CE</text><text text-anchor="start" transform="translate(438.3333333333333,739.691351839015)" style="font-family: sans-serif; font-size: 15px; fill: #b279a2;">DF</text><text text-anchor="start" transform="translate(423.8888888888889,645.7425379169622)" style="font-family: sans-serif; font-size: 15px; fill: #ff9da6;">ES</text><text text-anchor="start" transform="translate(380.55555555555554,778.6953444332696)" style="font-family: sans-serif; font-size: 15px; fill: #9d755d;">GO</text><text text-anchor="start" transform="translate(366.11111111111114,598.862299994652)" style="font-family: sans-serif; font-size: 15px; fill: #bab0ac;">MA</text><text text-anchor="start" transform="translate(423.8888888888889,779.4180732126619)" style="font-family: sans-serif; font-size: 15px; fill: #4c78a8;">MG</text><text text-anchor="start" transform="translate(236.11111111111111,785.0702071242478)" style="font-family: sans-serif; font-size: 15px; fill: #f58518;">MS</text><text text-anchor="start" transform="translate(236.11111111111111,783.8070384827535)" style="font-family: sans-serif; font-size: 15px; fill: #e45756;">MT</text><text text-anchor="start" transform="translate(380.55555555555554,586.1104878343524)" style="font-family: sans-serif; font-size: 15px; fill: #72b7b2;">PA</text><text text-anchor="start" transform="translate(351.6666666666667,688.6043988424688)" style="font-family: sans-serif; font-size: 15px; fill: #54a24b;">PB</text><text text-anchor="start" transform="translate(510.55555555555554,400.6276368967663)" style="font-family: sans-serif; font-size: 15px; fill: #eeca3b;">PE</text><text text-anchor="start" transform="translate(366.11111111111114,752.3584654203047)" style="font-family: sans-serif; font-size: 15px; fill: #b279a2;">PI</text><text text-anchor="start" transform="translate(423.8888888888889,754.9466639320323)" style="font-family: sans-serif; font-size: 15px; fill: #ff9da6;">PR</text><text text-anchor="start" transform="translate(568.3333333333334,458.90070413875014)" style="font-family: sans-serif; font-size: 15px; fill: #9d755d;">RJ</text><text text-anchor="start" transform="translate(409.44444444444446,697.9568432481728)" style="font-family: sans-serif; font-size: 15px; fill: #bab0ac;">RN</text><text text-anchor="start" transform="translate(163.88888888888889,725.3598522761826)" style="font-family: sans-serif; font-size: 15px; fill: #4c78a8;">RO</text><text text-anchor="start" transform="translate(33.888888888888886,733.8879226676477)" style="font-family: sans-serif; font-size: 15px; fill: #f58518;">RR</text><text text-anchor="start" transform="translate(452.77777777777777,769.8420851491297)" style="font-family: sans-serif; font-size: 15px; fill: #e45756;">RS</text><text text-anchor="start" transform="translate(438.3333333333333,760.3371293051518)" style="font-family: sans-serif; font-size: 15px; fill: #72b7b2;">SC</text><text text-anchor="start" transform="translate(207.22222222222223,767.5205568053165)" style="font-family: sans-serif; font-size: 15px; fill: #54a24b;">SE</text><text text-anchor="start" transform="translate(640.5555555555555,458.4369395619201)" style="font-family: sans-serif; font-size: 15px; fill: #eeca3b;">SP</text></g><g class="mark-group role-title"><g transform="translate(325,-34)"><path class="background" aria-hidden="true" d="M0,0h0v0h0Z" style="pointer-events: none; fill: none;"></path><g><g class="mark-text role-title-text" role="graphics-symbol" aria-roledescription="title" aria-label="Title text 'Mortes confirmadas pelo COVID-19 a cada 100 mil habitantes'" style="pointer-events: none;"><text text-anchor="middle" transform="translate(0,18)" style="font-family: sans-serif; font-size: 23px; font-weight: bold; fill: #000; opacity: 1;">Mortes confirmadas pelo COVID-19 a cada 100 mil habitantes</text></g></g><path class="foreground" aria-hidden="true" d="" style="pointer-events: none; display: none; fill: none;"></path></g></g></g><path class="foreground" aria-hidden="true" d="" style="display: none; fill: none;"></path></g></g></g></svg>