<svg class="marks" width="738" height="890" viewBox="0 0 738 890" version="1.1" xmlns="http://www.w3.org/2000/svg" xmlns:xlink="http://www.w3.org/1999/xlink"><rect width="738" height="890" style="fill: white;"></rect><g transform="translate(57,39)"><g class="mark-group role-frame root"><g transform="translate(0,0)"><path class="background" d="M0.5,0.5h650v800h-650Z" style="fill: none; stroke: #ddd;"></path><g><g class="mark-group role-axis"><g transform="translate(0.5,800.5)"><path class="background" d="M0,0h0v0h0Z" style="pointer-events: none; fill: none;"></path><g><g class="mark-rule role-axis-grid" style="pointer-events: none;"><line transform="translate(0,-800)" x2="0" y2="800" style="fill: none; stroke: #ddd; stroke-width: 1; opacity: 1;"></line><line transform="translate(37,-800)" x2="0" y2="800" style="fill: none; stroke: #ddd; stroke-width: 1; opacity: 1;"></line><line transform="translate(74,-800)" x2="0" y2="800" style="fill: none; stroke: #ddd; stroke-width: 1; opacity: 1;"></line><line transform="translate(111,-800)" x2="0" y2="800" style="fill: none; stroke: #ddd; stroke-width: 1; opacity: 1;"></line><line transform="translate(149,-800)" x2="0" y2="800" style="fill: none; stroke: #ddd; stroke-width: 1; opacity: 1;"></line><line transform="translate(186,-800)" x2="0" y2="800" style="fill: none; stroke: #ddd; stroke-width: 1; opacity: 1;"></line><line transform="translate(223,-800)" x2="0" y2="800" style="fill: none; stroke: #ddd; stroke-width: 1; opacity: 1;"></line><line transform="translate(260,-800)" x2="0" y2="800" style="fill: none; stroke: #ddd; stroke-width: 1; opacity: 1;"></line><line transform="translate(297,-800)" x2="0" y2="800" style="fill: none; stroke: #ddd; stroke-width: 1; opacity: 1;"></line><line transform="translate(334,-800)" x2="0" y2="800" style="fill: none; stroke: #ddd; stroke-width: 1; opacity: 1;"></line><line transform="translate(371,-800)" x2="0" y2="800" style="fill: none; stroke: #ddd; stroke-width: 1; opacity: 1;"></line><line transform="translate(409,-800)" x2="0" y2="800" style="fill: none; stroke: #ddd; stroke-width: 1; opacity: 1;"></line><line transform="translate(446,-800)" x2="0" y2="800" style="fill: none; stroke: #ddd; stroke-width: 1; opacity: 1;"></line><line transform="translate(483,-800)" x2="0" y2="800" style="fill: none; stroke: #ddd; stroke-width: 1; opacity: 1;"></line><line transform="translate(520,-800)" x2="0" y2="800" style="fill: none; stroke: #ddd; stroke-width: 1; opacity: 1;"></line><line transform="translate(557,-800)" x2="0" y2="800" style="fill: none; stroke: #ddd; stroke-width: 1; opacity: 1;"></line><line transform="translate(594,-800)" x2="0" y2="800" style="fill: none; stroke: #ddd; stroke-width: 1; opacity: 1;"></line><line transform="translate(631,-800)" x2="0" y2="800" style="fill: none; stroke: #ddd; stroke-width: 1; opacity: 1;"></line></g></g><path class="foreground" d="" style="pointer-events: none; display: none; fill: none;"></path></g></g><g class="mark-group role-axis"><g transform="translate(0.5,0.5)"><path class="background" d="M0,0h0v0h0Z" style="pointer-events: none; fill: none;"></path><g><g class="mark-rule role-axis-grid" style="pointer-events: none;"><line transform="translate(0,800)" x2="650" y2="0" style="fill: none; stroke: #ddd; stroke-width: 1; opacity: 1;"></line><line transform="translate(0,773)" x2="650" y2="0" style="fill: none; stroke: #ddd; stroke-width: 1; opacity: 1;"></line><line transform="translate(0,747)" x2="650" y2="0" style="fill: none; stroke: #ddd; stroke-width: 1; opacity: 1;"></line><line transform="translate(0,720)" x2="650" y2="0" style="fill: none; stroke: #ddd; stroke-width: 1; opacity: 1;"></line><line transform="translate(0,693)" x2="650" y2="0" style="fill: none; stroke: #ddd; stroke-width: 1; opacity: 1;"></line><line transform="translate(0,667)" x2="650" y2="0" style="fill: none; stroke: #ddd; stroke-width: 1; opacity: 1;"></line><line transform="translate(0,640)" x2="650" y2="0" style="fill: none; stroke: #ddd; stroke-width: 1; opacity: 1;"></line><line transform="translate(0,613)" x2="650" y2="0" style="fill: none; stroke: #ddd; stroke-width: 1; opacity: 1;"></line><line transform="translate(0,587)" x2="650" y2="0" style="fill: none; stroke: #ddd; stroke-width: 1; opacity: 1;"></line><line transform="translate(0,560)" x2="650" y2="0" style="fill: none; stroke: #ddd; stroke-width: 1; opacity: 1;"></line><line transform="translate(0,533)" x2="650" y2="0" style="fill: none; stroke: #ddd; stroke-width: 1; opacity: 1;"></line><line transform="translate(0,507)" x2="650" y2="0" style="fill: none; stroke: #ddd; stroke-width: 1; opacity: 1;"></line><line transform="translate(0,480)" x2="650" y2="0" style="fill: none; stroke: #ddd; stroke-width: 1; opacity: 1;"></line><line transform="translate(0,453)" x2="650" y2="0" style="fill: none; stroke: #ddd; stroke-width: 1; opacity: 1;"></line><line transform="translate(0,427)" x2="650" y2="0" style="fill: none; stroke: #ddd; stroke-width: 1; opacity: 1;"></line><line transform="translate(0,400)" x2="650" y2="0" style="fill: none; stroke: #ddd; stroke-width: 1; opacity: 1;"></line><line transform="translate(0,373)" x2="650" y2="0" style="fill: none; stroke: #ddd; stroke-width: 1; opacity: 1;"></line><line transform="translate(0,347)" x2="650" y2="0" style="fill: none; stroke: #ddd; stroke-width: 1; opacity: 1;"></line><line transform="translate(0,320)" x2="650" y2="0" style="fill: none; stroke: #ddd; stroke-width: 1; opacity: 1;"></line><line transform="translate(0,293)" x2="650" y2="0" style="fill: none; stroke: #ddd; stroke-width: 1; opacity: 1;"></line><line transform="translate(0,267)" x2="650" y2="0" style="fill: none; stroke: #ddd; stroke-width: 1; opacity: 1;"></line><line transform="translate(0,240)" x2="650" y2="0" style="fill: none; stroke: #ddd; stroke-width: 1; opacity: 1;"></line><line transform="translate(0,213)" x2="650" y2="0" style="fill: none; stroke: #ddd; stroke-width: 1; opacity: 1;"></line><line transform="translate(0,187)" x2="650" y2="0" style="fill: none; stroke: #ddd; stroke-width: 1; opacity: 1;"></line><line transform="translate(0,160)" x2="650" y2="0" style="fill: none; stroke: #ddd; stroke-width: 1; opacity: 1;"></line><line transform="translate(0,133)" x2="650" y2="0" style="fill: none; stroke: #ddd; stroke-width: 1; opacity: 1;"></line><line transform="translate(0,107)" x2="650" y2="0" style="fill: none; stroke: #ddd; stroke-width: 1; opacity: 1;"></line><line transform="translate(0,80)" x2="650" y2="0" style="fill: none; stroke: #ddd; stroke-width: 1; opacity: 1;"></line><line transform="translate(0,53)" x2="650" y2="0" style="fill: none; stroke: #ddd; stroke-width: 1; opacity: 1;"></line><line transform="translate(0,27)" x2="650" y2="0" style="fill: none; stroke: #ddd; stroke-width: 1; opacity: 1;"></line><line transform="translate(0,0)" x2="650" y2="0" style="fill: none; stroke: #ddd; stroke-width: 1; opacity: 1;"></line></g></g><path class="foreground" d="" style="pointer-events: none; display: none; fill: none;"></path></g></g><g class="mark-group role-axis"><g transform="translate(0.5,800.5)"><path class="background" d="M0,0h0v0h0Z" style="pointer-events: none; fill: none;"></path><g><g class="mark-rule role-axis-tick" style="pointer-events: none;"><line transform="translate(0,0)" x2="0" y2="5" style="fill: none; stroke: #888; stroke-width: 1; opacity: 1;"></line><line transform="translate(37,0)" x2="0" y2="5" style="fill: none; stroke: #888; stroke-width: 1; opacity: 1;"></line><line transform="translate(74,0)" x2="0" y2="5" style="fill: none; stroke: #888; stroke-width: 1; opacity: 1;"></line><line transform="translate(111,0)" x2="0" y2="5" style="fill: none; stroke: #888; stroke-width: 1; opacity: 1;"></line><line transform="translate(149,0)" x2="0" y2="5" style="fill: none; stroke: #888; stroke-width: 1; opacity: 1;"></line><line transform="translate(186,0)" x2="0" y2="5" style="fill: none; stroke: #888; stroke-width: 1; opacity: 1;"></line><line transform="translate(223,0)" x2="0" y2="5" style="fill: none; stroke: #888; stroke-width: 1; opacity: 1;"></line><line transform="translate(260,0)" x2="0" y2="5" style="fill: none; stroke: #888; stroke-width: 1; opacity: 1;"></line><line transform="translate(297,0)" x2="0" y2="5" style="fill: none; stroke: #888; stroke-width: 1; opacity: 1;"></line><line transform="translate(334,0)" x2="0" y2="5" style="fill: none; stroke: #888; stroke-width: 1; opacity: 1;"></line><line transform="translate(371,0)" x2="0" y2="5" style="fill: none; stroke: #888; stroke-width: 1; opacity: 1;"></line><line transform="translate(409,0)" x2="0" y2="5" style="fill: none; stroke: #888; stroke-width: 1; opacity: 1;"></line><line transform="translate(446,0)" x2="0" y2="5" style="fill: none; stroke: #888; stroke-width: 1; opacity: 1;"></line><line transform="translate(483,0)" x2="0" y2="5" style="fill: none; stroke: #888; stroke-width: 1; opacity: 1;"></line><line transform="translate(520,0)" x2="0" y2="5" style="fill: none; stroke: #888; stroke-width: 1; opacity: 1;"></line><line transform="translate(557,0)" x2="0" y2="5" style="fill: none; stroke: #888; stroke-width: 1; opacity: 1;"></line><line transform="translate(594,0)" x2="0" y2="5" style="fill: none; stroke: #888; stroke-width: 1; opacity: 1;"></line><line transform="translate(631,0)" x2="0" y2="5" style="fill: none; stroke: #888; stroke-width: 1; opacity: 1;"></line></g><g class="mark-text role-axis-label" style="pointer-events: none;"><text text-anchor="start" transform="translate(0,19)" style="font-family: sans-serif; font-size: 15px; fill: #000; opacity: 1;">0</text><text text-anchor="middle" transform="translate(37.14285714285714,19)" style="font-family: sans-serif; font-size: 15px; fill: #000; opacity: 1;">2</text><text text-anchor="middle" transform="translate(74.28571428571428,19)" style="font-family: sans-serif; font-size: 15px; fill: #000; opacity: 1;">4</text><text text-anchor="middle" transform="translate(111.42857142857143,19)" style="font-family: sans-serif; font-size: 15px; fill: #000; opacity: 1;">6</text><text text-anchor="middle" transform="translate(148.57142857142856,19)" style="font-family: sans-serif; font-size: 15px; fill: #000; opacity: 1;">8</text><text text-anchor="middle" transform="translate(185.7142857142857,19)" style="font-family: sans-serif; font-size: 15px; fill: #000; opacity: 1;">10</text><text text-anchor="middle" transform="translate(222.85714285714286,19)" style="font-family: sans-serif; font-size: 15px; fill: #000; opacity: 1;">12</text><text text-anchor="middle" transform="translate(260,19)" style="font-family: sans-serif; font-size: 15px; fill: #000; opacity: 1;">14</text><text text-anchor="middle" transform="translate(297.1428571428571,19)" style="font-family: sans-serif; font-size: 15px; fill: #000; opacity: 1;">16</text><text text-anchor="middle" transform="translate(334.2857142857143,19)" style="font-family: sans-serif; font-size: 15px; fill: #000; opacity: 1;">18</text><text text-anchor="middle" transform="translate(371.4285714285714,19)" style="font-family: sans-serif; font-size: 15px; fill: #000; opacity: 1;">20</text><text text-anchor="middle" transform="translate(408.57142857142856,19)" style="font-family: sans-serif; font-size: 15px; fill: #000; opacity: 1;">22</text><text text-anchor="middle" transform="translate(445.7142857142857,19)" style="font-family: sans-serif; font-size: 15px; fill: #000; opacity: 1;">24</text><text text-anchor="middle" transform="translate(482.8571428571429,19)" style="font-family: sans-serif; font-size: 15px; fill: #000; opacity: 1;">26</text><text text-anchor="middle" transform="translate(520,19)" style="font-family: sans-serif; font-size: 15px; fill: #000; opacity: 1;">28</text><text text-anchor="middle" transform="translate(557.1428571428571,19)" style="font-family: sans-serif; font-size: 15px; fill: #000; opacity: 1;">30</text><text text-anchor="middle" transform="translate(594.2857142857142,19)" style="font-family: sans-serif; font-size: 15px; fill: #000; opacity: 1;">32</text><text text-anchor="middle" transform="translate(631.4285714285714,19)" style="font-family: sans-serif; font-size: 15px; fill: #000; opacity: 1;">34</text></g><g class="mark-rule role-axis-domain" style="pointer-events: none;"><line transform="translate(0,0)" x2="650" y2="0" style="fill: none; stroke: #888; stroke-width: 1; opacity: 1;"></line></g><g class="mark-text role-axis-title" style="pointer-events: none;"><text text-anchor="middle" transform="translate(325,42)" style="font-family: sans-serif; font-size: 20px; font-weight: bold; fill: #000; opacity: 1;">Dias a partir da 5a morte no estado</text></g></g><path class="foreground" d="" style="pointer-events: none; display: none; fill: none;"></path></g></g><g class="mark-group role-axis"><g transform="translate(0.5,0.5)"><path class="background" d="M0,0h0v0h0Z" style="pointer-events: none; fill: none;"></path><g><g class="mark-rule role-axis-tick" style="pointer-events: none;"><line transform="translate(0,800)" x2="-5" y2="0" style="fill: none; stroke: #888; stroke-width: 1; opacity: 1;"></line><line transform="translate(0,773)" x2="-5" y2="0" style="fill: none; stroke: #888; stroke-width: 1; opacity: 1;"></line><line transform="translate(0,747)" x2="-5" y2="0" style="fill: none; stroke: #888; stroke-width: 1; opacity: 1;"></line><line transform="translate(0,720)" x2="-5" y2="0" style="fill: none; stroke: #888; stroke-width: 1; opacity: 1;"></line><line transform="translate(0,693)" x2="-5" y2="0" style="fill: none; stroke: #888; stroke-width: 1; opacity: 1;"></line><line transform="translate(0,667)" x2="-5" y2="0" style="fill: none; stroke: #888; stroke-width: 1; opacity: 1;"></line><line transform="translate(0,640)" x2="-5" y2="0" style="fill: none; stroke: #888; stroke-width: 1; opacity: 1;"></line><line transform="translate(0,613)" x2="-5" y2="0" style="fill: none; stroke: #888; stroke-width: 1; opacity: 1;"></line><line transform="translate(0,587)" x2="-5" y2="0" style="fill: none; stroke: #888; stroke-width: 1; opacity: 1;"></line><line transform="translate(0,560)" x2="-5" y2="0" style="fill: none; stroke: #888; stroke-width: 1; opacity: 1;"></line><line transform="translate(0,533)" x2="-5" y2="0" style="fill: none; stroke: #888; stroke-width: 1; opacity: 1;"></line><line transform="translate(0,507)" x2="-5" y2="0" style="fill: none; stroke: #888; stroke-width: 1; opacity: 1;"></line><line transform="translate(0,480)" x2="-5" y2="0" style="fill: none; stroke: #888; stroke-width: 1; opacity: 1;"></line><line transform="translate(0,453)" x2="-5" y2="0" style="fill: none; stroke: #888; stroke-width: 1; opacity: 1;"></line><line transform="translate(0,427)" x2="-5" y2="0" style="fill: none; stroke: #888; stroke-width: 1; opacity: 1;"></line><line transform="translate(0,400)" x2="-5" y2="0" style="fill: none; stroke: #888; stroke-width: 1; opacity: 1;"></line><line transform="translate(0,373)" x2="-5" y2="0" style="fill: none; stroke: #888; stroke-width: 1; opacity: 1;"></line><line transform="translate(0,347)" x2="-5" y2="0" style="fill: none; stroke: #888; stroke-width: 1; opacity: 1;"></line><line transform="translate(0,320)" x2="-5" y2="0" style="fill: none; stroke: #888; stroke-width: 1; opacity: 1;"></line><line transform="translate(0,293)" x2="-5" y2="0" style="fill: none; stroke: #888; stroke-width: 1; opacity: 1;"></line><line transform="translate(0,267)" x2="-5" y2="0" style="fill: none; stroke: #888; stroke-width: 1; opacity: 1;"></line><line transform="translate(0,240)" x2="-5" y2="0" style="fill: none; stroke: #888; stroke-width: 1; opacity: 1;"></line><line transform="translate(0,213)" x2="-5" y2="0" style="fill: none; stroke: #888; stroke-width: 1; opacity: 1;"></line><line transform="translate(0,187)" x2="-5" y2="0" style="fill: none; stroke: #888; stroke-width: 1; opacity: 1;"></line><line transform="translate(0,160)" x2="-5" y2="0" style="fill: none; stroke: #888; stroke-width: 1; opacity: 1;"></line><line transform="translate(0,133)" x2="-5" y2="0" style="fill: none; stroke: #888; stroke-width: 1; opacity: 1;"></line><line transform="translate(0,107)" x2="-5" y2="0" style="fill: none; stroke: #888; stroke-width: 1; opacity: 1;"></line><line transform="translate(0,80)" x2="-5" y2="0" style="fill: none; stroke: #888; stroke-width: 1; opacity: 1;"></line><line transform="translate(0,53)" x2="-5" y2="0" style="fill: none; stroke: #888; stroke-width: 1; opacity: 1;"></line><line transform="translate(0,27)" x2="-5" y2="0" style="fill: none; stroke: #888; stroke-width: 1; opacity: 1;"></line><line transform="translate(0,0)" x2="-5" y2="0" style="fill: none; stroke: #888; stroke-width: 1; opacity: 1;"></line></g><g class="mark-text role-axis-label" style="pointer-events: none;"><text text-anchor="end" transform="translate(-7,805)" style="font-family: sans-serif; font-size: 15px; fill: #000; opacity: 1;">0.0</text><text text-anchor="end" transform="translate(-7,778.3333333333334)" style="font-family: sans-serif; font-size: 15px; fill: #000; opacity: 1;">0.2</text><text text-anchor="end" transform="translate(-7,751.6666666666666)" style="font-family: sans-serif; font-size: 15px; fill: #000; opacity: 1;">0.4</text><text text-anchor="end" transform="translate(-7,725)" style="font-family: sans-serif; font-size: 15px; fill: #000; opacity: 1;">0.6</text><text text-anchor="end" transform="translate(-7,698.3333333333334)" style="font-family: sans-serif; font-size: 15px; fill: #000; opacity: 1;">0.8</text><text text-anchor="end" transform="translate(-7,671.6666666666667)" style="font-family: sans-serif; font-size: 15px; fill: #000; opacity: 1;">1.0</text><text text-anchor="end" transform="translate(-7,645)" style="font-family: sans-serif; font-size: 15px; fill: #000; opacity: 1;">1.2</text><text text-anchor="end" transform="translate(-7,618.3333333333334)" style="font-family: sans-serif; font-size: 15px; fill: #000; opacity: 1;">1.4</text><text text-anchor="end" transform="translate(-7,591.6666666666667)" style="font-family: sans-serif; font-size: 15px; fill: #000; opacity: 1;">1.6</text><text text-anchor="end" transform="translate(-7,565)" style="font-family: sans-serif; font-size: 15px; fill: #000; opacity: 1;">1.8</text><text text-anchor="end" transform="translate(-7,538.3333333333334)" style="font-family: sans-serif; font-size: 15px; fill: #000; opacity: 1;">2.0</text><text text-anchor="end" transform="translate(-7,511.66666666666663)" style="font-family: sans-serif; font-size: 15px; fill: #000; opacity: 1;">2.2</text><text text-anchor="end" transform="translate(-7,485.00000000000006)" style="font-family: sans-serif; font-size: 15px; fill: #000; opacity: 1;">2.4</text><text text-anchor="end" transform="translate(-7,458.3333333333333)" style="font-family: sans-serif; font-size: 15px; fill: #000; opacity: 1;">2.6</text><text text-anchor="end" transform="translate(-7,431.66666666666674)" style="font-family: sans-serif; font-size: 15px; fill: #000; opacity: 1;">2.8</text><text text-anchor="end" transform="translate(-7,405)" style="font-family: sans-serif; font-size: 15px; fill: #000; opacity: 1;">3.0</text><text text-anchor="end" transform="translate(-7,378.3333333333333)" style="font-family: sans-serif; font-size: 15px; fill: #000; opacity: 1;">3.2</text><text text-anchor="end" transform="translate(-7,351.6666666666667)" style="font-family: sans-serif; font-size: 15px; fill: #000; opacity: 1;">3.4</text><text text-anchor="end" transform="translate(-7,325)" style="font-family: sans-serif; font-size: 15px; fill: #000; opacity: 1;">3.6</text><text text-anchor="end" transform="translate(-7,298.33333333333337)" style="font-family: sans-serif; font-size: 15px; fill: #000; opacity: 1;">3.8</text><text text-anchor="end" transform="translate(-7,271.6666666666667)" style="font-family: sans-serif; font-size: 15px; fill: #000; opacity: 1;">4.0</text><text text-anchor="end" transform="translate(-7,244.99999999999994)" style="font-family: sans-serif; font-size: 15px; fill: #000; opacity: 1;">4.2</text><text text-anchor="end" transform="translate(-7,218.3333333333333)" style="font-family: sans-serif; font-size: 15px; fill: #000; opacity: 1;">4.4</text><text text-anchor="end" transform="translate(-7,191.6666666666667)" style="font-family: sans-serif; font-size: 15px; fill: #000; opacity: 1;">4.6</text><text text-anchor="end" transform="translate(-7,165.00000000000006)" style="font-family: sans-serif; font-size: 15px; fill: #000; opacity: 1;">4.8</text><text text-anchor="end" transform="translate(-7,138.33333333333331)" style="font-family: sans-serif; font-size: 15px; fill: #000; opacity: 1;">5.0</text><text text-anchor="end" transform="translate(-7,111.66666666666664)" style="font-family: sans-serif; font-size: 15px; fill: #000; opacity: 1;">5.2</text><text text-anchor="end" transform="translate(-7,84.99999999999999)" style="font-family: sans-serif; font-size: 15px; fill: #000; opacity: 1;">5.4</text><text text-anchor="end" transform="translate(-7,58.333333333333414)" style="font-family: sans-serif; font-size: 15px; fill: #000; opacity: 1;">5.6</text><text text-anchor="end" transform="translate(-7,31.66666666666666)" style="font-family: sans-serif; font-size: 15px; fill: #000; opacity: 1;">5.8</text><text text-anchor="end" transform="translate(-7,5)" style="font-family: sans-serif; font-size: 15px; fill: #000; opacity: 1;">6.0</text></g><g class="mark-rule role-axis-domain" style="pointer-events: none;"><line transform="translate(0,800)" x2="0" y2="-800" style="fill: none; stroke: #888; stroke-width: 1; opacity: 1;"></line></g><g class="mark-text role-axis-title" style="pointer-events: none;"><text text-anchor="middle" transform="translate(-31.85205078125,400) rotate(-90) translate(0,-4)" style="font-family: sans-serif; font-size: 20px; font-weight: bold; fill: #000; opacity: 1;">Mortes confirmadas a cada 100 mil habitantes</text></g></g><path class="foreground" d="" style="pointer-events: none; display: none; fill: none;"></path></g></g><g class="mark-group role-scope layer_0_layer_0_pathgroup"><g transform="translate(0,0)"><path class="background" d="M0,0h650v800h-650Z" style="fill: none;"></path><g><g class="mark-line role-mark layer_0_layer_0_marks"><path d="M0,724.4086393366102L18.57142857142857,724.4086393366102L37.14285714285714,709.2903672039323L55.714285714285715,709.2903672039323L74.28571428571428,679.0538229385763L92.85714285714285,679.0538229385763L111.42857142857143,679.0538229385763L130,648.8172786732205" style="fill: none; stroke: #4c78a8; stroke-width: 4; opacity: 0.7;"></path></g></g><path class="foreground" d="" style="display: none; fill: none;"></path></g><g transform="translate(0,0)"><path class="background" d="M0,0h650v800h-650Z" style="fill: none;"></path><g><g class="mark-line role-mark layer_0_layer_0_marks"><path d="M0,780.0241128933264L18.57142857142857,780.0241128933264L37.14285714285714,772.0337580506571L55.714285714285715,760.0482257866529L74.28571428571428,740.0723386799795L92.85714285714285,728.0868064159753L111.42857142857143,724.0916289946406L130,720.0964515733059L148.57142857142856,712.1060967306365" style="fill: none; stroke: #f58518; stroke-width: 4; opacity: 0.7;"></path></g></g><path class="foreground" d="" style="display: none; fill: none;"></path></g><g transform="translate(0,0)"><path class="background" d="M0,0h650v800h-650Z" style="fill: none;"></path><g><g class="mark-line role-mark layer_0_layer_0_marks"><path d="M0,777.4807216881802L18.57142857142857,761.3955228940232L37.14285714285714,751.7444036175291L55.714285714285715,738.8762445822034L74.28571428571428,726.0080855468779L92.85714285714285,703.4888072350581L111.42857142857143,671.3184096467442L130,639.1480120584301L148.57142857142856,629.4968927819359L167.14285714285714,600.5435349524533L185.7142857142857,571.5901771229708L204.28571428571428,510.4664217051742L222.85714285714286,458.9937855638718L241.42857142857144,401.0870699049066L260,333.52923496944743L278.57142857142856,282.05659882814496L297.1428571428571,214.49876389268567L315.7142857142857,204.84764461619145L334.2857142857143,179.11132654554018L352.85714285714283,137.28980968073213L371.4285714285714,47.212696433453075" style="fill: none; stroke: #e45756; stroke-width: 4; opacity: 0.7;"></path></g></g><path class="foreground" d="" style="display: none; fill: none;"></path></g><g transform="translate(0,0)"><path class="background" d="M0,0h650v800h-650Z" style="fill: none;"></path><g><g class="mark-line role-mark layer_0_layer_0_marks"><path d="M0,721.1727290750053L18.57142857142857,721.1727290750053L37.14285714285714,705.4072748900064L55.714285714285715,689.6418207050075L74.28571428571428,689.6418207050075L92.85714285714285,642.3454581500106L111.42857142857143,642.3454581500106L130,642.3454581500106L148.57142857142856,626.5800039650118L167.14285714285714,595.0490955950139L185.7142857142857,595.0490955950139L204.28571428571428,579.2836414100149L222.85714285714286,547.752733040017" style="fill: none; stroke: #72b7b2; stroke-width: 4; opacity: 0.7;"></path></g></g><path class="foreground" d="" style="display: none; fill: none;"></path></g><g transform="translate(0,0)"><path class="background" d="M0,0h650v800h-650Z" style="fill: none;"></path><g><g class="mark-line role-mark layer_0_layer_0_marks"><path d="M0,794.6211486752159L18.57142857142857,793.7246734544185L37.14285714285714,791.9317230128237L55.714285714285715,791.0352477920264L74.28571428571428,787.4493469088369L92.85714285714285,783.8634460256475L111.42857142857143,782.9669708048501L130,782.9669708048501L148.57142857142856,781.1740203632554L167.14285714285714,781.1740203632554L185.7142857142857,780.2775451424579L204.28571428571428,776.6916442592685L222.85714285714286,774.8986938176738L241.42857142857144,769.5198424928896L260,767.726892051295L278.57142857142856,764.1409911681054L297.1428571428571,759.6586150641186L315.7142857142857,757.8656646225239L334.2857142857143,756.9691894017266L352.85714285714283,752.4868132977397L371.4285714285714,744.4185363105634" style="fill: none; stroke: #54a24b; stroke-width: 4; opacity: 0.7;"></path></g></g><path class="foreground" d="" style="display: none; fill: none;"></path></g><g transform="translate(0,0)"><path class="background" d="M0,0h650v800h-650Z" style="fill: none;"></path><g><g class="mark-line role-mark layer_0_layer_0_marks"><path d="M0,792.6997265390564L18.57142857142857,792.6997265390564L37.14285714285714,789.7796171546789L55.714285714285715,786.8595077703015L74.28571428571428,769.338851464037L92.85714285714285,767.8787967718483L111.42857142857143,766.4187420796596L130,748.898085773395L148.57142857142856,748.898085773395L167.14285714285714,741.5978123124514L185.7142857142857,716.7768825452432L204.28571428571428,716.7768825452432L222.85714285714286,702.1763356233561L241.42857142857144,691.9559527780351L260,689.0358433936576L278.57142857142856,652.5344760889399L297.1428571428571,637.9339291670527L315.7142857142857,618.9532181685994L334.2857142857143,602.8926165545236L352.85714285714283,573.6915227107492L371.4285714285714,537.1901554060313L390,524.049663176333L408.57142857142856,499.2287334091248L427.14285714285717,477.327913026294L445.7142857142857,451.0469285668972L464.2857142857143,404.3251784168582" style="fill: none; stroke: #eeca3b; stroke-width: 4; opacity: 0.7;"></path></g></g><path class="foreground" d="" style="display: none; fill: none;"></path></g><g transform="translate(0,0)"><path class="background" d="M0,0h650v800h-650Z" style="fill: none;"></path><g><g class="mark-line role-mark layer_0_layer_0_marks"><path d="M0,777.8903014038332L18.57142857142857,773.4683616845998L37.14285714285714,769.0464219653664L55.714285714285715,769.0464219653664L74.28571428571428,755.7806028076664L92.85714285714285,746.9367233691996L111.42857142857143,746.9367233691996L130,742.5147836499664L148.57142857142856,738.092843930733L167.14285714285714,738.092843930733L185.7142857142857,738.092843930733L204.28571428571428,733.6709042114995L222.85714285714286,724.8270247730328L241.42857142857144,724.8270247730328L260,711.5612056153328L278.57142857142856,693.8734467383994L297.1428571428571,693.8734467383994L315.7142857142857,693.8734467383994L334.2857142857143,693.8734467383994L352.85714285714283,693.8734467383994L371.4285714285714,689.4515070191661L390,685.0295672999326" style="fill: none; stroke: #b279a2; stroke-width: 4; opacity: 0.7;"></path></g></g><path class="foreground" d="" style="display: none; fill: none;"></path></g><g transform="translate(0,0)"><path class="background" d="M0,0h650v800h-650Z" style="fill: none;"></path><g><g class="mark-line role-mark layer_0_layer_0_marks"><path d="M0,783.4106810330169L18.57142857142857,780.0928172396203L37.14285714285714,780.0928172396203L55.714285714285715,780.0928172396203L74.28571428571428,780.0928172396203L92.85714285714285,780.0928172396203L111.42857142857143,776.7749534462237L130,773.457089652827L148.57142857142856,770.1392258594304L167.14285714285714,753.5499068924473L185.7142857142857,743.5963155122574L204.28571428571428,740.2784517188608L222.85714285714286,730.324860338671L241.42857142857144,707.0998137848946L260,707.0998137848946L278.57142857142856,700.4640861981014L297.1428571428571,687.1926310245149L315.7142857142857,687.1926310245149L334.2857142857143,687.1926310245149L352.85714285714283,677.2390396443251L371.4285714285714,657.3318568839452" style="fill: none; stroke: #ff9da6; stroke-width: 4; opacity: 0.7;"></path></g></g><path class="foreground" d="" style="display: none; fill: none;"></path></g><g transform="translate(0,0)"><path class="background" d="M0,0h650v800h-650Z" style="fill: none;"></path><g><g class="mark-line role-mark layer_0_layer_0_marks"><path d="M0,790.5010966009029L18.57142857142857,790.5010966009029L37.14285714285714,786.7015352412641L55.714285714285715,786.7015352412641L74.28571428571428,784.8017545614447L92.85714285714285,781.0021932018058L111.42857142857143,773.4030704825282L130,771.5032898027088L148.57142857142856,771.5032898027088L167.14285714285714,771.5032898027088L185.7142857142857,769.6035091228894L204.28571428571428,769.6035091228894L222.85714285714286,765.8039477632504L241.42857142857144,765.8039477632504L260,763.904167083431L278.57142857142856,763.904167083431L297.1428571428571,760.1046057237922L315.7142857142857,756.3050443641533" style="fill: none; stroke: #9d755d; stroke-width: 4; opacity: 0.7;"></path></g></g><path class="foreground" d="" style="display: none; fill: none;"></path></g><g transform="translate(0,0)"><path class="background" d="M0,0h650v800h-650Z" style="fill: none;"></path><g><g class="mark-line role-mark layer_0_layer_0_marks"><path d="M0,779.2702594228095L18.57142857142857,777.3857375521559L37.14285714285714,769.8476500695411L55.714285714285715,760.4250407162729L74.28571428571428,754.7714751043119L92.85714285714285,749.1179094923508L111.42857142857143,739.6953001390824L130,735.9262563977751L148.57142857142856,730.272690785814L167.14285714285714,724.619125173853L185.7142857142857,717.0810376912383L204.28571428571428,709.5429502086237L222.85714285714286,698.2358189847016L241.42857142857144,686.9286877607796L260,675.6215565368575L278.57142857142856,656.7763378303208L297.1428571428571,634.1620753824767" style="fill: none; stroke: #bab0ac; stroke-width: 4; opacity: 0.7;"></path></g></g><path class="foreground" d="" style="display: none; fill: none;"></path></g><g transform="translate(0,0)"><path class="background" d="M0,0h650v800h-650Z" style="fill: none;"></path><g><g class="mark-line role-mark layer_0_layer_0_marks"><path d="M0,796.2208517245978L18.57142857142857,796.2208517245978L37.14285714285714,796.2208517245978L55.714285714285715,794.3312775868967L74.28571428571428,793.0715614950959L92.85714285714285,791.1819873573949L111.42857142857143,790.5521293114944L130,789.2924132196937L148.57142857142856,789.2924132196937L167.14285714285714,787.4028390819926L185.7142857142857,785.5132649442914L204.28571428571428,782.99383276069L222.85714285714286,781.1042586229889L241.42857142857144,779.2146844852878L260,777.9549683934871L278.57142857142856,775.4355362098856L297.1428571428571,775.4355362098856L315.7142857142857,774.1758201180849L334.2857142857143,772.2862459803837L352.85714285714283,770.3966718426826L371.4285714285714,767.8772396590812" style="fill: none; stroke: #4c78a8; stroke-width: 4; opacity: 0.7;"></path></g></g><path class="foreground" d="" style="display: none; fill: none;"></path></g><g transform="translate(0,0)"><path class="background" d="M0,0h650v800h-650Z" style="fill: none;"></path><g><g class="mark-line role-mark layer_0_layer_0_marks"><path d="M0,776.0104345014093L18.57142857142857,776.0104345014093L37.14285714285714,776.0104345014093L55.714285714285715,776.0104345014093L74.28571428571428,776.0104345014093L92.85714285714285,771.2125214016911L111.42857142857143,771.2125214016911L130,766.414608301973" style="fill: none; stroke: #f58518; stroke-width: 4; opacity: 0.7;"></path></g></g><path class="foreground" d="" style="display: none; fill: none;"></path></g><g transform="translate(0,0)"><path class="background" d="M0,0h650v800h-650Z" style="fill: none;"></path><g><g class="mark-line role-mark layer_0_layer_0_marks"><path d="M0,780.8674652969303L18.57142857142857,780.8674652969303L37.14285714285714,780.8674652969303L55.714285714285715,780.8674652969303L74.28571428571428,777.0409583563163L92.85714285714285,777.0409583563163L111.42857142857143,777.0409583563163L130,773.2144514157023" style="fill: none; stroke: #e45756; stroke-width: 4; opacity: 0.7;"></path></g></g><path class="foreground" d="" style="display: none; fill: none;"></path></g><g transform="translate(0,0)"><path class="background" d="M0,0h650v800h-650Z" style="fill: none;"></path><g><g class="mark-line role-mark layer_0_layer_0_marks"><path d="M0,792.2506436324798L18.57142857142857,792.2506436324798L37.14285714285714,790.7007723589758L55.714285714285715,789.1509010854717L74.28571428571428,786.0511585384637L92.85714285714285,782.9514159914556L111.42857142857143,778.3018021709435L130,778.3018021709435L148.57142857142856,767.4527032564151L167.14285714285714,767.4527032564151L185.7142857142857,759.703346888895L204.28571428571428,750.4041192478708L222.85714285714286,748.8542479743667L241.42857142857144,747.3043767008626L260,745.7545054273586L278.57142857142856,741.1048916068464L297.1428571428571,733.3555352393263L315.7142857142857,717.8568225042859" style="fill: none; stroke: #72b7b2; stroke-width: 4; opacity: 0.7;"></path></g></g><path class="foreground" d="" style="display: none; fill: none;"></path></g><g transform="translate(0,0)"><path class="background" d="M0,0h650v800h-650Z" style="fill: none;"></path><g><g class="mark-line role-mark layer_0_layer_0_marks"><path d="M0,776.7719304707558L18.57142857142857,763.4987478826163L37.14285714285714,763.4987478826163L55.714285714285715,756.8621565885464L74.28571428571428,756.8621565885464L92.85714285714285,746.9072696474418L111.42857142857143,730.3157914122675L130,720.3609044711628L148.57142857142856,713.724313177093L167.14285714285714,707.0877218830233L185.7142857142857,703.7694262359884L204.28571428571428,693.8145392948837L222.85714285714286,690.4962436478488L241.42857142857144,670.5864697656395L260,667.2681741186046L278.57142857142856,653.9949915304652" style="fill: none; stroke: #54a24b; stroke-width: 4; opacity: 0.7;"></path></g></g><path class="foreground" d="" style="display: none; fill: none;"></path></g><g transform="translate(0,0)"><path class="background" d="M0,0h650v800h-650Z" style="fill: none;"></path><g><g class="mark-line role-mark layer_0_layer_0_marks"><path d="M0,793.024362101457L18.57142857142857,793.024362101457L37.14285714285714,791.6292345217483L55.714285714285715,791.6292345217483L74.28571428571428,788.8389793623311L92.85714285714285,787.4438517826225L111.42857142857143,786.048724202914L130,780.4682138840794L148.57142857142856,770.7023208261191L167.14285714285714,758.1461726087417L185.7142857142857,752.5656622899073L204.28571428571428,735.824131333404L222.85714285714286,721.872855536318L241.42857142857144,709.3167073189404L260,699.5508142609801L278.57142857142856,681.4141557247683L297.1428571428571,657.696986869722L315.7142857142857,639.56032833351L334.2857142857143,600.496756101669L352.85714285714283,576.7795872466226L371.4285714285714,540.5062701741988L390,513.9988461597351L408.57142857142856,498.6524427829405L427.14285714285717,473.5401463481855L445.7142857142857,437.26682927576167L464.2857142857143,406.5740225221724L482.8571428571429,364.72019513091396" style="fill: none; stroke: #eeca3b; stroke-width: 4; opacity: 0.7;"></path></g></g><path class="foreground" d="" style="display: none; fill: none;"></path></g><g transform="translate(0,0)"><path class="background" d="M0,0h650v800h-650Z" style="fill: none;"></path><g><g class="mark-line role-mark layer_0_layer_0_marks"><path d="M0,779.6327395971417L18.57142857142857,775.55928751657L37.14285714285714,771.4858354359984L55.714285714285715,771.4858354359984L74.28571428571428,771.4858354359984L92.85714285714285,771.4858354359984L111.42857142857143,767.4123833554268L130,767.4123833554268L148.57142857142856,767.4123833554268L167.14285714285714,767.4123833554268L185.7142857142857,763.3389312748551L204.28571428571428,759.2654791942834L222.85714285714286,751.1185750331401L241.42857142857144,742.9716708719967L260,738.898218791425L278.57142857142856,738.898218791425L297.1428571428571,734.8247667108534" style="fill: none; stroke: #b279a2; stroke-width: 4; opacity: 0.7;"></path></g></g><path class="foreground" d="" style="display: none; fill: none;"></path></g><g transform="translate(0,0)"><path class="background" d="M0,0h650v800h-650Z" style="fill: none;"></path><g><g class="mark-line role-mark layer_0_layer_0_marks"><path d="M0,794.1694142573156L18.57142857142857,791.8371799602419L37.14285714285714,788.3388285146312L55.714285714285715,783.6743599204837L74.28571428571428,782.5082427719468L92.85714285714285,780.176008474873L111.42857142857143,772.0131884351148L130,769.6809541380411L148.57142857142856,768.5148369895041L167.14285714285714,763.8503683953566L185.7142857142857,761.5181340982829L204.28571428571428,754.5214312070616L222.85714285714286,752.1891969099878L241.42857142857144,749.856962612914L260,748.6908454643772L278.57142857142856,742.8602597216927L297.1428571428571,739.3619082760821L315.7142857142857,738.1957911275452L334.2857142857143,735.8635568304715L352.85714285714283,730.032971087787L371.4285714285714,727.7007367907132" style="fill: none; stroke: #ff9da6; stroke-width: 4; opacity: 0.7;"></path></g></g><path class="foreground" d="" style="display: none; fill: none;"></path></g><g transform="translate(0,0)"><path class="background" d="M0,0h650v800h-650Z" style="fill: none;"></path><g><g class="mark-line role-mark layer_0_layer_0_marks"><path d="M0,795.3663328051532L18.57142857142857,793.8217770735375L37.14285714285714,793.0494992077298L55.714285714285715,792.277221341922L74.28571428571428,789.9603877444986L92.85714285714285,786.8712762812673L111.42857142857143,786.0989984154596L130,782.2376090864207L148.57142857142856,778.3762197573816L167.14285714285714,768.3366075018802L185.7142857142857,763.7029403070334L204.28571428571428,755.2078837831475L222.85714285714286,750.5742165883007L241.42857142857144,745.1682715276461L260,731.2672699431057L278.57142857142856,718.138546224373L297.1428571428571,705.7821003714482L315.7142857142857,686.4751537262532L334.2857142857143,680.2969307997909L352.85714285714283,668.7127628126739L371.4285714285714,659.4454284229802L390,627.0097580590526L408.57142857142856,595.3463655609328L427.14285714285717,567.5443623918519L445.7142857142857,536.6532477595399L464.2857142857143,501.12846593238095L482.8571428571429,489.5442979452639L501.42857142857144,474.09874062910797L520,443.9799038626038L538.5714285714286,421.5838457541775L557.1428571428571,390.6927311218655" style="fill: none; stroke: #9d755d; stroke-width: 4; opacity: 0.7;"></path></g></g><path class="foreground" d="" style="display: none; fill: none;"></path></g><g transform="translate(0,0)"><path class="background" d="M0,0h650v800h-650Z" style="fill: none;"></path><g><g class="mark-line role-mark layer_0_layer_0_marks"><path d="M0,777.1875239709221L18.57142857142857,773.3854446327424L37.14285714285714,773.3854446327424L55.714285714285715,769.5833652945628L74.28571428571428,758.1771272800238L92.85714285714285,758.1771272800238L111.42857142857143,758.1771272800238L130,750.5729686036645L148.57142857142856,735.3646512509459L167.14285714285714,731.5625719127662L185.7142857142857,727.7604925745866L204.28571428571428,723.9584132364068L222.85714285714286,712.552175221868L241.42857142857144,708.7500958836883L260,701.145937207329L278.57142857142856,697.3438578691494L297.1428571428571,693.5417785309697L315.7142857142857,689.73969919279L334.2857142857143,670.7293025018918L352.85714285714283,655.5209851491732" style="fill: none; stroke: #bab0ac; stroke-width: 4; opacity: 0.7;"></path></g></g><path class="foreground" d="" style="display: none; fill: none;"></path></g><g transform="translate(0,0)"><path class="background" d="M0,0h650v800h-650Z" style="fill: none;"></path><g><g class="mark-line role-mark layer_0_layer_0_marks"><path d="M0,762.4883362170425L18.57142857142857,762.4883362170425L37.14285714285714,762.4883362170425" style="fill: none; stroke: #4c78a8; stroke-width: 4; opacity: 0.7;"></path></g></g><path class="foreground" d="" style="display: none; fill: none;"></path></g><g transform="translate(0,0)"><path class="background" d="M0,0h650v800h-650Z" style="fill: none;"></path><g><g class="mark-line role-mark layer_0_layer_0_marks"><path d="M0,794.1403475248549L18.57142857142857,794.1403475248549L37.14285714285714,792.968417029826L55.714285714285715,791.7964865347969L74.28571428571428,791.7964865347969L92.85714285714285,790.624556039768L111.42857142857143,790.624556039768L130,788.28069504971L148.57142857142856,783.5929730695939L167.14285714285714,782.4210425745649L185.7142857142857,781.249112079536L204.28571428571428,781.249112079536L222.85714285714286,780.0771815845069L241.42857142857144,778.9052510894779L260,777.7333205944489L278.57142857142856,775.3894596043908L297.1428571428571,771.8736681193038L315.7142857142857,771.8736681193038L334.2857142857143,769.5298071292458L352.85714285714283,768.3578766342168L371.4285714285714,768.3578766342168L390,767.1859461391878L408.57142857142856,766.0140156441588" style="fill: none; stroke: #f58518; stroke-width: 4; opacity: 0.7;"></path></g></g><path class="foreground" d="" style="display: none; fill: none;"></path></g><g transform="translate(0,0)"><path class="background" d="M0,0h650v800h-650Z" style="fill: none;"></path><g><g class="mark-line role-mark layer_0_layer_0_marks"><path d="M0,790.6952352719065L18.57142857142857,790.6952352719065L37.14285714285714,781.3904705438133L55.714285714285715,781.3904705438133L74.28571428571428,779.5295175981946L92.85714285714285,772.0857058157198L111.42857142857143,768.3637999244826L130,766.5028469788639L148.57142857142856,766.5028469788639L167.14285714285714,760.9199881420078L185.7142857142857,755.3371293051518L204.28571428571428,751.6152234139145L222.85714285714286,747.8933175226771L241.42857142857144,746.0323645770584L260,744.1714116314397L278.57142857142856,742.310458685821L297.1428571428571,740.4495057402024L315.7142857142857,734.8666469033465L334.2857142857143,734.8666469033465L352.85714285714283,731.1447410121091L371.4285714285714,727.4228351208717L390,721.8399762840157" style="fill: none; stroke: #e45756; stroke-width: 4; opacity: 0.7;"></path></g></g><path class="foreground" d="" style="display: none; fill: none;"></path></g><g transform="translate(0,0)"><path class="background" d="M0,0h650v800h-650Z" style="fill: none;"></path><g><g class="mark-line role-mark layer_0_layer_0_marks"><path d="M0,770.9980499088758L18.57142857142857,770.9980499088758L37.14285714285714,770.9980499088758L55.714285714285715,759.3972698724263L74.28571428571428,759.3972698724263L92.85714285714285,753.5968798542015" style="fill: none; stroke: #72b7b2; stroke-width: 4; opacity: 0.7;"></path></g></g><path class="foreground" d="" style="display: none; fill: none;"></path></g><g transform="translate(0,0)"><path class="background" d="M0,0h650v800h-650Z" style="fill: none;"></path><g><g class="mark-line role-mark layer_0_layer_0_marks"><path d="M0,798.5481697004077L18.57142857142857,797.3867054607338L37.14285714285714,795.644509101223L55.714285714285715,793.6119466817936L74.28571428571428,791.2890182024457L92.85714285714285,788.385357603261L111.42857142857143,786.0624291239133L130,783.1587685247285L148.57142857142856,780.2551079255438L167.14285714285714,775.6092509668482L185.7142857142857,771.5441261279896L204.28571428571428,767.1886352292125L222.85714285714286,760.5102158510877L241.42857142857144,752.3799661733702L260,745.411180735327L278.57142857142856,736.4098328778542L297.1428571428571,724.5048244211969L315.7142857142857,720.1493335224197L334.2857142857143,711.728717784784L352.85714285714283,692.2741917702461L371.4285714285714,675.7233263548932L390,655.978434280437L408.57142857142856,643.2023276440242L427.14285714285717,637.3950064456546L445.7142857142857,629.2647567679375L464.2857142857143,623.4574355695679L482.8571428571429,598.1955883566608L501.42857142857144,574.0952053834274L520,552.3177508895419L538.5714285714286,530.5402963956564L557.1428571428571,512.2472346207925L575.7142857142857,505.27844918274917L594.2857142857142,498.89039586454265L612.8571428571429,482.6298965091082L631.4285714285714,470.7248880524508L650,409.45764940965273" style="fill: none; stroke: #54a24b; stroke-width: 4; opacity: 0.7;"></path></g></g><path class="foreground" d="" style="display: none; fill: none;"></path></g></g><g class="mark-group role-scope layer_0_layer_1_pathgroup"><g transform="translate(0,0)"><path class="background" d="M0,0h650v800h-650Z" style="fill: none;"></path><g><g class="mark-line role-mark layer_0_layer_1_marks" style="pointer-events: none;"><path d="M0,724.4086393366102L18.57142857142857,724.4086393366102L37.14285714285714,709.2903672039323L55.714285714285715,709.2903672039323L74.28571428571428,679.0538229385763L92.85714285714285,679.0538229385763L111.42857142857143,679.0538229385763L130,648.8172786732205" style="fill: none; stroke: #4c78a8; stroke-width: 4; opacity: 0.5;"></path></g></g><path class="foreground" d="" style="display: none; fill: none;"></path></g><g transform="translate(0,0)"><path class="background" d="M0,0h650v800h-650Z" style="fill: none;"></path><g><g class="mark-line role-mark layer_0_layer_1_marks" style="pointer-events: none;"><path d="M0,780.0241128933264L18.57142857142857,780.0241128933264L37.14285714285714,772.0337580506571L55.714285714285715,760.0482257866529L74.28571428571428,740.0723386799795L92.85714285714285,728.0868064159753L111.42857142857143,724.0916289946406L130,720.0964515733059L148.57142857142856,712.1060967306365" style="fill: none; stroke: #f58518; stroke-width: 4; opacity: 0.5;"></path></g></g><path class="foreground" d="" style="display: none; fill: none;"></path></g><g transform="translate(0,0)"><path class="background" d="M0,0h650v800h-650Z" style="fill: none;"></path><g><g class="mark-line role-mark layer_0_layer_1_marks" style="pointer-events: none;"><path d="M0,777.4807216881802L18.57142857142857,761.3955228940232L37.14285714285714,751.7444036175291L55.714285714285715,738.8762445822034L74.28571428571428,726.0080855468779L92.85714285714285,703.4888072350581L111.42857142857143,671.3184096467442L130,639.1480120584301L148.57142857142856,629.4968927819359L167.14285714285714,600.5435349524533L185.7142857142857,571.5901771229708L204.28571428571428,510.4664217051742L222.85714285714286,458.9937855638718L241.42857142857144,401.0870699049066L260,333.52923496944743L278.57142857142856,282.05659882814496L297.1428571428571,214.49876389268567L315.7142857142857,204.84764461619145L334.2857142857143,179.11132654554018L352.85714285714283,137.28980968073213L371.4285714285714,47.212696433453075" style="fill: none; stroke: #e45756; stroke-width: 4; opacity: 0.5;"></path></g></g><path class="foreground" d="" style="display: none; fill: none;"></path></g><g transform="translate(0,0)"><path class="background" d="M0,0h650v800h-650Z" style="fill: none;"></path><g><g class="mark-line role-mark layer_0_layer_1_marks" style="pointer-events: none;"><path d="M0,721.1727290750053L18.57142857142857,721.1727290750053L37.14285714285714,705.4072748900064L55.714285714285715,689.6418207050075L74.28571428571428,689.6418207050075L92.85714285714285,642.3454581500106L111.42857142857143,642.3454581500106L130,642.3454581500106L148.57142857142856,626.5800039650118L167.14285714285714,595.0490955950139L185.7142857142857,595.0490955950139L204.28571428571428,579.2836414100149L222.85714285714286,547.752733040017" style="fill: none; stroke: #72b7b2; stroke-width: 4; opacity: 0.5;"></path></g></g><path class="foreground" d="" style="display: none; fill: none;"></path></g><g transform="translate(0,0)"><path class="background" d="M0,0h650v800h-650Z" style="fill: none;"></path><g><g class="mark-line role-mark layer_0_layer_1_marks" style="pointer-events: none;"><path d="M0,794.6211486752159L18.57142857142857,793.7246734544185L37.14285714285714,791.9317230128237L55.714285714285715,791.0352477920264L74.28571428571428,787.4493469088369L92.85714285714285,783.8634460256475L111.42857142857143,782.9669708048501L130,782.9669708048501L148.57142857142856,781.1740203632554L167.14285714285714,781.1740203632554L185.7142857142857,780.2775451424579L204.28571428571428,776.6916442592685L222.85714285714286,774.8986938176738L241.42857142857144,769.5198424928896L260,767.726892051295L278.57142857142856,764.1409911681054L297.1428571428571,759.6586150641186L315.7142857142857,757.8656646225239L334.2857142857143,756.9691894017266L352.85714285714283,752.4868132977397L371.4285714285714,744.4185363105634" style="fill: none; stroke: #54a24b; stroke-width: 4; opacity: 0.5;"></path></g></g><path class="foreground" d="" style="display: none; fill: none;"></path></g><g transform="translate(0,0)"><path class="background" d="M0,0h650v800h-650Z" style="fill: none;"></path><g><g class="mark-line role-mark layer_0_layer_1_marks" style="pointer-events: none;"><path d="M0,792.6997265390564L18.57142857142857,792.6997265390564L37.14285714285714,789.7796171546789L55.714285714285715,786.8595077703015L74.28571428571428,769.338851464037L92.85714285714285,767.8787967718483L111.42857142857143,766.4187420796596L130,748.898085773395L148.57142857142856,748.898085773395L167.14285714285714,741.5978123124514L185.7142857142857,716.7768825452432L204.28571428571428,716.7768825452432L222.85714285714286,702.1763356233561L241.42857142857144,691.9559527780351L260,689.0358433936576L278.57142857142856,652.5344760889399L297.1428571428571,637.9339291670527L315.7142857142857,618.9532181685994L334.2857142857143,602.8926165545236L352.85714285714283,573.6915227107492L371.4285714285714,537.1901554060313L390,524.049663176333L408.57142857142856,499.2287334091248L427.14285714285717,477.327913026294L445.7142857142857,451.0469285668972L464.2857142857143,404.3251784168582" style="fill: none; stroke: #eeca3b; stroke-width: 4; opacity: 0.5;"></path></g></g><path class="foreground" d="" style="display: none; fill: none;"></path></g><g transform="translate(0,0)"><path class="background" d="M0,0h650v800h-650Z" style="fill: none;"></path><g><g class="mark-line role-mark layer_0_layer_1_marks" style="pointer-events: none;"><path d="M0,777.8903014038332L18.57142857142857,773.4683616845998L37.14285714285714,769.0464219653664L55.714285714285715,769.0464219653664L74.28571428571428,755.7806028076664L92.85714285714285,746.9367233691996L111.42857142857143,746.9367233691996L130,742.5147836499664L148.57142857142856,738.092843930733L167.14285714285714,738.092843930733L185.7142857142857,738.092843930733L204.28571428571428,733.6709042114995L222.85714285714286,724.8270247730328L241.42857142857144,724.8270247730328L260,711.5612056153328L278.57142857142856,693.8734467383994L297.1428571428571,693.8734467383994L315.7142857142857,693.8734467383994L334.2857142857143,693.8734467383994L352.85714285714283,693.8734467383994L371.4285714285714,689.4515070191661L390,685.0295672999326" style="fill: none; stroke: #b279a2; stroke-width: 4; opacity: 0.5;"></path></g></g><path class="foreground" d="" style="display: none; fill: none;"></path></g><g transform="translate(0,0)"><path class="background" d="M0,0h650v800h-650Z" style="fill: none;"></path><g><g class="mark-line role-mark layer_0_layer_1_marks" style="pointer-events: none;"><path d="M0,783.4106810330169L18.57142857142857,780.0928172396203L37.14285714285714,780.0928172396203L55.714285714285715,780.0928172396203L74.28571428571428,780.0928172396203L92.85714285714285,780.0928172396203L111.42857142857143,776.7749534462237L130,773.457089652827L148.57142857142856,770.1392258594304L167.14285714285714,753.5499068924473L185.7142857142857,743.5963155122574L204.28571428571428,740.2784517188608L222.85714285714286,730.324860338671L241.42857142857144,707.0998137848946L260,707.0998137848946L278.57142857142856,700.4640861981014L297.1428571428571,687.1926310245149L315.7142857142857,687.1926310245149L334.2857142857143,687.1926310245149L352.85714285714283,677.2390396443251L371.4285714285714,657.3318568839452" style="fill: none; stroke: #ff9da6; stroke-width: 4; opacity: 0.5;"></path></g></g><path class="foreground" d="" style="display: none; fill: none;"></path></g><g transform="translate(0,0)"><path class="background" d="M0,0h650v800h-650Z" style="fill: none;"></path><g><g class="mark-line role-mark layer_0_layer_1_marks" style="pointer-events: none;"><path d="M0,790.5010966009029L18.57142857142857,790.5010966009029L37.14285714285714,786.7015352412641L55.714285714285715,786.7015352412641L74.28571428571428,784.8017545614447L92.85714285714285,781.0021932018058L111.42857142857143,773.4030704825282L130,771.5032898027088L148.57142857142856,771.5032898027088L167.14285714285714,771.5032898027088L185.7142857142857,769.6035091228894L204.28571428571428,769.6035091228894L222.85714285714286,765.8039477632504L241.42857142857144,765.8039477632504L260,763.904167083431L278.57142857142856,763.904167083431L297.1428571428571,760.1046057237922L315.7142857142857,756.3050443641533" style="fill: none; stroke: #9d755d; stroke-width: 4; opacity: 0.5;"></path></g></g><path class="foreground" d="" style="display: none; fill: none;"></path></g><g transform="translate(0,0)"><path class="background" d="M0,0h650v800h-650Z" style="fill: none;"></path><g><g class="mark-line role-mark layer_0_layer_1_marks" style="pointer-events: none;"><path d="M0,779.2702594228095L18.57142857142857,777.3857375521559L37.14285714285714,769.8476500695411L55.714285714285715,760.4250407162729L74.28571428571428,754.7714751043119L92.85714285714285,749.1179094923508L111.42857142857143,739.6953001390824L130,735.9262563977751L148.57142857142856,730.272690785814L167.14285714285714,724.619125173853L185.7142857142857,717.0810376912383L204.28571428571428,709.5429502086237L222.85714285714286,698.2358189847016L241.42857142857144,686.9286877607796L260,675.6215565368575L278.57142857142856,656.7763378303208L297.1428571428571,634.1620753824767" style="fill: none; stroke: #bab0ac; stroke-width: 4; opacity: 0.5;"></path></g></g><path class="foreground" d="" style="display: none; fill: none;"></path></g><g transform="translate(0,0)"><path class="background" d="M0,0h650v800h-650Z" style="fill: none;"></path><g><g class="mark-line role-mark layer_0_layer_1_marks" style="pointer-events: none;"><path d="M0,796.2208517245978L18.57142857142857,796.2208517245978L37.14285714285714,796.2208517245978L55.714285714285715,794.3312775868967L74.28571428571428,793.0715614950959L92.85714285714285,791.1819873573949L111.42857142857143,790.5521293114944L130,789.2924132196937L148.57142857142856,789.2924132196937L167.14285714285714,787.4028390819926L185.7142857142857,785.5132649442914L204.28571428571428,782.99383276069L222.85714285714286,781.1042586229889L241.42857142857144,779.2146844852878L260,777.9549683934871L278.57142857142856,775.4355362098856L297.1428571428571,775.4355362098856L315.7142857142857,774.1758201180849L334.2857142857143,772.2862459803837L352.85714285714283,770.3966718426826L371.4285714285714,767.8772396590812" style="fill: none; stroke: #4c78a8; stroke-width: 4; opacity: 0.5;"></path></g></g><path class="foreground" d="" style="display: none; fill: none;"></path></g><g transform="translate(0,0)"><path class="background" d="M0,0h650v800h-650Z" style="fill: none;"></path><g><g class="mark-line role-mark layer_0_layer_1_marks" style="pointer-events: none;"><path d="M0,776.0104345014093L18.57142857142857,776.0104345014093L37.14285714285714,776.0104345014093L55.714285714285715,776.0104345014093L74.28571428571428,776.0104345014093L92.85714285714285,771.2125214016911L111.42857142857143,771.2125214016911L130,766.414608301973" style="fill: none; stroke: #f58518; stroke-width: 4; opacity: 0.5;"></path></g></g><path class="foreground" d="" style="display: none; fill: none;"></path></g><g transform="translate(0,0)"><path class="background" d="M0,0h650v800h-650Z" style="fill: none;"></path><g><g class="mark-line role-mark layer_0_layer_1_marks" style="pointer-events: none;"><path d="M0,780.8674652969303L18.57142857142857,780.8674652969303L37.14285714285714,780.8674652969303L55.714285714285715,780.8674652969303L74.28571428571428,777.0409583563163L92.85714285714285,777.0409583563163L111.42857142857143,777.0409583563163L130,773.2144514157023" style="fill: none; stroke: #e45756; stroke-width: 4; opacity: 0.5;"></path></g></g><path class="foreground" d="" style="display: none; fill: none;"></path></g><g transform="translate(0,0)"><path class="background" d="M0,0h650v800h-650Z" style="fill: none;"></path><g><g class="mark-line role-mark layer_0_layer_1_marks" style="pointer-events: none;"><path d="M0,792.2506436324798L18.57142857142857,792.2506436324798L37.14285714285714,790.7007723589758L55.714285714285715,789.1509010854717L74.28571428571428,786.0511585384637L92.85714285714285,782.9514159914556L111.42857142857143,778.3018021709435L130,778.3018021709435L148.57142857142856,767.4527032564151L167.14285714285714,767.4527032564151L185.7142857142857,759.703346888895L204.28571428571428,750.4041192478708L222.85714285714286,748.8542479743667L241.42857142857144,747.3043767008626L260,745.7545054273586L278.57142857142856,741.1048916068464L297.1428571428571,733.3555352393263L315.7142857142857,717.8568225042859" style="fill: none; stroke: #72b7b2; stroke-width: 4; opacity: 0.5;"></path></g></g><path class="foreground" d="" style="display: none; fill: none;"></path></g><g transform="translate(0,0)"><path class="background" d="M0,0h650v800h-650Z" style="fill: none;"></path><g><g class="mark-line role-mark layer_0_layer_1_marks" style="pointer-events: none;"><path d="M0,776.7719304707558L18.57142857142857,763.4987478826163L37.14285714285714,763.4987478826163L55.714285714285715,756.8621565885464L74.28571428571428,756.8621565885464L92.85714285714285,746.9072696474418L111.42857142857143,730.3157914122675L130,720.3609044711628L148.57142857142856,713.724313177093L167.14285714285714,707.0877218830233L185.7142857142857,703.7694262359884L204.28571428571428,693.8145392948837L222.85714285714286,690.4962436478488L241.42857142857144,670.5864697656395L260,667.2681741186046L278.57142857142856,653.9949915304652" style="fill: none; stroke: #54a24b; stroke-width: 4; opacity: 0.5;"></path></g></g><path class="foreground" d="" style="display: none; fill: none;"></path></g><g transform="translate(0,0)"><path class="background" d="M0,0h650v800h-650Z" style="fill: none;"></path><g><g class="mark-line role-mark layer_0_layer_1_marks" style="pointer-events: none;"><path d="M0,793.024362101457L18.57142857142857,793.024362101457L37.14285714285714,791.6292345217483L55.714285714285715,791.6292345217483L74.28571428571428,788.8389793623311L92.85714285714285,787.4438517826225L111.42857142857143,786.048724202914L130,780.4682138840794L148.57142857142856,770.7023208261191L167.14285714285714,758.1461726087417L185.7142857142857,752.5656622899073L204.28571428571428,735.824131333404L222.85714285714286,721.872855536318L241.42857142857144,709.3167073189404L260,699.5508142609801L278.57142857142856,681.4141557247683L297.1428571428571,657.696986869722L315.7142857142857,639.56032833351L334.2857142857143,600.496756101669L352.85714285714283,576.7795872466226L371.4285714285714,540.5062701741988L390,513.9988461597351L408.57142857142856,498.6524427829405L427.14285714285717,473.5401463481855L445.7142857142857,437.26682927576167L464.2857142857143,406.5740225221724L482.8571428571429,364.72019513091396" style="fill: none; stroke: #eeca3b; stroke-width: 4; opacity: 0.5;"></path></g></g><path class="foreground" d="" style="display: none; fill: none;"></path></g><g transform="translate(0,0)"><path class="background" d="M0,0h650v800h-650Z" style="fill: none;"></path><g><g class="mark-line role-mark layer_0_layer_1_marks" style="pointer-events: none;"><path d="M0,779.6327395971417L18.57142857142857,775.55928751657L37.14285714285714,771.4858354359984L55.714285714285715,771.4858354359984L74.28571428571428,771.4858354359984L92.85714285714285,771.4858354359984L111.42857142857143,767.4123833554268L130,767.4123833554268L148.57142857142856,767.4123833554268L167.14285714285714,767.4123833554268L185.7142857142857,763.3389312748551L204.28571428571428,759.2654791942834L222.85714285714286,751.1185750331401L241.42857142857144,742.9716708719967L260,738.898218791425L278.57142857142856,738.898218791425L297.1428571428571,734.8247667108534" style="fill: none; stroke: #b279a2; stroke-width: 4; opacity: 0.5;"></path></g></g><path class="foreground" d="" style="display: none; fill: none;"></path></g><g transform="translate(0,0)"><path class="background" d="M0,0h650v800h-650Z" style="fill: none;"></path><g><g class="mark-line role-mark layer_0_layer_1_marks" style="pointer-events: none;"><path d="M0,794.1694142573156L18.57142857142857,791.8371799602419L37.14285714285714,788.3388285146312L55.714285714285715,783.6743599204837L74.28571428571428,782.5082427719468L92.85714285714285,780.176008474873L111.42857142857143,772.0131884351148L130,769.6809541380411L148.57142857142856,768.5148369895041L167.14285714285714,763.8503683953566L185.7142857142857,761.5181340982829L204.28571428571428,754.5214312070616L222.85714285714286,752.1891969099878L241.42857142857144,749.856962612914L260,748.6908454643772L278.57142857142856,742.8602597216927L297.1428571428571,739.3619082760821L315.7142857142857,738.1957911275452L334.2857142857143,735.8635568304715L352.85714285714283,730.032971087787L371.4285714285714,727.7007367907132" style="fill: none; stroke: #ff9da6; stroke-width: 4; opacity: 0.5;"></path></g></g><path class="foreground" d="" style="display: none; fill: none;"></path></g><g transform="translate(0,0)"><path class="background" d="M0,0h650v800h-650Z" style="fill: none;"></path><g><g class="mark-line role-mark layer_0_layer_1_marks" style="pointer-events: none;"><path d="M0,795.3663328051532L18.57142857142857,793.8217770735375L37.14285714285714,793.0494992077298L55.714285714285715,792.277221341922L74.28571428571428,789.9603877444986L92.85714285714285,786.8712762812673L111.42857142857143,786.0989984154596L130,782.2376090864207L148.57142857142856,778.3762197573816L167.14285714285714,768.3366075018802L185.7142857142857,763.7029403070334L204.28571428571428,755.2078837831475L222.85714285714286,750.5742165883007L241.42857142857144,745.1682715276461L260,731.2672699431057L278.57142857142856,718.138546224373L297.1428571428571,705.7821003714482L315.7142857142857,686.4751537262532L334.2857142857143,680.2969307997909L352.85714285714283,668.7127628126739L371.4285714285714,659.4454284229802L390,627.0097580590526L408.57142857142856,595.3463655609328L427.14285714285717,567.5443623918519L445.7142857142857,536.6532477595399L464.2857142857143,501.12846593238095L482.8571428571429,489.5442979452639L501.42857142857144,474.09874062910797L520,443.9799038626038L538.5714285714286,421.5838457541775L557.1428571428571,390.6927311218655" style="fill: none; stroke: #9d755d; stroke-width: 4; opacity: 0.5;"></path></g></g><path class="foreground" d="" style="display: none; fill: none;"></path></g><g transform="translate(0,0)"><path class="background" d="M0,0h650v800h-650Z" style="fill: none;"></path><g><g class="mark-line role-mark layer_0_layer_1_marks" style="pointer-events: none;"><path d="M0,777.1875239709221L18.57142857142857,773.3854446327424L37.14285714285714,773.3854446327424L55.714285714285715,769.5833652945628L74.28571428571428,758.1771272800238L92.85714285714285,758.1771272800238L111.42857142857143,758.1771272800238L130,750.5729686036645L148.57142857142856,735.3646512509459L167.14285714285714,731.5625719127662L185.7142857142857,727.7604925745866L204.28571428571428,723.9584132364068L222.85714285714286,712.552175221868L241.42857142857144,708.7500958836883L260,701.145937207329L278.57142857142856,697.3438578691494L297.1428571428571,693.5417785309697L315.7142857142857,689.73969919279L334.2857142857143,670.7293025018918L352.85714285714283,655.5209851491732" style="fill: none; stroke: #bab0ac; stroke-width: 4; opacity: 0.5;"></path></g></g><path class="foreground" d="" style="display: none; fill: none;"></path></g><g transform="translate(0,0)"><path class="background" d="M0,0h650v800h-650Z" style="fill: none;"></path><g><g class="mark-line role-mark layer_0_layer_1_marks" style="pointer-events: none;"><path d="M0,762.4883362170425L18.57142857142857,762.4883362170425L37.14285714285714,762.4883362170425" style="fill: none; stroke: #4c78a8; stroke-width: 4; opacity: 0.5;"></path></g></g><path class="foreground" d="" style="display: none; fill: none;"></path></g><g transform="translate(0,0)"><path class="background" d="M0,0h650v800h-650Z" style="fill: none;"></path><g><g class="mark-line role-mark layer_0_layer_1_marks" style="pointer-events: none;"><path d="M0,794.1403475248549L18.57142857142857,794.1403475248549L37.14285714285714,792.968417029826L55.714285714285715,791.7964865347969L74.28571428571428,791.7964865347969L92.85714285714285,790.624556039768L111.42857142857143,790.624556039768L130,788.28069504971L148.57142857142856,783.5929730695939L167.14285714285714,782.4210425745649L185.7142857142857,781.249112079536L204.28571428571428,781.249112079536L222.85714285714286,780.0771815845069L241.42857142857144,778.9052510894779L260,777.7333205944489L278.57142857142856,775.3894596043908L297.1428571428571,771.8736681193038L315.7142857142857,771.8736681193038L334.2857142857143,769.5298071292458L352.85714285714283,768.3578766342168L371.4285714285714,768.3578766342168L390,767.1859461391878L408.57142857142856,766.0140156441588" style="fill: none; stroke: #f58518; stroke-width: 4; opacity: 0.5;"></path></g></g><path class="foreground" d="" style="display: none; fill: none;"></path></g><g transform="translate(0,0)"><path class="background" d="M0,0h650v800h-650Z" style="fill: none;"></path><g><g class="mark-line role-mark layer_0_layer_1_marks" style="pointer-events: none;"><path d="M0,790.6952352719065L18.57142857142857,790.6952352719065L37.14285714285714,781.3904705438133L55.714285714285715,781.3904705438133L74.28571428571428,779.5295175981946L92.85714285714285,772.0857058157198L111.42857142857143,768.3637999244826L130,766.5028469788639L148.57142857142856,766.5028469788639L167.14285714285714,760.9199881420078L185.7142857142857,755.3371293051518L204.28571428571428,751.6152234139145L222.85714285714286,747.8933175226771L241.42857142857144,746.0323645770584L260,744.1714116314397L278.57142857142856,742.310458685821L297.1428571428571,740.4495057402024L315.7142857142857,734.8666469033465L334.2857142857143,734.8666469033465L352.85714285714283,731.1447410121091L371.4285714285714,727.4228351208717L390,721.8399762840157" style="fill: none; stroke: #e45756; stroke-width: 4; opacity: 0.5;"></path></g></g><path class="foreground" d="" style="display: none; fill: none;"></path></g><g transform="translate(0,0)"><path class="background" d="M0,0h650v800h-650Z" style="fill: none;"></path><g><g class="mark-line role-mark layer_0_layer_1_marks" style="pointer-events: none;"><path d="M0,770.9980499088758L18.57142857142857,770.9980499088758L37.14285714285714,770.9980499088758L55.714285714285715,759.3972698724263L74.28571428571428,759.3972698724263L92.85714285714285,753.5968798542015" style="fill: none; stroke: #72b7b2; stroke-width: 4; opacity: 0.5;"></path></g></g><path class="foreground" d="" style="display: none; fill: none;"></path></g><g transform="translate(0,0)"><path class="background" d="M0,0h650v800h-650Z" style="fill: none;"></path><g><g class="mark-line role-mark layer_0_layer_1_marks" style="pointer-events: none;"><path d="M0,798.5481697004077L18.57142857142857,797.3867054607338L37.14285714285714,795.644509101223L55.714285714285715,793.6119466817936L74.28571428571428,791.2890182024457L92.85714285714285,788.385357603261L111.42857142857143,786.0624291239133L130,783.1587685247285L148.57142857142856,780.2551079255438L167.14285714285714,775.6092509668482L185.7142857142857,771.5441261279896L204.28571428571428,767.1886352292125L222.85714285714286,760.5102158510877L241.42857142857144,752.3799661733702L260,745.411180735327L278.57142857142856,736.4098328778542L297.1428571428571,724.5048244211969L315.7142857142857,720.1493335224197L334.2857142857143,711.728717784784L352.85714285714283,692.2741917702461L371.4285714285714,675.7233263548932L390,655.978434280437L408.57142857142856,643.2023276440242L427.14285714285717,637.3950064456546L445.7142857142857,629.2647567679375L464.2857142857143,623.4574355695679L482.8571428571429,598.1955883566608L501.42857142857144,574.0952053834274L520,552.3177508895419L538.5714285714286,530.5402963956564L557.1428571428571,512.2472346207925L575.7142857142857,505.27844918274917L594.2857142857142,498.89039586454265L612.8571428571429,482.6298965091082L631.4285714285714,470.7248880524508L650,409.45764940965273" style="fill: none; stroke: #54a24b; stroke-width: 4; opacity: 0.5;"></path></g></g><path class="foreground" d="" style="display: none; fill: none;"></path></g></g><g class="mark-text role-mark layer_0_layer_2_marks" style="pointer-events: none;"><text text-anchor="start" transform="translate(135,653.8172786732205)" style="font-family: sans-serif; font-size: 15px; fill: #4c78a8;">AC</text><text text-anchor="start" transform="translate(153.57142857142856,717.1060967306365)" style="font-family: sans-serif; font-size: 15px; fill: #f58518;">AL</text><text text-anchor="start" transform="translate(376.4285714285714,52.212696433453075)" style="font-family: sans-serif; font-size: 15px; fill: #e45756;">AM</text><text text-anchor="start" transform="translate(227.85714285714286,552.752733040017)" style="font-family: sans-serif; font-size: 15px; fill: #72b7b2;">AP</text><text text-anchor="start" transform="translate(376.4285714285714,749.4185363105634)" style="font-family: sans-serif; font-size: 15px; fill: #54a24b;">BA</text><text text-anchor="start" transform="translate(469.2857142857143,409.3251784168582)" style="font-family: sans-serif; font-size: 15px; fill: #eeca3b;">CE</text><text text-anchor="start" transform="translate(395,690.0295672999326)" style="font-family: sans-serif; font-size: 15px; fill: #b279a2;">DF</text><text text-anchor="start" transform="translate(376.4285714285714,662.3318568839452)" style="font-family: sans-serif; font-size: 15px; fill: #ff9da6;">ES</text><text text-anchor="start" transform="translate(320.7142857142857,761.3050443641533)" style="font-family: sans-serif; font-size: 15px; fill: #9d755d;">GO</text><text text-anchor="start" transform="translate(302.1428571428571,639.1620753824767)" style="font-family: sans-serif; font-size: 15px; fill: #bab0ac;">MA</text><text text-anchor="start" transform="translate(376.4285714285714,772.8772396590812)" style="font-family: sans-serif; font-size: 15px; fill: #4c78a8;">MG</text><text text-anchor="start" transform="translate(135,771.414608301973)" style="font-family: sans-serif; font-size: 15px; fill: #f58518;">MS</text><text text-anchor="start" transform="translate(135,778.2144514157023)" style="font-family: sans-serif; font-size: 15px; fill: #e45756;">MT</text><text text-anchor="start" transform="translate(320.7142857142857,722.8568225042859)" style="font-family: sans-serif; font-size: 15px; fill: #72b7b2;">PA</text><text text-anchor="start" transform="translate(283.57142857142856,658.9949915304652)" style="font-family: sans-serif; font-size: 15px; fill: #54a24b;">PB</text><text text-anchor="start" transform="translate(487.8571428571429,369.72019513091396)" style="font-family: sans-serif; font-size: 15px; fill: #eeca3b;">PE</text><text text-anchor="start" transform="translate(302.1428571428571,739.8247667108534)" style="font-family: sans-serif; font-size: 15px; fill: #b279a2;">PI</text><text text-anchor="start" transform="translate(376.4285714285714,732.7007367907132)" style="font-family: sans-serif; font-size: 15px; fill: #ff9da6;">PR</text><text text-anchor="start" transform="translate(562.1428571428571,395.6927311218655)" style="font-family: sans-serif; font-size: 15px; fill: #9d755d;">RJ</text><text text-anchor="start" transform="translate(357.85714285714283,660.5209851491732)" style="font-family: sans-serif; font-size: 15px; fill: #bab0ac;">RN</text><text text-anchor="start" transform="translate(42.14285714285714,767.4883362170425)" style="font-family: sans-serif; font-size: 15px; fill: #4c78a8;">RO</text><text text-anchor="start" transform="translate(413.57142857142856,771.0140156441588)" style="font-family: sans-serif; font-size: 15px; fill: #f58518;">RS</text><text text-anchor="start" transform="translate(395,726.8399762840157)" style="font-family: sans-serif; font-size: 15px; fill: #e45756;">SC</text><text text-anchor="start" transform="translate(97.85714285714285,758.5968798542015)" style="font-family: sans-serif; font-size: 15px; fill: #72b7b2;">SE</text><text text-anchor="start" transform="translate(655,414.45764940965273)" style="font-family: sans-serif; font-size: 15px; fill: #54a24b;">SP</text></g><g class="mark-group role-title"><g transform="translate(325,-34)"><path class="background" d="M0,0h0v0h0Z" style="pointer-events: none; fill: none;"></path><g><g class="mark-text role-title-text" style="pointer-events: none;"><text text-anchor="middle" transform="translate(0,18)" style="font-family: sans-serif; font-size: 23px; font-weight: bold; fill: #000; opacity: 1;">Mortes confirmadas pelo COVID-19 a cada 100 mil habitantes</text></g></g><path class="foreground" d="" style="pointer-events: none; display: none; fill: none;"></path></g></g></g><path class="foreground" d="" style="display: none; fill: none;"></path></g></g></g></svg>