<svg class="marks" width="761" height="890" viewBox="0 0 761 890" version="1.1" xmlns="http://www.w3.org/2000/svg" xmlns:xlink="http://www.w3.org/1999/xlink"><rect width="761" height="890" style="fill: white;"></rect><g transform="translate(74,39)"><g class="mark-group role-frame root"><g transform="translate(0,0)"><path class="background" d="M0.5,0.5h650v800h-650Z" style="fill: none; stroke: #ddd;"></path><g><g class="mark-group role-axis"><g transform="translate(0.5,800.5)"><path class="background" d="M0,0h0v0h0Z" style="pointer-events: none; fill: none;"></path><g><g class="mark-rule role-axis-grid" style="pointer-events: none;"><line transform="translate(0,-800)" x2="0" y2="800" style="fill: none; stroke: #ddd; stroke-width: 1; opacity: 1;"></line><line transform="translate(46,-800)" x2="0" y2="800" style="fill: none; stroke: #ddd; stroke-width: 1; opacity: 1;"></line><line transform="translate(93,-800)" x2="0" y2="800" style="fill: none; stroke: #ddd; stroke-width: 1; opacity: 1;"></line><line transform="translate(139,-800)" x2="0" y2="800" style="fill: none; stroke: #ddd; stroke-width: 1; opacity: 1;"></line><line transform="translate(186,-800)" x2="0" y2="800" style="fill: none; stroke: #ddd; stroke-width: 1; opacity: 1;"></line><line transform="translate(232,-800)" x2="0" y2="800" style="fill: none; stroke: #ddd; stroke-width: 1; opacity: 1;"></line><line transform="translate(279,-800)" x2="0" y2="800" style="fill: none; stroke: #ddd; stroke-width: 1; opacity: 1;"></line><line transform="translate(325,-800)" x2="0" y2="800" style="fill: none; stroke: #ddd; stroke-width: 1; opacity: 1;"></line><line transform="translate(371,-800)" x2="0" y2="800" style="fill: none; stroke: #ddd; stroke-width: 1; opacity: 1;"></line><line transform="translate(418,-800)" x2="0" y2="800" style="fill: none; stroke: #ddd; stroke-width: 1; opacity: 1;"></line><line transform="translate(464,-800)" x2="0" y2="800" style="fill: none; stroke: #ddd; stroke-width: 1; opacity: 1;"></line><line transform="translate(511,-800)" x2="0" y2="800" style="fill: none; stroke: #ddd; stroke-width: 1; opacity: 1;"></line><line transform="translate(557,-800)" x2="0" y2="800" style="fill: none; stroke: #ddd; stroke-width: 1; opacity: 1;"></line><line transform="translate(604,-800)" x2="0" y2="800" style="fill: none; stroke: #ddd; stroke-width: 1; opacity: 1;"></line><line transform="translate(650,-800)" x2="0" y2="800" style="fill: none; stroke: #ddd; stroke-width: 1; opacity: 1;"></line></g></g><path class="foreground" d="" style="pointer-events: none; display: none; fill: none;"></path></g></g><g class="mark-group role-axis"><g transform="translate(0.5,0.5)"><path class="background" d="M0,0h0v0h0Z" style="pointer-events: none; fill: none;"></path><g><g class="mark-rule role-axis-grid" style="pointer-events: none;"><line transform="translate(0,800)" x2="650" y2="0" style="fill: none; stroke: #ddd; stroke-width: 1; opacity: 1;"></line><line transform="translate(0,720)" x2="650" y2="0" style="fill: none; stroke: #ddd; stroke-width: 1; opacity: 1;"></line><line transform="translate(0,673)" x2="650" y2="0" style="fill: none; stroke: #ddd; stroke-width: 1; opacity: 1;"></line><line transform="translate(0,639)" x2="650" y2="0" style="fill: none; stroke: #ddd; stroke-width: 1; opacity: 1;"></line><line transform="translate(0,614)" x2="650" y2="0" style="fill: none; stroke: #ddd; stroke-width: 1; opacity: 1;"></line><line transform="translate(0,592)" x2="650" y2="0" style="fill: none; stroke: #ddd; stroke-width: 1; opacity: 1;"></line><line transform="translate(0,575)" x2="650" y2="0" style="fill: none; stroke: #ddd; stroke-width: 1; opacity: 1;"></line><line transform="translate(0,559)" x2="650" y2="0" style="fill: none; stroke: #ddd; stroke-width: 1; opacity: 1;"></line><line transform="translate(0,546)" x2="650" y2="0" style="fill: none; stroke: #ddd; stroke-width: 1; opacity: 1;"></line><line transform="translate(0,533)" x2="650" y2="0" style="fill: none; stroke: #ddd; stroke-width: 1; opacity: 1;"></line><line transform="translate(0,453)" x2="650" y2="0" style="fill: none; stroke: #ddd; stroke-width: 1; opacity: 1;"></line><line transform="translate(0,406)" x2="650" y2="0" style="fill: none; stroke: #ddd; stroke-width: 1; opacity: 1;"></line><line transform="translate(0,373)" x2="650" y2="0" style="fill: none; stroke: #ddd; stroke-width: 1; opacity: 1;"></line><line transform="translate(0,347)" x2="650" y2="0" style="fill: none; stroke: #ddd; stroke-width: 1; opacity: 1;"></line><line transform="translate(0,326)" x2="650" y2="0" style="fill: none; stroke: #ddd; stroke-width: 1; opacity: 1;"></line><line transform="translate(0,308)" x2="650" y2="0" style="fill: none; stroke: #ddd; stroke-width: 1; opacity: 1;"></line><line transform="translate(0,293)" x2="650" y2="0" style="fill: none; stroke: #ddd; stroke-width: 1; opacity: 1;"></line><line transform="translate(0,279)" x2="650" y2="0" style="fill: none; stroke: #ddd; stroke-width: 1; opacity: 1;"></line><line transform="translate(0,267)" x2="650" y2="0" style="fill: none; stroke: #ddd; stroke-width: 1; opacity: 1;"></line><line transform="translate(0,186)" x2="650" y2="0" style="fill: none; stroke: #ddd; stroke-width: 1; opacity: 1;"></line><line transform="translate(0,139)" x2="650" y2="0" style="fill: none; stroke: #ddd; stroke-width: 1; opacity: 1;"></line><line transform="translate(0,106)" x2="650" y2="0" style="fill: none; stroke: #ddd; stroke-width: 1; opacity: 1;"></line><line transform="translate(0,80)" x2="650" y2="0" style="fill: none; stroke: #ddd; stroke-width: 1; opacity: 1;"></line><line transform="translate(0,59)" x2="650" y2="0" style="fill: none; stroke: #ddd; stroke-width: 1; opacity: 1;"></line><line transform="translate(0,41)" x2="650" y2="0" style="fill: none; stroke: #ddd; stroke-width: 1; opacity: 1;"></line><line transform="translate(0,26)" x2="650" y2="0" style="fill: none; stroke: #ddd; stroke-width: 1; opacity: 1;"></line><line transform="translate(0,12)" x2="650" y2="0" style="fill: none; stroke: #ddd; stroke-width: 1; opacity: 1;"></line><line transform="translate(0,0)" x2="650" y2="0" style="fill: none; stroke: #ddd; stroke-width: 1; opacity: 1;"></line></g></g><path class="foreground" d="" style="pointer-events: none; display: none; fill: none;"></path></g></g><g class="mark-group role-axis"><g transform="translate(0.5,800.5)"><path class="background" d="M0,0h0v0h0Z" style="pointer-events: none; fill: none;"></path><g><g class="mark-rule role-axis-tick" style="pointer-events: none;"><line transform="translate(0,0)" x2="0" y2="5" style="fill: none; stroke: #888; stroke-width: 1; opacity: 1;"></line><line transform="translate(46,0)" x2="0" y2="5" style="fill: none; stroke: #888; stroke-width: 1; opacity: 1;"></line><line transform="translate(93,0)" x2="0" y2="5" style="fill: none; stroke: #888; stroke-width: 1; opacity: 1;"></line><line transform="translate(139,0)" x2="0" y2="5" style="fill: none; stroke: #888; stroke-width: 1; opacity: 1;"></line><line transform="translate(186,0)" x2="0" y2="5" style="fill: none; stroke: #888; stroke-width: 1; opacity: 1;"></line><line transform="translate(232,0)" x2="0" y2="5" style="fill: none; stroke: #888; stroke-width: 1; opacity: 1;"></line><line transform="translate(279,0)" x2="0" y2="5" style="fill: none; stroke: #888; stroke-width: 1; opacity: 1;"></line><line transform="translate(325,0)" x2="0" y2="5" style="fill: none; stroke: #888; stroke-width: 1; opacity: 1;"></line><line transform="translate(371,0)" x2="0" y2="5" style="fill: none; stroke: #888; stroke-width: 1; opacity: 1;"></line><line transform="translate(418,0)" x2="0" y2="5" style="fill: none; stroke: #888; stroke-width: 1; opacity: 1;"></line><line transform="translate(464,0)" x2="0" y2="5" style="fill: none; stroke: #888; stroke-width: 1; opacity: 1;"></line><line transform="translate(511,0)" x2="0" y2="5" style="fill: none; stroke: #888; stroke-width: 1; opacity: 1;"></line><line transform="translate(557,0)" x2="0" y2="5" style="fill: none; stroke: #888; stroke-width: 1; opacity: 1;"></line><line transform="translate(604,0)" x2="0" y2="5" style="fill: none; stroke: #888; stroke-width: 1; opacity: 1;"></line><line transform="translate(650,0)" x2="0" y2="5" style="fill: none; stroke: #888; stroke-width: 1; opacity: 1;"></line></g><g class="mark-text role-axis-label" style="pointer-events: none;"><text text-anchor="start" transform="translate(0,19)" style="font-family: sans-serif; font-size: 15px; fill: #000; opacity: 1;">0</text><text text-anchor="middle" transform="translate(46.42857142857142,19)" style="font-family: sans-serif; font-size: 15px; fill: #000; opacity: 1;">2</text><text text-anchor="middle" transform="translate(92.85714285714285,19)" style="font-family: sans-serif; font-size: 15px; fill: #000; opacity: 1;">4</text><text text-anchor="middle" transform="translate(139.28571428571428,19)" style="font-family: sans-serif; font-size: 15px; fill: #000; opacity: 1;">6</text><text text-anchor="middle" transform="translate(185.7142857142857,19)" style="font-family: sans-serif; font-size: 15px; fill: #000; opacity: 1;">8</text><text text-anchor="middle" transform="translate(232.14285714285714,19)" style="font-family: sans-serif; font-size: 15px; fill: #000; opacity: 1;">10</text><text text-anchor="middle" transform="translate(278.57142857142856,19)" style="font-family: sans-serif; font-size: 15px; fill: #000; opacity: 1;">12</text><text text-anchor="middle" transform="translate(325,19)" style="font-family: sans-serif; font-size: 15px; fill: #000; opacity: 1;">14</text><text text-anchor="middle" transform="translate(371.4285714285714,19)" style="font-family: sans-serif; font-size: 15px; fill: #000; opacity: 1;">16</text><text text-anchor="middle" transform="translate(417.8571428571429,19)" style="font-family: sans-serif; font-size: 15px; fill: #000; opacity: 1;">18</text><text text-anchor="middle" transform="translate(464.2857142857143,19)" style="font-family: sans-serif; font-size: 15px; fill: #000; opacity: 1;">20</text><text text-anchor="middle" transform="translate(510.7142857142857,19)" style="font-family: sans-serif; font-size: 15px; fill: #000; opacity: 1;">22</text><text text-anchor="middle" transform="translate(557.1428571428571,19)" style="font-family: sans-serif; font-size: 15px; fill: #000; opacity: 1;">24</text><text text-anchor="middle" transform="translate(603.5714285714286,19)" style="font-family: sans-serif; font-size: 15px; fill: #000; opacity: 1;">26</text><text text-anchor="end" transform="translate(650,19)" style="font-family: sans-serif; font-size: 15px; fill: #000; opacity: 1;">28</text></g><g class="mark-rule role-axis-domain" style="pointer-events: none;"><line transform="translate(0,0)" x2="650" y2="0" style="fill: none; stroke: #888; stroke-width: 1; opacity: 1;"></line></g><g class="mark-text role-axis-title" style="pointer-events: none;"><text text-anchor="middle" transform="translate(325,42)" style="font-family: sans-serif; font-size: 20px; font-weight: bold; fill: #000; opacity: 1;">Dias a partir da 5a morte no estado</text></g></g><path class="foreground" d="" style="pointer-events: none; display: none; fill: none;"></path></g></g><g class="mark-group role-axis"><g transform="translate(0.5,0.5)"><path class="background" d="M0,0h0v0h0Z" style="pointer-events: none; fill: none;"></path><g><g class="mark-rule role-axis-tick" style="pointer-events: none;"><line transform="translate(0,800)" x2="-5" y2="0" style="fill: none; stroke: #888; stroke-width: 1; opacity: 1;"></line><line transform="translate(0,720)" x2="-5" y2="0" style="fill: none; stroke: #888; stroke-width: 1; opacity: 1;"></line><line transform="translate(0,673)" x2="-5" y2="0" style="fill: none; stroke: #888; stroke-width: 1; opacity: 1;"></line><line transform="translate(0,639)" x2="-5" y2="0" style="fill: none; stroke: #888; stroke-width: 1; opacity: 1;"></line><line transform="translate(0,614)" x2="-5" y2="0" style="fill: none; stroke: #888; stroke-width: 1; opacity: 1;"></line><line transform="translate(0,592)" x2="-5" y2="0" style="fill: none; stroke: #888; stroke-width: 1; opacity: 1;"></line><line transform="translate(0,575)" x2="-5" y2="0" style="fill: none; stroke: #888; stroke-width: 1; opacity: 1;"></line><line transform="translate(0,559)" x2="-5" y2="0" style="fill: none; stroke: #888; stroke-width: 1; opacity: 1;"></line><line transform="translate(0,546)" x2="-5" y2="0" style="fill: none; stroke: #888; stroke-width: 1; opacity: 1;"></line><line transform="translate(0,533)" x2="-5" y2="0" style="fill: none; stroke: #888; stroke-width: 1; opacity: 1;"></line><line transform="translate(0,453)" x2="-5" y2="0" style="fill: none; stroke: #888; stroke-width: 1; opacity: 1;"></line><line transform="translate(0,406)" x2="-5" y2="0" style="fill: none; stroke: #888; stroke-width: 1; opacity: 1;"></line><line transform="translate(0,373)" x2="-5" y2="0" style="fill: none; stroke: #888; stroke-width: 1; opacity: 1;"></line><line transform="translate(0,347)" x2="-5" y2="0" style="fill: none; stroke: #888; stroke-width: 1; opacity: 1;"></line><line transform="translate(0,326)" x2="-5" y2="0" style="fill: none; stroke: #888; stroke-width: 1; opacity: 1;"></line><line transform="translate(0,308)" x2="-5" y2="0" style="fill: none; stroke: #888; stroke-width: 1; opacity: 1;"></line><line transform="translate(0,293)" x2="-5" y2="0" style="fill: none; stroke: #888; stroke-width: 1; opacity: 1;"></line><line transform="translate(0,279)" x2="-5" y2="0" style="fill: none; stroke: #888; stroke-width: 1; opacity: 1;"></line><line transform="translate(0,267)" x2="-5" y2="0" style="fill: none; stroke: #888; stroke-width: 1; opacity: 1;"></line><line transform="translate(0,186)" x2="-5" y2="0" style="fill: none; stroke: #888; stroke-width: 1; opacity: 1;"></line><line transform="translate(0,139)" x2="-5" y2="0" style="fill: none; stroke: #888; stroke-width: 1; opacity: 1;"></line><line transform="translate(0,106)" x2="-5" y2="0" style="fill: none; stroke: #888; stroke-width: 1; opacity: 1;"></line><line transform="translate(0,80)" x2="-5" y2="0" style="fill: none; stroke: #888; stroke-width: 1; opacity: 1;"></line><line transform="translate(0,59)" x2="-5" y2="0" style="fill: none; stroke: #888; stroke-width: 1; opacity: 1;"></line><line transform="translate(0,41)" x2="-5" y2="0" style="fill: none; stroke: #888; stroke-width: 1; opacity: 1;"></line><line transform="translate(0,26)" x2="-5" y2="0" style="fill: none; stroke: #888; stroke-width: 1; opacity: 1;"></line><line transform="translate(0,12)" x2="-5" y2="0" style="fill: none; stroke: #888; stroke-width: 1; opacity: 1;"></line><line transform="translate(0,0)" x2="-5" y2="0" style="fill: none; stroke: #888; stroke-width: 1; opacity: 1;"></line></g><g class="mark-text role-axis-label" style="pointer-events: none;"><text text-anchor="end" transform="translate(-7,805)" style="font-family: sans-serif; font-size: 15px; fill: #000; opacity: 1;">1</text><text text-anchor="end" transform="translate(-7,724.7253344896051)" style="font-family: sans-serif; font-size: 15px; fill: #000; opacity: 1;">2</text><text text-anchor="end" transform="translate(-7,677.76766540809)" style="font-family: sans-serif; font-size: 15px; fill: #000; opacity: 1;">3</text><text text-anchor="end" transform="translate(-7,644.45066897921)" style="font-family: sans-serif; font-size: 15px; fill: #000; opacity: 1;"></text><text text-anchor="end" transform="translate(-7,618.6079988437283)" style="font-family: sans-serif; font-size: 15px; fill: #000; opacity: 1;"></text><text text-anchor="end" transform="translate(-7,597.492999897695)" style="font-family: sans-serif; font-size: 15px; fill: #000; opacity: 1;"></text><text text-anchor="end" transform="translate(-7,579.6405226628649)" style="font-family: sans-serif; font-size: 15px; fill: #000; opacity: 1;"></text><text text-anchor="end" transform="translate(-7,564.176003468815)" style="font-family: sans-serif; font-size: 15px; fill: #000; opacity: 1;"></text><text text-anchor="end" transform="translate(-7,550.53533081618)" style="font-family: sans-serif; font-size: 15px; fill: #000; opacity: 1;"></text><text text-anchor="end" transform="translate(-7,538.3333333333333)" style="font-family: sans-serif; font-size: 15px; fill: #000; opacity: 1;">10</text><text text-anchor="end" transform="translate(-7,458.05866782293833)" style="font-family: sans-serif; font-size: 15px; fill: #000; opacity: 1;">20</text><text text-anchor="end" transform="translate(-7,411.1009987414233)" style="font-family: sans-serif; font-size: 15px; fill: #000; opacity: 1;">30</text><text text-anchor="end" transform="translate(-7,377.78400231254335)" style="font-family: sans-serif; font-size: 15px; fill: #000; opacity: 1;"></text><text text-anchor="end" transform="translate(-7,351.94133217706167)" style="font-family: sans-serif; font-size: 15px; fill: #000; opacity: 1;"></text><text text-anchor="end" transform="translate(-7,330.82633323102834)" style="font-family: sans-serif; font-size: 15px; fill: #000; opacity: 1;"></text><text text-anchor="end" transform="translate(-7,312.97385599619815)" style="font-family: sans-serif; font-size: 15px; fill: #000; opacity: 1;"></text><text text-anchor="end" transform="translate(-7,297.50933680214837)" style="font-family: sans-serif; font-size: 15px; fill: #000; opacity: 1;"></text><text text-anchor="end" transform="translate(-7,283.8686641495134)" style="font-family: sans-serif; font-size: 15px; fill: #000; opacity: 1;"></text><text text-anchor="end" transform="translate(-7,271.66666666666663)" style="font-family: sans-serif; font-size: 15px; fill: #000; opacity: 1;">100</text><text text-anchor="end" transform="translate(-7,191.39200115627173)" style="font-family: sans-serif; font-size: 15px; fill: #000; opacity: 1;">200</text><text text-anchor="end" transform="translate(-7,144.43433207475664)" style="font-family: sans-serif; font-size: 15px; fill: #000; opacity: 1;">300</text><text text-anchor="end" transform="translate(-7,111.11733564587666)" style="font-family: sans-serif; font-size: 15px; fill: #000; opacity: 1;"></text><text text-anchor="end" transform="translate(-7,85.27466551039497)" style="font-family: sans-serif; font-size: 15px; fill: #000; opacity: 1;"></text><text text-anchor="end" transform="translate(-7,64.15966656436167)" style="font-family: sans-serif; font-size: 15px; fill: #000; opacity: 1;"></text><text text-anchor="end" transform="translate(-7,46.307189329531546)" style="font-family: sans-serif; font-size: 15px; fill: #000; opacity: 1;"></text><text text-anchor="end" transform="translate(-7,30.842670135481693)" style="font-family: sans-serif; font-size: 15px; fill: #000; opacity: 1;"></text><text text-anchor="end" transform="translate(-7,17.20199748284667)" style="font-family: sans-serif; font-size: 15px; fill: #000; opacity: 1;"></text><text text-anchor="end" transform="translate(-7,5)" style="font-family: sans-serif; font-size: 15px; fill: #000; opacity: 1;">1,000</text></g><g class="mark-rule role-axis-domain" style="pointer-events: none;"><line transform="translate(0,800)" x2="0" y2="-800" style="fill: none; stroke: #888; stroke-width: 1; opacity: 1;"></line></g><g class="mark-text role-axis-title" style="pointer-events: none;"><text text-anchor="middle" transform="translate(-48.53662109375,400) rotate(-90) translate(0,-4)" style="font-family: sans-serif; font-size: 20px; font-weight: bold; fill: #000; opacity: 1;">Mortes confirmadas (escala logarítmica)</text></g></g><path class="foreground" d="" style="pointer-events: none; display: none; fill: none;"></path></g></g><g class="mark-group role-scope layer_0_pathgroup"><g transform="translate(0,0)"><path class="background" d="M0,0h650v800h-650Z" style="fill: none;"></path><g><g class="mark-line role-mark layer_0_marks"><path d="M0,613.6079988437283Z" style="fill: none; stroke: #4c78a8; stroke-width: 4; opacity: 0.7;"></path></g></g><path class="foreground" d="" style="display: none; fill: none;"></path></g><g transform="translate(0,0)"><path class="background" d="M0,0h650v800h-650Z" style="fill: none;"></path><g><g class="mark-line role-mark layer_0_marks"><path d="M0,574.6405226628649L23.21428571428571,512.2183343873L46.42857142857142,486.3756642518183L69.64285714285714,458.9990397459123L92.85714285714285,436.8725770619752L116.07142857142857,406.1009987414233L139.28571428571428,372.78400231254335L162.5,346.94133217706167L185.7142857142857,340.19310143978953L208.92857142857144,322.0288828004656L232.14285714285714,306.3311070082466L255.35714285714286,278.8686641495134L278.57142857142856,259.9184359293946" style="fill: none; stroke: #f58518; stroke-width: 4; opacity: 0.7;"></path></g></g><path class="foreground" d="" style="display: none; fill: none;"></path></g><g transform="translate(0,0)"><path class="background" d="M0,0h650v800h-650Z" style="fill: none;"></path><g><g class="mark-line role-mark layer_0_marks"><path d="M0,613.6079988437283L23.21428571428571,613.6079988437283L46.42857142857142,592.492999897695L69.64285714285714,574.6405226628649L92.85714285714285,574.6405226628649" style="fill: none; stroke: #e45756; stroke-width: 4; opacity: 0.7;"></path></g></g><path class="foreground" d="" style="display: none; fill: none;"></path></g><g transform="translate(0,0)"><path class="background" d="M0,0h650v800h-650Z" style="fill: none;"></path><g><g class="mark-line role-mark layer_0_marks"><path d="M0,592.492999897695L23.21428571428571,574.6405226628649L46.42857142857142,545.53533081618L69.64285714285714,533.3333333333333L92.85714285714285,494.36585715246986L116.07142857142857,465.260665305785L139.28571428571428,458.9990397459123L162.5,458.9990397459123L185.7142857142857,447.4081880709548L208.92857142857144,447.4081880709548L232.14285714285714,442.0206184474116L255.35714285714286,422.6737738744485L278.57142857142856,414.0911916420748" style="fill: none; stroke: #72b7b2; stroke-width: 4; opacity: 0.7;"></path></g></g><path class="foreground" d="" style="display: none; fill: none;"></path></g><g transform="translate(0,0)"><path class="background" d="M0,0h650v800h-650Z" style="fill: none;"></path><g><g class="mark-line role-mark layer_0_marks"><path d="M0,613.6079988437283L23.21428571428571,613.6079988437283L46.42857142857142,574.6405226628649L69.64285714285714,545.53533081618L92.85714285714285,447.4081880709548L116.07142857142857,442.0206184474116L139.28571428571428,436.8725770619752L162.5,388.24852150659314L185.7142857142857,388.24852150659314L208.92857142857144,372.78400231254335L232.14285714285714,331.7667051540023L255.35714285714286,331.7667051540023L278.57142857142856,313.04671927977967L301.7857142857143,301.5382080717397L325,298.4497087251223L348.2142857142857,265.51430032462855L371.4285714285714,254.5805389902247L394.6428571428571,241.75421729007064" style="fill: none; stroke: #54a24b; stroke-width: 4; opacity: 0.7;"></path></g></g><path class="foreground" d="" style="display: none; fill: none;"></path></g><g transform="translate(0,0)"><path class="background" d="M0,0h650v800h-650Z" style="fill: none;"></path><g><g class="mark-line role-mark layer_0_marks"><path d="M0,613.6079988437283L23.21428571428571,592.492999897695L46.42857142857142,574.6405226628649L69.64285714285714,574.6405226628649L92.85714285714285,533.3333333333333L116.07142857142857,512.2183343873L139.28571428571428,512.2183343873L162.5,502.9484393848435L185.7142857142857,494.36585715246986L208.92857142857144,494.36585715246986L232.14285714285714,494.36585715246986L255.35714285714286,486.3756642518183L278.57142857142856,471.88028763246024L301.7857142857143,471.88028763246024" style="fill: none; stroke: #eeca3b; stroke-width: 4; opacity: 0.7;"></path></g></g><path class="foreground" d="" style="display: none; fill: none;"></path></g><g transform="translate(0,0)"><path class="background" d="M0,0h650v800h-650Z" style="fill: none;"></path><g><g class="mark-line role-mark layer_0_marks"><path d="M0,613.6079988437283L23.21428571428571,592.492999897695L46.42857142857142,592.492999897695L69.64285714285714,592.492999897695L92.85714285714285,592.492999897695L116.07142857142857,592.492999897695L139.28571428571428,574.6405226628649L162.5,559.176003468815L185.7142857142857,545.53533081618L208.92857142857144,494.36585715246986L232.14285714285714,471.88028763246024L255.35714285714286,465.260665305785L278.57142857142856,447.4081880709548" style="fill: none; stroke: #b279a2; stroke-width: 4; opacity: 0.7;"></path></g></g><path class="foreground" d="" style="display: none; fill: none;"></path></g><g transform="translate(0,0)"><path class="background" d="M0,0h650v800h-650Z" style="fill: none;"></path><g><g class="mark-line role-mark layer_0_marks"><path d="M0,613.6079988437283L23.21428571428571,613.6079988437283L46.42857142857142,574.6405226628649L69.64285714285714,574.6405226628649L92.85714285714285,559.176003468815L116.07142857142857,533.3333333333333L139.28571428571428,494.36585715246986L162.5,486.3756642518183L185.7142857142857,486.3756642518183L208.92857142857144,486.3756642518183" style="fill: none; stroke: #ff9da6; stroke-width: 4; opacity: 0.7;"></path></g></g><path class="foreground" d="" style="display: none; fill: none;"></path></g><g transform="translate(0,0)"><path class="background" d="M0,0h650v800h-650Z" style="fill: none;"></path><g><g class="mark-line role-mark layer_0_marks"><path d="M0,522.2952839578066L23.21428571428571,512.2183343873L46.42857142857142,478.90133795842013L69.64285714285714,447.4081880709548L92.85714285714285,431.943668876905L116.07142857142857,418.3029962242701L139.28571428571428,398.62667244802503L162.5,391.60562212206526L185.7142857142857,381.81287358213467" style="fill: none; stroke: #9d755d; stroke-width: 4; opacity: 0.7;"></path></g></g><path class="foreground" d="" style="display: none; fill: none;"></path></g><g transform="translate(0,0)"><path class="background" d="M0,0h650v800h-650Z" style="fill: none;"></path><g><g class="mark-line role-mark layer_0_marks"><path d="M0,592.492999897695L23.21428571428571,592.492999897695L46.42857142857142,592.492999897695L69.64285714285714,545.53533081618L92.85714285714285,522.2952839578066L116.07142857142857,494.36585715246986L139.28571428571428,486.3756642518183L162.5,471.88028763246024L185.7142857142857,471.88028763246024L208.92857142857144,453.05866782293833L232.14285714285714,436.8725770619752L255.35714285714286,418.3029962242701L278.57142857142856,406.1009987414233" style="fill: none; stroke: #bab0ac; stroke-width: 4; opacity: 0.7;"></path></g></g><path class="foreground" d="" style="display: none; fill: none;"></path></g><g transform="translate(0,0)"><path class="background" d="M0,0h650v800h-650Z" style="fill: none;"></path><g><g class="mark-line role-mark layer_0_marks"><path d="M0,613.6079988437283L23.21428571428571,613.6079988437283L46.42857142857142,592.492999897695L69.64285714285714,574.6405226628649L92.85714285714285,545.53533081618L116.07142857142857,522.2952839578066L139.28571428571428,494.36585715246986L162.5,494.36585715246986L185.7142857142857,447.4081880709548L208.92857142857144,447.4081880709548" style="fill: none; stroke: #4c78a8; stroke-width: 4; opacity: 0.7;"></path></g></g><path class="foreground" d="" style="display: none; fill: none;"></path></g><g transform="translate(0,0)"><path class="background" d="M0,0h650v800h-650Z" style="fill: none;"></path><g><g class="mark-line role-mark layer_0_marks"><path d="M0,574.6405226628649L23.21428571428571,522.2952839578066L46.42857142857142,522.2952839578066L69.64285714285714,502.9484393848435L92.85714285714285,502.9484393848435L116.07142857142857,478.90133795842013L139.28571428571428,447.4081880709548L162.5,431.943668876905" style="fill: none; stroke: #f58518; stroke-width: 4; opacity: 0.7;"></path></g></g><path class="foreground" d="" style="display: none; fill: none;"></path></g><g transform="translate(0,0)"><path class="background" d="M0,0h650v800h-650Z" style="fill: none;"></path><g><g class="mark-line role-mark layer_0_marks"><path d="M0,613.6079988437283L23.21428571428571,613.6079988437283L46.42857142857142,592.492999897695L69.64285714285714,592.492999897695L92.85714285714285,559.176003468815L116.07142857142857,545.53533081618L139.28571428571428,533.3333333333333L162.5,494.36585715246986L185.7142857142857,447.4081880709548L208.92857142857144,406.1009987414233L232.14285714285714,391.60562212206526L255.35714285714286,356.5979115515802L278.57142857142856,333.81652613167984L301.7857142857143,316.55643822857184L325,304.7113342849951L348.2142857142857,285.4882864761886L371.4285714285714,264.3732875301554L394.6428571428571,250.48057590570352L417.8571428571429,225.24372334265018" style="fill: none; stroke: #e45756; stroke-width: 4; opacity: 0.7;"></path></g></g><path class="foreground" d="" style="display: none; fill: none;"></path></g><g transform="translate(0,0)"><path class="background" d="M0,0h650v800h-650Z" style="fill: none;"></path><g><g class="mark-line role-mark layer_0_marks"><path d="M0,613.6079988437283L23.21428571428571,592.492999897695L46.42857142857142,574.6405226628649L69.64285714285714,574.6405226628649L92.85714285714285,574.6405226628649L116.07142857142857,574.6405226628649L139.28571428571428,559.176003468815L162.5,559.176003468815L185.7142857142857,559.176003468815" style="fill: none; stroke: #72b7b2; stroke-width: 4; opacity: 0.7;"></path></g></g><path class="foreground" d="" style="display: none; fill: none;"></path></g><g transform="translate(0,0)"><path class="background" d="M0,0h650v800h-650Z" style="fill: none;"></path><g><g class="mark-line role-mark layer_0_marks"><path d="M0,613.6079988437283L23.21428571428571,574.6405226628649L46.42857142857142,533.3333333333333L69.64285714285714,494.36585715246986L92.85714285714285,486.3756642518183L116.07142857142857,471.88028763246024L139.28571428571428,431.943668876905L162.5,422.6737738744485L185.7142857142857,418.3029962242701L208.92857142857144,402.30354831086055L232.14285714285714,395.06294936589666L255.35714285714286,375.7161047929335L278.57142857142856,369.9243048747372" style="fill: none; stroke: #54a24b; stroke-width: 4; opacity: 0.7;"></path></g></g><path class="foreground" d="" style="display: none; fill: none;"></path></g><g transform="translate(0,0)"><path class="background" d="M0,0h650v800h-650Z" style="fill: none;"></path><g><g class="mark-line role-mark layer_0_marks"><path d="M0,592.492999897695L23.21428571428571,559.176003468815L46.42857142857142,545.53533081618L69.64285714285714,533.3333333333333L92.85714285714285,502.9484393848435L116.07142857142857,471.88028763246024L139.28571428571428,465.260665305785L162.5,436.8725770619752L185.7142857142857,414.0911916420748L208.92857142857144,369.9243048747372L232.14285714285714,354.1072378838087L255.35714285714286,329.75253504988336L278.57142857142856,318.3520069376301L301.7857142857143,306.3311070082466L325,280.16266489468995L348.2142857142857,259.9184359293946L371.4285714285714,243.63737848673378L394.6428571428571,222.04871073381975L417.8571428571429,215.91154715458893L441.0714285714286,205.21362096579355L464.2857142857143,197.31429653731337L487.5,173.2671951108899L510.7142857142857,153.8011002835179" style="fill: none; stroke: #eeca3b; stroke-width: 4; opacity: 0.7;"></path></g></g><path class="foreground" d="" style="display: none; fill: none;"></path></g><g transform="translate(0,0)"><path class="background" d="M0,0h650v800h-650Z" style="fill: none;"></path><g><g class="mark-line role-mark layer_0_marks"><path d="M0,592.492999897695L23.21428571428571,574.6405226628649L46.42857142857142,574.6405226628649L69.64285714285714,559.176003468815L92.85714285714285,522.2952839578066L116.07142857142857,522.2952839578066L139.28571428571428,522.2952839578066L162.5,502.9484393848435L185.7142857142857,471.88028763246024L208.92857142857144,465.260665305785L232.14285714285714,458.9990397459123L255.35714285714286,453.05866782293833" style="fill: none; stroke: #b279a2; stroke-width: 4; opacity: 0.7;"></path></g></g><path class="foreground" d="" style="display: none; fill: none;"></path></g><g transform="translate(0,0)"><path class="background" d="M0,0h650v800h-650Z" style="fill: none;"></path><g><g class="mark-line role-mark layer_0_marks"><path d="M0,613.6079988437283L23.21428571428571,613.6079988437283L46.42857142857142,592.492999897695L69.64285714285714,574.6405226628649L92.85714285714285,574.6405226628649L116.07142857142857,559.176003468815L139.28571428571428,559.176003468815L162.5,533.3333333333333L185.7142857142857,494.36585715246986L208.92857142857144,486.3756642518183L232.14285714285714,478.90133795842013L255.35714285714286,478.90133795842013L278.57142857142856,471.88028763246024L301.7857142857143,465.260665305785L325,458.9990397459123" style="fill: none; stroke: #ff9da6; stroke-width: 4; opacity: 0.7;"></path></g></g><path class="foreground" d="" style="display: none; fill: none;"></path></g><g transform="translate(0,0)"><path class="background" d="M0,0h650v800h-650Z" style="fill: none;"></path><g><g class="mark-line role-mark layer_0_marks"><path d="M0,613.6079988437283L23.21428571428571,613.6079988437283L46.42857142857142,533.3333333333333L69.64285714285714,533.3333333333333L92.85714285714285,522.2952839578066L116.07142857142857,486.3756642518183L139.28571428571428,471.88028763246024L162.5,465.260665305785L185.7142857142857,465.260665305785L208.92857142857144,447.4081880709548L232.14285714285714,431.943668876905L255.35714285714286,422.6737738744485L278.57142857142856,414.0911916420748L301.7857142857143,410.02720056027835" style="fill: none; stroke: #9d755d; stroke-width: 4; opacity: 0.7;"></path></g></g><path class="foreground" d="" style="display: none; fill: none;"></path></g><g transform="translate(0,0)"><path class="background" d="M0,0h650v800h-650Z" style="fill: none;"></path><g><g class="mark-line role-mark layer_0_marks"><path d="M0,613.6079988437283L23.21428571428571,545.53533081618L46.42857142857142,486.3756642518183L69.64285714285714,442.0206184474116L92.85714285714285,406.1009987414233L116.07142857142857,372.78400231254335L139.28571428571428,351.6690033665101L162.5,329.75253504988336L185.7142857142857,311.3309566116703L208.92857142857144,286.85885705016494L232.14285714285714,269.00637981533464L255.35714285714286,252.51241507108801L278.57142857142856,231.05629110127524L301.7857142857143,209.3749738539472L325,193.55790686301867L348.2142857142857,175.88156937596838L371.4285714285714,156.0071072077819L394.6428571428571,149.51128164526324L417.8571428571429,137.9003777043323L441.0714285714286,114.83362410265441L464.2857142857143,98.28166159648744L487.5,81.20488626928059L510.7142857142857,71.36166404720834L533.9285714285714,67.14985946501324L557.1428571428571,61.4993797130297L580.3571428571429,57.62571219393733L603.5714285714286,42.13738544263626L626.7857142857143,29.07210746941633" style="fill: none; stroke: #bab0ac; stroke-width: 4; opacity: 0.7;"></path></g></g><path class="foreground" d="" style="display: none; fill: none;"></path></g></g><g class="mark-group role-scope layer_1_pathgroup"><g transform="translate(0,0)"><path class="background" d="M0,0h650v800h-650Z" style="fill: none;"></path><g><g class="mark-line role-mark layer_1_marks" style="pointer-events: none;"><path d="M0,613.6079988437283Z" style="fill: none; stroke: #4c78a8; stroke-width: 4; opacity: 0.5;"></path></g></g><path class="foreground" d="" style="display: none; fill: none;"></path></g><g transform="translate(0,0)"><path class="background" d="M0,0h650v800h-650Z" style="fill: none;"></path><g><g class="mark-line role-mark layer_1_marks" style="pointer-events: none;"><path d="M0,574.6405226628649L23.21428571428571,512.2183343873L46.42857142857142,486.3756642518183L69.64285714285714,458.9990397459123L92.85714285714285,436.8725770619752L116.07142857142857,406.1009987414233L139.28571428571428,372.78400231254335L162.5,346.94133217706167L185.7142857142857,340.19310143978953L208.92857142857144,322.0288828004656L232.14285714285714,306.3311070082466L255.35714285714286,278.8686641495134L278.57142857142856,259.9184359293946" style="fill: none; stroke: #f58518; stroke-width: 4; opacity: 0.5;"></path></g></g><path class="foreground" d="" style="display: none; fill: none;"></path></g><g transform="translate(0,0)"><path class="background" d="M0,0h650v800h-650Z" style="fill: none;"></path><g><g class="mark-line role-mark layer_1_marks" style="pointer-events: none;"><path d="M0,613.6079988437283L23.21428571428571,613.6079988437283L46.42857142857142,592.492999897695L69.64285714285714,574.6405226628649L92.85714285714285,574.6405226628649" style="fill: none; stroke: #e45756; stroke-width: 4; opacity: 0.5;"></path></g></g><path class="foreground" d="" style="display: none; fill: none;"></path></g><g transform="translate(0,0)"><path class="background" d="M0,0h650v800h-650Z" style="fill: none;"></path><g><g class="mark-line role-mark layer_1_marks" style="pointer-events: none;"><path d="M0,592.492999897695L23.21428571428571,574.6405226628649L46.42857142857142,545.53533081618L69.64285714285714,533.3333333333333L92.85714285714285,494.36585715246986L116.07142857142857,465.260665305785L139.28571428571428,458.9990397459123L162.5,458.9990397459123L185.7142857142857,447.4081880709548L208.92857142857144,447.4081880709548L232.14285714285714,442.0206184474116L255.35714285714286,422.6737738744485L278.57142857142856,414.0911916420748" style="fill: none; stroke: #72b7b2; stroke-width: 4; opacity: 0.5;"></path></g></g><path class="foreground" d="" style="display: none; fill: none;"></path></g><g transform="translate(0,0)"><path class="background" d="M0,0h650v800h-650Z" style="fill: none;"></path><g><g class="mark-line role-mark layer_1_marks" style="pointer-events: none;"><path d="M0,613.6079988437283L23.21428571428571,613.6079988437283L46.42857142857142,574.6405226628649L69.64285714285714,545.53533081618L92.85714285714285,447.4081880709548L116.07142857142857,442.0206184474116L139.28571428571428,436.8725770619752L162.5,388.24852150659314L185.7142857142857,388.24852150659314L208.92857142857144,372.78400231254335L232.14285714285714,331.7667051540023L255.35714285714286,331.7667051540023L278.57142857142856,313.04671927977967L301.7857142857143,301.5382080717397L325,298.4497087251223L348.2142857142857,265.51430032462855L371.4285714285714,254.5805389902247L394.6428571428571,241.75421729007064" style="fill: none; stroke: #54a24b; stroke-width: 4; opacity: 0.5;"></path></g></g><path class="foreground" d="" style="display: none; fill: none;"></path></g><g transform="translate(0,0)"><path class="background" d="M0,0h650v800h-650Z" style="fill: none;"></path><g><g class="mark-line role-mark layer_1_marks" style="pointer-events: none;"><path d="M0,613.6079988437283L23.21428571428571,592.492999897695L46.42857142857142,574.6405226628649L69.64285714285714,574.6405226628649L92.85714285714285,533.3333333333333L116.07142857142857,512.2183343873L139.28571428571428,512.2183343873L162.5,502.9484393848435L185.7142857142857,494.36585715246986L208.92857142857144,494.36585715246986L232.14285714285714,494.36585715246986L255.35714285714286,486.3756642518183L278.57142857142856,471.88028763246024L301.7857142857143,471.88028763246024" style="fill: none; stroke: #eeca3b; stroke-width: 4; opacity: 0.5;"></path></g></g><path class="foreground" d="" style="display: none; fill: none;"></path></g><g transform="translate(0,0)"><path class="background" d="M0,0h650v800h-650Z" style="fill: none;"></path><g><g class="mark-line role-mark layer_1_marks" style="pointer-events: none;"><path d="M0,613.6079988437283L23.21428571428571,592.492999897695L46.42857142857142,592.492999897695L69.64285714285714,592.492999897695L92.85714285714285,592.492999897695L116.07142857142857,592.492999897695L139.28571428571428,574.6405226628649L162.5,559.176003468815L185.7142857142857,545.53533081618L208.92857142857144,494.36585715246986L232.14285714285714,471.88028763246024L255.35714285714286,465.260665305785L278.57142857142856,447.4081880709548" style="fill: none; stroke: #b279a2; stroke-width: 4; opacity: 0.5;"></path></g></g><path class="foreground" d="" style="display: none; fill: none;"></path></g><g transform="translate(0,0)"><path class="background" d="M0,0h650v800h-650Z" style="fill: none;"></path><g><g class="mark-line role-mark layer_1_marks" style="pointer-events: none;"><path d="M0,613.6079988437283L23.21428571428571,613.6079988437283L46.42857142857142,574.6405226628649L69.64285714285714,574.6405226628649L92.85714285714285,559.176003468815L116.07142857142857,533.3333333333333L139.28571428571428,494.36585715246986L162.5,486.3756642518183L185.7142857142857,486.3756642518183L208.92857142857144,486.3756642518183" style="fill: none; stroke: #ff9da6; stroke-width: 4; opacity: 0.5;"></path></g></g><path class="foreground" d="" style="display: none; fill: none;"></path></g><g transform="translate(0,0)"><path class="background" d="M0,0h650v800h-650Z" style="fill: none;"></path><g><g class="mark-line role-mark layer_1_marks" style="pointer-events: none;"><path d="M0,522.2952839578066L23.21428571428571,512.2183343873L46.42857142857142,478.90133795842013L69.64285714285714,447.4081880709548L92.85714285714285,431.943668876905L116.07142857142857,418.3029962242701L139.28571428571428,398.62667244802503L162.5,391.60562212206526L185.7142857142857,381.81287358213467" style="fill: none; stroke: #9d755d; stroke-width: 4; opacity: 0.5;"></path></g></g><path class="foreground" d="" style="display: none; fill: none;"></path></g><g transform="translate(0,0)"><path class="background" d="M0,0h650v800h-650Z" style="fill: none;"></path><g><g class="mark-line role-mark layer_1_marks" style="pointer-events: none;"><path d="M0,592.492999897695L23.21428571428571,592.492999897695L46.42857142857142,592.492999897695L69.64285714285714,545.53533081618L92.85714285714285,522.2952839578066L116.07142857142857,494.36585715246986L139.28571428571428,486.3756642518183L162.5,471.88028763246024L185.7142857142857,471.88028763246024L208.92857142857144,453.05866782293833L232.14285714285714,436.8725770619752L255.35714285714286,418.3029962242701L278.57142857142856,406.1009987414233" style="fill: none; stroke: #bab0ac; stroke-width: 4; opacity: 0.5;"></path></g></g><path class="foreground" d="" style="display: none; fill: none;"></path></g><g transform="translate(0,0)"><path class="background" d="M0,0h650v800h-650Z" style="fill: none;"></path><g><g class="mark-line role-mark layer_1_marks" style="pointer-events: none;"><path d="M0,613.6079988437283L23.21428571428571,613.6079988437283L46.42857142857142,592.492999897695L69.64285714285714,574.6405226628649L92.85714285714285,545.53533081618L116.07142857142857,522.2952839578066L139.28571428571428,494.36585715246986L162.5,494.36585715246986L185.7142857142857,447.4081880709548L208.92857142857144,447.4081880709548" style="fill: none; stroke: #4c78a8; stroke-width: 4; opacity: 0.5;"></path></g></g><path class="foreground" d="" style="display: none; fill: none;"></path></g><g transform="translate(0,0)"><path class="background" d="M0,0h650v800h-650Z" style="fill: none;"></path><g><g class="mark-line role-mark layer_1_marks" style="pointer-events: none;"><path d="M0,574.6405226628649L23.21428571428571,522.2952839578066L46.42857142857142,522.2952839578066L69.64285714285714,502.9484393848435L92.85714285714285,502.9484393848435L116.07142857142857,478.90133795842013L139.28571428571428,447.4081880709548L162.5,431.943668876905" style="fill: none; stroke: #f58518; stroke-width: 4; opacity: 0.5;"></path></g></g><path class="foreground" d="" style="display: none; fill: none;"></path></g><g transform="translate(0,0)"><path class="background" d="M0,0h650v800h-650Z" style="fill: none;"></path><g><g class="mark-line role-mark layer_1_marks" style="pointer-events: none;"><path d="M0,613.6079988437283L23.21428571428571,613.6079988437283L46.42857142857142,592.492999897695L69.64285714285714,592.492999897695L92.85714285714285,559.176003468815L116.07142857142857,545.53533081618L139.28571428571428,533.3333333333333L162.5,494.36585715246986L185.7142857142857,447.4081880709548L208.92857142857144,406.1009987414233L232.14285714285714,391.60562212206526L255.35714285714286,356.5979115515802L278.57142857142856,333.81652613167984L301.7857142857143,316.55643822857184L325,304.7113342849951L348.2142857142857,285.4882864761886L371.4285714285714,264.3732875301554L394.6428571428571,250.48057590570352L417.8571428571429,225.24372334265018" style="fill: none; stroke: #e45756; stroke-width: 4; opacity: 0.5;"></path></g></g><path class="foreground" d="" style="display: none; fill: none;"></path></g><g transform="translate(0,0)"><path class="background" d="M0,0h650v800h-650Z" style="fill: none;"></path><g><g class="mark-line role-mark layer_1_marks" style="pointer-events: none;"><path d="M0,613.6079988437283L23.21428571428571,592.492999897695L46.42857142857142,574.6405226628649L69.64285714285714,574.6405226628649L92.85714285714285,574.6405226628649L116.07142857142857,574.6405226628649L139.28571428571428,559.176003468815L162.5,559.176003468815L185.7142857142857,559.176003468815" style="fill: none; stroke: #72b7b2; stroke-width: 4; opacity: 0.5;"></path></g></g><path class="foreground" d="" style="display: none; fill: none;"></path></g><g transform="translate(0,0)"><path class="background" d="M0,0h650v800h-650Z" style="fill: none;"></path><g><g class="mark-line role-mark layer_1_marks" style="pointer-events: none;"><path d="M0,613.6079988437283L23.21428571428571,574.6405226628649L46.42857142857142,533.3333333333333L69.64285714285714,494.36585715246986L92.85714285714285,486.3756642518183L116.07142857142857,471.88028763246024L139.28571428571428,431.943668876905L162.5,422.6737738744485L185.7142857142857,418.3029962242701L208.92857142857144,402.30354831086055L232.14285714285714,395.06294936589666L255.35714285714286,375.7161047929335L278.57142857142856,369.9243048747372" style="fill: none; stroke: #54a24b; stroke-width: 4; opacity: 0.5;"></path></g></g><path class="foreground" d="" style="display: none; fill: none;"></path></g><g transform="translate(0,0)"><path class="background" d="M0,0h650v800h-650Z" style="fill: none;"></path><g><g class="mark-line role-mark layer_1_marks" style="pointer-events: none;"><path d="M0,592.492999897695L23.21428571428571,559.176003468815L46.42857142857142,545.53533081618L69.64285714285714,533.3333333333333L92.85714285714285,502.9484393848435L116.07142857142857,471.88028763246024L139.28571428571428,465.260665305785L162.5,436.8725770619752L185.7142857142857,414.0911916420748L208.92857142857144,369.9243048747372L232.14285714285714,354.1072378838087L255.35714285714286,329.75253504988336L278.57142857142856,318.3520069376301L301.7857142857143,306.3311070082466L325,280.16266489468995L348.2142857142857,259.9184359293946L371.4285714285714,243.63737848673378L394.6428571428571,222.04871073381975L417.8571428571429,215.91154715458893L441.0714285714286,205.21362096579355L464.2857142857143,197.31429653731337L487.5,173.2671951108899L510.7142857142857,153.8011002835179" style="fill: none; stroke: #eeca3b; stroke-width: 4; opacity: 0.5;"></path></g></g><path class="foreground" d="" style="display: none; fill: none;"></path></g><g transform="translate(0,0)"><path class="background" d="M0,0h650v800h-650Z" style="fill: none;"></path><g><g class="mark-line role-mark layer_1_marks" style="pointer-events: none;"><path d="M0,592.492999897695L23.21428571428571,574.6405226628649L46.42857142857142,574.6405226628649L69.64285714285714,559.176003468815L92.85714285714285,522.2952839578066L116.07142857142857,522.2952839578066L139.28571428571428,522.2952839578066L162.5,502.9484393848435L185.7142857142857,471.88028763246024L208.92857142857144,465.260665305785L232.14285714285714,458.9990397459123L255.35714285714286,453.05866782293833" style="fill: none; stroke: #b279a2; stroke-width: 4; opacity: 0.5;"></path></g></g><path class="foreground" d="" style="display: none; fill: none;"></path></g><g transform="translate(0,0)"><path class="background" d="M0,0h650v800h-650Z" style="fill: none;"></path><g><g class="mark-line role-mark layer_1_marks" style="pointer-events: none;"><path d="M0,613.6079988437283L23.21428571428571,613.6079988437283L46.42857142857142,592.492999897695L69.64285714285714,574.6405226628649L92.85714285714285,574.6405226628649L116.07142857142857,559.176003468815L139.28571428571428,559.176003468815L162.5,533.3333333333333L185.7142857142857,494.36585715246986L208.92857142857144,486.3756642518183L232.14285714285714,478.90133795842013L255.35714285714286,478.90133795842013L278.57142857142856,471.88028763246024L301.7857142857143,465.260665305785L325,458.9990397459123" style="fill: none; stroke: #ff9da6; stroke-width: 4; opacity: 0.5;"></path></g></g><path class="foreground" d="" style="display: none; fill: none;"></path></g><g transform="translate(0,0)"><path class="background" d="M0,0h650v800h-650Z" style="fill: none;"></path><g><g class="mark-line role-mark layer_1_marks" style="pointer-events: none;"><path d="M0,613.6079988437283L23.21428571428571,613.6079988437283L46.42857142857142,533.3333333333333L69.64285714285714,533.3333333333333L92.85714285714285,522.2952839578066L116.07142857142857,486.3756642518183L139.28571428571428,471.88028763246024L162.5,465.260665305785L185.7142857142857,465.260665305785L208.92857142857144,447.4081880709548L232.14285714285714,431.943668876905L255.35714285714286,422.6737738744485L278.57142857142856,414.0911916420748L301.7857142857143,410.02720056027835" style="fill: none; stroke: #9d755d; stroke-width: 4; opacity: 0.5;"></path></g></g><path class="foreground" d="" style="display: none; fill: none;"></path></g><g transform="translate(0,0)"><path class="background" d="M0,0h650v800h-650Z" style="fill: none;"></path><g><g class="mark-line role-mark layer_1_marks" style="pointer-events: none;"><path d="M0,613.6079988437283L23.21428571428571,545.53533081618L46.42857142857142,486.3756642518183L69.64285714285714,442.0206184474116L92.85714285714285,406.1009987414233L116.07142857142857,372.78400231254335L139.28571428571428,351.6690033665101L162.5,329.75253504988336L185.7142857142857,311.3309566116703L208.92857142857144,286.85885705016494L232.14285714285714,269.00637981533464L255.35714285714286,252.51241507108801L278.57142857142856,231.05629110127524L301.7857142857143,209.3749738539472L325,193.55790686301867L348.2142857142857,175.88156937596838L371.4285714285714,156.0071072077819L394.6428571428571,149.51128164526324L417.8571428571429,137.9003777043323L441.0714285714286,114.83362410265441L464.2857142857143,98.28166159648744L487.5,81.20488626928059L510.7142857142857,71.36166404720834L533.9285714285714,67.14985946501324L557.1428571428571,61.4993797130297L580.3571428571429,57.62571219393733L603.5714285714286,42.13738544263626L626.7857142857143,29.07210746941633" style="fill: none; stroke: #bab0ac; stroke-width: 4; opacity: 0.5;"></path></g></g><path class="foreground" d="" style="display: none; fill: none;"></path></g></g><g class="mark-text role-mark layer_2_marks" style="pointer-events: none;"><text text-anchor="start" transform="translate(5,618.6079988437283)" style="font-family: sans-serif; font-size: 15px; fill: #4c78a8;">AL</text><text text-anchor="start" transform="translate(283.57142857142856,264.9184359293946)" style="font-family: sans-serif; font-size: 15px; fill: #f58518;">AM</text><text text-anchor="start" transform="translate(97.85714285714285,579.6405226628649)" style="font-family: sans-serif; font-size: 15px; fill: #e45756;">AP</text><text text-anchor="start" transform="translate(283.57142857142856,419.0911916420748)" style="font-family: sans-serif; font-size: 15px; fill: #72b7b2;">BA</text><text text-anchor="start" transform="translate(399.6428571428571,246.75421729007064)" style="font-family: sans-serif; font-size: 15px; fill: #54a24b;">CE</text><text text-anchor="start" transform="translate(306.7857142857143,476.88028763246024)" style="font-family: sans-serif; font-size: 15px; fill: #eeca3b;">DF</text><text text-anchor="start" transform="translate(283.57142857142856,452.4081880709548)" style="font-family: sans-serif; font-size: 15px; fill: #b279a2;">ES</text><text text-anchor="start" transform="translate(213.92857142857144,491.3756642518183)" style="font-family: sans-serif; font-size: 15px; fill: #ff9da6;">GO</text><text text-anchor="start" transform="translate(190.7142857142857,386.81287358213467)" style="font-family: sans-serif; font-size: 15px; fill: #9d755d;">MA</text><text text-anchor="start" transform="translate(283.57142857142856,411.1009987414233)" style="font-family: sans-serif; font-size: 15px; fill: #bab0ac;">MG</text><text text-anchor="start" transform="translate(213.92857142857144,452.4081880709548)" style="font-family: sans-serif; font-size: 15px; fill: #4c78a8;">PA</text><text text-anchor="start" transform="translate(167.5,436.943668876905)" style="font-family: sans-serif; font-size: 15px; fill: #f58518;">PB</text><text text-anchor="start" transform="translate(422.8571428571429,230.24372334265018)" style="font-family: sans-serif; font-size: 15px; fill: #e45756;">PE</text><text text-anchor="start" transform="translate(190.7142857142857,564.176003468815)" style="font-family: sans-serif; font-size: 15px; fill: #72b7b2;">PI</text><text text-anchor="start" transform="translate(283.57142857142856,374.9243048747372)" style="font-family: sans-serif; font-size: 15px; fill: #54a24b;">PR</text><text text-anchor="start" transform="translate(515.7142857142858,158.8011002835179)" style="font-family: sans-serif; font-size: 15px; fill: #eeca3b;">RJ</text><text text-anchor="start" transform="translate(260.3571428571429,458.05866782293833)" style="font-family: sans-serif; font-size: 15px; fill: #b279a2;">RN</text><text text-anchor="start" transform="translate(330,463.9990397459123)" style="font-family: sans-serif; font-size: 15px; fill: #ff9da6;">RS</text><text text-anchor="start" transform="translate(306.7857142857143,415.02720056027835)" style="font-family: sans-serif; font-size: 15px; fill: #9d755d;">SC</text><text text-anchor="start" transform="translate(631.7857142857143,34.07210746941633)" style="font-family: sans-serif; font-size: 15px; fill: #bab0ac;">SP</text></g><g class="mark-line role-mark layer_3_marks" style="pointer-events: none;"><path d="M0,613.6079988437283L23.21428571428571,573.4706660885308L46.42857142857142,533.3333333333333L69.64285714285714,493.19600057813585L92.85714285714285,453.05866782293833L116.07142857142857,412.92133506774087L139.28571428571428,372.78400231254335L162.5,332.64666955734594L185.7142857142857,292.50933680214837L208.92857142857144,252.37200404695096L232.14285714285714,212.23467129175341L255.35714285714286,172.0973385365559L278.57142857142856,131.96000578135846L301.7857142857143,91.82267302616091L325,51.68534027096339L348.2142857142857,11.548007515765946" style="fill: none; stroke: lightgray; stroke-width: 2; stroke-dasharray: 2,2;"></path></g><g class="mark-line role-mark layer_4_marks" style="pointer-events: none;"><path d="M0,613.6079988437283L23.21428571428571,597.5530657416493L46.42857142857142,581.4981326395703L69.64285714285714,565.4431995374914L92.85714285714285,549.3882664354123L116.07142857142857,533.3333333333333L139.28571428571428,517.2784002312543L162.5,501.2234671291754L185.7142857142857,485.1685340270963L208.92857142857144,469.1136009250174L232.14285714285714,453.05866782293833L255.35714285714286,437.0037347208593L278.57142857142856,420.94880161878035L301.7857142857143,404.89386851670133L325,388.83893541462237L348.2142857142857,372.78400231254335L371.4285714285714,356.7290692104644L394.6428571428571,340.67413610838537L417.8571428571429,324.6192030063063L441.0714285714286,308.5642699042274L464.2857142857143,292.50933680214837L487.5,276.4544037000694L510.7142857142857,260.39947059799033L533.9285714285714,244.3445374959114L557.1428571428571,228.2896043938324L580.3571428571429,212.23467129175341L603.5714285714286,196.17973818967442L626.7857142857143,180.12480508759535" style="fill: none; stroke: lightgray; stroke-width: 2; stroke-dasharray: 2,2;"></path></g><g class="mark-line role-mark layer_5_marks" style="pointer-events: none;"><path d="M0,613.6079988437283L23.21428571428571,605.5805322926889L46.42857142857142,597.5530657416493L69.64285714285714,589.5255991906098L92.85714285714285,581.4981326395703L116.07142857142857,573.4706660885308L139.28571428571428,565.4431995374914L162.5,557.4157329864519L185.7142857142857,549.3882664354123L208.92857142857144,541.3607998843728L232.14285714285714,533.3333333333333L255.35714285714286,525.3058667822938L278.57142857142856,517.2784002312543L301.7857142857143,509.25093368021487L325,501.2234671291754L348.2142857142857,493.19600057813585L371.4285714285714,485.1685340270963L394.6428571428571,477.1410674760569L417.8571428571429,469.1136009250174L441.0714285714286,461.08613437397787L464.2857142857143,453.05866782293833L487.5,445.0312012718989L510.7142857142857,437.0037347208593L533.9285714285714,428.9762681698198L557.1428571428571,420.94880161878035L580.3571428571429,412.92133506774087L603.5714285714286,404.89386851670133L626.7857142857143,396.8664019656619" style="fill: none; stroke: lightgray; stroke-width: 2; stroke-dasharray: 2,2;"></path></g><g class="mark-text role-mark layer_6_marks" style="pointer-events: none;"><text text-anchor="middle" transform="translate(301.7857142857143,80.27466551039497) rotate(301) translate(0,4)" style="font-family: sans-serif; font-size: 13px; fill: gray;">mortes duplicam a cada 2 dias</text></g><g class="mark-text role-mark layer_7_marks" style="pointer-events: none;"><text text-anchor="middle" transform="translate(557.1428571428571,219.7089975851517) rotate(327) translate(0,4)" style="font-family: sans-serif; font-size: 13px; fill: gray;">a cada 5 dias</text></g><g class="mark-text role-mark layer_8_marks" style="pointer-events: none;"><text text-anchor="middle" transform="translate(557.1428571428571,414.0911916420748) rotate(341) translate(0,4)" style="font-family: sans-serif; font-size: 13px; fill: gray;">a cada 10 dias</text></g><g class="mark-group role-title"><g transform="translate(325,-34)"><path class="background" d="M0,0h0v0h0Z" style="pointer-events: none; fill: none;"></path><g><g class="mark-text role-title-text" style="pointer-events: none;"><text text-anchor="middle" transform="translate(0,18)" style="font-family: sans-serif; font-size: 23px; font-weight: bold; fill: #000; opacity: 1;">Total de mortes confirmadas pelo COVID-19 por estado brasileiro</text></g></g><path class="foreground" d="" style="pointer-events: none; display: none; fill: none;"></path></g></g></g><path class="foreground" d="" style="display: none; fill: none;"></path></g></g></g></svg>