<svg class="marks" width="722" height="883" viewBox="0 0 722 883" version="1.1" xmlns="http://www.w3.org/2000/svg" xmlns:xlink="http://www.w3.org/1999/xlink"><rect width="722" height="883" style="fill: white;"></rect><g transform="translate(57,32)"><g class="mark-group role-frame root"><g transform="translate(0,0)"><path class="background" d="M0.5,0.5h650v800h-650Z" style="fill: none; stroke: #ddd;"></path><g><g class="mark-group role-axis"><g transform="translate(0.5,800.5)"><path class="background" d="M0,0h0v0h0Z" style="pointer-events: none; fill: none;"></path><g><g class="mark-rule role-axis-grid" style="pointer-events: none;"><line transform="translate(0,-800)" x2="0" y2="800" style="fill: none; stroke: #ddd; stroke-width: 1; opacity: 1;"></line><line transform="translate(37,-800)" x2="0" y2="800" style="fill: none; stroke: #ddd; stroke-width: 1; opacity: 1;"></line><line transform="translate(74,-800)" x2="0" y2="800" style="fill: none; stroke: #ddd; stroke-width: 1; opacity: 1;"></line><line transform="translate(111,-800)" x2="0" y2="800" style="fill: none; stroke: #ddd; stroke-width: 1; opacity: 1;"></line><line transform="translate(149,-800)" x2="0" y2="800" style="fill: none; stroke: #ddd; stroke-width: 1; opacity: 1;"></line><line transform="translate(186,-800)" x2="0" y2="800" style="fill: none; stroke: #ddd; stroke-width: 1; opacity: 1;"></line><line transform="translate(223,-800)" x2="0" y2="800" style="fill: none; stroke: #ddd; stroke-width: 1; opacity: 1;"></line><line transform="translate(260,-800)" x2="0" y2="800" style="fill: none; stroke: #ddd; stroke-width: 1; opacity: 1;"></line><line transform="translate(297,-800)" x2="0" y2="800" style="fill: none; stroke: #ddd; stroke-width: 1; opacity: 1;"></line><line transform="translate(334,-800)" x2="0" y2="800" style="fill: none; stroke: #ddd; stroke-width: 1; opacity: 1;"></line><line transform="translate(371,-800)" x2="0" y2="800" style="fill: none; stroke: #ddd; stroke-width: 1; opacity: 1;"></line><line transform="translate(409,-800)" x2="0" y2="800" style="fill: none; stroke: #ddd; stroke-width: 1; opacity: 1;"></line><line transform="translate(446,-800)" x2="0" y2="800" style="fill: none; stroke: #ddd; stroke-width: 1; opacity: 1;"></line><line transform="translate(483,-800)" x2="0" y2="800" style="fill: none; stroke: #ddd; stroke-width: 1; opacity: 1;"></line><line transform="translate(520,-800)" x2="0" y2="800" style="fill: none; stroke: #ddd; stroke-width: 1; opacity: 1;"></line><line transform="translate(557,-800)" x2="0" y2="800" style="fill: none; stroke: #ddd; stroke-width: 1; opacity: 1;"></line><line transform="translate(594,-800)" x2="0" y2="800" style="fill: none; stroke: #ddd; stroke-width: 1; opacity: 1;"></line><line transform="translate(631,-800)" x2="0" y2="800" style="fill: none; stroke: #ddd; stroke-width: 1; opacity: 1;"></line></g></g><path class="foreground" d="" style="pointer-events: none; display: none; fill: none;"></path></g></g><g class="mark-group role-axis"><g transform="translate(0.5,0.5)"><path class="background" d="M0,0h0v0h0Z" style="pointer-events: none; fill: none;"></path><g><g class="mark-rule role-axis-grid" style="pointer-events: none;"><line transform="translate(0,800)" x2="650" y2="0" style="fill: none; stroke: #ddd; stroke-width: 1; opacity: 1;"></line><line transform="translate(0,764)" x2="650" y2="0" style="fill: none; stroke: #ddd; stroke-width: 1; opacity: 1;"></line><line transform="translate(0,729)" x2="650" y2="0" style="fill: none; stroke: #ddd; stroke-width: 1; opacity: 1;"></line><line transform="translate(0,693)" x2="650" y2="0" style="fill: none; stroke: #ddd; stroke-width: 1; opacity: 1;"></line><line transform="translate(0,658)" x2="650" y2="0" style="fill: none; stroke: #ddd; stroke-width: 1; opacity: 1;"></line><line transform="translate(0,622)" x2="650" y2="0" style="fill: none; stroke: #ddd; stroke-width: 1; opacity: 1;"></line><line transform="translate(0,587)" x2="650" y2="0" style="fill: none; stroke: #ddd; stroke-width: 1; opacity: 1;"></line><line transform="translate(0,551)" x2="650" y2="0" style="fill: none; stroke: #ddd; stroke-width: 1; opacity: 1;"></line><line transform="translate(0,516)" x2="650" y2="0" style="fill: none; stroke: #ddd; stroke-width: 1; opacity: 1;"></line><line transform="translate(0,480)" x2="650" y2="0" style="fill: none; stroke: #ddd; stroke-width: 1; opacity: 1;"></line><line transform="translate(0,444)" x2="650" y2="0" style="fill: none; stroke: #ddd; stroke-width: 1; opacity: 1;"></line><line transform="translate(0,409)" x2="650" y2="0" style="fill: none; stroke: #ddd; stroke-width: 1; opacity: 1;"></line><line transform="translate(0,373)" x2="650" y2="0" style="fill: none; stroke: #ddd; stroke-width: 1; opacity: 1;"></line><line transform="translate(0,338)" x2="650" y2="0" style="fill: none; stroke: #ddd; stroke-width: 1; opacity: 1;"></line><line transform="translate(0,302)" x2="650" y2="0" style="fill: none; stroke: #ddd; stroke-width: 1; opacity: 1;"></line><line transform="translate(0,267)" x2="650" y2="0" style="fill: none; stroke: #ddd; stroke-width: 1; opacity: 1;"></line><line transform="translate(0,231)" x2="650" y2="0" style="fill: none; stroke: #ddd; stroke-width: 1; opacity: 1;"></line><line transform="translate(0,196)" x2="650" y2="0" style="fill: none; stroke: #ddd; stroke-width: 1; opacity: 1;"></line><line transform="translate(0,160)" x2="650" y2="0" style="fill: none; stroke: #ddd; stroke-width: 1; opacity: 1;"></line><line transform="translate(0,124)" x2="650" y2="0" style="fill: none; stroke: #ddd; stroke-width: 1; opacity: 1;"></line><line transform="translate(0,89)" x2="650" y2="0" style="fill: none; stroke: #ddd; stroke-width: 1; opacity: 1;"></line><line transform="translate(0,53)" x2="650" y2="0" style="fill: none; stroke: #ddd; stroke-width: 1; opacity: 1;"></line><line transform="translate(0,18)" x2="650" y2="0" style="fill: none; stroke: #ddd; stroke-width: 1; opacity: 1;"></line></g></g><path class="foreground" d="" style="pointer-events: none; display: none; fill: none;"></path></g></g><g class="mark-group role-axis"><g transform="translate(0.5,800.5)"><path class="background" d="M0,0h0v0h0Z" style="pointer-events: none; fill: none;"></path><g><g class="mark-rule role-axis-tick" style="pointer-events: none;"><line transform="translate(0,0)" x2="0" y2="5" style="fill: none; stroke: #888; stroke-width: 1; opacity: 1;"></line><line transform="translate(37,0)" x2="0" y2="5" style="fill: none; stroke: #888; stroke-width: 1; opacity: 1;"></line><line transform="translate(74,0)" x2="0" y2="5" style="fill: none; stroke: #888; stroke-width: 1; opacity: 1;"></line><line transform="translate(111,0)" x2="0" y2="5" style="fill: none; stroke: #888; stroke-width: 1; opacity: 1;"></line><line transform="translate(149,0)" x2="0" y2="5" style="fill: none; stroke: #888; stroke-width: 1; opacity: 1;"></line><line transform="translate(186,0)" x2="0" y2="5" style="fill: none; stroke: #888; stroke-width: 1; opacity: 1;"></line><line transform="translate(223,0)" x2="0" y2="5" style="fill: none; stroke: #888; stroke-width: 1; opacity: 1;"></line><line transform="translate(260,0)" x2="0" y2="5" style="fill: none; stroke: #888; stroke-width: 1; opacity: 1;"></line><line transform="translate(297,0)" x2="0" y2="5" style="fill: none; stroke: #888; stroke-width: 1; opacity: 1;"></line><line transform="translate(334,0)" x2="0" y2="5" style="fill: none; stroke: #888; stroke-width: 1; opacity: 1;"></line><line transform="translate(371,0)" x2="0" y2="5" style="fill: none; stroke: #888; stroke-width: 1; opacity: 1;"></line><line transform="translate(409,0)" x2="0" y2="5" style="fill: none; stroke: #888; stroke-width: 1; opacity: 1;"></line><line transform="translate(446,0)" x2="0" y2="5" style="fill: none; stroke: #888; stroke-width: 1; opacity: 1;"></line><line transform="translate(483,0)" x2="0" y2="5" style="fill: none; stroke: #888; stroke-width: 1; opacity: 1;"></line><line transform="translate(520,0)" x2="0" y2="5" style="fill: none; stroke: #888; stroke-width: 1; opacity: 1;"></line><line transform="translate(557,0)" x2="0" y2="5" style="fill: none; stroke: #888; stroke-width: 1; opacity: 1;"></line><line transform="translate(594,0)" x2="0" y2="5" style="fill: none; stroke: #888; stroke-width: 1; opacity: 1;"></line><line transform="translate(631,0)" x2="0" y2="5" style="fill: none; stroke: #888; stroke-width: 1; opacity: 1;"></line></g><g class="mark-text role-axis-label" style="pointer-events: none;"><text text-anchor="start" transform="translate(0,19)" style="font-family: sans-serif; font-size: 15px; fill: #000; opacity: 1;">0</text><text text-anchor="middle" transform="translate(37.14285714285714,19)" style="font-family: sans-serif; font-size: 15px; fill: #000; opacity: 1;">2</text><text text-anchor="middle" transform="translate(74.28571428571428,19)" style="font-family: sans-serif; font-size: 15px; fill: #000; opacity: 1;">4</text><text text-anchor="middle" transform="translate(111.42857142857143,19)" style="font-family: sans-serif; font-size: 15px; fill: #000; opacity: 1;">6</text><text text-anchor="middle" transform="translate(148.57142857142856,19)" style="font-family: sans-serif; font-size: 15px; fill: #000; opacity: 1;">8</text><text text-anchor="middle" transform="translate(185.7142857142857,19)" style="font-family: sans-serif; font-size: 15px; fill: #000; opacity: 1;">10</text><text text-anchor="middle" transform="translate(222.85714285714286,19)" style="font-family: sans-serif; font-size: 15px; fill: #000; opacity: 1;">12</text><text text-anchor="middle" transform="translate(260,19)" style="font-family: sans-serif; font-size: 15px; fill: #000; opacity: 1;">14</text><text text-anchor="middle" transform="translate(297.1428571428571,19)" style="font-family: sans-serif; font-size: 15px; fill: #000; opacity: 1;">16</text><text text-anchor="middle" transform="translate(334.2857142857143,19)" style="font-family: sans-serif; font-size: 15px; fill: #000; opacity: 1;">18</text><text text-anchor="middle" transform="translate(371.4285714285714,19)" style="font-family: sans-serif; font-size: 15px; fill: #000; opacity: 1;">20</text><text text-anchor="middle" transform="translate(408.57142857142856,19)" style="font-family: sans-serif; font-size: 15px; fill: #000; opacity: 1;">22</text><text text-anchor="middle" transform="translate(445.7142857142857,19)" style="font-family: sans-serif; font-size: 15px; fill: #000; opacity: 1;">24</text><text text-anchor="middle" transform="translate(482.8571428571429,19)" style="font-family: sans-serif; font-size: 15px; fill: #000; opacity: 1;">26</text><text text-anchor="middle" transform="translate(520,19)" style="font-family: sans-serif; font-size: 15px; fill: #000; opacity: 1;">28</text><text text-anchor="middle" transform="translate(557.1428571428571,19)" style="font-family: sans-serif; font-size: 15px; fill: #000; opacity: 1;">30</text><text text-anchor="middle" transform="translate(594.2857142857142,19)" style="font-family: sans-serif; font-size: 15px; fill: #000; opacity: 1;">32</text><text text-anchor="middle" transform="translate(631.4285714285714,19)" style="font-family: sans-serif; font-size: 15px; fill: #000; opacity: 1;">34</text></g><g class="mark-rule role-axis-domain" style="pointer-events: none;"><line transform="translate(0,0)" x2="650" y2="0" style="fill: none; stroke: #888; stroke-width: 1; opacity: 1;"></line></g><g class="mark-text role-axis-title" style="pointer-events: none;"><text text-anchor="middle" transform="translate(325,42)" style="font-family: sans-serif; font-size: 20px; font-weight: bold; fill: #000; opacity: 1;">Dias a partir da 5a morte no estado</text></g></g><path class="foreground" d="" style="pointer-events: none; display: none; fill: none;"></path></g></g><g class="mark-group role-axis"><g transform="translate(0.5,0.5)"><path class="background" d="M0,0h0v0h0Z" style="pointer-events: none; fill: none;"></path><g><g class="mark-rule role-axis-tick" style="pointer-events: none;"><line transform="translate(0,800)" x2="-5" y2="0" style="fill: none; stroke: #888; stroke-width: 1; opacity: 1;"></line><line transform="translate(0,764)" x2="-5" y2="0" style="fill: none; stroke: #888; stroke-width: 1; opacity: 1;"></line><line transform="translate(0,729)" x2="-5" y2="0" style="fill: none; stroke: #888; stroke-width: 1; opacity: 1;"></line><line transform="translate(0,693)" x2="-5" y2="0" style="fill: none; stroke: #888; stroke-width: 1; opacity: 1;"></line><line transform="translate(0,658)" x2="-5" y2="0" style="fill: none; stroke: #888; stroke-width: 1; opacity: 1;"></line><line transform="translate(0,622)" x2="-5" y2="0" style="fill: none; stroke: #888; stroke-width: 1; opacity: 1;"></line><line transform="translate(0,587)" x2="-5" y2="0" style="fill: none; stroke: #888; stroke-width: 1; opacity: 1;"></line><line transform="translate(0,551)" x2="-5" y2="0" style="fill: none; stroke: #888; stroke-width: 1; opacity: 1;"></line><line transform="translate(0,516)" x2="-5" y2="0" style="fill: none; stroke: #888; stroke-width: 1; opacity: 1;"></line><line transform="translate(0,480)" x2="-5" y2="0" style="fill: none; stroke: #888; stroke-width: 1; opacity: 1;"></line><line transform="translate(0,444)" x2="-5" y2="0" style="fill: none; stroke: #888; stroke-width: 1; opacity: 1;"></line><line transform="translate(0,409)" x2="-5" y2="0" style="fill: none; stroke: #888; stroke-width: 1; opacity: 1;"></line><line transform="translate(0,373)" x2="-5" y2="0" style="fill: none; stroke: #888; stroke-width: 1; opacity: 1;"></line><line transform="translate(0,338)" x2="-5" y2="0" style="fill: none; stroke: #888; stroke-width: 1; opacity: 1;"></line><line transform="translate(0,302)" x2="-5" y2="0" style="fill: none; stroke: #888; stroke-width: 1; opacity: 1;"></line><line transform="translate(0,267)" x2="-5" y2="0" style="fill: none; stroke: #888; stroke-width: 1; opacity: 1;"></line><line transform="translate(0,231)" x2="-5" y2="0" style="fill: none; stroke: #888; stroke-width: 1; opacity: 1;"></line><line transform="translate(0,196)" x2="-5" y2="0" style="fill: none; stroke: #888; stroke-width: 1; opacity: 1;"></line><line transform="translate(0,160)" x2="-5" y2="0" style="fill: none; stroke: #888; stroke-width: 1; opacity: 1;"></line><line transform="translate(0,124)" x2="-5" y2="0" style="fill: none; stroke: #888; stroke-width: 1; opacity: 1;"></line><line transform="translate(0,89)" x2="-5" y2="0" style="fill: none; stroke: #888; stroke-width: 1; opacity: 1;"></line><line transform="translate(0,53)" x2="-5" y2="0" style="fill: none; stroke: #888; stroke-width: 1; opacity: 1;"></line><line transform="translate(0,18)" x2="-5" y2="0" style="fill: none; stroke: #888; stroke-width: 1; opacity: 1;"></line></g><g class="mark-text role-axis-label" style="pointer-events: none;"><text text-anchor="end" transform="translate(-7,805)" style="font-family: sans-serif; font-size: 15px; fill: #000; opacity: 1;">0.0</text><text text-anchor="end" transform="translate(-7,769.4444444444445)" style="font-family: sans-serif; font-size: 15px; fill: #000; opacity: 1;">0.2</text><text text-anchor="end" transform="translate(-7,733.8888888888889)" style="font-family: sans-serif; font-size: 15px; fill: #000; opacity: 1;">0.4</text><text text-anchor="end" transform="translate(-7,698.3333333333334)" style="font-family: sans-serif; font-size: 15px; fill: #000; opacity: 1;">0.6</text><text text-anchor="end" transform="translate(-7,662.7777777777777)" style="font-family: sans-serif; font-size: 15px; fill: #000; opacity: 1;">0.8</text><text text-anchor="end" transform="translate(-7,627.2222222222223)" style="font-family: sans-serif; font-size: 15px; fill: #000; opacity: 1;">1.0</text><text text-anchor="end" transform="translate(-7,591.6666666666667)" style="font-family: sans-serif; font-size: 15px; fill: #000; opacity: 1;">1.2</text><text text-anchor="end" transform="translate(-7,556.1111111111111)" style="font-family: sans-serif; font-size: 15px; fill: #000; opacity: 1;">1.4</text><text text-anchor="end" transform="translate(-7,520.5555555555555)" style="font-family: sans-serif; font-size: 15px; fill: #000; opacity: 1;">1.6</text><text text-anchor="end" transform="translate(-7,485)" style="font-family: sans-serif; font-size: 15px; fill: #000; opacity: 1;">1.8</text><text text-anchor="end" transform="translate(-7,449.44444444444446)" style="font-family: sans-serif; font-size: 15px; fill: #000; opacity: 1;">2.0</text><text text-anchor="end" transform="translate(-7,413.88888888888886)" style="font-family: sans-serif; font-size: 15px; fill: #000; opacity: 1;">2.2</text><text text-anchor="end" transform="translate(-7,378.3333333333333)" style="font-family: sans-serif; font-size: 15px; fill: #000; opacity: 1;">2.4</text><text text-anchor="end" transform="translate(-7,342.7777777777777)" style="font-family: sans-serif; font-size: 15px; fill: #000; opacity: 1;">2.6</text><text text-anchor="end" transform="translate(-7,307.22222222222223)" style="font-family: sans-serif; font-size: 15px; fill: #000; opacity: 1;">2.8</text><text text-anchor="end" transform="translate(-7,271.6666666666667)" style="font-family: sans-serif; font-size: 15px; fill: #000; opacity: 1;">3.0</text><text text-anchor="end" transform="translate(-7,236.1111111111111)" style="font-family: sans-serif; font-size: 15px; fill: #000; opacity: 1;">3.2</text><text text-anchor="end" transform="translate(-7,200.55555555555557)" style="font-family: sans-serif; font-size: 15px; fill: #000; opacity: 1;">3.4</text><text text-anchor="end" transform="translate(-7,164.99999999999997)" style="font-family: sans-serif; font-size: 15px; fill: #000; opacity: 1;">3.6</text><text text-anchor="end" transform="translate(-7,129.44444444444446)" style="font-family: sans-serif; font-size: 15px; fill: #000; opacity: 1;">3.8</text><text text-anchor="end" transform="translate(-7,93.88888888888893)" style="font-family: sans-serif; font-size: 15px; fill: #000; opacity: 1;">4.0</text><text text-anchor="end" transform="translate(-7,58.33333333333332)" style="font-family: sans-serif; font-size: 15px; fill: #000; opacity: 1;">4.2</text><text text-anchor="end" transform="translate(-7,22.777777777777715)" style="font-family: sans-serif; font-size: 15px; fill: #000; opacity: 1;">4.4</text></g><g class="mark-rule role-axis-domain" style="pointer-events: none;"><line transform="translate(0,800)" x2="0" y2="-800" style="fill: none; stroke: #888; stroke-width: 1; opacity: 1;"></line></g><g class="mark-text role-axis-title" style="pointer-events: none;"><text text-anchor="middle" transform="translate(-31.85205078125,400) rotate(-90) translate(0,-4)" style="font-family: sans-serif; font-size: 20px; font-weight: bold; fill: #000; opacity: 1;">Mortes confirmadas a cada 100 mil habitantes</text></g></g><path class="foreground" d="" style="pointer-events: none; display: none; fill: none;"></path></g></g><g class="mark-group role-scope layer_0_layer_0_pathgroup"><g transform="translate(0,0)"><path class="background" d="M0,0h650v800h-650Z" style="fill: none;"></path><g><g class="mark-line role-mark layer_0_layer_0_marks"><path d="M0,699.2115191154803L18.57142857142857,699.2115191154803L37.14285714285714,679.0538229385763L55.714285714285715,679.0538229385763" style="fill: none; stroke: #4c78a8; stroke-width: 4; opacity: 0.7;"></path></g></g><path class="foreground" d="" style="display: none; fill: none;"></path></g><g transform="translate(0,0)"><path class="background" d="M0,0h650v800h-650Z" style="fill: none;"></path><g><g class="mark-line role-mark layer_0_layer_0_marks"><path d="M0,773.3654838577686L18.57142857142857,773.3654838577686L37.14285714285714,762.711677400876L55.714285714285715,746.7309677155372L74.28571428571428,720.0964515733059" style="fill: none; stroke: #f58518; stroke-width: 4; opacity: 0.7;"></path></g></g><path class="foreground" d="" style="display: none; fill: none;"></path></g><g transform="translate(0,0)"><path class="background" d="M0,0h650v800h-650Z" style="fill: none;"></path><g><g class="mark-line role-mark layer_0_layer_0_marks"><path d="M0,769.9742955842403L18.57142857142857,748.5273638586976L37.14285714285714,735.659204823372L55.714285714285715,718.5016594429379L74.28571428571428,701.3441140625038L92.85714285714285,671.3184096467442L111.42857142857143,628.4245461956588L130,585.5306827445736L148.57142857142856,572.6625237092479L167.14285714285714,534.0580466032711L185.7142857142857,495.4535694972943L204.28571428571428,413.95522894023225L222.85714285714286,345.32504741849584L241.42857142857144,268.11609320654225L260,178.03897995926317L278.57142857142856,109.40879843752667L297.1428571428571,19.331685190247594" style="fill: none; stroke: #e45756; stroke-width: 4; opacity: 0.7;"></path></g></g><path class="foreground" d="" style="display: none; fill: none;"></path></g><g transform="translate(0,0)"><path class="background" d="M0,0h650v800h-650Z" style="fill: none;"></path><g><g class="mark-line role-mark layer_0_layer_0_marks"><path d="M0,694.8969721000071L18.57142857142857,694.8969721000071L37.14285714285714,673.8763665200086L55.714285714285715,652.85576094001L74.28571428571428,652.85576094001L92.85714285714285,589.7939442000143L111.42857142857143,589.7939442000143L130,589.7939442000143L148.57142857142856,568.7733386200156" style="fill: none; stroke: #72b7b2; stroke-width: 4; opacity: 0.7;"></path></g></g><path class="foreground" d="" style="display: none; fill: none;"></path></g><g transform="translate(0,0)"><path class="background" d="M0,0h650v800h-650Z" style="fill: none;"></path><g><g class="mark-line role-mark layer_0_layer_0_marks"><path d="M0,792.828198233621L18.57142857142857,791.6328979392246L37.14285714285714,789.2422973504316L55.714285714285715,788.0469970560351L74.28571428571428,783.2657958784492L92.85714285714285,778.4845947008632L111.42857142857143,777.2892944064668L130,777.2892944064668L148.57142857142856,774.8986938176738L167.14285714285714,774.8986938176738L185.7142857142857,773.7033935232773L204.28571428571428,768.9221923456913L222.85714285714286,766.5315917568984L241.42857142857144,759.3597899905195L260,756.9691894017266L278.57142857142856,752.1879882241406L297.1428571428571,746.2114867521582" style="fill: none; stroke: #54a24b; stroke-width: 4; opacity: 0.7;"></path></g></g><path class="foreground" d="" style="display: none; fill: none;"></path></g><g transform="translate(0,0)"><path class="background" d="M0,0h650v800h-650Z" style="fill: none;"></path><g><g class="mark-line role-mark layer_0_layer_0_marks"><path d="M0,790.2663020520753L18.57142857142857,790.2663020520753L37.14285714285714,786.3728228729053L55.714285714285715,782.4793436937355L74.28571428571428,759.118468618716L92.85714285714285,757.171729029131L111.42857142857143,755.2249894395461L130,731.8641143645267L148.57142857142856,731.8641143645267L167.14285714285714,722.130416416602L185.7142857142857,689.0358433936576L204.28571428571428,689.0358433936576L222.85714285714286,669.5684474978082L241.42857142857144,655.9412703707135L260,652.0477911915436L278.57142857142856,603.3793014519198L297.1428571428571,583.9119055560703L315.7142857142857,558.6042908914658L334.2857142857143,537.1901554060313L352.85714285714283,498.25536361433234L371.4285714285714,449.58687387470843L390,432.0662175684439" style="fill: none; stroke: #eeca3b; stroke-width: 4; opacity: 0.7;"></path></g></g><path class="foreground" d="" style="display: none; fill: none;"></path></g><g transform="translate(0,0)"><path class="background" d="M0,0h650v800h-650Z" style="fill: none;"></path><g><g class="mark-line role-mark layer_0_layer_0_marks"><path d="M0,770.5204018717776L18.57142857142857,764.6244822461331L37.14285714285714,758.7285626204887L55.714285714285715,758.7285626204887L74.28571428571428,741.0408037435552L92.85714285714285,729.2489644922663L111.42857142857143,729.2489644922663L130,723.3530448666218L148.57142857142856,717.4571252409773L167.14285714285714,717.4571252409773L185.7142857142857,717.4571252409773L204.28571428571428,711.5612056153328L222.85714285714286,699.7693663640439L241.42857142857144,699.7693663640439L260,682.0816074871104L278.57142857142856,658.4979289845326L297.1428571428571,658.4979289845326L315.7142857142857,658.4979289845326" style="fill: none; stroke: #b279a2; stroke-width: 4; opacity: 0.7;"></path></g></g><path class="foreground" d="" style="display: none; fill: none;"></path></g><g transform="translate(0,0)"><path class="background" d="M0,0h650v800h-650Z" style="fill: none;"></path><g><g class="mark-line role-mark layer_0_layer_0_marks"><path d="M0,777.8809080440225L18.57142857142857,773.457089652827L37.14285714285714,773.457089652827L55.714285714285715,773.457089652827L74.28571428571428,773.457089652827L92.85714285714285,773.457089652827L111.42857142857143,769.0332712616315L130,764.609452870436L148.57142857142856,760.1856344792405L167.14285714285714,738.0665425232631L185.7142857142857,724.7950873496766L204.28571428571428,720.3712689584811L222.85714285714286,707.0998137848946L241.42857142857144,676.133085046526L260,676.133085046526L278.57142857142856,667.2854482641352L297.1428571428571,649.5901746993532" style="fill: none; stroke: #ff9da6; stroke-width: 4; opacity: 0.7;"></path></g></g><path class="foreground" d="" style="display: none; fill: none;"></path></g><g transform="translate(0,0)"><path class="background" d="M0,0h650v800h-650Z" style="fill: none;"></path><g><g class="mark-line role-mark layer_0_layer_0_marks"><path d="M0,787.3347954678705L18.57142857142857,787.3347954678705L37.14285714285714,782.2687136550187L55.714285714285715,782.2687136550187L74.28571428571428,779.735672748593L92.85714285714285,774.6695909357411L111.42857142857143,764.5374273100375L130,762.0043864036116L148.57142857142856,762.0043864036116L167.14285714285714,762.0043864036116L185.7142857142857,759.4713454971857L204.28571428571428,759.4713454971857L222.85714285714286,754.4052636843339L241.42857142857144,754.4052636843339" style="fill: none; stroke: #9d755d; stroke-width: 4; opacity: 0.7;"></path></g></g><path class="foreground" d="" style="display: none; fill: none;"></path></g><g transform="translate(0,0)"><path class="background" d="M0,0h650v800h-650Z" style="fill: none;"></path><g><g class="mark-line role-mark layer_0_layer_0_marks"><path d="M0,772.3603458970795L18.57142857142857,769.8476500695411L37.14285714285714,759.7968667593883L55.714285714285715,747.2333876216971L74.28571428571428,739.6953001390824L92.85714285714285,732.1572126564677L111.42857142857143,719.5937335187765L130,714.5683418637001L148.57142857142856,707.0302543810853L167.14285714285714,699.4921668984707L185.7142857142857,689.4413835883178L204.28571428571428,679.3906002781648L222.85714285714286,664.3144253129354" style="fill: none; stroke: #bab0ac; stroke-width: 4; opacity: 0.7;"></path></g></g><path class="foreground" d="" style="display: none; fill: none;"></path></g><g transform="translate(0,0)"><path class="background" d="M0,0h650v800h-650Z" style="fill: none;"></path><g><g class="mark-line role-mark layer_0_layer_0_marks"><path d="M0,794.9611356327971L18.57142857142857,794.9611356327971L37.14285714285714,794.9611356327971L55.714285714285715,792.4417034491956L74.28571428571428,790.7620819934613L92.85714285714285,788.2426498098598L111.42857142857143,787.4028390819926L130,785.7232176262582L148.57142857142856,785.7232176262582L167.14285714285714,783.2037854426568L185.7142857142857,780.6843532590553L204.28571428571428,777.3251103475867L222.85714285714286,774.8056781639852L241.42857142857144,772.2862459803837L260,770.6066245246494L278.57142857142856,767.2473816131808L297.1428571428571,767.2473816131808" style="fill: none; stroke: #4c78a8; stroke-width: 4; opacity: 0.7;"></path></g></g><path class="foreground" d="" style="display: none; fill: none;"></path></g><g transform="translate(0,0)"><path class="background" d="M0,0h650v800h-650Z" style="fill: none;"></path><g><g class="mark-line role-mark layer_0_layer_0_marks"><path d="M0,768.0139126685457L18.57142857142857,768.0139126685457L37.14285714285714,768.0139126685457L55.714285714285715,768.0139126685457" style="fill: none; stroke: #f58518; stroke-width: 4; opacity: 0.7;"></path></g></g><path class="foreground" d="" style="display: none; fill: none;"></path></g><g transform="translate(0,0)"><path class="background" d="M0,0h650v800h-650Z" style="fill: none;"></path><g><g class="mark-line role-mark layer_0_layer_0_marks"><path d="M0,774.4899537292404L18.57142857142857,774.4899537292404L37.14285714285714,774.4899537292404L55.714285714285715,774.4899537292404" style="fill: none; stroke: #e45756; stroke-width: 4; opacity: 0.7;"></path></g></g><path class="foreground" d="" style="display: none; fill: none;"></path></g><g transform="translate(0,0)"><path class="background" d="M0,0h650v800h-650Z" style="fill: none;"></path><g><g class="mark-line role-mark layer_0_layer_0_marks"><path d="M0,789.6675248433064L18.57142857142857,789.6675248433064L37.14285714285714,787.6010298119677L55.714285714285715,785.534534780629L74.28571428571428,781.4015447179515L92.85714285714285,777.2685546552741L111.42857142857143,771.069069561258L130,771.069069561258L148.57142857142856,756.6036043418869L167.14285714285714,756.6036043418869L185.7142857142857,746.2711291851932L204.28571428571428,733.872158997161L222.85714285714286,731.8056639658222L241.42857142857144,729.7391689344835" style="fill: none; stroke: #72b7b2; stroke-width: 4; opacity: 0.7;"></path></g></g><path class="foreground" d="" style="display: none; fill: none;"></path></g><g transform="translate(0,0)"><path class="background" d="M0,0h650v800h-650Z" style="fill: none;"></path><g><g class="mark-line role-mark layer_0_layer_0_marks"><path d="M0,769.0292406276744L18.57142857142857,751.3316638434884L37.14285714285714,751.3316638434884L55.714285714285715,742.4828754513953L74.28571428571428,742.4828754513953L92.85714285714285,729.2096928632558L111.42857142857143,707.0877218830233L130,693.8145392948837L148.57142857142856,684.9657509027908L167.14285714285714,676.1169625106977L185.7142857142857,671.6925683146511L204.28571428571428,658.4193857265117" style="fill: none; stroke: #54a24b; stroke-width: 4; opacity: 0.7;"></path></g></g><path class="foreground" d="" style="display: none; fill: none;"></path></g><g transform="translate(0,0)"><path class="background" d="M0,0h650v800h-650Z" style="fill: none;"></path><g><g class="mark-line role-mark layer_0_layer_0_marks"><path d="M0,790.6991494686092L18.57142857142857,790.6991494686092L37.14285714285714,788.8389793623311L55.714285714285715,788.8389793623311L74.28571428571428,785.1186391497748L92.85714285714285,783.2584690434967L111.42857142857143,781.3982989372186L130,773.9576185121059L148.57142857142856,760.936427768159L167.14285714285714,744.1948968116557L185.7142857142857,736.7542163865431L204.28571428571428,714.4321751112053L222.85714285714286,695.8304740484239L241.42857142857144,679.0889430919206L260,666.0677523479736L278.57142857142856,641.8855409663577L297.1428571428571,610.2626491596293L315.7142857142857,586.0804377780133L334.2857142857143,533.9956748022253L352.85714285714283,502.3727829954968L371.4285714285714,454.008360232265L390,418.6651282129803L408.57142857142856,398.20325704392064" style="fill: none; stroke: #eeca3b; stroke-width: 4; opacity: 0.7;"></path></g></g><path class="foreground" d="" style="display: none; fill: none;"></path></g><g transform="translate(0,0)"><path class="background" d="M0,0h650v800h-650Z" style="fill: none;"></path><g><g class="mark-line role-mark layer_0_layer_0_marks"><path d="M0,772.843652796189L18.57142857142857,767.4123833554268L37.14285714285714,761.9811139146644L55.714285714285715,761.9811139146644L74.28571428571428,761.9811139146644L92.85714285714285,761.9811139146644L111.42857142857143,756.5498444739023L130,756.5498444739023L148.57142857142856,756.5498444739023L167.14285714285714,756.5498444739023L185.7142857142857,751.1185750331401L204.28571428571428,745.6873055923778L222.85714285714286,734.8247667108534" style="fill: none; stroke: #b279a2; stroke-width: 4; opacity: 0.7;"></path></g></g><path class="foreground" d="" style="display: none; fill: none;"></path></g><g transform="translate(0,0)"><path class="background" d="M0,0h650v800h-650Z" style="fill: none;"></path><g><g class="mark-line role-mark layer_0_layer_0_marks"><path d="M0,792.2258856764207L18.57142857142857,789.116239946989L37.14285714285714,784.4517713528415L55.714285714285715,778.2324798939782L74.28571428571428,776.6776570292623L92.85714285714285,773.5680112998306L111.42857142857143,762.6842512468197L130,759.574605517388L148.57142857142856,758.0197826526722L167.14285714285714,751.8004911938089L185.7142857142857,748.6908454643772L204.28571428571428,739.3619082760821L222.85714285714286,736.2522625466504L241.42857142857144,733.1426168172187L260,731.5877939525029L278.57142857142856,723.8136796289236L297.1428571428571,719.1492110347762" style="fill: none; stroke: #ff9da6; stroke-width: 4; opacity: 0.7;"></path></g></g><path class="foreground" d="" style="display: none; fill: none;"></path></g><g transform="translate(0,0)"><path class="background" d="M0,0h650v800h-650Z" style="fill: none;"></path><g><g class="mark-line role-mark layer_0_layer_0_marks"><path d="M0,793.8217770735375L18.57142857142857,791.7623694313835L37.14285714285714,790.7326656103064L55.714285714285715,789.7029617892293L74.28571428571428,786.6138503259981L92.85714285714285,782.4950350416898L111.42857142857143,781.4653312206127L130,776.3168121152274L148.57142857142856,771.1682930098422L167.14285714285714,757.7821433358401L185.7142857142857,751.6039204093778L204.28571428571428,740.27717837753L222.85714285714286,734.0989554510676L241.42857142857144,726.8910287035281L260,708.356359924141L278.57142857142856,690.8513949658308L297.1428571428571,674.3761338285977L315.7142857142857,648.633538301671L334.2857142857143,640.3959077330545L352.85714285714283,624.9503504168985L371.4285714285714,612.5939045639736L390,569.3463440787367L408.57142857142856,527.128487414577L427.14285714285717,490.05914985580256L445.7142857142857,448.87099701271984L464.2857142857143,401.50462124317465L482.8571428571429,386.05906392701866" style="fill: none; stroke: #9d755d; stroke-width: 4; opacity: 0.7;"></path></g></g><path class="foreground" d="" style="display: none; fill: none;"></path></g><g transform="translate(0,0)"><path class="background" d="M0,0h650v800h-650Z" style="fill: none;"></path><g><g class="mark-line role-mark layer_0_layer_0_marks"><path d="M0,769.5833652945628L18.57142857142857,764.5139261769898L37.14285714285714,764.5139261769898L55.714285714285715,759.444487059417L74.28571428571428,744.2361697066983L92.85714285714285,744.2361697066983L111.42857142857143,744.2361697066983L130,734.0972914715527L148.57142857142856,713.8195350012612L167.14285714285714,708.7500958836883L185.7142857142857,703.6806567661154L204.28571428571428,698.6112176485426L222.85714285714286,683.4029002958239L241.42857142857144,678.3334611782511L260,668.1945829431054L278.57142857142856,663.1251438255324" style="fill: none; stroke: #bab0ac; stroke-width: 4; opacity: 0.7;"></path></g></g><path class="foreground" d="" style="display: none; fill: none;"></path></g><g transform="translate(0,0)"><path class="background" d="M0,0h650v800h-650Z" style="fill: none;"></path><g><g class="mark-line role-mark layer_0_layer_0_marks"><path d="M0,792.18713003314L18.57142857142857,792.18713003314L37.14285714285714,790.624556039768L55.714285714285715,789.0619820463959L74.28571428571428,789.0619820463959L92.85714285714285,787.4994080530239L111.42857142857143,787.4994080530239L130,784.3742600662799L148.57142857142856,778.1239640927918L167.14285714285714,776.5613900994199L185.7142857142857,774.9988161060478L204.28571428571428,774.9988161060478L222.85714285714286,773.4362421126758L241.42857142857144,771.8736681193038L260,770.3110941259318L278.57142857142856,767.1859461391878L297.1428571428571,762.4982241590717L315.7142857142857,762.4982241590717L334.2857142857143,759.3730761723277" style="fill: none; stroke: #4c78a8; stroke-width: 4; opacity: 0.7;"></path></g></g><path class="foreground" d="" style="display: none; fill: none;"></path></g><g transform="translate(0,0)"><path class="background" d="M0,0h650v800h-650Z" style="fill: none;"></path><g><g class="mark-line role-mark layer_0_layer_0_marks"><path d="M0,787.5936470292088L18.57142857142857,787.5936470292088L37.14285714285714,775.1872940584176L55.714285714285715,775.1872940584176L74.28571428571428,772.7060234642594L92.85714285714285,762.7809410876265L111.42857142857143,757.8183998993101L130,755.3371293051518L148.57142857142856,755.3371293051518L167.14285714285714,747.8933175226771L185.7142857142857,740.4495057402024L204.28571428571428,735.486964551886L222.85714285714286,730.5244233635694L241.42857142857144,728.0431527694112L260,725.561882175253L278.57142857142856,723.0806115810948L297.1428571428571,720.5993409869366L315.7142857142857,713.1555292044618" style="fill: none; stroke: #f58518; stroke-width: 4; opacity: 0.7;"></path></g></g><path class="foreground" d="" style="display: none; fill: none;"></path></g><g transform="translate(0,0)"><path class="background" d="M0,0h650v800h-650Z" style="fill: none;"></path><g><g class="mark-line role-mark layer_0_layer_0_marks"><path d="M0,761.3307332118345L18.57142857142857,761.3307332118345" style="fill: none; stroke: #e45756; stroke-width: 4; opacity: 0.7;"></path></g></g><path class="foreground" d="" style="display: none; fill: none;"></path></g><g transform="translate(0,0)"><path class="background" d="M0,0h650v800h-650Z" style="fill: none;"></path><g><g class="mark-line role-mark layer_0_layer_0_marks"><path d="M0,798.0642262672102L18.57142857142857,796.5156072809783L37.14285714285714,794.1926788016306L55.714285714285715,791.4825955757248L74.28571428571428,788.385357603261L92.85714285714285,784.5138101376814L111.42857142857143,781.4165721652178L130,777.545024699638L148.57142857142856,773.6734772340584L167.14285714285714,767.4790012891309L185.7142857142857,762.0588348373194L204.28571428571428,756.2515136389499L222.85714285714286,747.3469544681168L241.42857142857144,736.5066215644937L260,727.2149076471026L278.57142857142856,715.2131105038056L297.1428571428571,699.3397658949291L315.7142857142857,693.5324446965597L334.2857142857143,682.3049570463786L352.85714285714283,656.365589026995L371.4285714285714,634.297768473191L390,607.9712457072493L408.57142857142856,590.9364368586988L427.14285714285717,583.1933419275396L445.7142857142857,572.3530090239166L464.2857142857143,564.6099140927573L482.8571428571429,530.9274511422143L501.42857142857144,498.7936071779032L520,469.7570011860558L538.5714285714286,440.7203951942085L557.1428571428571,416.32964616105676L575.7142857142857,407.0379322436656" style="fill: none; stroke: #72b7b2; stroke-width: 4; opacity: 0.7;"></path></g></g><path class="foreground" d="" style="display: none; fill: none;"></path></g></g><g class="mark-group role-scope layer_0_layer_1_pathgroup"><g transform="translate(0,0)"><path class="background" d="M0,0h650v800h-650Z" style="fill: none;"></path><g><g class="mark-line role-mark layer_0_layer_1_marks" style="pointer-events: none;"><path d="M0,699.2115191154803L18.57142857142857,699.2115191154803L37.14285714285714,679.0538229385763L55.714285714285715,679.0538229385763" style="fill: none; stroke: #4c78a8; stroke-width: 4; opacity: 0.5;"></path></g></g><path class="foreground" d="" style="display: none; fill: none;"></path></g><g transform="translate(0,0)"><path class="background" d="M0,0h650v800h-650Z" style="fill: none;"></path><g><g class="mark-line role-mark layer_0_layer_1_marks" style="pointer-events: none;"><path d="M0,773.3654838577686L18.57142857142857,773.3654838577686L37.14285714285714,762.711677400876L55.714285714285715,746.7309677155372L74.28571428571428,720.0964515733059" style="fill: none; stroke: #f58518; stroke-width: 4; opacity: 0.5;"></path></g></g><path class="foreground" d="" style="display: none; fill: none;"></path></g><g transform="translate(0,0)"><path class="background" d="M0,0h650v800h-650Z" style="fill: none;"></path><g><g class="mark-line role-mark layer_0_layer_1_marks" style="pointer-events: none;"><path d="M0,769.9742955842403L18.57142857142857,748.5273638586976L37.14285714285714,735.659204823372L55.714285714285715,718.5016594429379L74.28571428571428,701.3441140625038L92.85714285714285,671.3184096467442L111.42857142857143,628.4245461956588L130,585.5306827445736L148.57142857142856,572.6625237092479L167.14285714285714,534.0580466032711L185.7142857142857,495.4535694972943L204.28571428571428,413.95522894023225L222.85714285714286,345.32504741849584L241.42857142857144,268.11609320654225L260,178.03897995926317L278.57142857142856,109.40879843752667L297.1428571428571,19.331685190247594" style="fill: none; stroke: #e45756; stroke-width: 4; opacity: 0.5;"></path></g></g><path class="foreground" d="" style="display: none; fill: none;"></path></g><g transform="translate(0,0)"><path class="background" d="M0,0h650v800h-650Z" style="fill: none;"></path><g><g class="mark-line role-mark layer_0_layer_1_marks" style="pointer-events: none;"><path d="M0,694.8969721000071L18.57142857142857,694.8969721000071L37.14285714285714,673.8763665200086L55.714285714285715,652.85576094001L74.28571428571428,652.85576094001L92.85714285714285,589.7939442000143L111.42857142857143,589.7939442000143L130,589.7939442000143L148.57142857142856,568.7733386200156" style="fill: none; stroke: #72b7b2; stroke-width: 4; opacity: 0.5;"></path></g></g><path class="foreground" d="" style="display: none; fill: none;"></path></g><g transform="translate(0,0)"><path class="background" d="M0,0h650v800h-650Z" style="fill: none;"></path><g><g class="mark-line role-mark layer_0_layer_1_marks" style="pointer-events: none;"><path d="M0,792.828198233621L18.57142857142857,791.6328979392246L37.14285714285714,789.2422973504316L55.714285714285715,788.0469970560351L74.28571428571428,783.2657958784492L92.85714285714285,778.4845947008632L111.42857142857143,777.2892944064668L130,777.2892944064668L148.57142857142856,774.8986938176738L167.14285714285714,774.8986938176738L185.7142857142857,773.7033935232773L204.28571428571428,768.9221923456913L222.85714285714286,766.5315917568984L241.42857142857144,759.3597899905195L260,756.9691894017266L278.57142857142856,752.1879882241406L297.1428571428571,746.2114867521582" style="fill: none; stroke: #54a24b; stroke-width: 4; opacity: 0.5;"></path></g></g><path class="foreground" d="" style="display: none; fill: none;"></path></g><g transform="translate(0,0)"><path class="background" d="M0,0h650v800h-650Z" style="fill: none;"></path><g><g class="mark-line role-mark layer_0_layer_1_marks" style="pointer-events: none;"><path d="M0,790.2663020520753L18.57142857142857,790.2663020520753L37.14285714285714,786.3728228729053L55.714285714285715,782.4793436937355L74.28571428571428,759.118468618716L92.85714285714285,757.171729029131L111.42857142857143,755.2249894395461L130,731.8641143645267L148.57142857142856,731.8641143645267L167.14285714285714,722.130416416602L185.7142857142857,689.0358433936576L204.28571428571428,689.0358433936576L222.85714285714286,669.5684474978082L241.42857142857144,655.9412703707135L260,652.0477911915436L278.57142857142856,603.3793014519198L297.1428571428571,583.9119055560703L315.7142857142857,558.6042908914658L334.2857142857143,537.1901554060313L352.85714285714283,498.25536361433234L371.4285714285714,449.58687387470843L390,432.0662175684439" style="fill: none; stroke: #eeca3b; stroke-width: 4; opacity: 0.5;"></path></g></g><path class="foreground" d="" style="display: none; fill: none;"></path></g><g transform="translate(0,0)"><path class="background" d="M0,0h650v800h-650Z" style="fill: none;"></path><g><g class="mark-line role-mark layer_0_layer_1_marks" style="pointer-events: none;"><path d="M0,770.5204018717776L18.57142857142857,764.6244822461331L37.14285714285714,758.7285626204887L55.714285714285715,758.7285626204887L74.28571428571428,741.0408037435552L92.85714285714285,729.2489644922663L111.42857142857143,729.2489644922663L130,723.3530448666218L148.57142857142856,717.4571252409773L167.14285714285714,717.4571252409773L185.7142857142857,717.4571252409773L204.28571428571428,711.5612056153328L222.85714285714286,699.7693663640439L241.42857142857144,699.7693663640439L260,682.0816074871104L278.57142857142856,658.4979289845326L297.1428571428571,658.4979289845326L315.7142857142857,658.4979289845326" style="fill: none; stroke: #b279a2; stroke-width: 4; opacity: 0.5;"></path></g></g><path class="foreground" d="" style="display: none; fill: none;"></path></g><g transform="translate(0,0)"><path class="background" d="M0,0h650v800h-650Z" style="fill: none;"></path><g><g class="mark-line role-mark layer_0_layer_1_marks" style="pointer-events: none;"><path d="M0,777.8809080440225L18.57142857142857,773.457089652827L37.14285714285714,773.457089652827L55.714285714285715,773.457089652827L74.28571428571428,773.457089652827L92.85714285714285,773.457089652827L111.42857142857143,769.0332712616315L130,764.609452870436L148.57142857142856,760.1856344792405L167.14285714285714,738.0665425232631L185.7142857142857,724.7950873496766L204.28571428571428,720.3712689584811L222.85714285714286,707.0998137848946L241.42857142857144,676.133085046526L260,676.133085046526L278.57142857142856,667.2854482641352L297.1428571428571,649.5901746993532" style="fill: none; stroke: #ff9da6; stroke-width: 4; opacity: 0.5;"></path></g></g><path class="foreground" d="" style="display: none; fill: none;"></path></g><g transform="translate(0,0)"><path class="background" d="M0,0h650v800h-650Z" style="fill: none;"></path><g><g class="mark-line role-mark layer_0_layer_1_marks" style="pointer-events: none;"><path d="M0,787.3347954678705L18.57142857142857,787.3347954678705L37.14285714285714,782.2687136550187L55.714285714285715,782.2687136550187L74.28571428571428,779.735672748593L92.85714285714285,774.6695909357411L111.42857142857143,764.5374273100375L130,762.0043864036116L148.57142857142856,762.0043864036116L167.14285714285714,762.0043864036116L185.7142857142857,759.4713454971857L204.28571428571428,759.4713454971857L222.85714285714286,754.4052636843339L241.42857142857144,754.4052636843339" style="fill: none; stroke: #9d755d; stroke-width: 4; opacity: 0.5;"></path></g></g><path class="foreground" d="" style="display: none; fill: none;"></path></g><g transform="translate(0,0)"><path class="background" d="M0,0h650v800h-650Z" style="fill: none;"></path><g><g class="mark-line role-mark layer_0_layer_1_marks" style="pointer-events: none;"><path d="M0,772.3603458970795L18.57142857142857,769.8476500695411L37.14285714285714,759.7968667593883L55.714285714285715,747.2333876216971L74.28571428571428,739.6953001390824L92.85714285714285,732.1572126564677L111.42857142857143,719.5937335187765L130,714.5683418637001L148.57142857142856,707.0302543810853L167.14285714285714,699.4921668984707L185.7142857142857,689.4413835883178L204.28571428571428,679.3906002781648L222.85714285714286,664.3144253129354" style="fill: none; stroke: #bab0ac; stroke-width: 4; opacity: 0.5;"></path></g></g><path class="foreground" d="" style="display: none; fill: none;"></path></g><g transform="translate(0,0)"><path class="background" d="M0,0h650v800h-650Z" style="fill: none;"></path><g><g class="mark-line role-mark layer_0_layer_1_marks" style="pointer-events: none;"><path d="M0,794.9611356327971L18.57142857142857,794.9611356327971L37.14285714285714,794.9611356327971L55.714285714285715,792.4417034491956L74.28571428571428,790.7620819934613L92.85714285714285,788.2426498098598L111.42857142857143,787.4028390819926L130,785.7232176262582L148.57142857142856,785.7232176262582L167.14285714285714,783.2037854426568L185.7142857142857,780.6843532590553L204.28571428571428,777.3251103475867L222.85714285714286,774.8056781639852L241.42857142857144,772.2862459803837L260,770.6066245246494L278.57142857142856,767.2473816131808L297.1428571428571,767.2473816131808" style="fill: none; stroke: #4c78a8; stroke-width: 4; opacity: 0.5;"></path></g></g><path class="foreground" d="" style="display: none; fill: none;"></path></g><g transform="translate(0,0)"><path class="background" d="M0,0h650v800h-650Z" style="fill: none;"></path><g><g class="mark-line role-mark layer_0_layer_1_marks" style="pointer-events: none;"><path d="M0,768.0139126685457L18.57142857142857,768.0139126685457L37.14285714285714,768.0139126685457L55.714285714285715,768.0139126685457" style="fill: none; stroke: #f58518; stroke-width: 4; opacity: 0.5;"></path></g></g><path class="foreground" d="" style="display: none; fill: none;"></path></g><g transform="translate(0,0)"><path class="background" d="M0,0h650v800h-650Z" style="fill: none;"></path><g><g class="mark-line role-mark layer_0_layer_1_marks" style="pointer-events: none;"><path d="M0,774.4899537292404L18.57142857142857,774.4899537292404L37.14285714285714,774.4899537292404L55.714285714285715,774.4899537292404" style="fill: none; stroke: #e45756; stroke-width: 4; opacity: 0.5;"></path></g></g><path class="foreground" d="" style="display: none; fill: none;"></path></g><g transform="translate(0,0)"><path class="background" d="M0,0h650v800h-650Z" style="fill: none;"></path><g><g class="mark-line role-mark layer_0_layer_1_marks" style="pointer-events: none;"><path d="M0,789.6675248433064L18.57142857142857,789.6675248433064L37.14285714285714,787.6010298119677L55.714285714285715,785.534534780629L74.28571428571428,781.4015447179515L92.85714285714285,777.2685546552741L111.42857142857143,771.069069561258L130,771.069069561258L148.57142857142856,756.6036043418869L167.14285714285714,756.6036043418869L185.7142857142857,746.2711291851932L204.28571428571428,733.872158997161L222.85714285714286,731.8056639658222L241.42857142857144,729.7391689344835" style="fill: none; stroke: #72b7b2; stroke-width: 4; opacity: 0.5;"></path></g></g><path class="foreground" d="" style="display: none; fill: none;"></path></g><g transform="translate(0,0)"><path class="background" d="M0,0h650v800h-650Z" style="fill: none;"></path><g><g class="mark-line role-mark layer_0_layer_1_marks" style="pointer-events: none;"><path d="M0,769.0292406276744L18.57142857142857,751.3316638434884L37.14285714285714,751.3316638434884L55.714285714285715,742.4828754513953L74.28571428571428,742.4828754513953L92.85714285714285,729.2096928632558L111.42857142857143,707.0877218830233L130,693.8145392948837L148.57142857142856,684.9657509027908L167.14285714285714,676.1169625106977L185.7142857142857,671.6925683146511L204.28571428571428,658.4193857265117" style="fill: none; stroke: #54a24b; stroke-width: 4; opacity: 0.5;"></path></g></g><path class="foreground" d="" style="display: none; fill: none;"></path></g><g transform="translate(0,0)"><path class="background" d="M0,0h650v800h-650Z" style="fill: none;"></path><g><g class="mark-line role-mark layer_0_layer_1_marks" style="pointer-events: none;"><path d="M0,790.6991494686092L18.57142857142857,790.6991494686092L37.14285714285714,788.8389793623311L55.714285714285715,788.8389793623311L74.28571428571428,785.1186391497748L92.85714285714285,783.2584690434967L111.42857142857143,781.3982989372186L130,773.9576185121059L148.57142857142856,760.936427768159L167.14285714285714,744.1948968116557L185.7142857142857,736.7542163865431L204.28571428571428,714.4321751112053L222.85714285714286,695.8304740484239L241.42857142857144,679.0889430919206L260,666.0677523479736L278.57142857142856,641.8855409663577L297.1428571428571,610.2626491596293L315.7142857142857,586.0804377780133L334.2857142857143,533.9956748022253L352.85714285714283,502.3727829954968L371.4285714285714,454.008360232265L390,418.6651282129803L408.57142857142856,398.20325704392064" style="fill: none; stroke: #eeca3b; stroke-width: 4; opacity: 0.5;"></path></g></g><path class="foreground" d="" style="display: none; fill: none;"></path></g><g transform="translate(0,0)"><path class="background" d="M0,0h650v800h-650Z" style="fill: none;"></path><g><g class="mark-line role-mark layer_0_layer_1_marks" style="pointer-events: none;"><path d="M0,772.843652796189L18.57142857142857,767.4123833554268L37.14285714285714,761.9811139146644L55.714285714285715,761.9811139146644L74.28571428571428,761.9811139146644L92.85714285714285,761.9811139146644L111.42857142857143,756.5498444739023L130,756.5498444739023L148.57142857142856,756.5498444739023L167.14285714285714,756.5498444739023L185.7142857142857,751.1185750331401L204.28571428571428,745.6873055923778L222.85714285714286,734.8247667108534" style="fill: none; stroke: #b279a2; stroke-width: 4; opacity: 0.5;"></path></g></g><path class="foreground" d="" style="display: none; fill: none;"></path></g><g transform="translate(0,0)"><path class="background" d="M0,0h650v800h-650Z" style="fill: none;"></path><g><g class="mark-line role-mark layer_0_layer_1_marks" style="pointer-events: none;"><path d="M0,792.2258856764207L18.57142857142857,789.116239946989L37.14285714285714,784.4517713528415L55.714285714285715,778.2324798939782L74.28571428571428,776.6776570292623L92.85714285714285,773.5680112998306L111.42857142857143,762.6842512468197L130,759.574605517388L148.57142857142856,758.0197826526722L167.14285714285714,751.8004911938089L185.7142857142857,748.6908454643772L204.28571428571428,739.3619082760821L222.85714285714286,736.2522625466504L241.42857142857144,733.1426168172187L260,731.5877939525029L278.57142857142856,723.8136796289236L297.1428571428571,719.1492110347762" style="fill: none; stroke: #ff9da6; stroke-width: 4; opacity: 0.5;"></path></g></g><path class="foreground" d="" style="display: none; fill: none;"></path></g><g transform="translate(0,0)"><path class="background" d="M0,0h650v800h-650Z" style="fill: none;"></path><g><g class="mark-line role-mark layer_0_layer_1_marks" style="pointer-events: none;"><path d="M0,793.8217770735375L18.57142857142857,791.7623694313835L37.14285714285714,790.7326656103064L55.714285714285715,789.7029617892293L74.28571428571428,786.6138503259981L92.85714285714285,782.4950350416898L111.42857142857143,781.4653312206127L130,776.3168121152274L148.57142857142856,771.1682930098422L167.14285714285714,757.7821433358401L185.7142857142857,751.6039204093778L204.28571428571428,740.27717837753L222.85714285714286,734.0989554510676L241.42857142857144,726.8910287035281L260,708.356359924141L278.57142857142856,690.8513949658308L297.1428571428571,674.3761338285977L315.7142857142857,648.633538301671L334.2857142857143,640.3959077330545L352.85714285714283,624.9503504168985L371.4285714285714,612.5939045639736L390,569.3463440787367L408.57142857142856,527.128487414577L427.14285714285717,490.05914985580256L445.7142857142857,448.87099701271984L464.2857142857143,401.50462124317465L482.8571428571429,386.05906392701866" style="fill: none; stroke: #9d755d; stroke-width: 4; opacity: 0.5;"></path></g></g><path class="foreground" d="" style="display: none; fill: none;"></path></g><g transform="translate(0,0)"><path class="background" d="M0,0h650v800h-650Z" style="fill: none;"></path><g><g class="mark-line role-mark layer_0_layer_1_marks" style="pointer-events: none;"><path d="M0,769.5833652945628L18.57142857142857,764.5139261769898L37.14285714285714,764.5139261769898L55.714285714285715,759.444487059417L74.28571428571428,744.2361697066983L92.85714285714285,744.2361697066983L111.42857142857143,744.2361697066983L130,734.0972914715527L148.57142857142856,713.8195350012612L167.14285714285714,708.7500958836883L185.7142857142857,703.6806567661154L204.28571428571428,698.6112176485426L222.85714285714286,683.4029002958239L241.42857142857144,678.3334611782511L260,668.1945829431054L278.57142857142856,663.1251438255324" style="fill: none; stroke: #bab0ac; stroke-width: 4; opacity: 0.5;"></path></g></g><path class="foreground" d="" style="display: none; fill: none;"></path></g><g transform="translate(0,0)"><path class="background" d="M0,0h650v800h-650Z" style="fill: none;"></path><g><g class="mark-line role-mark layer_0_layer_1_marks" style="pointer-events: none;"><path d="M0,792.18713003314L18.57142857142857,792.18713003314L37.14285714285714,790.624556039768L55.714285714285715,789.0619820463959L74.28571428571428,789.0619820463959L92.85714285714285,787.4994080530239L111.42857142857143,787.4994080530239L130,784.3742600662799L148.57142857142856,778.1239640927918L167.14285714285714,776.5613900994199L185.7142857142857,774.9988161060478L204.28571428571428,774.9988161060478L222.85714285714286,773.4362421126758L241.42857142857144,771.8736681193038L260,770.3110941259318L278.57142857142856,767.1859461391878L297.1428571428571,762.4982241590717L315.7142857142857,762.4982241590717L334.2857142857143,759.3730761723277" style="fill: none; stroke: #4c78a8; stroke-width: 4; opacity: 0.5;"></path></g></g><path class="foreground" d="" style="display: none; fill: none;"></path></g><g transform="translate(0,0)"><path class="background" d="M0,0h650v800h-650Z" style="fill: none;"></path><g><g class="mark-line role-mark layer_0_layer_1_marks" style="pointer-events: none;"><path d="M0,787.5936470292088L18.57142857142857,787.5936470292088L37.14285714285714,775.1872940584176L55.714285714285715,775.1872940584176L74.28571428571428,772.7060234642594L92.85714285714285,762.7809410876265L111.42857142857143,757.8183998993101L130,755.3371293051518L148.57142857142856,755.3371293051518L167.14285714285714,747.8933175226771L185.7142857142857,740.4495057402024L204.28571428571428,735.486964551886L222.85714285714286,730.5244233635694L241.42857142857144,728.0431527694112L260,725.561882175253L278.57142857142856,723.0806115810948L297.1428571428571,720.5993409869366L315.7142857142857,713.1555292044618" style="fill: none; stroke: #f58518; stroke-width: 4; opacity: 0.5;"></path></g></g><path class="foreground" d="" style="display: none; fill: none;"></path></g><g transform="translate(0,0)"><path class="background" d="M0,0h650v800h-650Z" style="fill: none;"></path><g><g class="mark-line role-mark layer_0_layer_1_marks" style="pointer-events: none;"><path d="M0,761.3307332118345L18.57142857142857,761.3307332118345" style="fill: none; stroke: #e45756; stroke-width: 4; opacity: 0.5;"></path></g></g><path class="foreground" d="" style="display: none; fill: none;"></path></g><g transform="translate(0,0)"><path class="background" d="M0,0h650v800h-650Z" style="fill: none;"></path><g><g class="mark-line role-mark layer_0_layer_1_marks" style="pointer-events: none;"><path d="M0,798.0642262672102L18.57142857142857,796.5156072809783L37.14285714285714,794.1926788016306L55.714285714285715,791.4825955757248L74.28571428571428,788.385357603261L92.85714285714285,784.5138101376814L111.42857142857143,781.4165721652178L130,777.545024699638L148.57142857142856,773.6734772340584L167.14285714285714,767.4790012891309L185.7142857142857,762.0588348373194L204.28571428571428,756.2515136389499L222.85714285714286,747.3469544681168L241.42857142857144,736.5066215644937L260,727.2149076471026L278.57142857142856,715.2131105038056L297.1428571428571,699.3397658949291L315.7142857142857,693.5324446965597L334.2857142857143,682.3049570463786L352.85714285714283,656.365589026995L371.4285714285714,634.297768473191L390,607.9712457072493L408.57142857142856,590.9364368586988L427.14285714285717,583.1933419275396L445.7142857142857,572.3530090239166L464.2857142857143,564.6099140927573L482.8571428571429,530.9274511422143L501.42857142857144,498.7936071779032L520,469.7570011860558L538.5714285714286,440.7203951942085L557.1428571428571,416.32964616105676L575.7142857142857,407.0379322436656" style="fill: none; stroke: #72b7b2; stroke-width: 4; opacity: 0.5;"></path></g></g><path class="foreground" d="" style="display: none; fill: none;"></path></g></g><g class="mark-text role-mark layer_0_layer_2_marks" style="pointer-events: none;"><text text-anchor="start" transform="translate(60.714285714285715,684.0538229385763)" style="font-family: sans-serif; font-size: 15px; fill: #4c78a8;">AC</text><text text-anchor="start" transform="translate(79.28571428571428,725.0964515733059)" style="font-family: sans-serif; font-size: 15px; fill: #f58518;">AL</text><text text-anchor="start" transform="translate(302.1428571428571,24.331685190247594)" style="font-family: sans-serif; font-size: 15px; fill: #e45756;">AM</text><text text-anchor="start" transform="translate(153.57142857142856,573.7733386200156)" style="font-family: sans-serif; font-size: 15px; fill: #72b7b2;">AP</text><text text-anchor="start" transform="translate(302.1428571428571,751.2114867521582)" style="font-family: sans-serif; font-size: 15px; fill: #54a24b;">BA</text><text text-anchor="start" transform="translate(395,437.0662175684439)" style="font-family: sans-serif; font-size: 15px; fill: #eeca3b;">CE</text><text text-anchor="start" transform="translate(320.7142857142857,663.4979289845326)" style="font-family: sans-serif; font-size: 15px; fill: #b279a2;">DF</text><text text-anchor="start" transform="translate(302.1428571428571,654.5901746993532)" style="font-family: sans-serif; font-size: 15px; fill: #ff9da6;">ES</text><text text-anchor="start" transform="translate(246.42857142857144,759.4052636843339)" style="font-family: sans-serif; font-size: 15px; fill: #9d755d;">GO</text><text text-anchor="start" transform="translate(227.85714285714286,669.3144253129354)" style="font-family: sans-serif; font-size: 15px; fill: #bab0ac;">MA</text><text text-anchor="start" transform="translate(302.1428571428571,772.2473816131808)" style="font-family: sans-serif; font-size: 15px; fill: #4c78a8;">MG</text><text text-anchor="start" transform="translate(60.714285714285715,773.0139126685457)" style="font-family: sans-serif; font-size: 15px; fill: #f58518;">MS</text><text text-anchor="start" transform="translate(60.714285714285715,779.4899537292404)" style="font-family: sans-serif; font-size: 15px; fill: #e45756;">MT</text><text text-anchor="start" transform="translate(246.42857142857144,734.7391689344835)" style="font-family: sans-serif; font-size: 15px; fill: #72b7b2;">PA</text><text text-anchor="start" transform="translate(209.28571428571428,663.4193857265117)" style="font-family: sans-serif; font-size: 15px; fill: #54a24b;">PB</text><text text-anchor="start" transform="translate(413.57142857142856,403.20325704392064)" style="font-family: sans-serif; font-size: 15px; fill: #eeca3b;">PE</text><text text-anchor="start" transform="translate(227.85714285714286,739.8247667108534)" style="font-family: sans-serif; font-size: 15px; fill: #b279a2;">PI</text><text text-anchor="start" transform="translate(302.1428571428571,724.1492110347762)" style="font-family: sans-serif; font-size: 15px; fill: #ff9da6;">PR</text><text text-anchor="start" transform="translate(487.8571428571429,391.05906392701866)" style="font-family: sans-serif; font-size: 15px; fill: #9d755d;">RJ</text><text text-anchor="start" transform="translate(283.57142857142856,668.1251438255324)" style="font-family: sans-serif; font-size: 15px; fill: #bab0ac;">RN</text><text text-anchor="start" transform="translate(339.2857142857143,764.3730761723277)" style="font-family: sans-serif; font-size: 15px; fill: #4c78a8;">RS</text><text text-anchor="start" transform="translate(320.7142857142857,718.1555292044618)" style="font-family: sans-serif; font-size: 15px; fill: #f58518;">SC</text><text text-anchor="start" transform="translate(23.57142857142857,766.3307332118345)" style="font-family: sans-serif; font-size: 15px; fill: #e45756;">SE</text><text text-anchor="start" transform="translate(580.7142857142857,412.0379322436656)" style="font-family: sans-serif; font-size: 15px; fill: #72b7b2;">SP</text></g><g class="mark-group role-title"><g transform="translate(325,-27)"><path class="background" d="M0,0h0v0h0Z" style="pointer-events: none; fill: none;"></path><g><g class="mark-text role-title-text" style="pointer-events: none;"><text text-anchor="middle" transform="translate(0,18)" style="font-family: sans-serif; font-size: 23px; font-weight: bold; fill: #000; opacity: 1;">Mortes confirmadas pelo COVID-19 a cada 100 mil habitantes</text></g></g><path class="foreground" d="" style="pointer-events: none; display: none; fill: none;"></path></g></g></g><path class="foreground" d="" style="display: none; fill: none;"></path></g></g></g></svg>