<svg class="marks" width="734" height="883" viewBox="0 0 734 883" version="1.1" xmlns="http://www.w3.org/2000/svg" xmlns:xlink="http://www.w3.org/1999/xlink"><rect width="734" height="883" fill="white"></rect><g fill="none" stroke-miterlimit="10" transform="translate(53,32)"><g class="mark-group role-frame root" role="graphics-object" aria-roledescription="group mark container"><g transform="translate(0,0)"><path class="background" aria-hidden="true" d="M0.5,0.5h650v800h-650Z" stroke="#ddd"></path><g><g class="mark-group role-axis" role="graphics-symbol" aria-roledescription="axis" aria-label="X-axis for a linear scale with values from 0 to 65"><g transform="translate(0.5,800.5)"><path class="background" aria-hidden="true" d="M0,0h0v0h0Z" pointer-events="none"></path><g><g class="mark-rule role-axis-grid" pointer-events="none"><line transform="translate(0,-800)" x2="0" y2="800" stroke="#ddd" stroke-width="1" opacity="1"></line><line transform="translate(50,-800)" x2="0" y2="800" stroke="#ddd" stroke-width="1" opacity="1"></line><line transform="translate(100,-800)" x2="0" y2="800" stroke="#ddd" stroke-width="1" opacity="1"></line><line transform="translate(150,-800)" x2="0" y2="800" stroke="#ddd" stroke-width="1" opacity="1"></line><line transform="translate(200,-800)" x2="0" y2="800" stroke="#ddd" stroke-width="1" opacity="1"></line><line transform="translate(250,-800)" x2="0" y2="800" stroke="#ddd" stroke-width="1" opacity="1"></line><line transform="translate(300,-800)" x2="0" y2="800" stroke="#ddd" stroke-width="1" opacity="1"></line><line transform="translate(350,-800)" x2="0" y2="800" stroke="#ddd" stroke-width="1" opacity="1"></line><line transform="translate(400,-800)" x2="0" y2="800" stroke="#ddd" stroke-width="1" opacity="1"></line><line transform="translate(450,-800)" x2="0" y2="800" stroke="#ddd" stroke-width="1" opacity="1"></line><line transform="translate(500,-800)" x2="0" y2="800" stroke="#ddd" stroke-width="1" opacity="1"></line><line transform="translate(550,-800)" x2="0" y2="800" stroke="#ddd" stroke-width="1" opacity="1"></line><line transform="translate(600,-800)" x2="0" y2="800" stroke="#ddd" stroke-width="1" opacity="1"></line><line transform="translate(650,-800)" x2="0" y2="800" stroke="#ddd" stroke-width="1" opacity="1"></line></g></g><path class="foreground" aria-hidden="true" d="" pointer-events="none" display="none"></path></g></g><g class="mark-group role-axis" role="graphics-symbol" aria-roledescription="axis" aria-label="Y-axis for a linear scale with values from 0 to 45"><g transform="translate(0.5,0.5)"><path class="background" aria-hidden="true" d="M0,0h0v0h0Z" pointer-events="none"></path><g><g class="mark-rule role-axis-grid" pointer-events="none"><line transform="translate(0,800)" x2="650" y2="0" stroke="#ddd" stroke-width="1" opacity="1"></line><line transform="translate(0,764)" x2="650" y2="0" stroke="#ddd" stroke-width="1" opacity="1"></line><line transform="translate(0,729)" x2="650" y2="0" stroke="#ddd" stroke-width="1" opacity="1"></line><line transform="translate(0,693)" x2="650" y2="0" stroke="#ddd" stroke-width="1" opacity="1"></line><line transform="translate(0,658)" x2="650" y2="0" stroke="#ddd" stroke-width="1" opacity="1"></line><line transform="translate(0,622)" x2="650" y2="0" stroke="#ddd" stroke-width="1" opacity="1"></line><line transform="translate(0,587)" x2="650" y2="0" stroke="#ddd" stroke-width="1" opacity="1"></line><line transform="translate(0,551)" x2="650" y2="0" stroke="#ddd" stroke-width="1" opacity="1"></line><line transform="translate(0,516)" x2="650" y2="0" stroke="#ddd" stroke-width="1" opacity="1"></line><line transform="translate(0,480)" x2="650" y2="0" stroke="#ddd" stroke-width="1" opacity="1"></line><line transform="translate(0,444)" x2="650" y2="0" stroke="#ddd" stroke-width="1" opacity="1"></line><line transform="translate(0,409)" x2="650" y2="0" stroke="#ddd" stroke-width="1" opacity="1"></line><line transform="translate(0,373)" x2="650" y2="0" stroke="#ddd" stroke-width="1" opacity="1"></line><line transform="translate(0,338)" x2="650" y2="0" stroke="#ddd" stroke-width="1" opacity="1"></line><line transform="translate(0,302)" x2="650" y2="0" stroke="#ddd" stroke-width="1" opacity="1"></line><line transform="translate(0,267)" x2="650" y2="0" stroke="#ddd" stroke-width="1" opacity="1"></line><line transform="translate(0,231)" x2="650" y2="0" stroke="#ddd" stroke-width="1" opacity="1"></line><line transform="translate(0,196)" x2="650" y2="0" stroke="#ddd" stroke-width="1" opacity="1"></line><line transform="translate(0,160)" x2="650" y2="0" stroke="#ddd" stroke-width="1" opacity="1"></line><line transform="translate(0,124)" x2="650" y2="0" stroke="#ddd" stroke-width="1" opacity="1"></line><line transform="translate(0,89)" x2="650" y2="0" stroke="#ddd" stroke-width="1" opacity="1"></line><line transform="translate(0,53)" x2="650" y2="0" stroke="#ddd" stroke-width="1" opacity="1"></line><line transform="translate(0,18)" x2="650" y2="0" stroke="#ddd" stroke-width="1" opacity="1"></line></g></g><path class="foreground" aria-hidden="true" d="" pointer-events="none" display="none"></path></g></g><g class="mark-group role-axis" role="graphics-symbol" aria-roledescription="axis" aria-label="X-axis titled 'Dias a partir da 5a morte no estado' for a linear scale with values from 0 to 65"><g transform="translate(0.5,800.5)"><path class="background" aria-hidden="true" d="M0,0h0v0h0Z" pointer-events="none"></path><g><g class="mark-rule role-axis-tick" pointer-events="none"><line transform="translate(0,0)" x2="0" y2="5" stroke="#888" stroke-width="1" opacity="1"></line><line transform="translate(50,0)" x2="0" y2="5" stroke="#888" stroke-width="1" opacity="1"></line><line transform="translate(100,0)" x2="0" y2="5" stroke="#888" stroke-width="1" opacity="1"></line><line transform="translate(150,0)" x2="0" y2="5" stroke="#888" stroke-width="1" opacity="1"></line><line transform="translate(200,0)" x2="0" y2="5" stroke="#888" stroke-width="1" opacity="1"></line><line transform="translate(250,0)" x2="0" y2="5" stroke="#888" stroke-width="1" opacity="1"></line><line transform="translate(300,0)" x2="0" y2="5" stroke="#888" stroke-width="1" opacity="1"></line><line transform="translate(350,0)" x2="0" y2="5" stroke="#888" stroke-width="1" opacity="1"></line><line transform="translate(400,0)" x2="0" y2="5" stroke="#888" stroke-width="1" opacity="1"></line><line transform="translate(450,0)" x2="0" y2="5" stroke="#888" stroke-width="1" opacity="1"></line><line transform="translate(500,0)" x2="0" y2="5" stroke="#888" stroke-width="1" opacity="1"></line><line transform="translate(550,0)" x2="0" y2="5" stroke="#888" stroke-width="1" opacity="1"></line><line transform="translate(600,0)" x2="0" y2="5" stroke="#888" stroke-width="1" opacity="1"></line><line transform="translate(650,0)" x2="0" y2="5" stroke="#888" stroke-width="1" opacity="1"></line></g><g class="mark-text role-axis-label" pointer-events="none"><text text-anchor="start" transform="translate(0,19)" font-family="sans-serif" font-size="15px" fill="#000" opacity="1">0</text><text text-anchor="middle" transform="translate(50,19)" font-family="sans-serif" font-size="15px" fill="#000" opacity="1">5</text><text text-anchor="middle" transform="translate(100,19)" font-family="sans-serif" font-size="15px" fill="#000" opacity="1">10</text><text text-anchor="middle" transform="translate(150,19)" font-family="sans-serif" font-size="15px" fill="#000" opacity="1">15</text><text text-anchor="middle" transform="translate(200,19)" font-family="sans-serif" font-size="15px" fill="#000" opacity="1">20</text><text text-anchor="middle" transform="translate(250,19)" font-family="sans-serif" font-size="15px" fill="#000" opacity="1">25</text><text text-anchor="middle" transform="translate(300,19)" font-family="sans-serif" font-size="15px" fill="#000" opacity="1">30</text><text text-anchor="middle" transform="translate(350,19)" font-family="sans-serif" font-size="15px" fill="#000" opacity="1">35</text><text text-anchor="middle" transform="translate(400,19)" font-family="sans-serif" font-size="15px" fill="#000" opacity="1">40</text><text text-anchor="middle" transform="translate(450,19)" font-family="sans-serif" font-size="15px" fill="#000" opacity="1">45</text><text text-anchor="middle" transform="translate(500,19)" font-family="sans-serif" font-size="15px" fill="#000" opacity="1">50</text><text text-anchor="middle" transform="translate(550,19)" font-family="sans-serif" font-size="15px" fill="#000" opacity="1">55</text><text text-anchor="middle" transform="translate(600,19)" font-family="sans-serif" font-size="15px" fill="#000" opacity="1">60</text><text text-anchor="end" transform="translate(650,19)" font-family="sans-serif" font-size="15px" fill="#000" opacity="1">65</text></g><g class="mark-rule role-axis-domain" pointer-events="none"><line transform="translate(0,0)" x2="650" y2="0" stroke="#888" stroke-width="1" opacity="1"></line></g><g class="mark-text role-axis-title" pointer-events="none"><text text-anchor="middle" transform="translate(325,42)" font-family="sans-serif" font-size="20px" font-weight="bold" fill="#000" opacity="1">Dias a partir da 5a morte no estado</text></g></g><path class="foreground" aria-hidden="true" d="" pointer-events="none" display="none"></path></g></g><g class="mark-group role-axis" role="graphics-symbol" aria-roledescription="axis" aria-label="Y-axis titled 'Mortes a cada 100 mil habitantes' for a linear scale with values from 0 to 45"><g transform="translate(0.5,0.5)"><path class="background" aria-hidden="true" d="M0,0h0v0h0Z" pointer-events="none"></path><g><g class="mark-rule role-axis-tick" pointer-events="none"><line transform="translate(0,800)" x2="-5" y2="0" stroke="#888" stroke-width="1" opacity="1"></line><line transform="translate(0,764)" x2="-5" y2="0" stroke="#888" stroke-width="1" opacity="1"></line><line transform="translate(0,729)" x2="-5" y2="0" stroke="#888" stroke-width="1" opacity="1"></line><line transform="translate(0,693)" x2="-5" y2="0" stroke="#888" stroke-width="1" opacity="1"></line><line transform="translate(0,658)" x2="-5" y2="0" stroke="#888" stroke-width="1" opacity="1"></line><line transform="translate(0,622)" x2="-5" y2="0" stroke="#888" stroke-width="1" opacity="1"></line><line transform="translate(0,587)" x2="-5" y2="0" stroke="#888" stroke-width="1" opacity="1"></line><line transform="translate(0,551)" x2="-5" y2="0" stroke="#888" stroke-width="1" opacity="1"></line><line transform="translate(0,516)" x2="-5" y2="0" stroke="#888" stroke-width="1" opacity="1"></line><line transform="translate(0,480)" x2="-5" y2="0" stroke="#888" stroke-width="1" opacity="1"></line><line transform="translate(0,444)" x2="-5" y2="0" stroke="#888" stroke-width="1" opacity="1"></line><line transform="translate(0,409)" x2="-5" y2="0" stroke="#888" stroke-width="1" opacity="1"></line><line transform="translate(0,373)" x2="-5" y2="0" stroke="#888" stroke-width="1" opacity="1"></line><line transform="translate(0,338)" x2="-5" y2="0" stroke="#888" stroke-width="1" opacity="1"></line><line transform="translate(0,302)" x2="-5" y2="0" stroke="#888" stroke-width="1" opacity="1"></line><line transform="translate(0,267)" x2="-5" y2="0" stroke="#888" stroke-width="1" opacity="1"></line><line transform="translate(0,231)" x2="-5" y2="0" stroke="#888" stroke-width="1" opacity="1"></line><line transform="translate(0,196)" x2="-5" y2="0" stroke="#888" stroke-width="1" opacity="1"></line><line transform="translate(0,160)" x2="-5" y2="0" stroke="#888" stroke-width="1" opacity="1"></line><line transform="translate(0,124)" x2="-5" y2="0" stroke="#888" stroke-width="1" opacity="1"></line><line transform="translate(0,89)" x2="-5" y2="0" stroke="#888" stroke-width="1" opacity="1"></line><line transform="translate(0,53)" x2="-5" y2="0" stroke="#888" stroke-width="1" opacity="1"></line><line transform="translate(0,18)" x2="-5" y2="0" stroke="#888" stroke-width="1" opacity="1"></line></g><g class="mark-text role-axis-label" pointer-events="none"><text text-anchor="end" transform="translate(-7,805)" font-family="sans-serif" font-size="15px" fill="#000" opacity="1">0</text><text text-anchor="end" transform="translate(-7,769.4444444444445)" font-family="sans-serif" font-size="15px" fill="#000" opacity="1">2</text><text text-anchor="end" transform="translate(-7,733.8888888888889)" font-family="sans-serif" font-size="15px" fill="#000" opacity="1">4</text><text text-anchor="end" transform="translate(-7,698.3333333333334)" font-family="sans-serif" font-size="15px" fill="#000" opacity="1">6</text><text text-anchor="end" transform="translate(-7,662.7777777777777)" font-family="sans-serif" font-size="15px" fill="#000" opacity="1">8</text><text text-anchor="end" transform="translate(-7,627.2222222222223)" font-family="sans-serif" font-size="15px" fill="#000" opacity="1">10</text><text text-anchor="end" transform="translate(-7,591.6666666666667)" font-family="sans-serif" font-size="15px" fill="#000" opacity="1">12</text><text text-anchor="end" transform="translate(-7,556.1111111111111)" font-family="sans-serif" font-size="15px" fill="#000" opacity="1">14</text><text text-anchor="end" transform="translate(-7,520.5555555555555)" font-family="sans-serif" font-size="15px" fill="#000" opacity="1">16</text><text text-anchor="end" transform="translate(-7,485)" font-family="sans-serif" font-size="15px" fill="#000" opacity="1">18</text><text text-anchor="end" transform="translate(-7,449.44444444444446)" font-family="sans-serif" font-size="15px" fill="#000" opacity="1">20</text><text text-anchor="end" transform="translate(-7,413.88888888888886)" font-family="sans-serif" font-size="15px" fill="#000" opacity="1">22</text><text text-anchor="end" transform="translate(-7,378.3333333333333)" font-family="sans-serif" font-size="15px" fill="#000" opacity="1">24</text><text text-anchor="end" transform="translate(-7,342.7777777777778)" font-family="sans-serif" font-size="15px" fill="#000" opacity="1">26</text><text text-anchor="end" transform="translate(-7,307.22222222222223)" font-family="sans-serif" font-size="15px" fill="#000" opacity="1">28</text><text text-anchor="end" transform="translate(-7,271.6666666666667)" font-family="sans-serif" font-size="15px" fill="#000" opacity="1">30</text><text text-anchor="end" transform="translate(-7,236.1111111111111)" font-family="sans-serif" font-size="15px" fill="#000" opacity="1">32</text><text text-anchor="end" transform="translate(-7,200.55555555555557)" font-family="sans-serif" font-size="15px" fill="#000" opacity="1">34</text><text text-anchor="end" transform="translate(-7,164.99999999999997)" font-family="sans-serif" font-size="15px" fill="#000" opacity="1">36</text><text text-anchor="end" transform="translate(-7,129.44444444444446)" font-family="sans-serif" font-size="15px" fill="#000" opacity="1">38</text><text text-anchor="end" transform="translate(-7,93.88888888888893)" font-family="sans-serif" font-size="15px" fill="#000" opacity="1">40</text><text text-anchor="end" transform="translate(-7,58.33333333333332)" font-family="sans-serif" font-size="15px" fill="#000" opacity="1">42</text><text text-anchor="end" transform="translate(-7,22.777777777777803)" font-family="sans-serif" font-size="15px" fill="#000" opacity="1">44</text></g><g class="mark-rule role-axis-domain" pointer-events="none"><line transform="translate(0,800)" x2="0" y2="-800" stroke="#888" stroke-width="1" opacity="1"></line></g><g class="mark-text role-axis-title" pointer-events="none"><text text-anchor="middle" transform="translate(-27.6845703125,400) rotate(-90) translate(0,-4)" font-family="sans-serif" font-size="20px" font-weight="bold" fill="#000" opacity="1">Mortes a cada 100 mil habitantes</text></g></g><path class="foreground" aria-hidden="true" d="" pointer-events="none" display="none"></path></g></g><g class="mark-group role-scope layer_0_layer_0_pathgroup" role="graphics-object" aria-roledescription="group mark container"><g transform="translate(0,0)"><path class="background" aria-hidden="true" d="M0,0h650v800h-650Z"></path><g><g class="mark-line role-mark layer_0_layer_0_marks" role="graphics-symbol" aria-roledescription="line mark container"><path d="M0,789.921151911548L10,789.921151911548L20,787.9053822938577L30,787.9053822938577L40,783.8738430584768L50,783.8738430584768L60,783.8738430584768L70,779.842303823096L80,777.8265342054057L90,777.8265342054057L100,777.8265342054057L110,771.7792253523345L120,767.7476861169537L130,763.716146881573L140,761.7003772638825L150,761.7003772638825L160,755.6530684108113L170,749.6057595577402L180,743.558450704669L190,741.5426810869785L200,729.4480633808362L210,727.4322937631458L220,723.400754527765L230,719.3692152923843L240,717.3534456746938L250,711.3061368216227L260,697.1957494977898L270,695.1799798800995L280,689.1326710270283L290,685.1011317916475L300,681.0695925562667L310,675.0222837031956L320,664.9434356147436L330,652.8488179086013L340,648.8172786732205L350,642.7699698201493L360,638.7384305847685L370,624.6280432609357" stroke="#4c78a8" stroke-width="4" opacity="0.7"></path></g></g><path class="foreground" aria-hidden="true" d="" display="none"></path></g><g transform="translate(0,0)"><path class="background" aria-hidden="true" d="M0,0h650v800h-650Z"></path><g><g class="mark-line role-mark layer_0_layer_0_marks" role="graphics-symbol" aria-roledescription="line mark container"><path d="M0,797.3365483857768L10,797.3365483857768L20,796.2711677400877L30,794.6730967715538L40,792.0096451573306L50,790.4115741887967L60,789.8788838659522L70,789.3461935431075L80,788.2808128974182L90,785.617361283195L100,784.5519806375057L110,782.9539096689718L120,781.8885290232827L130,780.8231483775934L140,778.1596967633702L150,774.9635548263025L160,771.7674128892347L170,769.1039612750117L180,765.9078193379439L190,761.6462967551868L200,757.3847741724297L210,752.5905612668281L220,747.7963483612265L230,742.4694451327803L240,739.2733031957125L250,732.8810193215769L260,726.4887354474414L270,720.0964515733059L280,712.6387870534811L290,705.7138128565009L300,700.3869096280546L310,693.9946257539191L320,688.1350322026283L330,682.2754386513373L340,675.3504644543572L350,666.2947289659985L360,660.4351354147076L370,650.8467096035042L380,639.6602128237671" stroke="#f58518" stroke-width="4" opacity="0.7"></path></g></g><path class="foreground" aria-hidden="true" d="" display="none"></path></g><g transform="translate(0,0)"><path class="background" aria-hidden="true" d="M0,0h650v800h-650Z"></path><g><g class="mark-line role-mark layer_0_layer_0_marks" role="graphics-symbol" aria-roledescription="line mark container"><path d="M0,796.9974295584241L10,794.8527363858698L20,793.5659204823372L30,791.8501659442937L40,790.1344114062505L50,787.1318409646743L60,782.8424546195658L70,778.5530682744574L80,777.2662523709248L90,773.4058046603271L100,769.5453569497295L110,761.3955228940232L120,754.5325047418496L130,746.8116093206543L140,737.8038979959263L150,730.9408798437527L160,721.9331685190248L170,720.6463526154922L180,717.2148435394054L190,711.6386412907642L200,699.6283595244604L210,690.6206481997325L220,676.8946118953852L230,669.6026551087007L240,662.739636956527L250,649.4425392866906L260,637.003318885876L270,617.7010803328875L280,595.8252099728339L290,585.1017441100627L300,564.9416282880526L310,549.070898811151L320,521.6188262024565L330,477.86708548234935L340,454.2754605842525L350,425.10763343751455L360,387.36103360055944L370,369.3456109511036L380,356.04851328126716L390,329.02537930708337L400,302.43118396741056L410,270.26078637909654L420,229.08267746605463L430,210.20937754757708L440,193.90970943616477L450,185.33093674594764L460,160.45249594431814L470,130.42679152855854L480,105.11941209241814L490,84.10141900138638L500,51.93102141307237" stroke="#e45756" stroke-width="4" opacity="0.7"></path></g></g><path class="foreground" aria-hidden="true" d="" display="none"></path></g><g transform="translate(0,0)"><path class="background" aria-hidden="true" d="M0,0h650v800h-650Z"></path><g><g class="mark-line role-mark layer_0_layer_0_marks" role="graphics-symbol" aria-roledescription="line mark container"><path d="M0,789.4896972100007L10,789.4896972100007L20,787.3876366520008L30,785.2855760940009L40,785.2855760940009L50,778.9793944200014L60,778.9793944200014L70,778.9793944200014L80,776.8773338620016L90,772.6732127460019L100,772.6732127460019L110,770.571152188002L120,766.3670310720023L130,762.1629099560025L140,757.9587888400029L150,751.6526071660032L160,745.3464254920037L170,741.1423043760041L180,734.8361227020044L190,728.5299410280048L200,722.2237593540052L210,715.9175776800057L220,709.6113960060061L230,696.999032658007L240,684.3866693100078L250,682.284608752008L260,671.7743059620087L270,661.2640031720094L280,654.9578214980098L290,648.6516398240102L300,646.5495792660104L310,619.2227920120122L320,602.4063075480133L330,587.6918836420143L340,583.4877625260146L350,572.9774597360154L360,549.854793598017L370,533.0383091340182L380,514.1197641120193L390,501.5074007640202L400,482.5888557420215L410,469.9764923940224L420,469.9764923940224" stroke="#72b7b2" stroke-width="4" opacity="0.7"></path></g></g><path class="foreground" aria-hidden="true" d="" display="none"></path></g><g transform="translate(0,0)"><path class="background" aria-hidden="true" d="M0,0h650v800h-650Z"></path><g><g class="mark-line role-mark layer_0_layer_0_marks" role="graphics-symbol" aria-roledescription="line mark container"><path d="M0,799.282819823362L10,799.1632897939224L20,798.9242297350431L30,798.8046997056035L40,798.3265795878449L50,797.8484594700864L60,797.7289294406467L70,797.7289294406467L80,797.4898693817674L90,797.4898693817674L100,797.3703393523277L110,796.8922192345691L120,796.6531591756899L130,795.9359789990519L140,795.6969189401726L150,795.218798822414L160,794.6211486752159L170,794.3820886163365L180,794.262558586897L190,793.6649084396986L200,792.5891381747417L210,791.9914880275435L220,791.3938378803454L230,791.154777821466L240,790.0790075565092L250,788.8837072621127L260,788.0469970560351L270,787.3298168793973L280,786.0149865555611L290,785.2978063789232L300,784.7001562317249L310,783.1462658490095L320,782.5486157018113L330,780.8751952896563L340,780.2775451424579L350,778.1260046125443L360,776.5721142298289L370,775.854934053191L380,774.4205736999153L390,773.1057433760791L400,771.7909130522429L410,768.683132286812L420,766.4120617274588L430,765.8144115802605L440,764.7386413153037L450,762.7066308148296L460,761.0332104026746L470,756.7301293428472L480,755.0567089306921L490,752.3075182535802L500,750.6340978414252" stroke="#54a24b" stroke-width="4" opacity="0.7"></path></g></g><path class="foreground" aria-hidden="true" d="" display="none"></path></g><g transform="translate(0,0)"><path class="background" aria-hidden="true" d="M0,0h650v800h-650Z"></path><g><g class="mark-line role-mark layer_0_layer_0_marks" role="graphics-symbol" aria-roledescription="line mark container"><path d="M0,799.0266302052075L10,799.0266302052075L20,798.6372822872905L30,798.2479343693735L40,795.9118468618716L50,795.7171729029131L60,795.5224989439546L70,793.1864114364527L80,793.1864114364527L90,792.2130416416602L100,788.9035843393658L110,788.9035843393658L120,786.9568447497808L130,785.5941270370714L140,785.2047791191543L150,780.337930145192L160,778.391190555607L170,775.8604290891466L180,773.7190155406031L190,769.8255363614333L200,764.9586873874708L210,763.2066217568445L220,759.89716445455L230,756.9770550701725L240,753.4729238089196L250,747.2433571222477L260,742.9605300251609L270,736.5362893795306L280,726.8025914316057L290,722.7144382934773L300,718.8209591143075L310,712.3967184686771L320,704.2204121924203L330,695.070736121371L340,675.7980141844799L350,668.2057297850987L360,661.3921412215514L370,645.2342026279963L380,634.7218088442376L390,624.2094150604787L400,605.9100629183802L410,593.256255586078L420,583.1332097202362L430,568.5326627983491L440,550.817332533126L450,529.5978710066499L460,524.9256959916462L470,495.14058027099634L480,485.7962302409886L490,480.54003334910914L500,459.70991974055016L510,438.6851321730327L520,430.119477978859L530,379.3095746906917L540,361.7889183844271L550,350.6925027237928" stroke="#eeca3b" stroke-width="4" opacity="0.7"></path></g></g><path class="foreground" aria-hidden="true" d="" display="none"></path></g><g transform="translate(0,0)"><path class="background" aria-hidden="true" d="M0,0h650v800h-650Z"></path><g><g class="mark-line role-mark layer_0_layer_0_marks" role="graphics-symbol" aria-roledescription="line mark container"><path d="M0,797.0520401871777L10,796.4624482246134L20,795.8728562620489L30,795.8728562620489L40,794.1040803743556L50,792.9248964492266L60,792.9248964492266L70,792.3353044866622L80,791.7457125240977L90,791.7457125240977L100,791.7457125240977L110,791.1561205615333L120,789.9769366364044L130,789.9769366364044L140,788.2081607487111L150,785.8497928984533L160,785.8497928984533L170,785.8497928984533L180,785.8497928984533L190,785.8497928984533L200,785.2602009358887L210,784.6706089733243L220,784.6706089733243L230,784.08101701076L240,784.08101701076L250,783.4914250481954L260,783.4914250481954L270,783.4914250481954L280,782.3122411230665L290,781.7226491605021L300,781.1330571979377L310,780.5434652353732L320,780.5434652353732L330,779.9538732728088L340,779.3642813102443L350,779.3642813102443L360,778.1850973851153L370,777.0059134599866L380,775.2371375722932L390,774.0579536471643L400,772.8787697220354L410,771.6995857969065L420,769.9308099092132L430,767.5724420589554L440,766.982850096391L450,765.803666171262L460,761.0869304707464L470,757.5493786953597L480,754.011826919973L490,750.4742751445864L500,746.9367233691996L510,743.9887635563774" stroke="#b279a2" stroke-width="4" opacity="0.7"></path></g></g><path class="foreground" aria-hidden="true" d="" display="none"></path></g><g transform="translate(0,0)"><path class="background" aria-hidden="true" d="M0,0h650v800h-650Z"></path><g><g class="mark-line role-mark layer_0_layer_0_marks" role="graphics-symbol" aria-roledescription="line mark container"><path d="M0,797.7880908044023L10,797.3457089652827L20,797.3457089652827L30,797.3457089652827L40,797.3457089652827L50,797.3457089652827L60,796.9033271261632L70,796.4609452870436L80,796.0185634479241L90,793.8066542523263L100,792.4795087349677L110,792.037126895848L120,790.7099813784894L130,787.6133085046527L140,787.6133085046527L150,786.7285448264136L160,784.9590174699352L170,784.9590174699352L180,784.9590174699352L190,783.6318719525766L200,780.9775809178593L210,779.2080535613811L220,776.9961443657835L230,774.7842351701856L240,772.1299441354683L250,765.9365983877947L260,762.8399255139578L270,758.8584889618819L280,755.3194342489255L290,753.9922887315669L300,749.1260885012518L310,745.5870337882955L320,741.1632153970999L330,735.4122514885457L340,730.5460512582307L350,727.0069965452743L360,723.9103236714375L370,719.9288871193615L380,713.2931595325683L390,706.2150501066554L400,696.9250314851449L410,689.8469220592322L420,684.9807218289172L430,680.114521598602L440,673.9211758509284L450,666.400684585896L460,656.2259022861464L470,646.9358836646359L480,639.4153923996035L490,624.3744098695388L500,615.5267730871478" stroke="#ff9da6" stroke-width="4" opacity="0.7"></path></g></g><path class="foreground" aria-hidden="true" d="" display="none"></path></g><g transform="translate(0,0)"><path class="background" aria-hidden="true" d="M0,0h650v800h-650Z"></path><g><g class="mark-line role-mark layer_0_layer_0_marks" role="graphics-symbol" aria-roledescription="line mark container"><path d="M0,798.7334795467871L10,798.7334795467871L20,798.2268713655019L30,798.2268713655019L40,797.9735672748593L50,797.4669590935741L60,796.4537427310037L70,796.2004386403612L80,796.2004386403612L90,796.2004386403612L100,795.9471345497186L110,795.9471345497186L120,795.4405263684334L130,795.4405263684334L140,795.1872222777909L150,795.1872222777909L160,794.6806140965056L170,794.1740059152204L180,793.9207018245779L190,793.6673977339352L200,793.6673977339352L210,793.4140936432927L220,793.16078955265L230,793.16078955265L240,792.6541813713649L250,792.6541813713649L260,792.4008772807223L270,792.4008772807223L280,792.4008772807223L290,790.3744445555816L300,788.6013159210835L310,788.8546200117261L320,787.5880995585131L330,788.0947077397983L340,788.0947077397983L350,787.5880995585131L360,786.8281872865854L370,784.5484504708021L380,783.0286259269466L390,783.0286259269466L400,782.5220177456614L410,782.2687136550187L420,781.508801383091L430,781.508801383091L440,780.2422809298781L450,778.4691522953799L460,775.936111388954L470,775.936111388954" stroke="#9d755d" stroke-width="4" opacity="0.7"></path></g></g><path class="foreground" aria-hidden="true" d="" display="none"></path></g><g transform="translate(0,0)"><path class="background" aria-hidden="true" d="M0,0h650v800h-650Z"></path><g><g class="mark-line role-mark layer_0_layer_0_marks" role="graphics-symbol" aria-roledescription="line mark container"><path d="M0,797.2360345897079L10,796.9847650069541L20,795.9796866759389L30,794.7233387621698L40,793.9695300139082L50,793.2157212656467L60,791.9593733518776L70,791.45683418637L80,790.7030254381086L90,789.949216689847L100,788.9441383588318L110,787.9390600278165L120,786.4314425312936L130,784.9238250347706L140,783.4162075382476L150,780.9035117107095L160,777.8882767176635L170,774.8730417246177L180,771.8578067315718L190,768.5913021557722L200,763.5659105006956L210,758.2892492628654L220,753.7663967732965L230,748.7410051182201L240,743.7156134631435L250,740.4491088873439L260,737.433873894298L270,731.905943073714L280,726.8805514186374L290,723.3627772600839L300,717.0810376912383L310,710.7992981223928L320,704.7688281363011L330,699.7434364812245L340,693.7129664951327L350,688.4363052573025L360,681.9032961057031L370,675.3702869541037L380,668.3347386369967L390,662.052999068151L400,655.2687203337978L410,648.2331720166908L420,640.6950845340762L430,633.4082666342151L440,625.8701791516005L450,618.5833612517397L460,610.5427346036173" stroke="#bab0ac" stroke-width="4" opacity="0.7"></path></g></g><path class="foreground" aria-hidden="true" d="" display="none"></path></g><g transform="translate(0,0)"><path class="background" aria-hidden="true" d="M0,0h650v800h-650Z"></path><g><g class="mark-line role-mark layer_0_layer_0_marks" role="graphics-symbol" aria-roledescription="line mark container"><path d="M0,799.4961135632798L10,799.4961135632798L20,799.4961135632798L30,799.2441703449196L40,799.0762081993461L50,798.824264980986L60,798.7402839081992L70,798.5723217626258L80,798.5723217626258L90,798.3203785442657L100,798.0684353259055L110,797.7325110347587L120,797.4805678163985L130,797.2286245980384L140,797.060662452465L150,796.7247381613181L160,796.7247381613181L170,796.5567760157446L180,796.3048327973845L190,796.0528895790244L200,795.7169652878774L210,795.4650220695173L220,795.1290977783705L230,794.8771545600104L240,794.7931734872236L250,794.0373438321432L260,793.2815141770627L270,793.1135520314892L280,792.609665594769L290,792.609665594769L300,792.5256845219823L310,792.4417034491956L320,792.1057791580487L330,791.8538359396886L340,791.0980062846081L350,790.6781009206745L360,790.0902334111676L370,790.0062523383808L380,789.8382901928073L390,789.3344037560871L400,788.6625551737933L410,788.3266308826464L420,787.7387633731395L430,787.4028390819926L440,786.8989526452723L450,786.4790472813388L460,785.9751608446185L470,785.1353501167513L480,783.9596150977372L490,783.1198043698702L500,781.7761072052826" stroke="#4c78a8" stroke-width="4" opacity="0.7"></path></g></g><path class="foreground" aria-hidden="true" d="" display="none"></path></g><g transform="translate(0,0)"><path class="background" aria-hidden="true" d="M0,0h650v800h-650Z"></path><g><g class="mark-line role-mark layer_0_layer_0_marks" role="graphics-symbol" aria-roledescription="line mark container"><path d="M0,796.8013912668546L10,796.8013912668546L20,796.8013912668546L30,796.8013912668546L40,796.8013912668546L50,796.1616695202255L60,796.1616695202255L70,795.5219477735964L80,795.5219477735964L90,795.5219477735964L100,795.5219477735964L110,794.2425042803383L120,794.2425042803383L130,794.2425042803383L140,794.2425042803383L150,794.2425042803383L160,794.2425042803383L170,793.6027825337092L180,793.6027825337092L190,793.6027825337092L200,793.6027825337092L210,793.6027825337092L220,792.96306078708L230,792.96306078708L240,792.96306078708L250,792.96306078708L260,792.323339040451L270,791.6836172938218L280,791.0438955471928L290,791.0438955471928L300,790.4041738005637L310,790.4041738005637L320,789.7644520539346L330,789.7644520539346L340,789.1247303073055L350,789.1247303073055L360,789.1247303073055L370,789.1247303073055" stroke="#f58518" stroke-width="4" opacity="0.7"></path></g></g><path class="foreground" aria-hidden="true" d="" display="none"></path></g><g transform="translate(0,0)"><path class="background" aria-hidden="true" d="M0,0h650v800h-650Z"></path><g><g class="mark-line role-mark layer_0_layer_0_marks" role="graphics-symbol" aria-roledescription="line mark container"><path d="M0,797.4489953729241L10,797.4489953729241L20,797.4489953729241L30,797.4489953729241L40,796.9387944475088L50,796.9387944475088L60,796.9387944475088L70,796.4285935220937L80,795.9183925966785L90,795.4081916712632L100,795.4081916712632L110,794.897990745848L120,794.3877898204329L130,794.3877898204329L140,794.3877898204329L150,794.3877898204329L160,793.8775888950178L170,793.8775888950178L180,793.3673879696025L190,793.3673879696025L200,793.3673879696025L210,792.8571870441873L220,792.3469861187721L230,791.836785193357L240,790.8163833425265L250,790.3061824171112L260,789.7959814916961L270,789.285780566281L280,787.7551777900353L290,786.734775939205L300,786.2245750137898L310,786.2245750137898L320,784.6939722375442L330,783.6735703867138L340,783.6735703867138L350,782.6531685358834L360,781.1225657596378L370,781.1225657596378" stroke="#e45756" stroke-width="4" opacity="0.7"></path></g></g><path class="foreground" aria-hidden="true" d="" display="none"></path></g><g transform="translate(0,0)"><path class="background" aria-hidden="true" d="M0,0h650v800h-650Z"></path><g><g class="mark-line role-mark layer_0_layer_0_marks" role="graphics-symbol" aria-roledescription="line mark container"><path d="M0,798.9667524843306L10,798.9667524843306L20,798.7601029811967L30,798.5534534780629L40,798.1401544717952L50,797.7268554655274L60,797.1069069561258L70,797.1069069561258L80,795.6603604341888L90,795.6603604341888L100,794.6271129185194L110,793.3872158997161L120,793.1805663965822L130,792.9739168934484L140,792.7672673903145L150,792.1473188809128L160,791.1140713652435L170,789.0475763339048L180,782.228142730487L190,780.3682972022822L200,776.4419566427387L210,774.7887606176677L220,772.722265586329L230,767.762677511116L240,753.7105112980126L250,745.6511806757917L260,736.7652520410352L270,734.4921075065625L280,728.912570921948L290,722.506436324798L300,715.2737037151124L310,699.1550424706704L320,681.3831852011574L330,673.9438030883381L340,661.1315338940381L350,632.200603455296L360,611.122354135641L370,588.8042077971828L380,573.7187940684101L390,557.1868338177004L400,547.2676576672745L410,535.4886359886438L420,512.3438916376502L430,512.3438916376502L440,432.57718342797557L450,408.8124905675803L460,386.08104522285436L470,355.7035682621753" stroke="#72b7b2" stroke-width="4" opacity="0.7"></path></g></g><path class="foreground" aria-hidden="true" d="" display="none"></path></g><g transform="translate(0,0)"><path class="background" aria-hidden="true" d="M0,0h650v800h-650Z"></path><g><g class="mark-line role-mark layer_0_layer_0_marks" role="graphics-symbol" aria-roledescription="line mark container"><path d="M0,796.9029240627674L10,795.1331663843488L20,795.1331663843488L30,794.2482875451395L40,794.2482875451395L50,792.9209692863255L60,790.7087721883023L70,789.3814539294884L80,788.4965750902791L90,787.6116962510697L100,787.1692568314651L110,785.8419385726512L120,785.3994991530465L130,782.7448626354186L140,782.302423215814L150,780.5326655373954L160,779.6477866981861L170,778.3204684393721L180,777.8780290197674L190,776.5507107609535L200,774.7809530825349L210,772.5687559845117L220,770.3565588864884L230,767.2594829492558L240,766.3746041100464L250,765.0472858512326L260,762.3926493336047L270,759.2955733963721L280,755.3136186199303L290,750.8892244238838L300,749.5619061650698L310,745.1375119690232L320,740.2706783533721L330,738.5009206749535L340,731.8643293808838L350,730.5370111220698L360,729.2096928632558L370,724.7852986672093L380,719.0335862123488L390,714.1667525966976L400,708.4150401418373L410,703.1057671065814L420,698.2389334909302L430,691.6023421968605L440,690.2750239380465L450,685.850629742" stroke="#54a24b" stroke-width="4" opacity="0.7"></path></g></g><path class="foreground" aria-hidden="true" d="" display="none"></path></g><g transform="translate(0,0)"><path class="background" aria-hidden="true" d="M0,0h650v800h-650Z"></path><g><g class="mark-line role-mark layer_0_layer_0_marks" role="graphics-symbol" aria-roledescription="line mark container"><path d="M0,799.0699149468609L10,799.0699149468609L20,798.8838979362331L30,798.8838979362331L40,798.5118639149775L50,798.3258469043496L60,798.1398298937219L70,797.3957618512106L80,796.0936427768158L90,794.4194896811656L100,793.6754216386543L110,791.4432175111206L120,789.5830474048423L130,787.9088943091921L140,786.6067752347974L150,784.1885540966357L160,781.0262649159629L170,778.6080437778013L180,773.3995674802225L190,770.2372782995496L200,765.4008360232265L210,761.866512821298L220,759.8203257043921L230,756.4720195130915L240,751.6355772367683L250,747.5432030029564L260,741.9626926841219L270,734.5220122590093L280,729.1275189508027L290,722.802940589457L300,716.2923452174834L310,705.5033586010702L320,699.9228482822358L330,694.9003889952849L340,687.8317425914279L350,683.1813173257325L360,678.716909070665L370,671.4622456561802L380,660.6732590397669L390,650.628340465865L400,642.8156260194967L410,627.5622311480159L420,619.1914656697643L430,605.2401898726782L440,597.7995094475657L450,584.7783187036187L460,572.3151789915551L470,558.5499202050968L480,543.1105083229883L490,528.2291474727631L500,517.9982118882332L510,494.9321025703842L520,476.1443844969749L530,458.84480250858815L540,441.9172545414571L550,417.36300913858554L560,401.17952921396574" stroke="#eeca3b" stroke-width="4" opacity="0.7"></path></g></g><path class="foreground" aria-hidden="true" d="" display="none"></path></g><g transform="translate(0,0)"><path class="background" aria-hidden="true" d="M0,0h650v800h-650Z"></path><g><g class="mark-line role-mark layer_0_layer_0_marks" role="graphics-symbol" aria-roledescription="line mark container"><path d="M0,797.2843652796189L10,796.7412383355427L20,796.1981113914665L30,796.1981113914665L40,796.1981113914665L50,796.1981113914665L60,795.6549844473902L70,795.6549844473902L80,795.6549844473902L90,795.6549844473902L100,795.111857503314L110,794.5687305592378L120,793.4824766710854L130,792.3962227829329L140,791.8530958388567L150,791.8530958388567L160,791.3099688947805L170,790.7668419507042L180,790.223715006628L190,789.1374611184756L200,788.5943341743994L210,786.9649533421707L220,786.9649533421707L230,786.9649533421707L240,785.8786994540183L250,784.7924455658658L260,784.7924455658658L270,784.2493186217896L280,783.7061916777134L290,780.9905569573323L300,779.9043030691797L310,779.3611761251036L320,777.1886683487987L330,775.55928751657L340,773.3867797402652L350,769.0417641876554L360,767.4123833554268L370,767.4123833554268L380,764.6967486350457L390,760.8948600265121L400,756.5498444739023L410,753.8342097535212L420,752.7479558653687L430,750.5754480890639L440,749.4891942009115L450,746.2304325364541L460,741.8854169838444" stroke="#b279a2" stroke-width="4" opacity="0.7"></path></g></g><path class="foreground" aria-hidden="true" d="" display="none"></path></g><g transform="translate(0,0)"><path class="background" aria-hidden="true" d="M0,0h650v800h-650Z"></path><g><g class="mark-line role-mark layer_0_layer_0_marks" role="graphics-symbol" aria-roledescription="line mark container"><path d="M0,799.2225885676421L10,798.911623994699L20,798.4451771352841L30,797.8232479893978L40,797.6677657029262L50,797.3568011299831L60,796.268425124682L70,795.9574605517388L80,795.8019782652673L90,795.1800491193809L100,794.8690845464376L110,793.9361908276081L120,793.6252262546651L130,793.3142616817219L140,793.1587793952503L150,792.3813679628923L160,791.9149211034776L170,791.759438817006L180,791.4484742440629L190,790.6710628117049L200,790.3600982387618L210,789.5826868064039L220,788.9607576605175L230,788.3388285146312L240,788.027863941688L250,787.7168993687449L260,786.939487936387L270,786.3175587905006L280,785.6956296446142L290,785.5401473581426L300,785.0737004987278L310,784.9182182122563L320,784.1408067798984L330,783.8298422069553L340,783.3633953475404L350,783.0524307745973L360,782.8969484881256L370,782.5859839151826L380,782.2750193422394L390,781.9640547692961L400,781.3421256234099L410,781.0311610504667L420,780.7201964775236L430,780.4092319045803L440,780.2537496181087L450,779.787302758694L460,779.3208558992792L470,778.2324798939782L480,777.6105507480919L490,776.8331393157339L500,776.2112101698475" stroke="#ff9da6" stroke-width="4" opacity="0.7"></path></g></g><path class="foreground" aria-hidden="true" d="" display="none"></path></g><g transform="translate(0,0)"><path class="background" aria-hidden="true" d="M0,0h650v800h-650Z"></path><g><g class="mark-line role-mark layer_0_layer_0_marks" role="graphics-symbol" aria-roledescription="line mark container"><path d="M0,799.3821777073538L10,799.1762369431384L20,799.0732665610307L30,798.9702961789229L40,798.6613850325998L50,798.249503504169L60,798.1465331220613L70,797.6316812115227L80,797.1168293009841L90,795.778214333584L100,795.1603920409377L110,794.027717837753L120,793.4098955451067L130,792.6891028703528L140,790.835635992414L150,789.0851394965831L160,787.4376133828598L170,784.8633538301672L180,784.0395907733055L190,782.4950350416898L200,781.2593904563973L210,776.9346344078737L220,772.7128487414577L230,769.0059149855803L240,764.887099701272L250,760.1504621243174L260,758.6059063927019L270,756.5464987505477L280,752.5306538483471L290,749.5445127672236L300,745.4256974829154L310,741.3068821986071L320,736.6732150037603L330,733.5841035405291L340,730.2890513130825L350,724.0078580045124L360,718.2415166064808L370,712.0632936800183L380,705.164278078802L390,700.0157589734167L400,695.0731806322468L410,690.3365430552922L420,684.3642608930453L430,675.9206895602133L440,656.4592873418567L450,645.2355156921167L460,629.7899583759606L470,623.5087650673906L480,617.7424236693589L490,601.4731032963413L500,588.9107166792011L510,568.6255514039829L520,548.9582084214109L530,530.8354211704545L540,520.435412577576L550,506.3284702288202L560,482.9541934903708L570,466.68487311735305L580,448.6650562485044L590,423.43731263211623L600,397.90065786940494" stroke="#9d755d" stroke-width="4" opacity="0.7"></path></g></g><path class="foreground" aria-hidden="true" d="" display="none"></path></g><g transform="translate(0,0)"><path class="background" aria-hidden="true" d="M0,0h650v800h-650Z"></path><g><g class="mark-line role-mark layer_0_layer_0_marks" role="graphics-symbol" aria-roledescription="line mark container"><path d="M0,796.9583365294562L10,796.451392617699L20,796.451392617699L30,795.9444487059417L40,794.4236169706699L50,794.4236169706699L60,794.4236169706699L70,793.4097291471553L80,791.3819535001261L90,790.8750095883688L100,790.3680656766115L110,789.8611217648543L120,788.3402900295824L130,787.833346117825L140,786.8194582943105L150,786.3125143825532L160,785.8055704707959L170,785.2986265590387L180,782.7639070002523L190,780.7361313532231L200,779.7222435297085L210,777.6944678826793L220,777.1875239709221L230,775.6666922356502L240,772.6250287651065L250,771.611140941592L260,771.611140941592L270,770.0903092063201L280,769.0764213828055L290,768.5694774710482L300,765.5278140005045L310,763.5000383534754L320,761.4722627064463L330,758.9375431476597L340,755.895879677116L350,755.895879677116L360,755.895879677116L370,752.8542162065723L380,746.7708892654849L390,740.6875623243974L400,738.152842765611L410,738.152842765611L420,731.0556280010089L430,729.5347962657371L440,718.8889741188341L450,713.8195350012612L460,709.7639837072029L470,708.243151971931L480,706.7223202366591L490,706.7223202366591" stroke="#bab0ac" stroke-width="4" opacity="0.7"></path></g></g><path class="foreground" aria-hidden="true" d="" display="none"></path></g><g transform="translate(0,0)"><path class="background" aria-hidden="true" d="M0,0h650v800h-650Z"></path><g><g class="mark-line role-mark layer_0_layer_0_marks" role="graphics-symbol" aria-roledescription="line mark container"><path d="M0,794.998444828939L10,794.998444828939L20,794.998444828939L30,793.9981337947268L40,792.9978227605145L50,789.996889657878L60,789.996889657878L70,788.9965786236658L80,784.995334486817L90,783.9950234526049L100,781.9944013841804L110,776.9928462131194L120,775.9925351789071L130,774.992224144695L140,770.9909800078461L150,766.9897358709974L160,762.9884917341486L170,760.9878696657242L180,758.9872475972998L190,756.9866255288754L200,752.9853813920265L210,749.98444828939L220,749.98444828939L230,743.9825820841169L240,737.9807158788436L250,730.9785386393581L260,725.9769834682972L270,716.9741841603874L280,711.9726289893264L290,709.9720069209019L300,709.9720069209019L310,693.9670303735068L320,684.964231065597" stroke="#4c78a8" stroke-width="4" opacity="0.7"></path></g></g><path class="foreground" aria-hidden="true" d="" display="none"></path></g><g transform="translate(0,0)"><path class="background" aria-hidden="true" d="M0,0h650v800h-650Z"></path><g><g class="mark-line role-mark layer_0_layer_0_marks" role="graphics-symbol" aria-roledescription="line mark container"><path d="M0,779.456510992876L10,779.456510992876L20,779.456510992876L30,779.456510992876L40,767.7173744173766L50,767.7173744173766L60,761.8478061296269L70,758.9130219857519L80,753.0434536980023L90,747.1738854102525L100,738.369532978628L110,729.5651805470034L120,717.826043971504L130,714.8912598276291L140,691.4129866766302L150,682.6086342450056L160,656.195576950132L170,650.3260086623822L180,623.9129513675085L190,612.1738147920091L200,612.1738147920091L210,612.1738147920091L220,588.6955416410102L230,588.6955416410102" stroke="#f58518" stroke-width="4" opacity="0.7"></path></g></g><path class="foreground" aria-hidden="true" d="" display="none"></path></g><g transform="translate(0,0)"><path class="background" aria-hidden="true" d="M0,0h650v800h-650Z"></path><g><g class="mark-line role-mark layer_0_layer_0_marks" role="graphics-symbol" aria-roledescription="line mark container"><path d="M0,799.2187130033141L10,799.2187130033141L20,799.0624556039768L30,798.9061982046396L40,798.9061982046396L50,798.7499408053023L60,798.7499408053023L70,798.4374260066279L80,797.8123964092791L90,797.656139009942L100,797.4998816106048L110,797.4998816106048L120,797.3436242112676L130,797.1873668119304L140,797.0311094125932L150,796.7185946139188L160,796.2498224159071L170,796.2498224159071L180,795.9373076172327L190,795.7810502178955L200,795.7810502178955L210,795.6247928185584L220,795.4685354192212L230,794.6872484225352L240,794.530991023198L250,794.0622188251863L260,792.968417029826L270,792.3433874324771L280,792.0308726338027L290,790.9370708384423L300,790.3120412410935L310,789.8432690430819L320,789.5307542444075L330,788.1244376503728L340,787.0306358550123L350,785.9368340596519L360,785.7805766603148L370,785.1555470629659L380,784.8430322642914L390,784.3742600662799L400,783.5929730695939L410,782.6554286735707L420,781.249112079536L430,780.3115676835126L440,779.3740232874895L450,778.4364788914662L460,777.4989344954431L470,776.4051327000826L480,774.9988161060478L490,774.8425587067106L500,774.0612717100246L510,773.1237273140014L520,772.4986977166526" stroke="#e45756" stroke-width="4" opacity="0.7"></path></g></g><path class="foreground" aria-hidden="true" d="" display="none"></path></g><g transform="translate(0,0)"><path class="background" aria-hidden="true" d="M0,0h650v800h-650Z"></path><g><g class="mark-line role-mark layer_0_layer_0_marks" role="graphics-symbol" aria-roledescription="line mark container"><path d="M0,798.759364702921L10,798.759364702921L20,797.5187294058418L30,797.5187294058418L40,797.2706023464259L50,796.2780941087627L60,795.781839989931L70,795.5337129305152L80,795.5337129305152L90,794.7893317522677L100,794.0449505740203L110,793.5486964551885L120,793.0524423363569L130,792.8043152769411L140,792.5561882175253L150,792.3080611581095L160,792.0599340986937L170,791.3155529204462L180,791.3155529204462L190,790.8192988016145L200,790.3230446827829L210,789.5786635045354L220,789.5786635045354L230,789.5786635045354L240,789.3305364451196L250,789.0824093857038L260,789.0824093857038L270,788.5861552668722L280,788.0899011480404L290,787.5936470292088L300,787.0973929103772L310,787.0973929103772L320,786.3530117321297L330,785.6086305538822L340,785.3605034944665L350,784.3679952568032L360,784.3679952568032L370,784.1198681973873L380,783.8717411379715L390,782.8792329003081L400,781.886724662645L410,781.886724662645L420,780.6460893655658L430,780.3979623061499L440,779.9017081873183L450,779.4054540684866L460,778.9091999496551L470,777.42043759316L480,776.6760564149126L490,775.6835481772492L500,775.1872940584176L510,774.4429128801702" stroke="#72b7b2" stroke-width="4" opacity="0.7"></path></g></g><path class="foreground" aria-hidden="true" d="" display="none"></path></g><g transform="translate(0,0)"><path class="background" aria-hidden="true" d="M0,0h650v800h-650Z"></path><g><g class="mark-line role-mark layer_0_layer_0_marks" role="graphics-symbol" aria-roledescription="line mark container"><path d="M0,796.1330733211835L10,796.1330733211835L20,796.1330733211835L30,794.5863026496569L40,794.5863026496569L50,793.8129173138935L60,793.8129173138935L70,793.0395319781302L80,793.0395319781302L90,791.4927613066036L100,791.4927613066036L110,791.4927613066036L120,789.1726052993137L130,789.1726052993137L140,789.1726052993137L150,789.1726052993137L160,786.8524492920237L170,783.7589079489705L180,782.2121372774438L190,780.6653666059173L200,778.3452105986273L210,774.4782839198107L220,773.7048985840474L230,771.3847425767575L240,771.3847425767575L250,767.517815897941L260,763.6508892191245L270,761.3307332118345L280,759.0105772045446L290,755.9170358614913L300,754.3702651899647L310,751.2767238469115L320,746.6364118323316L330,741.2227144819884L340,736.5824024674085L350,733.4888611243553" stroke="#54a24b" stroke-width="4" opacity="0.7"></path></g></g><path class="foreground" aria-hidden="true" d="" display="none"></path></g><g transform="translate(0,0)"><path class="background" aria-hidden="true" d="M0,0h650v800h-650Z"></path><g><g class="mark-line role-mark layer_0_layer_0_marks" role="graphics-symbol" aria-roledescription="line mark container"><path d="M0,799.8064226267211L10,799.6515607280978L20,799.419267880163L30,799.1482595575725L40,798.8385357603261L50,798.4513810137681L60,798.1416572165218L70,797.7545024699638L80,797.3673477234058L90,796.7479001289131L100,796.2058834837319L110,795.625151363895L120,794.7346954468117L130,793.6506621564494L140,792.7214907647102L150,791.5213110503805L160,789.9339765894929L170,789.353244469656L180,788.2304957046379L190,785.6365589026994L200,783.4297768473191L210,780.7971245707249L220,779.0936436858699L230,778.3193341927539L240,777.2353009023916L250,776.4609914092757L260,773.0927451142214L270,769.8793607177903L280,766.9757001186056L290,764.0720395194209L300,761.6329646161057L310,760.7037932243666L320,759.852052781939L330,757.6839862012145L340,756.0966517403267L350,747.9276865879538L360,741.4622023204357L370,735.4613037487871L380,734.1836930851459L390,729.3442587531714L400,720.671992430273L410,713.0063284484253L420,708.0507476924832L430,702.7854431392949L440,699.8817825401103L450,698.2944480792225L460,697.2491302635161L470,689.6221817563242L480,682.1113796730996L490,675.8781882535164L500,667.747938575799L510,660.3145674418862L520,656.4043045016508L530,655.0879783633537L540,647.1125905842596L550,640.56967536743L560,632.9427268602382L570,625.7416485742599L580,618.501854813626L590,614.8626001959811L600,613.2752657350934L610,600.7314519466154L620,592.3689094209633L630,584.8193918630831L640,576.4955648120867L650,565.9649557057102" stroke="#eeca3b" stroke-width="4" opacity="0.7"></path></g></g><path class="foreground" aria-hidden="true" d="" display="none"></path></g><g transform="translate(0,0)"><path class="background" aria-hidden="true" d="M0,0h650v800h-650Z"></path><g><g class="mark-line role-mark layer_0_layer_0_marks" role="graphics-symbol" aria-roledescription="line mark container"><path d="M0,793.2183245955684L10,792.0880453614965L20,789.8274868933527L30,789.8274868933527L40,789.8274868933527L50,789.8274868933527L60,787.5669284252087L70,786.4366491911369L80,784.176090722993L90,776.2641360844895L100,774.0035776163456L110,772.8732983822737L120,769.4824606800579L130,769.4824606800579L140,763.8310645096983L150,757.0493891052668L160,752.528272168979L170,746.8768759986194L180,744.6163175304755L190,742.3557590623316L200,742.3557590623316" stroke="#b279a2" stroke-width="4" opacity="0.7"></path></g></g><path class="foreground" aria-hidden="true" d="" display="none"></path></g></g><g class="mark-group role-scope layer_0_layer_1_pathgroup" role="graphics-object" aria-roledescription="group mark container"><g transform="translate(0,0)"><path class="background" aria-hidden="true" d="M0,0h650v800h-650Z"></path><g><g class="mark-line role-mark layer_0_layer_1_marks" role="graphics-symbol" aria-roledescription="line mark container" pointer-events="none"><path d="M0,789.921151911548L10,789.921151911548L20,787.9053822938577L30,787.9053822938577L40,783.8738430584768L50,783.8738430584768L60,783.8738430584768L70,779.842303823096L80,777.8265342054057L90,777.8265342054057L100,777.8265342054057L110,771.7792253523345L120,767.7476861169537L130,763.716146881573L140,761.7003772638825L150,761.7003772638825L160,755.6530684108113L170,749.6057595577402L180,743.558450704669L190,741.5426810869785L200,729.4480633808362L210,727.4322937631458L220,723.400754527765L230,719.3692152923843L240,717.3534456746938L250,711.3061368216227L260,697.1957494977898L270,695.1799798800995L280,689.1326710270283L290,685.1011317916475L300,681.0695925562667L310,675.0222837031956L320,664.9434356147436L330,652.8488179086013L340,648.8172786732205L350,642.7699698201493L360,638.7384305847685L370,624.6280432609357" stroke="#4c78a8" stroke-width="4" opacity="0.5"></path></g></g><path class="foreground" aria-hidden="true" d="" display="none"></path></g><g transform="translate(0,0)"><path class="background" aria-hidden="true" d="M0,0h650v800h-650Z"></path><g><g class="mark-line role-mark layer_0_layer_1_marks" role="graphics-symbol" aria-roledescription="line mark container" pointer-events="none"><path d="M0,797.3365483857768L10,797.3365483857768L20,796.2711677400877L30,794.6730967715538L40,792.0096451573306L50,790.4115741887967L60,789.8788838659522L70,789.3461935431075L80,788.2808128974182L90,785.617361283195L100,784.5519806375057L110,782.9539096689718L120,781.8885290232827L130,780.8231483775934L140,778.1596967633702L150,774.9635548263025L160,771.7674128892347L170,769.1039612750117L180,765.9078193379439L190,761.6462967551868L200,757.3847741724297L210,752.5905612668281L220,747.7963483612265L230,742.4694451327803L240,739.2733031957125L250,732.8810193215769L260,726.4887354474414L270,720.0964515733059L280,712.6387870534811L290,705.7138128565009L300,700.3869096280546L310,693.9946257539191L320,688.1350322026283L330,682.2754386513373L340,675.3504644543572L350,666.2947289659985L360,660.4351354147076L370,650.8467096035042L380,639.6602128237671" stroke="#f58518" stroke-width="4" opacity="0.5"></path></g></g><path class="foreground" aria-hidden="true" d="" display="none"></path></g><g transform="translate(0,0)"><path class="background" aria-hidden="true" d="M0,0h650v800h-650Z"></path><g><g class="mark-line role-mark layer_0_layer_1_marks" role="graphics-symbol" aria-roledescription="line mark container" pointer-events="none"><path d="M0,796.9974295584241L10,794.8527363858698L20,793.5659204823372L30,791.8501659442937L40,790.1344114062505L50,787.1318409646743L60,782.8424546195658L70,778.5530682744574L80,777.2662523709248L90,773.4058046603271L100,769.5453569497295L110,761.3955228940232L120,754.5325047418496L130,746.8116093206543L140,737.8038979959263L150,730.9408798437527L160,721.9331685190248L170,720.6463526154922L180,717.2148435394054L190,711.6386412907642L200,699.6283595244604L210,690.6206481997325L220,676.8946118953852L230,669.6026551087007L240,662.739636956527L250,649.4425392866906L260,637.003318885876L270,617.7010803328875L280,595.8252099728339L290,585.1017441100627L300,564.9416282880526L310,549.070898811151L320,521.6188262024565L330,477.86708548234935L340,454.2754605842525L350,425.10763343751455L360,387.36103360055944L370,369.3456109511036L380,356.04851328126716L390,329.02537930708337L400,302.43118396741056L410,270.26078637909654L420,229.08267746605463L430,210.20937754757708L440,193.90970943616477L450,185.33093674594764L460,160.45249594431814L470,130.42679152855854L480,105.11941209241814L490,84.10141900138638L500,51.93102141307237" stroke="#e45756" stroke-width="4" opacity="0.5"></path></g></g><path class="foreground" aria-hidden="true" d="" display="none"></path></g><g transform="translate(0,0)"><path class="background" aria-hidden="true" d="M0,0h650v800h-650Z"></path><g><g class="mark-line role-mark layer_0_layer_1_marks" role="graphics-symbol" aria-roledescription="line mark container" pointer-events="none"><path d="M0,789.4896972100007L10,789.4896972100007L20,787.3876366520008L30,785.2855760940009L40,785.2855760940009L50,778.9793944200014L60,778.9793944200014L70,778.9793944200014L80,776.8773338620016L90,772.6732127460019L100,772.6732127460019L110,770.571152188002L120,766.3670310720023L130,762.1629099560025L140,757.9587888400029L150,751.6526071660032L160,745.3464254920037L170,741.1423043760041L180,734.8361227020044L190,728.5299410280048L200,722.2237593540052L210,715.9175776800057L220,709.6113960060061L230,696.999032658007L240,684.3866693100078L250,682.284608752008L260,671.7743059620087L270,661.2640031720094L280,654.9578214980098L290,648.6516398240102L300,646.5495792660104L310,619.2227920120122L320,602.4063075480133L330,587.6918836420143L340,583.4877625260146L350,572.9774597360154L360,549.854793598017L370,533.0383091340182L380,514.1197641120193L390,501.5074007640202L400,482.5888557420215L410,469.9764923940224L420,469.9764923940224" stroke="#72b7b2" stroke-width="4" opacity="0.5"></path></g></g><path class="foreground" aria-hidden="true" d="" display="none"></path></g><g transform="translate(0,0)"><path class="background" aria-hidden="true" d="M0,0h650v800h-650Z"></path><g><g class="mark-line role-mark layer_0_layer_1_marks" role="graphics-symbol" aria-roledescription="line mark container" pointer-events="none"><path d="M0,799.282819823362L10,799.1632897939224L20,798.9242297350431L30,798.8046997056035L40,798.3265795878449L50,797.8484594700864L60,797.7289294406467L70,797.7289294406467L80,797.4898693817674L90,797.4898693817674L100,797.3703393523277L110,796.8922192345691L120,796.6531591756899L130,795.9359789990519L140,795.6969189401726L150,795.218798822414L160,794.6211486752159L170,794.3820886163365L180,794.262558586897L190,793.6649084396986L200,792.5891381747417L210,791.9914880275435L220,791.3938378803454L230,791.154777821466L240,790.0790075565092L250,788.8837072621127L260,788.0469970560351L270,787.3298168793973L280,786.0149865555611L290,785.2978063789232L300,784.7001562317249L310,783.1462658490095L320,782.5486157018113L330,780.8751952896563L340,780.2775451424579L350,778.1260046125443L360,776.5721142298289L370,775.854934053191L380,774.4205736999153L390,773.1057433760791L400,771.7909130522429L410,768.683132286812L420,766.4120617274588L430,765.8144115802605L440,764.7386413153037L450,762.7066308148296L460,761.0332104026746L470,756.7301293428472L480,755.0567089306921L490,752.3075182535802L500,750.6340978414252" stroke="#54a24b" stroke-width="4" opacity="0.5"></path></g></g><path class="foreground" aria-hidden="true" d="" display="none"></path></g><g transform="translate(0,0)"><path class="background" aria-hidden="true" d="M0,0h650v800h-650Z"></path><g><g class="mark-line role-mark layer_0_layer_1_marks" role="graphics-symbol" aria-roledescription="line mark container" pointer-events="none"><path d="M0,799.0266302052075L10,799.0266302052075L20,798.6372822872905L30,798.2479343693735L40,795.9118468618716L50,795.7171729029131L60,795.5224989439546L70,793.1864114364527L80,793.1864114364527L90,792.2130416416602L100,788.9035843393658L110,788.9035843393658L120,786.9568447497808L130,785.5941270370714L140,785.2047791191543L150,780.337930145192L160,778.391190555607L170,775.8604290891466L180,773.7190155406031L190,769.8255363614333L200,764.9586873874708L210,763.2066217568445L220,759.89716445455L230,756.9770550701725L240,753.4729238089196L250,747.2433571222477L260,742.9605300251609L270,736.5362893795306L280,726.8025914316057L290,722.7144382934773L300,718.8209591143075L310,712.3967184686771L320,704.2204121924203L330,695.070736121371L340,675.7980141844799L350,668.2057297850987L360,661.3921412215514L370,645.2342026279963L380,634.7218088442376L390,624.2094150604787L400,605.9100629183802L410,593.256255586078L420,583.1332097202362L430,568.5326627983491L440,550.817332533126L450,529.5978710066499L460,524.9256959916462L470,495.14058027099634L480,485.7962302409886L490,480.54003334910914L500,459.70991974055016L510,438.6851321730327L520,430.119477978859L530,379.3095746906917L540,361.7889183844271L550,350.6925027237928" stroke="#eeca3b" stroke-width="4" opacity="0.5"></path></g></g><path class="foreground" aria-hidden="true" d="" display="none"></path></g><g transform="translate(0,0)"><path class="background" aria-hidden="true" d="M0,0h650v800h-650Z"></path><g><g class="mark-line role-mark layer_0_layer_1_marks" role="graphics-symbol" aria-roledescription="line mark container" pointer-events="none"><path d="M0,797.0520401871777L10,796.4624482246134L20,795.8728562620489L30,795.8728562620489L40,794.1040803743556L50,792.9248964492266L60,792.9248964492266L70,792.3353044866622L80,791.7457125240977L90,791.7457125240977L100,791.7457125240977L110,791.1561205615333L120,789.9769366364044L130,789.9769366364044L140,788.2081607487111L150,785.8497928984533L160,785.8497928984533L170,785.8497928984533L180,785.8497928984533L190,785.8497928984533L200,785.2602009358887L210,784.6706089733243L220,784.6706089733243L230,784.08101701076L240,784.08101701076L250,783.4914250481954L260,783.4914250481954L270,783.4914250481954L280,782.3122411230665L290,781.7226491605021L300,781.1330571979377L310,780.5434652353732L320,780.5434652353732L330,779.9538732728088L340,779.3642813102443L350,779.3642813102443L360,778.1850973851153L370,777.0059134599866L380,775.2371375722932L390,774.0579536471643L400,772.8787697220354L410,771.6995857969065L420,769.9308099092132L430,767.5724420589554L440,766.982850096391L450,765.803666171262L460,761.0869304707464L470,757.5493786953597L480,754.011826919973L490,750.4742751445864L500,746.9367233691996L510,743.9887635563774" stroke="#b279a2" stroke-width="4" opacity="0.5"></path></g></g><path class="foreground" aria-hidden="true" d="" display="none"></path></g><g transform="translate(0,0)"><path class="background" aria-hidden="true" d="M0,0h650v800h-650Z"></path><g><g class="mark-line role-mark layer_0_layer_1_marks" role="graphics-symbol" aria-roledescription="line mark container" pointer-events="none"><path d="M0,797.7880908044023L10,797.3457089652827L20,797.3457089652827L30,797.3457089652827L40,797.3457089652827L50,797.3457089652827L60,796.9033271261632L70,796.4609452870436L80,796.0185634479241L90,793.8066542523263L100,792.4795087349677L110,792.037126895848L120,790.7099813784894L130,787.6133085046527L140,787.6133085046527L150,786.7285448264136L160,784.9590174699352L170,784.9590174699352L180,784.9590174699352L190,783.6318719525766L200,780.9775809178593L210,779.2080535613811L220,776.9961443657835L230,774.7842351701856L240,772.1299441354683L250,765.9365983877947L260,762.8399255139578L270,758.8584889618819L280,755.3194342489255L290,753.9922887315669L300,749.1260885012518L310,745.5870337882955L320,741.1632153970999L330,735.4122514885457L340,730.5460512582307L350,727.0069965452743L360,723.9103236714375L370,719.9288871193615L380,713.2931595325683L390,706.2150501066554L400,696.9250314851449L410,689.8469220592322L420,684.9807218289172L430,680.114521598602L440,673.9211758509284L450,666.400684585896L460,656.2259022861464L470,646.9358836646359L480,639.4153923996035L490,624.3744098695388L500,615.5267730871478" stroke="#ff9da6" stroke-width="4" opacity="0.5"></path></g></g><path class="foreground" aria-hidden="true" d="" display="none"></path></g><g transform="translate(0,0)"><path class="background" aria-hidden="true" d="M0,0h650v800h-650Z"></path><g><g class="mark-line role-mark layer_0_layer_1_marks" role="graphics-symbol" aria-roledescription="line mark container" pointer-events="none"><path d="M0,798.7334795467871L10,798.7334795467871L20,798.2268713655019L30,798.2268713655019L40,797.9735672748593L50,797.4669590935741L60,796.4537427310037L70,796.2004386403612L80,796.2004386403612L90,796.2004386403612L100,795.9471345497186L110,795.9471345497186L120,795.4405263684334L130,795.4405263684334L140,795.1872222777909L150,795.1872222777909L160,794.6806140965056L170,794.1740059152204L180,793.9207018245779L190,793.6673977339352L200,793.6673977339352L210,793.4140936432927L220,793.16078955265L230,793.16078955265L240,792.6541813713649L250,792.6541813713649L260,792.4008772807223L270,792.4008772807223L280,792.4008772807223L290,790.3744445555816L300,788.6013159210835L310,788.8546200117261L320,787.5880995585131L330,788.0947077397983L340,788.0947077397983L350,787.5880995585131L360,786.8281872865854L370,784.5484504708021L380,783.0286259269466L390,783.0286259269466L400,782.5220177456614L410,782.2687136550187L420,781.508801383091L430,781.508801383091L440,780.2422809298781L450,778.4691522953799L460,775.936111388954L470,775.936111388954" stroke="#9d755d" stroke-width="4" opacity="0.5"></path></g></g><path class="foreground" aria-hidden="true" d="" display="none"></path></g><g transform="translate(0,0)"><path class="background" aria-hidden="true" d="M0,0h650v800h-650Z"></path><g><g class="mark-line role-mark layer_0_layer_1_marks" role="graphics-symbol" aria-roledescription="line mark container" pointer-events="none"><path d="M0,797.2360345897079L10,796.9847650069541L20,795.9796866759389L30,794.7233387621698L40,793.9695300139082L50,793.2157212656467L60,791.9593733518776L70,791.45683418637L80,790.7030254381086L90,789.949216689847L100,788.9441383588318L110,787.9390600278165L120,786.4314425312936L130,784.9238250347706L140,783.4162075382476L150,780.9035117107095L160,777.8882767176635L170,774.8730417246177L180,771.8578067315718L190,768.5913021557722L200,763.5659105006956L210,758.2892492628654L220,753.7663967732965L230,748.7410051182201L240,743.7156134631435L250,740.4491088873439L260,737.433873894298L270,731.905943073714L280,726.8805514186374L290,723.3627772600839L300,717.0810376912383L310,710.7992981223928L320,704.7688281363011L330,699.7434364812245L340,693.7129664951327L350,688.4363052573025L360,681.9032961057031L370,675.3702869541037L380,668.3347386369967L390,662.052999068151L400,655.2687203337978L410,648.2331720166908L420,640.6950845340762L430,633.4082666342151L440,625.8701791516005L450,618.5833612517397L460,610.5427346036173" stroke="#bab0ac" stroke-width="4" opacity="0.5"></path></g></g><path class="foreground" aria-hidden="true" d="" display="none"></path></g><g transform="translate(0,0)"><path class="background" aria-hidden="true" d="M0,0h650v800h-650Z"></path><g><g class="mark-line role-mark layer_0_layer_1_marks" role="graphics-symbol" aria-roledescription="line mark container" pointer-events="none"><path d="M0,799.4961135632798L10,799.4961135632798L20,799.4961135632798L30,799.2441703449196L40,799.0762081993461L50,798.824264980986L60,798.7402839081992L70,798.5723217626258L80,798.5723217626258L90,798.3203785442657L100,798.0684353259055L110,797.7325110347587L120,797.4805678163985L130,797.2286245980384L140,797.060662452465L150,796.7247381613181L160,796.7247381613181L170,796.5567760157446L180,796.3048327973845L190,796.0528895790244L200,795.7169652878774L210,795.4650220695173L220,795.1290977783705L230,794.8771545600104L240,794.7931734872236L250,794.0373438321432L260,793.2815141770627L270,793.1135520314892L280,792.609665594769L290,792.609665594769L300,792.5256845219823L310,792.4417034491956L320,792.1057791580487L330,791.8538359396886L340,791.0980062846081L350,790.6781009206745L360,790.0902334111676L370,790.0062523383808L380,789.8382901928073L390,789.3344037560871L400,788.6625551737933L410,788.3266308826464L420,787.7387633731395L430,787.4028390819926L440,786.8989526452723L450,786.4790472813388L460,785.9751608446185L470,785.1353501167513L480,783.9596150977372L490,783.1198043698702L500,781.7761072052826" stroke="#4c78a8" stroke-width="4" opacity="0.5"></path></g></g><path class="foreground" aria-hidden="true" d="" display="none"></path></g><g transform="translate(0,0)"><path class="background" aria-hidden="true" d="M0,0h650v800h-650Z"></path><g><g class="mark-line role-mark layer_0_layer_1_marks" role="graphics-symbol" aria-roledescription="line mark container" pointer-events="none"><path d="M0,796.8013912668546L10,796.8013912668546L20,796.8013912668546L30,796.8013912668546L40,796.8013912668546L50,796.1616695202255L60,796.1616695202255L70,795.5219477735964L80,795.5219477735964L90,795.5219477735964L100,795.5219477735964L110,794.2425042803383L120,794.2425042803383L130,794.2425042803383L140,794.2425042803383L150,794.2425042803383L160,794.2425042803383L170,793.6027825337092L180,793.6027825337092L190,793.6027825337092L200,793.6027825337092L210,793.6027825337092L220,792.96306078708L230,792.96306078708L240,792.96306078708L250,792.96306078708L260,792.323339040451L270,791.6836172938218L280,791.0438955471928L290,791.0438955471928L300,790.4041738005637L310,790.4041738005637L320,789.7644520539346L330,789.7644520539346L340,789.1247303073055L350,789.1247303073055L360,789.1247303073055L370,789.1247303073055" stroke="#f58518" stroke-width="4" opacity="0.5"></path></g></g><path class="foreground" aria-hidden="true" d="" display="none"></path></g><g transform="translate(0,0)"><path class="background" aria-hidden="true" d="M0,0h650v800h-650Z"></path><g><g class="mark-line role-mark layer_0_layer_1_marks" role="graphics-symbol" aria-roledescription="line mark container" pointer-events="none"><path d="M0,797.4489953729241L10,797.4489953729241L20,797.4489953729241L30,797.4489953729241L40,796.9387944475088L50,796.9387944475088L60,796.9387944475088L70,796.4285935220937L80,795.9183925966785L90,795.4081916712632L100,795.4081916712632L110,794.897990745848L120,794.3877898204329L130,794.3877898204329L140,794.3877898204329L150,794.3877898204329L160,793.8775888950178L170,793.8775888950178L180,793.3673879696025L190,793.3673879696025L200,793.3673879696025L210,792.8571870441873L220,792.3469861187721L230,791.836785193357L240,790.8163833425265L250,790.3061824171112L260,789.7959814916961L270,789.285780566281L280,787.7551777900353L290,786.734775939205L300,786.2245750137898L310,786.2245750137898L320,784.6939722375442L330,783.6735703867138L340,783.6735703867138L350,782.6531685358834L360,781.1225657596378L370,781.1225657596378" stroke="#e45756" stroke-width="4" opacity="0.5"></path></g></g><path class="foreground" aria-hidden="true" d="" display="none"></path></g><g transform="translate(0,0)"><path class="background" aria-hidden="true" d="M0,0h650v800h-650Z"></path><g><g class="mark-line role-mark layer_0_layer_1_marks" role="graphics-symbol" aria-roledescription="line mark container" pointer-events="none"><path d="M0,798.9667524843306L10,798.9667524843306L20,798.7601029811967L30,798.5534534780629L40,798.1401544717952L50,797.7268554655274L60,797.1069069561258L70,797.1069069561258L80,795.6603604341888L90,795.6603604341888L100,794.6271129185194L110,793.3872158997161L120,793.1805663965822L130,792.9739168934484L140,792.7672673903145L150,792.1473188809128L160,791.1140713652435L170,789.0475763339048L180,782.228142730487L190,780.3682972022822L200,776.4419566427387L210,774.7887606176677L220,772.722265586329L230,767.762677511116L240,753.7105112980126L250,745.6511806757917L260,736.7652520410352L270,734.4921075065625L280,728.912570921948L290,722.506436324798L300,715.2737037151124L310,699.1550424706704L320,681.3831852011574L330,673.9438030883381L340,661.1315338940381L350,632.200603455296L360,611.122354135641L370,588.8042077971828L380,573.7187940684101L390,557.1868338177004L400,547.2676576672745L410,535.4886359886438L420,512.3438916376502L430,512.3438916376502L440,432.57718342797557L450,408.8124905675803L460,386.08104522285436L470,355.7035682621753" stroke="#72b7b2" stroke-width="4" opacity="0.5"></path></g></g><path class="foreground" aria-hidden="true" d="" display="none"></path></g><g transform="translate(0,0)"><path class="background" aria-hidden="true" d="M0,0h650v800h-650Z"></path><g><g class="mark-line role-mark layer_0_layer_1_marks" role="graphics-symbol" aria-roledescription="line mark container" pointer-events="none"><path d="M0,796.9029240627674L10,795.1331663843488L20,795.1331663843488L30,794.2482875451395L40,794.2482875451395L50,792.9209692863255L60,790.7087721883023L70,789.3814539294884L80,788.4965750902791L90,787.6116962510697L100,787.1692568314651L110,785.8419385726512L120,785.3994991530465L130,782.7448626354186L140,782.302423215814L150,780.5326655373954L160,779.6477866981861L170,778.3204684393721L180,777.8780290197674L190,776.5507107609535L200,774.7809530825349L210,772.5687559845117L220,770.3565588864884L230,767.2594829492558L240,766.3746041100464L250,765.0472858512326L260,762.3926493336047L270,759.2955733963721L280,755.3136186199303L290,750.8892244238838L300,749.5619061650698L310,745.1375119690232L320,740.2706783533721L330,738.5009206749535L340,731.8643293808838L350,730.5370111220698L360,729.2096928632558L370,724.7852986672093L380,719.0335862123488L390,714.1667525966976L400,708.4150401418373L410,703.1057671065814L420,698.2389334909302L430,691.6023421968605L440,690.2750239380465L450,685.850629742" stroke="#54a24b" stroke-width="4" opacity="0.5"></path></g></g><path class="foreground" aria-hidden="true" d="" display="none"></path></g><g transform="translate(0,0)"><path class="background" aria-hidden="true" d="M0,0h650v800h-650Z"></path><g><g class="mark-line role-mark layer_0_layer_1_marks" role="graphics-symbol" aria-roledescription="line mark container" pointer-events="none"><path d="M0,799.0699149468609L10,799.0699149468609L20,798.8838979362331L30,798.8838979362331L40,798.5118639149775L50,798.3258469043496L60,798.1398298937219L70,797.3957618512106L80,796.0936427768158L90,794.4194896811656L100,793.6754216386543L110,791.4432175111206L120,789.5830474048423L130,787.9088943091921L140,786.6067752347974L150,784.1885540966357L160,781.0262649159629L170,778.6080437778013L180,773.3995674802225L190,770.2372782995496L200,765.4008360232265L210,761.866512821298L220,759.8203257043921L230,756.4720195130915L240,751.6355772367683L250,747.5432030029564L260,741.9626926841219L270,734.5220122590093L280,729.1275189508027L290,722.802940589457L300,716.2923452174834L310,705.5033586010702L320,699.9228482822358L330,694.9003889952849L340,687.8317425914279L350,683.1813173257325L360,678.716909070665L370,671.4622456561802L380,660.6732590397669L390,650.628340465865L400,642.8156260194967L410,627.5622311480159L420,619.1914656697643L430,605.2401898726782L440,597.7995094475657L450,584.7783187036187L460,572.3151789915551L470,558.5499202050968L480,543.1105083229883L490,528.2291474727631L500,517.9982118882332L510,494.9321025703842L520,476.1443844969749L530,458.84480250858815L540,441.9172545414571L550,417.36300913858554L560,401.17952921396574" stroke="#eeca3b" stroke-width="4" opacity="0.5"></path></g></g><path class="foreground" aria-hidden="true" d="" display="none"></path></g><g transform="translate(0,0)"><path class="background" aria-hidden="true" d="M0,0h650v800h-650Z"></path><g><g class="mark-line role-mark layer_0_layer_1_marks" role="graphics-symbol" aria-roledescription="line mark container" pointer-events="none"><path d="M0,797.2843652796189L10,796.7412383355427L20,796.1981113914665L30,796.1981113914665L40,796.1981113914665L50,796.1981113914665L60,795.6549844473902L70,795.6549844473902L80,795.6549844473902L90,795.6549844473902L100,795.111857503314L110,794.5687305592378L120,793.4824766710854L130,792.3962227829329L140,791.8530958388567L150,791.8530958388567L160,791.3099688947805L170,790.7668419507042L180,790.223715006628L190,789.1374611184756L200,788.5943341743994L210,786.9649533421707L220,786.9649533421707L230,786.9649533421707L240,785.8786994540183L250,784.7924455658658L260,784.7924455658658L270,784.2493186217896L280,783.7061916777134L290,780.9905569573323L300,779.9043030691797L310,779.3611761251036L320,777.1886683487987L330,775.55928751657L340,773.3867797402652L350,769.0417641876554L360,767.4123833554268L370,767.4123833554268L380,764.6967486350457L390,760.8948600265121L400,756.5498444739023L410,753.8342097535212L420,752.7479558653687L430,750.5754480890639L440,749.4891942009115L450,746.2304325364541L460,741.8854169838444" stroke="#b279a2" stroke-width="4" opacity="0.5"></path></g></g><path class="foreground" aria-hidden="true" d="" display="none"></path></g><g transform="translate(0,0)"><path class="background" aria-hidden="true" d="M0,0h650v800h-650Z"></path><g><g class="mark-line role-mark layer_0_layer_1_marks" role="graphics-symbol" aria-roledescription="line mark container" pointer-events="none"><path d="M0,799.2225885676421L10,798.911623994699L20,798.4451771352841L30,797.8232479893978L40,797.6677657029262L50,797.3568011299831L60,796.268425124682L70,795.9574605517388L80,795.8019782652673L90,795.1800491193809L100,794.8690845464376L110,793.9361908276081L120,793.6252262546651L130,793.3142616817219L140,793.1587793952503L150,792.3813679628923L160,791.9149211034776L170,791.759438817006L180,791.4484742440629L190,790.6710628117049L200,790.3600982387618L210,789.5826868064039L220,788.9607576605175L230,788.3388285146312L240,788.027863941688L250,787.7168993687449L260,786.939487936387L270,786.3175587905006L280,785.6956296446142L290,785.5401473581426L300,785.0737004987278L310,784.9182182122563L320,784.1408067798984L330,783.8298422069553L340,783.3633953475404L350,783.0524307745973L360,782.8969484881256L370,782.5859839151826L380,782.2750193422394L390,781.9640547692961L400,781.3421256234099L410,781.0311610504667L420,780.7201964775236L430,780.4092319045803L440,780.2537496181087L450,779.787302758694L460,779.3208558992792L470,778.2324798939782L480,777.6105507480919L490,776.8331393157339L500,776.2112101698475" stroke="#ff9da6" stroke-width="4" opacity="0.5"></path></g></g><path class="foreground" aria-hidden="true" d="" display="none"></path></g><g transform="translate(0,0)"><path class="background" aria-hidden="true" d="M0,0h650v800h-650Z"></path><g><g class="mark-line role-mark layer_0_layer_1_marks" role="graphics-symbol" aria-roledescription="line mark container" pointer-events="none"><path d="M0,799.3821777073538L10,799.1762369431384L20,799.0732665610307L30,798.9702961789229L40,798.6613850325998L50,798.249503504169L60,798.1465331220613L70,797.6316812115227L80,797.1168293009841L90,795.778214333584L100,795.1603920409377L110,794.027717837753L120,793.4098955451067L130,792.6891028703528L140,790.835635992414L150,789.0851394965831L160,787.4376133828598L170,784.8633538301672L180,784.0395907733055L190,782.4950350416898L200,781.2593904563973L210,776.9346344078737L220,772.7128487414577L230,769.0059149855803L240,764.887099701272L250,760.1504621243174L260,758.6059063927019L270,756.5464987505477L280,752.5306538483471L290,749.5445127672236L300,745.4256974829154L310,741.3068821986071L320,736.6732150037603L330,733.5841035405291L340,730.2890513130825L350,724.0078580045124L360,718.2415166064808L370,712.0632936800183L380,705.164278078802L390,700.0157589734167L400,695.0731806322468L410,690.3365430552922L420,684.3642608930453L430,675.9206895602133L440,656.4592873418567L450,645.2355156921167L460,629.7899583759606L470,623.5087650673906L480,617.7424236693589L490,601.4731032963413L500,588.9107166792011L510,568.6255514039829L520,548.9582084214109L530,530.8354211704545L540,520.435412577576L550,506.3284702288202L560,482.9541934903708L570,466.68487311735305L580,448.6650562485044L590,423.43731263211623L600,397.90065786940494" stroke="#9d755d" stroke-width="4" opacity="0.5"></path></g></g><path class="foreground" aria-hidden="true" d="" display="none"></path></g><g transform="translate(0,0)"><path class="background" aria-hidden="true" d="M0,0h650v800h-650Z"></path><g><g class="mark-line role-mark layer_0_layer_1_marks" role="graphics-symbol" aria-roledescription="line mark container" pointer-events="none"><path d="M0,796.9583365294562L10,796.451392617699L20,796.451392617699L30,795.9444487059417L40,794.4236169706699L50,794.4236169706699L60,794.4236169706699L70,793.4097291471553L80,791.3819535001261L90,790.8750095883688L100,790.3680656766115L110,789.8611217648543L120,788.3402900295824L130,787.833346117825L140,786.8194582943105L150,786.3125143825532L160,785.8055704707959L170,785.2986265590387L180,782.7639070002523L190,780.7361313532231L200,779.7222435297085L210,777.6944678826793L220,777.1875239709221L230,775.6666922356502L240,772.6250287651065L250,771.611140941592L260,771.611140941592L270,770.0903092063201L280,769.0764213828055L290,768.5694774710482L300,765.5278140005045L310,763.5000383534754L320,761.4722627064463L330,758.9375431476597L340,755.895879677116L350,755.895879677116L360,755.895879677116L370,752.8542162065723L380,746.7708892654849L390,740.6875623243974L400,738.152842765611L410,738.152842765611L420,731.0556280010089L430,729.5347962657371L440,718.8889741188341L450,713.8195350012612L460,709.7639837072029L470,708.243151971931L480,706.7223202366591L490,706.7223202366591" stroke="#bab0ac" stroke-width="4" opacity="0.5"></path></g></g><path class="foreground" aria-hidden="true" d="" display="none"></path></g><g transform="translate(0,0)"><path class="background" aria-hidden="true" d="M0,0h650v800h-650Z"></path><g><g class="mark-line role-mark layer_0_layer_1_marks" role="graphics-symbol" aria-roledescription="line mark container" pointer-events="none"><path d="M0,794.998444828939L10,794.998444828939L20,794.998444828939L30,793.9981337947268L40,792.9978227605145L50,789.996889657878L60,789.996889657878L70,788.9965786236658L80,784.995334486817L90,783.9950234526049L100,781.9944013841804L110,776.9928462131194L120,775.9925351789071L130,774.992224144695L140,770.9909800078461L150,766.9897358709974L160,762.9884917341486L170,760.9878696657242L180,758.9872475972998L190,756.9866255288754L200,752.9853813920265L210,749.98444828939L220,749.98444828939L230,743.9825820841169L240,737.9807158788436L250,730.9785386393581L260,725.9769834682972L270,716.9741841603874L280,711.9726289893264L290,709.9720069209019L300,709.9720069209019L310,693.9670303735068L320,684.964231065597" stroke="#4c78a8" stroke-width="4" opacity="0.5"></path></g></g><path class="foreground" aria-hidden="true" d="" display="none"></path></g><g transform="translate(0,0)"><path class="background" aria-hidden="true" d="M0,0h650v800h-650Z"></path><g><g class="mark-line role-mark layer_0_layer_1_marks" role="graphics-symbol" aria-roledescription="line mark container" pointer-events="none"><path d="M0,779.456510992876L10,779.456510992876L20,779.456510992876L30,779.456510992876L40,767.7173744173766L50,767.7173744173766L60,761.8478061296269L70,758.9130219857519L80,753.0434536980023L90,747.1738854102525L100,738.369532978628L110,729.5651805470034L120,717.826043971504L130,714.8912598276291L140,691.4129866766302L150,682.6086342450056L160,656.195576950132L170,650.3260086623822L180,623.9129513675085L190,612.1738147920091L200,612.1738147920091L210,612.1738147920091L220,588.6955416410102L230,588.6955416410102" stroke="#f58518" stroke-width="4" opacity="0.5"></path></g></g><path class="foreground" aria-hidden="true" d="" display="none"></path></g><g transform="translate(0,0)"><path class="background" aria-hidden="true" d="M0,0h650v800h-650Z"></path><g><g class="mark-line role-mark layer_0_layer_1_marks" role="graphics-symbol" aria-roledescription="line mark container" pointer-events="none"><path d="M0,799.2187130033141L10,799.2187130033141L20,799.0624556039768L30,798.9061982046396L40,798.9061982046396L50,798.7499408053023L60,798.7499408053023L70,798.4374260066279L80,797.8123964092791L90,797.656139009942L100,797.4998816106048L110,797.4998816106048L120,797.3436242112676L130,797.1873668119304L140,797.0311094125932L150,796.7185946139188L160,796.2498224159071L170,796.2498224159071L180,795.9373076172327L190,795.7810502178955L200,795.7810502178955L210,795.6247928185584L220,795.4685354192212L230,794.6872484225352L240,794.530991023198L250,794.0622188251863L260,792.968417029826L270,792.3433874324771L280,792.0308726338027L290,790.9370708384423L300,790.3120412410935L310,789.8432690430819L320,789.5307542444075L330,788.1244376503728L340,787.0306358550123L350,785.9368340596519L360,785.7805766603148L370,785.1555470629659L380,784.8430322642914L390,784.3742600662799L400,783.5929730695939L410,782.6554286735707L420,781.249112079536L430,780.3115676835126L440,779.3740232874895L450,778.4364788914662L460,777.4989344954431L470,776.4051327000826L480,774.9988161060478L490,774.8425587067106L500,774.0612717100246L510,773.1237273140014L520,772.4986977166526" stroke="#e45756" stroke-width="4" opacity="0.5"></path></g></g><path class="foreground" aria-hidden="true" d="" display="none"></path></g><g transform="translate(0,0)"><path class="background" aria-hidden="true" d="M0,0h650v800h-650Z"></path><g><g class="mark-line role-mark layer_0_layer_1_marks" role="graphics-symbol" aria-roledescription="line mark container" pointer-events="none"><path d="M0,798.759364702921L10,798.759364702921L20,797.5187294058418L30,797.5187294058418L40,797.2706023464259L50,796.2780941087627L60,795.781839989931L70,795.5337129305152L80,795.5337129305152L90,794.7893317522677L100,794.0449505740203L110,793.5486964551885L120,793.0524423363569L130,792.8043152769411L140,792.5561882175253L150,792.3080611581095L160,792.0599340986937L170,791.3155529204462L180,791.3155529204462L190,790.8192988016145L200,790.3230446827829L210,789.5786635045354L220,789.5786635045354L230,789.5786635045354L240,789.3305364451196L250,789.0824093857038L260,789.0824093857038L270,788.5861552668722L280,788.0899011480404L290,787.5936470292088L300,787.0973929103772L310,787.0973929103772L320,786.3530117321297L330,785.6086305538822L340,785.3605034944665L350,784.3679952568032L360,784.3679952568032L370,784.1198681973873L380,783.8717411379715L390,782.8792329003081L400,781.886724662645L410,781.886724662645L420,780.6460893655658L430,780.3979623061499L440,779.9017081873183L450,779.4054540684866L460,778.9091999496551L470,777.42043759316L480,776.6760564149126L490,775.6835481772492L500,775.1872940584176L510,774.4429128801702" stroke="#72b7b2" stroke-width="4" opacity="0.5"></path></g></g><path class="foreground" aria-hidden="true" d="" display="none"></path></g><g transform="translate(0,0)"><path class="background" aria-hidden="true" d="M0,0h650v800h-650Z"></path><g><g class="mark-line role-mark layer_0_layer_1_marks" role="graphics-symbol" aria-roledescription="line mark container" pointer-events="none"><path d="M0,796.1330733211835L10,796.1330733211835L20,796.1330733211835L30,794.5863026496569L40,794.5863026496569L50,793.8129173138935L60,793.8129173138935L70,793.0395319781302L80,793.0395319781302L90,791.4927613066036L100,791.4927613066036L110,791.4927613066036L120,789.1726052993137L130,789.1726052993137L140,789.1726052993137L150,789.1726052993137L160,786.8524492920237L170,783.7589079489705L180,782.2121372774438L190,780.6653666059173L200,778.3452105986273L210,774.4782839198107L220,773.7048985840474L230,771.3847425767575L240,771.3847425767575L250,767.517815897941L260,763.6508892191245L270,761.3307332118345L280,759.0105772045446L290,755.9170358614913L300,754.3702651899647L310,751.2767238469115L320,746.6364118323316L330,741.2227144819884L340,736.5824024674085L350,733.4888611243553" stroke="#54a24b" stroke-width="4" opacity="0.5"></path></g></g><path class="foreground" aria-hidden="true" d="" display="none"></path></g><g transform="translate(0,0)"><path class="background" aria-hidden="true" d="M0,0h650v800h-650Z"></path><g><g class="mark-line role-mark layer_0_layer_1_marks" role="graphics-symbol" aria-roledescription="line mark container" pointer-events="none"><path d="M0,799.8064226267211L10,799.6515607280978L20,799.419267880163L30,799.1482595575725L40,798.8385357603261L50,798.4513810137681L60,798.1416572165218L70,797.7545024699638L80,797.3673477234058L90,796.7479001289131L100,796.2058834837319L110,795.625151363895L120,794.7346954468117L130,793.6506621564494L140,792.7214907647102L150,791.5213110503805L160,789.9339765894929L170,789.353244469656L180,788.2304957046379L190,785.6365589026994L200,783.4297768473191L210,780.7971245707249L220,779.0936436858699L230,778.3193341927539L240,777.2353009023916L250,776.4609914092757L260,773.0927451142214L270,769.8793607177903L280,766.9757001186056L290,764.0720395194209L300,761.6329646161057L310,760.7037932243666L320,759.852052781939L330,757.6839862012145L340,756.0966517403267L350,747.9276865879538L360,741.4622023204357L370,735.4613037487871L380,734.1836930851459L390,729.3442587531714L400,720.671992430273L410,713.0063284484253L420,708.0507476924832L430,702.7854431392949L440,699.8817825401103L450,698.2944480792225L460,697.2491302635161L470,689.6221817563242L480,682.1113796730996L490,675.8781882535164L500,667.747938575799L510,660.3145674418862L520,656.4043045016508L530,655.0879783633537L540,647.1125905842596L550,640.56967536743L560,632.9427268602382L570,625.7416485742599L580,618.501854813626L590,614.8626001959811L600,613.2752657350934L610,600.7314519466154L620,592.3689094209633L630,584.8193918630831L640,576.4955648120867L650,565.9649557057102" stroke="#eeca3b" stroke-width="4" opacity="0.5"></path></g></g><path class="foreground" aria-hidden="true" d="" display="none"></path></g><g transform="translate(0,0)"><path class="background" aria-hidden="true" d="M0,0h650v800h-650Z"></path><g><g class="mark-line role-mark layer_0_layer_1_marks" role="graphics-symbol" aria-roledescription="line mark container" pointer-events="none"><path d="M0,793.2183245955684L10,792.0880453614965L20,789.8274868933527L30,789.8274868933527L40,789.8274868933527L50,789.8274868933527L60,787.5669284252087L70,786.4366491911369L80,784.176090722993L90,776.2641360844895L100,774.0035776163456L110,772.8732983822737L120,769.4824606800579L130,769.4824606800579L140,763.8310645096983L150,757.0493891052668L160,752.528272168979L170,746.8768759986194L180,744.6163175304755L190,742.3557590623316L200,742.3557590623316" stroke="#b279a2" stroke-width="4" opacity="0.5"></path></g></g><path class="foreground" aria-hidden="true" d="" display="none"></path></g></g><g class="mark-text role-mark layer_0_layer_2_marks" role="graphics-object" aria-roledescription="text mark container" pointer-events="none"><text text-anchor="start" transform="translate(375,629.6280432609357)" font-family="sans-serif" font-size="15px" fill="#4c78a8">AC</text><text text-anchor="start" transform="translate(385,644.6602128237671)" font-family="sans-serif" font-size="15px" fill="#f58518">AL</text><text text-anchor="start" transform="translate(505,56.93102141307237)" font-family="sans-serif" font-size="15px" fill="#e45756">AM</text><text text-anchor="start" transform="translate(425,474.9764923940224)" font-family="sans-serif" font-size="15px" fill="#72b7b2">AP</text><text text-anchor="start" transform="translate(505,755.6340978414252)" font-family="sans-serif" font-size="15px" fill="#54a24b">BA</text><text text-anchor="start" transform="translate(555,355.6925027237928)" font-family="sans-serif" font-size="15px" fill="#eeca3b">CE</text><text text-anchor="start" transform="translate(515,748.9887635563774)" font-family="sans-serif" font-size="15px" fill="#b279a2">DF</text><text text-anchor="start" transform="translate(505,620.5267730871478)" font-family="sans-serif" font-size="15px" fill="#ff9da6">ES</text><text text-anchor="start" transform="translate(475,780.936111388954)" font-family="sans-serif" font-size="15px" fill="#9d755d">GO</text><text text-anchor="start" transform="translate(465,615.5427346036173)" font-family="sans-serif" font-size="15px" fill="#bab0ac">MA</text><text text-anchor="start" transform="translate(505,786.7761072052826)" font-family="sans-serif" font-size="15px" fill="#4c78a8">MG</text><text text-anchor="start" transform="translate(375,794.1247303073055)" font-family="sans-serif" font-size="15px" fill="#f58518">MS</text><text text-anchor="start" transform="translate(375,786.1225657596378)" font-family="sans-serif" font-size="15px" fill="#e45756">MT</text><text text-anchor="start" transform="translate(475,360.7035682621753)" font-family="sans-serif" font-size="15px" fill="#72b7b2">PA</text><text text-anchor="start" transform="translate(455,690.850629742)" font-family="sans-serif" font-size="15px" fill="#54a24b">PB</text><text text-anchor="start" transform="translate(565,406.17952921396574)" font-family="sans-serif" font-size="15px" fill="#eeca3b">PE</text><text text-anchor="start" transform="translate(465,746.8854169838444)" font-family="sans-serif" font-size="15px" fill="#b279a2">PI</text><text text-anchor="start" transform="translate(505,781.2112101698475)" font-family="sans-serif" font-size="15px" fill="#ff9da6">PR</text><text text-anchor="start" transform="translate(605,402.90065786940494)" font-family="sans-serif" font-size="15px" fill="#9d755d">RJ</text><text text-anchor="start" transform="translate(495,711.7223202366591)" font-family="sans-serif" font-size="15px" fill="#bab0ac">RN</text><text text-anchor="start" transform="translate(325,689.964231065597)" font-family="sans-serif" font-size="15px" fill="#4c78a8">RO</text><text text-anchor="start" transform="translate(235,593.6955416410102)" font-family="sans-serif" font-size="15px" fill="#f58518">RR</text><text text-anchor="start" transform="translate(525,777.4986977166526)" font-family="sans-serif" font-size="15px" fill="#e45756">RS</text><text text-anchor="start" transform="translate(515,779.4429128801702)" font-family="sans-serif" font-size="15px" fill="#72b7b2">SC</text><text text-anchor="start" transform="translate(355,738.4888611243553)" font-family="sans-serif" font-size="15px" fill="#54a24b">SE</text><text text-anchor="start" transform="translate(655,570.9649557057102)" font-family="sans-serif" font-size="15px" fill="#eeca3b">SP</text><text text-anchor="start" transform="translate(205,747.3557590623316)" font-family="sans-serif" font-size="15px" fill="#b279a2">TO</text></g><g class="mark-group role-title"><g transform="translate(325,-27)"><path class="background" aria-hidden="true" d="M0,0h0v0h0Z" pointer-events="none"></path><g><g class="mark-text role-title-text" role="graphics-symbol" aria-roledescription="title" aria-label="Title text 'Mortes confirmadas pelo COVID-19 a cada 100 mil habitantes'" pointer-events="none"><text text-anchor="middle" transform="translate(0,18)" font-family="sans-serif" font-size="23px" font-weight="bold" fill="#000" opacity="1">Mortes confirmadas pelo COVID-19 a cada 100 mil habitantes</text></g></g><path class="foreground" aria-hidden="true" d="" pointer-events="none" display="none"></path></g></g></g><path class="foreground" aria-hidden="true" d="" display="none"></path></g></g></g></svg>